<?xml version="1.0" encoding="utf-8"?>
<svg version="1.1" xmlns:xlink="http://www.w3.org/1999/xlink" width="22px" height="11px" xmlns="http://www.w3.org/2000/svg">
  <g transform="matrix(1 0 0 1 -442 -322 )">
    <path d="M 9 4  L 10.5 4  C 10.78 4  11 3.78  11 3.5  C 11 3.22  10.78 3  10.5 3  L 8.5 3  C 8.22 3  8 3.22  8 3.5  L 8 7.5  C 8 7.78  8.22 8  8.5 8  L 10.5 8  C 10.78 8  11 7.78  11 7.5  C 11 7.22  10.78 7  10.5 7  L 9 7  L 9 6  L 10.5 6  C 10.78 6  11 5.78  11 5.5  C 11 5.22  10.78 5  10.5 5  L 9 5  L 9 4  Z M 7 3.52  C 7 3.25  6.78 3.03  6.5 3.03  C 6.22 3.03  6 3.25  6 3.52  L 6 6  L 3.9 3.23  C 3.77 3.05  3.55 2.98  3.34 3.05  C 3.14 3.12  3 3.31  3 3.52  L 3 7.5  C 3 7.77  3.22 8  3.5 8  C 3.78 8  4 7.77  4 7.5  L 4 5.01  L 6.1 7.79  C 6.2 7.92  6.35 8  6.5 8  C 6.55 8  6.61 7.99  6.66 7.97  C 6.86 7.9  7 7.71  7 7.5  L 7 3.52  Z M 22 2  C 22 0.9  21.1 0  20 0  L 2 0  C 0.9 0  0 0.9  0 2  L 0 9  C 0 10.1  0.9 11  2 11  L 20 11  C 21.1 11  22 10.1  22 9  L 22 2  Z M 21 2  L 21 9  C 21 9.55  20.55 10  20 10  L 2 10  C 1.45 10  1 9.55  1 9  L 1 2  C 1 1.45  1.45 1  2 1  L 20 1  C 20.55 1  21 1.45  21 2  Z M 18.84 3.63  C 18.94 3.37  18.81 3.09  18.55 3  C 18.3 2.91  18.01 3.03  17.92 3.29  L 16.9 5.99  L 15.88 3.29  C 15.74 2.91  15.1 2.91  14.96 3.29  L 13.94 5.99  L 12.92 3.29  C 12.83 3.03  12.55 2.9  12.29 3  C 12.03 3.1  11.91 3.38  12 3.63  L 13.48 7.55  C 13.62 7.93  14.26 7.93  14.4 7.55  L 15.42 4.85  L 16.44 7.55  C 16.51 7.74  16.7 7.87  16.9 7.87  C 17.11 7.87  17.29 7.74  17.36 7.55  L 18.84 3.63  Z " fill-rule="nonzero" fill="#e13438" stroke="none" transform="matrix(1 0 0 1 442 322 )" />
  </g>
</svg>