<?xml version="1.0" encoding="utf-8"?>
<svg version="1.1" xmlns:xlink="http://www.w3.org/1999/xlink" width="9px" height="3px" xmlns="http://www.w3.org/2000/svg">
  <g transform="matrix(1 0 0 1 -235 -218 )">
    <path d="M 2.00554937971015 2.76662525217391  L 1.46280816231884 2.76662525217391  C 1.00093539710145 2.57910817391304  0.607176649275361 2.32137393623188  0.451002875362319 1.80922977391304  C 0.239808695652174 1.11682768695652  0.61002604057971 0.374696927536229  1.2866208 0.140436266666665  C 1.97088176231884 -0.0965381101449285  2.72400303768116 0.247559814492751  2.98445096811594 0.916216973913043  C 3.24842671304348 1.59369368115942  2.93858933333333 2.34444044057971  2.27386706086956 2.64016656231884  C 2.18356848695652 2.68039726376811  2.0949659826087 2.72435928115942  2.00554937971015 2.76662525217391  Z M 7.90772424347827 2.76662525217391  L 7.36511872463768 2.76662525217391  C 6.90324595942029 2.57910817391304  6.50955506086957 2.32137393623188  6.35331343768116 1.80922977391304  C 6.14211925797102 1.11682768695652  6.51233660289855 0.374696927536229  7.18886351304348 0.140436266666665  C 7.87319232463768 -0.0965381101449285  8.6263135768116 0.247559814492751  8.88662583188406 0.916216973913043  C 9.1506015768116 1.59369368115942  8.84069634782609 2.34444044057971  8.17604192463768 2.64016656231884  C 8.08567552463768 2.68039726376811  7.99714084637682 2.72435928115942  7.90772424347827 2.76662525217391  Z " fill-rule="nonzero" fill="#e13438" stroke="none" transform="matrix(1 0 0 1 235 218 )" />
  </g>
</svg>