<?xml version="1.0" encoding="utf-8"?>
<svg version="1.1" xmlns:xlink="http://www.w3.org/1999/xlink" width="18px" height="20px" xmlns="http://www.w3.org/2000/svg">
  <g transform="matrix(1 0 0 1 -80 -205 )">
    <path d="M 10.9362504304687 0.553611931818182  L 6.8472483609375 0.553611931818182  C 6.3457123921875 0.553611931818182  5.94474266953125 1.00435360085227  5.94474266953125 1.56149585227273  C 5.94474266953125 2.11992450284091  6.34644630703125 2.57199618607955  6.8472483609375 2.57199618607955  L 10.9615484601562 2.57199618607955  C 11.4378511359375 2.57199618607955  11.8394252578125 2.11992450284091  11.8394252578125 1.56149585227273  C 11.8395331945312 1.00433178267045  11.4384339351563 0.553611931818182  10.9362504304687 0.553611931818182  Z M 15.3762305203125 1.22631220170455  L 13.3400182640625 1.22631220170455  C 13.3607186367188 1.33674642045455  13.372676915625 1.44844524147727  13.372676915625 1.56149585227273  C 13.37330289375 2.40988790482954  12.76401279375 3.24487089488636  12.03924099375 3.24487089488636  L 5.7836079140625 3.24487089488636  C 5.02084586953125 3.24487089488636  4.41073551796875 2.40988792613636  4.41073551796875 1.56149585227273  C 4.41146941171875 1.44844522017045  4.42342771171875 1.33674642045455  4.444128084375 1.22631220170455  L 2.38330851328125 1.22631220170455  C 0.72673967109375 1.22631220170455  0.3197475984375 2.17495628551136  0.3197475984375 3.543446640625  L 0.3197475984375 17.0990559446023  C 0.3197475984375 18.5691283238636  0.902552449218749 19.3919013991477  2.5083956953125 19  L 15.2510138015625 19  C 16.8568786265625 19.3919013991477  17.6375133632813 18.7468042400568  17.6375133632813 17.0997972727273  L 17.6375133632813 3.54342482244318  C 17.6376428789062 2.17506529119318  16.9067839921875 1.22642120738636  15.3762520992187 1.22642120738636  Z M 13.28419850625 14.61037234375  L 4.429428440625 14.61037234375  C 4.1030577140625 14.61037234375  3.77724822890625 14.2059629048295  3.77724822890625 13.8757722301136  C 3.77724822890625 13.5466935369318  4.053001275 13.2647973863636  4.37939358046875 13.2647973863636  L 13.2088871742188 13.2647973863636  C 13.5351715429688 13.2647973863636  13.8109030101563 13.5210309232955  13.8356614195313 13.8757722301136  C 13.8356614195313 14.2060719105114  13.6104828960937 14.61037234375  13.28419850625 14.61037234375  Z M 13.320181321875 11.0211403835227  L 4.46530331953125 11.0211403835227  C 4.13888943515625 11.0211403835227  3.93106554140625 10.6666607244318  3.93106554140625 10.3362301988636  C 3.93106554140625 10.0059087002841  4.206948103125 9.67556540482954  4.53321089296875 9.67556540482954  L 13.3627044867187 9.67556540482954  C 13.6891183710938 9.67556540482954  13.9648498382812 9.98161971590909  13.9894787320313 10.3362301988636  C 13.9895003109375 10.66655171875  13.6458613125 11.0211403835227  13.320181321875 11.0211403835227  Z M 13.320181321875 7.33483971590909  L 4.46530331953125 7.33483971590909  C 4.13888943515625 7.33483971590909  3.93106554140625 6.98022923295455  3.93106554140625 6.64992953125  C 3.93106554140625 6.31958623579545  4.206948103125 5.98926473721591  4.53321089296875 5.98926473721591  L 13.3627044867187 5.98926473721591  C 13.6891183710938 5.98926473721591  13.9648498382812 6.29544987215909  13.9894787320313 6.64992953125  C 13.9895003109375 6.98022923295455  13.6458613125 7.33483971590909  13.320181321875 7.33483971590909  Z " fill-rule="nonzero" fill="#e13438" stroke="none" transform="matrix(1 0 0 1 80 205 )" />
  </g>
</svg>