<?xml version="1.0" encoding="utf-8"?>
<svg version="1.1" xmlns:xlink="http://www.w3.org/1999/xlink" width="14px" height="10px" xmlns="http://www.w3.org/2000/svg">
  <g transform="matrix(1 0 0 1 -232 -209 )">
    <path d="M 1.01904739710145 3.37021535072464  C 0.701815165217388 3.34708099710145  0.457649460869563 3.24775937391304  0.256563872463768 3.01492338550725  L 0.256563872463768 2.67571014492754  C 0.383293936231884 2.4362256  0.572642782608695 2.32516716521739  0.852697228985507 2.32978047536232  C 1.08064853333333 2.3337831884058  1.30941395942029 2.28737882898551  1.55324044057971 2.26166645797101  C 1.54984830144928 1.73452906666667  1.46056737391304 1.20284621449275  2.02047276521739 0.911801252173913  L 11.4506011362319 0.911801252173913  C 11.6484303072464 1.10264262028985  11.8906285681159 1.26471872463768  12.036693773913 1.48934571594203  C 12.8062329507246 2.67326780289855  13.2800460289855 3.98012076521739  13.5447680463768 5.36146497391304  C 13.6624750376812 5.97659427246377  13.7330313971015 6.60101804057971  13.825161715942 7.22116769855073  L 13.825161715942 8.78154866086957  C 13.8022309101449 8.93548364057971  13.7677668405797 9.08853664927536  13.7584045681159 9.24335357681159  C 13.7250938202899 9.78846926376812  13.4389335188406 10.0321600695652  12.8942927304348 9.96560642318841  C 12.5765856 8.88955415652174  11.9073856927536 8.1592280115942  10.7498544 8.11241660289855  C 9.47278434782609 8.06065266086957  8.75351656811594 8.84172510144928  8.36579582608696 9.9859592115942  L 6.99734172753623 9.9859592115942  C 6.68424790724638 8.90183366956522  6.01776169275362 8.171304  4.86219784347826 8.11221307826087  C 3.6481536231884 8.05006921739131  2.87881797101449 8.71024602898551  2.52305110724638 9.84810295652174  C 1.87725692753623 9.87442590144928  1.62359325217391 9.63894406956522  1.62108308405797 9.02530729275363  C 1.61938701449275 8.61825138550725  1.62074386086956 8.21119550144928  1.62074386086956 7.80420744347826  L 1.62074386086956 6.62510216811594  C 2.5811244057971 6.5529175884058  3.49286179710145 6.47937616231884  4.40541328695652 6.41845347246377  C 4.73641757681159 6.39633676521739  4.96545435362319 6.25474914782609  5.13166884637681 5.92347348405797  C 3.79421885217391 5.8090907826087  2.50073087536232 5.69803234782609  1.2071072231884 5.58846648115942  C 0.865044591304346 5.55956551884058  0.663823281159418 5.37944326956522  0.672507153623187 5.10237388985507  C 0.68220864927536 4.7943004057971  0.895438098550723 4.60311983768116  1.21769068985507 4.58052823188406  C 2.44571049275362 4.49430022028985  3.67393384347826 4.40814005797101  4.90046110144927 4.30366237681159  C 5.22976932173913 4.27564336231884  5.5280056115942 4.14477488695652  5.6911671884058 3.78059554782609  C 5.59082791884058 3.76356704927536  5.51728646956522 3.74552090434783  5.44293094492753 3.73921152463768  C 3.96857446956522 3.61282066086956  2.4948964173913 3.47774594782609  1.01904739710145 3.37021535072464  Z M 10.7889996057971 2.2689256115942  C 10.2955800115942 2.25718882318841  9.80168551884058 2.26275193043478  9.30134597101449 2.26275193043478  L 9.30134597101449 4.97428697971015  L 12.1499910028985 4.97428697971015  C 11.7499907478261 4.07957811014493  11.3777381101449 3.23948257391304  10.9947663536232 2.40427169855073  C 10.9649834202899 2.33934627246377  10.8604379130435 2.27055383188406  10.7889996057971 2.2689256115942  Z " fill-rule="nonzero" fill="#e13438" stroke="none" transform="matrix(1 0 0 1 232 209 )" />
  </g>
</svg>