<?xml version="1.0" encoding="utf-8"?>
<svg version="1.1" xmlns:xlink="http://www.w3.org/1999/xlink" width="25px" height="22px" xmlns="http://www.w3.org/2000/svg">
  <g transform="matrix(1 0 0 1 -227 -204 )">
    <path d="M 23.8814065855072 11.4179107246377  C 24.0503347942029 11.1275441855072  24.0530484869565 10.8731342376811  23.8902261333333 10.5929440927536  C 22.0226294206952 7.38168708997415  20.1623790914744 4.16616321096553  18.3094897391304 0.94639768115942  C 18.1398831072464 0.652639002898551  17.9119318028986 0.521702701449275  17.5659343072464 0.521702701449275  C 15.7009398492754 0.52509484057971  13.8345885449275 0.527130110144927  12.0183729623188 0.527130110144927  C 10.1465942492754 0.527130110144927  8.27142339710145 0.52509484057971  6.44170710724638 0.521024255072464  C 6.10181542028985 0.521024255072464  5.87386411594203 0.653317426086957  5.70357908405797 0.949789820289855  C 3.84931703427376 4.16861906030947  1.98931737053967 7.38413964194238  0.123588962318841 10.5963362318841  C -0.038554968115942 10.8765263768116  -0.041268684057971 11.1214383536232  0.116126260869565 11.3921305275362  C 2.04692809275362 14.7143851130435  3.93024004637681 17.9694754550725  5.71382332753623 21.0678492753623  C 5.87732410434783 21.3514315594203  6.09645588405797 21.4782972985507  6.42481430724638 21.4782972985507  L 6.43227698550725 21.4782972985507  C 7.5130104115942 21.4728698898551  8.58560268985507 21.4721914666667  9.39903608115942 21.4721914666667  L 11.9919821681159 21.4735483130435  C 12.4349268405797 21.4735483130435  12.8780071884058 21.4728698898551  13.3216981101449 21.4728698898551  C 13.7647106086957 21.4721914666667  14.2077909565217 21.4721914666667  14.6507356289855 21.4721914666667  C 15.4438162086957 21.4721914666667  16.4899498666667 21.4728698898551  17.5510089043478 21.4789757449275  L 17.5598284521739 21.4789757449275  C 17.9086075130435 21.4789757449275  18.1433430956522 21.3426120115942  18.3196661333333 21.0352848  C 20.0299793391304 18.0637767188406  21.8495192115942 14.9179130434783  23.8814065855072 11.4179107246377  Z M 22.625639142029 10.955902284058  C 22.6317449739131 10.9803256347826  22.6290312811594 11.0332428985507  22.622925426087 11.0502035710145  C 21.6120699362319 12.8086850550725  20.5801832347826 14.5935573333333  19.5822178550725 16.3208312115942  C 18.8511915766713 17.5847222221665  18.1209783704796 18.8490833340703  17.3915786898551 20.1139137623188  C 17.3427319884058 20.1987170782609  17.3305203014493 20.2055691826087  17.232080626087 20.2055691826087  C 15.5020930550725 20.2021092173913  13.7402194318841 20.2008201971014  11.9953743072464 20.2008201971014  C 10.2735278376812 20.2008201971014  8.52047376231884 20.2021770434783  6.78234506666667 20.2055691826087  C 6.6832947942029 20.2055691826087  6.67108313043479 20.1987170782609  6.62359325217392 20.1160169043478  C 4.64123102608696 16.6757161275362  2.9967251710145 13.8344659246377  1.44787749565218 11.1743556173913  C 1.36239575652174 11.0271370666667  1.36375260289855 10.9660786782609  1.45398332753624 10.811397426087  C 3.20839424927537 7.80054061449275  4.92549173333334 4.83038940289855  6.55846432463768 1.98439023768116  C 6.65073031884058 1.82360315362319  6.70636129855073 1.79103867826087  6.88885801739131 1.79103867826087  L 6.89903441159421 1.79103867826087  C 7.62766446376812 1.79782293333333  8.40514124057971 1.80121507246376  9.42006729275363 1.80121507246376  C 9.85358182028986 1.80121507246376  10.2877747942029 1.80053664927536  10.7219677449275 1.79985822608695  C 11.1561606956522 1.79917980289855  11.5896752463768 1.79917980289855  12.0238682202899 1.79917980289855  L 14.3997178202899 1.79917980289855  C 15.1718350144928 1.79917980289855  16.1894747826087 1.79917980289855  17.2179014956522 1.79578766376811  C 17.3393398492754 1.79578766376811  17.3440888347826 1.80392878840579  17.3821485681159 1.86973613913043  C 18.1942250898551 3.28018483478261  19.0083368811594 4.68859826086956  19.8224486724638 6.09769011014492  C 20.7423950144928 7.68927867826087  21.6935489623188 9.33514137971014  22.625639142029 10.955902284058  Z " fill-rule="nonzero" fill="#e13438" stroke="none" transform="matrix(1 0 0 1 227 204 )" />
  </g>
</svg>