<?xml version="1.0" encoding="utf-8"?>
<svg version="1.1" xmlns:xlink="http://www.w3.org/1999/xlink" width="10px" height="12px" xmlns="http://www.w3.org/2000/svg">
  <g transform="matrix(1 0 0 1 -162 -53 )">
    <path d="M 0.377000000000123 8.36000000000003  L 0.379000000000019 8.35600000000001  L 2.93800000000005 8.60800000000002  C 2.95671639106882 8.82241685200158  3.06308958065193 9.01960524765734  3.23200000000003 9.15300000000001  C 3.54361591130419 9.30960120041256  3.89076506025521 9.38199575977673  4.23900000000003 9.36300000000001  C 4.68197719533066 9.37999141649483  5.12390349323084 9.30860332221864  5.53900000000004 9.15299999999998  C 5.75157643733615 9.05195756583713  5.91704021124457 8.87288421745136  6.00099999999998 8.65299999999998  C 6.08456683414994 8.36730806798711  6.11307265228606 8.06833633253571  6.08500000000004 7.77200000000001  L 6.08500000000004 6.723  C 5.47437876082762 7.48477677077467  4.5440729035675 7.9190673477634  3.56800000000004 7.89800000000001  C 2.52054293070921 7.94478549751874  1.5169034139044 7.47417761980658  0.883000000000095 6.63900000000005  C 0.352622408882496 5.93982841723961  0.0710497519270348 5.08349557427398  0.0830000000000837 4.20600000000006  C 0.0107668142669581 3.16940282788396  0.375977314624265 2.14993240434431  1.09000000000003 1.39500000000002  C 1.78197139759158 0.747822017075791  2.70199641329828 0.400880188175037  3.64900000000006 0.429999999999993  C 4.65060156608479 0.399209950626627  5.61024520870507 0.83289505834928  6.24900000000008 1.60500000000003  L 6.24900000000008 0.556000000000026  L 8.3490000000001 0.556000000000026  L 8.34900000000016 7.10100000000004  C 8.38101066705434 7.75422341342927  8.29566075714763 8.40789534247692  8.09700000000004 9.03100000000002  C 7.95965729638203 9.42749964209382  7.71236900948861 9.77675532919288  7.38400000000013 10.0380000000001  C 7.02889992599819 10.2996109574839  6.63143527253828 10.4981741503187  6.209 10.625  C 5.59052866148528 10.7714042449162  4.95652581603923 10.8419236292084  4.32100000000008 10.8350000000001  C 3.2611847671111 10.9172277382489  2.199641458477 10.699235331742  1.2580000000001 10.206  C 0.713606660593541 9.85789947939763  0.38212739467707 9.25815152267695  0.377000000000123 8.61200000000004  L 0.377000000000123 8.36000000000003  Z M 2.38600000000014 4.08000000000003  L 2.39100000000013 4.08000000000003  C 2.33747129946386 4.69561192333815  2.51578816834757 5.30902195229824  2.89100000000013 5.80000000000005  C 3.22371618781392 6.16312930090574  3.69879705786138 6.36229781950256  4.1910000000002 6.34500000000001  C 4.70827277117377 6.36328314295211  5.20990070201168 6.16589164670184  5.57600000000014 5.80000000000003  C 5.9719051377615 5.35107972130696  6.16859078421771 4.76066189084376  6.12100000000015 4.16400000000003  C 6.17534787717665 3.55379600475935  5.97853010524176 2.94781394731585  5.57600000000014 2.486  C 5.21457721938992 2.11303248677511  4.70967239285204 1.91435152615192  4.19100000000009 1.94100000000005  C 3.68611020161421 1.92290917369898  3.19750519200329 2.12118894304963  2.84800000000013 2.48600000000003  C 2.49733327812856 2.93946991863488  2.33217721049823 3.50929410002605  2.38600000000014 4.08000000000003  Z " fill-rule="nonzero" fill="#ffffff" stroke="none" fill-opacity="0.996078431372549" transform="matrix(1 0 0 1 162 53 )" />
  </g>
</svg>