<?xml version="1.0" encoding="utf-8"?>
<svg version="1.1" xmlns:xlink="http://www.w3.org/1999/xlink" width="40px" height="30px" xmlns="http://www.w3.org/2000/svg">
  <g transform="matrix(1 0 0 1 -174 -17 )">
    <path d="M 0.795999999999964 24.299  L 0.797999999999973 21.49  C 2.5909876788173 20.4398898936359  4.27730093735872 19.2174383755274  5.833 17.84  L 5.833 11.546  C 4.23211233031472 12.8024062503993  2.55013132539946 13.9518991278399  0.797999999999973 14.987  L 0.797999999999973 12.259  C 2.29522026264434 11.202630857107  3.72469440369096 10.0533737264198  5.07799999999995 8.818  L 5.07799999999995 8.776  L 0.877999999999957 0.259  L 7.75899999999993 0.259  L 9.64699999999991 4.15900000000001  C 10.4469999999999 3.194  11.1989999999999 2.18700000000001  11.9129999999999 1.18000000000001  L 15.186 1.17999999999999  C 13.9714313487001 3.1954327103163  12.5511715221108 5.07950556191732  10.948 6.80200000000001  L 11.1579999999999 7.17999999999999  C 11.8244020067826 8.37566231357464  12.1982643888279 9.71210895883274  13 11.08  L 13 27.821  C 12.2489999999999 28.996  11.0739999999999 29.921  9.52199999999996 29.921  L 2.17899999999995 29.921  L 2.17899999999995 28.159  L 4.27899999999997 28.159  C 5.07899999999998 28.159  5.83099999999999 27.614  5.83099999999999 26.942  L 5.83100000000005 20.942  C 4.26300936377842 22.2182571245511  2.57706913712857 23.3423288903631  0.795999999999964 24.299  Z M 24.504 10.077  L 18.168 10.077  L 18.168 6.04899999999999  L 15.148 6.04899999999999  L 15.148 4.28699999999999  L 18.169 4.28699999999999  L 18.169 0.259  L 24.505 0.259  L 24.505 4.28700000000001  L 30.169 4.28700000000001  L 30.169 0.259  L 36.505 0.259  L 36.505 4.28700000000001  L 39.568 4.28700000000001  L 39.568 6.04899999999999  L 36.505 6.04899999999999  L 36.505 10.077  L 30.168 10.077  L 30.168 6.04899999999999  L 24.504 6.04899999999999  L 24.504 10.077  Z M 18.378 12  L 36.21 12  C 37.762 11.671  39.0209999999999 12.594  39 13.727  L 39 27.827  C 39.0209999999999 29.002  37.7619999999999 29.927  36.21 30  L 18.378 30  C 16.868 29.927  15.651 29.004  16 27.827  L 16 13.727  C 15.651 12.594  16.868 11.671  18.378 12  Z M 21.484 14.609  L 21.483 19.895  L 24.1259999999999 19.895  L 24.1259999999999 13.434  L 23.078 13.434  C 22.239 13.434  21.484 13.979  21.484 14.609  Z M 23.077 28.121  L 24.168 28.119  L 24.168 21.659  L 21.483 21.659  L 21.483 26.904  C 21.483 27.575  22.238 28.121  23.077 28.121  Z M 33.105 19.896  L 33.105 14.651  C 33.105 13.98  32.392 13.476  31.511 13.476  L 30.546 13.476  L 30.546 19.896  L 33.105 19.896  Z M 30.546 28.12  L 31.5110000000001 28.119  C 32.2831766448929 28.2080864934018  32.9874755652727 27.6703626627229  33.105 26.902  L 33.105 21.659  L 30.546 21.659  L 30.546 28.12  Z " fill-rule="nonzero" fill="#ffffff" stroke="none" fill-opacity="0.996078431372549" transform="matrix(1 0 0 1 174 17 )" />
  </g>
</svg>