<?xml version="1.0" encoding="utf-8"?>
<svg version="1.1" xmlns:xlink="http://www.w3.org/1999/xlink" width="45px" height="20px" xmlns="http://www.w3.org/2000/svg">
  <g transform="matrix(1 0 0 1 -39 -45 )">
    <path d="M 40.22 2.00699999999998  L 40.218 2.006  C 34.344 6.07599999999999  28.638 10.44  22.596 14.3  C 21.4762209534864 13.8332181257092  20.4190558608047 13.2285479106386  19.449 12.5  C 14.876 9.185  10.176 5.95500000000001  5.60299999999999 2.68199999999999  L 1.07 1.125  C 1.07 1.50299999999999  1.028 1.83799999999999  1.028 2.21600000000001  C 0.734000000000002 4.10400000000001  2.706 5.06900000000002  4.049 6.07600000000002  C 9.42 9.72600000000003  14.664 13.586  19.993 17.276  C 21.042 17.822  22.427 19.076  23.601 18.076  C 29.101 14.552  34.216 10.566  39.629 6.91500000000002  C 41.098 5.82400000000001  42.86 4.90100000000001  43.829 3.34900000000005  C 43.9055905942042 2.41397493197803  43.9192880925971 1.47486107875088  43.87 0.537999999999982  L 40.178 1.79699999999997  C 40.208435560625 1.86268528404858  40.222830792866 1.9346614452532  40.22 2.00699999999998  Z " fill-rule="nonzero" fill="#ffffff" stroke="none" fill-opacity="0.996078431372549" transform="matrix(1 0 0 1 39 45 )" />
  </g>
</svg>