<?xml version="1.0" encoding="utf-8"?>
<svg version="1.1" xmlns:xlink="http://www.w3.org/1999/xlink" width="10px" height="10px" xmlns="http://www.w3.org/2000/svg">
  <g transform="matrix(1 0 0 1 -103 -53 )">
    <path d="M 0.142000000000053 4.11700000000006  L 0.134000000000015 4.11799999999998  C 0.137588791768707 3.45037839336014  0.326245611448371 2.79682963087355  0.679000000000002 2.22999999999998  C 1.05969478586476 1.63401752474702  1.59788852123273 1.15500779500478  2.23400000000001 0.845999999999961  C 2.94262790525264 0.516358362666594  3.71888160509383 0.358093045223242  4.50000000000003 0.384000000000029  C 5.6491439209548 0.337144048038923  6.77344531296666 0.726916154389372  7.64699999999999 1.47500000000001  C 8.45150984576196 2.14767502739291  8.90059245253315 3.15395955382267  8.864 4.20200000000001  C 8.87611369524885 5.2661141482417  8.41484529867012 6.28061151927149  7.60499999999999 6.97100000000002  C 6.74159139091103 7.70455738109554  5.6375248581881 8.09311757051513  4.50500000000002 8.06200000000003  C 3.740637832283 8.05445151340142  2.98512806554362 7.89750658883598  2.28100000000003 7.60000000000004  C 1.62095349437558 7.33226289142461  1.06285349009474 6.86204438091691  0.68700000000004 6.25700000000008  C 0.320210749014564 5.60404296085106  0.132215592336905 4.86586014380488  0.142000000000053 4.11700000000006  Z M 2.45000000000005 4.24300000000007  C 2.42366378085754 4.85685093147937  2.63375729337034 5.45742489058766  3.03700000000003 5.92100000000006  C 3.43143078004888 6.30067119902033  3.95853769227469 6.51129867177495  4.50600000000003 6.50800000000005  C 5.05500162319598 6.51960289207422  5.5851766075923 6.3077494435782  5.97500000000005 5.92100000000009  C 6.38483454746734 5.4612806104363  6.59589411305581 4.85794508904364  6.56200000000001 4.24300000000007  C 6.59635335676577 3.64061868301526  6.38448527422878 3.05013114804002  5.97500000000002 2.60700000000007  C 5.15250295855833 1.8241426785715  3.86049704144168 1.82414267857148  3.03800000000001 2.60700000000007  C 2.61524501125675 3.04196736375955  2.40121371076515 3.63848390141591  2.45100000000002 4.24300000000007  Z " fill-rule="nonzero" fill="#ffffff" stroke="none" fill-opacity="0.996078431372549" transform="matrix(1 0 0 1 103 53 )" />
  </g>
</svg>