<?xml version="1.0" encoding="utf-8"?>
<svg version="1.1" xmlns:xlink="http://www.w3.org/1999/xlink" width="44px" height="23px" xmlns="http://www.w3.org/2000/svg">
  <g transform="matrix(1 0 0 1 -40 -16 )">
    <path d="M 5.484 5.45099999999999  L 5.484 5.455  C 6.99465581785155 6.88697465189286  8.6544727678853 8.15287422840819  10.435 9.23099999999999  C 14.211 9.73099999999999  18.029 9.315  21.806 9.44099999999999  C 25.372 9.35699999999999  28.939 9.73499999999999  32.463 9.23099999999999  C 34.2718195670367 8.19341354381291  35.9483532989547 6.94063017634123  37.456 5.5  C 37.708 10.367  38.001 15.192  38.379 20.059  C 39.554 19.514  40.813 18.968  42.113 18.507  C 42.071 17.668  42.029 16.829  41.987 16.031  C 41.401 10.7  41.652 5.24499999999999  40.435 0  C 35.274 0.126000000000005  33.554 6.42  28.351 6.126  C 23.484 6.126  18.659 6.16800000000001  13.792 6.126  C 11.065 6.336  9.592 3.86  7.75 2.476  C 6.323 1.343  4.519 -0.881  2.46300000000001 0.420000000000002  C 1.85634751377192 2.50527182831765  1.55950808291485 4.66839231197534  1.582 6.84  C 1.414 11.12  1.037 15.399  0.701000000000001 19.679  C 2.044 20.308  3.301 20.979  4.435 21.651  C 4.813 16.196  5.19 10.826  5.484 5.45099999999999  Z " fill-rule="nonzero" fill="#ffffff" stroke="none" fill-opacity="0.996078431372549" transform="matrix(1 0 0 1 40 16 )" />
  </g>
</svg>