<?xml version="1.0" encoding="utf-8"?>
<svg version="1.1" xmlns:xlink="http://www.w3.org/1999/xlink" width="10px" height="12px" xmlns="http://www.w3.org/2000/svg">
  <g transform="matrix(1 0 0 1 -123 -53 )">
    <path d="M 0.39700000000002 8.36000000000003  L 0.400000000000006 8.35600000000001  L 2.959 8.60800000000005  C 2.97759979789396 8.82245174009667  3.08399639391575 9.0196835252391  3.25300000000001 9.15300000000001  C 3.56461591130414 9.30960120041256  3.91176506025522 9.38199575977673  4.25999999999999 9.36300000000001  C 4.70297719533065 9.37999141649483  5.14490349323083 9.30860332221864  5.56000000000006 9.15300000000001  C 5.77251428640912 9.05187310816704  5.93795111432485 8.87282892211108  6.02200000000005 8.65300000000001  C 6.10551892161851 8.36729886474835  6.13402386386542 8.06833631570645  6.10600000000002 7.77200000000001  L 6.10599999999999 6.723  C 5.49516327354954 7.48505922386938  4.56442133716234 7.91938081849013  3.58799999999999 7.89800000000001  C 2.54054293070917 7.94478549751877  1.53690341390444 7.47417761980658  0.90300000000002 6.63900000000005  C 0.372691223005944 5.93979230263692  0.0911265704617676 5.08348380308693  0.103000000000037 4.20600000000006  C 0.0307668142669399 3.16940282788396  0.395977314624275 2.14993240434428  1.11000000000001 1.39500000000002  C 1.80608953763175 0.754475113087423  2.72329674909346 0.408595879378751  3.66899999999998 0.430000000000021  C 4.66894921689016 0.407407763287594  5.62518416862392 0.839552404936526  6.26900000000001 1.60500000000003  L 6.26900000000001 0.556000000000026  L 8.36900000000003 0.556000000000026  L 8.36900000000003 7.10100000000001  C 8.40096734419052 7.75422165998792  8.3156184364849 8.40788591344746  8.11700000000002 9.03099999999999  C 7.97917034850377 9.41654967122302  7.74875427151858 9.76234548273432  7.44600000000003 10.038  C 7.09091034617944 10.2996279860741  6.69344263066563 10.4981927086329  6.27100000000002 10.625  C 5.65253036057214 10.7714140483294  5.01852631267298 10.841933566369  4.38300000000001 10.8350000000001  C 3.32318476711103 10.9172277382489  2.2616414584769 10.6992353317419  1.32000000000002 10.206  C 0.765755276895419 9.86184460502638  0.419582677219069 9.26401240146826  0.39700000000002 8.61200000000004  C 0.39700000000002 8.52800000000006  0.39700000000002 8.44400000000006  0.39700000000002 8.36000000000003  Z M 2.41000000000005 4.08000000000003  L 2.41100000000006 4.08000000000003  C 2.35747129946373 4.69561192333812  2.53578816834749 5.30902195229827  2.91100000000006 5.80000000000005  C 3.24371618781385 6.16312930090577  3.71879705786125 6.36229781950253  4.21100000000007 6.34500000000001  C 4.72827277117364 6.36328314295211  5.22990070201158 6.16589164670184  5.59600000000006 5.80000000000005  C 6.00548527422887 5.3568688519601  6.21735335676581 4.76638131698483  6.18299999999999 4.16400000000003  C 6.23734787717652 3.55379600475941  6.04053010524163 2.94781394731585  5.63800000000001 2.486  C 5.27657721938982 2.11303248677511  4.77167239285197 1.91435152615192  4.25300000000001 1.94100000000002  C 3.74813292388455 1.9230377569648  3.25957849955464 2.12129699840919  2.91000000000003 2.48600000000003  C 2.5271398659049 2.92368646654838  2.34571906393936 3.50205598321456  2.41000000000005 4.08000000000003  Z " fill-rule="nonzero" fill="#ffffff" stroke="none" fill-opacity="0.996078431372549" transform="matrix(1 0 0 1 123 53 )" />
  </g>
</svg>