<?xml version="1.0" encoding="utf-8"?>
<svg version="1.1" xmlns:xlink="http://www.w3.org/1999/xlink" width="10px" height="10px" xmlns="http://www.w3.org/2000/svg">
  <g transform="matrix(1 0 0 1 -142 -53 )">
    <path d="M 0.117999999999938 4.11600000000006  L 0.113 4.11799999999998  C 0.116836757414887 3.45027450235501  0.305845827553185 2.79670467740796  0.658999999999992 2.22999999999998  C 1.03877763873868 1.63410003983647  1.57589119160212 1.15478156643708  2.21100000000001 0.844999999999985  C 2.91962790525264 0.515358362666618  3.69588160509386 0.357093045223266  4.47700000000003 0.382999999999967  C 5.62507544175128 0.343309295855974  6.74684946116469 0.73220521424814  7.62400000000002 1.474  C 8.42850984576194 2.14667502739293  8.87759245253318 3.15295955382267  8.84100000000007 4.20100000000004  C 8.85297433221291 5.2650847776646  8.39173155283794 6.27952580712382  7.58199999999999 6.96999999999998  C 6.71863926893025 7.70364074010767  5.61453974090836 8.09221254174376  4.48199999999997 8.06100000000002  C 3.71717882643441 8.05776817876982  2.96082985132153 7.90064892224906  2.25799999999998 7.59900000000003  C 1.59087670903085 7.34312332911561  1.02936585806248 6.87003106258454  0.663999999999987 6.25600000000004  C 0.29681786620381 5.60315712892081  0.108473208697092 4.86495645664193  0.117999999999938 4.11600000000006  Z M 3.01299999999998 2.60600000000007  C 2.59024501125674 3.04096736375955  2.37621371076506 3.63748390141591  2.42599999999999 4.24200000000009  C 2.39966378085745 4.85585093147937  2.60975729337031 5.45642489058766  3.01299999999998 5.92000000000006  C 3.40743078004886 6.29967119902032  3.9345376922746 6.51029867177492  4.48199999999997 6.50700000000005  C 5.03065713454464 6.51833008396706  5.5604196070118 6.306497269704  5.94999999999999 5.92000000000009  C 6.3598345474673 5.46028061043633  6.57089411305577 4.85694508904361  6.53699999999998 4.24200000000006  C 6.57135335676571 3.63961868301526  6.35948527422875 3.04913114804002  5.94999999999999 2.60600000000007  C 5.1277060552822 1.82263487920069  3.83529394471776 1.82263487920066  3.01299999999998 2.60600000000007  Z " fill-rule="nonzero" fill="#ffffff" stroke="none" fill-opacity="0.996078431372549" transform="matrix(1 0 0 1 142 53 )" />
  </g>
</svg>