<?xml version="1.0" encoding="utf-8"?>
<svg version="1.1" xmlns:xlink="http://www.w3.org/1999/xlink" width="26px" height="15px" xmlns="http://www.w3.org/2000/svg">
  <g transform="matrix(1 0 0 1 -49 -33 )">
    <path d="M 0.0429999999999922 1.04000000000001  L 0.0499999999999972 1.04200000000002  C 3.491 0.790000000000006  6.973 0.874000000000009  10.456 0.874000000000009  C 10.54 3.85300000000002  10.792 6.83200000000001  11.043 9.81100000000002  C 11.966 9.85300000000002  12.889 9.89500000000002  13.854 9.93700000000003  C 14.106 6.95800000000001  14.148 3.97900000000003  14.354 1.00000000000001  C 17.837 0.874000000000009  21.319 0.832000000000008  24.802 1.04200000000002  C 22.788 3.43400000000001  19.138 4.31500000000001  15.655 4.94200000000002  C 15.445 7.20800000000001  15.991 9.64200000000001  14.855 11.823  C 14.3231231687012 12.6616687829179  13.3990808076452 13.1698487982418  12.4059754299973 13.1698487982418  C 11.681648080568 13.1698487982418  10.983541395637 12.8987899400373  10.449 12.41  C 8.687 10.144  9.39999999999999 7.37500000000001  9.02199999999999 4.85800000000002  C 5.58099999999999 4.31300000000003  2.22199999999999 3.18000000000002  0.0429999999999922 1.04000000000001  Z " fill-rule="nonzero" fill="#ffffff" stroke="none" fill-opacity="0.996078431372549" transform="matrix(1 0 0 1 49 33 )" />
  </g>
</svg>