<?xml version="1.0" encoding="utf-8"?>
<svg version="1.1" xmlns:xlink="http://www.w3.org/1999/xlink" width="10px" height="12px" xmlns="http://www.w3.org/2000/svg">
  <g transform="matrix(1 0 0 1 -93 -53 )">
    <path d="M 0.48399999999998 8.35700000000004  L 0.484000000000009 8.35600000000001  L 3.04300000000001 8.60800000000005  C 3.06148284751924 8.82248669975367  3.16790295120802 9.01976206203391  3.33700000000002 9.15300000000001  C 3.64861591130415 9.30960120041256  3.99576506025522 9.38199575977673  4.34400000000002 9.36300000000001  C 4.7869788290005 9.38001821179101  5.22891037943953 9.3086292690278  5.64400000000006 9.15300000000001  C 5.85651428640915 9.05187310816707  6.02195111432485 8.87282892211108  6.10600000000002 8.65299999999998  C 6.1895668341499 8.36730806798717  6.21807265228605 8.06833633253568  6.19000000000003 7.77200000000001  L 6.19000000000003 6.723  C 5.57916327354957 7.48505922386941  4.64842133716238 7.91938081849013  3.67200000000003 7.89800000000001  C 2.62504367699543 7.94308399368883  1.62264450002226 7.47141070459854  0.990000000000038 6.63600000000001  C 0.459691223005962 5.93679230263687  0.178126570461785 5.08048380308692  0.189999999999998 4.20300000000002  C 0.11764252553516 3.16638567000162  0.482870403290349 2.14686673815469  1.197 1.39200000000001  C 1.89308953763174 0.751475113087409  2.81029674909345 0.405595879378708  3.756 0.427000000000007  C 4.75594921689014 0.404407763287608  5.71218416862396 0.83655240493654  6.35599999999999 1.60200000000002  L 6.35599999999999 0.553000000000011  L 8.45599999999999 0.553000000000011  L 8.45599999999999 7.098  C 8.48794569498739 7.75122078322532  8.40259728796158 8.40488120211312  8.20399999999995 9.02799999999998  C 8.06617034850376 9.41354967122298  7.83575427151857 9.75934548273433  7.53300000000002 10.035  C 7.17793120439578 10.2966620698397  6.78045735745599 10.4952298555024  6.35799999999998 10.622  C 5.73952696291482 10.7683944440275  5.10552531945629 10.838913694624  4.47 10.832  C 3.41018476711099 10.9142277382489  2.34864145847692 10.696235331742  1.40699999999998 10.203  C 0.862606660593457 9.85489947939762  0.531127394676929 9.25515152267697  0.525999999999982 8.60900000000002  C 0.491739264002092 8.52965833558581  0.477323627379519 8.44316451585063  0.48399999999998 8.35700000000004  Z M 2.49300000000002 4.07700000000001  L 2.49800000000002 4.07700000000001  C 2.44447129946369 4.69261192333808  2.62278816834745 5.30602195229822  2.99800000000002 5.79700000000001  C 3.33071618781381 6.16012930090575  3.80579705786121 6.35929781950252  4.298 6.342  C 4.81527277117362 6.36028314295213  5.31690070201148 6.16289164670185  5.68299999999999 5.79700000000001  C 6.07890513776132 5.34807972130697  6.27559078421763 4.75766189084372  6.22799999999998 4.16100000000002  C 6.28246562261035 3.55078269520841  6.08563320001579 2.94475552986241  5.68299999999999 2.48300000000002  C 5.32157721938978 2.1100324867751  4.8166723928519 1.9113515261519  4.29799999999997 1.93800000000003  C 3.79311020161404 1.91990917369894  3.30450519200318 2.11818894304959  2.95500000000001 2.48300000000002  C 2.60424228634724 2.93642367276333  2.43907559154397 3.50628452020142  2.49300000000002 4.07700000000001  Z " fill-rule="nonzero" fill="#ffffff" stroke="none" fill-opacity="0.996078431372549" transform="matrix(1 0 0 1 93 53 )" />
  </g>
</svg>