<?xml version="1.0" encoding="utf-8"?>
<svg version="1.1" xmlns:xlink="http://www.w3.org/1999/xlink" width="9px" height="8px" xmlns="http://www.w3.org/2000/svg">
  <g transform="matrix(1 0 0 1 -152 -53 )">
    <path d="M 8.32500000000005 3.36600000000003  L 8.32199999999995 7.89399999999999  L 6.09799999999996 7.89399999999999  L 6.09799999999996 4.15999999999998  C 6.12790616792125 3.65323725876705  6.08548011540597 3.14479805798844  5.97199999999998 2.65000000000002  C 5.8909528398479 2.41730452327126  5.72628499571653 2.22305349502101  5.50999999999999 2.105  C 5.2684522376652 1.96100726762982  4.99112829944693 1.88820973384755  4.70999999999998 1.895  C 4.33907885124171 1.88809259052378  3.97430375573634 1.99032698335368  3.66099999999994 2.18900000000001  C 3.37866799354504 2.35107540955057  3.15760421286751 2.60166122135196  3.03199999999998 2.90199999999997  C 2.8848945832699 3.44843401643392  2.82814560703758 4.01524819570649  2.86399999999998 4.58  L 2.86399999999998 7.895  L 0.643999999999949 7.895  L 0.643999999999949 0.594999999999985  L 2.74399999999997 0.594999999999985  L 2.74399999999997 1.68599999999999  C 3.4343884807285 0.876154701329867  4.44888585175835 0.414886304751164  5.51299999999998 0.427000000000007  C 5.97326615230753 0.417348277561288  6.43054109923679 0.503151171549476  6.85599999999999 0.679000000000016  C 7.20832808727573 0.793523817393364  7.52588180345032 0.995478347614906  7.77900000000005 1.26600000000003  C 7.99123470697003 1.48801588504928  8.13677233635252 1.76523041720644  8.19900000000001 2.06600000000002  C 8.29540677457294 2.49232570132732  8.33773984470167 2.92909547249691  8.32500000000005 3.36600000000003  Z " fill-rule="nonzero" fill="#ffffff" stroke="none" fill-opacity="0.996078431372549" transform="matrix(1 0 0 1 152 53 )" />
  </g>
</svg>