<?xml version="1.0" encoding="utf-8"?>
<svg version="1.1" xmlns:xlink="http://www.w3.org/1999/xlink" width="12px" height="12px" viewBox="254 542.5  12 12" xmlns="http://www.w3.org/2000/svg">
  <path d="M 260 542.5  C 263.36 542.5  266 545.14  266 548.5  C 266 551.86  263.36 554.5  260 554.5  C 256.64 554.5  254 551.86  254 548.5  C 254 545.14  256.64 542.5  260 542.5  Z " fill-rule="nonzero" fill="#e13438" stroke="none" fill-opacity="0" />
  <path d="M 260 543  C 263.08 543  265.5 545.42  265.5 548.5  C 265.5 551.58  263.08 554  260 554  C 256.92 554  254.5 551.58  254.5 548.5  C 254.5 545.42  256.92 543  260 543  Z " stroke-width="1" stroke="#0070cc" fill="none" />
  <path d="M 260 551.5  C 258.32 551.5  257 550.18  257 548.5  C 257 546.82  258.32 545.5  260 545.5  C 261.68 545.5  263 546.82  263 548.5  C 263 550.18  261.68 551.5  260 551.5  " fill-rule="nonzero" fill="#0070cc" stroke="none" />
</svg>