<?xml version="1.0" encoding="utf-8"?>
<svg version="1.1" xmlns:xlink="http://www.w3.org/1999/xlink" width="12px" height="12px" viewBox="91 480.5  12 12" xmlns="http://www.w3.org/2000/svg">
  <path d="M 97 480.5  C 100.36 480.5  103 483.14  103 486.5  C 103 489.86  100.36 492.5  97 492.5  C 93.64 492.5  91 489.86  91 486.5  C 91 483.14  93.64 480.5  97 480.5  Z " fill-rule="nonzero" fill="#e13438" stroke="none" fill-opacity="0" />
  <path d="M 97 481  C 100.08 481  102.5 483.42  102.5 486.5  C 102.5 489.58  100.08 492  97 492  C 93.92 492  91.5 489.58  91.5 486.5  C 91.5 483.42  93.92 481  97 481  Z " stroke-width="1" stroke="#0070cc" fill="none" />
  <path d="M 97 489.5  C 95.32 489.5  94 488.18  94 486.5  C 94 484.82  95.32 483.5  97 483.5  C 98.68 483.5  100 484.82  100 486.5  C 100 488.18  98.68 489.5  97 489.5  " fill-rule="nonzero" fill="#0070cc" stroke="none" />
</svg>