<?xml version="1.0" encoding="utf-8"?>
<svg version="1.1" xmlns:xlink="http://www.w3.org/1999/xlink" width="12px" height="12px" viewBox="103 542.5  12 12" xmlns="http://www.w3.org/2000/svg">
  <path d="M 109 542.5  C 112.36 542.5  115 545.14  115 548.5  C 115 551.86  112.36 554.5  109 554.5  C 105.64 554.5  103 551.86  103 548.5  C 103 545.14  105.64 542.5  109 542.5  Z " fill-rule="nonzero" fill="#e13438" stroke="none" fill-opacity="0" />
  <path d="M 109 543  C 112.08 543  114.5 545.42  114.5 548.5  C 114.5 551.58  112.08 554  109 554  C 105.92 554  103.5 551.58  103.5 548.5  C 103.5 545.42  105.92 543  109 543  Z " stroke-width="1" stroke="#0070cc" fill="none" />
  <path d="M 109 551.5  C 107.32 551.5  106 550.18  106 548.5  C 106 546.82  107.32 545.5  109 545.5  C 110.68 545.5  112 546.82  112 548.5  C 112 550.18  110.68 551.5  109 551.5  " fill-rule="nonzero" fill="#0070cc" stroke="none" />
</svg>