<?xml version="1.0" encoding="utf-8"?>
<svg version="1.1" xmlns:xlink="http://www.w3.org/1999/xlink" width="12px" height="12px" viewBox="260 346.5  12 12" xmlns="http://www.w3.org/2000/svg">
  <path d="M 266 346.5  C 269.36 346.5  272 349.14  272 352.5  C 272 355.86  269.36 358.5  266 358.5  C 262.64 358.5  260 355.86  260 352.5  C 260 349.14  262.64 346.5  266 346.5  Z " fill-rule="nonzero" fill="#e13438" stroke="none" fill-opacity="0" />
  <path d="M 266 347  C 269.08 347  271.5 349.42  271.5 352.5  C 271.5 355.58  269.08 358  266 358  C 262.92 358  260.5 355.58  260.5 352.5  C 260.5 349.42  262.92 347  266 347  Z " stroke-width="1" stroke="#0070cc" fill="none" />
  <path d="M 266 355.5  C 264.32 355.5  263 354.18  263 352.5  C 263 350.82  264.32 349.5  266 349.5  C 267.68 349.5  269 350.82  269 352.5  C 269 354.18  267.68 355.5  266 355.5  " fill-rule="nonzero" fill="#0070cc" stroke="none" />
</svg>