<?xml version="1.0" encoding="utf-8"?>
<svg version="1.1" xmlns:xlink="http://www.w3.org/1999/xlink" width="12px" height="12px" viewBox="260 372.5  12 12" xmlns="http://www.w3.org/2000/svg">
  <path d="M 266 372.5  C 269.36 372.5  272 375.14  272 378.5  C 272 381.86  269.36 384.5  266 384.5  C 262.64 384.5  260 381.86  260 378.5  C 260 375.14  262.64 372.5  266 372.5  Z " fill-rule="nonzero" fill="#e13438" stroke="none" fill-opacity="0" />
  <path d="M 266 373  C 269.08 373  271.5 375.42  271.5 378.5  C 271.5 381.58  269.08 384  266 384  C 262.92 384  260.5 381.58  260.5 378.5  C 260.5 375.42  262.92 373  266 373  Z " stroke-width="1" stroke="#0070cc" fill="none" />
  <path d="M 266 381.5  C 264.32 381.5  263 380.18  263 378.5  C 263 376.82  264.32 375.5  266 375.5  C 267.68 375.5  269 376.82  269 378.5  C 269 380.18  267.68 381.5  266 381.5  " fill-rule="nonzero" fill="#0070cc" stroke="none" />
</svg>