<?xml version="1.0" encoding="utf-8"?>
<svg version="1.1" xmlns:xlink="http://www.w3.org/1999/xlink" width="12px" height="12px" viewBox="750 251.5  12 12" xmlns="http://www.w3.org/2000/svg">
  <path d="M 750.5 252.5  A 0.5 0.5 0 0 1 751 252 L 761 252  A 0.5 0.5 0 0 1 761.5 252.5 L 761.5 262.5  A 0.5 0.5 0 0 1 761 263 L 751 263  A 0.5 0.5 0 0 1 750.5 262.5 L 750.5 252.5  Z " fill-rule="nonzero" fill="#ffffff" stroke="none" />
  <path d="M 750.5 252.5  A 0.5 0.5 0 0 1 751 252 L 761 252  A 0.5 0.5 0 0 1 761.5 252.5 L 761.5 262.5  A 0.5 0.5 0 0 1 761 263 L 751 263  A 0.5 0.5 0 0 1 750.5 262.5 L 750.5 252.5  Z " stroke-width="1" stroke="#0070cc" fill="none" />
  <path d="M 752.571428571429 257.5  L 755.142857142857 260.071428571429  " stroke-width="2.57142857142857" stroke="#0070cc" fill="none" />
  <path d="M 755.142857142857 260.071428571429  L 759.428571428571 254.071428571429  " stroke-width="2.57142857142857" stroke="#0070cc" fill="none" />
</svg>