<?xml version="1.0" encoding="utf-8"?>
<svg version="1.1" xmlns:xlink="http://www.w3.org/1999/xlink" width="12px" height="12px" viewBox="750 251.5  12 12" xmlns="http://www.w3.org/2000/svg">
  <path d="M 750.5 252.5  A 0.5 0.5 0 0 1 751 252 L 761 252  A 0.5 0.5 0 0 1 761.5 252.5 L 761.5 262.5  A 0.5 0.5 0 0 1 761 263 L 751 263  A 0.5 0.5 0 0 1 750.5 262.5 L 750.5 252.5  Z " fill-rule="nonzero" fill="#ffffff" stroke="none" />
  <path d="M 750.5 252.5  A 0.5 0.5 0 0 1 751 252 L 761 252  A 0.5 0.5 0 0 1 761.5 252.5 L 761.5 262.5  A 0.5 0.5 0 0 1 761 263 L 751 263  A 0.5 0.5 0 0 1 750.5 262.5 L 750.5 252.5  Z " stroke-width="1" stroke="#999999" fill="none" />
</svg>