<?xml version="1.0" encoding="utf-8"?>
<svg version="1.1" xmlns:xlink="http://www.w3.org/1999/xlink" width="460px" height="30px" xmlns="http://www.w3.org/2000/svg">
  <defs>
    <mask fill="white" id="clip1002">
      <path d="M 460 0  L 460 30  L 0 30  L 0 0  L 460 0  Z M 460 0  L 460 30  L 460 0  Z " fill-rule="evenodd" />
    </mask>
  </defs>
  <g transform="matrix(1 0 0 1 -447 -62 )">
    <path d="M 460 0  L 460 30  L 0 30  L 0 0  L 460 0  Z M 460 0  L 460 30  L 460 0  Z " fill-rule="nonzero" fill="#cccccc" stroke="none" transform="matrix(1 0 0 1 447 62 )" />
    <path d="M 460 0  L 460 30  L 0 30  L 0 0  L 460 0  Z " stroke-width="2" stroke="#fafafa" fill="none" transform="matrix(1 0 0 1 447 62 )" mask="url(#clip1002)" />
    <path d="M 460 0  L 460 30  L 460 0  Z " stroke-width="2" stroke="#fafafa" fill="none" transform="matrix(1 0 0 1 447 62 )" mask="url(#clip1002)" />
  </g>
</svg>