<?xml version="1.0" encoding="utf-8"?>
<svg version="1.1" xmlns:xlink="http://www.w3.org/1999/xlink" width="12px" height="12px" viewBox="90 94.5  12 12" xmlns="http://www.w3.org/2000/svg">
  <path d="M 90.5 95.5  A 0.5 0.5 0 0 1 91 95 L 101 95  A 0.5 0.5 0 0 1 101.5 95.5 L 101.5 105.5  A 0.5 0.5 0 0 1 101 106 L 91 106  A 0.5 0.5 0 0 1 90.5 105.5 L 90.5 95.5  Z " fill-rule="nonzero" fill="#ffffff" stroke="none" />
  <path d="M 90.5 95.5  A 0.5 0.5 0 0 1 91 95 L 101 95  A 0.5 0.5 0 0 1 101.5 95.5 L 101.5 105.5  A 0.5 0.5 0 0 1 101 106 L 91 106  A 0.5 0.5 0 0 1 90.5 105.5 L 90.5 95.5  Z " stroke-width="1" stroke="#0070cc" fill="none" />
  <path d="M 92.5714285714286 100.5  L 95.1428571428571 103.071428571429  " stroke-width="2.57142857142857" stroke="#0070cc" fill="none" />
  <path d="M 95.1428571428571 103.071428571429  L 99.4285714285714 97.0714285714286  " stroke-width="2.57142857142857" stroke="#0070cc" fill="none" />
</svg>