<?xml version="1.0" encoding="utf-8"?>
<svg version="1.1" xmlns:xlink="http://www.w3.org/1999/xlink" width="16px" height="16px" xmlns="http://www.w3.org/2000/svg">
  <g transform="matrix(1 0 0 1 -872 -806 )">
    <path d="M 15.875 8  C 15.875 12.3875  12.275 15.875  8 15.875  C 3.725 15.875  0.125 12.3875  0.125 8  C 0.125 3.725  3.6125 0.125  8 0.125  C 12.275 0.125  15.875 3.6125  15.875 8  Z M 14.75 8  C 14.75 4.2875  11.7125 1.25  8 1.25  C 4.2875 1.25  1.25 4.2875  1.25 8  C 1.25 11.7125  4.2875 14.75  8 14.75  C 11.7125 14.75  14.75 11.7125  14.75 8  Z " fill-rule="nonzero" fill="#ffffff" stroke="none" transform="matrix(1 0 0 1 872 806 )" />
  </g>
</svg>