<?xml version="1.0" encoding="utf-8"?>
<svg version="1.1" xmlns:xlink="http://www.w3.org/1999/xlink" width="19px" height="2px" xmlns="http://www.w3.org/2000/svg">
  <g transform="matrix(1 0 0 1 -1244 -33 )">
    <path d="M 18.664453125 0.789453124999998  C 18.664453125 1.08125  18.42890625 1.316796875  18.137109375 1.316796875  L 8.912109375 1.316796875  C 8.6203125 1.316796875  8.384765625 1.08125  8.384765625 0.789453124999998  C 8.384765625 0.497656250000002  8.6203125 0.262109374999998  8.912109375 0.262109374999998  L 18.137109375 0.262109374999998  C 18.42890625 0.262109374999998  18.664453125 0.497656250000002  18.664453125 0.789453124999998  Z M 5.958984375 0.789453124999998  C 5.958984375 1.08125  5.7234375 1.316796875  5.431640625 1.316796875  L 1.29375 1.316796875  C 1.001953125 1.316796875  0.76640625 1.08125  0.76640625 0.789453124999998  C 0.76640625 0.497656250000002  1.001953125 0.262109374999998  1.29375 0.262109374999998  L 5.431640625 0.262109374999998  C 5.7234375 0.262109374999998  5.958984375 0.497656250000002  5.958984375 0.789453124999998  Z " fill-rule="nonzero" fill="#ffffff" stroke="none" transform="matrix(1 0 0 1 1244 33 )" />
  </g>
</svg>