<?xml version="1.0" encoding="utf-8"?>
<svg version="1.1" xmlns:xlink="http://www.w3.org/1999/xlink" width="18px" height="18px" preserveAspectRatio="xMinYMid meet" viewBox="955 126  18 16" xmlns="http://www.w3.org/2000/svg">
  <path d="M 964.5 136  L 964.5 125  A 5 5 0 0 1 969.5 120.5 L 1025.07106598985 120.5  A 5 5 0 0 1 1030.57106598985 125.5 L 1030.57106598985 214  A 5 5 0 0 0 1035.57106598985 219.5 L 1044 219.5  " stroke-width="1" stroke="#b86e3f" fill="none" />
  <path d="M 964.5 131  A 3 3 0 0 0 961.5 134 A 3 3 0 0 0 964.5 137 A 3 3 0 0 0 967.5 134 A 3 3 0 0 0 964.5 131 Z " fill-rule="nonzero" fill="#b86e3f" stroke="none" />
</svg>