<?xml version="1.0" encoding="utf-8"?>
<svg version="1.1" xmlns:xlink="http://www.w3.org/1999/xlink" width="16px" height="7px" xmlns="http://www.w3.org/2000/svg">
  <g transform="matrix(1 0 0 1 -1145 -158 )">
    <path d="M 15.3060546875 1.11087890625  C 15.3060546875 0.734648437499999  15.0008203125 0.429414062499999  14.624609375 0.429414062499999  C 14.2483984375 0.429414062499999  13.94314453125 0.734648437500001  13.94314453125 1.11087890625  L 13.94314453125 5.4267578125  L 2.07451171875 5.4267578125  L 2.07451171875 1.11087890625  C 2.07451171875 0.734648437499999  1.76927734375 0.429414062499999  1.39306640625 0.429414062499999  C 1.0168359375 0.429414062499999  0.711601562500001 0.734648437500001  0.711601562500001 1.11087890625  L 0.711601562500001 6.10818359375  C 0.711601562500001 6.4844140625  1.0168359375 6.7896484375  1.39306640625 6.7896484375  L 14.5678125 6.7896484375  C 14.577578125 6.7896484375  14.5864453125 6.78697265625  14.5962109375 6.78697265625  C 14.60595703125 6.78697265625  14.61482421875 6.7896484375  14.62458984375 6.7896484375  C 15.0008203125 6.7896484375  15.3060546875 6.4844140625  15.3060546875 6.10818359375  L 15.3060546875 1.11087890625  Z " fill-rule="nonzero" fill="#666666" stroke="none" transform="matrix(1 0 0 1 1145 158 )" />
  </g>
</svg>