<?xml version="1.0" encoding="utf-8"?>
<svg version="1.1" xmlns:xlink="http://www.w3.org/1999/xlink" width="18px" height="16px" xmlns="http://www.w3.org/2000/svg">
  <defs>
    <linearGradient gradientUnits="userSpaceOnUse" x1="18" y1="1.40006457862637" x2="0.499838553440981" y2="16" id="LinearGradient1089">
      <stop id="Stop1090" stop-color="#c52ad8" offset="0" />
      <stop id="Stop1091" stop-color="#fb2a61" offset="0.5" />
      <stop id="Stop1092" stop-color="#ffc806" offset="1" />
    </linearGradient>
  </defs>
  <g transform="matrix(1 0 0 1 -33 -883 )">
    <path d="M 16.909 3.523  C 17.156 2.444  16.948 1.521  16.337 1.092  C 15.232 0.312  13.204 -0.0779999999999999  9.824 2.496  C 5.235 5.928  1.647 11.96  0.321 14.404  C 0.295 14.456  0.269 14.508  0.256 14.521  C 0.256 14.534  0.243 14.547  0.243 14.547  C 0.0739999999999998 14.872  0.203999999999999 15.275  0.516 15.457  L 0.568 15.483  C 0.672000000000001 15.548  0.789 15.574  0.906000000000001 15.574  C 1.14 15.574  1.361 15.457  1.491 15.249  L 1.504 15.223  C 1.517 15.21  1.517 15.197  1.53 15.184  C 1.621 15.002  2.505 13.403  3.857 11.362  C 6.145 12.311  8.199 12.35  9.98 11.453  C 11.865 10.452  12.866 8.593  13.373 7.189  C 13.425 7.059  13.529 6.955  13.672 6.916  C 15.466 6.422  16.519 4.836  16.909 3.523  Z M 15.479 3.237  C 15.167 4.329  14.205 5.486  12.749 5.655  L 12.736 5.655  C 12.437 5.694  12.19 5.941  12.151 6.24  L 12.151 6.266  C 12.125 6.383  11.449 9.152  9.291 10.27  C 8.108 10.855  6.717 10.907  5.144 10.4  C 5.014 10.361  4.91 10.257  4.87100000000001 10.127  C 4.83200000000001 9.997  4.84500000000001 9.854  4.936 9.737  C 6.808 7.189  8.771 5.083  10.591 3.627  C 11.371 3.029  13.048 1.885  14.4 1.885  C 14.79 1.885  15.154 1.976  15.466 2.223  C 15.57 2.288  15.661 2.626  15.479 3.237  Z " fill-rule="nonzero" fill="url(#LinearGradient1089)" stroke="none" transform="matrix(1 0 0 1 33 883 )" />
  </g>
</svg>