<?xml version="1.0" encoding="utf-8"?>
<svg version="1.1" xmlns:xlink="http://www.w3.org/1999/xlink" width="19px" height="19px" xmlns="http://www.w3.org/2000/svg">
  <defs>
    <linearGradient gradientUnits="userSpaceOnUse" x1="19" y1="1.66257668711881" x2="0.52760736196548" y2="19" id="LinearGradient1085">
      <stop id="Stop1086" stop-color="#c52ad8" offset="0" />
      <stop id="Stop1087" stop-color="#fb2a61" offset="0.5" />
      <stop id="Stop1088" stop-color="#ffc806" offset="1" />
    </linearGradient>
  </defs>
  <g transform="matrix(1 0 0 1 -24 -890 )">
    <path d="M 3.536 14.58  C 2.47 13.462  1.781 12.045  1.586 10.589  C 1.3 8.548  1.807 6.52  3.029 4.856  C 4.251 3.205  6.045 2.113  8.086 1.788  L 8.112 1.788  C 8.138 1.775  8.164 1.775  8.177 1.775  C 8.541 1.697  8.762 1.359  8.697 1.008  L 8.697 0.995000000000001  L 8.697 0.943000000000001  C 8.658 0.592000000000001  8.346 0.332000000000001  7.995 0.371  L 7.93 0.371  C 7.904 0.371  7.878 0.371  7.852 0.384  C 2.821 1.138  -0.637 5.792  0.104 10.745  C 0.377 12.5  1.183 14.164  2.444 15.555  C 2.574 15.698  2.743 15.763  2.925 15.763  C 3.055 15.763  3.198 15.724  3.315 15.633  L 3.445 15.542  C 3.588 15.425  3.692 15.256  3.705 15.074  C 3.718 14.892  3.653 14.71  3.536 14.58  Z M 18.343 8.028  C 18.2 7.144  17.979 6.403  17.68 5.74  C 17.589 5.545  17.42 5.389  17.212 5.337  C 17.004 5.272  16.77 5.311  16.588 5.428  L 16.653 5.532  L 16.588 5.428  C 16.276 5.636  16.159 6.026  16.302 6.364  C 16.601 7.027  16.783 7.638  16.861 8.249  C 17.173 10.212  16.692 12.201  15.509 13.839  C 14.274 15.542  12.441 16.66  10.361 16.985  C 9.62 17.076  8.918 17.089  8.281 17.024  C 7.878 16.972  7.514 17.245  7.449 17.648  L 7.371 18.142  L 7.371 18.324  L 7.475 18.35  C 8.086 18.467  8.684 18.519  9.256 18.519  C 9.711 18.519  10.153 18.48  10.582 18.402  C 13.026 18.038  15.184 16.751  16.653 14.762  C 18.096 12.812  18.694 10.42  18.343 8.028  Z " fill-rule="nonzero" fill="url(#LinearGradient1085)" stroke="none" transform="matrix(1 0 0 1 24 890 )" />
  </g>
</svg>