<?xml version="1.0" encoding="utf-8"?>
<svg version="1.1" xmlns:xlink="http://www.w3.org/1999/xlink" width="12px" height="14px" xmlns="http://www.w3.org/2000/svg">
  <g transform="matrix(1 0 0 1 -1029 -68 )">
    <path d="M 12 2.5  C 12 2.77625  11.77625 3  11.5 3  L 0.5 3  C 0.22375 3  0 2.77625  0 2.5  C 0 2.22375  0.22375 2  0.5 2  L 11.5 2  C 11.77625 2  12 2.22375  12 2.5  Z M 8 0.5  C 8 0.77625  7.77625 1  7.5 1  L 4.5 1  C 4.22375 1  4 0.77625  4 0.5  C 4 0.22375  4.22375 0  4.5 0  L 7.5 0  C 7.77625 0  8 0.22375  8 0.5  Z M 1 4.5  C 1 4.22375  1.22375 4  1.5 4  C 1.77625 4  2 4.22375  2 4.5  L 2 12  C 2 12.55225  2.44775 13  3 13  L 4 13  L 4 4.5  C 4 4.22375  4.22375 4  4.5 4  C 4.77625 4  5 4.22375  5 4.5  L 5 13  L 7 13  L 7 4.5  C 7 4.22375  7.22375 4  7.5 4  C 7.77625 4  8 4.22375  8 4.5  L 8 13  L 9 13  C 9.55225 13  10 12.55225  10 12  L 10 4.5  C 10 4.22375  10.22375 4  10.5 4  C 10.77625 4  11 4.22375  11 4.5  L 11 12  C 11 13.1045  10.1045 14  9 14  L 3 14  C 1.8955 14  1 13.1045  1 12  L 1 4.5  Z " fill-rule="nonzero" fill="#999999" stroke="none" transform="matrix(1 0 0 1 1029 68 )" />
  </g>
</svg>