<?xml version="1.0" encoding="utf-8"?>
<svg version="1.1" xmlns:xlink="http://www.w3.org/1999/xlink" width="180px" height="37px" xmlns="http://www.w3.org/2000/svg">
  <defs>
    <filter x="1089px" y="624px" width="180px" height="37px" filterUnits="userSpaceOnUse" id="filter1591">
      <feOffset dx="2" dy="2" in="SourceAlpha" result="shadowOffsetInner" />
      <feGaussianBlur stdDeviation="0.5" in="shadowOffsetInner" result="shadowGaussian" />
      <feComposite in2="shadowGaussian" operator="atop" in="SourceAlpha" result="shadowComposite" />
      <feColorMatrix type="matrix" values="0 0 0 0 0.6  0 0 0 0 0.6  0 0 0 0 0.6  0 0 0 0.67843137254902 0  " in="shadowComposite" />
    </filter>
    <g id="widget1592">
      <path d="M 1089.5 628  A 3.5 3.5 0 0 1 1093 624.5 L 1262 624.5  A 3.5 3.5 0 0 1 1265.5 628 L 1265.5 654  A 3.5 3.5 0 0 1 1262 657.5 L 1093 657.5  A 3.5 3.5 0 0 1 1089.5 654 L 1089.5 628  Z " fill-rule="nonzero" fill="#ffffff" stroke="none" fill-opacity="0.996078431372549" />
      <path d="M 1089.5 628  A 3.5 3.5 0 0 1 1093 624.5 L 1262 624.5  A 3.5 3.5 0 0 1 1265.5 628 L 1265.5 654  A 3.5 3.5 0 0 1 1262 657.5 L 1093 657.5  A 3.5 3.5 0 0 1 1089.5 654 L 1089.5 628  Z " stroke-width="1" stroke="#f2f2f2" fill="none" />
    </g>
  </defs>
  <g transform="matrix(1 0 0 1 -1089 -624 )">
    <use xlink:href="#widget1592" filter="url(#filter1591)" />
    <use xlink:href="#widget1592" />
  </g>
</svg>