<?xml version="1.0" encoding="utf-8"?>
<svg version="1.1" xmlns:xlink="http://www.w3.org/1999/xlink" width="242px" height="37px" xmlns="http://www.w3.org/2000/svg">
  <defs>
    <filter x="286px" y="27px" width="242px" height="37px" filterUnits="userSpaceOnUse" id="filter1601">
      <feOffset dx="2" dy="2" in="SourceAlpha" result="shadowOffsetInner" />
      <feGaussianBlur stdDeviation="0.5" in="shadowOffsetInner" result="shadowGaussian" />
      <feComposite in2="shadowGaussian" operator="atop" in="SourceAlpha" result="shadowComposite" />
      <feColorMatrix type="matrix" values="0 0 0 0 0.6  0 0 0 0 0.6  0 0 0 0 0.6  0 0 0 0.67843137254902 0  " in="shadowComposite" />
    </filter>
    <g id="widget1602">
      <path d="M 286.5 31  A 3.5 3.5 0 0 1 290 27.5 L 521 27.5  A 3.5 3.5 0 0 1 524.5 31 L 524.5 57  A 3.5 3.5 0 0 1 521 60.5 L 290 60.5  A 3.5 3.5 0 0 1 286.5 57 L 286.5 31  Z " fill-rule="nonzero" fill="#ffffff" stroke="none" fill-opacity="0.996078431372549" />
      <path d="M 286.5 31  A 3.5 3.5 0 0 1 290 27.5 L 521 27.5  A 3.5 3.5 0 0 1 524.5 31 L 524.5 57  A 3.5 3.5 0 0 1 521 60.5 L 290 60.5  A 3.5 3.5 0 0 1 286.5 57 L 286.5 31  Z " stroke-width="1" stroke="#f2f2f2" fill="none" />
    </g>
  </defs>
  <g transform="matrix(1 0 0 1 -286 -27 )">
    <use xlink:href="#widget1602" filter="url(#filter1601)" />
    <use xlink:href="#widget1602" />
  </g>
</svg>