<?xml version="1.0" encoding="utf-8"?>
<svg version="1.1" xmlns:xlink="http://www.w3.org/1999/xlink" width="12px" height="12px" viewBox="91 406  12 12" xmlns="http://www.w3.org/2000/svg">
  <path d="M 91.5 407  A 0.5 0.5 0 0 1 92 406.5 L 102 406.5  A 0.5 0.5 0 0 1 102.5 407 L 102.5 417  A 0.5 0.5 0 0 1 102 417.5 L 92 417.5  A 0.5 0.5 0 0 1 91.5 417 L 91.5 407  Z " fill-rule="nonzero" fill="#ffffff" stroke="none" />
  <path d="M 91.5 407  A 0.5 0.5 0 0 1 92 406.5 L 102 406.5  A 0.5 0.5 0 0 1 102.5 407 L 102.5 417  A 0.5 0.5 0 0 1 102 417.5 L 92 417.5  A 0.5 0.5 0 0 1 91.5 417 L 91.5 407  Z " stroke-width="1" stroke="#999999" fill="none" />
</svg>