<?xml version="1.0" encoding="utf-8"?>
<svg version="1.1" xmlns:xlink="http://www.w3.org/1999/xlink" width="14px" height="14px" xmlns="http://www.w3.org/2000/svg">
  <g transform="matrix(1 0 0 1 -5 -5 )">
    <path d="M 13.5625 1.375  C 13.5625 0.857233047033631  13.1427669529664 0.4375  12.625 0.4375  L 1.375 0.4375  C 0.857233047033631 0.4375  0.4375 0.857233047033631  0.4375 1.375  L 0.4375 12.625  C 0.4375 13.1427669529664  0.857233047033631 13.5625  1.375 13.5625  L 12.625 13.5625  C 13.1427669529664 13.5625  13.5625 13.1427669529664  13.5625 12.625  L 13.5625 1.375  Z M 1.375 4.1875  L 1.375 1.375  L 12.625 1.375  L 12.625 4.1875  L 1.375 4.1875  Z M 12.625 5.125  L 12.625 12.625  L 1.375 12.625  L 1.375 5.125  L 12.625 5.125  Z " fill-rule="nonzero" fill="#666666" stroke="none" transform="matrix(1 0 0 1 5 5 )" />
  </g>
</svg>