<?xml version="1.0" encoding="utf-8"?>
<svg version="1.1" xmlns:xlink="http://www.w3.org/1999/xlink" width="12px" height="12px" viewBox="110 448  12 12" xmlns="http://www.w3.org/2000/svg">
  <path d="M 110.5 449  A 0.5 0.5 0 0 1 111 448.5 L 121 448.5  A 0.5 0.5 0 0 1 121.5 449 L 121.5 459  A 0.5 0.5 0 0 1 121 459.5 L 111 459.5  A 0.5 0.5 0 0 1 110.5 459 L 110.5 449  Z " fill-rule="nonzero" fill="#ffffff" stroke="none" />
  <path d="M 110.5 449  A 0.5 0.5 0 0 1 111 448.5 L 121 448.5  A 0.5 0.5 0 0 1 121.5 449 L 121.5 459  A 0.5 0.5 0 0 1 121 459.5 L 111 459.5  A 0.5 0.5 0 0 1 110.5 459 L 110.5 449  Z " stroke-width="1" stroke="#0070cc" fill="none" />
  <path d="M 112.571428571429 454  L 115.142857142857 456.571428571429  " stroke-width="2.57142857142857" stroke="#0070cc" fill="none" />
  <path d="M 115.142857142857 456.571428571429  L 119.428571428571 450.571428571429  " stroke-width="2.57142857142857" stroke="#0070cc" fill="none" />
</svg>