<?xml version="1.0" encoding="utf-8"?>
<svg version="1.1" xmlns:xlink="http://www.w3.org/1999/xlink" width="15px" height="14px" xmlns="http://www.w3.org/2000/svg">
  <g transform="matrix(1 0 0 1 -2201 -42 )">
    <path d="M 13.052631578125 11.2105263125  L 13.052631578125 6.157894734375  C 13.052631578125 5.821052625  13.347368421875 5.52631578125  13.68421053125 5.526315796875  C 14.021052640625 5.5263158125  14.315789484375 5.821052640625  14.31578946875 6.157894734375  L 14.31578946875 11.2105263125  C 14.31578946875 12.6  13.178947359375 13.736842109375  11.7894736875 13.736842109375  L 3.368421046875 13.736842109375  C 1.978947359375 13.736842109375  0.84210525 12.6  0.842105265625 11.2105263125  L 0.842105265625 2.7894736875  C 0.842105265625 1.4  1.978947375 0.263157890625  3.368421046875 0.263157890625  L 11.7894736875 0.263157890625  C 12.126315796875 0.263157890625  12.421052640625 0.557894734375  12.421052625 0.89473684375  C 12.421052609375 1.231578953125  12.126315796875 1.526315796875  11.7894736875 1.526315796875  L 3.368421046875 1.526315796875  C 2.652631578125 1.526315796875  2.10526315625 2.073684203125  2.10526315625 2.7894736875  L 2.10526315625 11.2105263125  C 2.10526315625 11.92631578125  2.652631578125 12.473684203125  3.368421046875 12.473684203125  L 11.7894736875 12.473684203125  C 12.50526315625 12.473684203125  13.052631578125 11.92631578125  13.052631578125 11.2105263125  Z " fill-rule="nonzero" fill="#0070cc" stroke="none" transform="matrix(1 0 0 1 2201 42 )" />
  </g>
</svg>