<?xml version="1.0" encoding="utf-8"?>
<svg version="1.1" xmlns:xlink="http://www.w3.org/1999/xlink" width="10px" height="9px" xmlns="http://www.w3.org/2000/svg">
  <g transform="matrix(1 0 0 1 -7 -7 )">
    <path d="M 1.25 5.9375  L 8.75 5.9375  C 9.00888347648318 5.9375  9.21875 5.72763347648318  9.21875 5.46875  C 9.21875 5.20986652351682  9.00888347648318 5  8.75 5  L 1.25 5  C 0.991116523516816 5  0.78125 5.20986652351682  0.78125 5.46875  C 0.78125 5.72763347648318  0.991116523516816 5.9375  1.25 5.9375  Z M 1.25 8.28125  L 8.75 8.28125  C 9.00888347648318 8.28125  9.21875 8.07138347648318  9.21875 7.8125  C 9.21875 7.55361652351682  9.00888347648318 7.34375  8.75 7.34375  L 1.25 7.34375  C 0.991116523516816 7.34375  0.78125 7.55361652351682  0.78125 7.8125  C 0.78125 8.07138347648318  0.991116523516816 8.28125  1.25 8.28125  Z M 8.75 0.3125  L 7.8125 0.3125  C 7.55361652351682 0.3125  7.34375 0.522366523516816  7.34375 0.78125  C 7.34375 1.04013347648318  7.55361652351682 1.25  7.8125 1.25  L 8.75 1.25  C 9.00888347648318 1.25  9.21875 1.04013347648318  9.21875 0.78125  C 9.21875 0.522366523516816  9.00888347648318 0.3125  8.75 0.3125  Z " fill-rule="nonzero" fill="#666666" stroke="none" transform="matrix(1 0 0 1 7 7 )" />
  </g>
</svg>