<?xml version="1.0" encoding="utf-8"?>
<svg version="1.1" xmlns:xlink="http://www.w3.org/1999/xlink" width="11px" height="12px" xmlns="http://www.w3.org/2000/svg">
  <g transform="matrix(1 0 0 1 -1512 -44 )">
    <path d="M 10.9140625 9.22813235294118  L 10.9140625 2.43564705882353  L 5.5 0.0532941176470588  L 0.0859375 2.43564705882353  L 0.0859375 9.22773529411765  L 5.5 11.5942058823529  L 5.96754296875 11.3897205882353  L 6.06654296875 11.3897205882353  L 6.06654296875 11.3464411764706  L 10.9140625 9.22813235294118  Z M 9.54314453125 2.69651470588235  L 5.5 4.46342647058824  L 4.127921875 3.86386764705882  L 7.98234765625 2.03739705882353  C 7.9912421875 2.03302941176471  7.99704296875 2.02508823529412  8.00555078125 2.01992647058824  L 9.54314453125 2.69651470588235  Z M 5.5 0.917294117647059  L 7.0553828125 1.60182352941176  L 3.16769921875 3.44417647058824  L 1.45685546875 2.69611764705882  L 5.5 0.917294117647059  Z M 0.859375 8.70282352941176  L 0.859375 3.29805882352941  L 2.40625 3.97425  L 2.40625 6.44117647058824  C 2.40625 6.66046600360928  2.57938988190137 6.83823529411765  2.79296875 6.83823529411765  C 3.00654761809863 6.83823529411765  3.1796875 6.66046600360928  3.1796875 6.44117647058824  L 3.1796875 4.31294117647059  L 3.1804609375 4.31254411764706  L 5.29310546875 5.23610294117647  L 5.29310546875 10.6408676470588  L 0.859375 8.70282352941176  Z M 10.140625 8.70322058823529  L 6.06654296875 10.4836323529412  L 6.06654296875 5.07886764705882  L 10.140625 3.29805882352941  L 10.140625 8.70322058823529  Z " fill-rule="nonzero" fill="#ff8a00" stroke="none" transform="matrix(1 0 0 1 1512 44 )" />
  </g>
</svg>