<?xml version="1.0" encoding="utf-8"?>
<svg version="1.1" xmlns:xlink="http://www.w3.org/1999/xlink" width="6px" height="12px" xmlns="http://www.w3.org/2000/svg">
  <g transform="matrix(1 0 0 1 -1150 -151 )">
    <path d="M 0.237792968750004 8.636171875  L 2.48666015625 10.88548828125  C 2.55720703125 10.95560546875  2.6397265625 11.0026171875  2.72712890625 11.03544921875  C 2.813203125 11.0744921875  2.90814453125 11.097578125  3.00884765625 11.097578125  C 3.25552734375 11.097578125  3.46982421875 10.9653515625  3.58958984375 10.7683984375  L 5.7790234375 8.58029296875  C 6.04521484375 8.3141015625  6.04521484375 7.8819921875  5.77947265625 7.6166796875  C 5.5123828125 7.35048828125  5.08072265625 7.34958984375  4.81541015625 7.61578125  L 3.6903125 8.74087890625  L 3.6903125 0.87576171875  C 3.6903125 0.49955078125  3.385078125 0.19431640625  3.00884765625 0.19431640625  C 2.63263671875 0.19431640625  2.32740234375 0.499550781249999  2.32740234375 0.875761718749999  L 2.32740234375 8.79810546875  L 1.202734375 7.67255859375  C 0.936093750000003 7.40724609375  0.504414062500002 7.40724609375  0.239121093750002 7.67255859375  C -0.0275195312499967 7.93962890625  -0.0283984374999973 8.370859375  0.237792968750004 8.636171875  Z " fill-rule="nonzero" fill="#666666" stroke="none" transform="matrix(1 0 0 1 1150 151 )" />
  </g>
</svg>