<?xml version="1.0" encoding="utf-8"?>
<svg version="1.1" xmlns:xlink="http://www.w3.org/1999/xlink" width="12px" height="12px" xmlns="http://www.w3.org/2000/svg">
  <defs>
    <linearGradient gradientUnits="userSpaceOnUse" x1="12" y1="1.05004843396978" x2="0.333225702293987" y2="12" id="LinearGradient1698">
      <stop id="Stop1699" stop-color="#c52ad8" offset="0" />
      <stop id="Stop1700" stop-color="#fb2a61" offset="0.5" />
      <stop id="Stop1701" stop-color="#ffc806" offset="1" />
    </linearGradient>
  </defs>
  <g transform="matrix(1 0 0 1 -27 -893 )">
    <path d="M 6.204 11.944  C 6.49 11.905  6.789 11.879  7.101 11.827  C 8.57 11.619  9.87 10.852  10.754 9.669  C 11.638 8.486  12.002 7.03  11.794 5.574  L 11.794 5.47  C 11.781 5.301  11.703 5.145  11.573 5.041  C 11.443 4.937  11.261 4.87200000000001  11.092 4.89800000000001  L 11.001 4.911  L 10.962 4.911  L 10.806 4.937  C 10.624 4.963  10.468 5.08  10.377 5.236  C 10.286 5.392  10.26 5.587  10.325 5.769  C 10.338 5.795  10.338 5.808  10.338 5.834  C 10.663 8.005  9.11600000000001 10.059  6.89300000000001 10.423  C 4.67000000000001 10.774  2.56400000000001 9.253  2.20000000000001 7.043  C 2.03100000000001 6.003  2.27800000000001 4.95  2.91500000000001 4.092  C 3.56500000000001 3.195  4.54000000000001 2.597  5.65800000000001 2.415  C 5.71000000000001 2.402  5.74900000000001 2.389  5.80100000000001 2.389  C 5.97000000000001 2.363  6.11300000000001 2.272  6.21700000000001 2.129  C 6.32100000000001 1.986  6.36000000000001 1.817  6.32100000000001 1.648  L 6.30800000000001 1.609  L 6.30800000000001 1.531  C 6.28200000000001 1.349  6.19100000000001 1.18  6.03500000000001 1.076  C 5.87900000000001 0.972  5.69700000000001 0.946  5.51500000000001 0.997999999999999  C 5.50200000000001 0.997999999999999  5.50200000000001 0.997999999999999  5.48900000000001 1.011  C 4.02 1.232  2.72 1.999  1.836 3.182  C 0.952 4.365  0.588 5.821  0.796 7.29  C 1.004 8.733  1.771 10.02  2.954 10.878  C 3.903 11.58  5.034 11.944  6.204 11.944  Z " fill-rule="nonzero" fill="url(#LinearGradient1698)" stroke="none" transform="matrix(1 0 0 1 27 893 )" />
  </g>
</svg>