<?xml version="1.0" encoding="utf-8"?>
<svg version="1.1" xmlns:xlink="http://www.w3.org/1999/xlink" width="15px" height="9px" xmlns="http://www.w3.org/2000/svg">
  <g transform="matrix(1 0 0 1 -839 -131 )">
    <path d="M 3.07087407414063 1.82760296289063  L 5.94414222226563 1.82760296289063  L 5.94414222226563 8.02621629625  L 5.3282251853125 8.02621629625  L 5.3282251853125 7.61661629617188  L 1.05928296296875 7.61661629617188  L 1.05928296296875 8.06565925914062  L 0.467638518671874 8.06565925914062  L 0.467638518671874 1.82760296289063  L 2.47922962960937 1.82760296289063  C 2.60059259265625 1.4756503703125  2.72802370375 1.04177777757813  2.79173925929688 0.729268147890625  L 3.47137185203125 0.817256296328125  C 3.35000888898437 1.16314074085938  3.20740740742188 1.52116148148438  3.07087407414063 1.82760296289063  Z M 5.3282251853125 2.39800888867187  L 1.05928296296875 2.39800888867187  L 1.05928296296875 3.59039999992187  L 5.3282251853125 3.59039999992187  L 5.3282251853125 2.39800888867187  Z M 5.3282251853125 4.15170370375  L 1.05928296296875 4.15170370375  L 1.05928296296875 5.31375407429687  L 5.3282251853125 5.31375407429687  L 5.3282251853125 4.15170370375  Z M 1.05928296296875 7.05834666671875  L 5.3282251853125 7.05834666671875  L 5.3282251853125 5.87202370375  L 1.05928296296875 5.87202370375  L 1.05928296296875 7.05834666671875  Z M 12.3642429629687 1.40283259257813  L 14.1725511111719 1.40283259257813  L 14.1725511111719 1.94896592570313  L 12.3612088888281 1.94896592570313  L 12.3612088888281 2.5163377778125  L 11.7756325925781 2.5163377778125  L 11.7756325925781 1.94896592570313  L 9.52434962945313 1.94896592570313  L 9.52434962945313 2.5163377778125  L 8.94180740757812 2.5163377778125  L 8.94180740757812 1.94896592570313  L 7.17901037054687 1.94896592570313  L 7.17901037054687 1.40283259257813  L 8.94180740757812 1.40283259257813  L 8.94180740757812 0.747472592499999  L 9.52738370382813 0.747472592499999  L 9.52738370382813 1.40283259257813  L 11.7786666667187 1.40283259257813  L 11.7786666667187 0.747472592499999  L 12.3642429629687 0.747472592499999  L 12.3642429629687 1.40283259257813  Z M 7.41263407421875 2.73479111125  L 7.40960000007813 2.73479111125  L 13.9935407408594 2.73479111125  L 13.9935407408594 4.28823703703125  L 13.4170666667969 4.28823703703125  L 13.4170666667969 3.2141748146875  L 7.96483555539062 3.2141748146875  L 7.96483555539062 4.28823703703125  L 7.41263407421875 4.28823703703125  L 7.41263407421875 2.73479111125  Z M 8.04372148117188 8.08082962960937  L 8.04372148117188 5.80830814796875  L 13.4352711111719 5.80830814796875  L 13.4352711111719 8.06565925914062  L 12.8496948146875 8.06565925914062  L 12.8496948146875 7.77742222234375  L 8.61109333328125 7.77742222234375  L 8.61109333328125 8.08082962960937  L 8.04372148117188 8.08082962960937  Z M 8.60502518523437 3.73603555539063  L 12.8345244444531 3.73603555539063  L 12.8345244444531 5.30465185210938  L 8.60502518523437 5.30465185210938  L 8.60502518523437 3.73603555539063  Z M 12.8496948146875 6.33016888867187  L 8.61109333328125 6.33016888867188  L 8.61109333328125 7.27679999992187  L 12.8496948146875 7.27679999992187  L 12.8496948146875 6.33016888867187  Z M 12.2489481479687 4.87077925914063  L 12.2489481479687 4.16687407421875  L 9.16632888882813 4.16687407421875  L 9.16632888882813 4.87077925914063  L 12.2489481479687 4.87077925914063  Z " fill-rule="nonzero" fill="#0070cc" stroke="none" transform="matrix(1 0 0 1 839 131 )" />
  </g>
</svg>