<?xml version="1.0" encoding="utf-8"?>
<svg version="1.1" xmlns:xlink="http://www.w3.org/1999/xlink" width="12px" height="12px" viewBox="110 178.5  12 12" xmlns="http://www.w3.org/2000/svg">
  <path d="M 110.5 179.5  A 0.5 0.5 0 0 1 111 179 L 121 179  A 0.5 0.5 0 0 1 121.5 179.5 L 121.5 189.5  A 0.5 0.5 0 0 1 121 190 L 111 190  A 0.5 0.5 0 0 1 110.5 189.5 L 110.5 179.5  Z " fill-rule="nonzero" fill="#ffffff" stroke="none" />
  <path d="M 110.5 179.5  A 0.5 0.5 0 0 1 111 179 L 121 179  A 0.5 0.5 0 0 1 121.5 179.5 L 121.5 189.5  A 0.5 0.5 0 0 1 121 190 L 111 190  A 0.5 0.5 0 0 1 110.5 189.5 L 110.5 179.5  Z " stroke-width="1" stroke="#0070cc" fill="none" />
  <path d="M 112.571428571429 184.5  L 115.142857142857 187.071428571429  " stroke-width="2.57142857142857" stroke="#0070cc" fill="none" />
  <path d="M 115.142857142857 187.071428571429  L 119.428571428571 181.071428571429  " stroke-width="2.57142857142857" stroke="#0070cc" fill="none" />
</svg>