<?xml version="1.0" encoding="utf-8"?>
<svg version="1.1" xmlns:xlink="http://www.w3.org/1999/xlink" width="10px" height="45.1752265861028px" preserveAspectRatio="xMidYMin meet" viewBox="485 77  8 45.1752265861028" xmlns="http://www.w3.org/2000/svg">
  <path d="M 489.5 78  L 489.5 112.175226586103  A 5 5 0 0 0 494.5 117.675226586103 L 685 117.675226586103  A 5 5 0 0 0 690.5 112.675226586103 L 690.5 21  A 5 5 0 0 1 695.5 16.5 L 717 16.5  " stroke-width="1" stroke="#b86e3f" fill="none" />
  <path d="M 489.5 77  A 3 3 0 0 0 486.5 80 A 3 3 0 0 0 489.5 83 A 3 3 0 0 0 492.5 80 A 3 3 0 0 0 489.5 77 Z " fill-rule="nonzero" fill="#b86e3f" stroke="none" />
</svg>