<?xml version="1.0" encoding="utf-8"?>
<svg version="1.1" xmlns:xlink="http://www.w3.org/1999/xlink" width="4px" height="4px" xmlns="http://www.w3.org/2000/svg">
  <g transform="matrix(1 0 0 1 -1256 -11 )">
    <path d="M 1.56328125 3.55546875  C 1.538671875 3.55546875  1.517578125 3.558984375  1.49296875 3.558984375  C 1.2328125 3.558984375  1.004296875 3.365625  0.969140625000001 3.0984375  C 0.965625000000001 3.084375  0.965625000000001 3.0703125  0.965625000000001 3.05625  C 0.933984375000001 2.76796875  1.144921875 2.5078125  1.43671875 2.476171875  C 1.725 2.44453125  1.98515625 2.65546875  2.016796875 2.947265625  C 2.016796875 2.954296875  2.016796875 2.961328125  2.0203125 2.96484375  C 2.058984375 3.253125  1.8515625 3.516796875  1.56328125 3.55546875  Z M 2.49140625 1.83984375  C 2.3859375 1.99453125  2.2171875 2.07890625  2.044921875 2.07890625  C 1.946484375 2.07890625  1.848046875 2.05078125  1.76015625 1.99453125  C 1.5140625 1.836328125  1.44375 1.509375  1.601953125 1.266796875  C 2.0484375 0.570703125000001  2.7796875 0.162890625  2.811328125 0.1453125  C 3.06796875 0.00468750000000018  3.387890625 0.0960937500000005  3.528515625 0.352734375000001  C 3.669140625 0.605859375000001  3.577734375 0.925781250000001  3.324609375 1.069921875  C 3.310546875 1.076953125  2.790234375 1.37578125  2.49140625 1.83984375  Z " fill-rule="nonzero" fill="#ffffff" stroke="none" transform="matrix(1 0 0 1 1256 11 )" />
  </g>
</svg>