<?xml version="1.0" encoding="utf-8"?>
<svg version="1.1" xmlns:xlink="http://www.w3.org/1999/xlink" width="12px" height="14px" xmlns="http://www.w3.org/2000/svg">
  <g transform="matrix(1 0 0 1 -445 -62 )">
    <path d="M 8 2.48449403125  L 8.01331379296875 2.48449403125  L 10.5784395117187 5.04562111328125  C 10.6593496823862 5.12293806719331  10.7669536020221 5.16608452444522  10.8788659207348 5.16608452444522  C 11.1190279344281 5.16608452444522  11.3137177137036 4.97139474516968  11.3137177137036 4.73123273147647  C 11.3137177137036 4.61980928302768  11.2709464642349 4.5126369535642  11.1942296367187 4.4318303125  L 7.8863570625 1.12695673046875  C 7.8049906169002 1.04556815226408  7.6946207496532 0.999842664119786  7.57953556758478 0.999842664119786  C 7.35574244044074 0.999842664119786  7.16866944072146 1.17006615653172  7.14760885546875 1.3928661015625  C 7.14645434623283 1.40683752228444  7.14645434623283 1.42088037224681  7 1.43485179296875  L 7 12.5610596054687  C 7.14760885546875 12.8014976666129  7.34252241541831 12.9964112265625  7.5829604765625 12.9964112265625  C 7.82339853770669 12.9964112265625  8.01831209765625 12.8014976666129  8.01831209765625 12.5610596054687  C 8.01831209765625 12.5610596054687  8.01831209765625 12.5610596054687  8 12.5610596054688  L 8 2.48449403125  Z M 4.10164702734375 12.8609573945313  L 4.10164702734375 12.8569587578125  L 0.80876934375 9.56408107421875  C 0.727375622910497 9.48268735337925  0.681649106678282 9.37229377773136  0.681649106678282 9.25718567382813  C 0.681649106678282 9.01748545606958  0.875964526382083 8.82317003636578  1.11566474414062 8.82317003636578  C 1.23077284804386 8.82317003636578  1.34116642369175 8.868896552598  1.42256014453125 8.9502902734375  L 4 11.5114173554688  L 4 1.43485179296875  C 3.98168790234375 1.43485179296875  3.98168790234375 1.43485179296875  3.98168790234375 1.43485179296875  C 3.98168790234375 1.19441373182456  4.17660146229331 0.999500171875  4.4170395234375 0.999500171875  C 4.65747758458169 0.999500171875  4.85239114453125 1.19441373182456  4.85239114453125 1.43485179296875  C 4.85239114453125 1.43485179296875  4.85239114453125 1.43485179296875  5 1.43485179296875  L 5 12.5610596054688  C 4.85242042607675 12.5631148831752  4.85243506740664 12.5651703433852  4.85243506740664 12.5672258296682  C 4.85243506740664 12.8062836470854  4.65864041607388 13.0000782984182  4.41958259865664 13.0000782984182  C 4.29883889428607 13.0000782984182  4.1835831136379 12.9496451609251  4.10164702734375 12.8609573945313  Z " fill-rule="nonzero" fill="#0070cc" stroke="none" transform="matrix(1 0 0 1 445 62 )" />
  </g>
</svg>