<?xml version="1.0" encoding="utf-8"?>
<svg version="1.1" xmlns:xlink="http://www.w3.org/1999/xlink" width="2px" height="10px" xmlns="http://www.w3.org/2000/svg">
  <g transform="matrix(1 0 0 1 -879 -809 )">
    <path d="M 1 0.5  C 0.549999999999999 0.5  0.0999999999999996 0.837499999999999  0.0999999999999996 1.4  C 0.0999999999999996 1.85  0.4375 2.3  1 2.3  C 1.5625 2.3  1.9 1.9625  1.9 1.4  C 1.9 0.837499999999999  1.45 0.5  1 0.5  Z M 1.5625 8.9375  C 1.5625 9.275  1.3375 9.5  1 9.5  C 0.6625 9.5  0.4375 9.275  0.4375 8.9375  L 0.4375 3.875  C 0.4375 3.5375  0.6625 3.3125  1 3.3125  C 1.3375 3.3125  1.5625 3.5375  1.5625 3.875  L 1.5625 8.9375  Z " fill-rule="nonzero" fill="#ffffff" stroke="none" transform="matrix(1 0 0 1 879 809 )" />
  </g>
</svg>