<?xml version="1.0" encoding="utf-8"?>
<svg version="1.1" xmlns:xlink="http://www.w3.org/1999/xlink" width="262px" height="37px" xmlns="http://www.w3.org/2000/svg">
  <defs>
    <filter x="610px" y="775px" width="262px" height="37px" filterUnits="userSpaceOnUse" id="filter285">
      <feOffset dx="2" dy="2" in="SourceAlpha" result="shadowOffsetInner" />
      <feGaussianBlur stdDeviation="0.5" in="shadowOffsetInner" result="shadowGaussian" />
      <feComposite in2="shadowGaussian" operator="atop" in="SourceAlpha" result="shadowComposite" />
      <feColorMatrix type="matrix" values="0 0 0 0 0.6  0 0 0 0 0.6  0 0 0 0 0.6  0 0 0 0.67843137254902 0  " in="shadowComposite" />
    </filter>
    <g id="widget286">
      <path d="M 610.5 779  A 3.5 3.5 0 0 1 614 775.5 L 865 775.5  A 3.5 3.5 0 0 1 868.5 779 L 868.5 805  A 3.5 3.5 0 0 1 865 808.5 L 614 808.5  A 3.5 3.5 0 0 1 610.5 805 L 610.5 779  Z " fill-rule="nonzero" fill="#ffffff" stroke="none" fill-opacity="0.996078431372549" />
      <path d="M 610.5 779  A 3.5 3.5 0 0 1 614 775.5 L 865 775.5  A 3.5 3.5 0 0 1 868.5 779 L 868.5 805  A 3.5 3.5 0 0 1 865 808.5 L 614 808.5  A 3.5 3.5 0 0 1 610.5 805 L 610.5 779  Z " stroke-width="1" stroke="#f2f2f2" fill="none" />
    </g>
  </defs>
  <g transform="matrix(1 0 0 1 -610 -775 )">
    <use xlink:href="#widget286" filter="url(#filter285)" />
    <use xlink:href="#widget286" />
  </g>
</svg>