<?xml version="1.0" encoding="utf-8"?>
<svg version="1.1" xmlns:xlink="http://www.w3.org/1999/xlink" width="6px" height="6px" xmlns="http://www.w3.org/2000/svg">
  <g transform="matrix(1 0 0 1 -888 -127 )">
    <path d="M 5.123375 5.875  C 5.535125 5.875  5.784875 5.6635  5.784875 5.2135  L 5.784875 0.8125  C 5.784875 0.502000000000001  5.532875 0.25  5.222375 0.25  C 4.911875 0.25  4.659875 0.502000000000001  4.659875 0.8125  L 4.659875 3.988375  L 1.0835 0.410875000000001  C 0.873125000000002 0.200500000000002  0.532249999999999 0.200500000000002  0.32075 0.410875000000001  C 0.110374999999999 0.622375000000002  0.110374999999999 0.96325  0.32075 1.173625  L 3.89825 4.75  L 0.722375000000001 4.75  C 0.411875 4.75  0.159875000000001 5.002  0.159875000000001 5.3125  C 0.159875000000001 5.623  0.411875 5.875  0.722375000000001 5.875  L 5.123375 5.875  Z " fill-rule="nonzero" fill="#999999" stroke="none" transform="matrix(1 0 0 1 888 127 )" />
  </g>
</svg>