<?xml version="1.0" encoding="utf-8"?>
<svg version="1.1" xmlns:xlink="http://www.w3.org/1999/xlink" width="298px" height="53px" xmlns="http://www.w3.org/2000/svg">
  <defs>
    <filter x="0px" y="0px" width="298px" height="53px" filterUnits="userSpaceOnUse" id="filter294">
      <feOffset dx="2" dy="2" in="SourceAlpha" result="shadowOffsetInner" />
      <feGaussianBlur stdDeviation="0.5" in="shadowOffsetInner" result="shadowGaussian" />
      <feComposite in2="shadowGaussian" operator="atop" in="SourceAlpha" result="shadowComposite" />
      <feColorMatrix type="matrix" values="0 0 0 0 0.6  0 0 0 0 0.6  0 0 0 0 0.6  0 0 0 0.67843137254902 0  " in="shadowComposite" />
    </filter>
    <g id="widget295">
      <path d="M 0.5 4  A 3.5 3.5 0 0 1 4 0.5 L 291 0.5  A 3.5 3.5 0 0 1 294.5 4 L 294.5 46  A 3.5 3.5 0 0 1 291 49.5 L 4 49.5  A 3.5 3.5 0 0 1 0.5 46 L 0.5 4  Z " fill-rule="nonzero" fill="#ffffff" stroke="none" fill-opacity="0.996078431372549" />
      <path d="M 0.5 4  A 3.5 3.5 0 0 1 4 0.5 L 291 0.5  A 3.5 3.5 0 0 1 294.5 4 L 294.5 46  A 3.5 3.5 0 0 1 291 49.5 L 4 49.5  A 3.5 3.5 0 0 1 0.5 46 L 0.5 4  Z " stroke-width="1" stroke="#f2f2f2" fill="none" />
    </g>
  </defs>
  <g>
    <use xlink:href="#widget295" filter="url(#filter294)" />
    <use xlink:href="#widget295" />
  </g>
</svg>