<?xml version="1.0" encoding="utf-8"?>
<svg version="1.1" xmlns:xlink="http://www.w3.org/1999/xlink" width="377px" height="37px" xmlns="http://www.w3.org/2000/svg">
  <defs>
    <filter x="400px" y="101px" width="377px" height="37px" filterUnits="userSpaceOnUse" id="filter339">
      <feOffset dx="2" dy="2" in="SourceAlpha" result="shadowOffsetInner" />
      <feGaussianBlur stdDeviation="0.5" in="shadowOffsetInner" result="shadowGaussian" />
      <feComposite in2="shadowGaussian" operator="atop" in="SourceAlpha" result="shadowComposite" />
      <feColorMatrix type="matrix" values="0 0 0 0 0.6  0 0 0 0 0.6  0 0 0 0 0.6  0 0 0 0.67843137254902 0  " in="shadowComposite" />
    </filter>
    <g id="widget340">
      <path d="M 400.5 105  A 3.5 3.5 0 0 1 404 101.5 L 770 101.5  A 3.5 3.5 0 0 1 773.5 105 L 773.5 131  A 3.5 3.5 0 0 1 770 134.5 L 404 134.5  A 3.5 3.5 0 0 1 400.5 131 L 400.5 105  Z " fill-rule="nonzero" fill="#ffffff" stroke="none" fill-opacity="0.996078431372549" />
      <path d="M 400.5 105  A 3.5 3.5 0 0 1 404 101.5 L 770 101.5  A 3.5 3.5 0 0 1 773.5 105 L 773.5 131  A 3.5 3.5 0 0 1 770 134.5 L 404 134.5  A 3.5 3.5 0 0 1 400.5 131 L 400.5 105  Z " stroke-width="1" stroke="#f2f2f2" fill="none" />
    </g>
  </defs>
  <g transform="matrix(1 0 0 1 -400 -101 )">
    <use xlink:href="#widget340" filter="url(#filter339)" />
    <use xlink:href="#widget340" />
  </g>
</svg>