<?xml version="1.0" encoding="utf-8"?>
<svg version="1.1" xmlns:xlink="http://www.w3.org/1999/xlink" width="14px" height="12px" xmlns="http://www.w3.org/2000/svg">
  <g transform="matrix(1 0 0 1 -28 -6 )">
    <path d="M 13.5 0.5  L 0.5 0.5  L 0.5 11.5  L 13.5 11.5  L 13.5 0.5  Z M 8.3335 6.753  L 5.3335 6.753  L 5.3335 4.253  L 8.3335 4.253  L 8.3335 6.753  Z M 5.3335 7.753  L 8.3335 7.753  L 8.3335 10.5  L 5.3335 10.5  L 5.3335 7.753  Z M 1.5 6.753  L 1.5 4.253  L 4.3335 4.253  L 4.3335 6.753  L 1.5 6.753  Z M 9.3335 6.753  L 9.3335 4.253  L 12.5 4.253  L 12.5 6.753  L 9.3335 6.753  Z M 1.5 1.5  L 12.5 1.5  L 12.5 3.253  L 1.5 3.253  L 1.5 1.5  Z M 1.5 10.5  L 1.5 7.753  L 4.3335 7.753  L 4.3335 10.5  L 1.5 10.5  Z M 12.5 10.5  L 9.3335 10.5  L 9.3335 7.753  L 12.5 7.753  L 12.5 10.5  Z " fill-rule="nonzero" fill="#0070cc" stroke="none" transform="matrix(1 0 0 1 28 6 )" />
  </g>
</svg>