<?xml version="1.0" encoding="utf-8"?>
<svg version="1.1" xmlns:xlink="http://www.w3.org/1999/xlink" width="24px" height="14px" xmlns="http://www.w3.org/2000/svg">
  <g transform="matrix(1 0 0 1 -729 -42 )">
    <path d="M 23.9754903705469 7  C 23.9785244446875 10.5862755554687  21.05671111125 13.5020207408594  17.4704355555469 13.5020207408594  L 0.021475555546875 13.5020207408594  L 0.021475555546875 7  C 0.021475555546875 3.41675851867188  2.93722074070312 0.497979259140625  6.52349629617187 0.497979259140625  L 17.4734696294531 0.497979259140625  C 21.0567111107812 0.497979259140625  23.9754903703125 3.41372444429688  23.9754903705469 7  Z M 0.710210370468749 12.8163200000781  L 0.707176296328123 12.8163200000781  L 17.4734696294531 12.8163200000781  C 20.6804859257813 12.8163200000781  23.2867555553906 10.2039822221875  23.2867555553906 7  C 23.2867555553906 3.79298370367188  20.6744177777344 1.18367999992187  17.4704355555469 1.18367999992187  L 6.52653037054687 1.18367999992187  C 3.31951407421875 1.18367999992187  0.710210370468749 3.78994962953125  0.710210370468749 7  L 0.710210370468749 12.8163200000781  Z " fill-rule="nonzero" fill="#408bf9" stroke="none" transform="matrix(1 0 0 1 729 42 )" />
  </g>
</svg>