<?xml version="1.0" encoding="utf-8"?>
<svg version="1.1" xmlns:xlink="http://www.w3.org/1999/xlink" width="12px" height="12px" xmlns="http://www.w3.org/2000/svg">
  <g transform="matrix(1 0 0 1 -1512 -123 )">
    <path d="M 11.8685278886719 1.27346608886719  C 11.8685144018555 0.653952618164062  11.3464048813477 0.14974546875  10.7046854794922 0.14974546875  L 5.26587498339844 0.14974546875  C 4.62418255517578 0.14974546875  4.10205954785156 0.653952618164062  4.10205954785156 1.27346608886719  L 4.10205954785156 2.70657244482422  L 0.367454115234375 5.91798910839844  C 0.229941849609375 5.97100815673828  0.131472111328125 6.10207179931641  0.131472111328125 6.25820144824219  L 0.131472111328125 11.4835596606445  C 0.131472111328125 11.6862327480469  0.295466920898438 11.85026803125  0.498166995117188 11.85026803125  C 0.700840082519531 11.85026803125  0.86486187890625 11.6862462348633  0.86486187890625 11.4835596606445  L 0.86486187890625 6.45729944824219  L 4.10207304785156 3.67414992919922  L 4.10207304785156 6.43437849169922  L 2.4927761484375 8.1009710390625  C 2.35240382080078 8.24705000390625  2.35634314453125 8.47913314453125  2.50207134667969 8.61950547216797  C 2.64746227294922 8.75986431298828  2.87951843994141 8.75628923876953  3.02060577978516 8.6108848125  L 4.81467339550781 6.751656375  L 5.11333390869141 6.48523900341797  C 5.1179882578125 6.48094891699219  5.58888647753906 6.03905601416016  6.12280049560547 6.03905601416016  C 6.39029712890625 6.03905601416016  6.63131123144531 6.1515022734375  6.88519559326172 6.40645242333984  C 6.88914841699219 6.410040984375  6.96077134863281 6.47736034277344  6.99586106542969 6.60555043652344  C 7.00373972607422 6.64565873876953  7.01125412402344 6.68646857958984  7.0105391118164 6.73661407910156  C 7.00840756201172 6.87196780810547  6.96647798583984 7.05389196240234  6.83828789208984 7.28235956835937  C 6.69863057666015 7.51942084716797  6.45294865136719 7.81735284814453  6.02825659423828 8.17618255810547  L 4.57904216748047 9.44385058007813  L 2.53107667675781 11.1992264179688  C 2.37710556445312 11.3310320595703  2.35920320654297 11.5623462275391  2.49134611083984 11.7163308266602  C 2.56368406787109 11.8008375307617  2.66644389257812 11.8445209072266  2.76958146679687 11.8445209072266  C 2.85410165771484 11.8445209072266  2.93897262451172 11.8151648144531  3.00807277001953 11.7564391289063  L 4.68112744042969 10.3226177607422  C 4.85801950927734 10.4243252973633  5.05676675976563 10.4830644829102  5.26588847021484 10.4830644829102  L 10.704698953125 10.4830644829102  C 11.3464048813477 10.4830644829102  11.8685278754883 9.97884384667969  11.8685278754883 9.35934386279297  L 11.8685278886719 1.27346608886719  Z M 5.5186935703125 9.68374492089844  L 6.54930032666016 8.78207025732422  C 7.39621561523437 8.06729787304687  7.82163618457031 7.37760498193359  7.8141217734375 6.73301201806641  C 7.80729540087891 6.14002156494141  7.43666119335937 5.82488873144531  7.42808100732422 5.82130015722656  C 7.19246325292969 5.58282234082031  6.93176600537109 5.42526266748047  6.65388141210937 5.333592328125  C 6.49451396484375 5.27628318017578  6.33086991796875 5.23617487792969  6.15828142236328 5.23116976611328  C 6.14323912646484 5.23116976611328  6.12819681738281 5.23044125390625  6.11351877099609 5.23044125390625  C 5.8624944711914 5.23044125390625  5.63259684082031 5.29132547607422  5.42991025341797 5.37225710595703  C 5.42954600390625 5.37225710595703  5.42919524121094 5.37225710595703  5.42883099169922 5.37225710595703  C 5.357208046875 5.40091167333984  5.28952443896484 5.43099627832031  5.22615790429687 5.46321243310547  C 5.10511797216797 5.52193811865235  4.99267171289062 5.58282234082031  4.90136560986328 5.64296456396485  L 4.90136562304687 1.27346608886719  C 4.90136562304687 1.09726205859375  5.06823398144531 0.949024557128906  5.26590197021484 0.949024557128906  L 8.83473180615234 0.949024557128906  L 8.83473180615234 9.68374492089844  L 5.5186935703125 9.68374492089844  Z M 11.0692353134766 1.27346608886719  L 11.0692353134766 9.35933037597656  C 11.0692353134766 9.53550743261719  10.9023669550781 9.68374492089844  10.7046989663086 9.68374492089844  L 9.61249297558594 9.68374492089844  L 9.61249297558594 0.949024557128906  L 10.7046989663086 0.949024557128906  C 10.9023669418945 0.949024557128906  11.0692353134766 1.09726205859375  11.0692353134766 1.27346608886719  Z " fill-rule="nonzero" fill="#54bd58" stroke="none" transform="matrix(1 0 0 1 1512 123 )" />
  </g>
</svg>