<?xml version="1.0" encoding="utf-8"?>
<svg version="1.1" xmlns:xlink="http://www.w3.org/1999/xlink" width="2px" height="8px" xmlns="http://www.w3.org/2000/svg">
  <g transform="matrix(1 0 0 1 -595 -341 )">
    <path d="M 1 0  C 0.6 0  0.2 0.3  0.2 0.8  C 0.2 1.2  0.5 1.6  1 1.6  C 1.5 1.6  1.8 1.3  1.8 0.8  C 1.8 0.3  1.4 0  1 0  Z M 1.5 7.5  C 1.5 7.8  1.3 8  1 8  C 0.7 8  0.5 7.8  0.5 7.5  L 0.5 3  C 0.5 2.7  0.7 2.5  1 2.5  C 1.3 2.5  1.5 2.7  1.5 3  L 1.5 7.5  Z " fill-rule="nonzero" fill="#999999" stroke="none" transform="matrix(1 0 0 1 595 341 )" />
  </g>
</svg>