<?xml version="1.0" encoding="utf-8"?>
<svg version="1.1" xmlns:xlink="http://www.w3.org/1999/xlink" width="4px" height="8px" xmlns="http://www.w3.org/2000/svg">
  <g transform="matrix(1 0 0 1 -2084 -12 )">
    <path d="M 2.07875 0.895  C 2.58044464627278 0.863555644730733  3.07526738516499 1.02447360859812  3.4625 1.345  C 3.81128375375391 1.66416639022925  4.00078070444258 2.12143077123887  3.98 2.59375  C 3.99338081904868 2.9746652448284  3.87995067327129 3.34924851693046  3.6575 3.65875  C 3.42127849338513 3.90094536568355  3.17083463296929 4.12884927866197  2.9075 4.34125  C 2.75505809763906 4.46459458617209  2.62774814350283 4.61609343159421  2.5325 4.7875  C 2.43704518096599 4.96744908148607  2.38927699350014 5.16885008809884  2.39375 5.3725  L 2.39375 5.5225  L 1.47875 5.5225  L 1.47875 5.3725  C 1.46875856685682 5.08719413788874  1.52524602028634 4.80347306498139  1.64375 4.54375  C 1.91827602975312 4.13314552174587  2.25476794141176 3.76755844479343  2.64125 3.46  L 2.79125 3.295  C 2.93979679096299 3.11531399090057  3.02307472787698 2.89059574843425  3.0275 2.6575  C 3.03957169928841 2.39456950441247  2.94801272783391 2.13739651106231  2.7725 1.94125  C 2.56988367507544 1.75325716436974  2.29812655684853 1.65814217299032  2.0225 1.67875  C 1.69112355991185 1.64969646762211  1.36767523679752 1.79094027684234  1.16375 2.05375  C 0.990123698620518 2.32047566760739  0.907263062891464 2.6361352322895  0.927499999999999 2.95375  L 0.0199999999999996 2.95375  C -0.00900614274557876 2.39802470085262  0.193244579488775 1.85506974183422  0.578749999999999 1.45375  C 0.981035522713357 1.06978454603221  1.5233017595549 0.867790372808739  2.07875 0.895  Z M 1.94375 6.0025  C 2.1140638298492 5.99359743525516  2.28064177249513 6.05454058500368  2.405 6.17125  C 2.53094031674144 6.28746839208779  2.5983375943867 6.45389840423222  2.58875 6.625  C 2.59248169108289 6.79507894120202  2.52602288367727 6.95919150642812  2.405 7.07875  C 2.277485736053 7.19356820672094  2.11158381182425 7.25645038767861  1.94 7.255  C 1.59311655124895 7.2509955993194  1.31231296751741 6.97185357525492  1.30625 6.625  C 1.29866718425874 6.45487817005549  1.36907880194276 6.29058439545944  1.4975 6.17875  C 1.6142072920062 6.05889696154776  1.77664177506507 5.99474216571779  1.94375 6.0025  Z " fill-rule="nonzero" fill="#999999" stroke="none" transform="matrix(1 0 0 1 2084 12 )" />
  </g>
</svg>