<?xml version="1.0" encoding="utf-8"?>
<svg version="1.1" xmlns:xlink="http://www.w3.org/1999/xlink" width="12px" height="12px" xmlns="http://www.w3.org/2000/svg">
  <g transform="matrix(1 0 0 1 -2080 -10 )">
    <path d="M 12 6  C 12 9.31370849898476  9.31370849898476 12  6 12  C 2.68629150101524 12  0 9.31370849898476  0 6  C 0 2.68629150101524  2.68629150101524 0  6 0  C 9.31370849898476 0  12 2.68629150101524  12 6  Z M 11.25 6  C 11.25 3.10050506338833  8.89949493661167 0.75  6 0.75  C 3.10050506338833 0.75  0.75 3.10050506338833  0.75 6  C 0.75 8.89949493661167  3.10050506338833 11.25  6 11.25  C 8.89949493661167 11.25  11.25 8.89949493661167  11.25 6  Z " fill-rule="nonzero" fill="#999999" stroke="none" transform="matrix(1 0 0 1 2080 10 )" />
  </g>
</svg>