<?xml version="1.0" encoding="utf-8"?>
<svg version="1.1" xmlns:xlink="http://www.w3.org/1999/xlink" width="16px" height="14px" xmlns="http://www.w3.org/2000/svg">
  <g transform="matrix(1 0 0 1 -127 -346 )">
    <path d="M 5.9834375 8.56517333984375  C 5.91536458333333 8.59901123046875  5.84565972222222 8.6151611328125  5.76104166666667 8.6151611328125  C 5.57180555555556 8.6151611328125  5.41744791666667 8.515185546875  5.33111111111111 8.36522216796875  L 5.29628472222222 8.29918701171875  L 3.94027777777778 5.429580078125  C 3.92368055555556 5.3957421875  3.92368055555556 5.36352783203125  3.92368055555556 5.32968994140625  C 3.92368055555556 5.19587646484375  4.02659722222222 5.09590087890625  4.16435763888889 5.09590087890625  C 4.21583333333333 5.09590087890625  4.26727430555556 5.11203369140625  4.31875 5.14587158203125  L 5.91536458333333 6.24697021484375  C 6.03487847222222 6.31300537109375  6.17265625 6.36301025390625  6.32696180555556 6.36301025390625  C 6.41328125 6.36301025390625  6.49796875 6.3468603515625  6.58428819444444 6.31300537109375  L 14.0713541666667 3.07752197265625  C 12.7319618055556 1.54278564453125  10.5178125 0.54166259765625  8.00998263888889 0.54166259765625  C 3.92368055555556 0.54166259765625  0.592586805555556 3.22746826171875  0.592586805555556 6.54522216796875  C 0.592586805555556 8.34594482421875  1.5884375 9.9805712890625  3.15027777777778 11.081669921875  C 3.26972222222222 11.1654956054687  3.35604166666667 11.315458984375  3.35604166666667 11.4653369140625  C 3.35604166666667 11.5153247070313  3.33942708333333 11.5653125  3.32121527777778 11.6153002929688  C 3.20175347222222 12.0650708007812  2.99428819444445 12.8002075195313  2.99428819444445 12.832490234375  C 2.97765625 12.882392578125  2.95934027777778 12.9485302734375  2.95934027777778 13.0162060546875  C 2.95934027777778 13.15001953125  3.06227430555556 13.2499951171875  3.20005208333333 13.2499951171875  C 3.25149305555556 13.2499951171875  3.30296875 13.2338623046875  3.3378125 13.2000073242187  L 4.95104166666667 12.2827270507812  C 5.07057291666667 12.2165893554688  5.20833333333333 12.1666186523438  5.34611111111111 12.1666186523438  C 5.41409722222222 12.1666186523438  5.50043402777778 12.1827514648437  5.56850694444445 12.2004565429687  C 6.32364583333333 12.4165405273438  7.14857638888889 12.5342211914062  7.99003472222222 12.5342211914062  C 12.0763541666667 12.5342211914062  15.4073958333333 9.84841552734375  15.4073958333333 6.53066162109375  C 15.4073958333333 5.52953857421875  15.0987152777778 4.5799755859375  14.5659548611111 3.7449658203125  L 6.03487847222222 8.531318359375  L 5.9834375 8.56515625  Z " fill-rule="nonzero" fill="#999999" stroke="none" transform="matrix(1 0 0 1 127 346 )" />
  </g>
</svg>