<?xml version="1.0" encoding="utf-8"?>
<svg version="1.1" xmlns:xlink="http://www.w3.org/1999/xlink" width="159px" height="37px" xmlns="http://www.w3.org/2000/svg">
  <defs>
    <filter x="750px" y="108px" width="159px" height="37px" filterUnits="userSpaceOnUse" id="filter689">
      <feOffset dx="2" dy="2" in="SourceAlpha" result="shadowOffsetInner" />
      <feGaussianBlur stdDeviation="0.5" in="shadowOffsetInner" result="shadowGaussian" />
      <feComposite in2="shadowGaussian" operator="atop" in="SourceAlpha" result="shadowComposite" />
      <feColorMatrix type="matrix" values="0 0 0 0 0.6  0 0 0 0 0.6  0 0 0 0 0.6  0 0 0 0.67843137254902 0  " in="shadowComposite" />
    </filter>
    <g id="widget690">
      <path d="M 750.5 112  A 3.5 3.5 0 0 1 754 108.5 L 902 108.5  A 3.5 3.5 0 0 1 905.5 112 L 905.5 138  A 3.5 3.5 0 0 1 902 141.5 L 754 141.5  A 3.5 3.5 0 0 1 750.5 138 L 750.5 112  Z " fill-rule="nonzero" fill="#ffffff" stroke="none" fill-opacity="0.996078431372549" />
      <path d="M 750.5 112  A 3.5 3.5 0 0 1 754 108.5 L 902 108.5  A 3.5 3.5 0 0 1 905.5 112 L 905.5 138  A 3.5 3.5 0 0 1 902 141.5 L 754 141.5  A 3.5 3.5 0 0 1 750.5 138 L 750.5 112  Z " stroke-width="1" stroke="#f2f2f2" fill="none" />
    </g>
  </defs>
  <g transform="matrix(1 0 0 1 -750 -108 )">
    <use xlink:href="#widget690" filter="url(#filter689)" />
    <use xlink:href="#widget690" />
  </g>
</svg>