<?xml version="1.0" encoding="utf-8"?>
<svg version="1.1" xmlns:xlink="http://www.w3.org/1999/xlink" width="12px" height="12px" viewBox="90 119.5  12 12" xmlns="http://www.w3.org/2000/svg">
  <path d="M 90.5 120.5  A 0.5 0.5 0 0 1 91 120 L 101 120  A 0.5 0.5 0 0 1 101.5 120.5 L 101.5 130.5  A 0.5 0.5 0 0 1 101 131 L 91 131  A 0.5 0.5 0 0 1 90.5 130.5 L 90.5 120.5  Z " fill-rule="nonzero" fill="#ffffff" stroke="none" />
  <path d="M 90.5 120.5  A 0.5 0.5 0 0 1 91 120 L 101 120  A 0.5 0.5 0 0 1 101.5 120.5 L 101.5 130.5  A 0.5 0.5 0 0 1 101 131 L 91 131  A 0.5 0.5 0 0 1 90.5 130.5 L 90.5 120.5  Z " stroke-width="1" stroke="#999999" fill="none" />
</svg>