<?xml version="1.0" encoding="utf-8"?>
<svg version="1.1" xmlns:xlink="http://www.w3.org/1999/xlink" width="16px" height="4px" xmlns="http://www.w3.org/2000/svg">
  <g transform="matrix(1 0 0 1 -822 -454 )">
    <path d="M 0.4855348046875 2  C 0.4855348046875 2.94320410103827  1.25015280325861 3.70782209960938  2.19335690429688 3.70782209960938  C 3.13656100533514 3.70782209960938  3.90117900390625 2.94320410103826  3.90117900390625 2  C 3.90117900390625 1.05679589896174  3.13656100533514 0.292177900390625  2.19335690429687 0.292177900390625  C 1.25015280325861 0.292177900390625  0.485534804687499 1.05679589896174  0.485534804687499 2  Z M 12.098821015625 2  C 12.098821015625 2.94320410103826  12.8634390141961 3.70782209960938  13.8066431152344 3.70782209960938  C 14.7498472162726 3.70782209960938  15.5144652148438 2.94320410103826  15.5144652148438 2  C 15.5144652148438 1.05679589896174  14.7498472162726 0.292177900390625  13.8066431152344 0.292177900390625  C 12.8634390141961 0.292177900390625  12.098821015625 1.05679589896174  12.098821015625 2  Z M 6.2922778515625 2  C 6.2922778515625 2.94320410103826  7.05689585013361 3.70782209960938  8.00009995117187 3.70782209960938  C 8.94330405221014 3.70782209960938  9.70792205078125 2.94320410103826  9.70792205078125 2  C 9.70792205078125 1.05679589896174  8.94330405221014 0.292177900390625  8.00009995117187 0.292177900390625  C 7.05689585013361 0.292177900390625  6.2922778515625 1.05679589896174  6.2922778515625 2  Z " fill-rule="nonzero" fill="#666666" stroke="none" transform="matrix(1 0 0 1 822 454 )" />
  </g>
</svg>