<?xml version="1.0" encoding="utf-8"?>
<svg version="1.1" xmlns:xlink="http://www.w3.org/1999/xlink" width="26px" height="28px" xmlns="http://www.w3.org/2000/svg">
  <g transform="matrix(1 0 0 1 -36 -123 )">
    <path d="M 25.733 3.375  C 25.75 1.624  24.322 0.196  22.554 0.196  L 3.446 0.196  C 1.678 0.196  0.25 1.624  0.25 3.375  L 0.25 24.625  C 0.25 26.376  1.678 27.804  3.429 27.804  L 22.554 27.804  C 24.305 27.804  25.733 26.376  25.733 24.625  L 25.733 3.375  Z M 4.5 14.017  C 4.5 13.439  4.976 12.963  5.554 13  L 17.284 13  C 17.879 12.963  18.338 13.439  18.338 14.017  C 18.338 14.612  17.862 15.071  17.284 15  L 5.554 15  C 4.959 15.071  4.5 14.595  4.5 14.017  Z M 6.098 8.73  C 5.214 8.73  4.5 8.016  4.5 7.132  C 4.5 6.248  5.214 5.534  6.098 5.534  C 6.982 5.534  7.696 6.248  7.696 7.132  C 7.696 8.016  6.982 8.73  6.098 8.73  Z M 12.983 8.73  C 12.099 8.73  11.385 8.016  11.385 7.132  C 11.385 6.248  12.099 5.534  12.983 5.534  C 13.867 5.534  14.581 6.248  14.581 7.132  C 14.581 8.016  13.867 8.73  12.983 8.73  Z M 4.5 20.341  C 4.5 19.763  4.959 19.287  5.554 19  L 20.412 19  C 21.007 19.287  21.466 19.763  21.466 20.341  C 21.466 20.919  20.99 21.395  20.412 21  L 5.554 21  C 4.959 21.395  4.5 20.919  4.5 20.341  Z M 21.483 7.132  C 21.483 8.016  20.769 8.73  19.885 8.73  C 19.001 8.73  18.287 8.016  18.287 7.132  C 18.287 6.248  19.001 5.534  19.885 5.534  C 20.769 5.534  21.483 6.248  21.483 7.132  Z " fill-rule="nonzero" fill="#ffffff" stroke="none" transform="matrix(1 0 0 1 36 123 )" />
  </g>
</svg>