<?xml version="1.0" encoding="utf-8"?>
<svg version="1.1" xmlns:xlink="http://www.w3.org/1999/xlink" width="355px" height="55px" xmlns="http://www.w3.org/2000/svg">
  <defs>
    <filter x="576px" y="737px" width="355px" height="55px" filterUnits="userSpaceOnUse" id="filter982">
      <feOffset dx="2" dy="2" in="SourceAlpha" result="shadowOffsetInner" />
      <feGaussianBlur stdDeviation="0.5" in="shadowOffsetInner" result="shadowGaussian" />
      <feComposite in2="shadowGaussian" operator="atop" in="SourceAlpha" result="shadowComposite" />
      <feColorMatrix type="matrix" values="0 0 0 0 0.6  0 0 0 0 0.6  0 0 0 0 0.6  0 0 0 0.67843137254902 0  " in="shadowComposite" />
    </filter>
    <g id="widget983">
      <path d="M 576.5 741  A 3.5 3.5 0 0 1 580 737.5 L 924 737.5  A 3.5 3.5 0 0 1 927.5 741 L 927.5 785  A 3.5 3.5 0 0 1 924 788.5 L 580 788.5  A 3.5 3.5 0 0 1 576.5 785 L 576.5 741  Z " fill-rule="nonzero" fill="#ffffff" stroke="none" fill-opacity="0.996078431372549" />
      <path d="M 576.5 741  A 3.5 3.5 0 0 1 580 737.5 L 924 737.5  A 3.5 3.5 0 0 1 927.5 741 L 927.5 785  A 3.5 3.5 0 0 1 924 788.5 L 580 788.5  A 3.5 3.5 0 0 1 576.5 785 L 576.5 741  Z " stroke-width="1" stroke="#f2f2f2" fill="none" />
    </g>
  </defs>
  <g transform="matrix(1 0 0 1 -576 -737 )">
    <use xlink:href="#widget983" filter="url(#filter982)" />
    <use xlink:href="#widget983" />
  </g>
</svg>