<?xml version="1.0" encoding="utf-8"?>
<svg version="1.1" xmlns:xlink="http://www.w3.org/1999/xlink" width="14px" height="14px" xmlns="http://www.w3.org/2000/svg">
  <g transform="matrix(1 0 0 1 -1359 -42 )">
    <path d="M 14 12  C 14 13.1045694996617  13.1045694996619 14  12 14  L 2 14  C 0.89543050033808 14  0 13.1045694996617  0 12  L 0 2  C 0 0.895430500338307  0.89543050033808 0  2 0  L 12 0  C 13.1045694996619 0  14 0.895430500338307  14 2  L 14 12  Z M 5.88900000000012 10.51  C 5.60999999999967 10.5  5.21900000000005 10.4880000000001  4.7529999999997 10.4559999999999  C 4.8660145343365 10.8862978500906  4.95053122536956 11.3235798602177  5.0059999999994 11.7649999999999  L 5.070999999999 11.7649999999999  C 5.74199999999928 11.7649999999999  6.29599999999937 11.752  6.71499999999924 11.7259999999999  C 7.42199999999957 11.6869999999999  7.77999999999884 11.2069999999999  7.77999999999884 10.3009999999999  L 7.77999999999884 8.30799999999999  L 11.3539999999985 8.30799999999999  L 11.3539999999985 7.09999999999991  L 7.77999999999884 7.09999999999991  L 7.77999999999884 6.28099999999995  L 9.86799999999857 6.28099999999995  L 9.86799999999857 5.55799999999977  C 10.2393902698677 5.74859941104228  10.6213431185324 5.9178739689728  11.0119999999988 6.06500000000005  C 11.1669999999986 5.77400000000011  11.4119999999984 5.35000000000014  11.7439999999979 4.80500000000006  C 10.3385439851527 4.33747315064352  9.04722287203913 3.57937566339297  7.95399999999881 2.58000000000015  L 8.30599999999868 2.24800000000005  L 6.40599999999813 2.24800000000005  C 5.13905857233476 3.42014332916165  3.65243630252098 4.32965434745711  2.03200000000015 4.92399999999975  C 2.31212015403889 5.32551482241206  2.56309671767303 5.74659401040003  2.78299999999945 6.18399999999997  C 3.16099999999915 6.01700000000005  3.54999999999927 5.82899999999995  3.93599999999969 5.62599999999998  L 3.93599999999969 6.28199999999993  L 6.38699999999972 6.28199999999993  L 6.38699999999972 7.10099999999989  L 2.45100000000002 7.10099999999989  L 2.45100000000002 8.3119999999999  L 6.38699999999972 8.3119999999999  L 6.38699999999972 9.98199999999997  C 6.38699999999972 10.3319999999999  6.22599999999966 10.51  5.90999999999985 10.51  L 5.88900000000012 10.51  Z M 11.7039999999997 10.4649999999999  C 11.0519999999997 9.93299999999999  10.1999999999998 9.27500000000009  9.16599999999926 8.51199999999994  L 8.29599999999937 9.39099999999985  C 9.38499999999931 10.2979999999998  10.2129999999997 11.0149999999999  10.7579999999998 11.521  L 11.7039999999997 10.4649999999999  Z M 5.50299999999879 9.37200000000007  L 4.54599999999937 8.50299999999993  C 3.79387777481315 9.23377516648929  2.96584722230091 9.88211973675561  2.07599999999911 10.4369999999999  C 2.41399999999885 10.8009999999999  2.71899999999914 11.1529999999998  2.98299999999927 11.481  C 3.8851057630618 10.8557272083076  4.72856905535718 10.1498287624938  5.50299999999879 9.37200000000007  Z M 9.0739999999987 5.10099999999966  L 9.07699999999932 5.10299999999984  L 4.85899999999856 5.10300000000007  C 5.63660664643703 4.64688951136441  6.36599828034468 4.11316380037897  7.03600000000006 3.50999999999976  C 7.65658641874324 4.11156932804215  8.33981588811275 4.64494424745772  9.0739999999987 5.10099999999966  Z " fill-rule="nonzero" fill="#999999" stroke="none" transform="matrix(1 0 0 1 1359 42 )" />
  </g>
</svg>