<?xml version="1.0" encoding="utf-8"?>
<svg version="1.1" xmlns:xlink="http://www.w3.org/1999/xlink" width="16px" height="16px" xmlns="http://www.w3.org/2000/svg">
  <g transform="matrix(1 0 0 1 -151 -184 )">
    <path d="M 16 14  C 16 15.1045694996615  15.104569499661 16  14 16  L 2 16  C 0.895430500338989 16  0 15.1045694996615  0 14  L 0 2  C 0 0.895430500338534  0.895430500338989 0  2 0  L 14 0  C 15.104569499661 0  16 0.895430500338534  16 2  L 16 14  Z M 12.2309999999998 6.56500000000051  L 11.0310000000027 6.56500000000051  C 10.8054914572567 6.57260463555212  10.6276017165437 6.75938886330414  10.6309999999976 6.98500000000013  L 10.6309999999976 12.9110000000001  L 12.6309999999976 12.9110000000001  L 12.6309999999976 6.98500000000058  C 12.6313335002014 6.97833844315028  12.6315003285563 6.97166958679236  12.6315003285563 6.96499968708895  C 12.6315003285563 6.74408578715702  12.4524142284863 6.56499968708886  12.2315003285548 6.56499968708886  Z M 9.68799999999101 8.73099999999977  L 8.48799999999756 8.73099999999977  C 8.25988819562554 8.74336236013323  8.08280469609963 8.93461253961868  8.0879999999961 9.16300000000001  L 8.0879999999961 12.9119999999998  L 10.0879999999961 12.9119999999998  L 10.0879999999925 9.16299999999956  C 10.0931953038889 8.93461253961868  9.91611180436303 8.7433623601346  9.68799999999101 8.73099999999977  Z M 7.14499999999316 3.99800000000005  L 5.94499999999607 3.99800000000005  C 5.71546885094358 4.01245393525278  5.53862066427246 4.20610269965755  5.54499999999462 4.43600000000015  L 5.54499999999462 12.9120000000003  L 7.54499999999462 12.9120000000003  L 7.54499999999462 4.43600000000015  C 7.55243978517319 4.20570954706182  7.37501866516686 4.01143342065279  7.14499999999316 3.99800000000005  Z M 4.5989999999947 6.56500000000005  L 3.39399999999659 6.56500000000005  C 3.17139809750734 6.5772625784407  2.99759580284808 6.76206501832894  2.99899999999616 6.98500000000013  L 2.99899999999616 12.9110000000001  L 4.99899999999616 12.9110000000001  L 4.99899999999616 6.98500000000058  C 4.99916189562646 6.98032147660479  4.9992428616024 6.97564050309848  4.9992428616024 6.97095917942261  C 4.9992428616024 6.74897666133757  4.82096019922756 6.56814774403256  4.5989999999947 6.56500000000005  Z " fill-rule="nonzero" fill="#fd9827" stroke="none" transform="matrix(1 0 0 1 151 184 )" />
  </g>
</svg>