<?xml version="1.0" encoding="utf-8"?>
<svg version="1.1" xmlns:xlink="http://www.w3.org/1999/xlink" width="24px" height="24px" xmlns="http://www.w3.org/2000/svg">
  <defs>
    <mask fill="white" id="clip683">
      <path d="M 0 22  L 0 2  C 0 0.88  0.879999999999999 0  2 0  L 24 0  L 24 24  L 2 24  C 0.879999999999999 24  0 23.12  0 22  Z " fill-rule="evenodd" />
    </mask>
  </defs>
  <g>
    <path d="M 0 22  L 0 2  C 0 0.88  0.879999999999999 0  2 0  L 24 0  L 24 24  L 2 24  C 0.879999999999999 24  0 23.12  0 22  Z " fill-rule="nonzero" fill="#ffffff" stroke="none" />
    <path d="M 0 22  L 0 2  C 0 0.88  0.879999999999999 0  2 0  L 24 0  L 24 24  L 2 24  C 0.879999999999999 24  0 23.12  0 22  Z " stroke-width="2" stroke="#dddddd" fill="none" mask="url(#clip683)" />
  </g>
</svg>