<?xml version="1.0" encoding="utf-8"?>
<svg version="1.1" xmlns:xlink="http://www.w3.org/1999/xlink" width="112px" height="56px" xmlns="http://www.w3.org/2000/svg">
  <g transform="matrix(1 0 0 1 -200 -38 )">
    <path d="M 110 53.9168792517007  L 0 54.6460459183673  L 0 1.25334775214441  C -0.0274035334568176 1.70859328050335  0.402060313231725 2.06688093446576  0.923454469507071 2.066408976634  C 1.46170078727375 2.066408976634  1.89803563969446 1.6850366251148  1.89803563969446 1.2145899881691  C 1.89797098332352 1.18613321650109  1.89618174444539 1.1576994143178  1.89267544325851 1.12940808932269  L 1.90290854554544 1.12940808932269  C 1.95295965519719 0.694136211657958  2.37210571300918 0.362765503885415  2.87261680988185 0.362770999704196  C 3.37312790675428 0.362765503885415  3.7922739645665 0.694136211657958  3.84232507421826 1.12940808932269  L 3.8520708859201 1.12940808932269  C 3.84914714240958 1.15666629695371  3.84719798006901 1.18605405205551  3.84719798006901 1.2145899881691  C 3.84719798006901 1.6850366251148  4.28353283248972 2.066408976634  4.8217791502564 2.066408976634  C 5.36002546802307 2.066408976634  5.79636032044378 1.6850366251148  5.79636032044356 1.2145899881691  C 5.79629566407262 1.18613321650109  5.79450642519449 1.1576994143178  5.79100012400772 1.12940808932269  L 5.80123322629488 1.12940808932269  C 5.8512843359464 0.694136211657958  6.27043039375851 0.362765503885415  6.77094149063106 0.362770999704196  C 7.2714525875035 0.362765503885415  7.69059864531583 0.694136211657958  7.74064975496747 1.12940808932269  L 7.75088285725451 1.12940808932269  C 7.74730847952473 1.1576945273386  7.7455190380818 1.18613154859444  7.74552266081856 1.2145899881691  C 7.74552266081856 1.6850366251148  8.18185751323916 2.066408976634  8.72010383100583 2.066408976634  C 9.25835014877262 2.066408976634  9.69468500119322 1.6850366251148  9.694685001193 1.2145899881691  C 9.69462034482228 1.18613321650109  9.69283110594405 1.1576994143178  9.68932480475727 1.12940808932269  L 9.70004519762929 1.12940808932269  C 9.75031082333331 0.694467081632174  10.1691102641679 0.363387975331655  10.6692661713808 0.363196909198429  C 11.1697772682533 0.363191413379778  11.5889233260655 0.694562121152451  11.6389744357171 1.12983399881692  L 11.6492075380041 1.12983399881692  C 11.6456331602747 1.15812043683257  11.6438437188317 1.18655745808919  11.6438473415682 1.21501589766346  C 11.6438473415682 1.68546253460903  12.0801821939889 2.06683488612837  12.6184285117556 2.06683488612837  C 13.1566748295222 2.06683488612837  13.593009681943 1.68546253460903  13.593009681943 1.21501589766346  C 13.593009681943 1.18605405205551  13.593009681943 1.15666629695371  13.5881367760919 1.12983399881692  L 13.5983698783791 1.12983399881692  C 13.6484209880306 0.694562121152451  14.0675670458427 0.363191413379778  14.5680781427152 0.363196909198429  C 15.0685892395877 0.363191413379778  15.4877352974 0.694562121152451  15.5377864070517 1.12983399881692  L 15.5475322187535 1.12983399881692  C 15.544608475243 1.15709220644807  15.5426593129024 1.18647996154974  15.5426593129024 1.21501589766346  C 15.5426593129024 1.68546253460903  15.9789941653231 2.06683488612837  16.5172404830899 2.06683488612837  C 17.0554868008565 2.06683488612837  17.4918216532772 1.68546253460903  17.4918216532772 1.21501589766346  C 17.4918216532772 1.18605405205551  17.4918216532772 1.15666629695371  17.4869487474261 1.12983399881692  L 17.4971818497133 1.12983399881692  C 17.5472329593648 0.694562121152451  17.9663790171769 0.363191413379778  18.4668901140495 0.363196909198429  C 18.967401210922 0.363191413379778  19.3865472687342 0.694562121152451  19.4365983783858 1.12983399881692  L 19.4458568995025 1.12983399881692  C 19.4458568995025 1.15070356403432  19.4419585748218 1.17242494824032  19.4414712842366 1.19584997042286  C 19.4414712842366 1.20309043182482  19.4414712842366 1.20990498373267  19.4414712842366 1.21671953564026  C 19.4414712842366 1.22353408754786  19.4414712842366 1.2307745489502  19.4414712842366 1.2380150103519  C 19.4546930885252 1.70012473307223  19.8871792754408 2.06868300055583  20.4160524544241 2.0685385241053  C 20.9449256334073 2.06868300055583  21.3774118203229 1.70012473307223  21.3906336246114 1.2380150103519  C 21.3906336246114 1.23091651878148  21.3906336246114 1.22381802721068  21.3906336246114 1.21671953564026  C 21.3906336246114 1.20962104406946  21.3906336246114 1.20280649216186  21.3906336246114 1.19627587991722  C 21.3906336246114 1.17412858621725  21.3906336246114 1.15368493049382  21.3857607187604 1.12983399881692  L 21.3955065304622 1.12983399881692  C 21.4455201106999 0.694886355776182  21.8641022166031 0.363628577697952  22.3642402136293 0.363196909198429  C 22.8647513105017 0.363191413379778  23.283897368314 0.694562121152451  23.3339484779657 1.12983399881692  L 23.3436942896675 1.12983399881692  C 23.3410954065471 1.15112947352869  23.3394711045969 1.17313479739712  23.3388213838164 1.19584997042286  C 23.3388213838164 1.20266452233058  23.3388213838164 1.20990498373267  23.3388213838164 1.21671953564026  C 23.3388213838164 1.22353408754786  23.3388213838164 1.2307745489502  23.3388213838164 1.2380150103519  C 23.3520431881051 1.70012473307223  23.7845293750206 2.06868300055583  24.3134025540039 2.0685385241053  C 24.8516488717705 2.0685385241053  25.2879837241912 1.68716617258596  25.287983724191 1.21671953564026  C 25.28791906782 1.18826276397238  25.2861298289419 1.15982896178897  25.2826235277551 1.13153763679385  L 25.2928566300423 1.13153763679385  C 25.342907739694 0.696265759129642  25.7620537975063 0.364895051356709  26.2625648943786 0.36490054717549  C 26.7630759912511 0.364895051356709  27.182222049063 0.696265759129252  27.2322731587149 1.13153763679385  L 27.2420189704167 1.13153763679385  C 27.2390952269062 1.15879584442487  27.2371460645656 1.18818359952667  27.2371460645656 1.21671953564026  C 27.2371460645656 1.68716617258596  27.6734809169865 2.0685385241053  28.2117272347531 2.0685385241053  C 28.7499735525197 2.0685385241053  29.1863084049404 1.68716617258596  29.1863084049404 1.21671953564026  C 29.1862437485695 1.18826276397238  29.1844545096914 1.15982896178897  29.1809482085045 1.13153763679385  L 29.1911813107915 1.13153763679385  C 29.2412324204434 0.696265759129642  29.6603784782555 0.364895051356709  30.1608895751278 0.36490054717549  C 30.6614006720005 0.364895051356709  31.0805467298123 0.696265759129252  31.1305978394642 1.13153763679385  L 31.1403436511661 1.13153763679385  C 31.1374199076555 1.15879584442487  31.1354707453151 1.18818359952667  31.1354707453151 1.21671953564026  C 31.1354707453151 1.68716617258596  31.5718055977357 2.0685385241053  32.1100519155024 2.0685385241053  C 32.648298233269 2.0685385241053  33.0846330856897 1.68716617258596  33.0846330856897 1.21671953564026  C 33.0846330856897 1.18775769003244  33.0846330856897 1.15836993493064  33.0797601798388 1.13153763679385  L 33.0895059915406 1.13153763679385  C 33.1395571011925 0.696265759129642  33.5587031590046 0.364895051356709  34.0592142558769 0.36490054717549  C 34.5599118684905 0.364676241193725  34.9793401087286 0.696103491884609  35.0294098107984 1.13153763679385  L 35.038668331915 1.13153763679385  C 35.038668331915 1.15240720201125  35.0347700072345 1.17412858621725  35.0342827166493 1.19755360839979  C 35.0342827166493 1.20479406980162  35.0342827166493 1.21160862170973  35.0342827166493 1.21842317361719  C 35.0342827166493 1.22523772552466  35.0342827166493 1.232478186927  35.0342827166493 1.23971864832883  C 35.047504520938 1.70182837104864  35.4799907078533 2.07038663853276  36.0088638868367 2.0702421620821  C 36.5471102046033 2.0702421620821  36.9834450570239 1.68886981056289  36.9834450570239 1.21842317361719  C 36.9833804006531 1.18996640194919  36.981591161775 1.1615325997659  36.978084860588 1.13324127477065  L 36.988317962875 1.13324127477065  C 37.0383690725267 0.697969397106052  37.4575151303388 0.36659868933351  37.9580262272114 0.36660418515216  C 38.4585373240837 0.36659868933351  38.8776833818961 0.697969397106052  38.9277344915476 1.13324127477065  L 38.9374803032496 1.13324127477065  C 38.9345565597391 1.16049948240181  38.9326073973985 1.1898872375036  38.9326073973985 1.21842317361719  C 38.9326073973985 1.68886981056289  39.3689422498192 2.0702421620821  39.9071885675859 2.0702421620821  C 40.4454348853525 2.0702421620821  40.8817697377733 1.68886981056289  40.8817697377733 1.21842317361719  C 40.8817050814021 1.18996640194919  40.8799158425241 1.16153259976551  40.8764095413372 1.13324127477065  L 40.8866426436242 1.13324127477065  C 40.936693753276 0.697969397106052  41.355839811088 0.36659868933351  41.8563509079606 0.36660418515216  C 42.3568620048331 0.36659868933351  42.7760080626453 0.697969397106052  42.8260591722971 1.13324127477065  L 42.8362922745839 1.13324127477065  C 42.8327178968543 1.1615277127863  42.8309284554113 1.18996473404292  42.8309320781479 1.21842317361719  C 42.8309320781479 1.68886981056289  43.2672669305687 2.0702421620821  43.8055132483354 2.0702421620821  C 44.343759566102 2.0702421620821  44.7800944185227 1.68886981056289  44.7800944185226 1.21842317361719  C 44.7800297621515 1.18996640194919  44.7782405232736 1.1615325997659  44.7747342220867 1.13324127477065  L 44.7854546149588 1.13324127477065  C 44.8335972830173 0.69694443026736  45.2526976665728 0.363802417582247  45.7541882981262 0.363196909198429  C 46.2546993949987 0.363191413379778  46.673845452811 0.694562121152451  46.7238965624626 1.12983399881692  L 46.7341296647497 1.12983399881692  C 46.73055528702 1.15812043683257  46.7287658455771 1.18655745808919  46.7287694683136 1.21501589766346  C 46.7287694683136 1.68546253460903  47.1651043207343 2.06683488612837  47.703350638501 2.06683488612837  C 48.2415969562677 2.06683488612837  48.6779318086884 1.68546253460903  48.6779318086884 1.21501589766346  C 48.6779318086884 1.18605405205551  48.6779318086884 1.15666629695371  48.6730589028374 1.12983399881692  L 48.6832920051244 1.12983399881692  C 48.7333431147761 0.694562121152451  49.1524891725881 0.363191413379778  49.6530002694608 0.363196909198429  C 50.1535113663331 0.363191413379778  50.5726574241454 0.694562121152451  50.6227085337971 1.12983399881692  L 50.632454345499 1.12983399881692  C 50.6295306019885 1.15709220644807  50.6275814396479 1.18647996154974  50.6275814396479 1.21501589766346  C 50.6275814396479 1.68546253460903  51.0639162920686 2.06683488612837  51.6021626098352 2.06683488612837  C 52.140408927602 2.06683488612837  52.5767437800227 1.68546253460903  52.5767437800227 1.21501589766346  C 52.5767437800227 1.18605405205551  52.5767437800227 1.15666629695371  52.5718708741716 1.12983399881692  L 52.5821039764586 1.12983399881692  C 52.6321550861103 0.694562121152451  53.0513011439224 0.363191413379778  53.5518122407949 0.363196909198429  C 54.0523233376674 0.363191413379778  54.4714693954797 0.694562121152451  54.5215205051312 1.12983399881692  L 54.530779026248 1.12983399881692  C 54.530779026248 1.15070356403432  54.5268807015673 1.17242494824032  54.5263934109821 1.19584997042286  C 54.5263934109821 1.20309043182482  54.5263934109821 1.20990498373267  54.5263934109821 1.21671953564026  C 54.5263934109821 1.22353408754786  54.5263934109821 1.2307745489502  54.5263934109821 1.2380150103519  C 54.5396152152707 1.70012473307223  54.9721014021863 2.06868300055583  55.5009745811695 2.0685385241053  C 56.0298477601527 2.06868300055583  56.4623339470684 1.70012473307223  56.4755557513569 1.2380150103519  C 56.4755557513569 1.23091651878148  56.4755557513569 1.22381802721068  56.4755557513569 1.21671953564026  C 56.4755557513569 1.20962104406946  56.4755557513569 1.20280649216186  56.4755557513569 1.19627587991722  C 56.4755557513569 1.17412858621725  56.4755557513569 1.15368493049382  56.4706828455058 1.12983399881692  L 56.4804286572076 1.12983399881692  C 56.5304422374454 0.694886355776182  56.9490243433484 0.363628577697952  57.4491623403748 0.363196909198429  C 57.9496734372471 0.363191413379778  58.3688194950594 0.694562121152451  58.4188706047111 1.12983399881692  L 58.428616416413 1.12983399881692  C 58.4260175332926 1.15112947352869  58.4243932313423 1.17313479739712  58.4237435105619 1.19584997042286  C 58.4237435105619 1.20266452233058  58.4237435105619 1.20990498373267  58.4237435105619 1.21671953564026  C 58.4237435105619 1.22353408754786  58.4237435105619 1.2307745489502  58.4237435105619 1.2380150103519  C 58.4369653148505 1.70012473307223  58.8694515017659 2.06868300055583  59.3983246807492 2.0685385241053  C 59.936570998516 2.0685385241053  60.3729058509367 1.68716617258596  60.3729058509367 1.21671953564026  C 60.3728986935786 1.18826135523679  60.3711092846392 1.15982485051705  60.3675456545006 1.13153763679385  L 60.3777787567877 1.13153763679385  C 60.4278298664396 0.696265759129642  60.8469759242516 0.364895051356709  61.347487021124 0.36490054717549  C 61.8479981179967 0.364895051356709  62.2671441758085 0.696265759129252  62.3171952854604 1.13153763679385  L 62.3269410971622 1.13153763679385  C 62.3240173536517 1.15836993493064  62.3220681913111 1.18818359952667  62.3220681913111 1.21671953564026  C 62.3220681913111 1.68716617258596  62.7584030437319 2.0685385241053  63.2966493614985 2.0685385241053  C 63.8348956792652 2.0685385241053  64.2712305316859 1.68716617258596  64.2712305316859 1.21671953564026  C 64.271165875315 1.18826276397238  64.2693766364366 1.15982896178897  64.2658703352499 1.13153763679385  L 64.276103437537 1.13153763679385  C 64.3261545471888 0.696265759129642  64.7453006050009 0.364895051356709  65.2458117018733 0.36490054717549  C 65.7463227987459 0.364895051356709  66.1654688565577 0.696265759129252  66.2155199662096 1.13153763679385  L 66.2252657779114 1.13153763679385  C 66.2223420344009 1.15879584442487  66.2203928720604 1.18818359952667  66.2203928720604 1.21671953564026  C 66.2203928720604 1.68716617258596  66.6567277244812 2.0685385241053  67.1949740422479 2.0685385241053  C 67.7332203600144 2.0685385241053  68.1695552124351 1.68716617258596  68.1695552124351 1.21671953564026  C 68.1695552124351 1.18775769003244  68.1695552124351 1.15836993493064  68.1646823065842 1.13153763679385  L 68.174428118286 1.13153763679385  C 68.2244792279379 0.696265759129642  68.6436252857499 0.364895051356709  69.1441363826223 0.36490054717549  C 69.6448339952359 0.364676241193725  70.064262235474 0.696103491884609  70.1143319375439 1.13153763679385  L 70.1235904586606 1.13153763679385  C 70.1235904586606 1.15240720201125  70.1196921339799 1.17412858621725  70.1192048433947 1.19755360839979  C 70.1192048433947 1.20479406980162  70.1192048433947 1.21160862170973  70.1192048433947 1.21842317361719  C 70.1192048433947 1.22523772552466  70.1192048433947 1.232478186927  70.1192048433947 1.23971864832883  C 70.1324266476835 1.70182837104864  70.5649128345987 2.07038663853276  71.093786013582 2.0702421620821  C 71.6320323313487 2.0702421620821  72.0683671837694 1.68886981056289  72.0683671837694 1.21842317361719  C 72.0683025273984 1.18996640194919  72.0665132885205 1.1615325997659  72.0630069873334 1.13324127477065  L 72.0732400896205 1.13324127477065  C 72.1232911992721 0.697969397106052  72.5424372570842 0.36659868933351  73.0429483539567 0.36660418515216  C 73.5434594508291 0.36659868933351  73.9626055086415 0.697969397106052  74.0126566182931 1.13324127477065  L 74.022402429995 1.13324127477065  C 74.0194786864846 1.16007357290744  74.017529524144 1.1898872375036  74.017529524144 1.21842317361719  C 74.017529524144 1.68886981056289  74.4538643765646 2.0702421620821  74.9921106943314 2.0702421620821  C 75.5303570120981 2.0702421620821  75.9666918645187 1.68886981056289  75.9666918645184 1.21842317361719  C 75.9666272081475 1.18996640194919  75.9648379692695 1.1615325997659  75.9613316680827 1.13324127477065  L 75.9715647703697 1.13324127477065  C 76.0216158800214 0.697969397106052  76.4407619378335 0.36659868933351  76.9412730347061 0.36660418515216  C 77.4417841315785 0.36659868933351  77.8609301893908 0.697969397106052  77.9109812990423 1.13324127477065  L 77.9212144013292 1.13324127477065  C 77.9176400235997 1.1615277127863  77.9158505821567 1.18996473404292  77.9158542048934 1.21842317361719  C 77.9158542048934 1.68886981056289  78.3521890573141 2.0702421620821  78.8904353750808 2.0702421620821  C 79.4286816928475 2.0702421620821  79.8650165452682 1.68886981056289  79.8650165452679 1.21842317361719  C 79.864951888897 1.18996640194919  79.8631626500189 1.1615325997659  79.8596563488321 1.13324127477065  L 79.8703767417041 1.13324127477065  C 79.9185194097628 0.69694443026736  80.3376197933184 0.363802417582247  80.8391104248716 0.363196909198429  C 81.3396215217441 0.363191413379778  81.7587675795564 0.694562121152451  81.808818689208 1.12983399881692  L 81.8190517914953 1.12983399881653  C 81.8156460667975 1.15812868546181  81.8140193193157 1.18656540139003  81.814178885644 1.21501589766346  C 81.814178885644 1.68546253460903  82.2505137380647 2.06683488612837  82.7887600558315 2.06683488612837  C 83.3270063735981 2.06683488612837  83.7633412260188 1.68546253460903  83.7633412260188 1.21501589766346  C 83.7633412260188 1.18605405205551  83.7633412260188 1.15666629695371  83.7584683201677 1.12983399881692  L 83.7687014224548 1.12983399881692  C 83.8187525321064 0.694562121152451  84.2378985899185 0.363191413379778  84.7384096867911 0.363196909198429  C 85.2389207836636 0.363191413379778  85.6580668414758 0.694562121152451  85.7081179511274 1.12983399881692  L 85.7178637628293 1.12983399881692  C 85.7149400193188 1.15709220644807  85.7129908569783 1.18647996154974  85.7129908569783 1.21501589766346  C 85.7129908569783 1.68546253460903  86.149325709399 2.06683488612837  86.6875720271657 2.06683488612837  C 87.2258183449322 2.06683488612837  87.6621531973531 1.68546253460903  87.6621531973531 1.21501589766346  C 87.6621531973531 1.18605405205551  87.6621531973531 1.15666629695371  87.657280291502 1.12983399881692  L 87.667513393789 1.12983399881692  C 87.7175645034407 0.694562121152451  88.1367105612528 0.363191413379778  88.6372216581253 0.363196909198429  C 89.1377327549978 0.363191413379778  89.5568788128101 0.694562121152451  89.6069299224617 1.12983399881692  L 89.6166757341636 1.12983399881692  C 89.6140768510432 1.15112947352869  89.612452549093 1.17313479739712  89.6118028283125 1.19584997042286  C 89.6118028283125 1.20266452233058  89.6118028283125 1.20990498373267  89.6118028283125 1.21671953564026  C 89.6118028283125 1.22353408754786  89.6118028283125 1.2307745489502  89.6118028283125 1.2380150103519  C 89.6250246326011 1.70012473307223  90.0575108195167 2.06868300055583  90.5863839984999 2.0685385241053  C 91.1152571774832 2.06868300055583  91.5477433643986 1.70012473307223  91.5609651686872 1.2380150103519  C 91.5609651686875 1.23091651878148  91.5609651686875 1.22381802721068  91.5609651686872 1.21671953564026  C 91.5609651686872 1.20990498373267  91.5609651686872 1.20309043182482  91.5609651686872 1.19627587991722  C 91.5609651686872 1.17412858621725  91.5609651686872 1.15368493049382  91.5560922628362 1.12983399881692  L 91.5658380745381 1.12983399881692  C 91.6158327180083 0.695048323293352  92.0341330540908 0.363846932100256  92.5340844671202 0.363196909198429  C 93.0345955639925 0.363191413379778  93.4537416218048 0.694562121152451  93.5037927314565 1.12983399881692  L 93.5135385431583 1.12983399881692  C 93.5109396600379 1.15112947352869  93.5093153580878 1.17313479739712  93.5086656373072 1.19584997042286  C 93.5086656373072 1.20266452233058  93.5086656373072 1.20990498373267  93.5086656373072 1.21671953564026  C 93.5086656373072 1.22353408754786  93.5086656373072 1.2307745489502  93.5086656373072 1.2380150103519  C 93.5218874415959 1.70012473307223  93.9543736285114 2.06868300055583  94.4832468074947 2.0685385241053  C 95.0214931252613 2.0685385241053  95.457827977682 1.68716617258596  95.4578279776819 1.21671953564026  C 95.4577633213108 1.18826276397238  95.4559740824329 1.15982896178897  95.452467781246 1.13153763679385  L 95.4627008835331 1.13153763679385  C 95.5127519931849 0.696265759129642  95.9318980509971 0.364895051356709  96.4324091478695 0.36490054717549  C 96.932920244742 0.364895051356709  97.3520663025539 0.696265759129252  97.4021174122058 1.13153763679385  L 97.4118632239076 1.13153763679385  C 97.4089394803971 1.15879584442487  97.4069903180567 1.18818359952667  97.4069903180567 1.21671953564026  C 97.4069903180567 1.68716617258596  97.8433251704773 2.0685385241053  98.3815714882439 2.0685385241053  C 98.9198178060107 2.0685385241053  99.3561526584313 1.68716617258596  99.3561526584313 1.21671953564026  C 99.3560880020604 1.18826276397238  99.3542987631821 1.15982896178897  99.3507924619954 1.13153763679385  L 99.3610255642824 1.13153763679385  C 99.4110766739343 0.696265759129642  99.8302227317463 0.364895051356709  100.330733828619 0.36490054717549  C 100.831244925491 0.364895051356709  101.250390983303 0.696265759129252  101.300442092955 1.13153763679385  L 101.310187904657 1.13153763679385  C 101.307264161146 1.15879584442487  101.305314998806 1.18818359952667  101.305314998806 1.21671953564026  C 101.305314998806 1.68716617258596  101.741649851227 2.0685385241053  102.279896168993 2.0685385241053  C 102.81814248676 2.0685385241053  103.254477339181 1.68716617258596  103.254477339181 1.21671953564026  C 103.254477339181 1.18775769003244  103.254477339181 1.15836993493064  103.24960443333 1.13153763679385  L 103.259350245031 1.13153763679385  C 103.309401354683 0.696265759129642  103.728547412495 0.364895051356709  104.229058509368 0.36490054717549  C 104.729756121981 0.364676241193725  105.149184362219 0.696103491884609  105.199254064289 1.13153763679385  L 105.208512585406 1.13153763679385  C 105.208512585406 1.15240720201125  105.204614260725 1.17412858621725  105.20412697014 1.19755360839979  C 105.20412697014 1.20479406980162  105.20412697014 1.21160862170973  105.20412697014 1.21842317361719  C 105.20412697014 1.22523772552466  105.20412697014 1.232478186927  105.20412697014 1.23971864832883  C 105.217348774429 1.70182837104864  105.649834961344 2.07038663853276  106.178708140327 2.0702421620821  C 106.716954458094 2.0702421620821  107.153289310515 1.68886981056289  107.153289310515 1.21842317361719  C 107.153224654144 1.18996640194919  107.151435415266 1.1615325997659  107.147929114079 1.13324127477065  L 107.158162216366 1.13324127477065  C 107.208213326018 0.697969397106052  107.62735938383 0.36659868933351  108.127870480702 0.36660418515216  C 108.628381577575 0.36659868933351  109.047527635387 0.697969397106052  109.097578745039 1.13324127477065  L 109.10732455674 1.13324127477065  C 109.10440081323 1.16049948240181  109.102451650889 1.1898872375036  109.102451650889 1.21842317361719  C 109.102451650889 1.68886981056289  109.53878650331 2.0702421620821  110.077032821077 2.07024216208184  C 110.248089555911 2.07052598028396  110.416194497889 2.03129573321479  110 1.95652432712222  L 110 53.9168792517007  Z " fill-rule="nonzero" fill="#0070cc" stroke="none" transform="matrix(1 0 0 1 200 38 )" />
  </g>
</svg>