<?xml version="1.0" encoding="utf-8"?>
<svg version="1.1" xmlns:xlink="http://www.w3.org/1999/xlink" width="24px" height="24px" xmlns="http://www.w3.org/2000/svg">
  <g transform="matrix(1 0 0 1 -2770 -679 )">
    <path d="M 23.52 11.6136774193548  C 23.5127469508878 18.0243000573841  18.3177194122228 23.219327596049  11.9070967741936 23.2265806451612  C 5.49346742131985 23.2265806451612  0.294193548387126 18.0273067722285  0.294193548387126 11.6136774193548  C 0.294193548387126 5.20004806648107  5.49346742131985 0.000774193548346786  11.9070967741936 0.000774193548346786  C 18.3207261270673 0.000774193548346786  23.52 5.20004806648107  23.52 11.6136774193548  Z M 11.9070967741936 1.66683870967738  C 6.41360944581213 1.66683870967738  1.96025806451616 6.12019009097335  1.96025806451616 11.6136774193548  C 1.96025806451616 17.1071647477362  6.41360944581213 21.5605161290322  11.9070967741936 21.5605161290322  C 17.400584102575 21.5605161290322  21.853935483871 17.1071647477362  21.853935483871 11.6136774193548  C 21.848388499744 6.12236400048636  17.3984097447078 1.672038889694  11.9070967741936 1.666064516129  Z " fill-rule="nonzero" fill="#54bd58" stroke="none" transform="matrix(1 0 0 1 2770 679 )" />
  </g>
</svg>