<?xml version="1.0" encoding="utf-8"?>
<svg version="1.1" xmlns:xlink="http://www.w3.org/1999/xlink" width="30px" height="30px" xmlns="http://www.w3.org/2000/svg">
  <g transform="matrix(1 0 0 1 -278 -23 )">
    <path d="M 29.4 14.5170967741935  C 29.3909336886097 22.5303750717301  22.8971492652786 29.0241594950613  14.883870967742 29.0332258064516  C 6.86683427664981 29.0332258064516  0.367741935483908 22.5341334652857  0.367741935483908 14.5170967741935  C 0.367741935483908 6.50006008310133  6.86683427664981 0.000967741935433482  14.883870967742 0.000967741935433482  C 22.9009076588341 0.000967741935433482  29.4 6.50006008310133  29.4 14.5170967741935  Z M 14.883870967742 2.08354838709672  C 8.01701180726517 2.08354838709672  2.4503225806452 7.65023761371669  2.4503225806452 14.5170967741935  C 2.4503225806452 21.3839559346703  8.01701180726517 26.9506451612903  14.883870967742 26.9506451612903  C 21.7507301282188 26.9506451612903  27.3174193548387 21.3839559346703  27.3174193548387 14.5170967741935  C 27.31048562468 7.65295500060795  21.7480121808848 2.0900486121175  14.883870967742 2.08258064516125  Z " fill-rule="nonzero" fill="#54bd58" stroke="none" transform="matrix(1 0 0 1 278 23 )" />
  </g>
</svg>