<?xml version="1.0" encoding="utf-8"?>
<svg version="1.1" xmlns:xlink="http://www.w3.org/1999/xlink" width="12px" height="10px" xmlns="http://www.w3.org/2000/svg">
  <g transform="matrix(1 0 0 1 -854 -122 )">
    <path d="M 8.66182842712487 8.25581563910881  L 8.66253553390607 8.25652274589  C 7.39927323466191 8.26014407707956  6.18667085634456 7.76008874163501  5.2931717215522 6.86705792085843  C 4.28149993759371 5.85536057394617  3.77832033141271 4.44240731448424  3.92279877961278 3.01898281764124  L 6.25412983718479 3.01968992442242  L 3.36771995638128 0.133280043618939  L 0.481310075577767 3.01968992442242  L 2.55384005123551 3.01898281764124  C 2.4139625254129 4.80527558605655  3.06301058230588 6.5632863261443  4.33009228557626 7.83013735683451  C 5.47870354141901 8.97887608174795  7.03807153951357 9.62201675927128  8.66253553390607 9.61699619289291  C 9.81303996537576 9.61651884490477  10.940118221424 9.29180071286222  11.9145196205832 8.68007970782074  L 10.9245701269219 7.69013021415957  C 10.2287998622271 8.06314733140447  9.45128083350028 8.25752708858617  8.66182842712487 8.25581563910881  Z " fill-rule="nonzero" fill="#999999" stroke="none" transform="matrix(1 0 0 1 854 122 )" />
  </g>
</svg>