<?xml version="1.0" encoding="utf-8"?>
<svg version="1.1" xmlns:xlink="http://www.w3.org/1999/xlink" width="12px" height="11px" xmlns="http://www.w3.org/2000/svg">
  <g transform="matrix(1 0 0 1 -2776 -686 )">
    <path d="M 11.2208 0.727571428571374  L 11.2272 0.727571428571419  C 11.1020681067591 0.545826879080124  10.8932489916902 0.436932095089921  10.66986340225 0.436932095089921  C 10.4430723502428 0.436932095089921  10.2315428173893 0.549149843651147  10.1072 0.735428571428555  L 4.33600000000001 8.12664285714283  L 1.78160000000003 4.80149999999995  C 1.65797704863121 4.61150996181224  1.44425061402012 4.49654264321769  1.21467846638279 4.49654264321769  C 0.993959963846873 4.49654264321769  0.787278966913573 4.60286877339185  0.661600000000044 4.78107142857137  C 0.349286089602219 5.20076665332557  0.342858156789544 5.76895000015674  0.645600000000059 6.19535714285709  L 3.76560000000004 10.2543571428571  C 3.76560000000004 10.2543571428571  3.77040000000002 10.2543571428571  3.77200000000003 10.2606428571428  C 3.77360000000003 10.2669285714285  3.77200000000003 10.2669285714285  3.77200000000003 10.2684999999999  C 3.82161264267211 10.3236346152605  3.87899259485607 10.3715233999681  3.94240000000009 10.4107142857142  C 3.97002921806484 10.436434122146  3.99914411733275 10.4605693433609  4.02959999999998 10.4829999999999  C 4.12119251823465 10.5330653592946  4.22398903852436 10.5600602438245  4.32880000000009 10.5615714285714  C 4.43202281479703 10.5610150726179  4.53357701811578 10.5359451039896  4.62480000000005 10.4884999999999  C 4.65271932060859 10.4671681988298  4.67942611332765 10.4443481982654  4.70480000000007 10.4201428571428  C 4.76891947051568 10.3812725918459  4.82687238930785 10.3333555398047  4.87680000000005 10.2779285714285  C 4.87680000000005 10.2779285714285  4.87680000000005 10.2716428571428  4.88160000000003 10.2700714285714  C 4.8864 10.2684999999999  4.88560000000002 10.2700714285714  4.88800000000001 10.2637857142857  L 11.2264 2.14657142857136  C 11.534031986766 1.7211698808823  11.5317803376202 1.15061807054051  11.2208 0.727571428571374  Z " fill-rule="nonzero" fill="#54bd58" stroke="none" transform="matrix(1 0 0 1 2776 686 )" />
  </g>
</svg>