<?xml version="1.0" encoding="utf-8"?>
<svg version="1.1" xmlns:xlink="http://www.w3.org/1999/xlink" width="2px" height="8px" xmlns="http://www.w3.org/2000/svg">
  <g transform="matrix(1 0 0 1 -356 -336 )">
    <path d="M 1 0.5  C 0.649999999999999 0.5  0.3 0.7625  0.3 1.2  C 0.3 1.55  0.5625 1.9  1 1.9  C 1.4375 1.9  1.7 1.6375  1.7 1.2  C 1.7 0.7625  1.35 0.5  1 0.5  Z M 1.4375 7.0625  C 1.4375 7.325  1.2625 7.5  1 7.5  C 0.7375 7.5  0.5625 7.325  0.5625 7.0625  L 0.5625 3.125  C 0.5625 2.8625  0.7375 2.6875  1 2.6875  C 1.2625 2.6875  1.4375 2.8625  1.4375 3.125  L 1.4375 7.0625  Z " fill-rule="nonzero" fill="#cccccc" stroke="none" transform="matrix(1 0 0 1 356 336 )" />
  </g>
</svg>