<?xml version="1.0" encoding="utf-8"?>
<svg version="1.1" xmlns:xlink="http://www.w3.org/1999/xlink" width="10px" height="11px" xmlns="http://www.w3.org/2000/svg">
  <g transform="matrix(1 0 0 1 -853 -119 )">
    <path d="M 9.8125 1.3275  C 9.8125 0.706179656440357  9.30882034355964 0.2025  8.6875 0.2025  L 1.99 0.2025  C 1.36867965644036 0.2025  0.865 0.706179656440357  0.865 1.3275  L 0.865 2.3025  L 1.615 2.3025  L 1.615 1.3275  C 1.615 1.12039321881345  1.78289321881345 0.9525  1.99 0.9525  L 8.6875 0.9525  C 8.89460678118655 0.9525  9.0625 1.12039321881345  9.0625 1.3275  L 9.0625 8.955  C 9.06250000797031 9.15804118430803  8.89796465353313 9.32257653874522  8.69500000797031 9.32257653874522  C 8.69249981004448 9.32257653874522  8.68999967721288 9.32255102450169  8.6875 9.3225  L 6.76 9.3225  L 6.76 10.0725  L 8.6875 10.0725  C 9.30590315736145 10.0725137424441  9.80837731243594 9.57338941507007  9.8125 8.955  L 9.8125 1.3275  Z " fill-rule="nonzero" fill="#999999" stroke="none" transform="matrix(1 0 0 1 853 119 )" />
  </g>
</svg>