<?xml version="1.0" encoding="utf-8"?>
<svg version="1.1" xmlns:xlink="http://www.w3.org/1999/xlink" width="14px" height="16px" xmlns="http://www.w3.org/2000/svg">
  <g transform="matrix(1 0 0 1 -27 -10 )">
    <path d="M 13.643609375 3.875671875  C 13.643609375 3.141828125  13.048703125 2.5469375  12.314890625 2.5469375  L 10.5031875 2.5469375  C 10.492546875 1.817921875  9.90353125 1.22640625  9.175265625 1.21259375  C 9.104046875 0.5321875  8.5270625 9.37500000000036E-05  7.82809375 9.37500000000036E-05  L 6.171859375 9.37500000000036E-05  C 5.472921875 9.37500000000036E-05  4.895921875 0.5321875  4.824703125 1.21259375  C 4.0965 1.22646875  3.50740625 1.81796875  3.49678125 2.5469375  L 1.68509375 2.5469375  C 0.951265625 2.5469375  0.356375 3.141828125  0.356375 3.875671875  L 0.356375 14.671171875  C 0.356375 15.405015625  0.951265625 15.99990625  1.68509375 16  L 12.314890625 16  C 13.048703125 15.99990625  13.643609375 15.405015625  13.643609375 14.671171875  L 13.643609375 3.875671875  Z M 4.434265625 2.546953125  C 4.44471875 2.326203125  4.6275625 2.149828125  4.85084375 2.149828125  L 5.2860625 2.149828125  C 5.544921875 2.149828125  5.754796875 1.93996875  5.754796875 1.681078125  L 5.754796875 1.354671875  C 5.754796875 1.1246875  5.94190625 0.93759375  6.171859375 0.93759375  L 7.82809375 0.93759375  C 8.058078125 0.93759375  8.245171875 1.124703125  8.245171875 1.354671875  L 8.245171875 1.68109375  C 8.245171875 1.93996875  8.455046875 2.14984375  8.713921875 2.14984375  L 9.149140625 2.14984375  C 9.372421875 2.14984375  9.555234375 2.32621875  9.565703125 2.546953125  C 9.566015625 2.553578125  9.566203125 2.56021875  9.566203125 2.566921875  L 9.566203125 3.645484375  C 9.566203125 3.875453125  9.379109375 4.062546875  9.149140625 4.062546875  L 4.85084375 4.062546875  C 4.620859375 4.062546875  4.433765625 3.875453125  4.433765625 3.645484375  L 4.433765625 2.566921875  C 4.433765625 2.56021875  4.433953125 2.553578125  4.434265625 2.546953125  Z M 12.706109375 3.875671875  L 12.706109375 14.671171875  C 12.706109375 14.886890625  12.530625 15.06240625  12.314890625 15  L 1.68509375 15  C 1.469359375 15.06240625  1.293859375 14.886890625  1.293859375 14.671171875  L 1.293859375 3.875671875  C 1.293859375 3.6599375  1.469359375 3.484421875  1.68509375 3.484421875  L 3.49628125 3.484421875  L 3.49628125 3.64546875  C 3.49628125 4.392375  4.1039375 5.000015625  4.85084375 5.000015625  L 9.149140625 5.000015625  C 9.8960625 5.000015625  10.5036875 4.392375  10.5036875 3.64546875  L 10.5036875 3.484421875  L 12.314890625 3.484421875  C 12.530625 3.484421875  12.706109375 3.6599375  12.706109375 3.875671875  Z " fill-rule="nonzero" fill="#999999" stroke="none" transform="matrix(1 0 0 1 27 10 )" />
  </g>
</svg>