<?xml version="1.0" encoding="utf-8"?>
<svg version="1.1" xmlns:xlink="http://www.w3.org/1999/xlink" width="10px" height="11px" xmlns="http://www.w3.org/2000/svg">
  <g transform="matrix(1 0 0 1 -851 -120 )">
    <path d="M 9.135 9.6725  C 9.135 10.2938203435596  8.63132034355964 10.7975  8.01 10.7975  L 1.3125 10.7975  C 0.691179656440357 10.7975  0.1875 10.2938203435596  0.1875 9.6725  L 0.1875 2.045  C 0.191622687564066 1.42661058492992  0.694096842638553 0.927486257555933  1.3125 0.9275  L 8.01 0.9275  C 8.62840315736145 0.927486257555933  9.13087731243593 1.42661058492992  9.135 2.045  L 9.135 9.6725  Z M 8.01 1.6775  L 1.3125 1.6775  C 1.31000032278713 1.67744897549831  1.30750018995551 1.67742346125478  1.30499999202969 1.67742346125478  C 1.10203534646687 1.67742346125478  0.937499992029688 1.84195881569197  0.937499992029688 2.04492346125478  L 0.9375 9.6725  C 0.9375 9.87960678118655  1.10539321881345 10.0475  1.3125 10.0475  L 8.01 10.0475  C 8.21710678118655 10.0475  8.385 9.87960678118655  8.385 9.6725  L 8.385 2.045  C 8.38091574690213 1.84082798742876  8.21421285506137 1.67745915342481  8.01 1.6775  Z " fill-rule="nonzero" fill="#999999" stroke="none" transform="matrix(1 0 0 1 851 120 )" />
  </g>
</svg>