<?xml version="1.0" encoding="utf-8"?>
<svg version="1.1" xmlns:xlink="http://www.w3.org/1999/xlink" width="16px" height="16px" xmlns="http://www.w3.org/2000/svg">
  <g transform="matrix(1 0 0 1 -544 -12 )">
    <path d="M 7.99848828125 0.12482421875  C 3.65648046875 0.12482421875  0.124806640625 3.65648046875  0.124806640625 7.99848828125  C 0.124806640625 12.34049609375  3.65648046875 15.872169921875  7.99848828125 15.872169921875  C 12.34049609375 15.872169921875  15.872169921875 12.34049609375  15.872169921875 7.99848828125  C 15.872169921875 3.65648046875  12.34049609375 0.124806640625  7.99848828125 0.124806640625  Z M 14.744322265625 7.99848828125  C 14.744322265625 11.720638671875  11.717615234375 14.744322265625  7.99848828125 14.744322265625  C 4.279361328125 14.744322265625  1.252654296875 11.717615234375  1.252654296875 7.99848828125  C 1.252654296875 4.279361328125  4.276337890625 1.252654296875  7.99848828125 1.252654296875  C 11.720638671875 1.252654296875  14.744322265625 4.276337890625  14.744322265625 7.99848828125  Z " fill-rule="nonzero" fill="#999999" stroke="none" transform="matrix(1 0 0 1 544 12 )" />
  </g>
</svg>