<?xml version="1.0" encoding="utf-8"?>
<svg version="1.1" xmlns:xlink="http://www.w3.org/1999/xlink" width="17px" height="16px" xmlns="http://www.w3.org/2000/svg">
  <g transform="matrix(1 0 0 1 -24 -37 )">
    <path d="M 6.25390625 13.078125  C 6.25390625 12.75390625  5.990234375 12.4921875  5.666015625 12.4921875  L 2.607421875 12.4921875  C 2.3203125 12.4921875  2.0859375 12.228515625  2.0859375 11.90625  L 2.0859375 2.09375  C 2.0859375 1.771484375  2.3203125 1.5078125  2.607421875 1.5078125  L 14.560546875 1.5078125  C 14.84765625 1.5078125  15.08203125 1.771484375  15.08203125 2.09375  L 15.08203125 3.361328125  C 15.08203125 3.685546875  15.34375 3.947265625  15.66796875 3.947265625  C 15.9921875 3.947265625  16.25390625 3.685546875  16.25390625 3.361328125  L 16.25390625 2.09375  C 16.25390625 1.125  15.494140625 0.335937500000001  14.560546875 0.335937500000001  L 2.607421875 0.335937500000001  C 1.673828125 0.335937500000001  0.914062500000001 1.125  0.914062500000001 2.09375  L 0.914062500000001 11.90625  C 0.914062500000001 12.875  1.673828125 13.6640625  2.607421875 13.6640625  L 5.66796875 13.6640625  C 5.9921875 13.6640625  6.25390625 13.40234375  6.25390625 13.078125  Z M 16.5 9.8515625  C 16.728515625 9.623046875  16.728515625 9.251953125  16.5 9.0234375  C 16.271484375 8.794921875  15.900390625 8.794921875  15.671875 9.0234375  L 10.8984375 13.794921875  L 8.533203125 11.4296875  C 8.3046875 11.201171875  7.93359375 11.201171875  7.705078125 11.4296875  C 7.4765625 11.658203125  7.4765625 12.029296875  7.705078125 12.2578125  L 10.484375 15.0390625  C 10.59375 15.1484375  10.744140625 15.2109375  10.8984375 15.2109375  C 11.052734375 15.2109375  11.203125 15.1484375  11.3125 15.0390625  L 16.5 9.8515625  Z M 8.443359375 5.57421875  C 8.521484375 5.33984375  8.740234375 5.171875  9 5.171875  C 9.259765625 5.171875  9.48046875 5.33984375  9.556640625 5.57421875  L 9.6640625 5.57421875  L 11.666015625 3.572265625  C 11.89453125 3.34375  11.89453125 2.97265625  11.666015625 2.744140625  C 11.4375 2.515625  11.06640625 2.515625  10.837890625 2.744140625  L 9.001953125 4.580078125  L 7.166015625 2.744140625  C 6.9375 2.515625  6.56640625 2.515625  6.337890625 2.744140625  C 6.109375 2.97265625  6.109375 3.34375  6.337890625 3.572265625  L 8.3359375 5.57421875  L 8.443359375 5.57421875  Z M 8.4140625 8.73828125  L 8.4140625 10.41796875  C 8.4140625 10.7421875  8.67578125 11.00390625  9 11.00390625  C 9.32421875 11.00390625  9.5859375 10.7421875  9.5859375 10.41796875  L 9.5859375 8.73828125  L 8.4140625 8.73828125  Z M 8.4140625 7.56640625  L 8.4140625 6.74609375  L 9.5859375 6.74609375  L 9.5859375 7.56640625  L 8.4140625 7.56640625  Z M 9.556640625 5.57421875  C 9.48046875 5.33984375  9.259765625 5.171875  9 5.171875  C 8.740234375 5.171875  8.51953125 5.33984375  8.443359375 5.57421875  L 9.556640625 5.57421875  Z M 8.4140625 5.7578125  C 8.4140625 5.724609375  8.41796875 5.69140625  8.421875 5.66015625  L 8.3359375 5.57421875  L 5.888671875 5.57421875  C 5.564453125 5.57421875  5.302734375 5.8359375  5.302734375 6.16015625  C 5.302734375 6.484375  5.564453125 6.74609375  5.888671875 6.74609375  L 8.4140625 6.74609375  L 8.4140625 5.7578125  Z M 9.578125 5.66015625  C 9.583984375 5.69140625  9.5859375 5.724609375  9.5859375 5.7578125  L 9.5859375 6.74609375  L 12.111328125 6.74609375  C 12.435546875 6.74609375  12.697265625 6.484375  12.697265625 6.16015625  C 12.697265625 5.8359375  12.435546875 5.57421875  12.111328125 5.57421875  L 9.6640625 5.57421875  L 9.578125 5.66015625  Z M 8.421875 5.66015625  C 8.427734375 5.630859375  8.43359375 5.6015625  8.443359375 5.57421875  L 8.3359375 5.57421875  L 8.421875 5.66015625  Z M 9.556640625 5.57421875  C 9.56640625 5.6015625  9.572265625 5.630859375  9.578125 5.66015625  L 9.6640625 5.57421875  L 9.556640625 5.57421875  Z M 9.5859375 6.74609375  L 9.5859375 5.7578125  C 9.5859375 5.724609375  9.583984375 5.693359375  9.578125 5.66015625  L 9.4140625 5.82421875  C 9.298828125 5.939453125  9.150390625 5.99609375  9 5.99609375  C 8.849609375 5.99609375  8.69921875 5.939453125  8.5859375 5.82421875  L 8.421875 5.66015625  C 8.416015625 5.69140625  8.4140625 5.724609375  8.4140625 5.7578125  L 8.4140625 6.74609375  L 9.5859375 6.74609375  Z M 9.556640625 5.57421875  L 8.443359375 5.57421875  C 8.43359375 5.6015625  8.427734375 5.630859375  8.421875 5.66015625  L 8.5859375 5.82421875  C 8.701171875 5.939453125  8.849609375 5.99609375  9 5.99609375  C 9.150390625 5.99609375  9.30078125 5.939453125  9.4140625 5.82421875  L 9.578125 5.66015625  C 9.572265625 5.630859375  9.56640625 5.6015625  9.556640625 5.57421875  Z M 9.5859375 8.73828125  L 12.111328125 8.73828125  C 12.435546875 8.73828125  12.697265625 8.4765625  12.697265625 8.15234375  C 12.697265625 7.828125  12.435546875 7.56640625  12.111328125 7.56640625  L 9.5859375 7.56640625  L 9.5859375 8.73828125  Z M 8.4140625 7.56640625  L 5.888671875 7.56640625  C 5.564453125 7.56640625  5.302734375 7.828125  5.302734375 8.15234375  C 5.302734375 8.4765625  5.564453125 8.73828125  5.888671875 8.73828125  L 8.4140625 8.73828125  L 8.4140625 7.56640625  Z M 8.4140625 8.73828125  L 8.4140625 7.56640625  L 9.5859375 7.56640625  L 9.5859375 8.73828125  L 8.4140625 8.73828125  Z " fill-rule="nonzero" fill="#999999" stroke="none" transform="matrix(1 0 0 1 24 37 )" />
  </g>
</svg>