<?xml version="1.0" encoding="utf-8"?>
<svg version="1.1" xmlns:xlink="http://www.w3.org/1999/xlink" width="7px" height="6px" xmlns="http://www.w3.org/2000/svg">
  <g transform="matrix(1 0 0 1 -852 -123 )">
    <path d="M 6.4475 0.59  C 6.4475 0.797106781186548  6.27960678118655 0.965  6.0725 0.965  L 1.25 0.965  C 1.04289321881345 0.965  0.875 0.797106781186548  0.875 0.59  C 0.875 0.382893218813453  1.04289321881345 0.215  1.25 0.215  L 6.0725 0.215  C 6.27960678118655 0.215  6.4475 0.382893218813453  6.4475 0.59  Z M 6.0725 3.2375  L 1.25 3.2375  C 1.04289321881345 3.2375  0.875 3.06960678118655  0.875 2.8625  C 0.875 2.65539321881345  1.04289321881345 2.4875  1.25 2.4875  L 6.0725 2.4875  C 6.27960678118655 2.4875  6.4475 2.65539321881345  6.4475 2.8625  C 6.4475 3.06960678118655  6.27960678118655 3.2375  6.0725 3.2375  Z M 6.4475 5.1275  C 6.4475 5.33460678118655  6.27960678118655 5.5025  6.0725 5.5025  L 1.25 5.5025  C 1.04289321881345 5.5025  0.875 5.33460678118655  0.875 5.1275  C 0.875 4.92039321881345  1.04289321881345 4.7525  1.25 4.7525  L 6.0725 4.7525  C 6.27960678118655 4.7525  6.4475 4.92039321881345  6.4475 5.1275  Z " fill-rule="nonzero" fill="#999999" stroke="none" transform="matrix(1 0 0 1 852 123 )" />
  </g>
</svg>