<?xml version="1.0" encoding="utf-8"?>
<svg version="1.1" xmlns:xlink="http://www.w3.org/1999/xlink" width="20px" height="18px" xmlns="http://www.w3.org/2000/svg">
  <g transform="matrix(1 0 0 1 -12 -19 )">
    <path d="M 9.71086647727273 0.735890625000002  C 9.89921875 0.640546875000002  10.1152698863636 0.640546875000002  10.2897727272727 0.735890625  L 17.1910511363636 4.1427421875  C 17.3105823863636 4.211296875  17.4071022727273 4.302  17.4667613636364 4.4114765625  L 19.3916193181818 7.804828125  C 19.5618607954545 8.11828125  19.4512784090909 8.5007109375  19.1436079545455 8.678109375  C 19.1205965909091 8.68696875  19.0933238636364 8.69625  19.0703125 8.70975  L 17.55859375 9.4600546875  L 17.55859375 13.2809765625  C 17.55859375 13.5585703125  17.3794034090909 13.7859609375  17.1450284090909 13.877296875  L 10.2897727272727 17.270859375  C 10.1012073863636 17.3617734375  9.88515625 17.3529140625  9.71065340909091 17.270859375  L 2.809375 13.845234375  C 2.58863636363636 13.7361796875  2.45142045454546 13.509  2.45142045454546 13.2811875  L 2.45142045454546 9.460265625  L 0.888991477272728 8.68696875  C 0.56768465909091 8.5369921875  0.43877840909091 8.1410625  0.594957386363637 7.831828125  L 0.613281250000001 7.804828125  L 2.52961647727273 4.4114765625  C 2.6078125 4.27921875  2.71775568181818 4.1883046875  2.84623579545455 4.1292421875  L 9.71086647727273 0.735890625000002  Z M 3.7421875 12.8761875  L 9.61882102272727 15.7923984375  L 9.61882102272727 9.6195234375  L 8.54367897727273 11.5027734375  C 8.44247159090909 11.6848125  8.20340909090909 11.7529453125  8.01953125 11.64853125  L 8.01058238636364 11.643890625  L 3.7421875 9.53746875  L 3.7421875 12.8761875  Z M 4.25227272727273 4.8662578125  L 9.61882102272727 7.513734375  L 9.61882102272727 2.2143515625  L 4.25227272727273 4.8662578125  Z M 15.7481534090909 4.8662578125  L 10.3909801136364 2.2143515625  L 10.3909801136364 7.513734375  L 15.7481534090909 4.8662578125  Z M 11.4475852272727 11.5027734375  L 10.3909801136364 9.629015625  L 10.3909801136364 15.7923984375  L 16.2533380681818 12.876609375  L 16.2533380681818 9.52903125  L 11.9802556818182 11.643890625  L 11.9713068181818 11.64853125  C 11.7874289772727 11.7529453125  11.5483664772727 11.6848125  11.4475852272727 11.5027734375  Z M 17.9259232954545 7.841109375  L 16.5154119318182 5.33475  L 10.5377840909091 8.30053125  L 11.9436079545455 10.80225  L 17.9259232954545 7.841109375  Z M 3.33330965909091 8.4686484375  C 3.37017045454545 8.4872109375  3.40681818181818 8.5007109375  3.44346590909091 8.5277109375  L 8.04723011363637 10.80225  L 9.46242897727273 8.30053125  L 3.48501420454546 5.343609375  L 2.06960227272727 7.8459609375  L 3.33330965909091 8.4686484375  Z " fill-rule="nonzero" fill="#0070cc" stroke="none" transform="matrix(1 0 0 1 12 19 )" />
  </g>
</svg>