<?xml version="1.0" encoding="utf-8"?>
<svg version="1.1" xmlns:xlink="http://www.w3.org/1999/xlink" width="16px" height="16px" xmlns="http://www.w3.org/2000/svg">
  <g transform="matrix(1 0 0 1 -16 -144 )">
    <path d="M 15.48490625 1.710390625  C 15.48490625 1.12725  15.007375 0.6496875  14.424171875 0.6496875  L 1.695375 0.6496875  C 1.112171875 0.6496875  0.63465625 1.12725  0.63465625 1.710390625  L 0.63465625 14.439265625  C 0.63465625 15.022421875  1.1121875 15.4999375  1.695359375 15.4999375  L 14.42415625 15.4999375  C 15.007390625 15.4999375  15.48490625 15.02240625  15.48490625 14.439265625  L 15.48490625 1.710390625  Z M 14.424171875 2  L 14.424171875 14.4393125  L 2 14.4393125  L 2 2  L 14.424171875 2  Z M 5.938328125 4.8926875  L 5.938328125 3.8319375  L 12.302796875 3.8319375  L 12.302796875 4.8926875  L 5.938328125 4.8926875  Z M 3.8168125 4.8926875  L 3.8168125 3.8319375  L 4.8775625 3.8319375  L 4.8775625 4.8926875  L 3.8168125 4.8926875  Z M 5.938328125 7.01415625  L 5.938328125 5.95340625  L 12.302796875 5.95340625  L 12.302796875 7.01415625  L 5.938328125 7.01415625  Z M 3.8168125 7.01415625  L 3.8168125 5.95340625  L 4.8775625 5.95340625  L 4.8775625 7.01415625  L 3.8168125 7.01415625  Z M 5.938328125 10.196359375  L 5.938328125 9.135609375  L 12.302796875 9.135609375  L 12.302796875 10.196359375  L 5.938328125 10.196359375  Z M 3.8168125 10.196359375  L 3.8168125 9.135609375  L 4.8775625 9.135609375  L 4.8775625 10.196359375  L 3.8168125 10.196359375  Z M 5.938328125 12.317859375  L 5.938328125 11.25703125  L 12.302796875 11.25703125  L 12.302796875 12.317859375  L 5.938328125 12.317859375  Z M 3.8168125 12.317859375  L 3.8168125 11.25703125  L 4.8775625 11.25703125  L 4.8775625 12.317859375  L 3.8168125 12.317859375  Z " fill-rule="nonzero" fill="#0070cc" stroke="none" transform="matrix(1 0 0 1 16 144 )" />
  </g>
</svg>