<?xml version="1.0" encoding="utf-8"?>
<svg version="1.1" xmlns:xlink="http://www.w3.org/1999/xlink" width="16px" height="14px" xmlns="http://www.w3.org/2000/svg">
  <g transform="matrix(1 0 0 1 -36 -30 )">
    <path d="M 15.98896875 13.279625  C 15.98896875 13.618296875  15.7138125 13.892890625  15.3744375 13.892890625  L 13.223546875 13.892890625  C 12.88415625 13.892890625  12.609015625 13.61828125  12.609015625 13.279625  L 12.609015625 11.439703125  C 12.609015625 11.101  12.88415625 10.8264375  13.223546875 10.8264375  L 13.838078125 10.8264375  L 13.838078125 8.066609375  C 13.838078125 7.727875  13.56296875 7.4533125  13.223546875 7.4533125  L 8.30725 7.4533125  L 8.30725 10.8264375  L 8.9218125 10.8264375  C 9.261203125 10.8264375  9.53634375 11.101  9.53634375 11.439703125  L 9.53634375 13.279640625  C 9.53634375 13.618296875  9.261203125 13.89290625  8.9218125 13.89290625  L 6.7709375 13.89290625  C 6.431515625 13.89290625  6.15640625 13.618296875  6.15640625 13.279640625  L 6.15640625 11.439703125  C 6.15640625 11.101  6.431515625 10.8264375  6.7709375 10.8264375  L 7.38546875 10.8264375  L 7.38546875 7.4533125  L 2.776453125 7.4533125  C 2.4370625 7.4533125  2.161921875 7.727875  2.161921875 8.066609375  L 2.161921875 10.8264375  L 2.776453125 10.8264375  C 3.11584375 10.8264375  3.390984375 11.101  3.390984375 11.439703125  L 3.390984375 13.279640625  C 3.390984375 13.618296875  3.11584375 13.89290625  2.776453125 13.89290625  L 0.6255625 13.89290625  C 0.286171875 13.89290625  0.01103125 13.618296875  0.01103125 13.279640625  L 0.01103125 11.439703125  C 0.01103125 11.101  0.286171875 10.8264375  0.6255625 10.8264375  L 1.24009375 10.8264375  L 1.24009375 7.7599375  C 1.24009375 7.082515625  1.790390625 6.53334375  2.469203125 6.53334375  L 7.38546875 6.53334375  L 7.38546875 3.160265625  L 6.7709375 3.160265625  C 6.431515625 3.160265625  6.15640625 2.88565625  6.15640625 2.5469375  L 6.15640625 0.7070625  C 6.15640625 0.368328125  6.431515625 0.0937656250000001  6.7709375 0.0937656250000001  L 8.921828125 0.0937656250000001  C 9.26121875 0.0937656250000001  9.536359375 0.368328125  9.536359375 0.7070625  L 9.536359375 2.546921875  C 9.536359375 2.88565625  9.26121875 3.16025  8.921828125 3.16025  L 8.307265625 3.16025  L 8.307265625 6.53334375  L 13.53084375 6.53334375  C 14.209609375 6.53334375  14.75990625 7.082515625  14.75990625 7.7599375  L 14.75990625 10.826421875  L 15.3744375 10.826421875  C 15.713828125 10.826421875  15.98896875 11.100984375  15.98896875 11.4396875  L 15.98896875 13.279625  Z " fill-rule="nonzero" fill="#0070cc" stroke="none" transform="matrix(1 0 0 1 36 30 )" />
  </g>
</svg>