<?xml version="1.0" encoding="utf-8"?>
<svg version="1.1" xmlns:xlink="http://www.w3.org/1999/xlink" width="14px" height="14px" xmlns="http://www.w3.org/2000/svg">
  <defs>
    <linearGradient gradientUnits="userSpaceOnUse" x1="6.83720930232574" y1="0.162790697674504" x2="6.83720930232574" y2="13.8372093023255" id="LinearGradient837">
      <stop id="Stop838" stop-color="#fe8002" offset="0" />
      <stop id="Stop839" stop-color="#ff362e" offset="1" />
    </linearGradient>
  </defs>
  <g transform="matrix(1 0 0 1 -441 -281 )">
    <path d="M 13.6744186046515 11.8837209302324  C 13.6744186046515 12.9626027671115  12.799812069438 13.8372093023255  11.7209302325584 13.8372093023255  L 1.95348837209307 13.8372093023255  C 0.874606535214508 13.8372093023255  0 12.9626027671115  0 11.8837209302324  L 0 2.11627906976733  C 0 1.03739723288852  0.874606535214508 0.162790697674504  1.95348837209307 0.162790697674504  L 11.7209302325584 0.162790697674504  C 12.799812069438 0.162790697674504  13.6744186046515 1.03739723288852  13.6744186046515 2.11627906976733  L 13.6744186046515 11.8837209302324  Z M 5.75204651162844 10.4283720930233  C 5.4795348837215 10.4186046511629  5.09762790697711 10.4068837209303  4.64246511627887 10.3756279069767  C 4.75285140563182 10.795918830321  4.83540259222173 11.2230314913754  4.88958139534882 11.6541860465114  L 4.95306976744178 11.6541860465114  C 5.6084651162788 11.6541860465114  6.1495813953489 11.6414883720929  6.55883720930167 11.6160930232557  C 7.24939534883756 11.578  7.59906976744116 11.1091627906975  7.59906976744116 10.2242325581395  L 7.59906976744116 8.27758139534878  L 11.0899534883707 8.27758139534878  L 11.0899534883707 7.09767441860465  L 7.59906976744116 7.09767441860465  L 7.59906976744116 6.29772093023254  L 9.63851162790609 6.29772093023254  L 9.63851162790609 5.59153488372056  C 10.0012649147545 5.77770175032041  10.3743351390318 5.9430396906245  10.7559069767432 6.08674418604666  C 10.9073023255804 5.80251162790717  11.1466046511618 5.38837209302346  11.4708837209284 4.85604651162783  C 10.0981127296843 4.39939237969835  8.83682234013213 3.65892506656977  7.76902325581348 2.68279069767466  L 8.1128372093019 2.35851162790707  L 6.25702325581299 2.35851162790707  C 5.01954558228135 3.50339580987891  3.56749592339307 4.39175540914409  1.98474418604718 4.97227906976713  C 2.25834991789914 5.36445633816996  2.50348981726235 5.7757429869023  2.71827906976754 6.20297674418596  C 3.08748837209294 6.03986046511622  3.46744186046495 5.85623255813946  3.84446511627888 5.65795348837208  L 3.84446511627888 6.29869767441848  L 6.23846511627884 6.29869767441848  L 6.23846511627884 7.0986511627906  L 2.39400000000093 7.0986511627906  L 2.39400000000093 8.2814883720928  L 6.23846511627884 8.2814883720928  L 6.23846511627884 9.91265116279066  C 6.23846511627884 10.2545116279069  6.0812093023255 10.4283720930233  5.77255813953497 10.4283720930233  L 5.75204651162844 10.4283720930233  Z M 11.4318139534887 10.3844186046512  C 10.7949767441858 9.86479069767427  9.96279069767465 9.22209302325599  8.95283720930162 8.47683720930235  L 8.10306976744197 9.33539534883696  C 9.16674418604606 10.2213023255812  9.97548837209363 10.9216279069765  10.5078139534885 11.4158604651162  L 11.4318139534887 10.3844186046512  Z M 5.37502325581353 9.31683720930232  L 4.44027906976771 8.46804651162788  C 3.70564805912055 9.18182690680354  2.89687403108516 9.81509369636583  2.02772093023262 10.3570697674418  C 2.35786046511538 10.7126046511628  2.65576744186029 11.0564186046509  2.91362790697685 11.3767906976745  C 3.79475446624705 10.7660591336957  4.61860233314026 10.0765769308078  5.37502325581353 9.31683720930232  Z M 8.86297674418501 5.14516279069728  L 8.86590697674406 5.14711627906966  L 4.74599999999919 5.14711627906991  C 5.50552277093881 4.70161301110007  6.21795180870938 4.18029952595162  6.87237209302363 3.59116279069755  C 7.47852626947035 4.17874213436678  8.14586668141307 4.69971298588895  8.86297674418501 5.14516279069728  Z " fill-rule="nonzero" fill="url(#LinearGradient837)" stroke="none" transform="matrix(1 0 0 1 441 281 )" />
  </g>
</svg>