<?xml version="1.0" encoding="utf-8"?>
<svg version="1.1" xmlns:xlink="http://www.w3.org/1999/xlink" width="9px" height="6px" xmlns="http://www.w3.org/2000/svg">
  <g transform="matrix(1 0 0 1 -527 -238 )">
    <path d="M 0.116999999999962 1.11100000000002  C 0.266429809073429 0.96224855899375  0.508122145192488 0.962696137393962  0.657000000000039 1.11200000000002  L 3.98099999999999 4.47400000000002  L 7.35500000000002 1.13400000000003  C 7.42628802781962 1.06255282816576  7.52307090967656 1.02240081967091  7.62400000000002 1.02240081967091  C 7.72492909032349 1.02240081967091  7.82171197218042 1.06255282816576  7.89300000000003 1.13400000000003  C 7.96257898438625 1.20042031795299  8.0019448502602 1.29242185102514  8.0019448502602 1.38861381381415  C 8.0019448502602 1.50165878703466  7.94765191413319 1.60782528726058  7.85599999999999 1.67400000000002  L 4.29499999999996 5.23300000000002  C 4.25062864483732 5.27819843010454  4.19931389302951 5.31600929985763  4.14300000000003 5.34500000000003  C 3.98790004752766 5.40073161553228  3.81480683114876 5.36863486017724  3.69000000000005 5.26100000000002  L 0.0800000000000409 1.65100000000002  C -0.0387001806172975 1.48540113100601  -0.0231779810345643 1.25886092088085  0.116999999999962 1.11100000000002  Z " fill-rule="nonzero" fill="#ffffff" stroke="none" fill-opacity="0.996078431372549" transform="matrix(1 0 0 1 527 238 )" />
  </g>
</svg>