<?xml version="1.0" encoding="utf-8"?>
<svg version="1.1" xmlns:xlink="http://www.w3.org/1999/xlink" width="14px" height="13px" xmlns="http://www.w3.org/2000/svg">
  <g transform="matrix(1 0 0 1 -441 -300 )">
    <path d="M 9.33574504737295 7.52851162790698  C 10.1126546080965 7.79516279069767  13.6623600344531 8.84272093023256  13.6623600344531 8.84272093023256  L 13.6623600344531 2.59546511627907  C 13.6623610838048 2.5945576339499  13.6623616084809 2.59365015112729  13.6623616084809 2.59274266823398  C 13.6623616084809 1.24429449811223  12.5287419675046 0.151161272885147  11.1303512725636 0.151161272885147  C 11.1294101791927 0.151161272885147  11.1284690858952 0.151161778822735  11.1275279931094 0.151162790697675  L 3.02923341946598 0.151162790697675  C 3.02829232668017 0.151161778822735  3.02735123338265 0.151161272885147  3.02641014001181 0.151161272885147  C 1.62801944507074 0.151161272885147  0.4943998040945 1.24429449811223  0.4943998040945 2.59274266823398  C 0.4943998040945 2.59365015112729  0.494400328770514 2.5945576339499  0.494401378122306 2.59546511627907  L 0.494401378122306 10.4108837209302  C 0.495437343185325 11.757623009395  1.62791097543493 12.8488414251296  3.02452988102796 12.8488414251296  C 3.02609772819038 12.8488414251296  3.02766557501274 12.8488400198532  3.02923341946598 12.8488372093023  L 11.1341119724376 12.8488372093023  C 12.3607998253035 12.8471678537029  13.4109089724263 12.0002130675906  13.6294401378122 10.8362558139535  C 12.9578742463394 10.5569069767442  10.0477553832903 9.34427906976744  8.53344013781223 8.64590697674419  C 7.58717235513447 9.97957647698615  6.0264061487115 10.7850539772651  4.35073212747631 10.804511627907  C 2.53355383290267 10.804511627907  1.31551765719207 9.72520930232558  1.46036520241171 8.3983023255814  C 1.55912489233419 7.52851162790698  2.17801894918174 6.10637209302326  4.85769853574504 6.35397674418605  C 5.96145716918456 6.46003003327679  7.04481801620849 6.71211794290418  8.07726442721791 7.10313953488372  C 8.38404215435025 6.5555587289554  8.62904967673931 5.97783828868335  8.80808613264426 5.37988372093023  L 3.69233419465977 5.37988372093023  L 3.69233419465977 4.88739534883721  L 6.21587941429801 4.88739534883721  L 6.21587941429801 4.01125581395349  L 3.12799310938846 4.01125581395349  L 3.12799310938846 3.46706976744186  L 6.21587941429801 3.46706976744186  L 6.21587941429801 2.20818604651163  C 6.23598402959117 2.08851959376827  6.34721993325585 2.00325910716814  6.47265460809647 2.01137209302326  L 7.73677863910422 2.01137209302326  L 7.73677863910422 3.47795348837209  L 11.0287683031869 3.47795348837209  L 11.0287683031869 4.01760465116279  L 7.73677863910422 4.01760465116279  L 7.73677863910422 4.89374418604651  L 10.4230422049957 4.89374418604651  C 10.1943117319327 5.81797809232232  9.82808422270862 6.70543035029276  9.33574504737295 7.52851162790698  Z M 7.40099569336778 8.09990697674418  C 6.67592657944936 9.17811664185912  5.47069398921392 9.86838621626669  4.14192592592592 9.96646511627907  C 2.21940396210163 9.96646511627907  1.91654091300603 8.78739534883721  2.01530060292851 8.30306976744186  C 2.2403048626149 7.57792576541036  2.96550867387013 7.1072917330925  3.746887166236 7.17932558139535  C 5.02319086962829 7.20384626545046  6.27535540315526 7.51930470488148  7.40099569336778 8.09990697674418  Z " fill-rule="nonzero" fill="#00a0e8" stroke="none" transform="matrix(1 0 0 1 441 300 )" />
  </g>
</svg>