<?xml version="1.0" encoding="utf-8"?>
<svg version="1.1" xmlns:xlink="http://www.w3.org/1999/xlink" width="16px" height="16px" xmlns="http://www.w3.org/2000/svg">
  <g transform="matrix(1 0 0 1 -675 -5 )">
    <path d="M 13.2443 4.886  C 13.5323 5.399  14.0498 5.705  14.6258 5.705  C 15.1073 5.705  15.5015 6.1082  15.5015 6.6068  L 15.5015 9.3959  C 15.5015 9.8909  15.1073 10.2959  14.6258 10.2959  C 14.048 10.2959  13.5323 10.6028  13.2443 11.1167  C 12.9564785010707 11.6254106772567  12.9564785010707 12.2477893227433  13.2443 12.7565  C 13.486033423553 13.1862029275183  13.3439740470832 13.7301669825162  12.923 13.9868  L 10.5785 15.38  C 10.4456370591763 15.4582431758864  10.2942562176936 15.4995056616027  10.1400662192595 15.4995056616027  C 9.82518423084954 15.4995056616027  9.53523578499002 15.3282009859744  9.3833 15.0524  C 9.10847947383636 14.5457375960289  8.57819654529445 14.2303315284336  8.0018 14.2307  C 7.4258 14.2307  6.9083 14.5367  6.6203 15.0506  C 6.46746943132425 15.3277117031827  6.17626128867938 15.5000242136234  5.8598 15.5006  C 5.70671031682857 15.5000847251421  5.55657310388289 15.4584317509501  5.4251 15.38  L 3.077 13.9868  C 2.87365218100913 13.8661920226882  2.72664188532718 13.669638609739  2.6684 13.4405  C 2.60663468748155 13.2098765635147  2.63798866310301 12.9642165483363  2.7557 12.7565  C 3.04352149892925 12.2477893227433  3.04352149892925 11.6254106772567  2.7557 11.1167  C 2.4801095573028 10.6110157063936  1.95010501404523 10.2964657787664  1.3742 10.2968  C 0.8927 10.2968  0.4985 9.8918  0.4985 9.3959  L 0.4985 6.6059  C 0.4985 6.1109  0.8927 5.7059  1.3742 5.7059  C 1.9502 5.7059  2.4677 5.399  2.7557 4.8851  C 3.04352149892925 4.37638932274327  3.04352149892925 3.75401067725673  2.7557 3.2453  C 2.51339522890488 2.81616365080763  2.65516395764235 2.27218588829253  3.0761 2.0159  L 5.4233 0.621799999999999  C 5.55613433882829 0.543174194699544  5.70765770675699 0.501691305418804  5.8620176070909 0.501691305418804  C 6.17746827555244 0.501691305418804  6.4676816526634 0.674138724576154  6.6185 0.951199999999999  C 6.89364685708676 1.45753239855587  7.4237376545426 1.77277698849709  8 1.77277698849709  C 8.5762623454574 1.77277698849709  9.10635314291324 1.45753239855587  9.3815 0.951199999999999  C 9.53224425278835 0.6730972464643  9.82317487033212 0.499873133695784  10.1395053482707 0.499873133695784  C 10.2939550210597 0.499873133695784  10.4455691803702 0.54136095996787  10.5785 0.619999999999999  L 12.923 2.015  C 13.3415 2.2634  13.4855 2.8151  13.2443 3.2453  C 12.9564785010707 3.75401067725673  12.9564785010707 4.37638932274327  13.2443 4.8851  Z M 8 12.1994  C 10.3181774346342 12.1964261212394  12.1968293512642 10.3181767441245  12.2003 8  C 12.1958429389259 5.68208705063462  10.3179129493654 3.80415706107409  8 3.7997  C 5.68188206498446 3.80366345033479  3.80366345033479 5.68188206498446  3.7997 8  C 3.80366345033479 10.3181179350155  5.68188206498446 12.1963365496652  8 12.2003  Z " fill-rule="nonzero" fill="#666666" stroke="none" transform="matrix(1 0 0 1 675 5 )" />
  </g>
</svg>