<?xml version="1.0" encoding="utf-8"?>
<svg version="1.1" xmlns:xlink="http://www.w3.org/1999/xlink" width="56px" height="19px" xmlns="http://www.w3.org/2000/svg">
  <g transform="matrix(1 0 0 1 -476 288 )">
    <path d="M 524.575110331237 -287  C 524.575110331237 -287  525.736700979654 -286.802944443572  525.736700979654 -286.802944443572  C 525.736700979654 -286.802944443572  530.893428027787 -278.5  530.893428027787 -278.5  C 530.893428027787 -278.5  525.736700979654 -270.197055556428  525.736700979654 -270.197055556428  C 525.736700979654 -270.197055556428  524.575110331237 -270  524.575110331237 -270  C 524.575110331237 -270  477 -270  477 -270  C 477 -270  477 -287  477 -287  C 477 -287  524.575110331237 -287  524.575110331237 -287  Z " fill-rule="nonzero" fill="#ffffff" stroke="none" fill-opacity="0.996078431372549" />
    <path d="M 524.487555165619 -287.5  C 524.487555165619 -287.5  526.018350489827 -287.2403115075  526.018350489827 -287.2403115075  C 526.018350489827 -287.2403115075  531.446714013894 -278.5  531.446714013894 -278.5  C 531.446714013894 -278.5  526.018350489827 -269.7596884925  526.018350489827 -269.7596884925  C 526.018350489827 -269.7596884925  524.487555165619 -269.5  524.487555165619 -269.5  C 524.487555165619 -269.5  476.5 -269.5  476.5 -269.5  C 476.5 -269.5  476.5 -287.5  476.5 -287.5  C 476.5 -287.5  524.487555165619 -287.5  524.487555165619 -287.5  Z " stroke-width="1" stroke="#f59a23" fill="none" stroke-opacity="0.498039215686275" />
  </g>
</svg>