<?xml version="1.0" encoding="utf-8"?>
<svg version="1.1" xmlns:xlink="http://www.w3.org/1999/xlink" width="12px" height="12px" viewBox="245 17.5  12 12" xmlns="http://www.w3.org/2000/svg">
  <path d="M 245.5 18.5  A 0.5 0.5 0 0 1 246 18 L 256 18  A 0.5 0.5 0 0 1 256.5 18.5 L 256.5 28.5  A 0.5 0.5 0 0 1 256 29 L 246 29  A 0.5 0.5 0 0 1 245.5 28.5 L 245.5 18.5  Z " fill-rule="nonzero" fill="#ffffff" stroke="none" />
  <path d="M 245.5 18.5  A 0.5 0.5 0 0 1 246 18 L 256 18  A 0.5 0.5 0 0 1 256.5 18.5 L 256.5 28.5  A 0.5 0.5 0 0 1 256 29 L 246 29  A 0.5 0.5 0 0 1 245.5 28.5 L 245.5 18.5  Z " stroke-width="1" stroke="#0070cc" fill="none" />
  <path d="M 247.571428571429 23.5  L 250.142857142857 26.0714285714286  " stroke-width="2.57142857142857" stroke="#0070cc" fill="none" />
  <path d="M 250.142857142857 26.0714285714286  L 254.428571428571 20.0714285714286  " stroke-width="2.57142857142857" stroke="#0070cc" fill="none" />
</svg>