<?xml version="1.0" encoding="utf-8"?>
<svg version="1.1" xmlns:xlink="http://www.w3.org/1999/xlink" width="12px" height="12px" viewBox="37 61  12 12" xmlns="http://www.w3.org/2000/svg">
  <path d="M 37.5 62  A 0.5 0.5 0 0 1 38 61.5 L 48 61.5  A 0.5 0.5 0 0 1 48.5 62 L 48.5 72  A 0.5 0.5 0 0 1 48 72.5 L 38 72.5  A 0.5 0.5 0 0 1 37.5 72 L 37.5 62  Z " fill-rule="nonzero" fill="#ffffff" stroke="none" />
  <path d="M 37.5 62  A 0.5 0.5 0 0 1 38 61.5 L 48 61.5  A 0.5 0.5 0 0 1 48.5 62 L 48.5 72  A 0.5 0.5 0 0 1 48 72.5 L 38 72.5  A 0.5 0.5 0 0 1 37.5 72 L 37.5 62  Z " stroke-width="1" stroke="#999999" fill="none" />
</svg>