<?xml version="1.0" encoding="utf-8"?>
<svg version="1.1" xmlns:xlink="http://www.w3.org/1999/xlink" width="12px" height="12px" viewBox="443 75  12 12" xmlns="http://www.w3.org/2000/svg">
  <path d="M 443.5 76  A 0.5 0.5 0 0 1 444 75.5 L 454 75.5  A 0.5 0.5 0 0 1 454.5 76 L 454.5 86  A 0.5 0.5 0 0 1 454 86.5 L 444 86.5  A 0.5 0.5 0 0 1 443.5 86 L 443.5 76  Z " fill-rule="nonzero" fill="#ffffff" stroke="none" />
  <path d="M 443.5 76  A 0.5 0.5 0 0 1 444 75.5 L 454 75.5  A 0.5 0.5 0 0 1 454.5 76 L 454.5 86  A 0.5 0.5 0 0 1 454 86.5 L 444 86.5  A 0.5 0.5 0 0 1 443.5 86 L 443.5 76  Z " stroke-width="1" stroke="#999999" fill="none" />
</svg>