<?xml version="1.0" encoding="utf-8"?>
<svg version="1.1" xmlns:xlink="http://www.w3.org/1999/xlink" width="12px" height="12px" viewBox="443 145  12 12" xmlns="http://www.w3.org/2000/svg">
  <path d="M 443.5 146  A 0.5 0.5 0 0 1 444 145.5 L 454 145.5  A 0.5 0.5 0 0 1 454.5 146 L 454.5 156  A 0.5 0.5 0 0 1 454 156.5 L 444 156.5  A 0.5 0.5 0 0 1 443.5 156 L 443.5 146  Z " fill-rule="nonzero" fill="#ffffff" stroke="none" />
  <path d="M 443.5 146  A 0.5 0.5 0 0 1 444 145.5 L 454 145.5  A 0.5 0.5 0 0 1 454.5 146 L 454.5 156  A 0.5 0.5 0 0 1 454 156.5 L 444 156.5  A 0.5 0.5 0 0 1 443.5 156 L 443.5 146  Z " stroke-width="1" stroke="#0070cc" fill="none" />
  <path d="M 445.571428571429 151  L 448.142857142857 153.571428571429  " stroke-width="2.57142857142857" stroke="#0070cc" fill="none" />
  <path d="M 448.142857142857 153.571428571429  L 452.428571428571 147.571428571429  " stroke-width="2.57142857142857" stroke="#0070cc" fill="none" />
</svg>