<?xml version="1.0" encoding="utf-8"?>
<svg version="1.1" xmlns:xlink="http://www.w3.org/1999/xlink" width="12px" height="12px" viewBox="443 108  12 12" xmlns="http://www.w3.org/2000/svg">
  <path d="M 443.5 109  A 0.5 0.5 0 0 1 444 108.5 L 454 108.5  A 0.5 0.5 0 0 1 454.5 109 L 454.5 119  A 0.5 0.5 0 0 1 454 119.5 L 444 119.5  A 0.5 0.5 0 0 1 443.5 119 L 443.5 109  Z " fill-rule="nonzero" fill="#ffffff" stroke="none" />
  <path d="M 443.5 109  A 0.5 0.5 0 0 1 444 108.5 L 454 108.5  A 0.5 0.5 0 0 1 454.5 109 L 454.5 119  A 0.5 0.5 0 0 1 454 119.5 L 444 119.5  A 0.5 0.5 0 0 1 443.5 119 L 443.5 109  Z " stroke-width="1" stroke="#999999" fill="none" />
</svg>