<?xml version="1.0" encoding="utf-8"?>
<svg version="1.1" xmlns:xlink="http://www.w3.org/1999/xlink" width="8px" height="16px" xmlns="http://www.w3.org/2000/svg">
  <g transform="matrix(1 0 0 1 -11 -40 )">
    <path d="M 1.71428571875 6.857142859375  C 1.08310314874759 6.857142859375  0.571428578124999 6.34546828875241  0.571428578124999 5.71428571875  C 0.571428578124999 5.08310314874759  1.08310314874759 4.571428578125  1.71428571875 4.571428578125  C 2.34546825469262 4.571428578125  2.8571428253152 5.08310314874759  2.8571428253152 5.71428571875  C 2.8571428253152 6.34546828875241  2.34546825469262 6.857142859375  1.7142856846902 6.857142859375  Z M 1.71428571875 11.428571421875  C 1.08310314874759 11.428571421875  0.571428578124999 10.9168968512524  0.571428578124999 10.28571428125  C 0.571428578124999 9.65453171124758  1.08310314874759 9.142857140625  1.71428571875 9.142857140625  C 2.34546828875241 9.142857140625  2.857142859375 9.65453171124758  2.857142859375 10.28571428125  C 2.857142859375 10.9168968512524  2.34546828875241 11.428571421875  1.71428571875 11.428571421875  Z M 1.71428571875 16  C 1.08310314874759 16  0.571428578124999 15.4883254293774  0.571428578124999 14.857142859375  C 0.571428578124999 14.2259602893726  1.08310314874759 13.71428571875  1.71428571875 13.71428571875  C 2.34546828875241 13.71428571875  2.857142859375 14.2259602893726  2.857142859375 14.857142859375  C 2.857142859375 15.4883254293774  2.34546828875241 16  1.71428571875 16  Z M 6.28571428125 2.28571428125  C 5.65453171124759 2.28571428125  5.142857140625 1.77403971062741  5.142857140625 1.142857140625  C 5.142857140625 0.511674570622586  5.65453171124759 0  6.28571428125 0  C 6.91689685125241 0  7.428571421875 0.511674570622586  7.428571421875 1.142857140625  C 7.428571421875 1.77403971062741  6.91689685125241 2.28571428125  6.28571428125 2.28571428125  Z M 6.2857142471902 6.857142859375  C 5.65453167718779 6.857142859375  5.1428571065652 6.34546828875241  5.1428571065652 5.71428571875  C 5.1428571065652 5.08310314874759  5.65453167718779 4.571428578125  6.2857142471902 4.571428578125  C 6.91689681719262 4.571428578125  7.4285713878152 5.08310314874759  7.4285713878152 5.71428571875  C 7.4285713878152 6.34546828875241  6.91689681719262 6.857142859375  6.2857142471902 6.857142859375  Z M 6.28571428125 11.428571421875  C 5.65453171124759 11.428571421875  5.142857140625 10.9168968512524  5.142857140625 10.28571428125  C 5.142857140625 9.65453171124759  5.65453171124759 9.142857140625  6.28571428125 9.142857140625  C 6.91689685125241 9.142857140625  7.428571421875 9.65453171124759  7.428571421875 10.28571428125  C 7.428571421875 10.9168968512524  6.91689685125241 11.428571421875  6.28571428125 11.428571421875  Z M 6.28571428125 16  C 5.65453171124759 16  5.142857140625 15.4883254293774  5.142857140625 14.857142859375  C 5.142857140625 14.2259602893726  5.65453171124759 13.71428571875  6.28571428125 13.71428571875  C 6.91689685125241 13.71428571875  7.428571421875 14.2259602893726  7.428571421875 14.857142859375  C 7.428571421875 15.4883254293774  6.91689685125241 16  6.28571428125 16  Z M 1.71428571875 2.28571428125  C 1.08310314874759 2.28571428125  0.571428578124999 1.77403971062741  0.571428578124999 1.142857140625  C 0.571428578124999 0.511674570622586  1.08310314874759 0  1.71428571875 0  C 2.34546828875241 0  2.857142859375 0.511674570622586  2.857142859375 1.142857140625  C 2.857142859375 1.77403971062741  2.34546828875241 2.28571428125  1.71428571875 2.28571428125  Z " fill-rule="nonzero" fill="#666666" stroke="none" transform="matrix(1 0 0 1 11 40 )" />
  </g>
</svg>