<?xml version="1.0" encoding="utf-8"?>
<svg version="1.1" xmlns:xlink="http://www.w3.org/1999/xlink" width="12px" height="12px" viewBox="512 215  12 12" xmlns="http://www.w3.org/2000/svg">
  <path d="M 512.5 216  A 0.5 0.5 0 0 1 513 215.5 L 523 215.5  A 0.5 0.5 0 0 1 523.5 216 L 523.5 226  A 0.5 0.5 0 0 1 523 226.5 L 513 226.5  A 0.5 0.5 0 0 1 512.5 226 L 512.5 216  Z " fill-rule="nonzero" fill="#ffffff" stroke="none" />
  <path d="M 512.5 216  A 0.5 0.5 0 0 1 513 215.5 L 523 215.5  A 0.5 0.5 0 0 1 523.5 216 L 523.5 226  A 0.5 0.5 0 0 1 523 226.5 L 513 226.5  A 0.5 0.5 0 0 1 512.5 226 L 512.5 216  Z " stroke-width="1" stroke="#999999" fill="none" />
</svg>