<?xml version="1.0" encoding="utf-8"?>
<svg version="1.1" xmlns:xlink="http://www.w3.org/1999/xlink" width="12px" height="12px" viewBox="512 215  12 12" xmlns="http://www.w3.org/2000/svg">
  <path d="M 512.5 216  A 0.5 0.5 0 0 1 513 215.5 L 523 215.5  A 0.5 0.5 0 0 1 523.5 216 L 523.5 226  A 0.5 0.5 0 0 1 523 226.5 L 513 226.5  A 0.5 0.5 0 0 1 512.5 226 L 512.5 216  Z " fill-rule="nonzero" fill="#ffffff" stroke="none" />
  <path d="M 512.5 216  A 0.5 0.5 0 0 1 513 215.5 L 523 215.5  A 0.5 0.5 0 0 1 523.5 216 L 523.5 226  A 0.5 0.5 0 0 1 523 226.5 L 513 226.5  A 0.5 0.5 0 0 1 512.5 226 L 512.5 216  Z " stroke-width="1" stroke="#0070cc" fill="none" />
  <path d="M 514.571428571429 221  L 517.142857142857 223.571428571429  " stroke-width="2.57142857142857" stroke="#0070cc" fill="none" />
  <path d="M 517.142857142857 223.571428571429  L 521.428571428571 217.571428571429  " stroke-width="2.57142857142857" stroke="#0070cc" fill="none" />
</svg>