<?xml version="1.0" encoding="utf-8"?>
<svg version="1.1" xmlns:xlink="http://www.w3.org/1999/xlink" width="12px" height="12px" viewBox="512 40  12 12" xmlns="http://www.w3.org/2000/svg">
  <path d="M 512.5 41  A 0.5 0.5 0 0 1 513 40.5 L 523 40.5  A 0.5 0.5 0 0 1 523.5 41 L 523.5 51  A 0.5 0.5 0 0 1 523 51.5 L 513 51.5  A 0.5 0.5 0 0 1 512.5 51 L 512.5 41  Z " fill-rule="nonzero" fill="#ffffff" stroke="none" />
  <path d="M 512.5 41  A 0.5 0.5 0 0 1 513 40.5 L 523 40.5  A 0.5 0.5 0 0 1 523.5 41 L 523.5 51  A 0.5 0.5 0 0 1 523 51.5 L 513 51.5  A 0.5 0.5 0 0 1 512.5 51 L 512.5 41  Z " stroke-width="1" stroke="#999999" fill="none" />
</svg>