<?xml version="1.0" encoding="utf-8"?>
<svg version="1.1" xmlns:xlink="http://www.w3.org/1999/xlink" width="12px" height="12px" viewBox="512 75  12 12" xmlns="http://www.w3.org/2000/svg">
  <path d="M 512.5 76  A 0.5 0.5 0 0 1 513 75.5 L 523 75.5  A 0.5 0.5 0 0 1 523.5 76 L 523.5 86  A 0.5 0.5 0 0 1 523 86.5 L 513 86.5  A 0.5 0.5 0 0 1 512.5 86 L 512.5 76  Z " fill-rule="nonzero" fill="#ffffff" stroke="none" />
  <path d="M 512.5 76  A 0.5 0.5 0 0 1 513 75.5 L 523 75.5  A 0.5 0.5 0 0 1 523.5 76 L 523.5 86  A 0.5 0.5 0 0 1 523 86.5 L 513 86.5  A 0.5 0.5 0 0 1 512.5 86 L 512.5 76  Z " stroke-width="1" stroke="#0070cc" fill="none" />
  <path d="M 514.571428571429 81  L 517.142857142857 83.5714285714286  " stroke-width="2.57142857142857" stroke="#0070cc" fill="none" />
  <path d="M 517.142857142857 83.5714285714286  L 521.428571428571 77.5714285714286  " stroke-width="2.57142857142857" stroke="#0070cc" fill="none" />
</svg>