<?xml version="1.0" encoding="utf-8"?>
<svg version="1.1" xmlns:xlink="http://www.w3.org/1999/xlink" width="12px" height="12px" viewBox="1650 323.5  12 12" xmlns="http://www.w3.org/2000/svg">
  <path d="M 1650.5 324.5  A 0.5 0.5 0 0 1 1651 324 L 1661 324  A 0.5 0.5 0 0 1 1661.5 324.5 L 1661.5 334.5  A 0.5 0.5 0 0 1 1661 335 L 1651 335  A 0.5 0.5 0 0 1 1650.5 334.5 L 1650.5 324.5  Z " fill-rule="nonzero" fill="#ffffff" stroke="none" />
  <path d="M 1650.5 324.5  A 0.5 0.5 0 0 1 1651 324 L 1661 324  A 0.5 0.5 0 0 1 1661.5 324.5 L 1661.5 334.5  A 0.5 0.5 0 0 1 1661 335 L 1651 335  A 0.5 0.5 0 0 1 1650.5 334.5 L 1650.5 324.5  Z " stroke-width="1" stroke="#0070cc" fill="none" />
  <path d="M 1652.57142857143 329.5  L 1655.14285714286 332.071428571429  " stroke-width="2.57142857142857" stroke="#0070cc" fill="none" />
  <path d="M 1655.14285714286 332.071428571429  L 1659.42857142857 326.071428571429  " stroke-width="2.57142857142857" stroke="#0070cc" fill="none" />
</svg>