<?xml version="1.0" encoding="utf-8"?>
<svg version="1.1" xmlns:xlink="http://www.w3.org/1999/xlink" width="12px" height="12px" viewBox="318 1213  12 12" xmlns="http://www.w3.org/2000/svg">
  <path d="M 318.5 1214  A 0.5 0.5 0 0 1 319 1213.5 L 329 1213.5  A 0.5 0.5 0 0 1 329.5 1214 L 329.5 1224  A 0.5 0.5 0 0 1 329 1224.5 L 319 1224.5  A 0.5 0.5 0 0 1 318.5 1224 L 318.5 1214  Z " fill-rule="nonzero" fill="#ffffff" stroke="none" />
  <path d="M 318.5 1214  A 0.5 0.5 0 0 1 319 1213.5 L 329 1213.5  A 0.5 0.5 0 0 1 329.5 1214 L 329.5 1224  A 0.5 0.5 0 0 1 329 1224.5 L 319 1224.5  A 0.5 0.5 0 0 1 318.5 1224 L 318.5 1214  Z " stroke-width="1" stroke="#999999" fill="none" />
</svg>