<?xml version="1.0" encoding="utf-8"?>
<svg version="1.1" xmlns:xlink="http://www.w3.org/1999/xlink" width="12px" height="12px" viewBox="318 1274  12 12" xmlns="http://www.w3.org/2000/svg">
  <path d="M 318.5 1275  A 0.5 0.5 0 0 1 319 1274.5 L 329 1274.5  A 0.5 0.5 0 0 1 329.5 1275 L 329.5 1285  A 0.5 0.5 0 0 1 329 1285.5 L 319 1285.5  A 0.5 0.5 0 0 1 318.5 1285 L 318.5 1275  Z " fill-rule="nonzero" fill="#ffffff" stroke="none" />
  <path d="M 318.5 1275  A 0.5 0.5 0 0 1 319 1274.5 L 329 1274.5  A 0.5 0.5 0 0 1 329.5 1275 L 329.5 1285  A 0.5 0.5 0 0 1 329 1285.5 L 319 1285.5  A 0.5 0.5 0 0 1 318.5 1285 L 318.5 1275  Z " stroke-width="1" stroke="#999999" fill="none" />
</svg>