<?xml version="1.0" encoding="utf-8"?>
<svg version="1.1" xmlns:xlink="http://www.w3.org/1999/xlink" width="12px" height="12px" viewBox="318 1362  12 12" xmlns="http://www.w3.org/2000/svg">
  <path d="M 318.5 1363  A 0.5 0.5 0 0 1 319 1362.5 L 329 1362.5  A 0.5 0.5 0 0 1 329.5 1363 L 329.5 1373  A 0.5 0.5 0 0 1 329 1373.5 L 319 1373.5  A 0.5 0.5 0 0 1 318.5 1373 L 318.5 1363  Z " fill-rule="nonzero" fill="#ffffff" stroke="none" />
  <path d="M 318.5 1363  A 0.5 0.5 0 0 1 319 1362.5 L 329 1362.5  A 0.5 0.5 0 0 1 329.5 1363 L 329.5 1373  A 0.5 0.5 0 0 1 329 1373.5 L 319 1373.5  A 0.5 0.5 0 0 1 318.5 1373 L 318.5 1363  Z " stroke-width="1" stroke="#999999" fill="none" />
</svg>