<?xml version="1.0" encoding="utf-8"?>
<svg version="1.1" xmlns:xlink="http://www.w3.org/1999/xlink" width="12px" height="12px" viewBox="318 1245  12 12" xmlns="http://www.w3.org/2000/svg">
  <path d="M 318.5 1246  A 0.5 0.5 0 0 1 319 1245.5 L 329 1245.5  A 0.5 0.5 0 0 1 329.5 1246 L 329.5 1256  A 0.5 0.5 0 0 1 329 1256.5 L 319 1256.5  A 0.5 0.5 0 0 1 318.5 1256 L 318.5 1246  Z " fill-rule="nonzero" fill="#ffffff" stroke="none" />
  <path d="M 318.5 1246  A 0.5 0.5 0 0 1 319 1245.5 L 329 1245.5  A 0.5 0.5 0 0 1 329.5 1246 L 329.5 1256  A 0.5 0.5 0 0 1 329 1256.5 L 319 1256.5  A 0.5 0.5 0 0 1 318.5 1256 L 318.5 1246  Z " stroke-width="1" stroke="#0070cc" fill="none" />
  <path d="M 320.571428571429 1251  L 323.142857142857 1253.57142857143  " stroke-width="2.57142857142857" stroke="#0070cc" fill="none" />
  <path d="M 323.142857142857 1253.57142857143  L 327.428571428571 1247.57142857143  " stroke-width="2.57142857142857" stroke="#0070cc" fill="none" />
</svg>