<?xml version="1.0" encoding="utf-8"?>
<svg version="1.1" xmlns:xlink="http://www.w3.org/1999/xlink" width="12px" height="12px" viewBox="245 570  12 12" xmlns="http://www.w3.org/2000/svg">
  <path d="M 245.5 571  A 0.5 0.5 0 0 1 246 570.5 L 256 570.5  A 0.5 0.5 0 0 1 256.5 571 L 256.5 581  A 0.5 0.5 0 0 1 256 581.5 L 246 581.5  A 0.5 0.5 0 0 1 245.5 581 L 245.5 571  Z " fill-rule="nonzero" fill="#ffffff" stroke="none" />
  <path d="M 245.5 571  A 0.5 0.5 0 0 1 246 570.5 L 256 570.5  A 0.5 0.5 0 0 1 256.5 571 L 256.5 581  A 0.5 0.5 0 0 1 256 581.5 L 246 581.5  A 0.5 0.5 0 0 1 245.5 581 L 245.5 571  Z " stroke-width="1" stroke="#999999" fill="none" />
</svg>