<?xml version="1.0" encoding="utf-8"?>
<svg version="1.1" xmlns:xlink="http://www.w3.org/1999/xlink" width="12px" height="12px" viewBox="245 690  12 12" xmlns="http://www.w3.org/2000/svg">
  <path d="M 245.5 691  A 0.5 0.5 0 0 1 246 690.5 L 256 690.5  A 0.5 0.5 0 0 1 256.5 691 L 256.5 701  A 0.5 0.5 0 0 1 256 701.5 L 246 701.5  A 0.5 0.5 0 0 1 245.5 701 L 245.5 691  Z " fill-rule="nonzero" fill="#ffffff" stroke="none" />
  <path d="M 245.5 691  A 0.5 0.5 0 0 1 246 690.5 L 256 690.5  A 0.5 0.5 0 0 1 256.5 691 L 256.5 701  A 0.5 0.5 0 0 1 256 701.5 L 246 701.5  A 0.5 0.5 0 0 1 245.5 701 L 245.5 691  Z " stroke-width="1" stroke="#0070cc" fill="none" />
  <path d="M 247.571428571429 696  L 250.142857142857 698.571428571429  " stroke-width="2.57142857142857" stroke="#0070cc" fill="none" />
  <path d="M 250.142857142857 698.571428571429  L 254.428571428571 692.571428571429  " stroke-width="2.57142857142857" stroke="#0070cc" fill="none" />
</svg>