<?xml version="1.0" encoding="utf-8"?>
<svg version="1.1" xmlns:xlink="http://www.w3.org/1999/xlink" width="12px" height="12px" viewBox="245 780  12 12" xmlns="http://www.w3.org/2000/svg">
  <path d="M 245.5 781  A 0.5 0.5 0 0 1 246 780.5 L 256 780.5  A 0.5 0.5 0 0 1 256.5 781 L 256.5 791  A 0.5 0.5 0 0 1 256 791.5 L 246 791.5  A 0.5 0.5 0 0 1 245.5 791 L 245.5 781  Z " fill-rule="nonzero" fill="#ffffff" stroke="none" />
  <path d="M 245.5 781  A 0.5 0.5 0 0 1 246 780.5 L 256 780.5  A 0.5 0.5 0 0 1 256.5 781 L 256.5 791  A 0.5 0.5 0 0 1 256 791.5 L 246 791.5  A 0.5 0.5 0 0 1 245.5 791 L 245.5 781  Z " stroke-width="1" stroke="#0070cc" fill="none" />
  <path d="M 247.571428571429 786  L 250.142857142857 788.571428571429  " stroke-width="2.57142857142857" stroke="#0070cc" fill="none" />
  <path d="M 250.142857142857 788.571428571429  L 254.428571428571 782.571428571429  " stroke-width="2.57142857142857" stroke="#0070cc" fill="none" />
</svg>