<?xml version="1.0" encoding="utf-8"?>
<svg version="1.1" xmlns:xlink="http://www.w3.org/1999/xlink" width="12px" height="12px" viewBox="432 822.5  12 12" xmlns="http://www.w3.org/2000/svg">
  <path d="M 432.5 823.5  A 0.5 0.5 0 0 1 433 823 L 443 823  A 0.5 0.5 0 0 1 443.5 823.5 L 443.5 833.5  A 0.5 0.5 0 0 1 443 834 L 433 834  A 0.5 0.5 0 0 1 432.5 833.5 L 432.5 823.5  Z " fill-rule="nonzero" fill="#ffffff" stroke="none" />
  <path d="M 432.5 823.5  A 0.5 0.5 0 0 1 433 823 L 443 823  A 0.5 0.5 0 0 1 443.5 823.5 L 443.5 833.5  A 0.5 0.5 0 0 1 443 834 L 433 834  A 0.5 0.5 0 0 1 432.5 833.5 L 432.5 823.5  Z " stroke-width="1" stroke="#0070cc" fill="none" />
  <path d="M 434.571428571429 828.5  L 437.142857142857 831.071428571429  " stroke-width="2.57142857142857" stroke="#0070cc" fill="none" />
  <path d="M 437.142857142857 831.071428571429  L 441.428571428571 825.071428571429  " stroke-width="2.57142857142857" stroke="#0070cc" fill="none" />
</svg>