<?xml version="1.0" encoding="utf-8"?>
<svg version="1.1" xmlns:xlink="http://www.w3.org/1999/xlink" width="12px" height="12px" viewBox="432 459.5  12 12" xmlns="http://www.w3.org/2000/svg">
  <path d="M 432.5 460.5  A 0.5 0.5 0 0 1 433 460 L 443 460  A 0.5 0.5 0 0 1 443.5 460.5 L 443.5 470.5  A 0.5 0.5 0 0 1 443 471 L 433 471  A 0.5 0.5 0 0 1 432.5 470.5 L 432.5 460.5  Z " fill-rule="nonzero" fill="#ffffff" stroke="none" />
  <path d="M 432.5 460.5  A 0.5 0.5 0 0 1 433 460 L 443 460  A 0.5 0.5 0 0 1 443.5 460.5 L 443.5 470.5  A 0.5 0.5 0 0 1 443 471 L 433 471  A 0.5 0.5 0 0 1 432.5 470.5 L 432.5 460.5  Z " stroke-width="1" stroke="#999999" fill="none" />
</svg>