<?xml version="1.0" encoding="utf-8"?>
<svg version="1.1" xmlns:xlink="http://www.w3.org/1999/xlink" width="12px" height="12px" viewBox="432 822.5  12 12" xmlns="http://www.w3.org/2000/svg">
  <path d="M 432.5 823.5  A 0.5 0.5 0 0 1 433 823 L 443 823  A 0.5 0.5 0 0 1 443.5 823.5 L 443.5 833.5  A 0.5 0.5 0 0 1 443 834 L 433 834  A 0.5 0.5 0 0 1 432.5 833.5 L 432.5 823.5  Z " fill-rule="nonzero" fill="#ffffff" stroke="none" />
  <path d="M 432.5 823.5  A 0.5 0.5 0 0 1 433 823 L 443 823  A 0.5 0.5 0 0 1 443.5 823.5 L 443.5 833.5  A 0.5 0.5 0 0 1 443 834 L 433 834  A 0.5 0.5 0 0 1 432.5 833.5 L 432.5 823.5  Z " stroke-width="1" stroke="#999999" fill="none" />
</svg>