<?xml version="1.0" encoding="utf-8"?>
<svg version="1.1" xmlns:xlink="http://www.w3.org/1999/xlink" width="12px" height="12px" viewBox="-959 1120.5  12 12" xmlns="http://www.w3.org/2000/svg">
  <path d="M -958.5 1121.5  A 0.5 0.5 0 0 1 -958 1121 L -948 1121  A 0.5 0.5 0 0 1 -947.5 1121.5 L -947.5 1131.5  A 0.5 0.5 0 0 1 -948 1132 L -958 1132  A 0.5 0.5 0 0 1 -958.5 1131.5 L -958.5 1121.5  Z " fill-rule="nonzero" fill="#ffffff" stroke="none" />
  <path d="M -958.5 1121.5  A 0.5 0.5 0 0 1 -958 1121 L -948 1121  A 0.5 0.5 0 0 1 -947.5 1121.5 L -947.5 1131.5  A 0.5 0.5 0 0 1 -948 1132 L -958 1132  A 0.5 0.5 0 0 1 -958.5 1131.5 L -958.5 1121.5  Z " stroke-width="1" stroke="#0070cc" fill="none" />
  <path d="M -956.428571428571 1126.5  L -953.857142857143 1129.07142857143  " stroke-width="2.57142857142857" stroke="#0070cc" fill="none" />
  <path d="M -953.857142857143 1129.07142857143  L -949.571428571429 1123.07142857143  " stroke-width="2.57142857142857" stroke="#0070cc" fill="none" />
</svg>