<?xml version="1.0" encoding="utf-8"?>
<svg version="1.1" xmlns:xlink="http://www.w3.org/1999/xlink" width="12px" height="12px" viewBox="-1778 2342.5  12 12" xmlns="http://www.w3.org/2000/svg">
  <path d="M -1777.5 2343.5  A 0.5 0.5 0 0 1 -1777 2343 L -1767 2343  A 0.5 0.5 0 0 1 -1766.5 2343.5 L -1766.5 2353.5  A 0.5 0.5 0 0 1 -1767 2354 L -1777 2354  A 0.5 0.5 0 0 1 -1777.5 2353.5 L -1777.5 2343.5  Z " fill-rule="nonzero" fill="#ffffff" stroke="none" />
  <path d="M -1777.5 2343.5  A 0.5 0.5 0 0 1 -1777 2343 L -1767 2343  A 0.5 0.5 0 0 1 -1766.5 2343.5 L -1766.5 2353.5  A 0.5 0.5 0 0 1 -1767 2354 L -1777 2354  A 0.5 0.5 0 0 1 -1777.5 2353.5 L -1777.5 2343.5  Z " stroke-width="1" stroke="#999999" fill="none" />
</svg>