<?xml version="1.0" encoding="utf-8"?>
<svg version="1.1" xmlns:xlink="http://www.w3.org/1999/xlink" width="12px" height="12px" viewBox="-937 1459.5  12 12" xmlns="http://www.w3.org/2000/svg">
  <path d="M -936.5 1460.5  A 0.5 0.5 0 0 1 -936 1460 L -926 1460  A 0.5 0.5 0 0 1 -925.5 1460.5 L -925.5 1470.5  A 0.5 0.5 0 0 1 -926 1471 L -936 1471  A 0.5 0.5 0 0 1 -936.5 1470.5 L -936.5 1460.5  Z " fill-rule="nonzero" fill="#ffffff" stroke="none" />
  <path d="M -936.5 1460.5  A 0.5 0.5 0 0 1 -936 1460 L -926 1460  A 0.5 0.5 0 0 1 -925.5 1460.5 L -925.5 1470.5  A 0.5 0.5 0 0 1 -926 1471 L -936 1471  A 0.5 0.5 0 0 1 -936.5 1470.5 L -936.5 1460.5  Z " stroke-width="1" stroke="#0070cc" fill="none" />
  <path d="M -934.428571428571 1465.5  L -931.857142857143 1468.07142857143  " stroke-width="2.57142857142857" stroke="#0070cc" fill="none" />
  <path d="M -931.857142857143 1468.07142857143  L -927.571428571429 1462.07142857143  " stroke-width="2.57142857142857" stroke="#0070cc" fill="none" />
</svg>