<?xml version="1.0" encoding="utf-8"?>
<svg version="1.1" xmlns:xlink="http://www.w3.org/1999/xlink" width="12px" height="12px" viewBox="-1005 2347.5  12 12" xmlns="http://www.w3.org/2000/svg">
  <path d="M -1004.5 2348.5  A 0.5 0.5 0 0 1 -1004 2348 L -994 2348  A 0.5 0.5 0 0 1 -993.5 2348.5 L -993.5 2358.5  A 0.5 0.5 0 0 1 -994 2359 L -1004 2359  A 0.5 0.5 0 0 1 -1004.5 2358.5 L -1004.5 2348.5  Z " fill-rule="nonzero" fill="#ffffff" stroke="none" />
  <path d="M -1004.5 2348.5  A 0.5 0.5 0 0 1 -1004 2348 L -994 2348  A 0.5 0.5 0 0 1 -993.5 2348.5 L -993.5 2358.5  A 0.5 0.5 0 0 1 -994 2359 L -1004 2359  A 0.5 0.5 0 0 1 -1004.5 2358.5 L -1004.5 2348.5  Z " stroke-width="1" stroke="#0070cc" fill="none" />
  <path d="M -1002.42857142857 2353.5  L -999.857142857143 2356.07142857143  " stroke-width="2.57142857142857" stroke="#0070cc" fill="none" />
  <path d="M -999.857142857143 2356.07142857143  L -995.571428571429 2350.07142857143  " stroke-width="2.57142857142857" stroke="#0070cc" fill="none" />
</svg>