<?xml version="1.0" encoding="utf-8"?>
<svg version="1.1" xmlns:xlink="http://www.w3.org/1999/xlink" width="12px" height="12px" viewBox="-146 2046.5  12 12" xmlns="http://www.w3.org/2000/svg">
  <path d="M -145.5 2047.5  A 0.5 0.5 0 0 1 -145 2047 L -135 2047  A 0.5 0.5 0 0 1 -134.5 2047.5 L -134.5 2057.5  A 0.5 0.5 0 0 1 -135 2058 L -145 2058  A 0.5 0.5 0 0 1 -145.5 2057.5 L -145.5 2047.5  Z " fill-rule="nonzero" fill="#ffffff" stroke="none" />
  <path d="M -145.5 2047.5  A 0.5 0.5 0 0 1 -145 2047 L -135 2047  A 0.5 0.5 0 0 1 -134.5 2047.5 L -134.5 2057.5  A 0.5 0.5 0 0 1 -135 2058 L -145 2058  A 0.5 0.5 0 0 1 -145.5 2057.5 L -145.5 2047.5  Z " stroke-width="1" stroke="#0070cc" fill="none" />
  <path d="M -143.428571428571 2052.5  L -140.857142857143 2055.07142857143  " stroke-width="2.57142857142857" stroke="#0070cc" fill="none" />
  <path d="M -140.857142857143 2055.07142857143  L -136.571428571429 2049.07142857143  " stroke-width="2.57142857142857" stroke="#0070cc" fill="none" />
</svg>