<?xml version="1.0" encoding="utf-8"?>
<svg version="1.1" xmlns:xlink="http://www.w3.org/1999/xlink" width="12px" height="12px" xmlns="http://www.w3.org/2000/svg">
  <g transform="matrix(1 0 0 1 -3711 -1357 )">
    <path d="M 11.204890625 9.473828125  C 11.552 9.407984375  12.8244375 8.51509375  10.857796875 5.424421875  C 10.857796875 5.424421875  11.188296875 4.697328125  10.57659375 3.887328125  C 10.57659375 3.887328125  10.37828125 0.036609375  6.345875 0.036609375  C 2.31353125 0.036609375  2.131515625 3.804890625  2.131515625 3.804890625  C 1.453984375 4.366890625  1.751140625 5.309015625  1.751140625 5.309015625  C -0.298015625 6.895609375  0.0324062499999999 9.0934375  0.577828125 9.341359375  C 1.123171875 9.58921875  1.5365 8.91175  1.5365 8.91175  C 1.5365 8.91175  1.701515625 9.506390625  2.16440625 9.787578125  C 1.371140625 10.102046875  1.5365 10.928  1.5365 10.928  C 1.5365 10.928  2.044390625 12.915421875  6.130984375 11.440453125  L 6.4946875 11.506625  C 10.75834375 12.642828125  10.97325 10.8454375  10.97325 10.8454375  C 10.97325 10.8454375  11.15540625 10.250078125  10.130359375 9.771296875  C 10.411625 9.539328125  10.52703125 9.0935  10.52703125 9.0935  C 10.52703125 9.0935  10.857796875 9.53965625  11.204890625 9.473828125  Z M 9.997921875 5.538875  C 11.550296875 7.87621875  11.148125 8.533609375  11.148125 8.533609375  C 11.148125 8.533609375  10.647375 8.131234375  10.608546875 7.999453125  C 10.569671875 7.867609375  10.13690625 7.733828125  9.93621875 8.202953125  C 9.73540625 8.6719375  9.59996875 9.1250625  9.256890625 9.35340625  C 8.913875 9.581734375  9.013671875 9.75275  9.401421875 9.915109375  C 9.7891875 10.07734375  10.211 10.3573125  10.1355 10.499953125  C 10.06 10.64259375  8.9295 11.386109375  6.63678125 10.5888125  L 5.9398125 10.495859375  C 4.625671875 11.518625  2.435671875 10.941359375  2.37725 10.480296875  C 2.31878125 10.019234375  2.997734375 10.00934375  2.997734375 10.00934375  C 2.997734375 10.00934375  3.64178125 9.765453125  3.02496875 9.3831875  C 2.408140625 9.000921875  2.20665625 8.02503125  2.20665625 8.02503125  C 2.20665625 8.02503125  1.88134375 7.529421875  1.672234375 7.955328125  C 1.463140625 8.38115625  0.9248125 8.359375  0.9248125 8.359375  C 0.9248125 8.359375  0.84375 6.700984375  2.686953125 5.570125  C 2.686953125 5.570125  2.129328125 4.857109375  2.965765625 4.144828125  C 2.965765625 4.144828125  2.903015625 0.984921875  6.264703125 0.984921875  C 9.62646875 0.984921875  9.7655 4.26896875  9.7655 4.26896875  C 10.33478125 4.838546875  9.997921875 5.538875  9.997921875 5.538875  Z " fill-rule="nonzero" fill="#ffffff" stroke="none" transform="matrix(1 0 0 1 3711 1357 )" />
  </g>
</svg>