<?xml version="1.0" encoding="utf-8"?>
<svg version="1.1" xmlns:xlink="http://www.w3.org/1999/xlink" width="18px" height="16px" xmlns="http://www.w3.org/2000/svg">
  <g transform="matrix(1 0 0 1 -10 -107 )">
    <path d="M 5.86336778991943 15.3844681383885  C 5.69495471833182 15.4977348272634  5.49674797315351 15.5585426969956  5.29379019024172 15.5592089145031  C 5.12854236467323 15.5592089145031  4.96399772932856 15.5198307167234  4.81386831743957 15.4389647649955  C 4.48023547570869 15.2619706703826  4.27166172050815 14.9151593196995  4.27171481371531 14.5374851482363  L 4.27171481371531 12.8234784663563  L 3.02075364472695 12.8234784663563  C 1.63970375059982 12.8234784663563  0.515666965085049 11.6994416808415  0.515666965085049 10.318391801701  L 0.515666965085049 2.77008220336616  C 0.515666965085049 1.38903230923903  1.63970375059982 0.264995523724261  3.02075364472695 0.264995523724261  L 3.72604541801253 0.264995523724261  C 4.01786604692928 0.264995523724261  4.25343208818263 0.500561564977618  4.25343208818263 0.792382193894359  C 4.25343208818263 1.0842028228111  4.01786603178156 1.31976886406446  3.72604541801253 1.31976886406446  L 3.02075364472695 1.31976886406446  C 2.22024944610171 1.32093069771119  1.57160213907198 1.96957800474092  1.57044030542525 2.77008220336616  L 1.57044030542525 10.318391801701  C 1.5716021390722 11.118896000389  2.22024944619993 11.7675433074447  3.02075364488809 11.7687051410027  L 4.30300642689346 11.7687051410027  C 4.86704789084205 11.7692865261361  5.32414881474011 12.2263874433294  5.32473020814682 12.7904289072695  L 5.32473020814682 14.4745503419158  L 9.34130707251567 11.7687051410027  L 14.8869536867323 11.7687051410027  C 15.6874578853576 11.767543307356  16.3361051923873 11.1188960003262  16.337267026034 10.318391801701  L 16.337267026034 2.77008220336616  C 16.3361051923873 1.96957800474093  15.6874578853576 1.32093069771119  14.8869536867323 1.31976886406446  L 6.90231952603402 1.31976886406446  C 6.61049889711728 1.31976886406446  6.37493285586392 1.0842028228111  6.37493285586392 0.792382193894359  C 6.37493285586392 0.500561564977618  6.61049889711728 0.264995523724261  6.90231952603402 0.264995523724261  L 14.8869536867323 0.264995523724261  C 16.2680035810206 0.264995523724261  17.3920403665354 1.38903230923903  17.3920403665354 2.77008220336616  L 17.3920403665354 10.318391801701  C 17.3920403665354 11.6994416959893  16.2680035810206 12.823478481504  14.8869536867323 12.8234784663563  L 9.66406771933751 12.8234784663563  L 5.86336778991943 15.3844681383885  Z " fill-rule="nonzero" fill="#ffffff" stroke="none" transform="matrix(1 0 0 1 10 107 )" />
  </g>
</svg>