<svg t="1590462733975" class="icon" viewBox="0 0 1024 1024" version="1.1" xmlns="http://www.w3.org/2000/svg" p-id="1422" width="200" height="200"><path d="M213.899566 306.195189c24.31445 42.663193 31.007053 93.369554 37.519008 145.426478C354.457132 320.806225 449.529945 187.728374 439.435125 6.813035c75.038015 32.185571 131.017596 84.55648 177.0572 148.716865 45.450344 63.343165 74.564888 134.44562 97.021237 213.664361 47.8848-54.362345 38.349131-111.843031 24.056381-170.0076l5.466773-5.256016c12.202387 14.236835 24.271439 28.594103 36.632969 42.693302 70.371258 80.255321 124.509943 169.534473 150.329798 274.069834 32.697409 132.350955 2.365637 249.105909-88.23397 350.759495-97.816952 109.76127-220.877404 163.835437-366.961959 162.523584-96.380365-0.864533-181.169107-37.071687-255.854428-97.55028-43.742784-35.424343-84.11346-73.881004-109.39137-125.163719-37.166313-75.399313-33.368389-153.00512-5.97861-229.527035 16.099237-44.968615 39.742707-87.180186 58.216183-131.374593 18.628318-44.547101 35.067347-90.018951 52.104237-134.166044z" fill="#FF0000" p-id="1423"></path><path d="M376.552185 629.788565H280.356769v-91.231878H232.256911v226.116216h48.099858v-93.279229h96.195416v93.279229h48.099858v-226.116216H376.552185zM552.215808 534.763065c-33.914637 0-61.196886 11.118495-81.842448 33.355486-20.649863 22.241292-30.972644 51.067658-30.972644 86.4877 0 33.48022 10.103422 60.848493 30.318868 82.113422 20.211145 21.260628 46.499827 31.893092 78.853143 31.893092 33.136127 0 59.932346-10.972256 80.384356-32.912467 20.456311-21.948813 30.684466-50.530013 30.684466-85.760804 0-33.768397-9.841051-61.403342-29.514551-82.909136-19.682102-21.510095-45.652499-32.267293-77.91119-32.267293z m41.248113 172.033446c-10.490526 13.376604-25.170381 20.069207-44.013758 20.069207-18.464874 0-32.994189-6.980781-43.583641-20.946643-10.589453-13.961561-15.88848-31.944706-15.88848-53.936531 0-22.284303 5.415159-40.435193 16.254078-54.448368 10.834619-14.013175 25.677918-21.019763 44.529897-21.019763 18.555199 0 32.938274 6.838842 43.140622 20.507925 10.202349 13.677685 15.307824 32.288799 15.307824 55.833342-0.004301 22.581083-5.251715 40.555626-15.746542 53.940831zM652.807008 538.556687v39.411518h64.280817v186.704698h48.246097v-186.704698h64.422756v-39.411518z" fill="#FFFFFF" p-id="1424"></path></svg>