<?xml version="1.0" encoding="utf-8"?>
<svg version="1.1" xmlns:xlink="http://www.w3.org/1999/xlink" width="4px" height="4px" xmlns="http://www.w3.org/2000/svg">
  <g transform="matrix(1 0 0 1 -12 -37 )">
    <path d="M 3.7115234375 2.083984375  C 3.7115234375 1.254296875  3.0365234375 0.579296874999999  2.2068359375 0.579296874999999  C 1.3771484375 0.579296874999999  0.7021484375 1.254296875  0.7021484375 2.083984375  C 0.7021484375 2.913671875  1.3771484375 3.588671875  2.2068359375 3.588671875  C 3.0365234375 3.588671875  3.7115234375 2.913671875  3.7115234375 2.083984375  Z M 2.851953125 2.0857421875  C 2.851953125 2.4408203125  2.5619140625 2.730859375  2.2068359375 2.730859375  C 1.8517578125 2.730859375  1.56171875 2.4408203125  1.56171875 2.0857421875  C 1.56171875 1.7306640625  1.8517578125 1.440625  2.2068359375 1.440625  C 2.5619140625 1.440625  2.851953125 1.7306640625  2.851953125 2.0857421875  Z " fill-rule="nonzero" fill="#ffffff" stroke="none" transform="matrix(1 0 0 1 12 37 )" />
  </g>
</svg>