<?xml version="1.0" encoding="utf-8"?>
<svg version="1.1" xmlns:xlink="http://www.w3.org/1999/xlink" width="15px" height="18px" xmlns="http://www.w3.org/2000/svg">
  <g transform="matrix(1 0 0 1 -10 -65 )">
    <path d="M 14.53125 0.41484375  L 13.654296875 0.41484375  L 13.654296875 5.56555397727273  L 1.345703125 5.56555397727273  L 1.345703125 0.41484375  L 0.466796875 0.41484375  L 0.466796875 17.5832386363636  L 1.345703125 17.5832386363636  L 1.345703125 15  L 13.65234375 15  L 13.65234375 17.58515625  L 14.53125 17.58515625  L 14.53125 0.41484375  Z M 13.65234375 14.1507102272727  L 13.654296875 14  L 1.345703125 14  L 1.345703125 10.7162642045455  L 13.65234375 10.7162642045455  L 13.65234375 14.1507102272727  Z M 13.65234375 9.85909090909091  L 13.654296875 9.85909090909091  L 1.345703125 9.85909090909091  L 1.345703125 6.42464488636364  L 13.65234375 6.42464488636364  L 13.65234375 9.85909090909091  Z " fill-rule="nonzero" fill="#ffffff" stroke="none" transform="matrix(1 0 0 1 10 65 )" />
  </g>
</svg>