<?xml version="1.0" encoding="utf-8"?>
<svg version="1.1" xmlns:xlink="http://www.w3.org/1999/xlink" width="18px" height="14px" xmlns="http://www.w3.org/2000/svg">
  <g transform="matrix(1 0 0 1 -8 -23 )">
    <path d="M 17.7873046875 4.3330078125  C 17.8189453125 4.2029296875  17.7890625 4.0693359375  17.708203125 3.9673828125  C 17.62734375 3.863671875  17.5025390625 3.796875  17.370703125 4  L 3.53671875 4  L 2.949609375 0.7119140625  C 2.9109375 0.509765625  2.7333984375 0.369140625  2.5259765625 0.369140625  L 0.59765625 0.369140625  C 0.3603515625 0.369140625  0.16875 0.5625  0.16875 0.7998046875  C 0.16875 1.037109375  0.3603515625 1.23046875  0.59765625 1.23046875  L 2.1708984375 1.23046875  L 2.724609375 4.313671875  C 2.724609375 4.3154296875  2.724609375 4.3171875  2.724609375 4.320703125  L 4.461328125 13.348828125  C 4.5 13.5509765625  4.693359375 13.693359375  4.8990234375 13.693359375  L 15.2208984375 13.693359375  C 15.458203125 13.693359375  15.6515625 13.5  15.6515625 13.2626953125  C 15.6515625 13.025390625  15.458203125 12.83203125  15.2208984375 12.83203125  L 5.2541015625 12.83203125  L 4.988671875 11.475  L 15.7517578125 11.53125  C 15.950390625 11.53125  16.1244140625 11.3642578125  16.1701171875 11.1708984375  L 17.7873046875 4.3330078125  Z M 16.8275390625 4.67578125  L 15.4125 10.6119140625  L 4.8251953125 10.5908203125  L 4.0412109375 6.479296875  L 3.7001953125 4.67578125  L 16.8275390625 4.67578125  Z " fill-rule="nonzero" fill="#ffffff" stroke="none" transform="matrix(1 0 0 1 8 23 )" />
  </g>
</svg>