<?xml version="1.0" encoding="utf-8"?>
<svg version="1.1" xmlns:xlink="http://www.w3.org/1999/xlink" width="18px" height="18px" xmlns="http://www.w3.org/2000/svg">
  <g transform="matrix(1 0 0 1 -8 -205 )">
    <path d="M 16.8073359375 14.2107421875  C 17.328 14.1119765625  19.23665625 12.772640625  16.2866953125 8.1366328125  C 16.2866953125 8.1366328125  16.7824453125 7.0459921875  15.864890625 5.8309921875  C 15.864890625 5.8309921875  15.567421875 0.0549140625  9.5188125 0.0549140625  C 3.470296875 0.0549140625  3.1972734375 5.7073359375  3.1972734375 5.7073359375  C 2.1809765625 6.5503359375  2.6267109375 7.9635234375  2.6267109375 7.9635234375  C -0.4470234375 10.3434140625  0.0486093749999998 13.64015625  0.8667421875 14.0120390625  C 1.6847578125 14.383828125  2.30475 13.367625  2.30475 13.367625  C 2.30475 13.367625  2.5522734375 14.2595859375  3.246609375 14.6813671875  C 2.0567109375 15.1530703125  2.30475 16.392  2.30475 16.392  C 2.30475 16.392  3.0665859375 19.3731328125  9.1964765625 17.1606796875  L 9.74203125 17.2599375  C 16.137515625 18.9642421875  16.459875 16.26815625  16.459875 16.26815625  C 16.459875 16.26815625  16.733109375 15.3751171875  15.1955390625 14.6569453125  C 15.6174375 14.3089921875  15.790546875 13.64025  15.790546875 13.64025  C 15.790546875 13.64025  16.2866953125 14.309484375  16.8073359375 14.2107421875  Z M 14.9968828125 8.3083125  C 17.3254453125 11.814328125  16.7221875 12.8004140625  16.7221875 12.8004140625  C 16.7221875 12.8004140625  15.9710625 12.1968515625  15.9128203125 11.9991796875  C 15.8545078125 11.8014140625  15.205359375 11.6007421875  14.904328125 12.3044296875  C 14.603109375 13.00790625  14.399953125 13.68759375  13.8853359375 14.030109375  C 13.3708125 14.3726015625  13.5205078125 14.629125  14.1021328125 14.8726640625  C 14.68378125 15.116015625  15.3165 15.53596875  15.20325 15.7499296875  C 15.09 15.963890625  13.39425 17.0791640625  9.955171875 15.88321875  L 8.90971875 15.7437890625  C 6.9385078125 17.2779375  3.6535078125 16.4120390625  3.565875 15.7204453125  C 3.478171875 15.0288515625  4.4966015625 15.014015625  4.4966015625 15.014015625  C 4.4966015625 15.014015625  5.462671875 14.6481796875  4.537453125 14.07478125  C 3.6122109375 13.5013828125  3.309984375 12.037546875  3.309984375 12.037546875  C 3.309984375 12.037546875  2.822015625 11.2941328125  2.5083515625 11.9329921875  C 2.1947109375 12.571734375  1.38721875 12.5390625  1.38721875 12.5390625  C 1.38721875 12.5390625  1.265625 10.0514765625  4.0304296875 8.3551875  C 4.0304296875 8.3551875  3.1939921875 7.2856640625  4.4486484375 6.2172421875  C 4.4486484375 6.2172421875  4.3545234375 1.4773828125  9.3970546875 1.4773828125  C 14.439703125 1.4773828125  14.64825 6.403453125  14.64825 6.403453125  C 15.502171875 7.2578203125  14.9968828125 8.3083125  14.9968828125 8.3083125  Z " fill-rule="nonzero" fill="#ffffff" stroke="none" transform="matrix(1 0 0 1 8 205 )" />
  </g>
</svg>