<?xml version="1.0" encoding="utf-8"?>
<svg version="1.1" xmlns:xlink="http://www.w3.org/1999/xlink" width="6px" height="4px" xmlns="http://www.w3.org/2000/svg">
  <g transform="matrix(1 0 0 1 -16 -112 )">
    <path d="M 4.8457654431513 1.86084480080573  L 1.06229348374217 1.86084480080573  C 0.770472854825425 1.86084480080573  0.531390906606983 1.62176283743957  0.531390906445838 1.32994220852283  C 0.531390906284692 1.03812157960609  0.770472869811996 0.799039631387646  1.06229348374217 0.799039631226499  L 4.84541384787825 0.799039631226499  C 5.13723447679499 0.799039631226499  5.37631642501343 1.03812159459266  5.37631642517458 1.32994220852283  C 5.37631642533572 1.621762822453  5.13723446180841 1.86084478565801  4.84541384787825 1.86084480080573  Z M 4.8457654431513 3.97179783244405  L 1.06229348374217 3.97179783244405  C 0.770472854825425 3.97179783244405  0.531390906606983 3.73271586907789  0.531390906445838 3.44089525514772  C 0.531390906445838 3.14942622150403  0.770472869811996 2.91034427312444  1.06229348374217 2.91034427312444  L 4.84541384787825 2.91034427312444  C 5.13723447679499 2.91034427312444  5.37631642501343 3.1494262364906  5.37631642517458 3.44124685042077  C 5.37631642533572 3.73306746435094  5.13723446180841 3.97214942755595  4.84541384787825 3.97214942755595  Z " fill-rule="nonzero" fill="#ffffff" stroke="none" transform="matrix(1 0 0 1 16 112 )" />
  </g>
</svg>