<?xml version="1.0" encoding="utf-8"?>
<svg version="1.1" xmlns:xlink="http://www.w3.org/1999/xlink" width="4px" height="4px" xmlns="http://www.w3.org/2000/svg">
  <g transform="matrix(1 0 0 1 -20 -37 )">
    <path d="M 3.022265625 2.083984375  C 3.022265625 1.254296875  2.3490234375 0.579296874999999  1.517578125 0.579296874999999  C 0.687890625 0.579296874999999  0.0128906249999989 1.254296875  0.0128906249999989 2.083984375  C 0.0128906249999989 2.913671875  0.687890625 3.588671875  1.517578125 3.588671875  C 2.347265625 3.588671875  3.022265625 2.913671875  3.022265625 2.083984375  Z M 2.1626953125 2.0857421875  C 2.1626953125 2.4408203125  1.8744140625 2.730859375  1.517578125 2.730859375  C 1.1625 2.730859375  0.8724609375 2.4408203125  0.8724609375 2.0857421875  C 0.8724609375 1.7306640625  1.1625 1.440625  1.517578125 1.440625  C 1.87265625 1.440625  2.1626953125 1.7306640625  2.1626953125 2.0857421875  Z " fill-rule="nonzero" fill="#ffffff" stroke="none" transform="matrix(1 0 0 1 20 37 )" />
  </g>
</svg>