<?xml version="1.0" encoding="utf-8"?>
<svg version="1.1" xmlns:xlink="http://www.w3.org/1999/xlink" width="15px" height="18px" xmlns="http://www.w3.org/2000/svg">
  <g transform="matrix(1 0 0 1 -11 -148 )">
    <path d="M 11.71875 1.42105263157895  C 13.013167386461 1.42105263157895  14.0625000073242 2.48143085897759  14 3.78947369161184  L 14 14.2105263157895  C 14.0625000073242 15.5185691484237  13.013167386461 16.5789473758224  11.71875 16.5789473758224  L 3.28125 16.5789473758224  C 1.98683261353902 16.5789473758224  0.937499992675781 15.5185691484237  1 14.2105263157895  L 1 3.78947369161184  C 0.937499992675781 2.48143085897759  1.98683261353902 1.42105263157895  3.28125 1.42105263157895  C 3.54013347850571 1.42105263157895  3.75000000366211 1.20897698510511  3.75000000366211 0.947368417351974  C 3.75000000366211 0.685759849598833  3.54013347850571 0.473684203125001  3.28125 0.473684203125001  C 1.46906566866276 0.473684203125  0 1.95821371353027  0 3.78947366940789  L 0 14.2105263157895  C 0 16.0417862716671  1.46906566866276 17.5263157820724  3.28125 17.5263157820724  L 11.71875 17.5263157820724  C 13.5309343313372 17.5263157820724  14.9999999926758 16.0417862716671  14.9999999926758 14.2105263157895  L 15 3.78947369161184  C 14.9999999926758 1.95821371353027  13.5309343313372 0.473684203125  11.71875 0.473684203125  C 11.4598665214943 0.473684203125001  11.2499999963379 0.685759849598834  11.2499999963379 0.947368417351974  C 11.2499999963379 1.20897698510511  11.4598665214943 1.42105263157895  11.71875 1.42105263157895  Z " fill-rule="nonzero" fill="#ffffff" stroke="none" transform="matrix(1 0 0 1 11 148 )" />
  </g>
</svg>