<?xml version="1.0" encoding="utf-8"?>
<svg version="1.1" xmlns:xlink="http://www.w3.org/1999/xlink" width="9px" height="12px" xmlns="http://www.w3.org/2000/svg">
  <g transform="matrix(1 0 0 1 -14 -148 )">
    <path d="M 8.54999999683594 9.23076923243343  L 0.450000003164062 9.23076923243343  C 0.201471863992742 9.23076923243343  0 9.02413142317285  0 8.76923076756657  C 0 8.51433011196028  0.201471863992742 8.3076923026997  0.450000003164062 8.3076923026997  L 8.54999999683594 8.3076923026997  C 8.79852813600726 8.3076923026997  9 8.51433011196028  9 8.76923076756657  C 9 9.02413142317285  8.79852813600726 9.23076923243343  8.54999999683594 9.23076923243343  Z M 8.54999999683594 6.46153846486686  L 0.450000003164062 6.46153846486686  C 0.201471863992742 6.46153846486686  0 6.25490065560628  0 6  C 0 5.74509934439372  0.201471863992742 5.53846153513313  0.450000003164062 5.53846153513313  L 8.54999999683594 5.53846153513313  C 8.79852813600726 5.53846153513313  9 5.74509934439372  9 6  C 9 6.25490065560628  8.79852813600726 6.46153846486686  8.54999999683594 6.46153846486686  Z M 8.54999999683594 12  L 0.450000003164062 12  C 0.201471863992743 12  0 11.7933621907394  0 11.5384615351331  C 0 11.2835608795268  0.201471863992743 11.0769230702663  0.450000003164062 11.0769230702663  L 8.54999999683594 11.0769230702663  C 8.79852813600726 11.0769230702663  9 11.2835608795268  9 11.5384615351331  C 9 11.7933621907394  8.79852813600726 12  8.54999999683594 12  Z M 2.24999999472656 1.38461538378328  L 6.75000000527344 1.38461538378328  C 6.99852814444476 1.38461538378328  7.2000000084375 1.1779775745227  7.2000000084375 0.923076918916421  C 7.2000000084375 0.668176263310136  6.99852814444476 0.461538454049557  6.75000000527344 0.461538454049557  L 2.24999999472656 0.461538454049556  C 2.00147185555524 0.461538454049557  1.7999999915625 0.668176263310136  1.7999999915625 0.923076918916421  C 1.7999999915625 1.1779775745227  2.00147185555524 1.38461538378328  2.24999999472656 1.38461538378328  Z " fill-rule="nonzero" fill="#ffffff" stroke="none" transform="matrix(1 0 0 1 14 148 )" />
  </g>
</svg>