<?xml version="1.0" encoding="utf-8"?>
<svg version="1.1" xmlns:xlink="http://www.w3.org/1999/xlink" width="4px" height="10px" xmlns="http://www.w3.org/2000/svg">
  <g transform="matrix(1 0 0 1 -11 -3 )">
    <path d="M 3.994579671875 4.99994004394531  C 3.9945636875 3.5417287109375  3.33707346875 2.13980421875  2.190650734375 1.15368280273437  C 1.91790765625 0.918867001953125  1.493187609375 0.936060356445312  1.24294128125 1.1917569921875  C 0.992263234374998 1.44764849609375  1.0106028125 1.84541880371094  1.28355375 2.08023460449219  C 2.153747765625 2.82888702148437  2.6529293125 3.89322539550781  2.6529293125 4.99994004394531  C 2.6529293125 6.10665469238281  2.15374775 7.17078321289063  1.28355375 7.91964548339844  C 1.0106028125 8.15465615234375  0.992471109374999 8.55263631347656  1.24294128125 8.80852781738281  C 1.3752675625 8.94364620605469  1.555865125 9.01201485839844  1.73732609375 9.01201485839844  C 1.899360234375 9.01201485839844  2.061826078125 8.95715205078125  2.190650734375 8.84660200683594  C 3.337073453125 7.85985103027343  3.994579671875 6.4579415234375  3.994579671875 4.99994004394531  Z " fill-rule="nonzero" fill="#ffffff" stroke="none" transform="matrix(1 0 0 1 11 3 )" />
  </g>
</svg>