<?xml version="1.0" encoding="utf-8"?>
<svg version="1.1" xmlns:xlink="http://www.w3.org/1999/xlink" width="3px" height="8px" xmlns="http://www.w3.org/2000/svg">
  <g transform="matrix(1 0 0 1 -10 -3 )">
    <path d="M 2.99593475390625 3.99995203515625  C 2.995922765625 2.83338296875  2.5028051015625 1.711843375  1.64298805078125 0.9229462421875  C 1.4384307421875 0.7350936015625  1.11989070703125 0.74884828515625  0.9322059609375 0.95340559375  C 0.744197425781248 1.158118796875  0.757952109375001 1.47633504296875  0.9626653125 1.66418768359375  C 1.61531082421875 2.2631096171875  1.989696984375 3.11458031640625  1.989696984375 3.99995203515625  C 1.989696984375 4.88532375390625  1.6153108125 5.7366265703125  0.9626653125 6.33571638671875  C 0.757952109375001 6.523724921875  0.744353332031249 6.84210905078125  0.9322059609375 7.04682225390625  C 1.031450671875 7.15491696484375  1.16689884375 7.20961188671875  1.3029945703125 7.20961188671875  C 1.42452017578125 7.20961188671875  1.54636955859375 7.165721640625  1.64298805078125 7.07728160546875  C 2.50280508984375 6.28788082421875  2.99593475390625 5.16635321875  2.99593475390625 3.99995203515625  Z " fill-rule="nonzero" fill="#ffffff" stroke="none" transform="matrix(1 0 0 1 10 3 )" />
  </g>
</svg>