<?xml version="1.0" encoding="utf-8"?>
<svg version="1.1" xmlns:xlink="http://www.w3.org/1999/xlink" width="2px" height="6px" xmlns="http://www.w3.org/2000/svg">
  <g transform="matrix(1 0 0 1 -9 -4 )">
    <path d="M 1.905332171875 2.999952046875  C 1.905344171875 2.3002983984375  1.65509784765625 1.62276976171875  1.20078586328125 1.09180575  C 1.01981655859375 0.880532988281249  0.702415761718751 0.8564653125  0.491310882812499 1.0367750625  C 0.280206015625 1.21742058984375  0.255634667968749 1.5351451640625  0.436280195312499 1.74625004296875  C 0.734673882812499 2.094925640625  0.899106402343749 2.5400638359375  0.899106402343749 2.99995203515625  C 0.899106402343749 3.459840234375  0.734673882812499 3.90530220703125  0.436280195312499 4.253809921875  C 0.255634667968749 4.46508268359375  0.280206015625 4.7824714921875  0.491310882812499 4.96328490234375  C 0.58614258203125 5.04451782421875  0.702583644531249 5.084150953125  0.818365140625 5.084150953125  C 0.960192976562499 5.084150953125  1.101205375 5.02453937109375  1.20077386328125 4.90825421484375  C 1.6550858359375 4.377290203125  1.905332171875 3.69959368359375  1.905332171875 2.999952046875  Z " fill-rule="nonzero" fill="#ffffff" stroke="none" transform="matrix(1 0 0 1 9 4 )" />
  </g>
</svg>