<?xml version="1.0" encoding="utf-8"?>
<svg version="1.1" xmlns:xlink="http://www.w3.org/1999/xlink" width="3px" height="7px" xmlns="http://www.w3.org/2000/svg">
  <g transform="matrix(1 0 0 1 -10 -4 )">
    <path d="M 2.8579982578125 3.4999440546875  C 2.8580162578125 2.68368146484375  2.48264677148438 1.89323138867188  1.80117879492188 1.273773375  C 1.52972483789062 1.02728848632812  1.05362364257813 0.99920953125  0.736966324218749 1.20957090625  C 0.4203090234375 1.42032402148437  0.383452001953124 1.79100269140625  0.654420292968748 2.03729171679687  C 1.10201082421875 2.4440799140625  1.34865960351562 2.96340780859375  1.34865960351562 3.49994404101562  C 1.34865960351562 4.0364802734375  1.10201082421875 4.55618590820313  0.654420292968748 4.9627782421875  C 0.383452001953124 5.20926313085937  0.4203090234375 5.57955007421875  0.736966324218749 5.79049905273437  C 0.879213873046876 5.88527079492187  1.05387546679687 5.9315094453125  1.2275477109375 5.9315094453125  C 1.44028946484375 5.9315094453125  1.6518080625 5.86196259960937  1.80116079492187 5.72629658398437  C 2.48262875390625 5.1068385703125  2.8579982578125 4.31619263085937  2.8579982578125 3.4999440546875  Z " fill-rule="nonzero" fill="#ffffff" stroke="none" transform="matrix(1 0 0 1 10 4 )" />
  </g>
</svg>