<?xml version="1.0" encoding="utf-8"?>
<svg version="1.1" xmlns:xlink="http://www.w3.org/1999/xlink" width="8px" height="10px" xmlns="http://www.w3.org/2000/svg">
  <g transform="matrix(1 0 0 1 -14 -46 )">
    <path d="M 7.375 7.75000000131836  L 0.625 7.75000000131836  C 0.417893217195431 7.75000000131836  0.249999997070313 7.58210678129161  0.249999997070313 7.3749999986084  C 0.249999997070313 7.16789321592518  0.417893217195431 6.99999999589844  0.625 6.99999999589844  L 7.375 6.99999999589844  C 7.58210678280457 6.99999999589844  7.75000000292969 7.16789321592518  7.75000000292969 7.3749999986084  C 7.75000000292969 7.58210678129161  7.58210678280457 7.75000000131836  7.375 7.75000000131836  Z M 7.375 5.50000000263672  L 0.625 5.50000000263672  C 0.417893217195431 5.50000000263672  0.249999997070313 5.33210678260998  0.249999997070313 5.12499999992676  C 0.249999997070313 4.91789321724354  0.417893217195431 4.7499999972168  0.625 4.7499999972168  L 7.375 4.7499999972168  C 7.58210678280457 4.7499999972168  7.75000000292969 4.91789321724354  7.75000000292969 5.12499999992676  C 7.75000000292969 5.33210678260998  7.58210678280457 5.50000000263672  7.375 5.50000000263672  Z M 7.375 10  L 0.625 10  C 0.417893217195433 10  0.249999997070314 9.83210677997326  0.249999997070314 9.62499999729004  C 0.249999997070314 9.41789321460682  0.417893217195433 9.24999999458008  0.625 9.24999999458008  L 7.375 9.24999999458008  C 7.58210678280457 9.24999999458008  7.75000000292969 9.41789321460682  7.75000000292969 9.62499999729004  C 7.75000000292969 9.83210677997326  7.58210678280457 10  7.375 10  Z M 2.12499999414062 1.37499999919434  L 5.87500000585937 1.37499999919434  C 6.08210678866394 1.37499999919434  6.25000000878906 1.20710677916759  6.25000000878906 0.999999996484375  C 6.25000000878906 0.792893213801158  6.08210678866394 0.624999993774415  5.87500000585937 0.624999993774415  L 2.12499999414062 0.624999993774414  C 1.91789321133605 0.624999993774415  1.74999999121094 0.792893213801158  1.74999999121094 0.999999996484375  C 1.74999999121094 1.20710677916759  1.91789321133605 1.37499999919434  2.12499999414062 1.37499999919434  Z " fill-rule="nonzero" fill="#e13438" stroke="none" transform="matrix(1 0 0 1 14 46 )" />
  </g>
</svg>