<?xml version="1.0" encoding="utf-8"?>
<svg version="1.1" xmlns:xlink="http://www.w3.org/1999/xlink" width="12px" height="15px" xmlns="http://www.w3.org/2000/svg">
  <g transform="matrix(1 0 0 1 -12 -46 )">
    <path d="M 9.375 1.375  C 10.4105339091688 1.375  11.2500000058594 2.21446609669059  11.2500000058594 3.25000000585938  L 11.2500000058594 11.5  C 11.2500000058594 12.5355339091688  10.4105339091688 13.3750000058594  9.375 13.3750000058594  L 2.625 13.3750000058594  C 1.58946609083122 13.3750000058594  0.749999994140625 12.5355339091688  0.749999994140625 11.5  L 0.749999994140625 3.25000000585938  C 0.749999994140625 2.21446609669059  1.58946609083122 1.375  2.625 1.375  C 2.83210678280457 1.375  3.00000000292969 1.20710677987488  3.00000000292969 0.999999997070313  C 3.00000000292969 0.792893214265743  2.83210678280457 0.624999994140626  2.625 0.624999994140626  C 1.17525253493021 0.624999994140625  0 1.80025252321146  0 3.24999998828125  L 0 11.5  C 0 12.9497474650698  1.17525253493021 14.1249999941406  2.625 14.1249999941406  L 9.375 14.1249999941406  C 10.8247474650698 14.1249999941406  11.9999999941406 12.9497474650698  11.9999999941406 11.5  L 11.9999999941406 3.25000000585938  C 11.9999999941406 1.80025252321146  10.8247474650698 0.624999994140625  9.375 0.624999994140625  C 9.16789321719543 0.624999994140626  8.99999999707031 0.792893214265744  8.99999999707031 0.999999997070313  C 8.99999999707031 1.20710677987488  9.16789321719543 1.375  9.375 1.375  Z " fill-rule="nonzero" fill="#e13438" stroke="none" transform="matrix(1 0 0 1 12 46 )" />
  </g>
</svg>