<?xml version="1.0" encoding="utf-8"?>
<svg version="1.1" xmlns:xlink="http://www.w3.org/1999/xlink" width="6px" height="3px" xmlns="http://www.w3.org/2000/svg">
  <g transform="matrix(1 0 0 1 -17 -51 )">
    <path d="M 4.64068039391226 0.987417600716204  L 1.27759420777081 0.987417600716204  C 1.01819809317816 0.987417600716204  0.805680805872874 0.774900299946284  0.805680805729633 0.515504185353626  C 0.805680805586392 0.256108070760967  1.01819810649955 0.0435907834556852  1.27759420777081 0.0435907833124443  L 4.64036786478066 0.0435907833124443  C 4.89976397937332 0.0435907833124443  5.1122812666786 0.256108084082364  5.11228126682184 0.515504185353626  C 5.11228126696509 0.774900286624888  4.89976396605192 0.987417587251566  4.64036786478066 0.987417600716204  Z M 4.64068039391226 2.86382029550582  L 1.27759420777081 2.86382029550582  C 1.01819809317816 2.86382029550582  0.805680805872874 2.6513029947359  0.805680805729633 2.39190689346464  C 0.805680805729633 2.13282330800358  1.01819810649955 1.92030602055506  1.27759420777081 1.92030602055506  L 4.64036786478066 1.92030602055506  C 4.89976397937332 1.92030602055506  5.1122812666786 2.13282332132498  5.11228126682184 2.39221942259624  C 5.11228126696509 2.6516155238675  4.89976396605192 2.86413282449418  4.64036786478066 2.86413282449418  Z " fill-rule="nonzero" fill="#e13438" stroke="none" transform="matrix(1 0 0 1 17 51 )" />
  </g>
</svg>