<?xml version="1.0" encoding="utf-8"?>
<svg version="1.1" xmlns:xlink="http://www.w3.org/1999/xlink" width="16px" height="14px" xmlns="http://www.w3.org/2000/svg">
  <g transform="matrix(1 0 0 1 -12 -46 )">
    <path d="M 5.21188247992838 13.5639716785676  C 5.0621819718505 13.6646531797896  4.88599819835868 13.7187046195516  4.70559128021486 13.7192968128917  C 4.55870432415398 13.7192968128917  4.41244242606983 13.6842939704208  4.27899405994628 13.6124131244405  C 3.98243153396328 13.4550850403401  3.79703264045169 13.1468082841773  3.79707983441361 12.8110979095434  L 3.79707983441361 11.2875364145389  L 2.6851143508684 11.2875364145389  C 1.45751444497762 11.2875364145389  0.458370635631155 10.2883926051925  0.458370635631155 9.0607927126231  L 0.458370635631155 2.35118418076992  C 0.458370635631155 1.12358427487914  1.45751444497762 0.124440465532677  2.6851143508684 0.124440465532677  L 3.3120403715667 0.124440465532677  C 3.57143648615936 0.124440465532677  3.78082852282901 0.333832502202328  3.78082852282901 0.593228616794987  C 3.78082852282901 0.852624731387646  3.57143647269472 1.0620167680573  3.3120403715667 1.0620167680573  L 2.6851143508684 1.0620167680573  C 1.97355506320152 1.06304950907661  1.39697967917509 1.63962489310304  1.39594693815577 2.35118418076992  L 1.39594693815577 9.0607927126231  C 1.39697967917528 9.7723520003458  1.97355506328882 10.3489273843953  2.68511435101164 10.3499601253357  L 3.82489460168308 10.3499601253357  C 4.3262647918596 10.350476912121  4.73257672421343 10.756788838515  4.73309351835273 11.258159028684  L 4.73309351835273 12.7551558594808  L 8.30338406445837 10.3499601253357  L 13.2328477215398 10.3499601253357  C 13.9444070092067 10.3489273843164  14.5209823932331 9.77235200028997  14.5220151342525 9.0607927126231  L 14.5220151342525 2.35118418076992  C 14.5209823932331 1.63962489310305  13.9444070092067 1.06304950907661  13.2328477215398 1.0620167680573  L 6.13539513425246 1.0620167680573  C 5.8759990196598 1.0620167680573  5.66660698299015 0.852624731387646  5.66660698299015 0.593228616794987  C 5.66660698299015 0.333832502202328  5.8759990196598 0.124440465532677  6.13539513425246 0.124440465532677  L 13.2328477215398 0.124440465532677  C 14.4604476275739 0.124440465532677  15.4595914369203 1.12358427487914  15.4595914369203 2.35118418076992  L 15.4595914369203 9.0607927126231  C 15.4595914369203 10.2883926186571  14.4604476275739 11.2875364280036  13.2328477215398 11.2875364145389  L 8.5902824171889 11.2875364145389  L 5.21188247992838 13.5639716785676  Z " fill-rule="nonzero" fill="#e13438" stroke="none" transform="matrix(1 0 0 1 12 46 )" />
  </g>
</svg>