<?xml version="1.0" encoding="utf-8"?>
<svg version="1.1" xmlns:xlink="http://www.w3.org/1999/xlink" width="7px" height="11px" xmlns="http://www.w3.org/2000/svg">
  <g transform="matrix(1 0 0 1 -360 -178 )">
    <path d="M 0.544000000000096 10.814  C 0.340771365800265 10.6079928500301  0.343009874303903 10.2762458897817  0.548999999999978 10.073  L 5.15700000000004 5.51300000000001  L 0.577999999999975 0.885999999999996  C 0.480233969859341 0.788285641194477  0.425305240255966 0.655725513441723  0.425305240255966 0.517500000000013  C 0.425305240255966 0.379274486558245  0.480233969859341 0.246714358805491  0.577999999999975 0.149000000000001  C 0.668988053613134 0.0550173387619566  0.794205200953115 0.00195926365944388  0.925016387453752 0.00195926365944388  C 1.07916525217627 0.00195926365944388  1.22405559630374 0.075537202620211  1.31500000000005 0.199999999999989  L 6.19900000000007 5.084  C 6.26107146676895 5.1446995161034  6.31305851347793 5.21491578698311  6.35300000000007 5.29200000000003  C 6.42905962586008 5.50477958384232  6.38474311020639 5.74202575816045  6.23700000000008 5.91300000000001  L 1.28500000000008 10.865  C 1.0577307086304 11.0279006243926  0.746808442825682 11.0065011162198  0.544000000000096 10.814  Z " fill-rule="nonzero" fill="#ffffff" stroke="none" fill-opacity="0.996078431372549" transform="matrix(1 0 0 1 360 178 )" />
  </g>
</svg>