<?xml version="1.0" encoding="utf-8"?>
<svg version="1.1" xmlns:xlink="http://www.w3.org/1999/xlink" width="279px" height="46px" xmlns="http://www.w3.org/2000/svg">
  <defs>
    <filter x="1458px" y="950px" width="279px" height="46px" filterUnits="userSpaceOnUse" id="filter604">
      <feOffset dx="0" dy="0" in="SourceAlpha" result="shadowOffsetInner" />
      <feGaussianBlur stdDeviation="3" in="shadowOffsetInner" result="shadowGaussian" />
      <feComposite in2="shadowGaussian" operator="atop" in="SourceAlpha" result="shadowComposite" />
      <feColorMatrix type="matrix" values="0 0 0 0 0  0 0 0 0 0  0 0 0 0 0  0 0 0 0.156862745098039 0  " in="shadowComposite" />
    </filter>
    <g id="widget605">
      <path d="M 1464.5 960  A 3.5 3.5 0 0 1 1468 956.5 L 1727 956.5  A 3.5 3.5 0 0 1 1730.5 960 L 1730.5 986  A 3.5 3.5 0 0 1 1727 989.5 L 1468 989.5  A 3.5 3.5 0 0 1 1464.5 986 L 1464.5 960  Z " fill-rule="nonzero" fill="#ffffff" stroke="none" fill-opacity="0.996078431372549" />
      <path d="M 1464.5 960  A 3.5 3.5 0 0 1 1468 956.5 L 1727 956.5  A 3.5 3.5 0 0 1 1730.5 960 L 1730.5 986  A 3.5 3.5 0 0 1 1727 989.5 L 1468 989.5  A 3.5 3.5 0 0 1 1464.5 986 L 1464.5 960  Z " stroke-width="1" stroke="#f2f2f2" fill="none" />
    </g>
  </defs>
  <g transform="matrix(1 0 0 1 -1458 -950 )">
    <use xlink:href="#widget605" filter="url(#filter604)" />
    <use xlink:href="#widget605" />
  </g>
</svg>