<?xml version="1.0" encoding="utf-8"?>
<svg version="1.1" xmlns:xlink="http://www.w3.org/1999/xlink" width="383px" height="142px" xmlns="http://www.w3.org/2000/svg">
  <defs>
    <filter x="0px" y="5px" width="383px" height="142px" filterUnits="userSpaceOnUse" id="filter588">
      <feOffset dx="2" dy="2" in="SourceAlpha" result="shadowOffsetInner" />
      <feGaussianBlur stdDeviation="0.5" in="shadowOffsetInner" result="shadowGaussian" />
      <feComposite in2="shadowGaussian" operator="atop" in="SourceAlpha" result="shadowComposite" />
      <feColorMatrix type="matrix" values="0 0 0 0 0.6  0 0 0 0 0.6  0 0 0 0 0.6  0 0 0 0.67843137254902 0  " in="shadowComposite" />
    </filter>
    <g id="widget589">
      <path d="M 0.5 9  A 3.5 3.5 0 0 1 4 5.5 L 376 5.5  A 3.5 3.5 0 0 1 379.5 9 L 379.5 140  A 3.5 3.5 0 0 1 376 143.5 L 4 143.5  A 3.5 3.5 0 0 1 0.5 140 L 0.5 9  Z " fill-rule="nonzero" fill="#ffffff" stroke="none" fill-opacity="0.996078431372549" />
      <path d="M 0.5 9  A 3.5 3.5 0 0 1 4 5.5 L 376 5.5  A 3.5 3.5 0 0 1 379.5 9 L 379.5 140  A 3.5 3.5 0 0 1 376 143.5 L 4 143.5  A 3.5 3.5 0 0 1 0.5 140 L 0.5 9  Z " stroke-width="1" stroke="#f2f2f2" fill="none" />
    </g>
  </defs>
  <g transform="matrix(1 0 0 1 0 -5 )">
    <use xlink:href="#widget589" filter="url(#filter588)" />
    <use xlink:href="#widget589" />
  </g>
</svg>