<?xml version="1.0" encoding="utf-8"?>
<svg version="1.1" xmlns:xlink="http://www.w3.org/1999/xlink" width="20px" height="19px" xmlns="http://www.w3.org/2000/svg">
  <g transform="matrix(1 0 0 1 -32 -9 )">
    <path d="M 17.217578125 16.527734375  C 17.112109375 16.633203125  16.975 16.6859375  16.837890625 16.6859375  C 16.704296875 16.6859375  16.570703125 16.63671875  16.46875 16.534765625  C 16.261328125 16.330859375  16.2578125 15.996875  16.46171875 15.789453125  C 16.633984375 15.613671875  16.79921875 15.42734375  16.950390625 15.23046875  C 17.1296875 15.001953125  17.46015625 14.959765625  17.6921875 15.1390625  C 17.920703125 15.318359375  17.962890625 15.648828125  17.78359375 15.880859375  C 17.6078125 16.105859375  17.41796875 16.323828125  17.217578125 16.527734375  Z M 18.54296875 14.69609375  C 18.44453125 14.87890625  18.26171875 14.980859375  18.071875 14.980859375  C 17.991015625 14.980859375  17.906640625 14.96328125  17.829296875 14.92109375  C 17.569140625 14.7875  17.470703125 14.467578125  17.604296875 14.2109375  C 17.702734375 14.02109375  17.790625 13.82421875  17.871484375 13.62734375  C 18.173828125 12.86796875  18.325 12.06640625  18.325 11.247265625  L 18.325 5.045703125  C 18.325 3.059375  16.711328125 1.445703125  14.725 1.445703125  L 5.10625 1.445703125  C 4.125390625 1.445703125  3.169140625 1.860546875  2.490625 2.577734375  C 2.290234375 2.788671875  1.95625 2.79921875  1.7453125 2.598828125  C 1.534375 2.3984375  1.523828125 2.064453125  1.72421875 1.853515625  C 2.603125 0.921875000000001  3.837109375 0.391015625000001  5.10625 0.391015625000001  L 14.725 0.391015625000001  C 17.29140625 0.391015625000001  19.3796875 2.479296875  19.3796875 5.045703125  L 19.3796875 11.24375  C 19.3796875 12.2  19.200390625 13.131640625  18.85234375 14.0140625  C 18.7609375 14.24609375  18.65546875 14.474609375  18.54296875 14.69609375  Z M 14.046484375 18.471875  C 13.322265625 18.693359375  12.576953125 18.805859375  11.82109375 18.805859375  L 8.01015625 18.805859375  C 5.99921875 18.805859375  4.104296875 18.018359375  2.669921875 16.5875  C 1.235546875 15.156640625  0.4515625 13.26171875  0.4515625 11.247265625  L 0.4515625 5.045703125  C 0.4515625 4.623828125  0.5078125 4.20546875  0.620312500000001 3.801171875  C 0.69765625 3.519921875  0.989453125000001 3.358203125  1.270703125 3.435546875  C 1.551953125 3.512890625  1.713671875 3.8046875  1.636328125 4.0859375  C 1.5484375 4.398828125  1.50625 4.722265625  1.50625 5.04921875  L 1.50625 11.247265625  C 1.50625 14.833203125  4.42421875 17.751171875  8.01015625 17.751171875  L 11.82109375 17.751171875  C 12.471484375 17.751171875  13.111328125 17.652734375  13.730078125 17.462890625  C 14.134375 17.336328125  14.528125 17.17109375  14.90078125 16.970703125  C 15.066015625 16.879296875  15.23125 16.780859375  15.389453125 16.67890625  C 15.63203125 16.5171875  15.958984375 16.583984375  16.120703125 16.8265625  C 16.282421875 17.069140625  16.215625 17.39609375  15.973046875 17.5578125  C 15.790234375 17.67734375  15.600390625 17.793359375  15.40703125 17.898828125  C 14.974609375 18.134375  14.5140625 18.327734375  14.046484375 18.471875  Z " fill-rule="nonzero" fill="#ffffff" stroke="none" transform="matrix(1 0 0 1 32 9 )" />
  </g>
</svg>