<?xml version="1.0" encoding="utf-8"?>
<svg version="1.1" xmlns:xlink="http://www.w3.org/1999/xlink" width="12px" height="12px" viewBox="239 185.5  12 12" xmlns="http://www.w3.org/2000/svg">
  <path d="M 245 185.5  C 248.36 185.5  251 188.14  251 191.5  C 251 194.86  248.36 197.5  245 197.5  C 241.64 197.5  239 194.86  239 191.5  C 239 188.14  241.64 185.5  245 185.5  Z " fill-rule="nonzero" fill="#ffffff" stroke="none" />
  <path d="M 245 186  C 248.08 186  250.5 188.42  250.5 191.5  C 250.5 194.58  248.08 197  245 197  C 241.92 197  239.5 194.58  239.5 191.5  C 239.5 188.42  241.92 186  245 186  Z " stroke-width="1" stroke="#0070cc" fill="none" />
  <path d="M 245 194.5  C 243.32 194.5  242 193.18  242 191.5  C 242 189.82  243.32 188.5  245 188.5  C 246.68 188.5  248 189.82  248 191.5  C 248 193.18  246.68 194.5  245 194.5  " fill-rule="nonzero" fill="#0070cc" stroke="none" />
</svg>