<?xml version="1.0" encoding="utf-8"?>
<svg version="1.1" xmlns:xlink="http://www.w3.org/1999/xlink" width="12px" height="12px" viewBox="233 2186.5  12 12" xmlns="http://www.w3.org/2000/svg">
  <path d="M 239 2186.5  C 242.36 2186.5  245 2189.14  245 2192.5  C 245 2195.86  242.36 2198.5  239 2198.5  C 235.64 2198.5  233 2195.86  233 2192.5  C 233 2189.14  235.64 2186.5  239 2186.5  Z " fill-rule="nonzero" fill="#ffffff" stroke="none" />
  <path d="M 239 2187  C 242.08 2187  244.5 2189.42  244.5 2192.5  C 244.5 2195.58  242.08 2198  239 2198  C 235.92 2198  233.5 2195.58  233.5 2192.5  C 233.5 2189.42  235.92 2187  239 2187  Z " stroke-width="1" stroke="#0070cc" fill="none" />
  <path d="M 239 2195.5  C 237.32 2195.5  236 2194.18  236 2192.5  C 236 2190.82  237.32 2189.5  239 2189.5  C 240.68 2189.5  242 2190.82  242 2192.5  C 242 2194.18  240.68 2195.5  239 2195.5  " fill-rule="nonzero" fill="#0070cc" stroke="none" />
</svg>