<?xml version="1.0" encoding="utf-8"?>
<svg version="1.1" xmlns:xlink="http://www.w3.org/1999/xlink" width="12px" height="7px" xmlns="http://www.w3.org/2000/svg">
  <g transform="matrix(1 0 0 1 -1025 -15 )">
    <path d="M 0.863756351493849 0.0164279336605864  L 5.98936956063269 0.00070702785689753  L 11.1417981300527 0.0464693210512495  C 11.4550034235501 0.0464693210512495  11.7303288435852 0.0635153596751712  11.8218095254833 0.13395824899501  C 12.0426806748682 0.304027097347636  12.0185453497364 0.651392796396178  11.8218095254833 0.848385937215926  L 6.36818342355009 6.85432796800194  C 6.26423081898067 6.95932975678242  6.12548263620387 7.00421865139486  5.98895033391916 6.99747252388744  C 5.85238808435852 7.00423371108822  5.71407409490334 6.95932975678242  5.60967231634446 6.85432796800194  L 0.156061202108963 0.848401011049835  C -0.0402254973637961 0.651407849019251  -0.0616508400702988 0.307219476597378  0.156061202108963 0.1344401167606  C 0.257348724077329 0.0541038926933723  0.43363244288225 0.0164279336605864  0.863756351493849 0.0164279336605864  Z " fill-rule="nonzero" fill="#666666" stroke="none" transform="matrix(1 0 0 1 1025 15 )" />
  </g>
</svg>