<?xml version="1.0" encoding="utf-8"?>
<svg version="1.1" xmlns:xlink="http://www.w3.org/1999/xlink" width="16px" height="12px" xmlns="http://www.w3.org/2000/svg">
  <g transform="matrix(1 0 0 1 -1125 -152 )">
    <path d="M 14.856875 5.04375  L 12.5545625 2.828625  L 12.5545625 10.492125  C 12.5570350133448 10.644052049515  12.4958468862368 10.7900877128795  12.3858125 10.894875  C 12.275 11.00175  12.123125 11.0625  11.9639375 11.0625  C 11.6365625 11.056875  11.373875 10.802625  11.373875 10.492125  L 11.373875 2.828625  L 9.0130625 5.06625  C 8.90123369483687 5.17590863606523  8.75062054983017 5.23696255524916  8.594 5.236125  C 8.435375 5.236125  8.2840625 5.1748125  8.174375 5.06625  C 8.06381765377649 4.96369599488558  8.00068749187349 4.81992214229361  8 4.669125  C 8 4.5195  8.063 4.376625  8.174375 4.272  L 11.515625 1.1056875  C 11.6241875 0.9988125  11.77325 0.938625  11.9290625 0.9380625  C 12.0854375 0.9324375  12.237875 0.9841875  12.3543125 1.0831875  L 15.6955625 4.2495  C 15.8090856814908 4.35036519435054  15.8743323862947 4.49476699244326  15.875 4.646625  C 15.8741894729082 4.79857082932334  15.8087318762759 4.94298665189328  15.695 5.04375  C 15.5816706917384 5.1505470589344  15.4316576246308 5.20974684649097  15.2759375 5.209125  C 15.1202173753692 5.20974684649097  14.9702043082616 5.1505470589344  14.856875 5.04375  Z M 0.5620625 9.9375  L 7.562375 9.9375  C 7.80425 9.9375  8 10.1866875  8 10.494375  C 8 10.8020625  7.80425 11.05125  7.562375 11.05125  L 0.562625 11.05125  C 0.32075 11.05125  0.125 10.8020625  0.125 10.494375  C 0.125 10.1866875  0.32075 9.9375  0.562625 9.9375  Z M 0.125 5.994375  C 0.125 5.6866875  0.3348125 5.4375  0.5935625 5.4375  L 5.2814375 5.4375  C 5.5401875 5.4375  5.75 5.6866875  5.75 5.994375  C 5.75 6.3020625  5.5401875 6.55125  5.2814375 6.55125  L 0.5935625 6.55125  C 0.3348125 6.55125  0.125 6.3020625  0.125 5.994375  Z M 7.5629375 0.9375  L 0.5620625 0.9375  C 0.32075 0.9375  0.125 1.1866875  0.125 1.494375  C 0.125 1.8020625  0.32075 2.05125  0.562625 2.05125  L 7.562375 2.05125  C 7.80425 2.05125  8 1.8020625  8 1.494375  C 8 1.1866875  7.80425 0.9375  7.562375 0.9375  Z " fill-rule="nonzero" fill="#666666" stroke="none" transform="matrix(1 0 0 1 1125 152 )" />
  </g>
</svg>