<?xml version="1.0" encoding="utf-8"?>
<svg version="1.1" xmlns:xlink="http://www.w3.org/1999/xlink" width="16px" height="12px" xmlns="http://www.w3.org/2000/svg">
  <g transform="matrix(1 0 0 1 -1225 -152 )">
    <path d="M 1.143125 5.04375  L 3.4454375 2.828625  L 3.4454375 10.492125  C 3.4429649866552 10.644052049515  3.50415311376323 10.7900877128795  3.6141875 10.894875  C 3.725 11.00175  3.876875 11.0625  4.0360625 11.0625  C 4.3634375 11.056875  4.626125 10.802625  4.626125 10.492125  L 4.626125 2.828625  L 6.9869375 5.06625  C 7.09876630516313 5.17590863606523  7.24937945016983 5.23696255524916  7.406 5.236125  C 7.564625 5.236125  7.7159375 5.1748125  7.825625 5.06625  C 7.93618234622351 4.96369599488558  7.99931250812651 4.81992214229361  8 4.669125  C 8 4.5195  7.937 4.376625  7.825625 4.272  L 4.484375 1.1056875  C 4.3758125 0.9988125  4.22675 0.938625  4.0709375 0.9380625  C 3.9145625 0.9324375  3.762125 0.9841875  3.6456875 1.0831875  L 0.304437499999999 4.2495  C 0.190914318509215 4.35036519435054  0.125667613705282 4.49476699244326  0.125 4.646625  C 0.125810527091783 4.79857082932334  0.191268123724054 4.94298665189328  0.305000000000003 5.04375  C 0.41832930826158 5.1505470589344  0.568342375369216 5.20974684649097  0.724062500000002 5.209125  C 0.879782624630788 5.20974684649097  1.02979569173842 5.1505470589344  1.143125 5.04375  Z M 15.4379375 9.9375  L 8.437625 9.9375  C 8.19575 9.9375  8 10.1866875  8 10.494375  C 8 10.8020625  8.19575 11.05125  8.437625 11.05125  L 15.437375 11.05125  C 15.67925 11.05125  15.875 10.8020625  15.875 10.494375  C 15.875 10.1866875  15.67925 9.9375  15.437375 9.9375  Z M 15.875 5.994375  C 15.875 5.6866875  15.6651875 5.4375  15.4064375 5.4375  L 10.7185625 5.4375  C 10.4598125 5.4375  10.25 5.6866875  10.25 5.994375  C 10.25 6.3020625  10.4598125 6.55125  10.7185625 6.55125  L 15.4064375 6.55125  C 15.6651875 6.55125  15.875 6.3020625  15.875 5.994375  Z M 8.4370625 0.9375  L 15.4379375 0.9375  C 15.67925 0.9375  15.875 1.1866875  15.875 1.494375  C 15.875 1.8020625  15.67925 2.05125  15.437375 2.05125  L 8.437625 2.05125  C 8.19575 2.05125  8 1.8020625  8 1.494375  C 8 1.1866875  8.19575 0.9375  8.437625 0.9375  Z " fill-rule="nonzero" fill="#666666" stroke="none" transform="matrix(1 0 0 1 1225 152 )" />
  </g>
</svg>