<?xml version="1.0" encoding="utf-8"?>
<svg version="1.1" xmlns:xlink="http://www.w3.org/1999/xlink" width="24px" height="18px" xmlns="http://www.w3.org/2000/svg">
  <g transform="matrix(1 0 0 1 -87 -53 )">
    <path d="M 0.214459683408677 12.7081790969265  L 0.214459683408677 11.6690627766769  L 1.91431082514184 11.4217673595008  L 1.91431082514184 5.7571567098107  L 0.214459683408677 5.7571567098107  L 0.214459683408677 4.719229309836  L 1.91431082514184 4.719229309836  L 1.91431082514184 0.141886251528305  L 5.69446759657142 0.141886251528305  L 5.69446759657142 4.69366752392596  L 7.36932092739677 4.69366752392596  L 7.36932092739677 5.72981154348833  L 5.69446759657142 5.72981154348833  L 5.69446759657142 10.8005565158733  L 7.36932092739677 10.5532610986972  L 7.36932092739677 11.616750284582  L 5.69446759657142 11.8640457017581  L 5.69446759657142 16.3706480037101  C 5.69446759657142 17.0388211981955  4.90795110703203 17.6077195497281  3.94401113031752 17.6077195497281  L 0.417490684196764 17.6077195497281  L 0.417490684196764 16.5668198490661  L 0.899765523906563 16.5668198490661  C 1.45825320175002 16.5668198490661  1.91431082514184 16.2452169147097  1.91431082514184 15.849306463173  L 1.91431082514184 12.4608836797504  L 0.214459683408677 12.7081790969265  Z M 11.8847791611399 9.51711707913486  L 8.02840955157664 9.51711707913486  L 10.9458369953332 5.3368733926388  L 14.6753884422421 5.3368733926388  L 11.8847791611399 9.51711707913486  Z M 23.5020545035301 4.89221720983178  L 19.7499440565337 4.89162274969432  L 19.7499440565337 3.13499304355157  C 19.7499440565337 2.73908259201484  19.3188842440498 2.46681984906614  18.7097912416855 2.46681984906614  L 12.7956750025134 2.46681984906614  C 12.2121895137621 2.46681984906614  11.7811297012781 2.73908259201484  11.7811297012781 3.13499304355157  L 11.7811297012781 4.89102828955689  L 8.0259707407564 4.89102828955689  L 8.0259707407564 2.63861882878705  C 8.0259707407564 1.97044563430161  8.86309255481651 1.40154728276908  9.95385069418549 1.40154728276908  L 13.8864331418824 1.40154728276908  L 13.8864331418824 0.166853577300893  L 17.666589913312 0.166853577300893  L 17.666589913312 1.40392512331886  L 21.573564847396 1.40392512331886  C 22.6393251758571 1.40392512331886  23.5020545035301 1.97282347485138  23.5020545035301 2.64099666933682  L 23.5020545035301 4.89221720983178  Z M 8.07962457880247 16.4931067920233  L 8.05401706518957 16.4931067920233  L 13.9144794663156 16.4931067920233  L 13.9144794663156 11.5210422024537  L 9.3984115298674 11.5210422024537  L 9.3984115298674 10.4819258822041  L 22.1850966605805 10.4819258822041  L 22.1850966605805 11.5210422024537  L 17.6946362377452 11.5210422024537  L 17.6946362377452 16.4931067920233  L 23.5301008279633 16.4931067920233  L 23.5301008279633 17.5322231122728  L 8.07962457880247 17.5322231122728  L 8.07962457880247 16.4931067920233  Z M 23.5557083415762 9.51711707913486  L 19.6487334074922 9.51711707913486  L 16.9087294509108 5.3368733926388  L 20.6126733842067 5.3368733926388  L 23.5557083415762 9.51711707913486  Z " fill-rule="nonzero" fill="#e13438" stroke="none" transform="matrix(1 0 0 1 87 53 )" />
  </g>
</svg>