<?xml version="1.0" encoding="utf-8"?>
<svg version="1.1" xmlns:xlink="http://www.w3.org/1999/xlink" width="6px" height="8px" xmlns="http://www.w3.org/2000/svg">
  <g transform="matrix(1 0 0 1 -80 -75 )">
    <path d="M 0.487267591382461 4.99896180277416  L 0.486166739276083 4.99780590806246  L 1.88314806226608 5.14229274702419  C 1.89311312697107 5.26527326874829  1.95108896276489 5.37844568635201  2.04332204374369 5.45496226653739  C 2.21367817063017 5.54473509274162  2.40342908067488 5.5861766914954  2.5937480969312 5.57517531655352  C 2.83568837042738 5.58505777049878  3.07707702729357 5.54419010952237  3.30379770554316 5.45496226653738  C 3.4202149040922 5.39643215829847  3.5105519382602 5.2928798811408  3.55589283790306 5.16598858861392  C 3.60145439480653 5.00217145081639  3.61695777029867 4.8307564184172  3.60157820031762 4.66086259960369  L 3.60157820031761 4.0597973495229  C 3.26782796311335 4.49706008706624  2.75904952886348 4.74600537494472  2.22551306734875 4.73310601908456  C 1.65376020680209 4.76000088630337  1.10587703692231 4.49040039595021  0.759728487710289 4.01182771898758  C 0.470568006711905 3.61072031022993  0.317326945475855 3.11967085648153  0.324341479638943 2.61666280197314  C 0.285048289123387 2.02235476257534  0.484683055828378 1.43794394652313  0.874767532826487 1.00534557387186  C 1.25474569834547 0.638159065929611  1.75547727219705 0.439908426849724  2.2717488558165 0.452249954326357  C 2.81780281393286 0.439272988521324  3.34002970115312 0.68687532952602  3.69184807304039 1.12555862388803  L 3.69184807304039 0.524493373807222  L 4.83948639393642 0.524493373807222  L 4.83948639393642 4.27652760796551  C 4.85692773595588 4.65092898322271  4.81032213702673 5.02558207189424  4.70187988063954 5.38271884705653  C 4.62664820604325 5.60400532420512  4.50075939389143 5.80247867669675  4.3352961292166 5.96066620290342  C 4.14154951276454 6.1107925806563  3.92463217630308 6.22477193474634  3.69404977725311 6.2976095113622  C 3.35632488646559 6.38149137628701  3.01012530810236 6.42185976278702  2.66310177963285 6.41782256137836  C 2.084504574221 6.46496004158408  1.50496537644224 6.33997186436729  0.990907430049061 6.05718341132989  C 0.688420741969461 5.85984132607108  0.499534829166729 5.51715273640094  0.487267591382461 5.14344864173589  L 0.487267591382461 4.99896180277416  Z M 1.86333272435134 1.6324184549658  C 1.65350244078754 1.88292671129117  1.5536297692615 2.21451396802477  1.58811969775758 2.54615322455978  C 1.55948723154557 2.89935533257796  1.65765092169225 3.25103656889747  1.86333272435134 3.53213141363464  C 2.0449941073292 3.74049659261324  2.30451387949619 3.85477582251979  2.5733823329633 3.84480093314783  C 2.85569285590695 3.85515451927896  3.12941387697063 3.74190817840845  3.32911730398976 3.53213141363464  C 3.55286853236878 3.2781337850534  3.66869694055506 2.93955920218783  3.65001569299813 2.59412285509509  C 3.67961312537419 2.24435299090396  3.57207102878536 1.89703773922195  3.35223519822364 1.63241845496579  C 3.15494583044158 1.41880857363168  2.87953578925466 1.30486343605249  2.59650022719716 1.3197489354526  C 2.32083930318712 1.30948664462982  2.05410953828273 1.42323727747813  1.86333272435134 1.6324184549658  Z " fill-rule="nonzero" fill="#e13438" stroke="none" transform="matrix(1 0 0 1 80 75 )" />
  </g>
</svg>