<?xml version="1.0" encoding="utf-8"?>
<svg version="1.1" xmlns:xlink="http://www.w3.org/1999/xlink" width="7px" height="6px" xmlns="http://www.w3.org/2000/svg">
  <g transform="matrix(1 0 0 1 -68 -75 )">
    <path d="M 0.900392090728968 3.60887427332052  C 0.684277600785879 3.25359443421404  0.57295185939019 2.8519075288303  0.577600236097663 2.44417274477564  C 0.579796745237178 2.07960132216344  0.69112136488327 1.72273301827295  0.899203170454081 1.41322474715535  C 1.12324871783842 1.08796100748353  1.44008391443944 0.826408142564582  1.8146717821156 0.657489776128857  C 2.23239532772992 0.477587070295963  2.68997894714024 0.391227769133104  3.15042371094904 0.405394643768946  C 3.82789581424054 0.379852961239146  4.49071347086727 0.592619733661937  5.00573379990726 1.00095563331788  C 5.47906778648242 1.36776869274237  5.74370590478718 1.91590066934708  5.72324718580043 2.48710597692426  C 5.73040427328556 3.06789587049083  5.45861022821782 3.62163106736593  4.98136093427213 3.99857591897728  C 4.47163274205228 4.3996067672115  3.81963458723015 4.61175537351633  3.15101817108648 4.59413690852623  C 2.70051944744588 4.59002551426235  2.25523625906851 4.50438694019801  1.84023356802563 4.34204177616632  C 1.45105451053828 4.19589901855117  1.12198710229815 3.93919452551122  0.900392090728968 3.60887427332052  Z M 1.93831949070367 2.51297600142408  C 1.9230036579366 2.84809452805441  2.04704002051298 3.17589534650166  2.28488975083267 3.42888495392816  C 2.51709061498465 3.63637755233814  2.82773061110275 3.75154793144429  3.15042371094902 3.7497833429365  C 3.47398703787792 3.75588082847298  3.78635673666556 3.64006915875815  4.01595767106538 3.42888495392816  C 4.25772369917443 3.17801859829222  4.38233486436021 2.84869870300421  4.36252793119439 2.51297600142408  C 4.38270367855589 2.18398900419285  4.25760899771474 1.86153702051139  4.01595767106538 1.61963451710068  C 3.53108314687246 1.19208452637202  2.76916981488813 1.19208452637202  2.28429529069521 1.61963451710068  C 2.03447637533972 1.85687708939295  1.90804617016281 2.18277160531021  1.93772503056619 2.51297600142408  Z " fill-rule="nonzero" fill="#e13438" stroke="none" transform="matrix(1 0 0 1 68 75 )" />
  </g>
</svg>