<?xml version="1.0" encoding="utf-8"?>
<svg version="1.1" xmlns:xlink="http://www.w3.org/1999/xlink" width="28px" height="12px" xmlns="http://www.w3.org/2000/svg">
  <g transform="matrix(1 0 0 1 -30 -70 )">
    <path d="M 24.2218072201419 0.895939026846746  L 24.2163354847859 0.896544495505236  C 20.6742987976651 3.3402160012367  17.233793199928 5.960684355252  13.5908333940186 8.27841838001414  C 12.9155442274608 7.99740001891284  12.2781233735298 7.63352525884571  11.693357166675 7.19523494994636  C 8.93560254724828 5.20505946943613  6.10002769164729 3.26513788758192  3.34470495460104 1.29978662207045  L 0.612485100169034 0.36736488797075  C 0.612485100169034 0.594415634910612  0.586950335174338 0.795431229534701  0.586950335174338 1.02248197647456  C 0.410030891996836 2.15652477385687  1.59861340544022 2.73595828004742  2.41086212050946 3.34021600123672  C 5.6489135100744 5.53201254502955  8.8115765458455 7.85035203845021  12.0247011410109 10.0669727972418  C 12.656990559927 10.3945313414937  13.4917341870154 11.1501562273096  14.2006279009156 10.5458985061203  C 17.5146756148696 8.42675820134822  20.6013423262517 6.03576246890678  23.8673603631918 3.84396592511397  C 24.7525655496744 3.18884883661016  25.8128662675492 2.63302860810136  26.3971260094516 1.70242327997715  C 26.443566880848 1.14094450902895  26.4520976576955 0.576993792208289  26.4226607744463 0.014376660061561  L 24.1962724551472 0.770001545877436  C 24.2146982219377 0.809368036483472  24.2234509929585 0.852536710018675  24.2218072201419 0.895939026846746  Z " fill-rule="nonzero" fill="#e13438" stroke="none" transform="matrix(1 0 0 1 30 70 )" />
  </g>
</svg>