<?xml version="1.0" encoding="utf-8"?>
<svg version="1.1" xmlns:xlink="http://www.w3.org/1999/xlink" width="8px" height="8px" xmlns="http://www.w3.org/2000/svg">
  <g transform="matrix(1 0 0 1 -96 -14 )">
    <path d="M 7.88379976812789 3.69163939478432  C 7.86207224526296 1.78164503505985  6.31409293945504 0.241212516805376  4.40401520376864 0.228819653365804  C 4.40190449819309 0.228815787030953  4.39979378948604 0.228813853862277  4.39768308036943 0.228813853862277  C 2.48852739741582 0.228813853862277  0.940850923518241 1.77649032775992  0.940850923518241 3.68564601071353  C 0.940850923518241 4.6456643051136  1.34007846679324 5.56244587038458  2.04291102273228 6.21640422066014  L 2.37023231241099 7.31412805799744  C 2.39379841249436 7.6929216147899  2.71549394514093 7.98359967183694  3.09473004505364 7.96877063735496  L 5.73425690846918 7.96877063735491  C 6.10719732337938 7.96681704547376  6.41912794388182 7.68496238011619  6.45875464111182 7.31412805799744  L 6.78607593079053 6.21640422066014  C 7.48648553607123 5.56360780573101  7.88410083298956 4.6490926228189  7.88379976812789 3.69163939478432  Z M 7.18325237375441 3.68864560250057  C 7.16251596235915 4.47717030701142  6.81647865489808 5.2219812965572  6.22723470450975 5.7463788321275  L 6.15737955122464 5.81623398541262  L 5.75820724673841 7.14847155163557  L 5.73525483923041 7.21832670492068  L 5.73525483923041 7.2652294506978  L 3.06978177602323 7.24227704318986  L 3.06978177602323 7.19537429741268  L 2.67060947153701 5.81623398541257  L 2.60075431825194 5.74637883212745  C 2.01175774615169 5.22366533035603  1.67467553585769 4.47383490882919  1.67467553585769 3.68634118385097  C 1.67467553585769 2.16518942722513  2.90781268018722 0.932052282895654  4.42896443681306 0.932052282895654  C 5.95011619343896 0.932052282895654  7.18325333776849 2.16518942722513  7.18325333776849 3.68634118385097  C 7.18325333776849 3.68710932349558  7.18325301643048 3.68787746312495  7.18325237375441 3.68864560250057  Z " fill-rule="nonzero" fill="#666666" stroke="none" transform="matrix(1 0 0 1 96 14 )" />
  </g>
</svg>