<?xml version="1.0" encoding="utf-8"?>
<svg version="1.1" xmlns:xlink="http://www.w3.org/1999/xlink" width="15px" height="14px" xmlns="http://www.w3.org/2000/svg">
  <g transform="matrix(1 0 0 1 -30 -11 )">
    <path d="M 8.12315639629593 13.1053403971178  L 8.12515225781834 13.1053403971178  L 4.00270028323622 13.1053403971178  C 2.67995962530068 13.1053403971178  1.60766645631851 12.0330472281356  1.60766645631851 10.7103065702  L 1.60766645631851 7.63967361793928  L 0.551855710952296 7.63967361793928  C 0.246963651936326 7.63905221049627  0.000128850485324961 7.39171381675145  0.000128850485324961 7.08682112448383  C 0.000128850485324961 6.92893852732291  0.0676303257548909 6.77858852048104  0.185615121586125 6.67367664108247  L 6.67216506948826 0.932580971808463  C 6.88130211680085 0.747634343590406  7.19550920090801 0.74763434359042  7.40464624822059 0.932580971808463  L 13.8911961961227 6.67367664108247  C 14.009180991954 6.77858852048104  14.0766824672235 6.92893852732293  14.0766824672235 7.08682112448383  C 14.0766824672235 7.39171381675145  13.8298476657725 7.63905221049627  13.5249556067566 7.63967361793928  L 12.4741345151964 7.63967361793928  L 12.4741345151964 10.7103065702  C 12.4766190904447 11.5343661110588  12.0531846065876 12.301227850094  11.3544562011124 12.7381018769904  C 11.2626932908329 12.8006115155888  11.1542347186352 12.8340430204632  11.0432037021549 12.8340430204632  C 10.7378710669481 12.8340430204632  10.4903500604414 12.5865220139564  10.4903500604414 12.2811893787497  C 10.4903500604414 12.0841277459586  10.5952436105676 11.9019635982186  10.7656770519951 11.8030407537312  C 11.1401175941019 11.5666778696519  11.3663934100546 11.1541016318981  11.3644355087246 10.7113045009612  L 11.3644355087246 7.087817906987  C 11.3644355087246 6.7824852717802  11.6119565152313 6.53496426527349  11.9172891504381 6.53496426527349  L 12.0679766953816 6.53496426527349  L 7.03740772809321 2.0841930702514  L 2.0068387608048 6.53496426527349  L 2.15752630574838 6.53496426527349  C 2.46285894095516 6.53496426527349  2.71037994746187 6.7824852717802  2.71037994746187 7.087817906987  L 2.71037994746187 10.7113045009612  C 2.71093027419488 11.4231518110736  3.28785918084024 12.000080717719  3.99970649095258 12.000631044452  L 8.12315639629593 12.000631044452  C 8.41908802753764 12.0132124926112  8.65252683786399 12.256786761963  8.65252683786399 12.5529857207849  C 8.65252683786399 12.8491846796067  8.41908802753764 13.0927589489585  8.12315639629593 13.1053403971178  Z " fill-rule="nonzero" fill="#666666" stroke="none" transform="matrix(1 0 0 1 30 11 )" />
  </g>
</svg>