<?xml version="1.0" encoding="utf-8"?>
<svg version="1.1" xmlns:xlink="http://www.w3.org/1999/xlink" width="6px" height="5px" xmlns="http://www.w3.org/2000/svg">
  <g transform="matrix(1 0 0 1 -158 -15 )">
    <path d="M 5.14791388444556 2.68565181021711  C 5.14571715835515 3.86638902052988  4.18908754271186 4.82301863617317  3.00835033239892 4.82521536226352  C 1.82670201130989 4.82521536226352  0.868786780352508 3.86730013130608  0.868786780352508 2.68565181021705  C 0.868786780352508 1.50400348912802  1.82670201130989 0.546088258170528  3.00835033239892 0.546088258170528  C 4.18999865348806 0.546088258170528  5.14791388444544 1.50400348912802  5.14791388444544 2.68565181021705  Z M 3.04768640354521 1.16630222626617  C 3.03457279756847 1.16630222626617  3.02145971906876 1.16646856143927  3.00835033239892 1.16680119164675  C 2.16746968820675 1.18813722438256  1.49690200061602 1.87593534430653  1.49690200061602 2.71708662919531  C 1.49690200061602 3.55823791408409  2.16746968820675 4.24603603400811  3.00835033239892 4.26737206674397  C 3.0214597190687 4.26770469695145  3.03457279756847 4.26787103212456  3.04768640354521 4.26787103212456  C 3.9041609795585 4.26787103212456  4.59847080647447 3.57356120520865  4.59847080647447 2.71708662919531  C 4.59847080647447 1.86061205318208  3.9041609795585 1.16630222626617  3.04768640354521 1.16630222626617  Z " fill-rule="nonzero" fill="#666666" stroke="none" transform="matrix(1 0 0 1 158 15 )" />
  </g>
</svg>