<?xml version="1.0" encoding="utf-8"?>
<svg version="1.1" xmlns:xlink="http://www.w3.org/1999/xlink" width="26px" height="16px" xmlns="http://www.w3.org/2000/svg">
  <g transform="matrix(1 0 0 1 -31 -52 )">
    <path d="M 3.15990144529502 4.14721182981172  L 3.16461938289376 4.14785798213502  C 4.04813768842716 5.06552194514433  5.01889511549111 5.87677016458764  6.06025358412686 6.56769843292022  C 8.26883812254191 6.89077459457379  10.5021918333504 6.62132907575472  12.7107763717655 6.70209811616811  C 14.796694532613 6.64846747333362  16.8826126934605 6.89012844225048  18.9437616819146 6.56769843292022  C 20.0017306770551 5.90284257019487  20.982334460067 5.10007955193236  21.8641650555412 4.17693483668385  C 22.0116006055021 7.29591210128735  22.1832155856567 10.387750968312  22.4037791683983 13.5067282329155  C 23.0908288312163 13.1571598260063  23.8268270966214 12.8075914190971  24.5858253078203 12.5116536550225  C 24.5610561354269 11.9740549220309  24.5368767052333 11.4364561890394  24.5121075328399 10.9253497013035  C 24.1682878303309 7.51043467262531  24.3157233802919 4.01539675585706  23.6039045450804 0.65152776072016  C 20.5856039662798 0.73229680113355  19.5795037733463 4.76557960321664  16.5364340221522 4.57690312481096  C 13.6897484235062 4.57690312481096  10.8678319972536 4.60404152238986  8.02114639860751 4.57690312481096  C 6.42884245902923 4.71130280805884  5.56722910505743 3.12499885433984  4.48741113714343 2.23783171443916  C 3.65292592436444 1.51155650304195  2.60023609764324 0.0867906301497326  1.39539278336234 0.920327127215911  C 1.04053125204121 2.25659990284527  0.866863585544989 3.64276541976161  0.879958100698863 5.0343789697124  C 0.782060895524793 7.77664942982785  0.560907570583365 10.5195660422666  0.364523418035377 13.261836502382  C 1.15006002822733 13.6650355521257  1.88605829363239 14.0953729994482  2.54656955745746 14.5257104467708  C 2.76772288239889 11.0300263776792  2.98828646514047 7.58861910374548  3.15990144529502 4.14721182981172  Z " fill-rule="nonzero" fill="#e13438" stroke="none" transform="matrix(1 0 0 1 31 52 )" />
  </g>
</svg>