<?xml version="1.0" encoding="utf-8"?>
<svg version="1.1" xmlns:xlink="http://www.w3.org/1999/xlink" width="24px" height="18px" xmlns="http://www.w3.org/2000/svg">
  <g transform="matrix(1 0 0 1 -112 -53 )">
    <path d="M 0.2389904879893 14.3138159281589  L 0.234112866348561 12.6588389055188  C 1.31818527377886 12.0396988642737  2.33775760712193 11.3189737389915  3.27835847275955 10.5068932079767  L 3.27835847275955 6.79627303006027  C 2.31040844780208 7.53683766912251  1.29345653609298 8.21440504839002  0.234112866348596 8.82457101901428  L 0.234112866348526 7.21952864791937  C 1.13927790225917 6.59683287316975  2.00350008659292 5.9194040464442  2.82169114666265 5.19123065896537  L 2.82169114666265 5.16626333319279  L 0.284718190869363 0.141886251528305  L 4.44532945026222 0.141886251528305  L 5.58669291415192 2.442446983431  C 6.06896775386172 1.87354863189848  6.52563507995863 1.27968295459336  6.95669489244264 0.686411737425695  L 8.93578987309752 0.686411737425695  C 8.20197068059264 1.87461760213193  7.34380080634717 2.98545720649449  6.3750385118065 4.00112146380539  L 6.50185667446097 4.22344955520889  C 6.90500162232161 4.92875002704062  7.131071964346 5.71712333392002  7.16155500134593 6.5240102871116  L 7.16155500134593 16.392048568658  C 7.16155500134593 17.0845946287786  6.4512513499402 17.629120114676  5.51535769765883 17.629120114676  L 1.0755025993443 17.629120114676  L 1.0755025993443 16.5900037944264  L 2.34429392859348 16.5900037944264  C 2.82656876830331 16.5900037944264  3.28323609440022 16.26840086007  3.28323609440022 15.8724904085332  L 3.28323609440022 12.3348581306126  C 2.3351726297922 13.0871743308378  1.31582884072037 13.7498141439711  0.2389904879893 14.3138159281589  Z M 14.5682234625276 5.93014460980648  L 10.7374613665772 5.93073906994392  L 10.7374613665772 3.55527636072346  L 8.90835325136936 3.55527636072346  L 8.90835325136936 2.51675450061131  L 10.7374613665772 2.51675450061131  L 10.7374613665772 0.141886251528305  L 14.5682234625276 0.141886251528305  L 14.5682234625276 2.51675450061132  L 17.9935332596068 2.51675450061132  L 17.9935332596068 0.141886251528305  L 21.8242953555572 0.141886251528305  L 21.8242953555572 2.51675450061132  L 23.6765721735577 2.51675450061132  L 23.6765721735577 3.55587082086091  L 21.8242953555572 3.55587082086091  L 21.8242953555572 5.93073906994393  L 17.9935332596068 5.93073906994393  L 17.9935332596068 3.55527636072346  L 14.5682234625276 3.55527636072346  L 14.5682234625276 5.93014460980648  Z M 21.646871868382 7  L 21.646871868382 6.87058054724061  C 22.5858140341887 6.87058054724061  23.3467230101152 7.41451157300055  23.3467230101152 8.08268476748598  L 23.3467230101152 16.3944264092078  C 23.3467230101152 17.0869724693284  22.5858140341887 17.6314979552258  21.646871868382 17.6314979552258  L 10.8642795292317 17.6314979552258  C 9.94972547162771 17.6314979552258  9.2180822255446 17.0875669294658  9.2180822255446 16.3944264092078  L 9.2180822255446 8.08209030734854  C 9.2180822255446 7.4139171128631  9.95399339056322 6.86998608710316  10.8642795292317 7  L 21.646871868382 7  Z M 12.7446026716654 8.60224292761078  L 12.74155415814 11.7189974282221  L 14.3401946508317 11.7189974282221  L 14.3401946508317 7.9096968674902  L 13.7085426483799 7.9096968674902  C 13.2012699977623 7.9096968674902  12.7446026716654 8.23129980184661  12.7446026716654 8.60224292761078  Z M 13.7054941348545 16.5668198490662  L 14.3651924617395 16.5674143092036  L 14.3651924617395 12.7581137484717  L 12.74155415814 12.7581137484717  L 12.74155415814 15.849306463173  C 12.74155415814 16.2452169147097  13.1982214842369 16.5668198490662  13.7054941348545 16.5668198490662  Z M 19.7677681313585 11.7195918883595  L 19.7689875367686 8.62721025338337  C 19.7689875367686 8.23129980184662  19.3379277242846 7.93466419326279  18.8050475600541 7.93466419326279  L 18.2203426658926 7.93466419326279  L 18.2203426658926 11.7195918883595  L 19.7677681313585 11.7195918883595  Z M 18.2203426658926 16.5674143092036  L 18.8056572627592 16.5668198490661  C 19.2726200873101 16.6194171971875  19.6985679465281 16.3023608471405  19.7695972394737 15.849306463173  L 19.7695972394737 12.7581137484717  L 18.2203426658926 12.7581137484717  L 18.2203426658926 16.5674143092036  Z " fill-rule="nonzero" fill="#e13438" stroke="none" transform="matrix(1 0 0 1 112 53 )" />
  </g>
</svg>