<?xml version="1.0" encoding="utf-8"?>
<svg version="1.1" xmlns:xlink="http://www.w3.org/1999/xlink" width="5px" height="5px" xmlns="http://www.w3.org/2000/svg">
  <g transform="matrix(1 0 0 1 -74 -75 )">
    <path d="M 4.9099482482398 2.03520618725727  L 4.90994824823982 4.50772001817577  L 3.54454762005144 4.50772001817577  L 3.54454762005146 2.47114362138183  C 3.56306694362116 2.19405883784634  3.53700293856971 1.91604278396434  3.46714395632192 1.64550454160049  C 3.41750795316864 1.51837358628083  3.31640700313667 1.41222004146318  3.18353693241702 1.34772404682604  C 3.03560676017351 1.26942146083135  2.86585389039294 1.22974330725431  2.69372654833676 1.23323542776302  C 2.46561853024451 1.22634747260444  2.24068970665778 1.28229130821446  2.04972806610737 1.39340940924061  C 1.8763169083442 1.48185666034106  1.74051750288372 1.61862329803415  1.66332897676968 1.7825606288442  C 1.57312498843186 2.08084155069806  1.53840278733473 2.39022705337882  1.56053691133691 2.69846958134829  L 1.56053691133691 4.50772001817577  L 0.194517053838688 4.50772001817577  L 0.194517053838688 0.522635393097899  L 1.48313324760739 0.522635393097899  L 1.48313324760741 1.11819638264682  C 1.9071962056702 0.676298888252692  2.53014830215468 0.424637735412148  3.18353693241706 0.431264668268767  C 3.4662151518207 0.426011560241003  3.74705297555604 0.472864717354027  4.00835037311859 0.568871181565653  C 4.2246785797759 0.63157616940114  4.41960803224662 0.741977015342062  4.57494519161852 0.889769570573991  C 4.6953872206563 1.01653357289496  4.78329439128128 1.16511171811794  4.83254458451029 1.32515657864534  C 4.89181563039072 1.55800744739636  4.9178219368132 1.79657196497877  4.9099482482398 2.03520618725727  Z " fill-rule="nonzero" fill="#e13438" stroke="none" transform="matrix(1 0 0 1 74 75 )" />
  </g>
</svg>