<?xml version="1.0" encoding="utf-8"?>
<svg version="1.1" xmlns:xlink="http://www.w3.org/1999/xlink" width="15px" height="14px" xmlns="http://www.w3.org/2000/svg">
  <g transform="matrix(1 0 0 1 -93 -11 )">
    <path d="M 7.42292340435043 2.6909587268226  C 7.42427150820538 2.6909587268226  7.42561960043305 2.69095080876869  7.42696761127661 2.69093497307054  C 7.61842519849644 2.68620547963017  7.77251181502297 2.53211886310366  7.77724130846333 2.34066127588383  L 7.77724130846332 0.564344520919853  C 7.76342216073682 0.381664818776876  7.6111671861869 0.240492442319642  7.42796554203782 0.240492442319642  C 7.24476389788872 0.240492442319642  7.09250892333881 0.381664818776883  7.07868977561233 0.56434452091986  L 7.07868977561233 2.34066127588385  C 7.07865478702487 2.34266486439989  7.07863729173101 2.34466872020825  7.07863729173101 2.34667261420319  C 7.07863729173101 2.5368165837814  7.23277943477221 2.6909587268226  7.42292340435043 2.6909587268226  Z M 2.98517779310546 2.15305029277528  L 4.22460779853539 3.41543270571316  C 4.37313601136427 3.54038115715741  4.5900139277326 3.54038115715743  4.73854214056148 3.41543270571316  C 4.80565214929854 3.35140544480541  4.84362444105496 3.26269540906628  4.84362444105496 3.16994173845409  C 4.84362444105496 3.07718806784189  4.80565214929852 2.98847803210275  4.73854214056148 2.92445077119503  L 3.4761597276236 1.66206835825715  C 3.41158593568183 1.60056950878875  3.32582967666092 1.56626700518036  3.23665634493176 1.56626700518036  C 3.04485894953112 1.56626700518036  2.8893764400287 1.72174951468278  2.8893764400287 1.91354691008344  C 2.8893764400287 2.00272024181258  2.92367894363707 2.08847650083349  2.98517779310546 2.15305029277528  Z M 2.93927297808955 5.77653688674954  L 1.14299760790125 5.77653688674954  C 1.13420609970851 5.77587183666992  1.12539261610232 5.77553895598831  1.11657598931475 5.77553895598831  C 0.923125168091673 5.77553895598831  0.766302292128032 5.93236183195197  0.766302292128032 6.12581265317503  C 0.766302292128032 6.3192634743981  0.923125168091673 6.47608635036175  1.11657598931475 6.47608635036175  C 1.12539261610232 6.47608635036175  1.13420609970851 6.47575346968014  1.14299760790126 6.47508841960054  L 2.91931436286522 6.47508841960054  C 3.11077195008507 6.47035892616016  3.26485856661158 6.31627230963367  3.26958806005194 6.12481472241383  C 3.26966893418023 6.12179123859134  3.26970937666701 6.11876680852325  3.26970937666701 6.11574224325706  C 3.26970937666701 5.93141729388364  3.12255050479735 5.78080803836265  2.93827504732833 5.77653688674954  Z M 13.6700224534421 5.77653688674954  L 11.8937056984781 5.77653688674954  C 11.7110259963352 5.79035603447602  11.5698536198779 5.94261100902595  11.5698536198779 6.12581265317503  C 11.5698536198779 6.30901429732413  11.7110259963352 6.46126927187404  11.8937056984782 6.47508841960054  L 13.6700224534421 6.47508841960054  C 13.861480040662 6.47035892616016  14.0155666571885 6.31627230963367  14.0202961506289 6.12481472241383  C 14.0203121345181 6.12346041959921  14.0203201266714 6.12210603425569  14.0203201266714 6.12075163712103  C 14.0203201266714 5.93060766754282  13.8661779836302 5.77646552450162  13.6760340140519 5.77646552450162  C 13.6736973353001 5.77646552450162  13.6713607170954 5.77648931315031  13.6690245226809 5.77653688674955  Z M 10.3678695645793 3.53318853553662  L 10.3768509414303 3.53219060477539  C 10.4718331117122 3.53706609027385  10.5647328579643 3.50321889590292  10.6343170778239 3.43838511322113  L 11.8966994907618 2.17600270028325  C 11.9581983402302 2.11142890834147  11.9925008438386 2.02567264932057  11.9925008438386 1.93649931759141  C 11.9925008438386 1.74470192219076  11.8370183343362 1.58921941268834  11.6452209389355 1.58921941268834  C 11.5560476072063 1.58921941268834  11.4702913481855 1.62352191629672  11.4057175562437 1.68502076576512  L 10.1433351433058 2.947403178703  C 10.0762251345687 3.01143043961072  10.0382528428123 3.10014047534987  10.0382528428123 3.19289414596207  C 10.0382528428123 3.28564781657425  10.0762251345687 3.37435785231338  10.1433351433058 3.43838511322113  C 10.2047534627602 3.49532874973052  10.2842259342343 3.52888379324177  10.3678695645793 3.53318853553662  Z M 8.71330036248366 11.5046594561277  L 8.71729208552854 11.5036615253665  L 6.09473004505364 11.5036615253665  C 6.09203530800083 11.5035932710747  6.08933981473437 11.5035591398252  6.08664421342259 11.5035591398252  C 5.91027879236451 11.5035591398252  5.76730636983356 11.6465315623562  5.76730636983356 11.8228969834142  C 5.76730636983356 11.825592584726  5.76734050108311 11.8282880779925  5.76740875537489 11.8309828150453  L 5.76740875537489 11.8778855608224  C 5.76734050108311 11.8805802978752  5.76730636983356 11.8832757911417  5.76730636983356 11.8859713924535  C 5.76730636983356 12.0623368135115  5.91027879236451 12.2053092360425  6.08664421342259 12.2053092360425  C 6.08933981473416 12.2053092360425  6.09203530800106 12.2052751047929  6.09473004505364 12.2052068505012  L 8.71330036248366 12.2052068505012  C 8.71599509953673 12.2052751047929  8.7186905928027 12.2053092360425  8.72138619411473 12.2053092360425  C 8.89775161517279 12.2053092360425  9.04072403770377 12.0623368135115  9.04072403770377 11.8859713924535  C 9.04072403770377 11.8832757911417  9.04068990645422 11.8805802978752  9.04062165216243 11.8778855608224  L 9.04062165216243 11.8309828150453  C 9.04067408823981 11.8286207451851  9.04070030870041 11.8262581661269  9.04070030870041 11.8238955143187  C 9.04070030870041 11.6475300932607  8.89772788616945 11.5045576707297  8.72136246511137 11.5045576707297  C 8.71867477631298 11.5045576707297  8.71598719461106 11.5045916018995  8.71330036248366 11.5046594561277  Z M 8.68835209345328 6.52598288842255  L 8.69433967802058 6.52398702690012  L 6.1176824525616 6.5239870269001  C 6.10889094436892 6.5233219768205  6.10007746076266 6.5229890961389  6.09126083397516 6.5229890961389  C 5.89781001275209 6.5229890961389  5.74098713678845 6.67981197210254  5.74098713678845 6.87326279332561  C 5.74098713678845 7.06671361454869  5.89781001275209 7.22353649051233  6.09126083397516 7.22353649051233  C 6.10007746076268 7.22353649051233  6.10889094436891 7.22320360983073  6.1176824525616 7.22253855975111  L 7.05274357582073 7.22253855975111  L 7.05274357582073 9.32617660439385  C 7.05267532152895 9.32887134144667  7.05264119027939 9.33156683471312  7.05264119027939 9.33426243602491  C 7.05264119027939 9.51062785708298  7.19561361281035 9.65360027961394  7.37197903386843 9.65360027961394  C 7.37467463518023 9.65360027961394  7.37737012844666 9.65356614836439  7.38006486549948 9.6534978940726  L 7.40301727300744 9.6534978940726  C 7.40571201006024 9.65356614836439  7.40840750332669 9.65360027961394  7.41110310463849 9.65360027961394  C 7.58746852569655 9.65360027961394  7.73044094822751 9.51062785708298  7.73044094822751 9.33426243602491  C 7.73044094822751 9.33156683471334  7.73040681697796 9.32887134144643  7.7303385626862 9.32617660439385  L 7.7303385626862 7.22653028279598  L 8.66539968594532 7.22653028279598  C 8.85685727316516 7.2218007893556  9.01094388969167 7.0677141728291  9.01567338313203 6.87625658560927  C 9.01725172673724 6.86351645403001  9.01804315019298 6.85069113542056  9.01804315019298 6.83785360757471  C 9.01804315019298 6.66534618010229  8.87819824940489 6.5255012793142  8.70569082193248 6.5255012793142  C 8.69990790184937 6.5255012793142  8.69412609698051 6.52566187758937  8.68835209345328 6.52598288842255  Z M 8.01075710658782 12.6492860392422  L 8.01674469115511 12.6492860392422  L 6.84218018520421 12.6492860392422  C 6.65950048306119 12.6631051869686  6.51832810660392 12.8153601615185  6.51832810660392 12.9985618056677  C 6.51832810660392 13.1817634498168  6.65950048306119 13.3340184243667  6.84218018520421 13.3478375720932  L 8.01075710658782 13.3478375720932  C 8.01954861478048 13.3485026221728  8.02836209838674 13.3488355028544  8.03717872517426 13.3488355028544  C 8.23062954639732 13.3488355028544  8.38745242236097 13.1920126268907  8.38745242236097 12.9985618056677  C 8.38745242236097 12.8051109844446  8.23062954639732 12.648288108481  8.03717872517426 12.648288108481  C 8.02836209838674 12.648288108481  8.01954861478049 12.6486209891626  8.01075710658782 12.6492860392422  Z " fill-rule="nonzero" fill="#666666" stroke="none" transform="matrix(1 0 0 1 93 11 )" />
  </g>
</svg>