<?xml version="1.0" encoding="utf-8"?>
<svg version="1.1" xmlns:xlink="http://www.w3.org/1999/xlink" width="12px" height="13px" xmlns="http://www.w3.org/2000/svg">
  <g transform="matrix(1 0 0 1 -155 -12 )">
    <path d="M 6.28777094553936 12.6631836926373  L 6.10115789319204 12.7869271070281  L 5.88460691800822 12.6322478390396  C 5.69899179642209 12.4775685710512  0.954828957602587 8.41499244214203  0.954828957602587 5.68664974097827  C 1.00097493428467 2.94555641891855  3.2362189604369 0.747625730971251  5.97770068596495 0.747625730971251  C 8.73123057797469 0.747625730971251  10.9716057339628 2.96421257862652  11.0009979307612 5.71758559457595  C 11.0009979307612 8.41199864985838  6.47438399788672 12.4775685710512  6.28777094553936 12.6631836926373  Z M 5.97641643568579 1.25284325654257  C 3.52824393462345 1.25284325654257  1.54360799436557 3.23747919680041  1.54360799436557 5.68565169786277  C 1.54360810671986 7.85714914662246  5.20202227733665 11.2371406348601  6.07022203959434 12.0125328363247  C 6.93842180185203 11.2062047812624  10.4112208508827 7.82621329302477  10.4112208508827 5.68664974097828  C 10.4112211504604 5.68598441635707  10.4112213002493 5.68531909171431  10.4112213002493 5.68465376702567  C 10.4112213002493 3.23648126596331  8.42658535999146 1.25184532570546  5.97841285892909 1.25184532570546  Z " fill-rule="nonzero" fill="#666666" stroke="none" transform="matrix(1 0 0 1 155 12 )" />
  </g>
</svg>