<?xml version="1.0" encoding="utf-8"?>
<svg version="1.1" xmlns:xlink="http://www.w3.org/1999/xlink" width="6px" height="8px" xmlns="http://www.w3.org/2000/svg">
  <g transform="matrix(1 0 0 1 -63 -75 )">
    <path d="M 0.267237704418911 4.99896180277416  L 0.266687278365707 4.99780590806246  L 1.66366860135572 5.14229274702419  C 1.67363366606069 5.26527326874829  1.73160950185452 5.37844568635201  1.82384258283331 5.45496226653739  C 1.99419870971977 5.54473509274162  2.18394961976449 5.5861766914954  2.37426863602084 5.57517531655352  C 2.616208909517 5.58505777049878  2.85759756638319 5.54419010952237  3.08431824463278 5.45496226653738  C 3.20073544318183 5.39643215829845  3.29107247734982 5.2928798811408  3.33641337699268 5.16598858861392  C 3.38197493389617 5.00217145081639  3.39747830938829 4.8307564184172  3.38209873940724 4.66086259960369  L 3.38209873940724 4.0597973495229  C 3.048348502203 4.49706008706625  2.53957006795311 4.74600537494474  2.00603360643837 4.73310601908456  C 1.43428074589171 4.76000088630337  0.886397576011914 4.49040039595021  0.540249026799897 4.01182771898758  C 0.251088545801529 3.61072031022993  0.0978474845654947 3.11967085648153  0.104862018728566 2.61666280197314  C 0.0655688282130108 2.02235476257534  0.265203594918001 1.43794394652313  0.65528807191611 1.00534557387186  C 1.03526623743508 0.638159065929611  1.53599781128669 0.439908426849724  2.05226939490612 0.452249954326357  C 2.59832335302249 0.439272988521324  3.12055024024273 0.68687532952602  3.47236861213002 1.12555862388803  L 3.47236861213002 0.524493373807222  L 4.62000693302605 0.524493373807222  L 4.62000693302605 4.27652760796551  C 4.6374482750455 4.65092898322271  4.59084267611637 5.02558207189424  4.48240041972918 5.38271884705651  C 4.40714846839807 5.6039946367152  4.28126272498094 5.80246315111154  4.11581666830624 5.96066620290342  C 3.92207005185416 6.11079258065632  3.70515271539273 6.22477193474633  3.47457031634275 6.2976095113622  C 3.13684542555525 6.38149137628701  2.79064584719201 6.42185976278702  2.44362231872247 6.41782256137836  C 1.86502511331062 6.46496004158408  1.28548591553186 6.33997186436729  0.771427969138685 6.05718341132989  C 0.474152448748752 5.85769719534888  0.293134502921954 5.5138770111729  0.290355598652773 5.14344864173589  C 0.271567915298879 5.09797885110262  0.263632374474957 5.04838172095318  0.267237704418911 4.99896180277416  Z M 1.62018494315389 1.6324184549658  C 1.42875958115886 1.89236673529478  1.33863758971388 2.2190195997015  1.36808981079401 2.54615322455978  C 1.339457344582 2.89935533257796  1.43762103472869 3.25103656889747  1.64330283738776 3.53213141363464  C 1.82496422036562 3.74049659261322  2.08448399253262 3.85477582251979  2.35335244599972 3.84480093314783  C 2.63566296894339 3.85515451927898  2.90938399000706 3.74190817840845  3.10908741702621 3.53213141363464  C 3.32536343077947 3.27478661481153  3.43283455204723 2.9362525828181  3.40686791180067 2.59412285509509  C 3.43646534417673 2.24435299090396  3.32892324758792 1.89703773922195  3.10908741702621 1.63241845496579  C 2.91179804924415 1.41880857363169  2.63638800805722 1.30486343605247  2.35335244599972 1.3197489354526  C 2.07769152198971 1.30948664462982  1.81096175708527 1.42323727747813  1.62018494315389 1.6324184549658  Z " fill-rule="nonzero" fill="#e13438" stroke="none" transform="matrix(1 0 0 1 63 75 )" />
  </g>
</svg>