<?xml version="1.0" encoding="utf-8"?>
<svg version="1.1" xmlns:xlink="http://www.w3.org/1999/xlink" width="5px" height="5px" xmlns="http://www.w3.org/2000/svg">
  <g transform="matrix(1 0 0 1 -98 -75 )">
    <path d="M 4.53110726983992 2.03520618725728  L 4.53110726983992 4.50772001817577  L 3.31741782256139 4.50772001817577  L 3.31741782256139 2.47114362138183  C 3.33387944351227 2.19405883784634  3.31071143902207 1.91604278396434  3.24861456591292 1.64550454160049  C 3.20449367422111 1.51837358628083  3.11462616308156 1.41222004146319  2.99651943355304 1.34772404682604  C 2.86502594711431 1.26942146083135  2.7141345073094 1.22974330725431  2.56113242548172 1.23323542776303  C 2.35875124311906 1.22942785973898  2.15970557853746 1.28512236780941  1.98868933016663 1.39340940924061  C 1.83454607882161 1.48185666034106  1.71383549619007 1.61862329803414  1.64522347297759 1.7825606288442  C 1.56502264068348 2.08083797976719  1.53415814096817 2.39022669980468  1.55385274814842 2.69846958134829  L 1.55385274814842 4.50772001817577  L 0.339612874816721 4.50772001817577  L 0.339612874816721 0.522635393097899  L 1.48504949150001 0.522635393097899  L 1.48504949150001 1.11819638264682  C 1.8619943431114 0.676298888252692  2.41572953998651 0.424637735412148  2.99651943355307 0.431264668268767  C 3.24778896191186 0.426011560241003  3.49742258300992 0.472864717354011  3.72968693639887 0.568871181565653  C 3.92197867564983 0.63157616940114  4.0952493000682 0.741977015342046  4.23332677506546 0.889769570573991  C 4.34882179962413 1.01066188474656  4.42814414933911 1.16148875644017  4.46230401319145 1.32515657864534  C 4.51501258103069 1.5580037143723  4.53812958307381 1.79657117545735  4.53110726983992 2.03520618725728  Z " fill-rule="nonzero" fill="#e13438" stroke="none" transform="matrix(1 0 0 1 98 75 )" />
  </g>
</svg>