<?xml version="1.0" encoding="utf-8"?>
<svg version="1.1" xmlns:xlink="http://www.w3.org/1999/xlink" width="6px" height="6px" xmlns="http://www.w3.org/2000/svg">
  <g transform="matrix(1 0 0 1 -92 -75 )">
    <path d="M 0.444849651709123 3.60887427332052  C 0.244743642502575 3.25359443421404  0.141664252321429 2.8519075288303  0.145968304828285 2.44417274477564  C 0.148002109587095 2.07960132216346  0.25108046111127 1.72273301827295  0.443748799602746 1.41322474715535  C 0.651198380514175 1.08796100748353  0.944564303292926 0.826408142564582  1.29140492151161 0.657489776128857  C 1.67818598226559 0.477587070295947  2.10187451875662 0.391227769133119  2.52821226302403 0.405394643768931  C 3.15491322599333 0.383795095086852  3.76724306343363 0.596079902555731  4.24609197502238 1.00095563331788  C 4.68436418481417 1.36776869274237  4.92939947954082 1.91590066934708  4.91045622121975 2.48710597692426  C 4.91708315407641 3.06789587049085  4.66542200123582 3.62163106736593  4.22352450684166 3.99857591897728  C 3.75155395848995 4.3996067672115  3.14785196328425 4.61175537351633  2.52876268907724 4.59413690852622  C 2.11138634122638 4.59235700627202  1.69863389789141 4.50662429922104  1.31507324179864 4.34204177616631  C 0.950846318448366 4.20239581256897  0.644285491145587 3.94411686129304  0.444849651709123 3.60887427332052  Z M 1.4058935405746 2.51297600142408  C 1.39171221393844 2.84809452805444  1.50656069780543 3.17589534650166  1.72679192958296 3.42888495392816  C 1.94179272972371 3.63637755233812  2.22942235575895 3.75154793144429  2.52821226302406 3.7497833429365  C 2.82780793610641 3.75588082847299  3.11703913868753 3.64006915875816  3.32963259646511 3.42888495392816  C 3.55349002989944 3.17801859829225  3.66887073840483 2.84869870300421  3.65053098547346 2.51297600142408  C 3.66921223303043 2.18398900419285  3.55338382484414 1.86153702051139  3.32963259646511 1.61963451710068  C 2.88067470369387 1.19208452637202  2.17519939630102 1.19208452637202  1.72624150352978 1.61963451710068  C 1.49492769301541 1.85687708939295  1.37786268822197 2.18277160531021  1.40534311452143 2.51297600142408  Z " fill-rule="nonzero" fill="#e13438" stroke="none" transform="matrix(1 0 0 1 92 75 )" />
  </g>
</svg>