<?xml version="1.0" encoding="utf-8"?>
<svg version="1.1" xmlns:xlink="http://www.w3.org/1999/xlink" width="7px" height="8px" xmlns="http://www.w3.org/2000/svg">
  <g transform="matrix(1 0 0 1 -103 -75 )">
    <path d="M 0.707483452084813 4.99896180277416  L 0.705700071672499 4.99780590806246  L 2.2144399005017 5.14229274702419  C 2.2252021703831 5.26527326874829  2.28781607304043 5.37844568635201  2.38742780049744 5.45496226653734  C 2.57140326344899 5.54476064600202  2.77634131478293 5.58620367416069  2.98188793794006 5.57517531655352  C 3.2431834333159 5.58505777049878  3.50388318273141 5.54419010952237  3.74874151524099 5.45496226653738  C 3.87447208967396 5.39643215829847  3.97203608657541 5.2928798811408  4.02100425818966 5.16598858861392  C 4.070196500766 5.00216879729075  4.08693988707408 4.83075641872225  4.07034444959741 4.66086259960369  L 4.07034444959738 4.0597973495229  C 3.7098941934168 4.49706008706624  3.16041348442693 4.74600537494472  2.58419410599101 4.73310601908456  C 1.96670101660061 4.76000088630335  1.37498719313042 4.49040039595019  1.00114675998149 4.01182771898758  C 0.68885344050322 3.61072031022993  0.523353094368286 3.11967085648154  0.530928791264438 2.61666280197312  C 0.488418211414051 2.02234481565778  0.704034111680306 1.43790593932503  1.12538892870699 1.00534557387188  C 1.53335007751636 0.634365566363866  2.07579314112366 0.435508959942266  2.63412875753618 0.452249954326341  C 3.22490122735799 0.434276749151922  3.79104318697729 0.682817214305615  4.16783591213798 1.12555862388803  L 4.16783591213798 0.524493373807222  L 5.40728529870572 0.524493373807222  L 5.40728529870572 4.27652760796549  C 5.426147708213 4.65092999774437  5.37581306516964 5.02558752413014  5.25867026434505 5.38271884705649  C 5.17784111552689 5.61024728213834  5.03206682852952 5.81070697272875  4.8383869471732 5.96066620290345  C 4.62914681193856 6.11080243150841  4.3948742651346 6.2247826727467  4.14584088705255 6.2976095113622  C 3.78129129298395 6.38144471991688  3.40759829670629 6.42181279050241  3.03301150976012 6.41782256137836  C 2.40812652791529 6.46496004158408  1.78222419431423 6.33997186436729  1.22704161220962 6.05718341132989  C 0.905984050188505 5.8576971953489  0.710484668695545 5.51387701117292  0.707483452084813 5.14344864173589  L 0.707483452084813 4.99896180277416  Z M 2.16866646991865 1.6324184549658  C 1.96192707896399 1.89236673529478  1.86459532820338 2.21901959970149  1.89640372696998 2.54615322455978  C 1.86548066346097 2.89935533257796  1.97149744881937 3.25103656889747  2.19363379569122 3.53213141363464  C 2.38982808930726 3.74049659261324  2.67010944324761 3.85477582251979  2.96048737299212 3.84480093314783  C 3.26538273777126 3.85515451927898  3.56100144052008 3.74190817840845  3.77668114170073 3.53213141363464  C 4.01025923655427 3.27478661481153  4.12632804752345 2.9362525828181  4.09828407605715 2.59412285509509  C 4.13024930302329 2.24435299090396  4.01410383870736 1.89703773922195  3.77668114170073 1.63241845496579  C 3.56360862449611 1.41880857363169  3.26616578001417 1.30486343605247  2.96048737299212 1.3197489354526  C 2.66277357506129 1.30948664462982  2.37470542896453 1.42323727747815  2.16866646991865 1.6324184549658  Z " fill-rule="nonzero" fill="#e13438" stroke="none" transform="matrix(1 0 0 1 103 75 )" />
  </g>
</svg>