<?xml version="1.0" encoding="utf-8"?>
<svg version="1.1" xmlns:xlink="http://www.w3.org/1999/xlink" width="17px" height="9px" xmlns="http://www.w3.org/2000/svg">
  <g transform="matrix(1 0 0 1 -35 -63 )">
    <path d="M 0.508829338375265 0.448481742971388  L 0.50517112214486 0.447872040266317  C 2.58547675184128 0.295446363998998  4.6913898951506 0.346661391224818  6.79730303845992 0.346661391224818  C 6.84790836298067 2.1477231819995  7.00033403924799 3.94939467547925  7.15275971551531 5.75045646625393  C 7.71063769065372 5.77606397986684  8.26912536849718 5.80106179077468  8.85261085724848 5.82666930438759  C 9.00503653351581 4.02560751361291  9.03003434442365 2.22393602013316  9.15746220978313 0.422874229358478  C 11.2633753530925 0.346661391224818  13.3692884964018 0.321663580316978  15.474591937006 0.448481742971388  C 14.2551865268675 1.89469655939575  12.0492821399268 2.42757672362632  9.94397869932252 2.80803121158955  C 9.81716053666811 4.17803318988025  10.1470097001106 5.6498555199175  9.46170385961271 6.96864247098238  C 9.14085475507813 7.4765331666265  8.58204403729491 7.78449315550363  7.98129691362097 7.78449315550363  C 7.54312656615947 7.78449315550363  7.12087841744013 7.62021808586967  6.79791274116499 7.32409914803777  C 5.73215241270387 5.95409716974709  6.16382192789292 4.27985354162682  5.93518341349195 2.7574258870688  C 3.85487778379553 2.42757672362632  1.82517747861986 1.7428805858335  0.508829338375265 0.448481742971388  Z " fill-rule="nonzero" fill="#e13438" stroke="none" transform="matrix(1 0 0 1 35 63 )" />
  </g>
</svg>