<?xml version="1.0" encoding="utf-8"?>
<svg version="1.1" xmlns:xlink="http://www.w3.org/1999/xlink" width="6px" height="7px" xmlns="http://www.w3.org/2000/svg">
  <g transform="matrix(1 0 0 1 -34 -18 )">
    <path d="M 5.59012002044807 4.63040007511722  C 5.59012002044807 5.44421065041774  4.93097864597627 6.10424214728744  4.11716881172867 6.10534039711774  C 3.82123718048723 6.09275894895802  3.58779837016135 5.84918467960642  3.58779837016135 5.55298572078482  C 3.58779837016135 5.2567867619631  3.82123718048729 5.01321249261161  4.11716881172862 5.00063104445201  C 4.32031264137493 5.00008274502272  4.48485696318789 4.83553842320964  4.48540526261723 4.63239459356339  L 4.48540526261723 1.95494636122157  C 4.48485696318795 1.75180253157532  4.32031264137493 1.58725820976224  4.11716881172862 1.58670991033296  L 1.96463215978628 1.58670991033284  C 1.76148833013997 1.58725820976224  1.596944008327 1.75180253157532  1.59639570889772 1.95494636122157  L 1.59639570889777 3.67338313203504  C 1.58381426073885 3.96931476327711  1.34023999138697 4.2027535736039  1.04404103256485 4.2027535736039  C 0.747842073742731 4.2027535736039  0.50426780439085 3.96931476327711  0.491686356231867 3.67338313203504  L 0.491686356231924 1.95494636122157  C 0.492785789340246 1.14191669214767  1.15160249071243 0.4830999907756  1.96463215978628 0.48200055766722  L 4.11716881172862 0.48200055766722  C 4.9301984808024 0.4830999907756  5.58901518217465 1.14191669214767  5.59011461528297 1.95494636122157  L 5.59011461528303 4.62640700899601  C 5.59011821872468 4.62773802798779  5.59012002044807 4.62906905124782  5.59012002044807 4.63040007511722  Z " fill-rule="nonzero" fill="#666666" stroke="none" transform="matrix(1 0 0 1 34 18 )" />
  </g>
</svg>