<?xml version="1.0" encoding="utf-8"?>
<svg version="1.1" xmlns:xlink="http://www.w3.org/1999/xlink" width="12px" height="11px" xmlns="http://www.w3.org/2000/svg">
  <g transform="matrix(1 0 0 1 -552 -117 )">
    <path d="M 9.47916666015625 7.96625  C 8.39875 9.77083333984375  7.10625 10.80625  5.93375 10.80625  C 3.57541666015625 10.80625  1.47833333984375 7.32125  0.87166666015625 4.80541666015625  C 0.863835997226699 4.7729424382282  0.85987932257652 4.73965500519007  0.85987932257652 4.70625  C 0.85987932257652 4.4726129298457  1.04927959000194 4.28321266242027  1.28291666015625 4.28321266242027  C 1.47835440677538 4.28321266242027  1.64835295323486 4.41709118984359  1.69416666015625 4.60708333984375  C 2.30416666015625 7.13375  4.24625 9.96  5.93416666015625 9.96  C 7.8083333203125 9.96  10.1804166601563 5.75375  10.1804166601563 3.17583333984375  C 10.1804166601563 2.59458333984375  10.0479166601563 2.1829166796875  9.775 1.91625  C 9.21333333984375 1.3675  8.0375 1.395  6.79291666015625 1.42416666015625  C 6.5120833203125 1.4308333203125  6.22125 1.4375  5.93375 1.4375  C 5.63208333984375 1.4375  5.32416666015625 1.42916666015625  5.02625 1.42166666015625  C 4.11083333984375 1.3975  3.24583333984375 1.37541666015625  2.59541666015625 1.56708333984375  C 2.32541666015625 1.64708333984375  2.11666666015625 1.75708333984375  1.95791666015625 1.90333333984375  C 1.87976296104155 1.97556392076857  1.77725352320916 2.01567964978539  1.67083333007812 2.01567964978539  C 1.4372327259814 2.01567964978539  1.24786202013649 1.82630894394047  1.24786202013649 1.59270833984375  C 1.24786202013649 1.47474800894917  1.29712136367669 1.36214655882427  1.38375 1.28208333984375  C 1.64 1.045  1.95791666015625 0.872916679687499  2.35625 0.75541666015625  C 3.13416666015625 0.525833320312501  4.10708333984375 0.5508333203125  5.04791666015625 0.57541666015625  C 5.34041666015625 0.582916660156251  5.6433333203125 0.5908333203125  5.93375 0.59083333984375  C 6.21083333984375 0.59083333984375  6.49708333984375 0.5841666796875  6.77333333984375 0.577500000000001  C 8.2004166796875 0.544166660156251  9.54958333984375 0.51291666015625  10.3658333398437 1.31  C 10.81 1.74416666015625  11.0266666796875 2.35416666015625  11.0266666601562 3.175  C 11.0266666601562 4.515  10.4191666601562 6.39541666015625  9.47916666015625 7.96625  Z M 1.45416666015625 3.49958333984375  C 1.4470833203125 3.72875  1.2595833203125 3.91  1.03125 3.91  L 1.01875 3.91  C 0.790127054346353 3.90356857599229  0.608130706461042 3.71638046526558  0.608130706461042 3.48766707585841  C 0.608130706461042 3.48330504598421  0.608198259021592 3.47894327766382  0.608333339843751 3.47458333984375  C 0.611666679687501 3.3575  0.636250000000001 2.7525  0.777500000000002 2.3575  C 0.837822154964877 2.18937178320218  0.997211215928668 2.0772209511431  1.17583333007813 2.0772209511431  C 1.40955787175333 2.0772209511431  1.5990290488569 2.26669212824667  1.5990290488569 2.50041666992187  C 1.5990290488569 2.54913145850511  1.59061804435351 2.59748050367516  1.57416666015625 2.64333333984375  C 1.50625 2.8325  1.4620833203125 3.21708333984375  1.45416666015625 3.49958333984375  Z " fill-rule="nonzero" fill="#231815" stroke="none" transform="matrix(1 0 0 1 552 117 )" />
  </g>
</svg>