<?xml version="1.0" encoding="utf-8"?>
<svg version="1.1" xmlns:xlink="http://www.w3.org/1999/xlink" width="3px" height="5px" xmlns="http://www.w3.org/2000/svg">
  <g transform="matrix(1 0 0 1 -557 -114 )">
    <path d="M 1.14041666015625 4.20625  C 1.08688109561587 4.26345832793436  1.01210048446177 4.29602407897897  0.933750000000002 4.29625  C 0.778080353100995 4.29575595880322  0.652146552012642 4.16942185352251  0.652146552012642 4.0137514226682  C 0.652146552012642 3.94251240026714  0.679061307258435 3.87390353753371  0.727499999999999 3.82166666015625  C 1.23708333984375 3.27416666015625  1.78875 2.9575  2.26375 2.71291666015625  C 2.11541666015625 2.29291666015625  1.84666666015625 2.04625  1.5425 1.76708333984375  C 1.21958333984375 1.47083333984375  0.853333339843749 1.135  0.665833339843747 0.563333339843748  C 0.658603720858519 0.538064172406584  0.654935851856852 0.511909717303549  0.654935851856852 0.485626676885077  C 0.654935851856852 0.329606235057878  0.781415410029652 0.203126676885077  0.937435851856852 0.203126676885077  C 1.05577338738795 0.203126676885077  1.16156986698622 0.276882897151259  1.2025 0.387916660156248  C 1.34333333984375 0.819166660156248  1.61208333984375 1.0658333203125  1.92333333984375 1.35125  C 2.2916666796875 1.68875  2.70875 2.07125  2.87333333984375 2.79625  C 2.90218902482204 2.9224232103749  2.8413427678742 3.05202229734652  2.72583333984375 3.11041666015625  C 2.12083333984375 3.41625  1.62 3.69125  1.14041666015625 4.20625  Z " fill-rule="nonzero" fill="#231815" stroke="none" transform="matrix(1 0 0 1 557 114 )" />
  </g>
</svg>