<?xml version="1.0" encoding="utf-8"?>
<svg version="1.1" xmlns:xlink="http://www.w3.org/1999/xlink" width="13px" height="7px" xmlns="http://www.w3.org/2000/svg">
  <g transform="matrix(1 0 0 1 -699 -114 )">
    <path d="M 12.7708333398438 5.45666666015625  C 12.5204166796875 5.8545833203125  12.0970833398438 6.07291666015625  11.5779166601562 6.07291666015625  L 2.32791666015625 6.07291666015625  C 1.80875 6.07291666015625  1.38541666015625 5.8545833203125  1.13541666015625 5.45708333984375  C 0.853749999999999 5.00875  0.829583320312499 4.36333333984375  1.07583333984375 3.85083333984375  C 1.17708333984375 3.64  1.43 3.55125  1.64041666015625 3.65291666015625  C 1.85125 3.75375  1.94 4.00666666015625  1.83833333984375 4.21708333984375  C 1.7191666796875 4.465  1.725 4.80458333984375  1.85166666015625 5.00625  C 1.945 5.15458333984375  2.1008333203125 5.22625  2.32791666015625 5.22625  L 11.5783333398437 5.22625  C 11.8054166796875 5.22625  11.96125 5.15458333984375  12.0545833398437 5.00625  C 12.18125 4.80458333984375  12.1870833398437 4.465  12.0679166601562 4.21708333984375  C 10.9358333203125 1.8625  8.6633333203125 1.33708333984375  6.95333333984375 1.31166666015625  C 5.73125 1.33  4.67375 1.5875  3.81041666015625 2.07708333984375  C 3.74677017535405 2.1131953314675  3.67484419063323 2.13217877200218  3.60166666015625 2.13217877200218  C 3.36804352718343 2.13217877200218  3.17865455807594 1.9427898028947  3.17865455807594 1.70916666992188  C 3.17865455807594 1.55690391065099  3.2604854434876 1.41638934197505  3.39291666015625 1.34125  C 4.38291666015625 0.779583339843751  5.57916666015625 0.485416660156251  6.9475 0.465416660156251  L 6.95958333984375 0.465416660156251  C 9.755 0.505000000000001  11.785 1.6758333203125  12.8304166601562 3.85041666015625  C 13.0766666601562 4.36291666015625  13.0529166601562 5.0083333203125  12.7708333398438 5.45666666015625  Z M 2.50458333984375 3.16875  C 2.42083333984375 3.27041666015625  2.3 3.32291666015625  2.17833333984375 3.32291666015625  C 1.94461892364363 3.32279493494566  1.75522048418661 3.13329782562887  1.75522048418661 2.89958337772976  C 1.75522048418661 2.80100195206452  1.78962522459418 2.70551133273082  1.8525 2.62958333984375  C 2.04458333984375 2.3975  2.25708333984375 2.17958333984375  2.48333333984375 1.98291666015625  C 2.5587176017899 1.92184899912709  2.65278973315867 1.88852668893522  2.74980543380933 1.88852668893522  C 2.98360598149997 1.88852668893522  3.17313877365308 2.07805948108833  3.17313877365308 2.31186002877897  C 3.17313877365308 2.42915433165296  3.12447365456491 2.54119121825351  3.03875 2.62125  C 2.84708333984375 2.7875  2.6675 2.97208333984375  2.50458333984375 3.16875  Z " fill-rule="nonzero" fill="#231815" stroke="none" transform="matrix(1 0 0 1 699 114 )" />
  </g>
</svg>