<?xml version="1.0" encoding="utf-8"?>
<svg version="1.1" xmlns:xlink="http://www.w3.org/1999/xlink" width="14px" height="4px" xmlns="http://www.w3.org/2000/svg">
  <g transform="matrix(1 0 0 1 -699 -121 )">
    <path d="M 13.7445833398438 2.06  C 13.7436648558581 2.70204294860272  13.2232932364429 3.22222818267479  12.58125 3.22291666015625  L 1.325 3.22291666015625  C 0.682861730110036 3.22245738203291  0.162355978843382 2.70213806415242  0.16166666015625 2.06  C 0.162584614589882 1.41788935097353  0.682889350973533 0.897584614589881  1.325 0.896666660156249  L 12.58125 0.896666660156249  C 13.223455678104 0.897355599432439  13.7438944005676 1.41779432189603  13.7445833398438 2.06  Z M 12.58125 1.74333333984375  L 1.325 1.74333333984375  C 1.15013716613262 1.7435622133149  1.00837547192096 1.88513761827379  1.00791666015625 2.06  C 1.00791666015625 2.23458333984375  1.15 2.37708333984375  1.325 2.37708333984375  L 12.58125 2.37708333984375  C 12.7517857316408 2.37089827953201  12.8868407865388 2.23085619578495  12.8868407865388 2.06020833984375  C 12.8868407865388 1.88956048390255  12.7517857316408 1.74951840015549  12.58125 1.74333333984375  Z " fill-rule="nonzero" fill="#231815" stroke="none" transform="matrix(1 0 0 1 699 121 )" />
  </g>
</svg>