<?xml version="1.0" encoding="utf-8"?>
<svg version="1.1" xmlns:xlink="http://www.w3.org/1999/xlink" width="4px" height="3px" xmlns="http://www.w3.org/2000/svg">
  <g transform="matrix(1 0 0 1 -702 -116 )">
    <path d="M 1.86019897463521 0.717689438527861  C 1.86019897463521 0.964094311254462  1.66421903646489 1.16581027372355  1.41791666015625 1.17291666015625  C 1.41353968331724 1.17304294594079  1.40916111275572 1.17310609868411  1.40478231447895 1.17310609868411  C 1.15326263825578 1.17310609868411  0.949365654322705 0.969209114751032  0.949365654322705 0.717689438527861  C 0.949365654322705 0.466169762304691  1.15326263825578 0.262272778371612  1.40478231447895 0.262272778371612  C 1.40957799365797 0.262272778371612  1.4143733736917 0.262348528362918  1.41916666015625 0.2625  C 1.66496347189217 0.270267373333225  1.86019897463521 0.471769929850655  1.86019897463521 0.717689438527861  Z M 1.41791666015625 0.545  C 1.32706768212758 0.551310650897059  1.25659464682202 0.626848776986995  1.25659464682202 0.717916669921875  C 1.25659464682202 0.808984562856756  1.32706768212758 0.884522688946692  1.41791666015625 0.890833339843749  C 1.51341589994563 0.890833339843749  1.59083333007812 0.813415909711253  1.59083333007812 0.717916669921875  C 1.59083333007812 0.622417430132498  1.51341589994563 0.545  1.41791666015625 0.545  Z M 1.70872645378424 2.21729166992187  C 1.70872645378424 2.46344831796251  1.51312738367333 2.6650552790121  1.26708333984375 2.6725  C 1.02493931748574 2.65980665530006  0.83511231213844 2.45976816066559  0.83511231213844 2.21729166992188  C 0.83511231213844 1.97481517917816  1.02493931748574 1.77477668454369  1.26708333984375 1.76208333984375  C 1.51312738367333 1.76952806083165  1.70872645378424 1.97113502188124  1.70872645378424 2.21729166992187  Z M 1.26708333984375 2.04416666015625  C 1.17158410005437 2.04416666015625  1.09416666992188 2.12158409028875  1.09416666992188 2.21708333007813  C 1.09416666992188 2.3125825698675  1.17158410005437 2.39  1.26708333984375 2.39  C 1.36258257963313 2.39  1.44000000976563 2.3125825698675  1.44000000976563 2.21708333007813  C 1.44000000976563 2.12158409028875  1.36258257963313 2.04416666015625  1.26708333984375 2.04416666015625  Z M 3.58621551668587 1.09497476197226  C 3.58621551668587 1.33596221122506  3.39847650606111 1.53523373233691  3.15791666015625 1.54958333984375  C 3.14888742294662 1.55012194182679  3.13984414351699 1.55039142212851  3.13079885652962 1.55039142212851  C 2.87927918030645 1.55039142212851  2.67538219637337 1.34649443819543  2.67538219637337 1.09497476197226  C 2.67538219637337 0.843455085749087  2.87927918030645 0.639558101816008  3.13079885652962 0.639558101816008  C 3.14012249627081 0.639558101816008  3.14944393732474 0.639844422873621  3.15875 0.640416660156252  C 3.39896168087536 0.655187469715215  3.58621551668587 0.854309375088322  3.58621551668587 1.09497476197226  Z M 3.15791666015625 0.92166666015625  C 3.06706768212758 0.927977311053305  2.99659464682202 1.00351543714324  2.99659464682202 1.09458333007812  C 2.99659464682202 1.18565122301301  3.06706768212758 1.26118934910294  3.15791666015625 1.2675  C 3.25341589994563 1.2675  3.33083333007812 1.1900825698675  3.33083333007812 1.09458333007812  C 3.33083333007812 0.999084090288748  3.25341589994563 0.92166666015625  3.15791666015625 0.92166666015625  Z " fill-rule="nonzero" fill="#231815" stroke="none" transform="matrix(1 0 0 1 702 116 )" />
  </g>
</svg>