<?xml version="1.0" encoding="utf-8"?>
<svg version="1.1" xmlns:xlink="http://www.w3.org/1999/xlink" width="12px" height="12px" viewBox="248 410.5  12 12" xmlns="http://www.w3.org/2000/svg">
  <path d="M 248.5 411.5  A 0.5 0.5 0 0 1 249 411 L 259 411  A 0.5 0.5 0 0 1 259.5 411.5 L 259.5 421.5  A 0.5 0.5 0 0 1 259 422 L 249 422  A 0.5 0.5 0 0 1 248.5 421.5 L 248.5 411.5  Z " fill-rule="nonzero" fill="#ffffff" stroke="none" />
  <path d="M 248.5 411.5  A 0.5 0.5 0 0 1 249 411 L 259 411  A 0.5 0.5 0 0 1 259.5 411.5 L 259.5 421.5  A 0.5 0.5 0 0 1 259 422 L 249 422  A 0.5 0.5 0 0 1 248.5 421.5 L 248.5 411.5  Z " stroke-width="1" stroke="#0070cc" fill="none" />
  <path d="M 250.571428571429 416.5  L 253.142857142857 419.071428571429  " stroke-width="2.57142857142857" stroke="#0070cc" fill="none" />
  <path d="M 253.142857142857 419.071428571429  L 257.428571428571 413.071428571429  " stroke-width="2.57142857142857" stroke="#0070cc" fill="none" />
</svg>