<?xml version="1.0" encoding="utf-8"?>
<svg version="1.1" xmlns:xlink="http://www.w3.org/1999/xlink" width="12px" height="12px" viewBox="591 301.5  12 12" xmlns="http://www.w3.org/2000/svg">
  <path d="M 591.5 302.5  A 0.5 0.5 0 0 1 592 302 L 602 302  A 0.5 0.5 0 0 1 602.5 302.5 L 602.5 312.5  A 0.5 0.5 0 0 1 602 313 L 592 313  A 0.5 0.5 0 0 1 591.5 312.5 L 591.5 302.5  Z " fill-rule="nonzero" fill="#ffffff" stroke="none" />
  <path d="M 591.5 302.5  A 0.5 0.5 0 0 1 592 302 L 602 302  A 0.5 0.5 0 0 1 602.5 302.5 L 602.5 312.5  A 0.5 0.5 0 0 1 602 313 L 592 313  A 0.5 0.5 0 0 1 591.5 312.5 L 591.5 302.5  Z " stroke-width="1" stroke="#999999" fill="none" />
</svg>