<?xml version="1.0" encoding="utf-8"?>
<svg version="1.1" xmlns:xlink="http://www.w3.org/1999/xlink" width="12px" height="12px" viewBox="524 301.5  12 12" xmlns="http://www.w3.org/2000/svg">
  <path d="M 524.5 302.5  A 0.5 0.5 0 0 1 525 302 L 535 302  A 0.5 0.5 0 0 1 535.5 302.5 L 535.5 312.5  A 0.5 0.5 0 0 1 535 313 L 525 313  A 0.5 0.5 0 0 1 524.5 312.5 L 524.5 302.5  Z " fill-rule="nonzero" fill="#ffffff" stroke="none" />
  <path d="M 524.5 302.5  A 0.5 0.5 0 0 1 525 302 L 535 302  A 0.5 0.5 0 0 1 535.5 302.5 L 535.5 312.5  A 0.5 0.5 0 0 1 535 313 L 525 313  A 0.5 0.5 0 0 1 524.5 312.5 L 524.5 302.5  Z " stroke-width="1" stroke="#999999" fill="none" />
</svg>