<?xml version="1.0" encoding="utf-8"?>
<svg version="1.1" xmlns:xlink="http://www.w3.org/1999/xlink" width="15px" height="15px" xmlns="http://www.w3.org/2000/svg">
  <g transform="matrix(1 0 0 1 -661 -20 )">
    <path d="M 13.9859999999999 12.972  L 13.9839999999999 12.972  L 8.01299999999992 7.00100000000003  L 13.9839999999999 1.03000000000003  C 14.0971148329165 0.916885167083464  14.160662084352 0.763468530816205  14.160662084352 0.603500000000032  C 14.160662084352 0.270382779136199  13.8906172208638 0.000337915647904197  13.5574999999999 0.000337915647904197  C 13.3975314691837 0.000337915647904197  13.2441148329165 0.0638851670834626  13.1309999999999 0.177000000000028  L 7.15999999999997 6.14800000000003  L 1.18999999999994 0.178000000000029  C 1.07688516708333 0.0648851670834674  0.923468530816081 0.00133791564790187  0.763499999999908 0.00133791564790187  C 0.430382779136039 0.00133791564790187  0.160337915647801 0.271382779136196  0.160337915647801 0.60450000000003  C 0.160337915647801 0.764468530816202  0.223885167083381 0.917885167083462  0.336999999999875 1.03100000000003  L 6.30799999999988 7.00200000000003  L 0.337999999999965 12.972  C 0.224885167083357 13.0851148329166  0.161337915647778 13.2385314691839  0.161337915647778 13.3985  C 0.161337915647778 13.7316172208639  0.431382779136129 14.0016620843522  0.764499999999884 14.0016620843522  C 0.924468530816057 14.0016620843522  1.07788516708331 13.9381148329166  1.19099999999992 13.825  L 7.16199999999992 7.85400000000003  L 13.1329999999999 13.825  C 13.2461148329165 13.9381148329166  13.3995314691838 14.0016620843522  13.5595 14.0016620843522  C 13.8926172208637 14.0016620843522  14.1626620843521 13.7316172208639  14.1626620843521 13.3985  C 14.1626620843521 13.2385314691839  14.0991148329165 13.0851148329166  13.9859999999999 12.972  Z " fill-rule="nonzero" fill="#999999" stroke="none" transform="matrix(1 0 0 1 661 20 )" />
  </g>
</svg>