<?xml version="1.0" encoding="utf-8"?>
<svg version="1.1" xmlns:xlink="http://www.w3.org/1999/xlink" width="12px" height="16px" xmlns="http://www.w3.org/2000/svg">
  <g transform="matrix(1 0 0 1 -32 -96 )">
    <path d="M 2.92004980736301 10.5731958762887  L 2.92154420483733 10.5731958762887  C 1.1820672463613 9.57750702319588  0.0224159460616437 7.76457356636598  0.0224159460616437 5.69372071520618  C 0.0224159460616437 2.54920336662371  2.69738480843322 0  6 0  C 9.30261519156678 0  11.9775840539384 2.54920336662371  11.9775840539384 5.69372071520618  C 11.9775840539384 7.76457356636598  10.8164383561644 9.57750703930413  9.07845579516267 10.5731958762887  C 8.98132005565069 11.0830365496134  8.74819427440069 11.5448922197165  8.41494395869007 11.9287722615979  L 3.58505604130993 11.9287722615979  C 3.24815554000846 11.5436503149749  3.01873259871221 11.0759850426908  2.92004980736301 10.5731958762887  Z M 10.2694894103168 6.23655107925258  L 10.2694894103168 6.23505154639175  C 10.2827368467358 3.85497039499523  8.37191566415751 1.91409364297174  6 1.89840674935567  C 5.62191780821918 1.89840674935567  5.43063512414384 2.07985004832474  5.43063512414384 2.43973758054124  C 5.43063512414384 2.52970947164948  5.62191780821918 2.70965323775773  6 2.70965323775773  C 7.82316313677226 2.70965323775773  9.41618928724315 4.22867854381443  9.41618928724315 6.23505154639175  C 9.41618928724315 6.3250234375  9.60747197131849 6.50646673646907  9.98405978167808 6.50646673646907  C 10.0782067262414 6.50646673646907  10.2694894263699 6.3250234375  10.2694894103168 6.23655107925258  Z M 3.43860523330479 13.2843486469072  L 3.43860523330479 13.2828491140464  C 3.43860523330479 12.9844423646907  3.69265256314212 12.7430178157216  4.00647571168664 12.7430177996134  L 7.99352428831336 12.7430177996134  C 8.30734745291096 12.7430177996134  8.56139476669521 12.9829428157216  8.56139476669521 13.2828491140464  C 8.56139476669521 13.5827553962629  8.30734743685787 13.8256794780928  7.99352428831336 13.8256794780928  L 4.00647571168664 13.8256794780928  C 4.00144269317059 13.8258174733345  3.99640803100849 13.8258864806102  3.99137313400223 13.8258864806102  C 3.69115982522379 13.8258864806102  3.44579570988162 13.5855071978711  3.43860523330479 13.2843486469072  Z M 3.70460772688356 14.6399250161082  L 8.29539227311644 14.6399250161082  C 7.87696138163528 15.4421743073454  7.00572850492295 15.9955014014175  6 15.9955014014175  C 5.04348230379977 16.005988688026  4.15982477637154 15.4841322319806  3.70460772688356 14.6399250161082  Z " fill-rule="nonzero" fill="#b86e3f" stroke="none" transform="matrix(1 0 0 1 32 96 )" />
  </g>
</svg>