<?xml version="1.0" encoding="utf-8"?>
<svg version="1.1" xmlns:xlink="http://www.w3.org/1999/xlink" width="4px" height="4px" xmlns="http://www.w3.org/2000/svg">
  <g transform="matrix(1 0 0 1 -349 30 )">
    <path d="M 3.31410491083102 2.04084514408243  L 3.31311123895193 3.83442288583234  L 2.42973693844462 3.83442288583234  L 2.42973693844459 2.35087077035718  C 2.44142156766827 2.15078723897224  2.42469408057462 1.95005739384831  2.38005334449034 1.75466764290573  C 2.34755745492066 1.66227884647199  2.28209564755133 1.58514006805839  2.19622404685944 1.53804717326503  C 2.10043748698271 1.48115479787486  1.99062643812763 1.45223903579387  1.87924271743105 1.45457873542182  C 1.73179221099721 1.44947522059149  1.5863696514146 1.49008247469931  1.4628942000941 1.57083834527484  C 1.35054154870784 1.6351164040093  1.26252653638858 1.73465719175121  1.21248888656447 1.8540348308143  C 1.15405471290947 2.07116279921715  1.13156522343749 2.29639335795878  1.14591287066571 2.52078866168088  L 1.14591287066571 3.83740390146957  L 0.263532242037542 3.83740390146957  L 0.263532242037542 0.937869358297149  L 1.09722294859054 0.937869358297149  L 1.09722294859054 1.37111029757855  C 1.37209119304586 1.05060178670246  1.77502564315645 0.868607906797024  2.19721771873856 0.874274358035649  C 2.38003720823536 0.870208059744044  2.56171831079482 0.904040667297011  2.73081951780767 0.973641545944247  C 2.87082315103453 1.01921643016783  2.99697872901839 1.09955941343671  3.09748444119029 1.20715443752943  C 3.17552254895054 1.29941554255356  3.23249281781497 1.40759123164727  3.26442131687671 1.52413576695778  C 3.30265244630226 1.69359648360268  3.31934552023947 1.86720445254969  3.31410491083102 2.04084514408243  Z " fill-rule="nonzero" fill="#e45050" stroke="none" transform="matrix(1 0 0 1 349 -30 )" />
  </g>
</svg>