<?xml version="1.0" encoding="utf-8"?>
<svg version="1.1" xmlns:xlink="http://www.w3.org/1999/xlink" width="5px" height="7px" xmlns="http://www.w3.org/2000/svg">
  <g transform="matrix(1 0 0 1 -353 30 )">
    <path d="M 0.126928507923225 4.02123319910044  L 0.129909523560485 4.01725851158412  L 1.14643585586523 4.11662569949266  C 1.1536799951873 4.20176897042893  1.19574525770625 4.28014698093438  1.26269546571831 4.33324616913339  C 1.38572275025402 4.3950154339413  1.52268229751067 4.42377693886519  1.66016421735264 4.4167146069766  C 1.83623478421291 4.42348414200382  2.01188981045649 4.39510909930291  2.17687359447723 4.33324616913339  C 2.26144114423383 4.29312586971278  2.32728390177766 4.22194451020599  2.36070289210812 4.13451179331625  C 2.39396824492133 4.02110383767962  2.40543226423142 3.90241752011582  2.39448773599705 3.78473929187803  L 2.39448773599705 3.36839077454107  C 2.15201423660557 3.67102264834878  1.78255466295681 3.84363298593817  1.39485382563672 3.83541655771143  C 0.979482857581843 3.8546555511281  0.581077453046873 3.66900531602329  0.328643899377624 3.33858061816852  C 0.118177554773126 3.06063642504773  0.00661073566624282 2.72034013980937  0.0116625699492658 2.37173787981797  C -0.0177998771358716 1.96024941146402  0.126339854143566 1.55521676656872  0.409131321583629 1.25485068772551  C 0.685611173409995 1.00033473624887  1.04996054121938 0.862857848688378  1.42565765388841 0.871293342398388  C 1.82310622082349 0.862313634275694  2.20317973335821 1.03407762551734  2.45907640813763 1.33831912556872  L 2.45907640813763 0.92197060823176  L 3.29276711469063 0.92197060823176  L 3.29276711469061 3.52240991579933  C 3.30576418800345 3.78199873848956  3.27210925117265 4.04181485082333  3.19339992678206 4.28952460645357  C 3.13832838789054 4.44172582297452  3.04691069171557 4.57817014562372  2.92709586318702 4.6869933580879  C 2.78597915824659 4.79106265048921  2.62799553690201 4.87005446116152  2.46007008001672 4.92050624967311  C 2.21431402954258 4.97869495343087  1.96238375195307 5.00672428232826  1.70984781130693 5.00397468751632  C 1.2889592817283 5.03637353331459  0.867453806113787 4.94959299421745  0.493593431305897 4.75356937398666  C 0.273493729475092 4.61689880061675  0.135986903202053 4.37952251786348  0.126928507923225 4.12060038700901  C 0.126928507923253 4.08747799103946  0.126928507923253 4.05435559506995  0.126928507923225 4.02123319910044  Z M 0.926834370587329 2.32106061398454  C 0.905500049033435 2.5657528533865  0.976381447979122 2.80958486575969  1.1255687464045 3.00470686679563  C 1.25779722978965 3.14906188268495  1.44663789295399 3.22822969916541  1.64227812352911 3.2213273364363  C 1.84754509202668 3.22836412490682  2.04653112158897 3.14992116931083  2.19177867266359 3.0047068667956  C 2.35456630685744 2.82874246068855  2.43885220519516 2.59417659893154  2.42529156424877 2.35484545787349  C 2.44683773360757 2.11237513023644  2.36861234772519 1.87159882781867  2.20867109460804 1.68809162700691  C 2.06494308780327 1.53995935048317  1.86431150214023 1.46101045937391  1.6581768735945 1.47147115736621  C 1.4575718096699 1.46436344852324  1.26346032826427 1.54316475754825  1.12457507452541 1.68809162700691  C 0.972539527615027 1.86189968971246  0.900438314108868 2.09154205472967  0.925840698708299 2.32106061398457  Z " fill-rule="nonzero" fill="#e45050" stroke="none" transform="matrix(1 0 0 1 353 -30 )" />
  </g>
</svg>