<?xml version="1.0" encoding="utf-8"?>
<svg version="1.1" xmlns:xlink="http://www.w3.org/1999/xlink" width="6px" height="5px" xmlns="http://www.w3.org/2000/svg">
  <g transform="matrix(1 0 0 1 -360 30 )">
    <path d="M 0.568537210396954 2.3329846765337  L 0.56356885100152 2.33397834841276  C 0.564980039399956 2.06867974309151  0.639967819918724 1.80897435643229  0.780189320642279 1.58375607970299  C 0.931185175305046 1.34687009558886  1.14474487071178 1.15635146232745  1.39725955755452 1.0332618586894  C 1.67884623445374 0.902524547278034  1.9872484857726 0.839890977473743  2.29752628000628 0.850426232937622  C 2.75354768054919 0.834605112998673  3.19914007617453 0.989039361402973  3.54756550389627 1.28366717221905  C 3.86718257400494 1.55082150734646  4.04573134132758 1.95044811182632  4.03148370901104 2.36676952042259  C 4.03715016024969 2.7889615960047  3.85515628034435 3.19189604611529  3.53464776946814 3.46676429057061  C 3.19121195798166 3.75851855071207  2.75194947660023 3.91284445069783  2.30150096752268 3.90000522985201  C 1.99769575084068 3.89857795591129  1.69728074978295 3.83606189832329  1.41812666701534 3.71617593222115  C 1.15317729288253 3.61447732763276  0.930202233813844 3.42650620248378  0.785157680037713 3.18257413315206  C 0.639434416729301 2.92337894926101  0.564710584784933 2.63031070929566  0.568537210396954 2.3329846765337  Z M 1.71920924637837 1.73280686156588  C 1.55098701684389 1.90542247150924  1.46581260022046 2.14246106075075  1.48569635479319 2.38266827048798  C 1.47523244715242 2.62662911174516  1.5588199393865 2.86529807893297  1.71920924637837 3.04942210135457  C 1.87568675964761 3.20043824199112  2.08503346529804 3.28424825191934  2.30249463940171 3.28293499293974  C 2.52055004808952 3.28744630537477  2.73107936612277 3.20316284755901  2.88578003242506 3.04942210135454  C 3.0487556966834 2.8668126136125  3.13272298823509 2.62705919816082  3.1192929240103 2.38266827048798  C 3.13285356495666 2.14333712942994  3.04856766661894 1.90877126767293  2.88578003242506 1.73280686156588  C 2.55917050812937 1.42164558834455  2.04581877067412 1.42164558834455  1.71920924637837 1.73280686156588  Z " fill-rule="nonzero" fill="#e45050" stroke="none" transform="matrix(1 0 0 1 360 -30 )" />
  </g>
</svg>