<?xml version="1.0" encoding="utf-8"?>
<svg version="1.1" xmlns:xlink="http://www.w3.org/1999/xlink" width="19px" height="9px" xmlns="http://www.w3.org/2000/svg">
  <g transform="matrix(1 0 0 1 -320 33 )">
    <path d="M 15.5806704670258 1.31258825375244  L 15.5806704670258 1.31656294126876  C 13.2475288949323 2.93326708854141  10.9809633387375 4.66623084566709  8.58025207886617 6.20046022697557  C 8.13538739683254 6.01458655248348  7.71546187524859 5.77391381714008  7.33021285497621 5.4840228021547  C 5.51378066000733 4.16740756236598  3.64667119920507 2.8835834945871  1.83023900423618 1.58386067674283  L 0.0306992312117558 0.966790439830532  C 0.0306992312117558 1.1168348935725  0.0138068092672938 1.24998692536997  0.0138068092672938 1.40003137911194  C -0.102452800585745 2.15025364782173  0.680560640133884 2.53381099314885  1.21416243920297 2.93326708854138  C 3.34757596360023 4.3830343601276  5.4313058940432 5.91428272579884  7.547826996496 7.3829297630877  C 7.96417551383296 7.5995502327284  8.5146697348465 8.09936718790857  8.98070184613776 7.69991109251606  C 11.1667799801266 6.29982741488413  13.197845300978 4.7188954552586  15.3471575754406 3.26614716803513  C 15.9850950225464 2.90040648059869  16.5500257327544 2.42003009851368  17.0135453166675 1.84917106845876  C 17.0441805430583 1.4776736695616  17.049824056663 1.10453782887154  17.030437738612 0.732283876366296  L 15.5637780450813 1.22911981590923  C 15.5759363386023 1.25521330509665  15.5817259016258 1.28382055768336  15.5806704670258 1.31258825375244  Z " fill-rule="nonzero" fill="#e45050" stroke="none" transform="matrix(1 0 0 1 320 -33 )" />
  </g>
</svg>