<?xml version="1.0" encoding="utf-8"?>
<svg version="1.1" xmlns:xlink="http://www.w3.org/1999/xlink" width="4px" height="4px" xmlns="http://www.w3.org/2000/svg">
  <g transform="matrix(1 0 0 1 -364 30 )">
    <path d="M 3.7975001307463 2.04084514408245  L 3.7975001307463 3.83442288583234  L 2.91412583023896 3.83442288583234  L 2.91412583023896 2.3508707703572  C 2.92578367951978 2.15078757206999  2.90905650667122 1.95006149788733  2.86444223628467 1.75466764290573  C 2.83194634671503 1.66227884647199  2.7664845393457 1.58514006805839  2.68061293865384 1.53804717326503  C 2.58482637877711 1.48115479787486  2.47501532992197 1.45223903579387  2.36363160922542 1.45457873542182  C 2.21646298557175 1.45176078549338  2.07170153695785 1.49218343343568  1.94728309188844 1.57083834527484  C 1.83493044050221 1.63511640400924  1.74691542818289 1.73465719175121  1.69687777835884 1.8540348308143  C 1.63846124223471 2.07116603036027  1.61597204343025 2.29639367808818  1.63030176246008 2.52078866168088  L 1.63030176246008 3.83740390146957  L 0.746927461952737 3.83740390146957  L 0.746927461952737 0.937869358297149  L 1.58061816850574 0.937869358297149  L 1.58061816850574 1.37111029757855  C 1.85548641296106 1.05060178670246  2.25842086307165 0.868607906797024  2.68061293865384 0.874274358035649  C 2.86343242815065 0.870208059744044  3.04511353071007 0.904040667297011  3.21421473772284 0.973641545944247  C 3.3542183709497 1.01921643016783  3.48037394893362 1.09955941343671  3.58087966110554 1.20715443752945  C 3.66503823723099 1.29514971463595  3.72286814606338 1.40495769628799  3.74781653679196 1.52413576695778  C 3.78600582887151 1.69360318437526  3.80269839253594 1.86720584648526  3.7975001307463 2.04084514408245  Z " fill-rule="nonzero" fill="#e45050" stroke="none" transform="matrix(1 0 0 1 364 -30 )" />
  </g>
</svg>