<?xml version="1.0" encoding="utf-8"?>
<svg version="1.1" xmlns:xlink="http://www.w3.org/1999/xlink" width="16px" height="13px" xmlns="http://www.w3.org/2000/svg">
  <g transform="matrix(1 0 0 1 -373 44 )">
    <path d="M 0.548872966894976 10.0539720725903  L 0.546885623136802 8.93311019298152  C 1.25917815600752 8.51602037764538  1.92910199462489 8.03046703410698  2.54714711573661 7.48334292139532  L 2.54714711573661 4.98326447361539  C 1.91113731648539 5.48215172959483  1.24293503908507 5.93857405022344  0.546885623136859 6.34956330735841  L 0.546885623136859 5.2694419747921  C 1.14161382760113 4.84999735326079  1.70945243587545 4.39366883989015  2.24705820825272 3.90314314104911  L 2.24705820825272 3.87830134407196  L 0.580670467025755 0.499816955180151  L 3.31426180639085 0.499816955180151  L 4.06448407510061 2.04994508655405  C 4.38146540452902 1.66638774122691  4.68155431201291 1.26693164583442  4.96475079755237 0.866481878562823  L 6.26447361539664 0.866481878562823  C 5.78209312135294 1.66725039921074  5.21798355067574 2.41584444577651  4.58119345222525 3.10025626274776  L 4.66466189006849 3.25030071648972  C 4.92948138542346 3.72553915566684  5.07794900982412 4.25675359159574  5.09790282934983 4.8004288478636  L 5.09790282934983 11.4500810627059  C 5.09790282934983 11.9171068458763  4.63087704617948 12.2837717692589  4.01480048114632 12.2837717692589  L 1.09837351602943 12.2837717692589  L 1.09837351602943 11.5882014538988  L 1.93206422258243 11.5882014538988  C 2.24904555201084 11.5882014538988  2.54913445949472 11.3715809842581  2.54913445949472 11.1052769206631  L 2.54913445949472 8.72046441085716  C 1.92621272682408 9.22744123369691  1.25643685438956 9.67395848198657  0.548872966894976 10.0539720725903  Z M 9.96590136499134 4.3950107211966  L 7.44694315150883 4.39997908059202  L 7.44694315150883 2.80016735526385  L 6.24658752157313 2.80016735526385  L 6.24658752157313 2.10459703990377  L 7.44694315150883 2.10459703990377  L 7.44694315150883 0.499816955180165  L 9.96391402123322 0.499816955180165  L 9.96391402123322 2.09962868050835  L 12.2135871554835 2.09962868050835  L 12.2135871554835 0.499816955180165  L 14.7305580252079 0.499816955180165  L 14.7305580252079 2.09962868050835  L 15.9487997489671 2.09962868050835  L 15.9487997489671 2.79519899586842  L 14.732545368966 2.79519899586842  L 14.732545368966 4.3950107211966  L 12.2155744992417 4.3950107211966  L 12.2155744992417 2.79519899586842  L 9.96590136499134 2.79519899586842  L 9.96590136499134 4.3950107211966  Z M 7.52941791747293 5.03294806756969  L 14.6133047434757 5.03294806756969  C 15.230374980388 5.03294806756969  15.7301919355683 5.39961299095235  15.7301919355683 5.84974635217823  L 15.7301919355683 11.4500810627059  C 15.7301919355683 11.9171068458763  15.2333559960253 12.2837717692589  14.6133047434757 12.2837717692589  L 7.52941791747287 12.2837717692589  C 7.00184987495174 12.3462639084642  6.5209119901391 11.9760741053836  6.44631556926936 11.4500810627059  L 6.44631556926936 5.84974635217823  C 6.44631556926936 5.39961299095235  6.9292401025051 5.03294806756969  7.52941791747293 5.03294806756969  Z M 8.76455206317661 6.20051252549553  L 8.76355839129752 8.30014120600387  L 9.81386956749122 8.30014120600387  L 9.81386956749122 5.73348674232518  L 9.3975210501543 5.73348674232518  C 9.06464097066055 5.73348674232518  8.76455206317661 5.9501072119659  8.76455206317661 6.20051252549553  Z M 9.39652737827515 11.5703153600753  L 9.8307619894357 11.5673343444381  L 9.8307619894357 9.00067988075936  L 8.76355839129752 9.00067988075936  L 8.76355839129752 11.0873908268396  C 8.76355839129752 11.3536948904346  9.06165995502329 11.5703153600753  9.39652737827515 11.5703153600753  Z M 13.3811516134093 8.30014120600387  L 13.3811516134093 6.21740494743997  C 13.3811516134093 5.95110088384497  13.0979551278699 5.75037916426965  12.7481826264316 5.75037916426965  L 12.3646252811045 5.75037916426965  L 12.3646252811045 8.30014120600387  L 13.3811516134093 8.30014120600387  Z M 12.3646252811045 11.5643533288008  L 12.7481826264316 11.567334344438  C 13.0547636862511 11.6029693266728  13.3345385240409 11.3895147408552  13.3811516134093 11.0844098112023  L 13.3811516134093 8.99769886512212  L 12.3646252811045 8.99769886512212  L 12.3646252811045 11.5643533288008  Z " fill-rule="nonzero" fill="#e45050" stroke="none" transform="matrix(1 0 0 1 373 -44 )" />
  </g>
</svg>