<?xml version="1.0" encoding="utf-8"?>
<svg version="1.1" xmlns:xlink="http://www.w3.org/1999/xlink" width="15px" height="14px" xmlns="http://www.w3.org/2000/svg">
  <g transform="matrix(1 0 0 1 -723 122 )">
    <path d="M 14.001 7  C 14.001 3.13400675118444  10.8669932488156 0  7.001 0  C 3.13500675118445 0  0.00100000000000477 3.13400675118444  0.00100000000000477 7  C 0.00100000000000477 10.8659932488156  3.13500675118445 14  7.001 14  C 10.8669932488156 14  14.001 10.8659932488156  14.001 7  Z M 11.216 5.042  L 11.217 5.04300000000001  L 6.373 9.99199999999999  C 6.35627512040358 10.0170971889741  6.33718821840712 10.0405372440575  6.316 10.062  C 6.22549834497387 10.1546035649612  6.10148347309985 10.2068080905197  5.97200000000001 10.2068080905197  C 5.84251652690017 10.2068080905197  5.71850165502615 10.1546035649612  5.628 10.062  L 3.22199999999999 7.619  C 3.03142856190284 7.42457824490067  3.03142856190284 7.11342175509932  3.22199999999999 6.919  C 3.31246559564997 6.82670811646229  3.43626449495886 6.77470276209144  3.5655 6.77470276209144  C 3.69473550504115 6.77470276209144  3.81853440435003 6.8267081164623  3.90899999999999 6.919  L 5.964 9.005  L 10.528 4.342  C 10.6185016550261 4.24939643503878  10.7425165269001 4.19719190948028  10.872 4.19719190948028  C 11.0014834730998 4.19719190948028  11.1254983449738 4.24939643503878  11.216 4.342  C 11.4065714380971 4.53642175509931  11.4065714380971 4.84757824490069  11.216 5.042  Z " fill-rule="nonzero" fill="#ffffff" stroke="none" fill-opacity="0.996078431372549" transform="matrix(1 0 0 1 723 -122 )" />
  </g>
</svg>