<?xml version="1.0" encoding="utf-8"?>
<svg version="1.1" xmlns:xlink="http://www.w3.org/1999/xlink" width="18px" height="10px" xmlns="http://www.w3.org/2000/svg">
  <g transform="matrix(1 0 0 1 -320 44 )">
    <path d="M 2.18398619319075 2.16719836828618  L 2.18001150567441 2.16719836828617  C 2.779995569112 2.73618905405067  3.43925538128232 3.23921195267484  4.14648815438524 3.66764290570576  C 5.64693269180483 3.86637728152293  7.16327597928979 3.70142774959469  8.6627268448303 3.75111134354897  C 10.0741526366727 3.80675496948508  11.4876339328027 3.77888350730787  12.8957690497359 3.66764290570576  C 13.6157575556768 3.25528791643755  14.283077656395 2.75713346125141  14.8831128079075 2.18409079023064  C 14.9824799958161 4.11777626693164  15.0997332775483 6.0345693216882  15.2497777312902 7.96726112651012  C 15.7168035144606 7.75064065686942  16.2166204696407 7.53402018722871  16.7333298467654 7.35019088959784  C 16.7164374248209 7.01731081010409  16.6995450028764 6.68343705873124  16.6836462528111 6.36645572930288  C 16.6035695472595 4.23399962428664  16.3975201667849 2.1081407181655  16.0665760158988 0  C 14.0166309293447 0.0496835939543132  13.3329846765337 2.54976204173424  11.2661471680352 2.43350243188119  C 9.33246169133415 2.43350243188119  7.4156686365776 2.45039485382566  5.48297683175567 2.43350243188119  C 4.39987448355213 2.51697086972442  3.81658909052875 1.53323570942943  3.08325924376341 0.983735160294984  C 2.5168662726845 0.533601799069103  1.79943517598453 -0.349772501438196  0.983630563255076 0.166936875686417  C 0.742756352624141 0.995132563605125  0.624906324609505 1.85423248373455  0.633858061816866 2.71669891742066  C 0.56728204591812 4.41687150253649  0.417237592176157 6.11704408765233  0.284085560378664 7.81721667276817  C 0.817687359447746 8.06762198629779  1.31750431462792 8.3339260498928  1.7676376758538 8.6002301134878  C 1.91768212959576 6.43303174520163  2.06573923957954 4.30061189268345  2.18398619319075 2.16719836828618  Z " fill-rule="nonzero" fill="#e45050" stroke="none" transform="matrix(1 0 0 1 320 -44 )" />
  </g>
</svg>