<?xml version="1.0" encoding="utf-8"?>
<svg version="1.1" xmlns:xlink="http://www.w3.org/1999/xlink" width="5px" height="7px" xmlns="http://www.w3.org/2000/svg">
  <g transform="matrix(1 0 0 1 -368 30 )">
    <path d="M 0.610323727838477 4.02123319910044  L 0.614298415354767 4.01725851158412  L 1.63082474765952 4.11662569949266  C 1.63806888698156 4.20176897042893  1.68013414950059 4.28014698093438  1.74708435751268 4.33324616913339  C 1.87011164204836 4.3950154339413  2.00707118930501 4.42377693886519  2.14455310914695 4.4167146069766  C 2.3206236760073 4.42348414200382  2.49627870225078 4.39510909930291  2.6612624862716 4.33324616913339  C 2.7454547564347 4.29292171215127  2.8109172908849 4.22176678340105  2.8440981120234 4.13451179331625  C 2.87741096395609 4.02111301746922  2.88887586212019 3.90241760118184  2.8778829559123 3.78473929187803  L 2.8778829559123 3.36839077454107  C 2.63540945652085 3.67102264834878  2.26594988287206 3.84363298593817  1.87824904555197 3.83541655771143  C 1.46287807749718 3.85465555112808  1.06447267296215 3.66900531602326  0.812039119292933 3.33858061816852  C 0.601572774688407 3.06063642504773  0.490005955581466 2.72034013980939  0.495057789864518 2.37173787981797  C 0.465595342779409 1.96024941146402  0.60973507405879 1.55521676656872  0.892526541498853 1.25485068772551  C 1.16735720765297 0.997671666201285  1.53283467041337 0.859769124045386  1.9090528738036 0.871293342398388  C 2.30709794484926 0.859357069627634  2.68839984886807 1.03167619932842  2.94247162805294 1.33831912556872  L 2.94247162805294 0.92197060823176  L 3.77616233460594 0.92197060823176  L 3.77616233460594 3.52240991579933  C 3.78915940791876 3.78199873848956  3.75550447108793 4.04181485082336  3.67679514669732 4.28952460645357  C 3.62183560524608 4.44610466416606  3.52364660511319 4.58391378715962  3.39359866115785 4.68699335808788  C 3.25247158790842 4.79104572082355  3.09449101212562 4.87003600871492  2.9265728779875 4.92050624967311  C 2.6808168275133 4.97869495343087  2.42888654992385 5.00672428232826  2.17635060927768 5.00397468751632  C 1.75545866362148 5.03642761791582  1.33393837780051 4.94964402965857  0.960096229276644 4.75356937398664  C 0.743907882132021 4.6153607172117  0.612293749428147 4.37718400547206  0.610323727838477 4.12060038700901  L 0.610323727838477 4.02123319910044  Z M 1.40824224674441 2.32106061398454  L 1.41022959050258 2.32106061398454  C 1.38889526894872 2.56575285338653  1.4597766678944 2.80958486575969  1.60896396631978 3.00470686679563  C 1.74119244970484 3.14906188268495  1.93003311286924 3.22822969916541  2.1256733434443 3.2213273364363  C 2.33128138338884 3.2286426150807  2.53068139181255 3.15017835183815  2.67616756445784 3.0047068667956  C 2.83344473087431 2.82638547293109  2.911616930913 2.59186887281496  2.89278803409854 2.35484545787349  C 2.91433420345732 2.11237513023644  2.83610881757494 1.87159882781867  2.67616756445784 1.68809162700691  C 2.53243955765311 1.53995935048317  2.33180797199003 1.46101045937391  2.1256733434443 1.47147115736621  C 1.92504567506757 1.4642355642367  1.730883865262 1.54305730453024  1.59207154437524 1.68809162700688  C 1.45244212985608 1.86798149335212  1.38669597886525 2.09436148352049  1.40824224674441 2.32106061398454  Z " fill-rule="nonzero" fill="#e45050" stroke="none" transform="matrix(1 0 0 1 368 -30 )" />
  </g>
</svg>