<?xml version="1.0" encoding="utf-8"?>
<svg version="1.1" xmlns:xlink="http://www.w3.org/1999/xlink" width="11px" height="5px" xmlns="http://www.w3.org/2000/svg">
  <g transform="matrix(1 0 0 1 -323 37 )">
    <path d="M 4.16228230741069 1.68369855133101  C 2.84830911847573 1.54794666401965  1.60579940492582 1.01915281435667  0.59698760525076 0.166361591966947  C 1.96328643899376 0.0669944040583772  3.34747136656031 0.0997855760681858  4.73066262224778 0.0997855760681858  C 4.7644474661367 1.28324878405941  4.86381465404527 2.46671199205063  4.96417551383294 3.65017520004183  L 6.0810627059254 3.69985879399614  C 6.18042989383397 2.51639558600492  6.19732231577845 1.33293237801369  6.27979708174257 0.149469170022499  C 7.66298833743002 0.0997855760681858  9.0461795931175 0.0828931541237381  10.429370848805 0.166361591966947  C 9.42316198006918 1.07121692313324  8.1450346981036 1.61643938959928  6.79551278698811 1.71648972334084  C 6.87376420403002 2.63971656680964  6.76597641029324 3.56925957800065  6.47853145755974 4.45008106270593  C 6.26764731588233 4.78360873723473  5.90056529161799 4.98581233756362  5.50596064024198 4.98581233756362  C 5.21819006163078 4.98581233756362  4.94086432187467 4.87798458107532  4.7286752784896 4.68359395429111  C 4.03310496312953 3.78332723183935  4.31232676115265 2.68333246169134  4.16228230741069 1.68369855133101  Z " fill-rule="nonzero" fill="#e45050" stroke="none" transform="matrix(1 0 0 1 323 -37 )" />
  </g>
</svg>