<?xml version="1.0" encoding="utf-8"?>
<svg version="1.1" xmlns:xlink="http://www.w3.org/1999/xlink" width="5px" height="5px" xmlns="http://www.w3.org/2000/svg">
  <g transform="matrix(1 0 0 1 -345 30 )">
    <path d="M 0.0841483186025869 2.3329846765337  L 0.080173631086268 2.33397834841276  C 0.0815848194846183 2.06867974309151  0.156572600003443 1.80897435643232  0.29679410072697 1.58375607970299  C 0.447750189702845 1.34683626877623  0.661320563524811 1.1563081091991  0.913864337639239 1.0332618586894  C 1.19545101453849 0.902524547278034  1.50385326585729 0.839890977473772  1.814131060091 0.850426232937622  C 2.27057400985888 0.831776348470243  2.71716424463111 0.986556429838032  3.06417028398096 1.28366717221905  C 3.38341694703456 1.55101759412889  3.56158601184359 1.95061487940015  3.54709481721667 2.36676952042259  C 3.55276126845527 2.7889615960047  3.37076738854987 3.19189604611529  3.05025887767377 3.46676429057061  C 2.7068230661873 3.75851855071207  2.26756058480575 3.91284445069786  1.81711207572823 3.90000522985201  C 1.51348646151936 3.8968950697205  1.21339850654817 3.83444707009207  0.933737775220948 3.71617593222118  C 0.671624330898709 3.609727720558  0.450014881951262 3.42290782403558  0.300768788243289 3.18257413315206  C 0.155045524934962 2.92337894926101  0.0803216929905943 2.63031070929566  0.0841483186025869 2.3329846765337  Z M 1.23482035458395 1.73280686156588  C 1.0665981250495 1.90542247150924  0.981423708426036 2.14246106075075  1.0013074629988 2.38266827048798  C 0.990843555357969 2.62662911174516  1.07443104759218 2.86529807893297  1.23482035458397 3.04942210135457  C 1.39129786785324 3.20043824199112  1.60064457350364 3.28424825191934  1.81810574760735 3.28293499293974  C 2.03616115629509 3.28744630537477  2.2466904743284 3.20316284755901  2.40139114063072 3.04942210135454  C 2.56436680488903 2.8668126136125  2.64833409644064 2.62705919816082  2.6349040322159 2.38266827048798  C 2.64846467316232 2.14333712942994  2.56417877482454 1.90877126767293  2.40139114063069 1.73280686156588  C 2.07478161633497 1.42164558834455  1.56142987887969 1.42164558834452  1.23482035458395 1.73280686156588  Z " fill-rule="nonzero" fill="#e45050" stroke="none" transform="matrix(1 0 0 1 345 -30 )" />
  </g>
</svg>