<?xml version="1.0" encoding="utf-8"?>
<svg version="1.1" xmlns:xlink="http://www.w3.org/1999/xlink" width="16px" height="13px" xmlns="http://www.w3.org/2000/svg">
  <g transform="matrix(1 0 0 1 -357 44 )">
    <path d="M 0.365932744103389 8.96689503687045  L 0.363945400345216 8.26635636211496  L 1.48083259243768 8.09941948642853  L 1.48083259243768 4.2827257988599  L 0.363945400345216 4.2827257988599  L 0.363945400345216 3.58715548349981  L 1.48083259243768 3.58715548349981  L 1.48083259243768 0.499816955180165  L 3.96501229015226 0.499816955180165  L 3.96501229015226 3.56628837403902  L 5.0650070603003 3.56628837403902  L 5.0650070603003 4.26185868939909  L 3.96501229015226 4.26185868939909  L 3.96501229015226 7.67810260969615  L 5.0650070603003 7.51116573400972  L 5.0650070603003 8.2276031588306  L 3.96501229015226 8.39454003451704  L 3.96501229015226 11.4302076251242  C 3.96501229015226 11.8803409863501  3.44830291302762 12.2638983316772  2.81533392604999 12.2638983316772  L 0.499084775900911 12.2638983316772  L 0.499084775900911 11.5683280163171  L 0.816066105329327 11.5683280163171  C 1.18273102871197 11.5683280163171  1.48281993619585 11.3517075466764  1.48281993619585 11.0854034830814  L 1.48281993619585 8.79995816118404  L 0.365932744103389 8.96689503687045  Z M 8.03111761937137 6.81658909052874  L 5.49725432770256 6.81658909052874  L 7.41404738245907 3.99952931332044  L 9.86444223628476 3.99952931332044  L 8.03111761937137 6.81658909052874  Z M 15.6654986663878 3.69944040583651  L 13.1972177187386 3.69944040583651  L 13.1972177187386 2.51697086972439  C 13.1972177187386 2.25066680612939  12.9140212331991 2.06683750849851  12.5135714659276 2.06683750849851  L 8.63030176246016 2.06683750849851  C 8.24674441713304 2.06683750849851  7.96354793159358 2.25066680612939  7.96354793159358 2.51697086972439  L 7.96354793159358 3.69944040583651  L 5.49725432770256 3.69944040583651  L 5.49725432770256 2.18309711835155  C 5.49725432770256 1.73296375712567  6.04675487683701 1.34940641179855  6.76418597353697 1.34940641179855  L 9.34773285916012 1.34940641179855  L 9.34773285916012 0.515715705245555  L 11.8319125568747 0.515715705245555  L 11.8319125568747 1.34940641179855  L 14.3985670205534 1.34940641179855  C 15.0941373359135 1.34940641179855  15.6654986663878 1.73296375712567  15.6654986663878 2.18309711835155  L 15.6654986663878 3.69944040583651  Z M 5.53103917159146 11.5166570786047  L 5.51414674964704 11.5166570786047  L 9.36462528110459 11.5166570786047  L 9.36462528110459 8.16698917420638  L 6.39752105015432 8.16698917420638  L 6.39752105015432 7.47141885884631  L 14.7980231159459 7.47141885884631  L 14.7980231159459 8.16698917420638  L 11.8478113069401 8.16698917420638  L 11.8478113069401 11.5166570786047  L 15.6813974164532 11.5166570786047  L 15.6813974164532 12  L 5.53103917159146 12  L 5.53103917159146 11.5166570786047  Z M 15.6982898383977 6.81658909052874  L 13.1306417028399 6.81658909052874  L 11.3311019298154 3.99952931332044  L 13.7646043616967 3.99952931332044  L 15.6982898383977 6.81658909052874  Z " fill-rule="nonzero" fill="#e45050" stroke="none" transform="matrix(1 0 0 1 357 -44 )" />
  </g>
</svg>