<?xml version="1.0" encoding="utf-8"?>
<svg version="1.1" xmlns:xlink="http://www.w3.org/1999/xlink" width="5px" height="7px" xmlns="http://www.w3.org/2000/svg">
  <g transform="matrix(1 0 0 1 -341 30 )">
    <path d="M 0.242612834056843 4.02123319910044  L 0.24658752157319 4.01725851158412  L 1.26311385387797 4.11662569949266  C 1.27035799320001 4.20176897042893  1.31242325571898 4.28014698093435  1.37937346373101 4.33324616913339  C 1.50240074826672 4.39501543394127  1.63936029552337 4.42377693886519  1.77684221536538 4.4167146069766  C 1.95291278222564 4.42348414200382  2.12856780846923 4.39510909930291  2.29355159248999 4.33324616913339  C 2.37774386265309 4.29292171215127  2.44320639710332 4.22176678340105  2.47638721824177 4.13451179331625  C 2.50970007017449 4.02111301746922  2.52116496833858 3.90241760118184  2.51017206213069 3.78473929187803  L 2.51017206213069 3.36839077454107  C 2.26769856273918 3.67102264834878  1.89823898909043 3.84363298593817  1.51053815177033 3.83541655771143  C 1.09516718371543 3.8546555511281  0.696761779180548 3.66900531602329  0.444328225511242 3.33858061816852  C 0.233861880906773 3.06063642504773  0.122295061799832 2.72034013980937  0.127346896082855 2.37173787981797  C 0.0978844489977462 1.96024941146402  0.242024180277184 1.55521676656872  0.524815647717219 1.25485068772551  C 0.801295499543585 1.0003347362489  1.165644867353 0.86285784868835  1.54134198002203 0.871293342398388  C 1.93879054695711 0.862313634275694  2.31886405949183 1.03407762551734  2.57476073427125 1.33831912556872  L 2.57476073427125 0.92197060823176  L 3.40845144082425 0.92197060823176  L 3.40845144082422 3.52240991579933  C 3.42144851413707 3.78199873848956  3.38779357730627 4.04181485082333  3.30908425291568 4.28952460645357  C 3.25401271402416 4.44172582297452  3.16259501784918 4.57817014562372  3.04278018932069 4.6869933580879  C 2.90167386750116 4.79107960219187  2.74368719452522 4.87007293867984  2.57575440615034 4.92050624967314  C 2.32999666721042 4.97868521284937  2.07806758432335 5.00671440882624  1.82553213744055 5.00397468751632  C 1.40464360786197 5.03637353331459  0.983138132247376 4.94959299421745  0.609277757439514 4.75356937398664  C 0.393089410294891 4.6153607172117  0.261475277591018 4.37718400547206  0.259505256001319 4.12060038700901  C 0.245954770870014 4.08932158150577  0.240159648868911 4.05523262855795  0.242612834056843 4.02123319910044  Z M 1.04053135296277 2.32106061398454  L 1.04251869672092 2.32106061398454  C 1.02118437516705 2.5657528533865  1.09206577411277 2.80958486575969  1.24125307253811 3.00470686679563  C 1.37348155592326 3.14906188268495  1.5623222190876 3.22822969916541  1.75796244966273 3.2213273364363  C 1.96357048960726 3.22864261508073  2.16297049803097 3.15017835183815  2.30845667067626 3.0047068667956  C 2.4657338370927 2.82638547293109  2.54390603713142 2.59186887281496  2.52507714031699 2.35484545787349  C 2.54662330967579 2.11237513023644  2.46839792379339 1.87159882781867  2.30845667067629 1.68809162700691  C 2.1647286638715 1.5399593504832  1.96409707820845 1.46101045937388  1.75796244966273 1.47147115736621  C 1.55733478128596 1.4642355642367  1.36317297148037 1.54305730453024  1.22436065059364 1.68809162700688  C 1.08473123607445 1.86798149335212  1.01898508508364 2.09436148352049  1.04053135296277 2.32106061398454  Z " fill-rule="nonzero" fill="#e45050" stroke="none" transform="matrix(1 0 0 1 341 -30 )" />
  </g>
</svg>