<?xml version="1.0" encoding="utf-8"?>
<svg version="1.1" xmlns:xlink="http://www.w3.org/1999/xlink" width="12px" height="12px" xmlns="http://www.w3.org/2000/svg">
  <g transform="matrix(1 0 0 1 -382 -855 )">
    <path d="M 11.7836926144622 11.773308425071  C 12.0063927825218 11.5556423650568  12.0063927825218 11.2027679776278  11.7836786609738 10.9851155406605  L 9.56820866642442 8.8199971368963  C 10.4206353788154 7.85846724076705  10.8858641397166 6.64348644353693  10.8858641397166 5.35858488547585  C 10.8858641397166 3.94419838423295  10.3222602198401 2.61447721502131  9.29887964662064 1.61434166814631  C 8.27549907340116 0.614233380681817  6.91484021620639 0.0634386408025558  5.4675470521439 0.0634386408025558  C 4.02026784156977 0.0634386408025558  2.65962292423692 0.614233380681817  1.63625629087936 1.61435530450994  C 0.612875731286337 2.61447720170455  0.0492857512718023 3.94421200727983  0.0492857512718023 5.35858488547585  C 0.0492857512718023 6.77295776367188  0.612889671148256 8.1026925559304  1.63627024436773 9.1028281028054  C 2.65963686409884 10.1029500266335  4.02029573492006 10.6537447665128  5.46756100563227 10.6537447665128  C 6.66326195494186 10.6537447665128  7.79961708303052 10.277472602983  8.73572193859012 9.58280268110795  L 10.9771696765988 11.773308425071  C 11.0885267305596 11.8821346368963  11.2344789380451 11.9365613725142  11.3804311455305 11.9365613725142  C 11.526383353016 11.9365613725142  11.6723355605015 11.8821346368963  11.7836926144622 11.773308425071  Z M 5.4675470521439 9.53904598721591  C 3.10882998728198 9.53905961026278  1.18986592478198 7.66370836736506  1.18986592478198 5.35858488547585  C 1.18986592478198 3.05346139026989  3.10882998728198 1.17811016068892  5.4675470521439 1.17811016068892  C 7.82627807049419 1.17811016068892  9.7452560728561 3.05346140358665  9.7452560728561 5.35858488547585  C 9.7452560728561 7.66370836736506  7.82627807049419 9.53904598721591  5.4675470521439 9.53904598721591  Z " fill-rule="nonzero" fill="#d8d8d8" stroke="none" transform="matrix(1 0 0 1 382 855 )" />
  </g>
</svg>