<?xml version="1.0" encoding="utf-8"?>
<svg version="1.1" xmlns:xlink="http://www.w3.org/1999/xlink" width="3px" height="3px" xmlns="http://www.w3.org/2000/svg">
  <g transform="matrix(1 0 0 1 -1149 -585 )">
    <path d="M 2.9978515625 1.509765625  C 2.9978515625 0.864453124999999  2.4728515625 0.339453125  1.8275390625 0.339453125  C 1.1822265625 0.339453125  0.6572265625 0.864453124999999  0.6572265625 1.509765625  C 0.6572265625 2.155078125  1.1822265625 2.680078125  1.8275390625 2.680078125  C 2.4728515625 2.680078125  2.9978515625 2.155078125  2.9978515625 1.509765625  Z M 2.329296875 1.5111328125  C 2.329296875 1.7873046875  2.1037109375 2.012890625  1.8275390625 2.012890625  C 1.5513671875 2.012890625  1.32578125 1.7873046875  1.32578125 1.5111328125  C 1.32578125 1.2349609375  1.5513671875 1.009375  1.8275390625 1.009375  C 2.1037109375 1.009375  2.329296875 1.2349609375  2.329296875 1.5111328125  Z " fill-rule="nonzero" fill="#8d8d8d" stroke="none" transform="matrix(1 0 0 1 1149 585 )" />
  </g>
</svg>