<?xml version="1.0" encoding="utf-8"?>
<svg version="1.1" xmlns:xlink="http://www.w3.org/1999/xlink" width="14px" height="11px" xmlns="http://www.w3.org/2000/svg">
  <g transform="matrix(1 0 0 1 -1146 -574 )">
    <path d="M 13.8345703125 3.3701171875  C 13.8591796875 3.2689453125  13.8359375 3.1650390625  13.773046875 3.0857421875  C 13.71015625 3.005078125  13.6130859375 2.953125  13.510546875 3  L 2.75078125 3  L 2.294140625 0.5537109375  C 2.2640625 0.396484375  2.1259765625 0.287109375  1.9646484375 0.287109375  L 0.46484375 0.287109375  C 0.2802734375 0.287109375  0.13125 0.4375  0.13125 0.6220703125  C 0.13125 0.806640625  0.2802734375 0.95703125  0.46484375 0.95703125  L 1.6884765625 0.95703125  L 2.119140625 3.355078125  C 2.119140625 3.3564453125  2.119140625 3.3578125  2.119140625 3.360546875  L 3.469921875 10.382421875  C 3.5 10.5396484375  3.650390625 10.650390625  3.8103515625 10.650390625  L 11.8384765625 10.650390625  C 12.023046875 10.650390625  12.1734375 10.5  12.1734375 10.3154296875  C 12.1734375 10.130859375  12.023046875 9.98046875  11.8384765625 9.98046875  L 4.0865234375 9.98046875  L 3.880078125 8.925  L 12.2513671875 8.96875  C 12.405859375 8.96875  12.5412109375 8.8388671875  12.5767578125 8.6884765625  L 13.8345703125 3.3701171875  Z M 13.0880859375 3.63671875  L 11.9875 8.2537109375  L 3.7529296875 8.2373046875  L 3.1431640625 5.039453125  L 2.8779296875 3.63671875  L 13.0880859375 3.63671875  Z " fill-rule="nonzero" fill="#8d8d8d" stroke="none" transform="matrix(1 0 0 1 1146 574 )" />
  </g>
</svg>