<?xml version="1.0" encoding="utf-8"?>
<svg version="1.1" xmlns:xlink="http://www.w3.org/1999/xlink" width="3px" height="3px" xmlns="http://www.w3.org/2000/svg">
  <g transform="matrix(1 0 0 1 -1155 -585 )">
    <path d="M 2.683984375 1.509765625  C 2.683984375 0.864453124999999  2.1603515625 0.339453125  1.513671875 0.339453125  C 0.868359374999999 0.339453125  0.343359375 0.864453124999999  0.343359375 1.509765625  C 0.343359375 2.155078125  0.868359374999999 2.680078125  1.513671875 2.680078125  C 2.158984375 2.680078125  2.683984375 2.155078125  2.683984375 1.509765625  Z M 2.0154296875 1.5111328125  C 2.0154296875 1.7873046875  1.7912109375 2.012890625  1.513671875 2.012890625  C 1.2375 2.012890625  1.0119140625 1.7873046875  1.0119140625 1.5111328125  C 1.0119140625 1.2349609375  1.2375 1.009375  1.513671875 1.009375  C 1.78984375 1.009375  2.0154296875 1.2349609375  2.0154296875 1.5111328125  Z " fill-rule="nonzero" fill="#8d8d8d" stroke="none" transform="matrix(1 0 0 1 1155 585 )" />
  </g>
</svg>