<?xml version="1.0" encoding="utf-8"?>
<svg version="1.1" xmlns:xlink="http://www.w3.org/1999/xlink" width="14px" height="16px" xmlns="http://www.w3.org/2000/svg">
  <g transform="matrix(1 0 0 1 -1146 -95 )">
    <path d="M 4.0671875 5.80625  L 4.0671875 5.8046875  C 4.2546875 5.8046875  4.4140625 5.6671875  4.4421875 5.48125  C 4.4703125 5.3015625  4.50625 5.184375  4.50625 5.184375  C 4.6328125 4.8296875  4.8609375 4.5046875  5.1609375 4.253125  C 5.5125 3.959375  5.9328125 3.796875  6.34375 3.796875  L 11.78125 3.796875  C 12.08125 3.796875  12.2984375 3.9984375  12.4015625 4.11875  C 12.575 4.3203125  12.6796875 4.5859375  12.6859375 4.8328125  L 12.21875 8.35625  C 12.215625 8.3796875  12.2125 8.4046875  12.2078125 8.43125  C 12.1671875 8.7359375  12.0890625 9.3046875  11.7859375 9.784375  C 11.4265625 10.3515625  10.8578125 10.6265625  10.0484375 10.6265625  L 4.34375 10.6265625  C 4.0796875 10.6265625  3.8765625 10.4578125  3.753125 10.3171875  C 3.5953125 10.1359375  3.4671875 9.884375  3.4203125 9.6609375  L 2.4203125 3.753125  L 2.159375 2.2125  C 2.159375 2.2125  2.078125 1.7625  1.9546875 1.5546875  C 1.70625 1.1359375  1.3859375 1.00625  1.1703125 0.976562499999999  C 0.9234375 0.942187499999999  0.56875 1.146875  0.68125 1.4203125  C 0.7421875 1.56875  0.9515625 1.6296875  1.1375 1.8140625  C 1.4109375 2.084375  1.453125 2.5265625  1.453125 2.5265625  L 2.6828125 9.7921875  C 2.6828125 9.796875  2.684375 9.8  2.684375 9.8046875  C 2.75625 10.1609375  2.940625 10.528125  3.1890625 10.8109375  C 3.5125 11.18125  3.9125 11.3765625  4.34375 11.3765625  L 10.0484375 11.3765625  C 10.6203125 11.3765625  11.121875 11.259375  11.5390625 11.0265625  C 11.8953125 10.828125  12.1921875 10.5453125  12.4203125 10.1859375  C 12.8125 9.5671875  12.9078125 8.86875  12.953125 8.5328125  C 12.95625 8.50625  12.959375 8.4828125  12.9625 8.4609375  L 12.9625 8.4578125  L 13.4328125 4.90625  C 13.434375 4.890625  13.4359375 4.8734375  13.4359375 4.85625  C 13.4359375 4.4234375  13.2671875 3.978125  12.971875 3.6328125  C 12.65 3.25625  12.2265625 3.0484375  11.7828125 3.0484375  L 6.3453125 3.0484375  C 5.7578125 3.0484375  5.1671875 3.271875  4.68125 3.6796875  C 4.396875 3.9171875  4.1609375 4.20625  3.9859375 4.525  C 3.9859375 4.525  3.7265625 5.0046875  3.6875 5.3578125  C 3.6875 5.359375  3.6875 5.3609375  3.6859375 5.3625  C 3.64375 5.59375  3.825 5.80625  4.059375 5.80625  L 4.0671875 5.80625  Z M 6.7125 13.384375  C 6.7125 12.4171875  5.925 11.63125  4.959375 11.63125  C 3.9921875 11.63125  3.20625 12.4171875  3.20625 13.384375  C 3.20625 14.3515625  3.9921875 15.1375  4.959375 15.1375  C 5.925 15.1375  6.7125 14.3515625  6.7125 13.384375  Z M 5.9625 13.3828125  C 5.9609375 13.9375  5.5109375 14.3859375  4.959375 14.3859375  C 4.40625 14.3859375  3.95625 13.9359375  3.95625 13.3828125  C 3.95625 12.8296875  4.40625 12.3796875  4.959375 12.3796875  C 5.5125 12.3796875  5.9625 12.8296875  5.9625 13.3828125  Z M 12.221875 13.3828125  C 12.221875 12.415625  11.4359375 11.63125  10.46875 11.63125  C 9.5015625 11.63125  8.715625 12.4171875  8.715625 13.384375  C 8.715625 14.3515625  9.503125 15.1359375  10.46875 15.1359375  C 11.434375 15.1359375  12.221875 14.35  12.221875 13.3828125  Z M 11.471875 13.3828125  C 11.471875 13.9375  11.021875 14.3859375  10.46875 14.3859375  C 9.915625 14.3859375  9.465625 13.9359375  9.465625 13.3828125  C 9.465625 12.8296875  9.915625 12.3796875  10.46875 12.3796875  C 11.021875 12.3796875  11.471875 12.8296875  11.471875 13.3828125  Z " fill-rule="nonzero" fill="#666666" stroke="none" transform="matrix(1 0 0 1 1146 95 )" />
  </g>
</svg>