<?xml version="1.0" encoding="utf-8"?>
<svg version="1.1" xmlns:xlink="http://www.w3.org/1999/xlink" width="14px" height="14px" xmlns="http://www.w3.org/2000/svg">
  <g transform="matrix(1 0 0 1 -1170 -96 )">
    <path d="M 12.4265625 3.8328125  C 12.4390625 3.6328125  12.2921875 3.4609375  12.09375 3.4390625  C 12.0765625 3.4375  12.0109375 3.43125  11.921875 3.4375  L 11.9203125 3.4375  C 11.759375 3.4484375  11.525 3.4984375  11.31875 3.6703125  C 11.15 3.8109375  10.9484375 4.08125  10.9453125 4.56875  L 10.5796875 11.85  L 10.5796875 11.86875  C 10.5796875 12.5078125  10.090625 13.028125  9.4875 13.028125  L 4.3546875 13.028125  C 3.753125 13.028125  3.2640625 12.5078125  3.2640625 11.86875  L 3.2640625 11.85  L 2.8984375 4.56875  C 2.8953125 4.0796875  2.69375 3.8109375  2.525 3.6703125  C 2.3171875 3.5  2.0828125 3.45  1.921875 3.4375  L 1.9203125 3.4375  C 1.8296875 3.43125  1.765625 3.4375  1.7484375 3.4390625  C 1.55 3.4609375  1.403125 3.6328125  1.4140625 3.8328125  C 1.425 4.03125  1.5890625 4.1875  1.7890625 4.1875  L 1.8796875 4.1875  C 2.0203125 4.2  2.146875 4.2609375  2.146875 4.5796875  L 2.146875 4.5984375  L 2.5125 11.8796875  C 2.5171875 12.928125  3.3421875 13.7796875  4.353125 13.7796875  L 9.4859375 13.7796875  C 10.4984375 13.7796875  11.321875 12.928125  11.328125 11.8796875  L 11.69375 4.5984375  L 11.69375 4.5796875  C 11.69375 4.2609375  11.8203125 4.2  11.9609375 4.1875  L 12.0515625 4.1875  C 12.2515625 4.1875  12.415625 4.03125  12.4265625 3.8328125  Z M 13.4328125 2.8203125  C 13.69375 2.759375  13.796875 2.440625  13.6171875 2.240625  L 13.6109375 2.234375  C 13.4328125 2.0375  13.0953125 1.7796875  12.5 1.665625  C 11.9140625 1.553125  11.00625 1.4671875  10.2765625 1.4  C 9.8109375 1.35625  9.3703125 1.315625  9.1875 1.28125  C 9.0671875 1.259375  9.009375 1.2  8.878125 1.0578125  C 8.73125 0.896875  8.528125 0.678125  8.15625 0.5328125  C 7.3375 0.2078125  6.3078125 0.2140625  5.6515625 0.546875  C 5.3671875 0.6890625  5.20625 0.8515625  5.0765625 0.9828125  C 4.9390625 1.121875  4.846875 1.2140625  4.60625 1.2921875  C 4.2625 1.4015625  3.4015625 1.475  2.64375 1.5390625  C 2.1828125 1.578125  1.7484375 1.615625  1.3828125 1.6609375  C 1.028125 1.70625  0.535937499999999 1.8390625  0.210937499999999 2.2203125  C 0.206249999999999 2.225  0.201562499999999 2.23125  0.196874999999999 2.2359375  C 0.0203124999999991 2.45  0.143749999999999 2.7734375  0.417187499999999 2.8140625  C 0.557812499999999 2.834375  0.701562499999999 2.7875  0.799999999999999 2.6859375  C 0.903124999999999 2.578125  1.1015625 2.4515625  1.4765625 2.4046875  C 1.8265625 2.3609375  2.2546875 2.325  2.7078125 2.2859375  C 3.584375 2.2125  4.4109375 2.1421875  4.8359375 2.00625  C 5.253125 1.871875  5.4515625 1.671875  5.6125 1.509375  C 5.725 1.3953125  5.815625 1.3046875  5.990625 1.2171875  C 5.990625 1.2171875  5.9921875 1.2171875  5.9921875 1.215625  C 6.4546875 0.979687500000001  7.26875 0.985937500000001  7.884375 1.2296875  C 7.884375 1.2296875  7.8859375 1.2296875  7.8859375 1.23125  C 8.096875 1.3125  8.203125 1.4296875  8.328125 1.565625  C 8.4859375 1.7375  8.6828125 1.95  9.053125 2.01875  C 9.2671875 2.0578125  9.6828125 2.096875  10.2078125 2.1453125  C 10.921875 2.2125  11.809375 2.2953125  12.3609375 2.4015625  C 12.715625 2.4703125  12.9171875 2.5984375  13.028125 2.70625  C 13.1359375 2.8109375  13.2875 2.8546875  13.4328125 2.8203125  Z " fill-rule="nonzero" fill="#666666" stroke="none" transform="matrix(1 0 0 1 1170 96 )" />
  </g>
</svg>