<?xml version="1.0" encoding="utf-8"?>
<svg version="1.1" xmlns:xlink="http://www.w3.org/1999/xlink" width="6px" height="6px" xmlns="http://www.w3.org/2000/svg">
  <g transform="matrix(1 0 0 1 -1151 -99 )">
    <path d="M 5.240625 3.2625  C 5.240625 3.05625  5.071875 2.8875  4.865625 2.8875  L 3.3078125 2.8875  L 3.3078125 1.29375  C 3.3078125 1.0859375  3.140625 0.91875  2.9328125 0.91875  C 2.725 0.91875  2.5578125 1.0859375  2.5578125 1.29375  L 2.5578125 2.8875  L 0.928125 2.8875  C 0.720312499999999 2.8875  0.553125 3.0546875  0.553125 3.2625  C 0.553125 3.4703125  0.720312499999999 3.6375  0.928125 3.6375  L 2.5578125 3.6375  L 2.5578125 5.23125  C 2.5578125 5.4390625  2.725 5.60625  2.9328125 5.60625  C 3.140625 5.60625  3.3078125 5.4390625  3.3078125 5.23125  L 3.3078125 3.6375  L 4.865625 3.6375  C 5.0734375 3.6375  5.240625 3.4703125  5.240625 3.2625  Z " fill-rule="nonzero" fill="#666666" stroke="none" transform="matrix(1 0 0 1 1151 99 )" />
  </g>
</svg>