<?xml version="1.0" encoding="utf-8"?>
<svg version="1.1" xmlns:xlink="http://www.w3.org/1999/xlink" width="4px" height="7px" xmlns="http://www.w3.org/2000/svg">
  <g transform="matrix(1 0 0 1 -1175 -101 )">
    <path d="M 0.8203125 6.0609375  C 1.028125 6.0609375  1.1953125 5.884375  1.1953125 5.66875  L 1.1953125 0.959375  C 1.1953125 0.7421875  1.028125 0.567187499999999  0.8203125 0.567187499999999  C 0.6125 0.567187499999999  0.4453125 0.742187499999999  0.4453125 0.959375  L 0.4453125 5.66875  C 0.4453125 5.8859375  0.6125 6.0609375  0.8203125 6.0609375  Z M 3.0203125 6.0609375  C 3.228125 6.0609375  3.3953125 5.8859375  3.3953125 5.66875  L 3.3953125 0.959375  C 3.3953125 0.7421875  3.228125 0.567187499999999  3.0203125 0.567187499999999  C 2.8125 0.567187499999999  2.6453125 0.742187499999999  2.6453125 0.959375  L 2.6453125 5.66875  C 2.6453125 5.8859375  2.8125 6.0609375  3.0203125 6.0609375  Z " fill-rule="nonzero" fill="#666666" stroke="none" transform="matrix(1 0 0 1 1175 101 )" />
  </g>
</svg>