<?xml version="1.0" encoding="utf-8"?>
<svg version="1.1" xmlns:xlink="http://www.w3.org/1999/xlink" width="20px" height="18px" xmlns="http://www.w3.org/2000/svg">
  <g transform="matrix(1 0 0 1 -463 -200 )">
    <path d="M 10.000171875 0.169921875  L 6.791673828125 4.98633203125  L 13.208326171875 4.98633203125  L 10.000171875 0.169921875  Z M 8.395826171875 0.169921875  L 4.385423828125 0.169921875  L 0.375 4.98633203125  L 5.1875 4.98633203125  L 8.395826171875 0.169921875  Z M 14.8125 4.98633203125  L 19.625 4.98633203125  L 15.614576171875 0.169921875  L 11.604173828125 0.169921875  L 14.8125 4.98633203125  Z M 6.791673828125 6.591794921875  L 9.991255859375 17.8272421875  C 9.998775390625 17.82831640625  10.0062734375 17.829390625  10.013771484375 17.830078125  L 13.208326171875 6.59181640625  L 6.791673828125 6.59181640625  Z M 8.395826171875 17.0273359375  L 5.17757421875 6.59181640625  L 0.375 6.59181640625  L 8.395826171875 17.027357421875  Z M 11.604173828125 17.0273359375  L 19.625 6.59181640625  L 14.8125 6.59181640625  L 11.604173828125 17.0273359375  Z " fill-rule="nonzero" fill="#e13438" stroke="none" transform="matrix(1 0 0 1 463 200 )" />
  </g>
</svg>