<?xml version="1.0" encoding="utf-8"?>
<svg version="1.1" xmlns:xlink="http://www.w3.org/1999/xlink" width="9px" height="12px" xmlns="http://www.w3.org/2000/svg">
  <g transform="matrix(1 0 0 1 -8 -86 )">
    <path d="M 2.19003735552226 7.9298969072165  L 2.191158153628 7.9298969072165  C 0.886550434770976 7.18313026739691  0.0168119595462328 5.82343017477448  0.0168119595462328 4.27029053640464  C 0.0168119595462328 1.91190252496778  2.02303860632491 0  4.5 0  C 6.97696139367509 0  8.98318804045377 1.91190252496778  8.98318804045377 4.27029053640464  C 8.98318804045377 5.82343017477448  8.11232876712329 7.18313027947809  6.808841846372 7.9298969072165  C 6.73599004173801 8.31227741221005  6.56114570580051 8.65866916478737  6.31120796901755 8.94657919619845  L 2.68879203098245 8.94657919619845  C 2.43611665500634 8.65773773623116  2.26404944903416 8.30698878201811  2.19003735552226 7.9298969072165  Z M 7.70211705773759 4.67741330943943  L 7.70211705773759 4.67628865979381  C 7.71205263505182 2.89122779624642  6.27893674811813 1.4355702322288  4.5 1.42380506201675  C 4.21643835616438 1.42380506201675  4.07297634310788 1.55988753624356  4.07297634310788 1.82980318540593  C 4.07297634310788 1.89728210373711  4.21643835616438 2.0322399283183  4.5 2.0322399283183  C 5.8673723525792 2.0322399283183  7.06214196543236 3.17150890786082  7.06214196543236 4.67628865979381  C 7.06214196543236 4.743767578125  7.20560397848887 4.8798500523518  7.48804483625856 4.8798500523518  C 7.55865504468108 4.8798500523518  7.7021170697774 4.743767578125  7.70211705773759 4.67741330943943  Z M 2.5789539249786 9.96326148518041  L 2.5789539249786 9.9621368355348  C 2.5789539249786 9.73833177351804  2.76948942235659 9.55726336179124  3.00485678376498 9.55726334971005  L 5.99514321623502 9.55726334971005  C 6.23051058968322 9.55726334971005  6.4210460750214 9.73720711179124  6.4210460750214 9.9621368355348  C 6.4210460750214 10.1870665471972  6.23051057764341 10.3692596085696  5.99514321623502 10.3692596085696  L 3.00485678376498 10.3692596085696  C 3.00108201987794 10.3693631050009  2.99730602325637 10.3694148604577  2.99352985050167 10.3694148604577  C 2.76836986891785 10.3694148604577  2.58434678241122 10.1891303984033  2.5789539249786 9.96326148518041  Z M 2.77845579516267 10.9799437620812  L 6.22154420483733 10.9799437620812  C 5.90772103622646 11.581630730509  5.25429637869221 11.9966260510631  4.5 11.9966260510631  C 3.78261172784983 12.0044915160195  3.11986858227865 11.6130991739855  2.77845579516267 10.9799437620812  Z " fill-rule="nonzero" fill="#b86e3f" stroke="none" transform="matrix(1 0 0 1 8 86 )" />
  </g>
</svg>