<?xml version="1.0" encoding="utf-8"?>
<svg version="1.1" xmlns:xlink="http://www.w3.org/1999/xlink" width="12px" height="12px" viewBox="106 95.5  12 12" xmlns="http://www.w3.org/2000/svg">
  <path d="M 106.5 96.5  A 0.5 0.5 0 0 1 107 96 L 117 96  A 0.5 0.5 0 0 1 117.5 96.5 L 117.5 106.5  A 0.5 0.5 0 0 1 117 107 L 107 107  A 0.5 0.5 0 0 1 106.5 106.5 L 106.5 96.5  Z " fill-rule="nonzero" fill="#ffffff" stroke="none" />
  <path d="M 106.5 96.5  A 0.5 0.5 0 0 1 107 96 L 117 96  A 0.5 0.5 0 0 1 117.5 96.5 L 117.5 106.5  A 0.5 0.5 0 0 1 117 107 L 107 107  A 0.5 0.5 0 0 1 106.5 106.5 L 106.5 96.5  Z " stroke-width="1" stroke="#e13438" fill="none" />
  <path d="M 108.571428571429 101.5  L 111.142857142857 104.071428571429  " stroke-width="2.57142857142857" stroke="#e13438" fill="none" />
  <path d="M 111.142857142857 104.071428571429  L 115.428571428571 98.0714285714286  " stroke-width="2.57142857142857" stroke="#e13438" fill="none" />
</svg>