<?xml version="1.0" encoding="utf-8"?>
<svg version="1.1" xmlns:xlink="http://www.w3.org/1999/xlink" width="327px" height="68px" xmlns="http://www.w3.org/2000/svg">
  <defs>
    <mask fill="white" id="clip1124">
      <path d="M 50 65  L 45.8333364827139 60  L 4 60  C 1.75999999999999 60  0 58.24  0 56  L 0 4  C 0 1.75999999999999  1.75999999999999 0  4 0  L 320 0  C 322.24 0  324 1.75999999999999  324 4  L 324 56  C 324 58.24  322.24 60  320 60  L 54.1666132448261 60  L 50 65  Z " fill-rule="evenodd" />
    </mask>
    <filter x="1925px" y="1786px" width="327px" height="68px" filterUnits="userSpaceOnUse" id="filter1125">
      <feOffset dx="2" dy="2" in="SourceAlpha" result="shadowOffsetInner" />
      <feGaussianBlur stdDeviation="0.5" in="shadowOffsetInner" result="shadowGaussian" />
      <feComposite in2="shadowGaussian" operator="atop" in="SourceAlpha" result="shadowComposite" />
      <feColorMatrix type="matrix" values="0 0 0 0 0.6  0 0 0 0 0.6  0 0 0 0 0.6  0 0 0 0.67843137254902 0  " in="shadowComposite" />
    </filter>
    <g id="widget1126">
      <path d="M 50 65  L 45.8333364827139 60  L 4 60  C 1.75999999999999 60  0 58.24  0 56  L 0 4  C 0 1.75999999999999  1.75999999999999 0  4 0  L 320 0  C 322.24 0  324 1.75999999999999  324 4  L 324 56  C 324 58.24  322.24 60  320 60  L 54.1666132448261 60  L 50 65  Z " fill-rule="nonzero" fill="#ffffff" stroke="none" fill-opacity="0.996078431372549" transform="matrix(1 0 0 1 1925 1786 )" />
      <path d="M 50 65  L 45.8333364827139 60  L 4 60  C 1.75999999999999 60  0 58.24  0 56  L 0 4  C 0 1.75999999999999  1.75999999999999 0  4 0  L 320 0  C 322.24 0  324 1.75999999999999  324 4  L 324 56  C 324 58.24  322.24 60  320 60  L 54.1666132448261 60  L 50 65  Z " stroke-width="2" stroke="#f2f2f2" fill="none" transform="matrix(1 0 0 1 1925 1786 )" mask="url(#clip1124)" />
    </g>
  </defs>
  <g transform="matrix(1 0 0 1 -1925 -1786 )">
    <use xlink:href="#widget1126" filter="url(#filter1125)" />
    <use xlink:href="#widget1126" />
  </g>
</svg>