<?xml version="1.0" encoding="utf-8"?>
<svg version="1.1" xmlns:xlink="http://www.w3.org/1999/xlink" width="12px" height="10px" xmlns="http://www.w3.org/2000/svg">
  <g transform="matrix(1 0 0 1 -2 -4 )">
    <path d="M 8.13200000000001 9.965  L 8.13300000000001 9.96600000000001  L 0 9.96600000000001  L 0 2.65799999999999  L 11.959 2.65799999999999  L 11.959 5.381  C 11.4426563028161 4.99028735778876  10.8125067846836 4.77953501058724  10.165 4.78100000000001  C 10.1644565003543 4.78099970362013  10.1639130006365 4.78099955543018  10.16336950091 4.78099955543018  C 8.51203809891597 4.78099955543018  7.17336950091003 6.11966815343612  7.17336950091003 7.77099955543019  C 7.17336950091003 8.60393347186704  7.5208102398128 9.39911486484169  8.13200000000001 9.965  Z M 11.957 1.99100000000001  L 11.959 1.99199999999999  L 6.64400000000001 1.99199999999999  L 6.64400000000001 0  L 9.30000000000001 0  L 11.957 1.99100000000001  Z M 5.315 0  L 5.315 1.99199999999999  L 0 1.99199999999999  L 2.65700000000001 0  L 5.315 0  Z " fill-rule="nonzero" fill="#ffffff" stroke="none" fill-opacity="0.996078431372549" transform="matrix(1 0 0 1 2 4 )" />
  </g>
</svg>