<?xml version="1.0" encoding="utf-8"?>
<svg version="1.1" xmlns:xlink="http://www.w3.org/1999/xlink" width="4px" height="5px" xmlns="http://www.w3.org/2000/svg">
  <g transform="matrix(1 0 0 1 -10 -9 )">
    <path d="M 1.90500000000001 4.70400000000001  C 1.75036027004739 4.70400000000001  1.62500000000001 4.57863972995261  1.62500000000001 4.42400000000001  L 1.62500000000001 3.58799999999999  L 0.788000000000011 3.58799999999999  C 0.633912566556184 3.58799999999999  0.509000011758978 3.4630874452028  0.509000011758978 3.309  C 0.509000011758978 3.15491255479722  0.633912566556184 3.03  0.788000011758982 3.03  L 1.626 3.03  L 1.626 2.471  L 0.788000000000011 2.471  C 0.633912554797213 2.471  0.509000000000007 2.34608744520278  0.509000000000007 2.19200000000001  C 0.509000000000007 2.0379125547972  0.633912554797213 1.91300000000001  0.788000000000011 1.91300000000001  L 1.48800000000001 1.91300000000001  L 1.49700000000001 1.904  L 0.599000000000011 1.00900000000001  C 0.554031913642753 0.956181225716108  0.529336384989001 0.889078687528553  0.529336384989001 0.819710454831693  C 0.529336384989001 0.6584433078811  0.660069238038403 0.527710454831691  0.821336384988996 0.527710454831691  C 0.889972732394739 0.527710454831691  0.9564155188489 0.551888544262624  1.00900000000001 0.596000000000004  L 1.90900000000001 1.49000000000001  L 2.79900000000001 0.596000000000004  C 2.85158448115111 0.551888544262624  2.91802726760528 0.527710454831691  2.98666361501102 0.527710454831691  C 3.14793076196161 0.527710454831691  3.27866361501102 0.6584433078811  3.27866361501102 0.819710454831693  C 3.27866361501102 0.889078687528553  3.25396808635726 0.956181225716108  3.20900000000001 1.00900000000001  L 2.315 1.90299999999999  L 2.32400000000001 1.91200000000001  L 3.02400000000001 1.91200000000001  C 3.1780874452028 1.91200000000001  3.303 2.03691255479723  3.303 2.191  C 3.303 2.34508744520281  3.1780874452028 2.47  3.02400000000001 2.47  L 2.18500000000001 2.47  L 2.18500000000001 3.029  L 3.02200000000001 3.029  C 3.17608745696177 3.029  3.30100001175898 3.15391255479722  3.30100001175898 3.30799999999999  C 3.30100001175898 3.4620874452028  3.17608745696177 3.58700000000002  3.02200001175898 3.58700000000002  L 2.18500000000001 3.58700000000002  L 2.18500000000001 4.42400000000001  C 2.18500000000001 4.57863972995261  2.05963972995263 4.70400000000001  1.90500000000001 4.70400000000001  Z " fill-rule="nonzero" fill="#ffffff" stroke="none" fill-opacity="0.996078431372549" transform="matrix(1 0 0 1 10 9 )" />
  </g>
</svg>