<?xml version="1.0" encoding="utf-8"?>
<svg version="1.1" xmlns:xlink="http://www.w3.org/1999/xlink" width="14px" height="11px" xmlns="http://www.w3.org/2000/svg">
  <g transform="matrix(1 0 0 1 -1329 -68 )">
    <path d="M 13.3799999999999 3.07499999999999  L 13.867 3.07400000000001  L 13.53 3.78100000000001  L 13.5519999999999 3.733  L 13.6409999999998 3.548  C 13.8039999999999 3.23500000000001  13.6409999999998 3.07499999999999  13.3799999999999 3.07499999999999  Z M 12.0650000000001 6.881  L 11.836 7.36500000000001  L 11.079 7.417  L 11.3789999999999 7.39699999999999  C 11.6815866079476 7.35538285169764  11.9411033547537 7.16017783514954  12.0650000000001 6.881  Z M 0.713999999999942 0.517000000000024  L 1.202 0.516999999999996  L 1.29299999999989 1.292  L 1.29299999999989 1.30099999999999  L 1.25399999999991 0.973000000000013  C 1.21349418264776 0.707273234795593  0.982757398927788 0.512428839654291  0.713999999999942 0.517000000000024  Z M 4.44999999999982 10.837  L 3.96299999999997 10.837  L 3.86799999999994 10.079  L 3.86799999999994 10.062  L 3.90499999999997 10.377  C 3.94760074712258 10.6441876343237  4.17945284114444 10.8398793100118  4.44999999999982 10.837  Z " fill-rule="nonzero" fill="#555555" stroke="none" transform="matrix(1 0 0 1 1329 68 )" />
  </g>
</svg>