<?xml version="1.0" encoding="utf-8"?>
<svg version="1.1" xmlns:xlink="http://www.w3.org/1999/xlink" width="9px" height="8px" xmlns="http://www.w3.org/2000/svg">
  <g transform="matrix(1 0 0 1 -327 -88 )">
    <path d="M 8.346 3.366  L 8.34299999999996 7.89399999999999  L 6.11900000000003 7.89399999999999  L 6.11900000000003 4.15999999999998  C 6.1489607209042 3.65323659723957  6.10653402359037 3.14478966911382  5.99299999999999 2.65000000000002  C 5.91203743651693 2.41725619177798  5.74734652628462 2.22297795351692  5.53100000000001 2.105  C 5.28945223766527 1.96100726762982  5.01212829944694 1.88820973384755  4.73099999999999 1.895  C 4.35935926149796 1.88229207498522  3.99290394112336 1.98499737926561  3.68199999999996 2.18900000000001  C 3.39966799354499 2.35107540955057  3.17860421286747 2.60166122135196  3.053 2.90199999999997  C 2.9058414002493 3.44842426154234  2.84909154571477 4.01524721338136  2.88499999999999 4.58  L 2.88499999999999 7.895  L 0.664999999999964 7.895  L 0.664999999999964 0.594999999999985  L 2.76499999999999 0.594999999999985  L 2.76499999999999 1.68599999999999  C 3.45538848072852 0.876154701329895  4.46988585175831 0.414886304751164  5.53399999999993 0.427000000000007  C 5.99426615230755 0.417348277561288  6.45154109923681 0.503151171549476  6.87699999999995 0.679000000000016  C 7.2293093838673 0.793563505548647  7.54685379103148 0.995512115521976  7.80000000000001 1.26600000000003  C 7.99663052617973 1.49887040763183  8.13997672465501 1.77191078567999  8.21999999999991 2.06600000000002  C 8.3164698584003 2.49231555041145  8.35880370373332 2.9290933197202  8.346 3.366  Z " fill-rule="nonzero" fill="#e4393c" stroke="none" transform="matrix(1 0 0 1 327 88 )" />
  </g>
</svg>