<?xml version="1.0" encoding="utf-8"?>
<svg version="1.1" xmlns:xlink="http://www.w3.org/1999/xlink" width="8px" height="6px" xmlns="http://www.w3.org/2000/svg">
  <g transform="matrix(1 0 0 1 -498 -931 )">
    <path d="M 0.0737179487180128 1.42866884888164  C 0.0268934951406266 1.38147120499528  0.000785058053452303 1.31757424054513  0.00115930169121725 1.25109110747408  C 0.00115662946600992 1.25061908934046  0.00115529334541975 1.25014706459194  0.00115529334541975 1.24967503889431  C 0.00115529334541975 1.11152852618429  0.113145169069668 0.999538650460067  0.251291681779691 0.999538650460067  C 0.317980005961402 0.999538650460067  0.3819073470722 1.02616867795288  0.42887343153302 1.07351336606655  L 3.99952264048011 4.6470267321331  L 7.57017184942723 1.07351336606655  C 7.61726839467696 1.02641682081682  7.68114501780167 0.999958257199978  7.74774959083476 0.999958257199978  C 7.88644643422271 0.999958257199978  7.99888244110889 1.11239426408616  7.99888244110889 1.25109110747408  C 7.99888244110889 1.31769568050723  7.97242387749205 1.38157230363186  7.92532733224226 1.42866884888164  L 4.17710038188767 5.17689579923623  C 4.13013460973093 5.22423801800508  4.06620899164918 5.25086647427673  3.99952264048017 5.25086647427673  C 3.93283628931113 5.25086647427673  3.86891067122934 5.22423801800508  3.82194489907261 5.17689579923623  L 0.0737179487180128 1.42866884888164  Z " fill-rule="nonzero" fill="#999999" stroke="none" transform="matrix(1 0 0 1 498 931 )" />
  </g>
</svg>