<?xml version="1.0" encoding="utf-8"?>
<svg version="1.1" xmlns:xlink="http://www.w3.org/1999/xlink" width="11px" height="12px" xmlns="http://www.w3.org/2000/svg">
  <g transform="matrix(1 0 0 1 -1161 -451 )">
    <path d="M 9.09799999999996 1.72999999999999  L 1.81999999999994 1.72999999999999  L 1.81999999999994 10.372  C 1.81999999999994 10.6753333333333  1.81999999999994 10.0686666666666  1.81999999999994 10.372  C 1.81999999999994 10.623289561173  2.02371043882704 10.827  2.27500000000009 10.827  L 8.64300000000003 10.827  C 8.89428956117285 10.827  9.09799999999996 10.623289561173  9.09799999999996 10.372  C 9.09799999999996 10.6753333333333  9.09799999999996 10.0686666666666  9.09799999999996 10.372  L 9.09799999999996 1.72999999999999  Z M 8.6430003668379 11.736000366838  C 8.64266691118996 11.736000366838  8.64233345555817 11.7360002445586  8.64200000000005 11.736  L 2.27399999999989 11.736  C 1.52068323466187 11.7360000000001  0.909999633430971 11.1253163987693  0.909999633430971 10.3720000000001  C 0.909999633430971 10.3716666666438  0.909999755620674 10.3713333332667  0.909999999999854 10.371  L 0.909999999999854 1.27099999999996  C 0.909999999999854 1.01971043882696  1.11371043882696 0.815999999999974  1.36500000000001 0.815999999999974  L 9.55199999999991 0.815999999999974  C 9.80328956117296 0.815999999999974  10.0070000000001 1.01971043882696  10.0070000000001 1.27099999999999  L 10.0070000000001 10.371  C 10.0070002445586 10.371333455555  10.0070003668379 10.3716669111933  10.0070003668379 10.372000366838  C 10.0070003668379 11.1253167656072  9.39631676560725 11.736000366838  8.6430003668379 11.736000366838  Z " fill-rule="nonzero" fill="#8d8d8d" stroke="none" transform="matrix(1 0 0 1 1161 451 )" />
  </g>
</svg>