<?xml version="1.0" encoding="utf-8"?>
<svg version="1.1" xmlns:xlink="http://www.w3.org/1999/xlink" width="6px" height="10px" xmlns="http://www.w3.org/2000/svg">
  <g transform="matrix(1 0 0 1 -135 -9 )">
    <path d="M 3.10596026490077 0.865550418593045  C 3.77328609570822 0.822865184127807  4.43188071444501 1.03548797205426  4.94826939897541 1.46032737723354  C 5.41329863789502 1.88603237804077  5.66586868062058 2.49586091598388  5.63801074597029 3.12570286142696  C 5.65568877768311 3.6336887361619  5.50453081476508 4.13321307408432  5.20817193552421 4.54617018618018  C 4.89332634706057 4.8689745840465  4.5595264791998 5.17273246379983  4.20854679495193 5.45582906410095  C 4.00488687353618 5.62171582820346  3.83517597401948 5.82536890762341  3.7087342246657 6.05560414844427  C 3.58155078027113 6.29546211407322  3.51788636641646 6.563885048163  3.52380357365985 6.83531175809071  L 3.52380357365985 7.03523678620513  L 2.30426090216167 7.03523678620513  L 2.30426090216167 6.83531175809071  C 2.29098063581768 6.45504950863403  2.36626734892945 6.07690488141367  2.52417843308757 5.73072597775837  C 2.89033536382351 5.1830598775135  3.33916295358023 4.69545304446453  3.85467949518932 4.28526802449082  L 4.05460452330374 4.06535049356495  C 4.25252338172737 3.82581903087669  4.36350972070562 3.52633208442759  4.36948644258405 3.21566912407843  C 4.38546827551153 2.86524262436396  4.26344948676496 2.52251337950244  4.02961389478946 2.26102711483196  C 3.7595600650763 2.01046396184066  3.39735306839748 1.88369151300304  3.02998875421713 1.91115831563164  C 2.58831912687657 1.87243479378179  2.15721635959522 2.06068927731081  1.88541796826195 2.41097088591778  C 1.65406914350382 2.76650107762822  1.54363556621797 3.18720041966958  1.57053604898169 3.6105210546045  L 0.360989628889286 3.61052105460453  C 0.356507642591737 3.54873649061113  0.354264444791227 3.48680988753145  0.354264444791227 3.42486297034401  C 0.354264444791227 2.00767946134425  1.50311867164049 0.858825234494958  2.92030218064025 0.858825234494958  C 2.98224909782732 0.858825234494958  3.04417570090772 0.861068432295554  3.10596026490077 0.865550418593045  Z M 3.53979757590906 7.89491440709739  L 3.53779832562788 7.89491440709739  C 3.70565580139635 8.04981417580115  3.79548515225019 8.27163767484828  3.7827064850681 8.49968761714356  C 3.78768020803255 8.72637453115354  3.69910168177233 8.94510925926528  3.53779832562788 9.10446082718977  C 3.36784304026389 9.25749438190138  3.14672339449271 9.34130586054042  2.91803073847313 9.33937273522432  C 2.45569285017979 9.3340355357667  2.08142842103194 8.96198568903989  2.07334749468947 8.49968761714356  C 2.0616870773581 8.27122342843271  2.15567482572158 8.05007578522441  2.32825190553541 7.89991253280024  C 2.48497712715817 7.7388268423006  2.70358940991372 7.65320369822129  2.92802698987879 7.66500062476572  C 3.15472410533658 7.65529979197902  3.37560112313815 7.73830912873453  3.53979757590906 7.89491440709739  Z " fill-rule="nonzero" fill="#999999" stroke="none" transform="matrix(1 0 0 1 135 9 )" />
  </g>
</svg>