<?xml version="1.0" encoding="utf-8"?>
<svg version="1.1" xmlns:xlink="http://www.w3.org/1999/xlink" width="2px" height="8px" xmlns="http://www.w3.org/2000/svg">
  <g transform="matrix(1 0 0 1 -1456 -881 )">
    <path d="M 1.51600000000002 4.97800000000004  L 1.51600000000002 1.00000000000003  C 1.51633329294884 0.992434542826715  1.51650000000001 0.984862665254468  1.51650000000001 0.977289870101345  C 1.51650000000001 0.692310939188644  1.28547893091275 0.461289870101353  1.00049999999999 0.461289870101353  C 0.715521069087288 0.461289870101353  0.484500000000025 0.692310939188644  0.484500000000025 0.977289870101345  C 0.484500000000025 0.984862665254468  0.484666707051133 0.992434542826715  0.485000000000014 1.00000000000003  L 0.485000000000014 4.97800000000004  C 0.484666707051133 4.98556545717335  0.484500000000025 4.9931373347456  0.484500000000025 5.00071012989872  C 0.484500000000025 5.28568906081142  0.715521069087288 5.51671012989871  1.00049999999999 5.51671012989871  C 1.28547893091275 5.51671012989871  1.51650000000001 5.28568906081142  1.51650000000001 5.00071012989872  C 1.51650000000001 4.9931373347456  1.51633329294884 4.98556545717335  1.51600000000002 4.97800000000004  Z M 1.74999999999994 6.76499999999999  C 1.74999999999994 6.35078643762691  1.41421356237299 6.01500000000004  0.999999999999943 6.01499999999999  C 0.58578643762678 6.01499999999999  0.249999999999943 6.35078643762691  0.249999999999943 6.76499999999999  C 0.249999999999943 7.17921356237309  0.58578643762678 7.51499999999999  0.999999999999943 7.51499999999999  C 1.41421356237311 7.51499999999999  1.74999999999994 7.17921356237309  1.74999999999994 6.76499999999999  Z " fill-rule="nonzero" fill="#f58500" stroke="none" transform="matrix(1 0 0 1 1456 881 )" />
  </g>
</svg>