<?xml version="1.0" encoding="utf-8"?>
<svg version="1.1" xmlns:xlink="http://www.w3.org/1999/xlink" width="18px" height="12px" xmlns="http://www.w3.org/2000/svg">
  <g transform="matrix(1 0 0 1 -260 -136 )">
    <path d="M 0 1.12800402146217  C 0 1.12700267962893  0 1.12600133824424  0 1.125  C 0 0.503679656440369  0.503683565372284 0  1.12500377011996 0  C 1.74632397486764 0  2.25000351877863 0.503679656440369  2.25000351877863 1.125  C 2.25000351877863 1.74632034355963  1.74632397486764 2.25  1.12500377011996 2.25  C 1.12400243209944 2.25000268097358  1.12300109093843 2.25000402146216  1.12199974932893 2.25000402146216  C 0.502336398460604 2.25000402146216  0 1.74766751077232  0 1.12800402146217  Z M 4.5000025648999 1.12600711906603  C 4.5000025648999 1.12567141265973  4.50000271529857 1.12533570627156  4.50000301609597 1.125  C 4.50329597241335 0.503878786784952  5.00687512267742 0.00163883056390546  5.62800276408438 0  L 16.8720002520116 0  C 17.4933204567592 0  17.9970000006703 0.503679656440369  17.9970000006703 1.125  C 17.9970000006703 1.74632034355963  17.4933204567592 2.25  16.8720002520116 2.25  L 5.62800276408438 2.25  C 5.62666928592892 2.25000474604028  5.62533580038331 2.25000711906603  5.62400231378195 2.25000711906603  C 5.00323439366074 2.25000711906603  4.5000025648999 1.74677517787586  4.5000025648999 1.12600711906603  Z M 0 5.62800402146217  C 0 5.62700267962893  0 5.62600133824424  0 5.625  C 0 5.00367965644037  0.503683565372284 4.5  1.12500377011996 4.5  C 1.74632397486764 4.5  2.25000351877863 5.00367965644037  2.25000351877863 5.625  C 2.25000351877863 6.24632034355963  1.74632397486764 6.75  1.12500377011996 6.75  C 1.12400243209944 6.75000268097358  1.12300109093843 6.75000402146216  1.12199974932893 6.75000402146216  C 0.502336398460604 6.75000402146216  0 6.24766751077232  0 5.62800402146217  Z M 4.5000025648999 5.62600711906603  C 4.5000025648999 5.62567141265973  4.50000271529857 5.62533570627156  4.50000301609597 5.625  C 4.50329597241335 5.00387878678495  5.00687512267742 4.50163883056391  5.62800276408438 4.5  L 16.8720002520116 4.5  C 17.4933204567592 4.5  17.9970000006703 5.00367965644037  17.9970000006703 5.625  C 17.9970000006703 6.24632034355963  17.4933204567592 6.75  16.8720002520116 6.75  L 5.62800276408438 6.75  C 5.62666928592904 6.75000474604028  5.62533580038325 6.75000711906603  5.62400231378195 6.75000711906603  C 5.00323439366074 6.75000711906603  4.5000025648999 6.24677517787586  4.5000025648999 5.62600711906603  Z M 0 10.1280040214622  C 0 10.1270026796289  0 10.1260013382442  0 10.125  C 0 9.50367965644037  0.503683565372284 9  1.12500377011996 9  C 1.74632397486764 9  2.25000351877863 9.50367965644037  2.25000351877863 10.125  C 2.25000351877863 10.7463203435596  1.74632397486764 11.25  1.12500377011996 11.25  C 1.12400243209944 11.2500026809736  1.12300109093843 11.2500040214622  1.12199974932893 11.2500040214622  C 0.502336398460604 11.2500040214622  0 10.7476675107723  0 10.1280040214622  Z M 4.5000025648999 10.126007119066  C 4.5000025648999 10.1256714126597  4.50000271529857 10.1253357062716  4.50000301609597 10.125  C 4.50329597241335 9.50387878678495  5.00687512267742 9.00163883056391  5.62800276408438 9  L 16.8720002520116 9  C 17.4933204567592 9  17.9970000006703 9.50367965644037  17.9970000006703 10.125  C 17.9970000006703 10.7463203435596  17.4933204567592 11.25  16.8720002520116 11.25  L 5.62800276408438 11.25  C 5.62666928592881 11.2500047460403  5.62533580038343 11.250007119066  5.62400231378195 11.250007119066  C 5.00323439366074 11.250007119066  4.5000025648999 10.7467751778759  4.5000025648999 10.126007119066  Z " fill-rule="nonzero" fill="#ffffff" stroke="none" fill-opacity="0.996078431372549" transform="matrix(1 0 0 1 260 136 )" />
  </g>
</svg>