<?xml version="1.0" encoding="utf-8"?>
<svg version="1.1" xmlns:xlink="http://www.w3.org/1999/xlink" width="12px" height="12px" xmlns="http://www.w3.org/2000/svg">
  <g transform="matrix(1 0 0 1 -1451 -879 )">
    <path d="M 5.999 10.9680001006441  C 5.99933333333586 10.9680001006441  5.99966666667089 10.9680000670961  6 10.968  C 8.74336006542831 10.9674477938565  10.967 8.74336022164874  10.967 6.00000010064412  C 10.967 3.25624946348474  8.74275063715938 1.03200010064412  5.999 1.03200010064412  C 3.25524940214459 1.03200010064412  1.03100005558421 3.25624940214459  1.031 6  C 1.031 8.74375073780351  3.25524936284062 10.9680001006441  5.999 10.9680001006441  Z M 12 6  C 12 9.31370849898476  9.31370849898476 12  6 12  C 2.68629150101524 12  0 9.31370849898476  0 6  C 0 2.68629150101524  2.68629150101524 0  6 0  C 9.31370849898476 0  12 2.68629150101524  12 6  Z " fill-rule="nonzero" fill="#f58500" stroke="none" transform="matrix(1 0 0 1 1451 879 )" />
  </g>
</svg>