<?xml version="1.0" encoding="utf-8"?>
<svg version="1.1" xmlns:xlink="http://www.w3.org/1999/xlink" width="8px" height="5px" xmlns="http://www.w3.org/2000/svg">
  <g transform="matrix(1 0 0 1 -498 -934 )">
    <path d="M 0.0737179487180413 1.17730496453902  C 0.0268934951407118 1.13010732065266  0.000785058053480725 1.06621035620253  0.00115930169124567 0.999727223131458  C 0.00115662946603834 0.999255204997894  0.00115529334544817 0.998783180249347  0.00115529334544817 0.998311154551743  C 0.00115529334544817 0.860164641841777  0.113145169069696 0.748174766117472  0.251291681779719 0.748174766117472  C 0.317980005961431 0.748174766117472  0.381907347072229 0.774804793610258  0.428873431533049 0.822149481723955  L 3.99952264048014 4.3956628477905  L 7.57017184942725 0.822149481723955  C 7.61726839467698 0.77505293647414  7.6811450178017 0.748594372857383  7.74774959083479 0.748594372857383  C 7.88644643422273 0.748594372857383  7.99888244110892 0.861030379743568  7.99888244110892 0.999727223131458  C 7.99888244110892 1.0663317961646  7.97242387749208 1.13020841928926  7.92532733224229 1.17730496453902  L 4.1771003818877 4.92553191489361  C 4.13013460973096 4.97287413366251  4.06620899164923 4.99950258993414  3.99952264048019 4.99950258993414  C 3.93283628931118 4.99950258993414  3.86891067122937 4.97287413366251  3.82194489907263 4.92553191489361  L 0.0737179487180413 1.17730496453902  Z " fill-rule="nonzero" fill="#999999" stroke="none" transform="matrix(1 0 0 1 498 934 )" />
  </g>
</svg>