<?xml version="1.0" encoding="utf-8"?>
<svg version="1.1" xmlns:xlink="http://www.w3.org/1999/xlink" width="11px" height="9px" xmlns="http://www.w3.org/2000/svg">
  <g transform="matrix(1 0 0 1 -1161 -451 )">
    <path d="M 10.4610000053156 1.72999999999996  L 0.455000103993216 1.72999999999996  C 0.203710436817911 1.72999999999999  0 1.526289561173  0 1.27499999999998  C 0 1.02371043882698  0.203710436817911 0.819999999999993  0.454999995512782 0.819999999999993  L 10.4610000053156 0.819999999999993  C 10.7122896724909 0.819999999999993  10.9160001093088 1.02371043882698  10.9160001093088 1.27499999999998  C 10.9160001093088 1.526289561173  10.7122896724909 1.72999999999999  10.461000113796 1.72999999999999  Z M 3.18400007708025 8.09799999999998  L 3.18400007708025 4.45899999999997  C 3.18400007708025 4.20771043882698  3.38771051389839 4.00399999999999  3.63900007259326 4.00399999999999  C 3.8902896312879 4.00399999999999  4.09400006810604 4.20771043882698  4.09400006810604 4.45899999999997  L 4.09400006810604 8.09799999999998  C 4.09400006810604 8.34928956117301  3.8902896312879 8.553  3.63900007259326 8.553  C 3.38771051389839 8.553  3.18400007708025 8.34928956117301  3.18400007708025 8.09799999999998  Z M 5.00300005914149 8.09799999999998  L 5.00300005914149 4.45899999999997  C 5.00300005914149 4.20771043882698  5.20671049595963 4.00399999999999  5.4580000546545 4.00399999999999  C 5.70928961334914 4.00399999999999  5.91300005016728 4.20771043882698  5.91300005016728 4.45899999999997  L 5.91300005016728 8.09799999999998  C 5.91300005016728 8.34928956117301  5.70928961334914 8.553  5.4580000546545 8.553  C 5.20671049595963 8.553  5.00300005914149 8.34928956117301  5.00300005914149 8.09799999999998  Z M 6.82200004120273 8.09799999999998  L 6.82200004120273 4.45899999999997  C 6.82200004120273 4.20771043882698  7.02571047802087 4.00399999999999  7.27700003671574 4.00399999999999  C 7.52828959541061 4.00399999999999  7.73200003222852 4.20771043882698  7.73200003222852 4.45899999999997  L 7.73200003222852 8.09799999999998  C 7.73200003222852 8.34928956117301  7.52828959541061 8.553  7.27700003671574 8.553  C 7.02571047802087 8.553  6.82200004120273 8.34928956117301  6.82200004120273 8.09799999999998  Z " fill-rule="nonzero" fill="#8d8d8d" stroke="none" transform="matrix(1 0 0 1 1161 451 )" />
  </g>
</svg>