<?xml version="1.0" encoding="utf-8"?>
<svg version="1.1" xmlns:xlink="http://www.w3.org/1999/xlink" width="7px" height="3px" xmlns="http://www.w3.org/2000/svg">
  <g transform="matrix(1 0 0 1 -1163 -450 )">
    <path d="M 5.59999999999991 1.82400000000001  L 5.37699999999995 0.914000000000016  L 1.53800000000001 0.914000000000016  L 1.31100000000015 1.82400000000001  L 5.59999999999991 1.82400000000001  Z M 6.20029693586866 2.73319433656064  C 6.19586391387384 2.73319433656064  6.19143112859206 2.73312955078939  6.18700000000013 2.733  L 0.729000000000042 2.733  C 0.724568871407882 2.73312955078939  0.720136086126331 2.73319433656064  0.715703064131503 2.73319433656064  C 0.46441350295845 2.73319433656064  0.260703064131576 2.52948389773366  0.260703064131576 2.27819433656066  C 0.260703064131576 2.24139241693308  0.265167997367371 2.2047264190449  0.274000000000115 2.16900000000001  L 0.729000000000042 0.350000000000023  C 0.780251502617375 0.141901929034361  0.969773820652335 -0.00221833918564585  1.18399999999997 0.0040000000000191  L 5.73199999999997 0.0040000000000191  C 5.94622617934783 -0.00221833918564585  6.13574849738279 0.141901929034304  6.1869999999999 0.350000000000023  L 6.64199999999983 2.16900000000001  C 6.65083200263257 2.20472641904479  6.65529693586859 2.24139241693317  6.65529693586859 2.27819433656066  C 6.65529693586859 2.52948389773366  6.45158649704172 2.73319433656064  6.20029693586866 2.73319433656064  Z " fill-rule="nonzero" fill="#8d8d8d" stroke="none" transform="matrix(1 0 0 1 1163 450 )" />
  </g>
</svg>