<?xml version="1.0" encoding="utf-8"?>
<svg version="1.1" xmlns:xlink="http://www.w3.org/1999/xlink" width="26px" height="15px" xmlns="http://www.w3.org/2000/svg">
  <g transform="matrix(1 0 0 1 -263 -68 )">
    <path d="M 0.0430000000000064 1.04000000000001  L 0.0500000000000114 1.04200000000002  C 3.49099999999999 0.790000000000006  6.97300000000001 0.874000000000009  10.456 0.874000000000009  C 10.54 3.85300000000002  10.792 6.83200000000001  11.043 9.81100000000002  C 11.966 9.85300000000002  12.889 9.89500000000002  13.854 9.93700000000003  C 14.106 6.95800000000001  14.148 3.97900000000003  14.354 1.00000000000001  C 17.837 0.874000000000009  21.319 0.832000000000008  24.802 1.04200000000002  C 22.788 3.43400000000001  19.138 4.31500000000001  15.655 4.94200000000002  C 15.4450000000001 7.20800000000001  15.991 9.64200000000001  14.855 11.823  C 14.3231231687012 12.6616687829179  13.3990808076452 13.1698487982418  12.4059754299973 13.1698487982418  C 11.681648080568 13.1698487982418  10.9835413956371 12.8987899400373  10.449 12.41  C 8.68700000000001 10.144  9.39999999999998 7.37500000000001  9.02199999999999 4.85800000000002  C 5.58100000000002 4.31300000000003  2.22199999999998 3.18000000000002  0.0430000000000064 1.04000000000001  Z " fill-rule="nonzero" fill="#e4393c" stroke="none" transform="matrix(1 0 0 1 263 68 )" />
  </g>
</svg>