<?xml version="1.0" encoding="utf-8"?>
<svg version="1.1" xmlns:xlink="http://www.w3.org/1999/xlink" width="16px" height="16px" xmlns="http://www.w3.org/2000/svg">
  <g transform="matrix(1 0 0 1 -130 -6 )">
    <path d="M 15.9940022491566 8.00299887542172  C 15.9940022491566 12.419620640906  12.4136228900626 16  7.99700112457828 16  C 3.58037935909399 16  0 12.419620640906  0 8.00299887542172  C 0 3.58637710993743  3.58037935909399 0.00599775084343394  7.99700112457828 0.00599775084343394  C 12.4136228900626 0.00599775084343394  15.9940022491566 3.58637710993743  15.9940022491566 8.00299887542172  Z M 14.9943771085843 7.99700112457828  C 14.9943771085843 4.13245707977953  11.861545169377 0.999625140572285  7.99700112457828 0.999625140572285  C 4.13245707977953 0.999625140572285  0.999625140572285 4.13245707977953  0.999625140572285 7.99700112457828  C 0.999625140572285 11.861545169377  4.13245707977953 14.9943771085843  7.99700112457828 14.9943771085843  C 11.861545169377 14.9943771085843  14.9943771085843 11.861545169377  14.9943771085843 7.99700112457828  Z " fill-rule="nonzero" fill="#999999" stroke="none" transform="matrix(1 0 0 1 130 6 )" />
  </g>
</svg>