<?xml version="1.0" encoding="utf-8"?>
<svg version="1.1" xmlns:xlink="http://www.w3.org/1999/xlink" width="14px" height="13px" xmlns="http://www.w3.org/2000/svg">
  <g transform="matrix(1 0 0 1 -1227 -69 )">
    <path d="M 3.96000000000004 12.676  L 3.95900000000006 12.674  C 3.81940892979856 12.6745847236647  3.68189342727669 12.6402058480342  3.55899999999997 12.574  C 3.2825602604928 12.4273485500593  3.10980165854926 12.1399305641978  3.1099999999999 11.827  L 3.1099999999999 10.407  L 2.07600000000002 10.407  C 0.929913855676204 10.4058974632616  0.00110253673847183 9.47708614432386  0 8.331  L 0 2.07599999999999  C 0.00110253673847183 0.929913855676148  0.929913855676204 0.00110253673838656  2.07600000000002 0  L 2.66000000000008 0  C 2.90134843567603 0  3.09699999999998 0.195651564323953  3.09699999999998 0.437000000000012  C 3.09699999999998 0.678348435676057  2.90134843567603 0.873999999999995  2.66000000000008 0.873999999999995  L 2.07600000000002 0.873999999999995  C 1.4132583002031 0.873999999999995  0.875999999999976 1.41125830020306  0.875999999999976 2.07400000000001  C 0.875999999999976 1.274  0.875999999999976 2.87400000000001  0.875999999999976 2.07400000000001  L 0.875999999999976 8.32900000000001  C 0.875999999999976 8.99174169979696  1.4132583002031 9.52900000000001  2.07600000000002 9.52900000000001  L 3.1389999999999 9.52900000000001  C 3.60655674475379 9.52955103975444  3.98544896024555 9.90844325524625  3.9860000000001 10.376  L 3.9860000000001 11.776  L 7.31400000000008 9.53400000000002  L 11.914 9.53400000000002  C 12.5767416997969 9.53400000000002  13.114 8.99674169979697  13.114 8.334  L 13.114 2.07599999999999  C 13.114 1.41325830020304  12.5767416997969 0.876000000000005  11.914 0.876000000000005  C 12.3140000000001 0.876000000000005  11.5139999999999 0.876000000000005  11.914 0.876000000000005  L 5.29199999999992 0.876000000000005  C 5.05065156432397 0.876000000000005  4.85500000000002 0.680348435676052  4.85500000000002 0.438999999999993  C 4.85500000000002 0.197651564323934  5.05065156432397 0.00199999999999534  5.29199999999992 0.00199999999999534  L 11.9090000000001 0.00199999999999534  C 13.0550861443239 0.0031025367383819  13.9838974632617 0.931913855676129  13.9849999999999 2.078  L 13.9849999999999 8.333  C 13.9838974632617 9.47908614432384  13.0550861443239 10.4078974632616  11.9090000000001 10.409  L 7.5809999999999 10.409  L 4.43200000000002 12.531  C 4.29245447122457 12.6249184853411  4.12820596702204 12.6753761826068  3.96000000000004 12.676  Z " fill-rule="nonzero" fill="#e4393c" stroke="none" transform="matrix(1 0 0 1 1227 69 )" />
  </g>
</svg>