<?xml version="1.0" encoding="utf-8"?>
<svg version="1.1" xmlns:xlink="http://www.w3.org/1999/xlink" width="15px" height="15px" xmlns="http://www.w3.org/2000/svg">
  <g transform="matrix(1 0 0 1 -245 -10 )">
    <path d="M 11.2000000000012 14.0630010729626  C 11.1996666663812 14.0630010729626  11.1993333328525 14.0630007153082  11.199 14.063  C 10.9416353065789 14.063  10.733 13.8543646934212  10.733 13.597  L 10.733 7.99700000000002  C 10.733 7.73935916420395  10.9418591642039 7.53050000000002  11.1995 7.53050000000002  C 11.4571408357961 7.53050000000002  11.666 7.73935916420395  11.666 7.99700000000002  L 11.666 13.597  C 11.6660000000012 13.8543657663838  11.4573646934224 14.0630010729626  11.2000000000012 14.0630010729626  Z M 8.40100000000001 14.063  L 8.399 14.063  C 8.14163530657885 14.063  7.93299999999999 13.8543646934212  7.93299999999999 13.597  L 7.93299999999999 10.797  C 7.93299999999999 10.5393591642039  8.14185916420394 10.3305  8.39949999999999 10.3305  C 8.6571408357961 10.3305  8.86599999999999 10.5393591642039  8.86599999999999 10.797  L 8.86599999999999 13.597  C 8.8660005916829 13.8539746743863  8.65797408270407 14.0624485522016  8.40100000000001 14.063  Z M 5.60300000000001 14.063  L 5.59899999999999 14.063  C 5.34163530657884 14.063  5.13300000000004 13.8543646934212  5.13300000000004 13.597  L 5.13300000000004 10.797  C 5.13300000000004 10.5393591642039  5.34185916420392 10.3305  5.59950000000003 10.3305  C 5.85714083579609 10.3305  6.06600000000003 10.5393591642039  6.06600000000003 10.797  L 6.06600000000003 13.597  C 6.0660053090927 13.8531976581404  5.85919234910273 14.0613506589078  5.60300000000001 14.063  Z M 8.399 11.263  L 5.59899999999999 11.263  C 5.34135916420394 11.263  5.13249999999999 11.0541408357961  5.13249999999999 10.7965  C 5.13249999999999 10.5388591642039  5.34135916420394 10.33  5.59899999999999 10.33  L 8.399 10.33  C 8.65664083579605 10.33  8.8655 10.5388591642039  8.8655 10.7965  C 8.8655 11.0541408357961  8.65664083579605 11.263  8.399 11.263  Z M 11.199 14.063  L 8.399 14.063  C 8.14135916420395 14.063  7.9325 13.8541408357961  7.9325 13.5965  C 7.9325 13.3388591642039  8.14135916420395 13.13  8.399 13.13  L 11.199 13.13  C 11.4566408357961 13.13  11.6655 13.3388591642039  11.6655 13.5965  C 11.6655 13.8541408357961  11.4566408357961 14.063  11.199 14.063  Z M 2.80399999999997 14.063  L 2.80500000000001 14.063  C 2.54763530657885 14.063  2.339 13.8543646934212  2.339 13.597  L 2.339 7.99700000000002  C 2.339 7.73935916420395  2.54785916420394 7.53050000000002  2.80549999999999 7.53050000000002  C 3.06314083579605 7.53050000000002  3.27199999999999 7.73935916420395  3.27199999999999 7.99700000000002  L 3.27199999999999 13.597  C 3.27200000001977 13.8543689852865  3.06336469344092 14.0630042918653  2.80600000001976 14.0630042918653  C 2.80533333104466 14.0630042918653  2.80466666283507 14.0630028612403  2.80399999999997 14.063  Z M 5.60500000000002 14.063  L 2.80500000000001 14.063  C 2.54735916420395 14.063  2.33850000000001 13.8541408357961  2.33850000000001 13.5965  C 2.33850000000001 13.3388591642039  2.54735916420395 13.13  2.80500000000001 13.13  L 5.60500000000002 13.13  C 5.86264083579607 13.13  6.07150000000001 13.3388591642039  6.07150000000001 13.5965  C 6.07150000000001 13.8541408357961  5.86264083579607 14.063  5.60500000000002 14.063  Z M 2.80500000000001 8.463  L 0.473000000000013 8.463  C 0.21535916420396 8.46299999999999  0.00650000000001683 8.25414083579606  0.00650000000001683 7.99649999999999  C 0.00650000000001683 7.73885916420392  0.21535916420396 7.52999999999999  0.473000000000013 7.52999999999999  L 2.80500000000001 7.52999999999999  C 3.06264083579606 7.52999999999999  3.2715 7.73885916420392  3.2715 7.99649999999999  C 3.2715 8.25414083579606  3.06264083579606 8.46299999999999  2.80500000000001 8.46299999999999  Z M 13.531 8.463  L 11.199 8.463  C 10.941359164204 8.46299999999999  10.7325 8.25414083579606  10.7325 7.99649999999999  C 10.7325 7.73885916420392  10.941359164204 7.52999999999999  11.199 7.52999999999999  L 13.531 7.52999999999999  C 13.7886408357961 7.52999999999999  13.9975 7.73885916420392  13.9975 7.99649999999999  C 13.9975 8.25414083579606  13.7886408357961 8.46299999999999  13.531 8.46299999999999  Z M 7.363 1.791  L 7.363 1.788  L 0.795999999999992 8.332  C 0.613683907986285 8.51221226295046  0.320316092013741 8.51221226295046  0.138000000000034 8.33200000000001  C 0.0506097382751136 8.24542485703862  0.00144529585122655 8.12751346764943  0.00144529585122655 8.00450000000001  C 0.00144529585122655 7.8814865323506  0.0506097382751136 7.76357514296139  0.138000000000034 7.677  L 6.70600000000002 1.136  C 6.79232997789342 1.05352176879101  6.90713132294974 1.00749652170029  7.02652782083152 1.00749652170029  C 7.28278794475301 1.00749652170029  7.49052782083152 1.2152363977788  7.49052782083152 1.4714965217003  C 7.49052782083152 1.59040398433165  7.44487790497095 1.70477359251947  7.363 1.791  Z M 13.864 8.332  L 13.863 8.332  C 13.6812495500606 8.51263943604055  13.3877504499395 8.51263943604054  13.206 8.332  L 6.63900000000001 1.788  C 6.55160973827509 1.70142485703862  6.50244529585126 1.58351346764942  6.50244529585126 1.4605  C 6.50244529585126 1.33748653235059  6.55160973827509 1.21957514296139  6.63900000000001 1.133  C 6.82052388183587 0.951812032651787  7.11447611816413 0.951812032651802  7.29599999999999 1.133  L 13.864 7.67700000000001  C 13.9511424922111 7.76370734361627  14.0001353808711 7.8815692170945  14.0001353808711 8.0045  C 14.0001353808711 8.12743078290551  13.9511424922111 8.24529265638373  13.864 8.332  Z " fill-rule="nonzero" fill="#666666" stroke="none" transform="matrix(1 0 0 1 245 10 )" />
  </g>
</svg>