<?xml version="1.0" encoding="utf-8"?>
<svg version="1.1" xmlns:xlink="http://www.w3.org/1999/xlink" width="16px" height="14px" xmlns="http://www.w3.org/2000/svg">
  <g transform="matrix(1 0 0 1 -1326 -67 )">
    <path d="M 15.02 11.831  L 15.0210000000002 11.831  L 6.96400000000017 11.831  L 5.66399999999999 0.948999999999998  C 5.52500519391901 0.403689237809871  5.04150489832318 0.0164809842061828  4.47900000000004 0  L 1.75999999999999 0  C 1.33998744775386 0  0.999500000000126 0.340487447753674  0.999500000000126 0.760499999999993  C 0.999500000000126 1.18051255224631  1.33998744775386 1.52099999999999  1.75999999999999 1.52099999999999  L 4.20000000000005 1.521  L 5.49099999999999 12.291  C 5.5900460853486 12.9023120138052  6.11771624197513 13.3516362804029  6.73700000000008 13.352  L 15.02 13.352  C 15.4400125522463 13.352  15.7805000000001 13.0115125522463  15.7805000000001 12.5915  C 15.7805000000001 12.1714874477537  15.4400125522463 11.831  15.02 11.831  Z " fill-rule="nonzero" fill="#555555" stroke="none" transform="matrix(1 0 0 1 1326 67 )" />
  </g>
</svg>