<?xml version="1.0" encoding="utf-8"?>
<svg version="1.1" xmlns:xlink="http://www.w3.org/1999/xlink" width="16px" height="19px" xmlns="http://www.w3.org/2000/svg">
  <g transform="matrix(1 0 0 1 -387 -8 )">
    <path d="M 15 8.23  C 15.0055657449911 6.34280524566647  14.2793584567785 4.52692858126107  12.974 3.164  L 12.928 3.118  C 11.648401443351 1.76161883370355  9.86470302833686 0.995004945107762  8 1  C 6.14541935334972 0.999284194617951  4.36886056158761 1.74624641388157  3.072 3.072  L 3.02600000000001 3.164  C 0.323777722065529 6.00081774613199  0.323777722065529 10.459182253868  3.02600000000001 13.296  L 3.072 13.342  L 8 18.5  L 12.928 13.388  L 12.974 13.342  C 14.287839740673 11.9659349253556  15.01446953827 10.1325037677466  15 8.23  Z M 8 10.303  L 8.00000000000006 10.3  C 6.63109992691227 10.264028131398  5.54432573782401 9.13629399745268  5.55900000000003 7.767  C 5.55009330915186 7.21739926640063  5.72894279604316 6.68120356605584  6.06600000000003 6.247  C 6.51846037532522 5.62782239840217  7.23332201718688 5.25449754923968  8 5.237  C 9.35980057729722 5.29104721652648  10.4343222964108 6.40912575465914  10.4343222964108 7.77  C 10.4343222964108 9.13087424534086  9.35980057729722 10.2489527834735  8 10.303  Z " fill-rule="nonzero" fill="#666666" stroke="none" transform="matrix(1 0 0 1 387 8 )" />
  </g>
</svg>