<?xml version="1.0" encoding="utf-8"?>
<svg version="1.1" xmlns:xlink="http://www.w3.org/1999/xlink" width="15px" height="16px" xmlns="http://www.w3.org/2000/svg">
  <g transform="matrix(1 0 0 1 -316 -10 )">
    <path d="M 14.197 10.0500000000001  C 14.732495445891 9.54911374768179  15.0246656607997 8.8407559981778  14.998 8.10799999999999  C 15.0225762002826 7.38252545061256  14.7306175026673 6.68218952470794  14.198 6.18900000000001  C 13.6741338302923 3.18803128255314  11.0687392350442 0.998049763423914  8.0223891227198 0.998049763423914  C 4.99788779728908 0.998049763423914  2.40460879149873 3.15748611047026  1.85700000000003 6.13200000000001  C 1.28418639888707 6.62511269856081  0.967860193188983 7.35277344647631  0.998000000000047 8.108  C 0.990938434293867 8.17992564042503  0.987401304548996 8.25215379247649  0.987401304548996 8.32442524922652  C 0.987401304548996 9.53081981227631  1.95283704794565 10.5153615811119  3.15899999999999 10.539  C 3.45723376490866 10.539  3.69900000000001 10.2972337649086  3.69900000000001 9.999  L 3.69900000000001 6.218  C 3.69679682335124 5.97661391697088  3.53205257398423 5.76708881179088  3.298 5.708  C 3.298 5.708  3.17600000000004 5.652  2.68600000000004 5.762  C 2.65200000000004 5.768  2.61900000000003 5.776  2.58600000000001 5.78400000000002  C 3.25486992277109 3.32797490848631  5.4852237275669 1.62380066712365  8.03069936558285 1.62380066712365  C 10.5827192228173 1.62380066712365  12.817098633839 3.33657975774005  13.48 5.801  C 13.4266666666667 5.78566666666667  13.3726666666667 5.77266666666668  13.318 5.762  C 12.828 5.65300000000001  12.706 5.708  12.706 5.708  C 12.4717837418173 5.7651667000207  12.3054752346418 5.97294967441783  12.301 6.214  L 12.301 9.995  C 12.301 10.2932337649086  12.5427662350914 10.535  12.841 10.535  C 13.0163690573332 10.5356411252882  13.191215277415 10.5158408815553  13.3620000000001 10.476  C 13.1934562567913 11.1779659063536  12.8675831587143 11.83244765842  12.409 12.39  C 12.1878485159895 12.6586332919323  11.9323236667869 12.8970110788858  11.6490000000001 13.099  C 11.5688168646061 13.1562742631221  11.4842183976965 13.2071002195262  11.3960000000001 13.251  L 11.328 13.285  L 10.314 13.285  C 10.0536592324395 12.6646031861134  9.4330146701335 12.2733533300299  8.76100000000002 12.306  C 8.67845924752999 12.2906989091449  8.59468913531782 12.283  8.51074213299086 12.283  C 7.75245517147317 12.283  7.13774213299087 12.8977130384824  7.13774213299087 13.656  C 7.13774213299087 14.4142869615177  7.75245517147317 15.029  8.51074213299086 15.029  C 8.59468913531782 15.029  8.67845924752999 15.0213010908552  8.76100000000002 15.006  C 9.4330146701335 15.0386466699701  10.0536592324395 14.6473968138867  10.314 14.027  L 11.377 14.027  C 11.4972859095723 14.0293402052495  11.6153502263081 13.994409934026  11.715 13.927  C 11.8442130525896 13.8638321824171  11.9682616643256 13.7906067215809  12.086 13.708  C 12.4257512339416 13.4683109577628  12.7321052464368 13.1844879209396  12.997 12.864  C 13.6528137837768 12.0569958965243  14.0686227993053 11.08192375511  14.197 10.0500000000001  Z " fill-rule="nonzero" fill="#666666" stroke="none" transform="matrix(1 0 0 1 316 10 )" />
  </g>
</svg>