<?xml version="1.0" encoding="utf-8"?>
<svg version="1.1" xmlns:xlink="http://www.w3.org/1999/xlink" width="5px" height="4px" xmlns="http://www.w3.org/2000/svg">
  <g transform="matrix(1 0 0 1 -1231 -73 )">
    <path d="M 4.55999999999995 1.46800000000002  L 1.42499999999995 1.46800000000002  C 1.18199471007438 1.46800000000002  0.9849999999999 1.2710052899256  0.9849999999999 1.02800000000002  C 0.9849999999999 0.784994710074443  1.18199471007438 0.588000000000022  1.42499999999995 0.588000000000022  L 4.55999999999995 0.588000000000022  C 4.80300528992552 0.588000000000022  5 0.784994710074443  5 1.02800000000002  C 5 1.2710052899256  4.80300528992552 1.46800000000002  4.55999999999995 1.46800000000002  Z M 4.55999999999995 3.21700000000004  L 1.42499999999995 3.21700000000004  C 1.18199471007438 3.21700000000004  0.9849999999999 3.02000528992562  0.9849999999999 2.77700000000004  C 0.9849999999999 2.53399471007447  1.18199471007438 2.33700000000005  1.42499999999995 2.33700000000005  L 4.55999999999995 2.33700000000005  C 4.80300528992552 2.33700000000005  5 2.53399471007447  5 2.77700000000004  C 5 3.02000528992562  4.80300528992552 3.21700000000004  4.55999999999995 3.21700000000004  Z " fill-rule="nonzero" fill="#e4393c" stroke="none" transform="matrix(1 0 0 1 1231 73 )" />
  </g>
</svg>