<?xml version="1.0" encoding="utf-8"?>
<svg version="1.1" xmlns:xlink="http://www.w3.org/1999/xlink" width="13px" height="9px" xmlns="http://www.w3.org/2000/svg">
  <g transform="matrix(1 0 0 1 -1332 -69 )">
    <path d="M 12.6399212462406 1.62086045555006  C 12.6399212462406 1.13510833046607  12.3173510006443 0.708431753067117  11.8499999999999 0.575999999999993  C 11.807 0.568999999999988  11.7650000000001 0.562999999999988  11.72 0.558999999999997  L 1.09999999999991 0.558999999999997  C 0.679987447753774 0.558999999999997  0.339500000000044 0.899487447753671  0.339500000000044 1.31949999999998  C 0.339500000000044 1.73951255224628  0.679987447753774 2.07999999999996  1.09999999999991 2.07999999999996  L 10.8610000000001 2.07999999999998  L 8.84000000000015 6.35899999999998  L 1.94000000000005 6.83199999999999  C 1.54045975369195 6.85833752447644  1.22985379695751 7.19009261543334  1.22985379695751 7.59049999999999  C 1.22985379695751 8.01031715558219  1.57018284441801 8.35064620304254  1.99000000000001 8.35064620304254  C 2.00668021414231 8.35064620304254  2.02335590919733 8.35009717144382  2.03999999999996 8.34899999999999  L 9.38100000000009 7.84899999999996  C 9.65119785359752 7.82982634145262  9.89097396296643 7.66883381087632  10.011 7.42599999999999  L 10.0220000000002 7.404  L 12.529 2.09899999999999  C 12.6019784915393 1.95017362199556  12.6399212462406 1.78661675563313  12.6399212462406 1.62086045555006  Z " fill-rule="nonzero" fill="#555555" stroke="none" transform="matrix(1 0 0 1 1332 69 )" />
  </g>
</svg>