<?xml version="1.0" encoding="utf-8"?>
<svg version="1.1" xmlns:xlink="http://www.w3.org/1999/xlink" width="40px" height="30px" xmlns="http://www.w3.org/2000/svg">
  <g transform="matrix(1 0 0 1 -388 -52 )">
    <path d="M 0.795999999999935 24.299  L 0.798000000000002 21.49  C 2.59098767881733 20.4398898936359  4.27730093735875 19.2174383755274  5.83299999999997 17.84  L 5.83299999999997 11.546  C 4.23211233031475 12.8024062503993  2.55013132539943 13.9518991278399  0.798000000000002 14.987  L 0.798000000000002 12.259  C 2.29522026264431 11.202630857107  3.72469440369093 10.0533737264198  5.07799999999997 8.818  L 5.07799999999997 8.776  L 0.877999999999929 0.259  L 7.7589999999999 0.259  L 9.64699999999993 4.15900000000001  C 10.4469999999999 3.194  11.199 2.18700000000001  11.9129999999999 1.18000000000001  L 15.1859999999999 1.17999999999999  C 13.9714313487001 3.1954327103163  12.5511715221108 5.07950556191732  10.948 6.80200000000001  L 11.1579999999999 7.17999999999999  C 11.8244020067826 8.37566231357464  12.1982643888279 9.71210895883274  13 11.08  L 13 27.821  C 12.2489999999999 28.996  11.074 29.921  9.52199999999993 29.921  L 2.17899999999997 29.921  L 2.17899999999997 28.159  L 4.279 28.159  C 5.07899999999995 28.159  5.83100000000002 27.614  5.83100000000002 26.942  L 5.83100000000002 20.942  C 4.26300936377845 22.2182571245511  2.57706913712855 23.3423288903631  0.795999999999935 24.299  Z M 24.504 10.077  L 18.168 10.077  L 18.168 6.04899999999999  L 15.148 6.04899999999999  L 15.148 4.28699999999999  L 18.169 4.28699999999999  L 18.169 0.259  L 24.505 0.259  L 24.505 4.28700000000001  L 30.169 4.28700000000001  L 30.169 0.259  L 36.505 0.259  L 36.505 4.28700000000001  L 39.568 4.28700000000001  L 39.568 6.04899999999999  L 36.505 6.04899999999999  L 36.505 10.077  L 30.168 10.077  L 30.168 6.04899999999999  L 24.504 6.04899999999999  L 24.504 10.077  Z M 18.3779999999999 12  L 36.2099999999999 12  C 37.7619999999999 11.671  39.021 12.594  39 13.727  L 39 27.827  C 39.021 29.002  37.7619999999999 29.927  36.2099999999999 30  L 18.3779999999999 30  C 16.8679999999999 29.927  15.651 29.004  16 27.827  L 16 13.727  C 15.651 12.594  16.8679999999999 11.671  18.3779999999999 12  Z M 21.484 14.609  L 21.4829999999999 19.895  L 24.126 19.895  L 24.126 13.434  L 23.078 13.434  C 22.239 13.434  21.484 13.979  21.484 14.609  Z M 23.077 28.121  L 24.168 28.119  L 24.168 21.659  L 21.4829999999999 21.659  L 21.4829999999999 26.904  C 21.4829999999999 27.575  22.2379999999999 28.121  23.077 28.121  Z M 33.105 19.896  L 33.105 14.651  C 33.105 13.98  32.3919999999999 13.476  31.511 13.476  L 30.546 13.476  L 30.546 19.896  L 33.105 19.896  Z M 30.5459999999999 28.12  L 31.5110000000001 28.119  C 32.2831766448929 28.2080864934018  32.9874755652727 27.6703626627229  33.105 26.902  L 33.105 21.659  L 30.5459999999999 21.659  L 30.5459999999999 28.12  Z " fill-rule="nonzero" fill="#e4393c" stroke="none" transform="matrix(1 0 0 1 388 52 )" />
  </g>
</svg>