<?xml version="1.0" encoding="utf-8"?>
<svg version="1.1" xmlns:xlink="http://www.w3.org/1999/xlink" width="39px" height="30px" xmlns="http://www.w3.org/2000/svg">
  <g transform="matrix(1 0 0 1 -348 -52 )">
    <path d="M 0.0550000000000637 21.574  L 0.0570000000000164 19.811  L 2.86799999999999 19.391  L 2.86799999999999 9.78299999999999  L 0.0570000000000164 9.78299999999999  L 0.0570000000000164 8.02099999999999  L 2.86799999999999 8.02099999999999  L 2.86799999999999 0.259  L 9.12 0.259  L 9.12 7.979  L 11.889 7.979  L 11.889 9.741  L 9.12 9.741  L 9.12 18.341  L 11.889 17.921  L 11.889 19.721  L 9.12 20.141  L 9.12 27.777  C 9.12 28.91  7.81999999999999 29.877  6.22000000000003 29.877  L 0.388000000000034 29.877  L 0.388000000000034 28.119  L 1.18800000000005 28.119  C 2.11100000000005 28.119  2.86600000000004 27.574  2.86600000000004 26.902  L 2.86600000000004 21.154  L 0.0550000000000637 21.574  Z M 19.357 16.159  L 12.98 16.161  L 17.805 9.06999999999999  L 23.973 9.06999999999999  L 19.357 16.159  Z M 38.5710000000001 8.315  L 32.364 8.31499999999998  L 32.364 5.336  C 32.364 4.66499999999999  31.651 4.203  30.644 4.203  L 20.868 4.203  C 19.903 4.203  19.19 4.66500000000001  19.19 5.336  L 19.19 8.315  L 12.98 8.315  L 12.98 4.497  C 12.98 3.364  14.365 2.39700000000001  16.169 2.39700000000001  L 22.669 2.39700000000001  L 22.669 0.297000000000011  L 28.9210000000001 0.297000000000011  L 28.9210000000001 2.39700000000001  L 35.3820000000001 2.39700000000001  C 37.1440000000001 2.39700000000001  38.5710000000001 3.36200000000001  38.5710000000001 4.497  L 38.5710000000001 8.315  Z M 13.064 27.997  L 13.022 27.993  L 22.7140000000001 27.993  L 22.7140000000001 19.559  L 15.2450000000001 19.559  L 15.2450000000001 17.797  L 36.3920000000001 17.797  L 36.3920000000001 19.559  L 28.965 19.559  L 28.965 27.993  L 38.615 27.993  L 38.615 29.759  L 13.064 29.759  L 13.064 27.997  Z M 38.657 16.159  L 32.197 16.159  L 27.666 9.068  L 33.792 9.068  L 38.657 16.159  Z " fill-rule="nonzero" fill="#e4393c" stroke="none" transform="matrix(1 0 0 1 348 52 )" />
  </g>
</svg>