<?xml version="1.0" encoding="utf-8"?>
<svg version="1.1" xmlns:xlink="http://www.w3.org/1999/xlink" width="10px" height="14px" xmlns="http://www.w3.org/2000/svg">
  <g transform="matrix(1 0 0 1 -106 -124 )">
    <path d="M 4.66291956934765 11.9011734656556  C 4.93002298239935 11.9011734656556  5.183284833812 11.7823573008308  5.35402153261558 11.5769474350855  C 6.56333122229256 9.84990500316656  8.80810639645344 6.22292590246992  8.80810639645347 4.49493350221659  C 8.77381890684126 2.23007675263363  6.92803584187661 0.412025350883106  4.66291956934768 0.412025350883106  C 2.39780329681875 0.412025350883106  0.552020231854101 2.23007675263363  0.51773274224189 4.49493350221659  C 0.51773274224189 6.13552881570614  2.76345788473716 9.76250791640279  3.97181760607975 11.5769474350855  C 4.14255430488333 11.7823573008308  4.39581615629595 11.9011734656556  4.66291956934765 11.9011734656556  Z M 2.07283090563647 4.49588347055098  L 2.07188093730204 4.49493350221659  C 2.07188093730201 3.06394237951534  3.23192844664638 1.90389487017098  4.66291956934762 1.90389487017098  C 6.09391069204887 1.90389487017098  7.25395820139323 3.06394237951536  7.25395820139323 4.49493350221659  C 7.25423554165474 4.51027010138623  7.25437422028645 4.52560889454663  7.25437422028645 4.54094800116047  C 7.25437422028645 5.9464934522023  6.11495450350054 7.08591316898821  4.70940905245871 7.08591316898821  C 4.69406994584611 7.08591316898821  4.67873115268327 7.08577449035645  4.66339455351488 7.085497150095  C 3.26071114965364 7.02077851906305  2.13806399531069 5.89854304317791  2.07283090563647 4.49588347055098  Z M 6.21754274857503 4.49493350221659  C 6.21754274857503 3.63660115510781  5.52172690062366 2.94078530715643  4.66339455351488 2.94078530715643  C 3.80506220640609 2.94078530715643  3.1092463584547 3.63660115510781  3.1092463584547 4.49493350221659  C 3.1092463584547 5.35326584932537  3.80506220640609 6.04908169727676  4.66339455351488 6.04908169727676  C 4.66529692122376 6.04908870889473  4.66719930023916 6.04909221471265  4.66910168086952 6.04909221471265  C 5.52428610983483 6.04909221471265  6.21755006592332 5.35582825862417  6.21755006592332 4.50064382965882  C 6.21755006592332 4.49905704047862  6.21754762680433 4.49747025223265  6.21754274857503 4.49588347055098  Z M 6.73622545915134 10.0227992400253  L 6.73527549081695 10.0218492716909  L 6.21754274857503 10.798923369221  C 7.59974667511082 11.0582647245092  8.29037365421149 11.4895503483217  8.29037365421149 11.7488917036099  C 8.29037365421149 12.0946801773274  6.99461684610509 12.8717542748575  4.57694743508546 12.8717542748575  C 2.15927802406586 12.8717542748575  0.863521215959452 12.0946801773274  0.863521215959452 11.7488917036099  C 0.863521215959452 11.4895503483217  1.55414819506015 10.9718176060798  2.93635212159592 10.798923369221  L 2.418619379354 10.0218492716909  C 1.0364154528182 10.2811906269791  0.000949968334367668 10.8853704876504  0.000949968334367668 11.7488917036099  C 0.000949968334367668 13.0446485117163  2.24667511082964 13.6488283723876  4.49145028499049 13.6488283723876  C 6.73622545915137 13.6488283723876  8.98195060164662 12.9582013932869  8.98195060164662 11.7488917036099  C 9.15389487017097 10.8863204559848  8.11747941735274 10.2821405953135  6.73622545915134 10.0227992400253  Z " fill-rule="nonzero" fill="#e13438" stroke="none" transform="matrix(1 0 0 1 106 124 )" />
  </g>
</svg>