<?xml version="1.0" encoding="utf-8"?>
<svg version="1.1" xmlns:xlink="http://www.w3.org/1999/xlink" width="17px" height="10px" xmlns="http://www.w3.org/2000/svg">
  <g transform="matrix(1 0 0 1 -659 -93 )">
    <path d="M 16.875318877551 9.65042372881356  C 16.9566326530612 9.46504237288136  16.9566326530612 9.25317796610169  16.8482142857143 9.12076271186441  L 13.4601403061224 3.98305084745763  C 13.3517219387755 3.82415254237288  13.1890943877551 3.74470338983051  12.999362244898 3.74470338983051  C 12.8096301020408 3.74470338983051  12.6470025510204 3.85063559322034  12.5385841836735 3.98305084745763  L 10.7225765306122 6.73728813559322  L 6.65688775510204 0.301906779661019  C 6.5484693877551 0.143008474576271  6.38584183673469 0.0635593220339007  6.19610969387755 0.0635593220339007  C 6.0063775510204 0.0635593220339007  5.84375 0.169491525423731  5.73533163265306 0.301906779661019  L 0.151785714285716 9.12076271186441  C 0.0433673469387767 9.27966101694915  0.0433673469387767 9.49152542372881  0.151785714285716 9.65042372881356  C 0.260204081632653 9.83580508474576  0.422831632653062 9.91525423728813  0.612563775510205 10  L 16.3874362244898 10  C 16.5771683673469 9.91525423728813  16.7669005102041 9.80932203389831  16.875318877551 9.65042372881356  Z " fill-rule="nonzero" fill="#ffffff" stroke="none" fill-opacity="0.996078431372549" transform="matrix(1 0 0 1 659 93 )" />
  </g>
</svg>