<?xml version="1.0" encoding="utf-8"?>
<svg version="1.1" xmlns:xlink="http://www.w3.org/1999/xlink" width="28px" height="32px" xmlns="http://www.w3.org/2000/svg">
  <g transform="matrix(1 0 0 1 -548 -80 )">
    <path d="M 18.25 0  L 2.3125 0  C 1.9140625 0.0625  1.4890625 0.221875  1.196875 0.540625  C 0.904687500000001 0.859375  0.71875 1.2578125  1 1.65625  L 1 30.34375  C 0.71875 30.7421875  0.878125 31.1671875  1.196875 31.459375  C 1.515625 31.778125  1.9140625 31.9375  2.3125 32  L 25.6875 32  C 26.0859375 31.9375  26.5109375 31.778125  26.803125 31.459375  C 27.121875 31.140625  27.28125 30.7421875  27 30.34375  L 27 9.09375  L 18.25 0  Z " fill-rule="nonzero" fill="#6ccbff" stroke="none" transform="matrix(1 0 0 1 548 80 )" />
  </g>
</svg>