<?xml version="1.0" encoding="utf-8"?>
<svg version="1.1" xmlns:xlink="http://www.w3.org/1999/xlink" width="27px" height="32px" xmlns="http://www.w3.org/2000/svg">
  <g transform="matrix(1 0 0 1 -654 -80 )">
    <path d="M 17.7721518987342 0  L 1.75158227848101 0  C 1.35106803797468 0.0425531914893617  0.923852848101265 0.202127659574468  0.630142405063291 0.521276595744681  C 0.336431962025317 0.840425531914894  0.149525316455696 1.23936170212766  0.149525316455696 1.63829787234043  L 0.149525316455696 30.3617021276596  C 0.149525316455696 30.7606382978723  0.309731012658228 31.186170212766  0.630142405063291 31.4787234042553  C 0.950553797468354 31.7978723404255  1.35106803797468 31.9574468085106  1.75158227848101 32  L 25.248417721519 32  C 25.6489319620253 31.9574468085106  26.0761471518987 31.7978723404255  26.3698575949367 31.4787234042553  C 26.6902689873418 31.1595744680851  26.8504746835443 30.7606382978723  26.8504746835443 30.3617021276596  L 26.8504746835443 9.08510638297872  L 17.7721518987342 0  Z " fill-rule="nonzero" fill="#ff5562" stroke="none" transform="matrix(1 0 0 1 654 80 )" />
  </g>
</svg>