<?xml version="1.0" encoding="utf-8"?>
<svg version="1.1" xmlns:xlink="http://www.w3.org/1999/xlink" width="16px" height="16px" xmlns="http://www.w3.org/2000/svg">
  <g transform="matrix(1 0 0 1 -630 -437 )">
    <path d="M 15.996 7.9901818125  C 15.995636359375 3.5858181875  12.411636359375 0.0018181875  8.007272734375 0.0018181875  C 3.603272734375 0.0018181875  0.01890909375 3.5858181875  0.01890909375 7.9901818125  C 0.01890909375 12.3945454375  3.60290909375 15.97890909375  8.007272734375 15.97890909375  C 12.411636375 15.97890909375  15.996 12.39490909375  15.996 7.9901818125  Z M 12.46690909375 5.51490909375  C 12.7294155216304 5.77299461282993  12.7341277507361 6.19465792735511  12.477454546875 6.458545453125  L 7.281454546875 11.784727265625  C 7.15691467786297 11.9117650207193  6.98662770257009 11.9835475315685  6.808727265625 11.984  L 6.80509090625 11.984  C 6.62870610873433 11.9841919206147  6.45946055956279 11.9143487050923  6.334545453125 11.7898181875  L 3.5421818125 8.995636359375  C 3.41718553472804 8.87087226153796  3.34694380622886 8.7015164175122  3.34694380622886 8.5249090859375  C 3.34694380622886 8.3483017543628  3.41718553472804 8.17894591033704  3.5421818125 8.0541818125  C 3.66694591033704 7.92918553472804  3.8363017543628 7.85894380622886  4.0129090859375 7.85894380622886  C 4.1895164175122 7.85894380622886  4.35887226153796 7.92918553472804  4.483636359375 8.0541818125  L 6.8018181875 10.370545453125  L 11.525454546875 5.5258181875  C 11.7826881686287 5.26346342274111  12.2036652907955 5.25858535517262  12.46690909375 5.51490909375  Z " fill-rule="nonzero" fill="#54bd58" stroke="none" transform="matrix(1 0 0 1 630 437 )" />
  </g>
</svg>