<?xml version="1.0" encoding="utf-8"?>
<svg version="1.1" xmlns:xlink="http://www.w3.org/1999/xlink" width="27px" height="32px" xmlns="http://www.w3.org/2000/svg">
  <g transform="matrix(1 0 0 1 -758 -80 )">
    <path d="M 17.8101114649682 0  L 1.6875 0  C 1.2844347133758 0.0425531914893617  0.854498407643312 0.202127659574468  0.558917197452229 0.521276595744681  C 0.236464968152866 0.813829787234043  0.0752388535031847 1.23936170212766  0 1.63829787234043  L 0 30.3617021276596  C 0.0752388535031847 30.7606382978723  0.236464968152866 31.186170212766  0.558917197452229 31.4787234042553  C 0.881369426751592 31.7978723404255  1.2844347133758 31.9574468085106  1.6875 32  L 25.3339968152866 32  C 25.7370621019108 31.9574468085106  26.1669984076433 31.7978723404255  26.4625796178344 31.4787234042553  C 26.7850318471338 31.1595744680851  26.9462579617834 30.7606382978723  27 30.3617021276596  L 27 9.08510638297872  L 17.8101114649682 0  Z " fill-rule="nonzero" fill="#6ccbff" stroke="none" transform="matrix(1 0 0 1 758 80 )" />
  </g>
</svg>