<?xml version="1.0" encoding="utf-8"?>
<svg version="1.1" xmlns:xlink="http://www.w3.org/1999/xlink" width="18px" height="17px" xmlns="http://www.w3.org/2000/svg">
  <g transform="matrix(1 0 0 1 -443 -10 )">
    <path d="M 17.225 16.5453125  C 16.8796875 16.8375  16.5078125 16.996875  16.109375 16.996875  C 14.4359375 16.996875  12.9484375 14.128125  12.1515625 12.26875  C 10.8234375 11.7109375  9.3625 11.20625  7.9546875 10.8609375  C 6.70625 11.684375  4.6078125 12.90625  2.9875 12.90625  C 1.978125 12.90625  1.2609375 12.4015625  0.995312499999999 11.525  C 0.782812499999999 10.8078125  0.968749999999998 10.303125  1.18125 10.0375  C 1.60625 9.453125  2.4828125 9.16093750000001  3.8109375 9.16093750000001  C 4.8734375 9.16093750000001  6.228125 9.346875  7.7421875 9.71875  C 8.725 9.02812500000001  9.7078125 8.23125000000001  10.584375 7.38125  C 10.1859375 5.521875  9.7609375 2.5203125  10.85 1.1390625  C 11.38125 0.475000000000005  12.2046875 0.262500000000005  13.1875 0.554687500000004  C 14.2765625 0.873437500000005  14.675 1.5375  14.8078125 2.0421875  C 15.259375 3.8484375  13.1875 6.2921875  11.7796875 7.7265625  C 12.0984375 8.975  12.496875 10.2765625  13.0015625 11.471875  C 15.0203125 12.375  17.4109375 13.703125  17.6765625 15.1640625  C 17.7828125 15.66875  17.6234375 16.146875  17.225 16.5453125  Z M 16.6140625 15.3765625  C 16.5078125 14.8453125  15.6578125 13.96875  13.6390625 12.959375  C 14.6484375 15.0046875  15.6046875 15.9609375  16.109375 15.9609375  C 16.1890625 15.9609375  16.2953125 15.934375  16.4546875 15.8015625  C 16.640625 15.615625  16.640625 15.4828125  16.6140625 15.3765625  Z M 6.49375 10.5421875  C 5.4578125 10.3296875  4.5546875 10.2234375  3.8109375 10.2234375  C 2.509375 10.2234375  2.1375 10.5421875  2.03125 10.675  C 2.0046875 10.728125  1.8984375 10.8609375  2.0046875 11.2328125  C 2.084375 11.5515625  2.296875 11.8703125  2.9875 11.8703125  C 3.8375 11.8703125  5.059375 11.3921875  6.49375 10.5421875  Z M 10.8765625 8.5765625  C 10.2921875 9.08125  9.68125 9.5859375  9.0703125 10.0640625  C 9.9203125 10.303125  10.796875 10.5953125  11.6203125 10.9140625  C 11.328125 10.14375  11.0890625 9.346875  10.8765625 8.5765625  Z M 12.8953125 1.590625  C 12.6828125 1.5109375  12.5234375 1.484375  12.3640625 1.484375  C 12.071875 1.484375  11.859375 1.590625  11.6734375 1.803125  C 11.115625 2.49375  11.0625 4.246875  11.4875 6.478125  C 13.1078125 4.7515625  13.984375 3.1578125  13.771875 2.3078125  C 13.7453125 2.175  13.6390625 1.803125  12.8953125 1.590625  Z " fill-rule="nonzero" fill="#ffffff" stroke="none" transform="matrix(1 0 0 1 443 10 )" />
  </g>
</svg>