<?xml version="1.0" encoding="utf-8"?>
<svg version="1.1" xmlns:xlink="http://www.w3.org/1999/xlink" width="13px" height="13px" xmlns="http://www.w3.org/2000/svg">
  <g transform="matrix(1 0 0 1 -765 -92 )">
    <path d="M 0.0822784810126582 2.59177215189873  L 0.0822784810126582 0.0205696202531646  L 2.65348101265823 0.0205696202531646  L 2.65348101265823 2.59177215189873  L 0.0822784810126582 2.59177215189873  Z M 5.2246835443038 2.59177215189873  L 5.2246835443038 0.0205696202531646  L 7.79588607594937 0.0205696202531646  L 7.79588607594937 2.59177215189873  L 5.2246835443038 2.59177215189873  Z M 10.3670886075949 2.59177215189873  L 10.3670886075949 0.0205696202531646  L 12.9382911392405 0.0205696202531646  L 12.9382911392405 2.59177215189873  L 10.3670886075949 2.59177215189873  Z M 2.65348101265823 5.1629746835443  L 2.65348101265823 2.59177215189873  L 5.2246835443038 2.59177215189873  L 5.2246835443038 5.1629746835443  L 2.65348101265823 5.1629746835443  Z M 7.79588607594937 5.1629746835443  L 7.79588607594937 2.59177215189873  L 10.3670886075949 2.59177215189873  L 10.3670886075949 5.1629746835443  L 7.79588607594937 5.1629746835443  Z M 2.65348101265823 10.3053797468354  L 2.65348101265823 7.73417721518987  L 5.2246835443038 7.73417721518987  L 5.2246835443038 10.3053797468354  L 2.65348101265823 10.3053797468354  Z M 7.79588607594937 10.3053797468354  L 7.79588607594937 7.73417721518987  L 10.3670886075949 7.73417721518987  L 10.3670886075949 10.3053797468354  L 7.79588607594937 10.3053797468354  Z M 0.0822784810126582 7.73417721518987  L 0.0822784810126582 5.1629746835443  L 2.65348101265823 5.1629746835443  L 2.65348101265823 7.73417721518987  L 0.0822784810126582 7.73417721518987  Z M 5.2246835443038 7.73417721518987  L 5.2246835443038 5.1629746835443  L 7.79588607594937 5.1629746835443  L 7.79588607594937 7.73417721518987  L 5.2246835443038 7.73417721518987  Z M 10.3670886075949 7.73417721518987  L 10.3670886075949 5.1629746835443  L 12.9382911392405 5.1629746835443  L 12.9382911392405 7.73417721518987  L 10.3670886075949 7.73417721518987  Z M 0.0822784810126582 12.876582278481  L 0.0822784810126582 10.3053797468354  L 2.65348101265823 10.3053797468354  L 2.65348101265823 12.876582278481  L 0.0822784810126582 12.876582278481  Z M 5.2246835443038 12.876582278481  L 5.2246835443038 10.3053797468354  L 7.79588607594937 10.3053797468354  L 7.79588607594937 12.876582278481  L 5.2246835443038 12.876582278481  Z M 10.3670886075949 12.876582278481  L 10.3670886075949 10.3053797468354  L 12.9382911392405 10.3053797468354  L 12.9382911392405 12.876582278481  L 10.3670886075949 12.876582278481  Z " fill-rule="nonzero" fill="#ffffff" stroke="none" fill-opacity="0.996078431372549" transform="matrix(1 0 0 1 765 92 )" />
  </g>
</svg>