<?xml version="1.0" encoding="utf-8"?>
<svg version="1.1" xmlns:xlink="http://www.w3.org/1999/xlink" width="22px" height="28px" xmlns="http://www.w3.org/2000/svg">
  <g transform="matrix(1 0 0 1 -189 -28 )">
    <path d="M 21.7697386673152 2.22792728599221  C 21.7696023236475 1.47780329801186  21.1619036584284 0.869549969776267  20.4117801070039 1  L 6.85648818093385 1  L 0 7.66645457198443  L 0 25.7723206225681  C 0.0358456718347178 26.522791356037  0.644188215942526 27.1311338783716  1.39465894941634 27.1312707198444  L 7.34954761673152 27.1312707198444  L 7.34954761673152 25.7723206225681  L 1.39490680933852 25.7723206225681  L 1.39490680933852 9.0197031614786  L 6.82748467898833 9.0197031614786  C 7.57752834522814 9.01970350028741  8.18575073924891 8.41203586400348  8.18643482490272 7.66199250972763  L 8.18643482490272 2.2281751459144  L 20 2.2281751459144  L 20 25.7725685311284  L 15.1170308365759 25.7725685311284  L 15.1170308365759 27.1315186284047  L 20.4117801070039 27.1315186284047  C 21.1618635730248 27.1308346433656  21.7696021689425 26.5226522965851  21.7697386673152 25.7725685311284  L 21.7697386673152 2.22792728599221  Z M 6.82748467898833 2.79089255836576  L 6.82748467898833 7.661496692607  L 1.95663263618677 7.661496692607  L 6.82748467898833 2.79089255836576  Z " fill-rule="nonzero" fill="#e13438" stroke="none" transform="matrix(1 0 0 1 189 28 )" />
  </g>
</svg>