<?xml version="1.0" encoding="utf-8"?>
<svg version="1.1" xmlns:xlink="http://www.w3.org/1999/xlink" width="50px" height="50px" xmlns="http://www.w3.org/2000/svg">
  <g transform="matrix(1 0 0 1 -175 -17 )">
    <path d="M 49.8054474708171 25.0006197470817  C 49.8054474708171 11.2467654182879  38.6569499027237 0.0972762645914393  24.9033434824903 0.0972762645914393  C 11.1497370136187 0.0972762645914393  0 11.2467654182879  0 25.0006197470817  C 0 38.7542261673152  11.1497370136187 49.9027237354086  24.9033434824903 49.9027237354086  C 38.6569499027237 49.9027237354086  49.8054474708171 38.7542261673152  49.8054474708171 25.0006197470817  Z M 48.9001417801556 25.0006197470817  C 48.9001417801556 38.2319153696498  38.1346391050584 48.9974180447471  24.9033434824903 48.9974180447471  C 11.6708084143969 48.9974180447471  0.905305690661479 38.2319153696498  0.905305690661479 25.0006197470817  C 0.905305690661479 11.7680846789883  11.6708083657588 1.00258195525292  24.9033434824903 1.00258195525292  C 38.1346391050584 1.00258195525292  48.9001417801556 11.7680846303502  48.9001417801556 25.0006197470817  Z " fill-rule="nonzero" fill="#e13438" stroke="none" transform="matrix(1 0 0 1 175 17 )" />
  </g>
</svg>