<?xml version="1.0" encoding="utf-8"?>
<svg version="1.1" xmlns:xlink="http://www.w3.org/1999/xlink" width="12px" height="12px" viewBox="34 802  12 12" xmlns="http://www.w3.org/2000/svg">
  <path d="M 34.5 803  A 0.5 0.5 0 0 1 35 802.5 L 45 802.5  A 0.5 0.5 0 0 1 45.5 803 L 45.5 813  A 0.5 0.5 0 0 1 45 813.5 L 35 813.5  A 0.5 0.5 0 0 1 34.5 813 L 34.5 803  Z " fill-rule="nonzero" fill="#ffffff" stroke="none" />
  <path d="M 34.5 803  A 0.5 0.5 0 0 1 35 802.5 L 45 802.5  A 0.5 0.5 0 0 1 45.5 803 L 45.5 813  A 0.5 0.5 0 0 1 45 813.5 L 35 813.5  A 0.5 0.5 0 0 1 34.5 813 L 34.5 803  Z " stroke-width="1" stroke="#999999" fill="none" />
</svg>