<?xml version="1.0" encoding="utf-8"?>
<svg version="1.1" xmlns:xlink="http://www.w3.org/1999/xlink" width="12px" height="16px" xmlns="http://www.w3.org/2000/svg">
  <g transform="matrix(1 0 0 1 -194 -38 )">
    <path d="M 0.695356760700392 0.377413813229573  C 0.320423623794376 0.377824324708858  0.0167362542724021 0.681955525274429  0.0168732976653665 1.05688886186771  C 0.0168725730111596 1.43250005343885  0.320489364670699 1.73622745661915  0.695108900778212 2  L 11.1100907101167 2  C 11.4847102272215 1.7362274297709  11.7883269892457 1.43250003446364  11.7883269892457 1.05788049249762  C 11.7884634474087 0.682052197763806  11.4849269998894 0.377961029023286  11.1100907101167 0.377413813229573  L 0.695356760700392 0.377413813229573  Z M 11.1102146400778 3.09407455095497  C 11.1101733300879 3.09407455095497  11.1101320201059 3.09407455472225  11.1100907101167 3  L 0.695356760700392 3  C 0.320520470927722 3.09462177805052  0.0169840234084688 3.39871294679104  0.0171212062256814 3.77354961089494  C 0.0169839965602101 4.14838629398603  0.320520451930715 4.45247749235959  0.695356760700388 4.4530247081712  L 11.1103385700389 4.4530247081712  C 11.4855538939776 4.45295627237077  11.7896897243369 4.14876496539376  11.7896897243369 3.773549635214  C 11.7896897243369 3.39828590828775  11.4854783670041 3.09407455095497  11.1102146400778 3.09407455095497  Z M 11.7885745806732 6.48971454631377  C 11.7885745806732 6.1149582120706  11.484847019444 5.81111987564949  11.1100907101167 6  L 0.695356760700388 6  C 0.320737243567816 5.81111970054005  0.0171204815003527 6.11484709585882  0.0171204815003527 6.48946663785259  C 0.0169840234084724 6.86529498122453  0.320520470927722 7.16938614996505  0.695356760700388 7.16993336575876  L 11.1103385700389 7.16993336575876  C 11.4851748788131 7.16938617677867  11.7887113559367 6.8652950001869  11.7885741731518 6.49045831712063  Z M 8.16635982490272 10.339494844358  L 8.16635982490272 9.88560252918288  L 7.71370695525292 9.88560252918288  L 7.71370695525292 9.43319761673152  L 7.26105413424124 9.43319761673152  L 7.26105413424124 8.98054474708171  L 6.80864917315174 8.98054474708171  L 6.80864917315174 8.52789187743191  L 6.35599630350194 8.52789187743191  L 6.35599630350194 8.07523905642023  L 5.90334348249026 8.07523905642023  L 5.90334348249026 8.52789187743191  L 5.44945116731516 8.52789187743191  L 5.44945116731516 8.98054474708171  L 4.99679829766536 8.98054474708171  L 4.99679829766536 9.43319761673152  L 4.54414547665369 9.43319761673152  L 4.54414547665369 9.88560252918288  L 4.09174051556419 9.88560252918288  L 4.09174051556419 10.339494844358  L 3.63908764591439 10.339494844358  L 3.63908764591439 10.7921477140078  L 4.99679829766536 10.7921477140078  L 4.99679829766536 15.3194198929961  L 7.26105413424124 15.3194198929961  L 7.26105413424124 10.7921477140078  L 8.61901264591439 10.7921477140078  L 8.61901264591439 10.339494844358  L 8.16635982490272 10.339494844358  Z " fill-rule="nonzero" fill="#e13438" stroke="none" transform="matrix(1 0 0 1 194 38 )" />
  </g>
</svg>