<?xml version="1.0" encoding="utf-8"?>
<svg version="1.1" xmlns:xlink="http://www.w3.org/1999/xlink" width="26px" height="32px" xmlns="http://www.w3.org/2000/svg">
  <g transform="matrix(1 0 0 1 -30 -12 )">
    <path d="M 17.16 0  L 1.56 0  C 1.17 0  0.754 0.16  0.468 0.48  C 0.182000000000001 0.8  0 1.2  0 1.6  L 0 30.4  C 0 30.8  0.156 31.2266666666667  0.468 31.52  C 0.78 31.84  1.17 32  1.56 32  L 24.44 32  C 24.83 32  25.246 31.84  25.532 31.52  C 25.844 31.2  26 30.8  26 30.4  L 26 9.06666666666667  L 17.16 0  Z " fill-rule="nonzero" fill="#5acc9b" stroke="none" transform="matrix(1 0 0 1 30 12 )" />
  </g>
</svg>