<?xml version="1.0" encoding="utf-8"?>
<svg version="1.1" xmlns:xlink="http://www.w3.org/1999/xlink" width="51px" height="33px" xmlns="http://www.w3.org/2000/svg">
  <g transform="matrix(1 0 0 1 -589 -70 )">
    <path d="M 50.431 24.269  C 51.024 17.333  42.749 15.103  42.749 15.103  C 42.749 15.103  42.399 3.58500000000001  33.017 1.29600000000002  C 23.635 -0.992999999999967  19.117 8.89600000000002  19.017 9.17500000000001  C 18.917 9.45400000000001  18.463 9.32900000000001  18.463 9.32899999999998  C 16.2404420536687 7.711057390798  13.2559525806731 7.61199706575169  10.931 9.07900000000001  C 7.45999999999999 11.172  8.717 15.147  8.717 15.147  C 8.717 15.147  3.571 14.729  0.930999999999997 22.676  C -1.709 30.623  7.542 32.883  7.542 32.883  L 23.067 32.883  L 23.067 24.422  L 19.478 24.422  L 19.478 24.408  C 19.4765047768598 24.4080210286977  19.4750094243364 24.4080315434366  19.4735140533306 24.4080315434366  C 19.2973352181346 24.4080315434366  19.1545140533306 24.2652103786326  19.1545140533306 24.0890315434365  C 19.1545140533306 23.9813384432192  19.2088512389702 23.8809152333375  19.299 23.822  L 25.66 17.133  C 25.748920588907 17.0267958176323  25.8803192541487 16.9654371998258  26.0188335114797 16.9654371998258  C 26.1654187459673 16.9654371998258  26.3035360616143 17.0341181683276  26.392 17.151  L 32.706 23.787  C 32.7175414369818 23.7956551778031  32.728254105646 23.8053635337801  32.738 23.816  L 32.799 23.88  L 32.778 23.88  C 32.8118571884552 23.9322077456217  32.8305516962123 23.992791798538  32.832 24.055  C 32.832 24.2560316489384  32.6690316489384 24.419  32.468 24.419  C 32.461 24.419  32.461 24.412  32.454 24.412  L 32.454 24.426  L 29.031 24.426  L 29.031 32.887  L 43.12 32.887  C 43.12 32.887  49.838 31.205  50.431 24.269  Z " fill-rule="nonzero" fill="#ffffff" stroke="none" fill-opacity="0.996078431372549" transform="matrix(1 0 0 1 589 70 )" />
  </g>
</svg>