<?xml version="1.0" encoding="utf-8"?>
<svg version="1.1" xmlns:xlink="http://www.w3.org/1999/xlink" width="39px" height="26px" xmlns="http://www.w3.org/2000/svg">
  <g transform="matrix(1 0 0 1 -594 -324 )">
    <path d="M 38.5648823529412 19.1210303030303  C 39.0183529411765 13.656303030303  32.6904117647059 11.8993333333333  32.6904117647059 11.8993333333333  C 32.6904117647059 11.8993333333333  32.4227647058824 2.82454545454546  25.2482941176471 1.02109090909093  C 18.0738235294118 -0.78236363636361  14.6188823529412 7.00896969696971  14.5424117647059 7.22878787878789  C 14.4659411764706 7.44860606060607  14.1187647058823 7.35012121212122  14.1187647058823 7.3501212121212  C 12.4191615704526 6.0753785503257  10.1369049146323 5.99733102150133  8.359 7.15315151515152  C 5.70470588235294 8.80218181818182  6.66594117647059 11.934  6.66594117647059 11.934  C 6.66594117647059 11.934  2.73076470588235 11.6046666666667  0.711941176470586 17.8659393939394  C -1.30688235294118 24.1272121212121  5.76741176470588 25.9078181818182  5.76741176470588 26  L 17.6394705882353 26  L 17.6394705882353 19.2415757575758  L 14.8949411764706 19.2415757575758  L 14.8949411764706 19.2305454545454  C 14.8937977705398 19.2305620226103  14.892654265669 19.23057030695  14.8915107466646 19.23057030695  C 14.7567857550441 19.23057030695  14.647569570194 19.1180445407408  14.647569570194 18.9792369736167  C 14.647569570194 18.8943878643545  14.6891215356831 18.815266547478  14.7580588235294 18.7688484848485  L 19.6223529411765 13.4987272727273  C 19.690351038576 13.4150512502557  19.7908323708196 13.3667080968324  19.8967550381904 13.3667080968324  C 20.0088496292691 13.3667080968324  20.1144687529992 13.420820375046  20.1821176470588 13.5129090909091  L 25.0104705882353 18.7412727272727  C 25.0192963929861 18.7480919582691  25.0274884337293 18.7557409660085  25.0349411764706 18.7641212121212  L 25.0815882352941 18.8145454545454  L 25.0655294117647 18.8145454545454  C 25.0914202029364 18.8556788298838  25.1057160029859 18.9034117200602  25.1068235294118 18.9524242424242  C 25.1068235294118 19.1108128143151  24.9822006727176 19.2392121212121  24.8284705882353 19.2392121212121  C 24.8231176470588 19.2392121212121  24.8231176470588 19.233696969697  24.8177647058824 19.233696969697  L 24.8177647058824 19.2447272727273  L 22.2001764705882 19.2447272727273  L 22.2001764705882 26  L 32.9741176470588 26  C 32.9741176470588 25.9109696969697  38.1114117647059 24.5857575757575  38.5648823529412 19.1210303030303  Z " fill-rule="nonzero" fill="#ffffff" stroke="none" fill-opacity="0.996078431372549" transform="matrix(1 0 0 1 594 324 )" />
  </g>
</svg>