<?xml version="1.0" encoding="utf-8"?>
<svg version="1.1" xmlns:xlink="http://www.w3.org/1999/xlink" width="13px" height="13px" xmlns="http://www.w3.org/2000/svg">
  <g transform="matrix(1 0 0 1 -203 -239 )">
    <path d="M 7.29899999999998 3.40000000000001  L 7.29899999999998 6.75999999999999  L 9.53899999999999 8.03999999999999  C 9.7190956649203 8.16459590732913  9.78608716068294 8.39906614249847  9.69899999999998 8.59999999999999  C 9.61899999999997 8.84  9.37899999999999 8.84  9.13899999999998 8.75999999999999  L 6.73899999999998 7.39999999999998  C 6.57899999999998 7.31999999999996  6.49899999999997 7.23999999999998  6.49899999999997 7.07999999999998  L 6.499 3.40000000000001  C 6.499 3.17908610006771  6.67808610006767 3  6.89899999999997 3  C 7.1199138999323 3  7.29899999999998 3.17908610006771  7.29899999999998 3.40000000000001  Z M 6.89899999999994 12.2  C 8.25346346353749 12.1926092907893  9.54909835872721 11.6455634461537  10.499 10.68  C 10.5682384683385 10.6280711487461  10.6524519145769 10.6  10.739 10.6  C 10.9599138999323 10.6  11.139 10.7790861000677  11.139 11  C 11.139 11.0865480854231  11.1109288512539 11.1707615316615  11.059 11.24  C 9.94953857168031 12.3288192288128  8.45343319809686 12.9330156296831  6.899 12.92  C 3.59526892081831 12.8960352967075  0.922964703292479 10.2237310791816  0.899000000000001 6.92000000000002  C 0.929239601531378 3.63182820174563  3.61071852434449 0.986102331236737  6.899 1  C 10.2027310791817 1.02396470329251  12.8750352967075 3.69626892081834  12.899 6.99999999999997  C 12.9035054900331 7.56885372412071  12.8226043131856 8.13516196205336  12.659 8.68000000000001  C 12.6073483510311 8.83495494690644  12.4623368556449 8.93947331922024  12.299 8.93947331922024  C 12.089422672827 8.93947331922024  11.9195266807797 8.76957732717301  11.9195266807797 8.56  C 11.9195266807797 8.51921341244082  11.9261021485327 8.47869355440187  11.939 8.44000000000003  C 12.1027174861843 7.95014330220573  12.1838240313198 7.43646851634762  12.179 6.91999999999999  C 12.1790064350169 6.91666345302966  12.1790096525276 6.91332690064814  12.1790096525276 6.90999034747239  C 12.1790096525276 4.04363249585055  9.85536750414943 1.71999034747239  6.98900965252758 1.71999034747239  C 6.98567309936453 1.71999034747239  6.98233654695758 1.7199935649831  6.97899999999998 1.72000000000003  C 4.07357432445625 1.74552338794049  1.72452338794045 4.09457432445626  1.69899999999998 7  C 1.69899356498303 7.00333654697033  1.69899034747237 7.00667309935184  1.69899034747237 7.0100096525276  C 1.69899034747237 9.87636750414944  4.02263249585053 12.2000096525276  6.88899034747237 12.2000096525276  C 6.89232690063543 12.2000096525276  6.89566345304238 12.2000064350169  6.89899999999994 12.2  Z " fill-rule="nonzero" fill="#e4393c" stroke="none" transform="matrix(1 0 0 1 203 239 )" />
  </g>
</svg>