<?xml version="1.0" encoding="utf-8"?>
<svg version="1.1" xmlns:xlink="http://www.w3.org/1999/xlink" width="12px" height="12px" viewBox="9 9  12 12" xmlns="http://www.w3.org/2000/svg">
  <path d="M 9.5 10  A 0.5 0.5 0 0 1 10 9.5 L 20 9.5  A 0.5 0.5 0 0 1 20.5 10 L 20.5 20  A 0.5 0.5 0 0 1 20 20.5 L 10 20.5  A 0.5 0.5 0 0 1 9.5 20 L 9.5 10  Z " fill-rule="nonzero" fill="#ffffff" stroke="none" />
  <path d="M 9.5 10  A 0.5 0.5 0 0 1 10 9.5 L 20 9.5  A 0.5 0.5 0 0 1 20.5 10 L 20.5 20  A 0.5 0.5 0 0 1 20 20.5 L 10 20.5  A 0.5 0.5 0 0 1 9.5 20 L 9.5 10  Z " stroke-width="1" stroke="#0070cc" fill="none" />
  <path d="M 11.5714285714286 15  L 14.1428571428571 17.5714285714286  " stroke-width="2.57142857142857" stroke="#0070cc" fill="none" />
  <path d="M 14.1428571428571 17.5714285714286  L 18.4285714285714 11.5714285714286  " stroke-width="2.57142857142857" stroke="#0070cc" fill="none" />
</svg>