<?xml version="1.0" encoding="utf-8"?>
<svg version="1.1" xmlns:xlink="http://www.w3.org/1999/xlink" width="280px" height="133px" xmlns="http://www.w3.org/2000/svg">
  <defs>
    <filter x="0px" y="6px" width="280px" height="133px" filterUnits="userSpaceOnUse" id="filter585">
      <feOffset dx="2" dy="2" in="SourceAlpha" result="shadowOffsetInner" />
      <feGaussianBlur stdDeviation="0.5" in="shadowOffsetInner" result="shadowGaussian" />
      <feComposite in2="shadowGaussian" operator="atop" in="SourceAlpha" result="shadowComposite" />
      <feColorMatrix type="matrix" values="0 0 0 0 0.6  0 0 0 0 0.6  0 0 0 0 0.6  0 0 0 0.67843137254902 0  " in="shadowComposite" />
    </filter>
    <g id="widget586">
      <path d="M 0.5 10  A 3.5 3.5 0 0 1 4 6.5 L 273 6.5  A 3.5 3.5 0 0 1 276.5 10 L 276.5 132  A 3.5 3.5 0 0 1 273 135.5 L 4 135.5  A 3.5 3.5 0 0 1 0.5 132 L 0.5 10  Z " fill-rule="nonzero" fill="#ffffff" stroke="none" fill-opacity="0.996078431372549" />
      <path d="M 0.5 10  A 3.5 3.5 0 0 1 4 6.5 L 273 6.5  A 3.5 3.5 0 0 1 276.5 10 L 276.5 132  A 3.5 3.5 0 0 1 273 135.5 L 4 135.5  A 3.5 3.5 0 0 1 0.5 132 L 0.5 10  Z " stroke-width="1" stroke="#f2f2f2" fill="none" />
    </g>
  </defs>
  <g transform="matrix(1 0 0 1 0 -6 )">
    <use xlink:href="#widget586" filter="url(#filter585)" />
    <use xlink:href="#widget586" />
  </g>
</svg>