<?xml version="1.0" encoding="utf-8"?>
<svg version="1.1" xmlns:xlink="http://www.w3.org/1999/xlink" width="12px" height="12px" viewBox="8 110  12 12" xmlns="http://www.w3.org/2000/svg">
  <path d="M 8.5 111  A 0.5 0.5 0 0 1 9 110.5 L 19 110.5  A 0.5 0.5 0 0 1 19.5 111 L 19.5 121  A 0.5 0.5 0 0 1 19 121.5 L 9 121.5  A 0.5 0.5 0 0 1 8.5 121 L 8.5 111  Z " fill-rule="nonzero" fill="#ffffff" stroke="none" />
  <path d="M 8.5 111  A 0.5 0.5 0 0 1 9 110.5 L 19 110.5  A 0.5 0.5 0 0 1 19.5 111 L 19.5 121  A 0.5 0.5 0 0 1 19 121.5 L 9 121.5  A 0.5 0.5 0 0 1 8.5 121 L 8.5 111  Z " stroke-width="1" stroke="#999999" fill="none" />
</svg>