<?xml version="1.0" encoding="utf-8"?>
<svg version="1.1" xmlns:xlink="http://www.w3.org/1999/xlink" width="12px" height="12px" viewBox="8 139  12 12" xmlns="http://www.w3.org/2000/svg">
  <path d="M 8.5 140  A 0.5 0.5 0 0 1 9 139.5 L 19 139.5  A 0.5 0.5 0 0 1 19.5 140 L 19.5 150  A 0.5 0.5 0 0 1 19 150.5 L 9 150.5  A 0.5 0.5 0 0 1 8.5 150 L 8.5 140  Z " fill-rule="nonzero" fill="#ffffff" stroke="none" />
  <path d="M 8.5 140  A 0.5 0.5 0 0 1 9 139.5 L 19 139.5  A 0.5 0.5 0 0 1 19.5 140 L 19.5 150  A 0.5 0.5 0 0 1 19 150.5 L 9 150.5  A 0.5 0.5 0 0 1 8.5 150 L 8.5 140  Z " stroke-width="1" stroke="#0070cc" fill="none" />
  <path d="M 10.5714285714286 145  L 13.1428571428571 147.571428571429  " stroke-width="2.57142857142857" stroke="#0070cc" fill="none" />
  <path d="M 13.1428571428571 147.571428571429  L 17.4285714285714 141.571428571429  " stroke-width="2.57142857142857" stroke="#0070cc" fill="none" />
</svg>