<?xml version="1.0" encoding="utf-8"?>
<svg version="1.1" xmlns:xlink="http://www.w3.org/1999/xlink" width="12px" height="12px" viewBox="8 167  12 12" xmlns="http://www.w3.org/2000/svg">
  <path d="M 8.5 168  A 0.5 0.5 0 0 1 9 167.5 L 19 167.5  A 0.5 0.5 0 0 1 19.5 168 L 19.5 178  A 0.5 0.5 0 0 1 19 178.5 L 9 178.5  A 0.5 0.5 0 0 1 8.5 178 L 8.5 168  Z " fill-rule="nonzero" fill="#ffffff" stroke="none" />
  <path d="M 8.5 168  A 0.5 0.5 0 0 1 9 167.5 L 19 167.5  A 0.5 0.5 0 0 1 19.5 168 L 19.5 178  A 0.5 0.5 0 0 1 19 178.5 L 9 178.5  A 0.5 0.5 0 0 1 8.5 178 L 8.5 168  Z " stroke-width="1" stroke="#0070cc" fill="none" />
  <path d="M 10.5714285714286 173  L 13.1428571428571 175.571428571429  " stroke-width="2.57142857142857" stroke="#0070cc" fill="none" />
  <path d="M 13.1428571428571 175.571428571429  L 17.4285714285714 169.571428571429  " stroke-width="2.57142857142857" stroke="#0070cc" fill="none" />
</svg>