<?xml version="1.0" encoding="utf-8"?>
<svg version="1.1" xmlns:xlink="http://www.w3.org/1999/xlink" width="12px" height="12px" viewBox="8 198  12 12" xmlns="http://www.w3.org/2000/svg">
  <path d="M 8.5 199  A 0.5 0.5 0 0 1 9 198.5 L 19 198.5  A 0.5 0.5 0 0 1 19.5 199 L 19.5 209  A 0.5 0.5 0 0 1 19 209.5 L 9 209.5  A 0.5 0.5 0 0 1 8.5 209 L 8.5 199  Z " fill-rule="nonzero" fill="#ffffff" stroke="none" />
  <path d="M 8.5 199  A 0.5 0.5 0 0 1 9 198.5 L 19 198.5  A 0.5 0.5 0 0 1 19.5 199 L 19.5 209  A 0.5 0.5 0 0 1 19 209.5 L 9 209.5  A 0.5 0.5 0 0 1 8.5 209 L 8.5 199  Z " stroke-width="1" stroke="#0070cc" fill="none" />
  <path d="M 10.5714285714286 204  L 13.1428571428571 206.571428571429  " stroke-width="2.57142857142857" stroke="#0070cc" fill="none" />
  <path d="M 13.1428571428571 206.571428571429  L 17.4285714285714 200.571428571429  " stroke-width="2.57142857142857" stroke="#0070cc" fill="none" />
</svg>