<?xml version="1.0" encoding="utf-8"?>
<svg version="1.1" xmlns:xlink="http://www.w3.org/1999/xlink" width="12px" height="12px" viewBox="185 292.5  12 12" xmlns="http://www.w3.org/2000/svg">
  <path d="M 185.5 293.5  A 0.5 0.5 0 0 1 186 293 L 196 293  A 0.5 0.5 0 0 1 196.5 293.5 L 196.5 303.5  A 0.5 0.5 0 0 1 196 304 L 186 304  A 0.5 0.5 0 0 1 185.5 303.5 L 185.5 293.5  Z " fill-rule="nonzero" fill="#ffffff" stroke="none" />
  <path d="M 185.5 293.5  A 0.5 0.5 0 0 1 186 293 L 196 293  A 0.5 0.5 0 0 1 196.5 293.5 L 196.5 303.5  A 0.5 0.5 0 0 1 196 304 L 186 304  A 0.5 0.5 0 0 1 185.5 303.5 L 185.5 293.5  Z " stroke-width="1" stroke="#0070cc" fill="none" />
  <path d="M 187.571428571429 298.5  L 190.142857142857 301.071428571429  " stroke-width="2.57142857142857" stroke="#0070cc" fill="none" />
  <path d="M 190.142857142857 301.071428571429  L 194.428571428571 295.071428571429  " stroke-width="2.57142857142857" stroke="#0070cc" fill="none" />
</svg>