<?xml version="1.0" encoding="utf-8"?>
<svg version="1.1" xmlns:xlink="http://www.w3.org/1999/xlink" width="12px" height="12px" viewBox="37 549  12 12" xmlns="http://www.w3.org/2000/svg">
  <path d="M 37.5 550  A 0.5 0.5 0 0 1 38 549.5 L 48 549.5  A 0.5 0.5 0 0 1 48.5 550 L 48.5 560  A 0.5 0.5 0 0 1 48 560.5 L 38 560.5  A 0.5 0.5 0 0 1 37.5 560 L 37.5 550  Z " fill-rule="nonzero" fill="#ffffff" stroke="none" />
  <path d="M 37.5 550  A 0.5 0.5 0 0 1 38 549.5 L 48 549.5  A 0.5 0.5 0 0 1 48.5 550 L 48.5 560  A 0.5 0.5 0 0 1 48 560.5 L 38 560.5  A 0.5 0.5 0 0 1 37.5 560 L 37.5 550  Z " stroke-width="1" stroke="#999999" fill="none" />
</svg>