<?xml version="1.0" encoding="utf-8"?>
<svg version="1.1" xmlns:xlink="http://www.w3.org/1999/xlink" width="12px" height="12px" viewBox="37 579  12 12" xmlns="http://www.w3.org/2000/svg">
  <path d="M 37.5 580  A 0.5 0.5 0 0 1 38 579.5 L 48 579.5  A 0.5 0.5 0 0 1 48.5 580 L 48.5 590  A 0.5 0.5 0 0 1 48 590.5 L 38 590.5  A 0.5 0.5 0 0 1 37.5 590 L 37.5 580  Z " fill-rule="nonzero" fill="#ffffff" stroke="none" />
  <path d="M 37.5 580  A 0.5 0.5 0 0 1 38 579.5 L 48 579.5  A 0.5 0.5 0 0 1 48.5 580 L 48.5 590  A 0.5 0.5 0 0 1 48 590.5 L 38 590.5  A 0.5 0.5 0 0 1 37.5 590 L 37.5 580  Z " stroke-width="1" stroke="#0070cc" fill="none" />
  <path d="M 39.5714285714286 585  L 42.1428571428571 587.571428571429  " stroke-width="2.57142857142857" stroke="#0070cc" fill="none" />
  <path d="M 42.1428571428571 587.571428571429  L 46.4285714285714 581.571428571429  " stroke-width="2.57142857142857" stroke="#0070cc" fill="none" />
</svg>