<?xml version="1.0" encoding="utf-8"?>
<svg version="1.1" xmlns:xlink="http://www.w3.org/1999/xlink" width="12px" height="12px" viewBox="37 639  12 12" xmlns="http://www.w3.org/2000/svg">
  <path d="M 37.5 640  A 0.5 0.5 0 0 1 38 639.5 L 48 639.5  A 0.5 0.5 0 0 1 48.5 640 L 48.5 650  A 0.5 0.5 0 0 1 48 650.5 L 38 650.5  A 0.5 0.5 0 0 1 37.5 650 L 37.5 640  Z " fill-rule="nonzero" fill="#ffffff" stroke="none" />
  <path d="M 37.5 640  A 0.5 0.5 0 0 1 38 639.5 L 48 639.5  A 0.5 0.5 0 0 1 48.5 640 L 48.5 650  A 0.5 0.5 0 0 1 48 650.5 L 38 650.5  A 0.5 0.5 0 0 1 37.5 650 L 37.5 640  Z " stroke-width="1" stroke="#999999" fill="none" />
</svg>