<?xml version="1.0" encoding="utf-8"?>
<svg version="1.1" xmlns:xlink="http://www.w3.org/1999/xlink" width="12px" height="12px" viewBox="142 360.5  12 12" xmlns="http://www.w3.org/2000/svg">
  <path d="M 148 360.5  C 151.36 360.5  154 363.14  154 366.5  C 154 369.86  151.36 372.5  148 372.5  C 144.64 372.5  142 369.86  142 366.5  C 142 363.14  144.64 360.5  148 360.5  Z " fill-rule="nonzero" fill="#ffffff" stroke="none" />
  <path d="M 148 361  C 151.08 361  153.5 363.42  153.5 366.5  C 153.5 369.58  151.08 372  148 372  C 144.92 372  142.5 369.58  142.5 366.5  C 142.5 363.42  144.92 361  148 361  Z " stroke-width="1" stroke="#999999" fill="none" />
  <path d="M 148 369.5  C 146.32 369.5  145 368.18  145 366.5  C 145 364.82  146.32 363.5  148 363.5  C 149.68 363.5  151 364.82  151 366.5  C 151 368.18  149.68 369.5  148 369.5  " fill-rule="nonzero" fill="#999999" stroke="none" />
</svg>