<?xml version="1.0" encoding="utf-8"?>
<svg version="1.1" xmlns:xlink="http://www.w3.org/1999/xlink" width="19px" height="17px" xmlns="http://www.w3.org/2000/svg">
  <g transform="matrix(1 0 0 1 -28 -1495 )">
    <path d="M 5.83898775195313 16.3531701953125  L 5.85344827148437 16.3531701953125  L 5.83898775195313 16.3531701953125  Z M 9.93854283007813 0.302002224609375  L 9.90239155664062 0.302002224609375  L 9.93854283007813 0.302002224609375  Z M 18.2027252480469 14.7769744042969  C 18.2750277949219 14.6323692851563  18.2822580546875 14.4877641660156  18.2677975605469 14.3576195664062  L 18.2677975605469 8.8264738671875  C 18.24610678125 8.81924360742187  18.24610678125 8.81201334765625  18.24610678125 8.80478308789063  C 18.24610678125 8.797552828125  18.2533370410156 8.78309230859375  18.2533370410156 8.76863181445312  C 18.2605673007812 8.74694103515625  18.2605673007812 8.73248054101562  18.2605673007812 8.71078976171875  C 18.2605673007812 8.6963292421875  18.1882647539062 8.66740822851562  18.1882647285156 8.66740822851562  L 18.1882647285156 8.63848721484375  L 18.1882647285156 8.59510568164062  C 18.1882647285156 8.58064516210937  18.18103446875 8.55895440820312  18.1810344941406 8.53726362890625  C 18.1810344941406 8.53003336914062  18.173804234375 8.51557284960937  18.173804234375 8.50834261523437  L 18.173804234375 8.49388209570312  L 18.1665739746094 8.47942157617187  C 18.1593437148437 8.46496105664062  18.1593437148437 8.4505005625  18.1448831953125 8.43604004296875  C 18.1376529355469 8.42880978320312  18.1376529355469 8.41434926367187  18.1304227011719 8.40711902929687  C 18.1231924414062 8.38542825  18.108731921875 8.37096775585937  18.0942714023437 8.35650723632812  C 18.0870411425781 8.34204671679687  18.0798108828125 8.33481645703124  18.0725806484375 8.32758619726562  C 18.0581201289062 8.31312567773437  18.0508898691406 8.29866518359374  18.036429375 8.29143492382812  L 18.0002780761719 8.25528365039062  C 17.9858175566406 8.24805339062499  17.978587296875 8.23359287109374  17.9641268027344 8.22636263671874  C 17.9496662832031 8.21913237695312  17.9352057890625 8.20467185742187  17.9207452695312 8.19744159765624  C 17.90628475 8.19021133789062  17.8918242558594 8.18298107812499  17.8845939960937 8.17575084374999  C 17.8701334765625 8.16852058398437  17.8629032167969 8.16129032421874  17.8484427226562 8.16129032421874  L 14.3706896542969 7.00444939648437  L 14.3706896542969 2.31924360742187  C 14.3706896542969 2.31924360742187  14.348998875 2.30478308789063  14.348998875 2.297552828125  C 14.348998875 2.29032256835937  14.3562291347656 2.27586204882812  14.3562291347656 2.2614015546875  C 14.3634593945312 2.23971077539063  14.3634593945312 2.22525028125  14.3634593945312 2.20355950195312  C 14.3634593945312 2.18909898242187  14.3634593945312 2.17463848828125  14.2911568476562 2.16017796875  L 14.2911568476562 2.15294770898438  C 14.3634593945312 2.13848718945312  14.3634593945312 2.1240266953125  14.3634593945312 2.10956617578125  C 14.3634593945312 2.08787539648437  14.3562291347656 2.07341490234375  14.3562291347656 2.0517241484375  C 14.3562291347656 2.04449388867187  14.348998875 2.03003336914063  14.348998875 2.022803109375  L 14.348998875 2.00834261523437  L 14.341768640625 1.99388209570312  C 14.3345383808594 1.97942157617187  14.3345383808594 1.96496108203125  14.3200778613281 1.9505005625  C 14.3128476015625 1.93604004296875  14.3128476015625 1.92880978320312  14.3056173417969 1.9215795234375  C 14.2983870820312 1.89988874414062  14.2839265625 1.88542825  14.2694660683594 1.86373749609375  C 14.2622358085937 1.8492769765625  14.2550055488281 1.84204671679687  14.2477753144531 1.82758619726562  C 14.2333147949219 1.81312567773437  14.2260845351562 1.79866518359375  14.211624015625 1.7842046640625  L 14.1754727421875 1.748053390625  C 14.1610122226562 1.74082313085937  14.1537819628906 1.72636261132812  14.13932146875 1.71913237695313  C 14.1248609492187 1.7119021171875  14.1104004550781 1.69744159765625  14.0887096757812 1.69021133789063  L 14.0453281425781 1.66852058398437  C 14.0308676230469 1.66129032421875  14.0164071289062 1.65406006445312  14.001946609375 1.65406006445312  L 10.1265294824219 0.374304771484375  C 10.0614571699219 0.3453837578125  9.93131257031249 0.309232458984375  9.90962179101562 0.302002224609375  C 9.84454947851562 0.302002224609375  9.77947719140624 0.316462744140624  9.72163513867187 0.345383757812499  L 5.73053393164061 1.61790879101562  C 5.54977753906249 1.66129032421875  5.39794216015624 1.79143492382812  5.34010010742186 1.96496105664062  C 5.31117909374999 2.0589543828125  5.30394883398436 2.15294770898437  5.32563958789062 2.24694103515625  L 5.32563958789062 6.96106786328125  L 1.33453838085936 8.13236931054687  C 1.14655172851561 8.16852058398437  0.994716349609365 8.30589544335937  0.929644037109365 8.47942157617187  C 0.90072302343749 8.57341490234375  0.893492763671865 8.66740822851562  0.91518354296874 8.7614015546875  L 0.91518354296874 14.408231359375  C 0.857341490234365 14.6685205585938  1.00917686914061 14.9360400429688  1.26223580859374 15.022803109375  L 5.70161289257812 16.32424915625  C 5.70884315234374 16.32424915625  5.71607341210937 16.3314794160156  5.72330367187499 16.3314794160156  C 5.73053393164061 16.3314794160156  5.73053393164061 16.3314794160156  5.73776419140624 16.3387096757812  C 5.75222471093749 16.3387096757812  5.76668520507812 16.3459399355469  5.78114572460937 16.3459399355469  C 5.79560624414062 16.3459399355469  5.80283650390624 16.3459399355469  5.81006673828124 16.3531701953125  L 5.88236931054687 16.3531701953125  C 5.89682983007812 16.3531701953125  5.90406008984374 16.3531701953125  5.91852058398437 16.3459399355469  C 5.93298110351562 16.3459399355469  5.94744159765624 16.3387096757812  5.96190211718749 16.3387096757812  L 5.99082313085937 16.3387096757812  L 9.88793103710937 15.0951056816406  L 13.6476640585937 16.3387096757812  C 13.6548943183594 16.3387096757812  13.662124578125 16.3459399355469  13.6693548378906 16.3459399355469  C 13.6765850976562 16.3459399355469  13.6765850976562 16.3459399355469  13.6838153574219 16.3531701953125  C 13.6982758769531 16.3531701953125  13.7127363710937 16.3604004550781  13.727196890625 16.3604004550781  C 13.7416574101562 16.3604004550781  13.7488876699219 16.3604004550781  13.7561179042969 16.3676306894531  L 13.8573414902344 16.3676306894531  C 13.8718020097656 16.3676306894531  13.8790322695312 16.3676306894531  13.8934927636719 16.3604004550781  C 13.9079532832031 16.3604004550781  13.9224137773437 16.3531701953125  13.936874296875 16.3531701953125  L 13.9657953359375 16.3531701953125  L 17.899054515625 15.0444938886719  C 18.036429375 15.0011123554687  18.1448832207031 14.9071190292969  18.2027252480469 14.7769744042969  Z M 13.8211902167969 7.92269187890625  L 14.2983871074219 8.08175751757813  L 12.0136262402344 8.81201334765625  L 11.5725806484375 8.66740822851563  L 13.8211902167969 7.92269187890625  Z M 13.2789210136719 2.86874304492188  L 13.2789210136719 7.01167965625  L 10.3868186816406 7.96607341210938  L 10.3868186816406 3.82313682617187  L 13.2789210136719 2.86874304492188  Z M 7.567018921875 2.16017796875  L 9.895161296875 1.41546161914062  L 10.6254171269531 1.65406006445312  L 8.31173527148437 2.39154615429687  L 7.567018921875 2.16017796875  Z M 3.31562846484375 8.66017796875  L 5.83175751757813 7.92269187890625  L 6.41017796875 8.10344827148437  L 4.01696328125 8.86985540039062  L 3.31562846484375 8.66017796875  Z M 5.32563958789062 10.3737486191406  L 5.32563958789062 15.1023359414063  L 1.99972192382812 14.1190211464844  L 1.99972192382812 9.39043382421875  L 3.37347051757812 9.79532814257812  L 3.37347051757812 11.255839828125  C 3.37347051757812 11.4149054667969  3.47469410351562 11.5522803261719  3.62652948242187 11.5884315996094  C 3.8362069140625 11.6318131328125  4.02419354101562 11.4727474941406  4.02419354101562 11.2703003222656  L 4.02419354101562 9.9905450546875  L 5.32563958789062 10.3737486191406  Z M 8.15989989257812 8.66740822851562  L 5.83898775195313 9.412124578125  L 5.12319244140625 9.202447171875  L 7.47302559570313 8.4505005625  L 8.15989989257812 8.66740822851562  Z M 9.37458287304688 9.412124578125  L 9.37458287304688 14.1262513808594  L 6.41017796875 15.0734149023437  L 6.41017796875 10.3592880996094  L 9.37458287304688 9.412124578125  Z M 9.37458287304688 3.866518359375  L 9.37458287304688 7.901001125  L 6.41017796875 6.95383760351563  L 6.41017796875 2.912124578125  L 7.92853170703125 3.39655172851562  L 7.92853170703125 4.74860956835938  C 7.92853170703125 4.90767520703125  8.02975529296875 5.04505006640625  8.18159064648438 5.08120133984375  C 8.391268078125 5.12458287304688  8.57925470507813 4.965517234375  8.57925473046875 4.76307008789063  L 8.57925473046875 3.61345939453125  L 9.37458287304688 3.866518359375  Z M 12.1437708652344 2.15294770898438  L 9.88793103710938 2.90489431835938  L 9.37458287304688 2.7385984453125  L 11.673804234375 2.00111235546875  L 12.1437708652344 2.15294770898438  Z M 13.2789210136719 10.3375973203125  L 13.2789210136719 15.1095661757813  L 10.3868186816406 14.1551724199219  L 10.3868186816406 9.3759733046875  L 11.1821468242188 9.63626250390625  L 11.1821468242188 11.255839828125  C 11.1821468242188 11.4149054667969  11.2833704101563 11.5522803261719  11.4352057890625 11.5884315996094  C 11.6448832207031 11.6318131328125  11.8328698476563 11.4727474941406  11.8328698476563 11.2703003222656  L 11.8328698476563 9.86040045507812  L 13.2789210136719 10.3375973203125  Z M 16.055339265625 8.66740822851563  L 13.8211902167969 9.40489431835938  L 13.0692436074219 9.15906563867188  L 15.3467741894531 8.42880978320313  L 16.055339265625 8.66740822851563  Z M 17.1832591796875 9.41935483789063  L 17.1832591796875 14.1407119003906  L 14.3634593945313 15.0806451621094  L 14.3634593945313 10.3592880996094  L 17.1832591796875 9.41935483789063  Z " fill-rule="nonzero" fill="#666666" stroke="none" transform="matrix(1 0 0 1 28 1495 )" />
  </g>
</svg>