<?xml version="1.0" encoding="utf-8"?>
<svg version="1.1" xmlns:xlink="http://www.w3.org/1999/xlink" width="8px" height="8px" xmlns="http://www.w3.org/2000/svg">
  <g transform="matrix(1 0 0 1 0 -24 )">
    <path d="M 4 25.5  C 5.4 25.5  6.5 26.6  6.5 28  C 6.5 29.4  5.4 30.5  4 30.5  C 2.6 30.5  1.5 29.4  1.5 28  C 1.5 26.6  2.6 25.5  4 25.5  Z " fill-rule="nonzero" fill="#3aa1ff" stroke="none" />
    <path d="M 4 25  C 5.68 25  7 26.32  7 28  C 7 29.68  5.68 31  4 31  C 2.32 31  1 29.68  1 28  C 1 26.32  2.32 25  4 25  Z " stroke-width="2" stroke="#3aa1ff" fill="none" stroke-opacity="0.498039215686275" />
  </g>
</svg>