<?xml version="1.0" encoding="utf-8"?>
<svg version="1.1" xmlns:xlink="http://www.w3.org/1999/xlink" width="105px" height="23px" xmlns="http://www.w3.org/2000/svg">
  <g transform="matrix(1 0 0 1 -126 -206 )">
    <path d="M 127 217.5  A 10.5 10.5 0 0 1 137.5 207 L 219.5 207  A 10.5 10.5 0 0 1 230 217.5 A 10.5 10.5 0 0 1 219.5 228 L 137.5 228  A 10.5 10.5 0 0 1 127 217.5 Z " fill-rule="nonzero" fill="#eaf3ff" stroke="none" />
    <path d="M 126.5 217.5  A 11 11 0 0 1 137.5 206.5 L 219.5 206.5  A 11 11 0 0 1 230.5 217.5 A 11 11 0 0 1 219.5 228.5 L 137.5 228.5  A 11 11 0 0 1 126.5 217.5 Z " stroke-width="1" stroke="#0070cc" fill="none" stroke-opacity="0.6" />
  </g>
</svg>