<?xml version="1.0" encoding="utf-8"?>
<svg version="1.1" xmlns:xlink="http://www.w3.org/1999/xlink" width="32px" height="20px" xmlns="http://www.w3.org/2000/svg">
  <g transform="matrix(1 0 0 1 -55 -159 )">
    <path d="M 56 169  A 9 9 0 0 1 65 160 L 77 160  A 9 9 0 0 1 86 169 A 9 9 0 0 1 77 178 L 65 178  A 9 9 0 0 1 56 169 Z " fill-rule="nonzero" fill="#eaf3ff" stroke="none" />
    <path d="M 55.5 169  A 9.5 9.5 0 0 1 65 159.5 L 77 159.5  A 9.5 9.5 0 0 1 86.5 169 A 9.5 9.5 0 0 1 77 178.5 L 65 178.5  A 9.5 9.5 0 0 1 55.5 169 Z " stroke-width="1" stroke="#0070cc" fill="none" stroke-opacity="0.6" />
  </g>
</svg>