<?xml version="1.0" encoding="utf-8"?>
<svg version="1.1" xmlns:xlink="http://www.w3.org/1999/xlink" width="38px" height="20px" xmlns="http://www.w3.org/2000/svg">
  <g transform="matrix(1 0 0 1 -256 -259 )">
    <path d="M 257 269  A 9 9 0 0 1 266 260 L 284 260  A 9 9 0 0 1 293 269 A 9 9 0 0 1 284 278 L 266 278  A 9 9 0 0 1 257 269 Z " fill-rule="nonzero" fill="#eaf3ff" stroke="none" />
    <path d="M 256.5 269  A 9.5 9.5 0 0 1 266 259.5 L 284 259.5  A 9.5 9.5 0 0 1 293.5 269 A 9.5 9.5 0 0 1 284 278.5 L 266 278.5  A 9.5 9.5 0 0 1 256.5 269 Z " stroke-width="1" stroke="#0070cc" fill="none" stroke-opacity="0.6" />
  </g>
</svg>