<?xml version="1.0" encoding="utf-8"?>
<svg version="1.1" xmlns:xlink="http://www.w3.org/1999/xlink" width="12px" height="12px" viewBox="6775 1315.5  12 12" xmlns="http://www.w3.org/2000/svg">
  <path d="M 6781 1315.5  C 6784.36 1315.5  6787 1318.14  6787 1321.5  C 6787 1324.86  6784.36 1327.5  6781 1327.5  C 6777.64 1327.5  6775 1324.86  6775 1321.5  C 6775 1318.14  6777.64 1315.5  6781 1315.5  Z " fill-rule="nonzero" fill="#ffffff" stroke="none" />
  <path d="M 6781 1316  C 6784.08 1316  6786.5 1318.42  6786.5 1321.5  C 6786.5 1324.58  6784.08 1327  6781 1327  C 6777.92 1327  6775.5 1324.58  6775.5 1321.5  C 6775.5 1318.42  6777.92 1316  6781 1316  Z " stroke-width="1" stroke="#e13438" fill="none" />
  <path d="M 6781 1324.5  C 6779.32 1324.5  6778 1323.18  6778 1321.5  C 6778 1319.82  6779.32 1318.5  6781 1318.5  C 6782.68 1318.5  6784 1319.82  6784 1321.5  C 6784 1323.18  6782.68 1324.5  6781 1324.5  " fill-rule="nonzero" fill="#e13438" stroke="none" />
</svg>