<?xml version="1.0" encoding="utf-8"?>
<svg version="1.1" xmlns:xlink="http://www.w3.org/1999/xlink" width="127px" height="55px" xmlns="http://www.w3.org/2000/svg">
  <defs>
    <filter x="33px" y="2329px" width="127px" height="55px" filterUnits="userSpaceOnUse" id="filter881">
      <feOffset dx="2" dy="2" in="SourceAlpha" result="shadowOffsetInner" />
      <feGaussianBlur stdDeviation="0.5" in="shadowOffsetInner" result="shadowGaussian" />
      <feComposite in2="shadowGaussian" operator="atop" in="SourceAlpha" result="shadowComposite" />
      <feColorMatrix type="matrix" values="0 0 0 0 0.6  0 0 0 0 0.6  0 0 0 0 0.6  0 0 0 0.67843137254902 0  " in="shadowComposite" />
    </filter>
    <g id="widget882">
      <path d="M 33.5 2333  A 3.5 3.5 0 0 1 37 2329.5 L 153 2329.5  A 3.5 3.5 0 0 1 156.5 2333 L 156.5 2377  A 3.5 3.5 0 0 1 153 2380.5 L 37 2380.5  A 3.5 3.5 0 0 1 33.5 2377 L 33.5 2333  Z " fill-rule="nonzero" fill="#ffffff" stroke="none" fill-opacity="0.996078431372549" />
      <path d="M 33.5 2333  A 3.5 3.5 0 0 1 37 2329.5 L 153 2329.5  A 3.5 3.5 0 0 1 156.5 2333 L 156.5 2377  A 3.5 3.5 0 0 1 153 2380.5 L 37 2380.5  A 3.5 3.5 0 0 1 33.5 2377 L 33.5 2333  Z " stroke-width="1" stroke="#f2f2f2" fill="none" />
    </g>
  </defs>
  <g transform="matrix(1 0 0 1 -33 -2329 )">
    <use xlink:href="#widget882" filter="url(#filter881)" />
    <use xlink:href="#widget882" />
  </g>
</svg>