<?xml version="1.0" encoding="utf-8"?>
<svg version="1.1" xmlns:xlink="http://www.w3.org/1999/xlink" width="12px" height="12px" viewBox="442 145  12 12" xmlns="http://www.w3.org/2000/svg">
  <path d="M 442.5 146  A 0.5 0.5 0 0 1 443 145.5 L 453 145.5  A 0.5 0.5 0 0 1 453.5 146 L 453.5 156  A 0.5 0.5 0 0 1 453 156.5 L 443 156.5  A 0.5 0.5 0 0 1 442.5 156 L 442.5 146  Z " fill-rule="nonzero" fill="#ffffff" stroke="none" />
  <path d="M 442.5 146  A 0.5 0.5 0 0 1 443 145.5 L 453 145.5  A 0.5 0.5 0 0 1 453.5 146 L 453.5 156  A 0.5 0.5 0 0 1 453 156.5 L 443 156.5  A 0.5 0.5 0 0 1 442.5 156 L 442.5 146  Z " stroke-width="1" stroke="#999999" fill="none" />
</svg>