<?xml version="1.0" encoding="utf-8"?>
<svg version="1.1" xmlns:xlink="http://www.w3.org/1999/xlink" width="12px" height="12px" viewBox="442 40  12 12" xmlns="http://www.w3.org/2000/svg">
  <path d="M 442.5 41  A 0.5 0.5 0 0 1 443 40.5 L 453 40.5  A 0.5 0.5 0 0 1 453.5 41 L 453.5 51  A 0.5 0.5 0 0 1 453 51.5 L 443 51.5  A 0.5 0.5 0 0 1 442.5 51 L 442.5 41  Z " fill-rule="nonzero" fill="#ffffff" stroke="none" />
  <path d="M 442.5 41  A 0.5 0.5 0 0 1 443 40.5 L 453 40.5  A 0.5 0.5 0 0 1 453.5 41 L 453.5 51  A 0.5 0.5 0 0 1 453 51.5 L 443 51.5  A 0.5 0.5 0 0 1 442.5 51 L 442.5 41  Z " stroke-width="1" stroke="#999999" fill="none" />
</svg>