<?xml version="1.0" encoding="utf-8"?>
<svg version="1.1" xmlns:xlink="http://www.w3.org/1999/xlink" width="12px" height="12px" viewBox="442 425  12 12" xmlns="http://www.w3.org/2000/svg">
  <path d="M 442.5 426  A 0.5 0.5 0 0 1 443 425.5 L 453 425.5  A 0.5 0.5 0 0 1 453.5 426 L 453.5 436  A 0.5 0.5 0 0 1 453 436.5 L 443 436.5  A 0.5 0.5 0 0 1 442.5 436 L 442.5 426  Z " fill-rule="nonzero" fill="#ffffff" stroke="none" />
  <path d="M 442.5 426  A 0.5 0.5 0 0 1 443 425.5 L 453 425.5  A 0.5 0.5 0 0 1 453.5 426 L 453.5 436  A 0.5 0.5 0 0 1 453 436.5 L 443 436.5  A 0.5 0.5 0 0 1 442.5 436 L 442.5 426  Z " stroke-width="1" stroke="#999999" fill="none" />
</svg>