<?xml version="1.0" encoding="utf-8"?>
<svg version="1.1" xmlns:xlink="http://www.w3.org/1999/xlink" width="12px" height="12px" viewBox="442 215  12 12" xmlns="http://www.w3.org/2000/svg">
  <path d="M 442.5 216  A 0.5 0.5 0 0 1 443 215.5 L 453 215.5  A 0.5 0.5 0 0 1 453.5 216 L 453.5 226  A 0.5 0.5 0 0 1 453 226.5 L 443 226.5  A 0.5 0.5 0 0 1 442.5 226 L 442.5 216  Z " fill-rule="nonzero" fill="#ffffff" stroke="none" />
  <path d="M 442.5 216  A 0.5 0.5 0 0 1 443 215.5 L 453 215.5  A 0.5 0.5 0 0 1 453.5 216 L 453.5 226  A 0.5 0.5 0 0 1 453 226.5 L 443 226.5  A 0.5 0.5 0 0 1 442.5 226 L 442.5 216  Z " stroke-width="1" stroke="#0070cc" fill="none" />
  <path d="M 444.571428571429 221  L 447.142857142857 223.571428571429  " stroke-width="2.57142857142857" stroke="#0070cc" fill="none" />
  <path d="M 447.142857142857 223.571428571429  L 451.428571428571 217.571428571429  " stroke-width="2.57142857142857" stroke="#0070cc" fill="none" />
</svg>