<?xml version="1.0" encoding="utf-8"?>
<svg version="1.1" xmlns:xlink="http://www.w3.org/1999/xlink" width="12px" height="12px" viewBox="442 460  12 12" xmlns="http://www.w3.org/2000/svg">
  <path d="M 442.5 461  A 0.5 0.5 0 0 1 443 460.5 L 453 460.5  A 0.5 0.5 0 0 1 453.5 461 L 453.5 471  A 0.5 0.5 0 0 1 453 471.5 L 443 471.5  A 0.5 0.5 0 0 1 442.5 471 L 442.5 461  Z " fill-rule="nonzero" fill="#ffffff" stroke="none" />
  <path d="M 442.5 461  A 0.5 0.5 0 0 1 443 460.5 L 453 460.5  A 0.5 0.5 0 0 1 453.5 461 L 453.5 471  A 0.5 0.5 0 0 1 453 471.5 L 443 471.5  A 0.5 0.5 0 0 1 442.5 471 L 442.5 461  Z " stroke-width="1" stroke="#999999" fill="none" />
</svg>