<?xml version="1.0" encoding="utf-8"?>
<svg version="1.1" xmlns:xlink="http://www.w3.org/1999/xlink" width="12px" height="12px" viewBox="511 75  12 12" xmlns="http://www.w3.org/2000/svg">
  <path d="M 511.5 76  A 0.5 0.5 0 0 1 512 75.5 L 522 75.5  A 0.5 0.5 0 0 1 522.5 76 L 522.5 86  A 0.5 0.5 0 0 1 522 86.5 L 512 86.5  A 0.5 0.5 0 0 1 511.5 86 L 511.5 76  Z " fill-rule="nonzero" fill="#ffffff" stroke="none" />
  <path d="M 511.5 76  A 0.5 0.5 0 0 1 512 75.5 L 522 75.5  A 0.5 0.5 0 0 1 522.5 76 L 522.5 86  A 0.5 0.5 0 0 1 522 86.5 L 512 86.5  A 0.5 0.5 0 0 1 511.5 86 L 511.5 76  Z " stroke-width="1" stroke="#0070cc" fill="none" />
  <path d="M 513.571428571429 81  L 516.142857142857 83.5714285714286  " stroke-width="2.57142857142857" stroke="#0070cc" fill="none" />
  <path d="M 516.142857142857 83.5714285714286  L 520.428571428571 77.5714285714286  " stroke-width="2.57142857142857" stroke="#0070cc" fill="none" />
</svg>