<?xml version="1.0" encoding="utf-8"?>
<svg version="1.1" xmlns:xlink="http://www.w3.org/1999/xlink" width="12px" height="12px" viewBox="511 110  12 12" xmlns="http://www.w3.org/2000/svg">
  <path d="M 511.5 111  A 0.5 0.5 0 0 1 512 110.5 L 522 110.5  A 0.5 0.5 0 0 1 522.5 111 L 522.5 121  A 0.5 0.5 0 0 1 522 121.5 L 512 121.5  A 0.5 0.5 0 0 1 511.5 121 L 511.5 111  Z " fill-rule="nonzero" fill="#ffffff" stroke="none" />
  <path d="M 511.5 111  A 0.5 0.5 0 0 1 512 110.5 L 522 110.5  A 0.5 0.5 0 0 1 522.5 111 L 522.5 121  A 0.5 0.5 0 0 1 522 121.5 L 512 121.5  A 0.5 0.5 0 0 1 511.5 121 L 511.5 111  Z " stroke-width="1" stroke="#999999" fill="none" />
</svg>