<?xml version="1.0" encoding="utf-8"?>
<svg version="1.1" xmlns:xlink="http://www.w3.org/1999/xlink" width="12px" height="12px" viewBox="177 990  12 12" xmlns="http://www.w3.org/2000/svg">
  <path d="M 183 990  C 186.36 990  189 992.64  189 996  C 189 999.36  186.36 1002  183 1002  C 179.64 1002  177 999.36  177 996  C 177 992.64  179.64 990  183 990  Z " fill-rule="nonzero" fill="#ffffff" stroke="none" />
  <path d="M 183 990.5  C 186.08 990.5  188.5 992.92  188.5 996  C 188.5 999.08  186.08 1001.5  183 1001.5  C 179.92 1001.5  177.5 999.08  177.5 996  C 177.5 992.92  179.92 990.5  183 990.5  Z " stroke-width="1" stroke="#0070cc" fill="none" />
  <path d="M 183 999  C 181.32 999  180 997.68  180 996  C 180 994.32  181.32 993  183 993  C 184.68 993  186 994.32  186 996  C 186 997.68  184.68 999  183 999  " fill-rule="nonzero" fill="#0070cc" stroke="none" />
</svg>