<?xml version="1.0" encoding="utf-8"?>
<svg version="1.1" xmlns:xlink="http://www.w3.org/1999/xlink" width="12px" height="12px" viewBox="511 425  12 12" xmlns="http://www.w3.org/2000/svg">
  <path d="M 511.5 426  A 0.5 0.5 0 0 1 512 425.5 L 522 425.5  A 0.5 0.5 0 0 1 522.5 426 L 522.5 436  A 0.5 0.5 0 0 1 522 436.5 L 512 436.5  A 0.5 0.5 0 0 1 511.5 436 L 511.5 426  Z " fill-rule="nonzero" fill="#ffffff" stroke="none" />
  <path d="M 511.5 426  A 0.5 0.5 0 0 1 512 425.5 L 522 425.5  A 0.5 0.5 0 0 1 522.5 426 L 522.5 436  A 0.5 0.5 0 0 1 522 436.5 L 512 436.5  A 0.5 0.5 0 0 1 511.5 436 L 511.5 426  Z " stroke-width="1" stroke="#0070cc" fill="none" />
  <path d="M 513.571428571429 431  L 516.142857142857 433.571428571429  " stroke-width="2.57142857142857" stroke="#0070cc" fill="none" />
  <path d="M 516.142857142857 433.571428571429  L 520.428571428571 427.571428571429  " stroke-width="2.57142857142857" stroke="#0070cc" fill="none" />
</svg>