<?xml version="1.0" encoding="utf-8"?>
<svg version="1.1" xmlns:xlink="http://www.w3.org/1999/xlink" width="12px" height="12px" viewBox="280 15.5  12 12" xmlns="http://www.w3.org/2000/svg">
  <path d="M 286 15.5  C 289.36 15.5  292 18.14  292 21.5  C 292 24.86  289.36 27.5  286 27.5  C 282.64 27.5  280 24.86  280 21.5  C 280 18.14  282.64 15.5  286 15.5  Z " fill-rule="nonzero" fill="#ffffff" stroke="none" />
  <path d="M 286 16  C 289.08 16  291.5 18.42  291.5 21.5  C 291.5 24.58  289.08 27  286 27  C 282.92 27  280.5 24.58  280.5 21.5  C 280.5 18.42  282.92 16  286 16  Z " stroke-width="1" stroke="#0070cc" fill="none" />
  <path d="M 286 24.5  C 284.32 24.5  283 23.18  283 21.5  C 283 19.82  284.32 18.5  286 18.5  C 287.68 18.5  289 19.82  289 21.5  C 289 23.18  287.68 24.5  286 24.5  " fill-rule="nonzero" fill="#0070cc" stroke="none" />
</svg>