<?xml version="1.0" encoding="utf-8"?>
<svg version="1.1" xmlns:xlink="http://www.w3.org/1999/xlink" width="12px" height="12px" viewBox="177 1050  12 12" xmlns="http://www.w3.org/2000/svg">
  <path d="M 183 1050  C 186.36 1050  189 1052.64  189 1056  C 189 1059.36  186.36 1062  183 1062  C 179.64 1062  177 1059.36  177 1056  C 177 1052.64  179.64 1050  183 1050  Z " fill-rule="nonzero" fill="#ffffff" stroke="none" />
  <path d="M 183 1050.5  C 186.08 1050.5  188.5 1052.92  188.5 1056  C 188.5 1059.08  186.08 1061.5  183 1061.5  C 179.92 1061.5  177.5 1059.08  177.5 1056  C 177.5 1052.92  179.92 1050.5  183 1050.5  Z " stroke-width="1" stroke="#0070cc" fill="none" />
  <path d="M 183 1059  C 181.32 1059  180 1057.68  180 1056  C 180 1054.32  181.32 1053  183 1053  C 184.68 1053  186 1054.32  186 1056  C 186 1057.68  184.68 1059  183 1059  " fill-rule="nonzero" fill="#0070cc" stroke="none" />
</svg>