<?xml version="1.0" encoding="utf-8"?>
<svg version="1.1" xmlns:xlink="http://www.w3.org/1999/xlink" width="12px" height="12px" viewBox="198 15.5  12 12" xmlns="http://www.w3.org/2000/svg">
  <path d="M 204 15.5  C 207.36 15.5  210 18.14  210 21.5  C 210 24.86  207.36 27.5  204 27.5  C 200.64 27.5  198 24.86  198 21.5  C 198 18.14  200.64 15.5  204 15.5  Z " fill-rule="nonzero" fill="#ffffff" stroke="none" />
  <path d="M 204 16  C 207.08 16  209.5 18.42  209.5 21.5  C 209.5 24.58  207.08 27  204 27  C 200.92 27  198.5 24.58  198.5 21.5  C 198.5 18.42  200.92 16  204 16  Z " stroke-width="1" stroke="#0070cc" fill="none" />
  <path d="M 204 24.5  C 202.32 24.5  201 23.18  201 21.5  C 201 19.82  202.32 18.5  204 18.5  C 205.68 18.5  207 19.82  207 21.5  C 207 23.18  205.68 24.5  204 24.5  " fill-rule="nonzero" fill="#0070cc" stroke="none" />
</svg>