<?xml version="1.0" encoding="utf-8"?>
<svg version="1.1" xmlns:xlink="http://www.w3.org/1999/xlink" width="12px" height="12px" viewBox="198 38.5  12 12" xmlns="http://www.w3.org/2000/svg">
  <path d="M 204 38.5  C 207.36 38.5  210 41.14  210 44.5  C 210 47.86  207.36 50.5  204 50.5  C 200.64 50.5  198 47.86  198 44.5  C 198 41.14  200.64 38.5  204 38.5  Z " fill-rule="nonzero" fill="#ffffff" stroke="none" />
  <path d="M 204 39  C 207.08 39  209.5 41.42  209.5 44.5  C 209.5 47.58  207.08 50  204 50  C 200.92 50  198.5 47.58  198.5 44.5  C 198.5 41.42  200.92 39  204 39  Z " stroke-width="1" stroke="#0070cc" fill="none" />
  <path d="M 204 47.5  C 202.32 47.5  201 46.18  201 44.5  C 201 42.82  202.32 41.5  204 41.5  C 205.68 41.5  207 42.82  207 44.5  C 207 46.18  205.68 47.5  204 47.5  " fill-rule="nonzero" fill="#0070cc" stroke="none" />
</svg>