<?xml version="1.0" encoding="utf-8"?>
<svg version="1.1" xmlns:xlink="http://www.w3.org/1999/xlink" width="12px" height="12px" viewBox="169 68  12 12" xmlns="http://www.w3.org/2000/svg">
  <path d="M 169.5 69  A 0.5 0.5 0 0 1 170 68.5 L 180 68.5  A 0.5 0.5 0 0 1 180.5 69 L 180.5 79  A 0.5 0.5 0 0 1 180 79.5 L 170 79.5  A 0.5 0.5 0 0 1 169.5 79 L 169.5 69  Z " fill-rule="nonzero" fill="#ffffff" stroke="none" />
  <path d="M 169.5 69  A 0.5 0.5 0 0 1 170 68.5 L 180 68.5  A 0.5 0.5 0 0 1 180.5 69 L 180.5 79  A 0.5 0.5 0 0 1 180 79.5 L 170 79.5  A 0.5 0.5 0 0 1 169.5 79 L 169.5 69  Z " stroke-width="1" stroke="#999999" fill="none" />
</svg>