<?xml version="1.0" encoding="utf-8"?>
<svg version="1.1" xmlns:xlink="http://www.w3.org/1999/xlink" width="12px" height="12px" viewBox="159 114.5  12 12" xmlns="http://www.w3.org/2000/svg">
  <path d="M 165 114.5  C 168.36 114.5  171 117.14  171 120.5  C 171 123.86  168.36 126.5  165 126.5  C 161.64 126.5  159 123.86  159 120.5  C 159 117.14  161.64 114.5  165 114.5  Z " fill-rule="nonzero" fill="#ffffff" stroke="none" />
  <path d="M 165 115  C 168.08 115  170.5 117.42  170.5 120.5  C 170.5 123.58  168.08 126  165 126  C 161.92 126  159.5 123.58  159.5 120.5  C 159.5 117.42  161.92 115  165 115  Z " stroke-width="1" stroke="#e13438" fill="none" />
  <path d="M 165 123.5  C 163.32 123.5  162 122.18  162 120.5  C 162 118.82  163.32 117.5  165 117.5  C 166.68 117.5  168 118.82  168 120.5  C 168 122.18  166.68 123.5  165 123.5  " fill-rule="nonzero" fill="#e13438" stroke="none" />
</svg>