<?xml version="1.0" encoding="utf-8"?>
<svg version="1.1" xmlns:xlink="http://www.w3.org/1999/xlink" width="18px" height="14px" xmlns="http://www.w3.org/2000/svg">
  <g transform="matrix(1 0 0 1 1344 -2646 )">
    <path d="M 17.5037744335937 5.27229138671875  C 17.9825698046875 4.98622533203125  17.9960406835937 4.76719384765625  17.9960406835937 4.38601228515625  L 17.9960406835937 1.72757470703125  C 17.9960406835937 0.9933725  17.3347490429687 0.39835591796875  16.5189621484375 0.39835591796875  L 1.74939591796875 0.39835591796875  C 0.93386884765625 0.39835591796875  0.27257720703125 0.99339248046875  0.27257720703125 1.72757470703125  L 0.27257720703125 4.3859923046875  C 0.27257720703125 4.7831830078125  0.30325640625 5.04796349609375  0.764983359375 5.27227140625  C 1.4373874609375 5.5541203125  2.24166216796875 6.12365416015625  2.24166216796875 7.0447096875  C 2.24166216796875 8.23995931640625  1.40710798828125 8.62865578125  0.79392373046875 8.81500943359375  C 0.36211650390625 9.058124609375  0.27257720703125 9.45845318359375  0.27257720703125 9.70312728515625  L 0.27257720703125 12.36158484375  C 0.27257720703125 13.0960069140625  0.93386884765625 13.6910834375  1.74939591796875 13.6910834375  L 16.5191020507812 13.6910834375  C 17.3347690234375 13.6910834375  17.9960606640625 13.0959069726563  17.9960606640625 12.36158484375  L 17.9960606640625 9.703147265625  C 17.9960606640625 9.219195390625  17.8725444140625 9.06579939453125  17.5037944140625 8.81688814453125  C 16.4283635546875 8.318106328125  16.0268358007812 7.873987421875  16.0268358007812 7.04472966796875  C 16.0268158203125 6.215192109375  16.4028208789063 5.80251189453125  17.5037744335937 5.27229138671875  Z M 12.0882261914062 6.82319986328125  C 12.0882261914062 6.94539701171875  11.9780408984375 7.04472966796875  11.8419331835937 7.04472966796875  L 9.62659517578125 7.04472966796875  L 9.62659517578125 7.93088884765625  L 11.8419331835937 7.93088884765625  C 11.9780408984375 7.93088884765625  12.0882261914062 8.0300616015625  12.0882261914062 8.15241865234375  L 12.0882261914062 8.5954982421875  C 12.0882261914062 8.71783529296875  11.9780408984375 8.817028046875  11.8419331835937 8.817028046875  L 9.62659517578125 8.817028046875  L 9.62659517578125 10.3678965625  C 9.62659517578125 10.4901336914062  9.5164098828125 10.5894263671875  9.3804420703125 10.5894263671875  L 8.88803591796875 10.5894263671875  C 8.75218802734375 10.5894263671875  8.6419227734375 10.4901137109375  8.6419227734375 10.3678965625  L 8.6419227734375 8.817028046875  L 6.4265448046875 8.817028046875  C 6.29043708984375 8.817028046875  6.18039169921875 8.7178153125  6.18039169921875 8.5954982421875  L 6.18039169921875 8.15241865234375  C 6.18039169921875 8.0300616015625  6.29043708984375 7.93088884765625  6.4265448046875 7.93088884765625  L 8.6419227734375 7.93088884765625  L 8.6419227734375 7.04472966796875  L 6.4265448046875 7.04472966796875  C 6.29043708984375 7.04472966796875  6.18039169921875 6.94539701171875  6.18039169921875 6.82319986328125  L 6.18039169921875 6.37998037109375  C 6.18039169921875 6.2576433203125  6.29043708984375 6.1583106640625  6.4265448046875 6.1583106640625  L 8.2903611328125 6.1583106640625  L 6.266893046875 4.20191708984375  C 6.18039169921875 4.11673484375  6.18039169921875 3.97864845703125  6.266893046875 3.8934662109375  L 6.58022060546875 3.5850553125  C 6.666721953125 3.49987306640625  6.80704681640625 3.49987306640625  6.8935481640625 3.5850553125  L 9.131910546875 5.74936791015625  L 11.3693735546875 3.58573484375  C 11.456534453125 3.49987306640625  11.59791859375 3.49987306640625  11.6851994335938 3.58573484375  L 12.0009253710938 3.89652412109375  C 12.0882061914063 3.98248583984375  12.0882061914063 4.121651484375  12.0009253710938 4.20747330078125  L 9.9832933203125 6.15845056640625  L 11.8419331640625 6.15845056640625  C 11.9779009765625 6.15845056640625  12.088226171875 6.25766330078125  12.088226171875 6.37998037109375  L 12.0882261914062 6.82319986328125  Z " fill-rule="nonzero" fill="#666666" stroke="none" transform="matrix(1 0 0 1 -1344 2646 )" />
  </g>
</svg>