<?xml version="1.0" encoding="utf-8"?>
<svg version="1.1" xmlns:xlink="http://www.w3.org/1999/xlink" width="12px" height="12px" viewBox="169 98  12 12" xmlns="http://www.w3.org/2000/svg">
  <path d="M 169.5 99  A 0.5 0.5 0 0 1 170 98.5 L 180 98.5  A 0.5 0.5 0 0 1 180.5 99 L 180.5 109  A 0.5 0.5 0 0 1 180 109.5 L 170 109.5  A 0.5 0.5 0 0 1 169.5 109 L 169.5 99  Z " fill-rule="nonzero" fill="#ffffff" stroke="none" />
  <path d="M 169.5 99  A 0.5 0.5 0 0 1 170 98.5 L 180 98.5  A 0.5 0.5 0 0 1 180.5 99 L 180.5 109  A 0.5 0.5 0 0 1 180 109.5 L 170 109.5  A 0.5 0.5 0 0 1 169.5 109 L 169.5 99  Z " stroke-width="1" stroke="#0070cc" fill="none" />
  <path d="M 171.571428571429 104  L 174.142857142857 106.571428571429  " stroke-width="2.57142857142857" stroke="#0070cc" fill="none" />
  <path d="M 174.142857142857 106.571428571429  L 178.428571428571 100.571428571429  " stroke-width="2.57142857142857" stroke="#0070cc" fill="none" />
</svg>