<?xml version="1.0" encoding="utf-8"?>
<svg version="1.1" xmlns:xlink="http://www.w3.org/1999/xlink" width="12px" height="12px" viewBox="169 130  12 12" xmlns="http://www.w3.org/2000/svg">
  <path d="M 169.5 131  A 0.5 0.5 0 0 1 170 130.5 L 180 130.5  A 0.5 0.5 0 0 1 180.5 131 L 180.5 141  A 0.5 0.5 0 0 1 180 141.5 L 170 141.5  A 0.5 0.5 0 0 1 169.5 141 L 169.5 131  Z " fill-rule="nonzero" fill="#ffffff" stroke="none" />
  <path d="M 169.5 131  A 0.5 0.5 0 0 1 170 130.5 L 180 130.5  A 0.5 0.5 0 0 1 180.5 131 L 180.5 141  A 0.5 0.5 0 0 1 180 141.5 L 170 141.5  A 0.5 0.5 0 0 1 169.5 141 L 169.5 131  Z " stroke-width="1" stroke="#0070cc" fill="none" />
  <path d="M 171.571428571429 136  L 174.142857142857 138.571428571429  " stroke-width="2.57142857142857" stroke="#0070cc" fill="none" />
  <path d="M 174.142857142857 138.571428571429  L 178.428571428571 132.571428571429  " stroke-width="2.57142857142857" stroke="#0070cc" fill="none" />
</svg>