<?xml version="1.0" encoding="utf-8"?>
<svg version="1.1" xmlns:xlink="http://www.w3.org/1999/xlink" width="156px" height="42px" xmlns="http://www.w3.org/2000/svg">
  <defs>
    <mask fill="white" id="clip607">
      <path d="M 79 39  L 74.8332581495353 34  L 4 34  C 1.75999999999999 34  0 32.24  0 30  L 0 4  C 0 1.76  1.75999999999999 0  4 0  L 149 0  C 151.24 0  153 1.76  153 4  L 153 30  C 153 32.24  151.24 34  149 34  L 83.1667737308491 34  L 79 39  Z " fill-rule="evenodd" />
    </mask>
    <filter x="257px" y="-1px" width="156px" height="42px" filterUnits="userSpaceOnUse" id="filter608">
      <feOffset dx="2" dy="2" in="SourceAlpha" result="shadowOffsetInner" />
      <feGaussianBlur stdDeviation="0.5" in="shadowOffsetInner" result="shadowGaussian" />
      <feComposite in2="shadowGaussian" operator="atop" in="SourceAlpha" result="shadowComposite" />
      <feColorMatrix type="matrix" values="0 0 0 0 0.6  0 0 0 0 0.6  0 0 0 0 0.6  0 0 0 0.67843137254902 0  " in="shadowComposite" />
    </filter>
    <g id="widget609">
      <path d="M 79 39  L 74.8332581495353 34  L 4 34  C 1.75999999999999 34  0 32.24  0 30  L 0 4  C 0 1.76  1.75999999999999 0  4 0  L 149 0  C 151.24 0  153 1.76  153 4  L 153 30  C 153 32.24  151.24 34  149 34  L 83.1667737308491 34  L 79 39  Z " fill-rule="nonzero" fill="#ffffff" stroke="none" fill-opacity="0.996078431372549" transform="matrix(1 0 0 1 257 -1 )" />
      <path d="M 79 39  L 74.8332581495353 34  L 4 34  C 1.75999999999999 34  0 32.24  0 30  L 0 4  C 0 1.76  1.75999999999999 0  4 0  L 149 0  C 151.24 0  153 1.76  153 4  L 153 30  C 153 32.24  151.24 34  149 34  L 83.1667737308491 34  L 79 39  Z " stroke-width="2" stroke="#f2f2f2" fill="none" transform="matrix(1 0 0 1 257 -1 )" mask="url(#clip607)" />
    </g>
  </defs>
  <g transform="matrix(1 0 0 1 -257 1 )">
    <use xlink:href="#widget609" filter="url(#filter608)" />
    <use xlink:href="#widget609" />
  </g>
</svg>