<?xml version="1.0" encoding="utf-8"?>
<svg version="1.1" xmlns:xlink="http://www.w3.org/1999/xlink" width="117px" height="42px" xmlns="http://www.w3.org/2000/svg">
  <defs>
    <mask fill="white" id="clip610">
      <path d="M 57 39  L 52.8332884026769 34  L 4 34  C 1.75999999999999 34  0 32.24  0 30  L 0 4  C 0 1.76  1.75999999999999 0  4 0  L 110 0  C 112.24 0  114 1.76  114 4  L 114 30  C 114 32.24  112.24 34  110 34  L 61.1666850747083 34  L 57 39  Z " fill-rule="evenodd" />
    </mask>
    <filter x="201px" y="29px" width="117px" height="42px" filterUnits="userSpaceOnUse" id="filter611">
      <feOffset dx="2" dy="2" in="SourceAlpha" result="shadowOffsetInner" />
      <feGaussianBlur stdDeviation="0.5" in="shadowOffsetInner" result="shadowGaussian" />
      <feComposite in2="shadowGaussian" operator="atop" in="SourceAlpha" result="shadowComposite" />
      <feColorMatrix type="matrix" values="0 0 0 0 0.6  0 0 0 0 0.6  0 0 0 0 0.6  0 0 0 0.67843137254902 0  " in="shadowComposite" />
    </filter>
    <g id="widget612">
      <path d="M 57 39  L 52.8332884026769 34  L 4 34  C 1.75999999999999 34  0 32.24  0 30  L 0 4  C 0 1.76  1.75999999999999 0  4 0  L 110 0  C 112.24 0  114 1.76  114 4  L 114 30  C 114 32.24  112.24 34  110 34  L 61.1666850747083 34  L 57 39  Z " fill-rule="nonzero" fill="#ffffff" stroke="none" fill-opacity="0.996078431372549" transform="matrix(1 0 0 1 201 29 )" />
      <path d="M 57 39  L 52.8332884026769 34  L 4 34  C 1.75999999999999 34  0 32.24  0 30  L 0 4  C 0 1.76  1.75999999999999 0  4 0  L 110 0  C 112.24 0  114 1.76  114 4  L 114 30  C 114 32.24  112.24 34  110 34  L 61.1666850747083 34  L 57 39  Z " stroke-width="2" stroke="#f2f2f2" fill="none" transform="matrix(1 0 0 1 201 29 )" mask="url(#clip610)" />
    </g>
  </defs>
  <g transform="matrix(1 0 0 1 -201 -29 )">
    <use xlink:href="#widget612" filter="url(#filter611)" />
    <use xlink:href="#widget612" />
  </g>
</svg>