<?xml version="1.0" encoding="utf-8"?>
<svg version="1.1" xmlns:xlink="http://www.w3.org/1999/xlink" width="16px" height="16px" xmlns="http://www.w3.org/2000/svg">
  <g transform="matrix(1 0 0 1 -31 -20 )">
    <path d="M 16 8  C 16 3.58172200135365  12.4182779986463 0  8 0  C 3.58172200135365 0  0 3.58172200135365  0 8  C 0 12.4182779986463  3.58172200135365 16  8 16  C 12.4182779986463 16  16 12.4182779986463  16 8  Z M 8.8 5.6  L 8.8 12.8  L 7.2 12.8  L 7.2 5.6  L 8.8 5.6  Z M 8.8 4  C 8.8 4.44182779986463  8.44182779986463 4.8  8 4.8  C 7.55817220013537 4.8  7.2 4.44182779986463  7.2 4  C 7.2 3.55817220013537  7.55817220013537 3.2  8 3.2  C 8.44182779986463 3.2  8.8 3.55817220013537  8.8 4  Z " fill-rule="nonzero" fill="#e13438" stroke="none" transform="matrix(1 0 0 1 31 20 )" />
  </g>
</svg>