<?xml version="1.0" encoding="utf-8"?>
<svg version="1.1" xmlns:xlink="http://www.w3.org/1999/xlink" width="12px" height="12px" viewBox="100 75.5  12 12" xmlns="http://www.w3.org/2000/svg">
  <path d="M 106 75.5  C 109.36 75.5  112 78.14  112 81.5  C 112 84.86  109.36 87.5  106 87.5  C 102.64 87.5  100 84.86  100 81.5  C 100 78.14  102.64 75.5  106 75.5  Z " fill-rule="nonzero" fill="#ffffff" stroke="none" />
  <path d="M 106 76  C 109.08 76  111.5 78.42  111.5 81.5  C 111.5 84.58  109.08 87  106 87  C 102.92 87  100.5 84.58  100.5 81.5  C 100.5 78.42  102.92 76  106 76  Z " stroke-width="1" stroke="#797979" fill="none" />
  <path d="M 106 84.5  C 104.32 84.5  103 83.18  103 81.5  C 103 79.82  104.32 78.5  106 78.5  C 107.68 78.5  109 79.82  109 81.5  C 109 83.18  107.68 84.5  106 84.5  " fill-rule="nonzero" fill="#797979" stroke="none" />
</svg>