<?xml version="1.0" encoding="utf-8"?>
<svg version="1.1" xmlns:xlink="http://www.w3.org/1999/xlink" width="12px" height="12px" viewBox="201 82.5  12 12" xmlns="http://www.w3.org/2000/svg">
  <path d="M 207 82.5  C 210.36 82.5  213 85.14  213 88.5  C 213 91.86  210.36 94.5  207 94.5  C 203.64 94.5  201 91.86  201 88.5  C 201 85.14  203.64 82.5  207 82.5  Z " fill-rule="nonzero" fill="#ffffff" stroke="none" />
  <path d="M 207 83  C 210.08 83  212.5 85.42  212.5 88.5  C 212.5 91.58  210.08 94  207 94  C 203.92 94  201.5 91.58  201.5 88.5  C 201.5 85.42  203.92 83  207 83  Z " stroke-width="1" stroke="#797979" fill="none" />
  <path d="M 207 91.5  C 205.32 91.5  204 90.18  204 88.5  C 204 86.82  205.32 85.5  207 85.5  C 208.68 85.5  210 86.82  210 88.5  C 210 90.18  208.68 91.5  207 91.5  " fill-rule="nonzero" fill="#797979" stroke="none" />
</svg>