<?xml version="1.0" encoding="utf-8"?>
<svg version="1.1" xmlns:xlink="http://www.w3.org/1999/xlink" width="12px" height="12px" viewBox="62 132.5  12 12" xmlns="http://www.w3.org/2000/svg">
  <path d="M 62.5 133.5  A 0.5 0.5 0 0 1 63 133 L 73 133  A 0.5 0.5 0 0 1 73.5 133.5 L 73.5 143.5  A 0.5 0.5 0 0 1 73 144 L 63 144  A 0.5 0.5 0 0 1 62.5 143.5 L 62.5 133.5  Z " fill-rule="nonzero" fill="#ffffff" stroke="none" />
  <path d="M 62.5 133.5  A 0.5 0.5 0 0 1 63 133 L 73 133  A 0.5 0.5 0 0 1 73.5 133.5 L 73.5 143.5  A 0.5 0.5 0 0 1 73 144 L 63 144  A 0.5 0.5 0 0 1 62.5 143.5 L 62.5 133.5  Z " stroke-width="1" stroke="#999999" fill="none" />
</svg>