<?xml version="1.0" encoding="utf-8"?>
<svg version="1.1" xmlns:xlink="http://www.w3.org/1999/xlink" width="18px" height="20px" xmlns="http://www.w3.org/2000/svg">
  <g transform="matrix(1 0 0 1 -28 -1939 )">
    <path d="M 15.9468138667383 13.9254570667383  L 11.2013141332617 18.5646293332617  C 11.1663488 18.638432  11.0912554665234 18.7001493332617  10.9781461332617 18.7372266667383  L 9.4736512 19.2280554667383  C 9.20354986673828 19.3159381334766  9.05803306673828 19.1737301334766  9.1473472 18.9090026667383  L 9.64920533326172 17.4380650667383  C 9.68686933326172 17.3267157334766  9.75105066652344 17.2536170667383  9.82673066673828 17.2190037332617  L 14.5712682667383 12.5806528  L 15.9468138667383 13.9254570667383  Z M 7.68319146673828 17.9583445332617  L 14.5711274667383 11.2242325332617  L 14.5711274667383 5.270528  L 11.1336128 5.270528  C 10.374208 5.27029333326172  9.75853653326172 4.6684672  9.7584192 3.92607573326172  L 9.7584192 0.480699733261719  L 2.79736106673828 0.480699733261719  C 1.70482346673828 0.480699733261719  0.81952 1.34617386652344  1 2.41371946673828  L 1 16.4455189332617  C 0.81952 16.8468224  0.982848 17.2316757332617  1.27291946673828 17.5152938667383  C 1.56320213347656 17.7991232  1.9567616 17.9584853334766  2.36709973326172 17.958368  L 7.68319146673828 17.958368  Z M 11.2353173332617 0.734632533261719  L 11.2361621332617 0.733811200000001  L 14.3127594667383 3.74162773326172  C 14.7493802667383 4.1682752  14.6019861334766 4.51417386652344  13.9857514667383 4.51417386673828  L 11.5625834667383 4.51417386673828  C 10.945856 4.5139392  10.4456405334766 4.02545706673828  10.4451712 3.42269226673828  L 10.4451712 1.0541312  C 10.4451712 0.450779733261718  10.7993066667383 0.308219733261719  11.2353173332617 0.734632533261719  Z M 4.25776213326172 8.54741333326172  C 3.87816533326172 8.54717866652344  3.57051733326172 8.24645333326172  3.5699072 7.87542186673828  C 3.57014186673828 7.50415573347656  3.8779072 7.20331306673828  4.25762133326172 7.20296106673828  L 11.1335893332617 7.20296106673828  C 11.5133034665234 7.2034304  11.8207168 7.50415573347656  11.8208341332617 7.87542186673828  C 11.8204821332617 8.246336  11.5130688 8.54706133347656  11.1335893332617 8.54741333326172  L 4.25776213326172 8.54741333326172  Z M 4.25776213326172 11.2363178667383  C 3.87816533326172 11.2360832  3.57016533326172 10.9354752  3.5699072 10.5639744  C 3.57049386673828 10.1929429332617  3.87814186673828 9.89245226673828  4.25762133326172 9.89210026673828  L 11.1335893332617 9.89210026673828  C 11.5130688 9.89245226673828  11.8204821332617 10.1931776  11.8208341332617 10.5639744  C 11.8207168 10.9352405332617  11.5130688 11.2359658667383  11.1335893332617 11.2363178667383  L 4.25776213326172 11.2363178667383  Z M 14.8861674667383 12.3001088  L 15.6814762667383 11.5229866667383  C 15.8824682667383 11.3262186667383  16.2084437334766 11.3258666667383  16.4100224 11.5219306667383  L 17.0964458667383 12.1926314667383  C 17.2970858667383 12.3897514667383  17.2967338667383 12.7085696  17.0953898667383 12.9053376  L 16.3000810667383 13.6832810667383  L 14.8865194667383 12.3003434667383  Z " fill-rule="nonzero" fill="#666666" stroke="none" transform="matrix(1 0 0 1 28 1939 )" />
  </g>
</svg>