<?xml version="1.0" encoding="utf-8"?>
<svg version="1.1" xmlns:xlink="http://www.w3.org/1999/xlink" width="15px" height="19px" xmlns="http://www.w3.org/2000/svg">
  <g transform="matrix(1 0 0 1 -27 -1872 )">
    <path d="M 4.9330078125 16.4001953125  L 3.469921875 16.4001953125  C 2.9392578125 16.4001953125  2.507421875 15.968359375  2.507421875 15.4376953125  L 2.507421875 3.2603515625  C 2.507421875 2.7296875  2.9392578125 2.2978515625  3.469921875 2.2978515625  L 11.8037109375 2.2978515625  C 12.334375 2.2978515625  12.7662109375 2.7296875  12.7662109375 3.2603515625  L 12.7662109375 8.569140625  L 14.6890625 6.6462890625  L 14.6890625 3.2603515625  C 14.6890625 1.6705078125  13.395703125 0.375  11.8037109375 0.375  L 3.469921875 0.375  C 1.880078125 0.375  0.584570312499999 1.668359375  0.584570312499999 3.2603515625  L 0.584570312499999 15.43984375  C 0.584570312499999 16.8900390625  1.6609375 18.0888671875  3.0552734375 18.2908203125  C 3.091796875 18.25  3.126171875 18.20703125  3.16484375 18.168359375  L 4.9330078125 16.4001953125  Z M 12.7662109375 14.915625  L 12.7662109375 15.43984375  C 12.7662109375 15.9705078125  12.334375 16.40234375  11.8037109375 16.40234375  L 11.2794921875 16.40234375  L 9.356640625 18.3251953125  L 11.8037109375 18.3251953125  C 13.3935546875 18.3251953125  14.6890625 17.0318359375  14.6890625 15.43984375  L 14.6890625 12.9927734375  L 12.7662109375 14.915625  Z " fill-rule="nonzero" fill="#666666" stroke="none" transform="matrix(1 0 0 1 27 1872 )" />
  </g>
</svg>