<?xml version="1.0" encoding="utf-8"?>
<svg version="1.1" xmlns:xlink="http://www.w3.org/1999/xlink" width="8px" height="10px" xmlns="http://www.w3.org/2000/svg">
  <g transform="matrix(1 0 0 1 -823 -1093 )">
    <path d="M 0.7837890625 0.05859375  C 1.1619140625 0.05859375  1.4712890625 0.367968749999999  1.4712890625 0.74609375  L 1.4712890625 9.25390625  C 1.4712890625 9.63203125  1.1619140625 9.94140625  0.7837890625 9.94140625  C 0.4056640625 9.94140625  0.0962890625000004 9.63203125  0.0962890625000004 9.25390625  L 0.0962890625000004 0.74609375  C 0.0962890625000004 0.367968749999999  0.4056640625 0.05859375  0.7837890625 0.05859375  Z M 2.268359375 4.9978515625  C 2.2662109375 5.1783203125  2.3349609375 5.34375  2.448828125 5.4662109375  L 2.4875 5.5048828125  L 2.955859375 5.9732421875  L 6.7306640625 9.748046875  C 6.9970703125 10.0166015625  7.4353515625 10.0166015625  7.7017578125 9.7501953125  C 7.9681640625 9.481640625  7.9681640625 9.043359375  7.7017578125 8.776953125  L 3.926953125 5  L 7.70390625 1.2251953125  C 7.9703125 0.956640625  7.9703125 0.518359375000001  7.70390625 0.251953125  C 7.4353515625 -0.0144531249999993  6.9970703125 -0.0144531249999993  6.7306640625 0.251953125  L 2.955859375 4.0267578125  L 2.4939453125 4.488671875  L 2.4466796875 4.5359375  C 2.3349609375 4.6583984375  2.268359375 4.81953125  2.268359375 4.9978515625  Z " fill-rule="nonzero" fill="#666666" stroke="none" transform="matrix(1 0 0 1 823 1093 )" />
  </g>
</svg>