<?xml version="1.0" encoding="utf-8"?>
<svg version="1.1" xmlns:xlink="http://www.w3.org/1999/xlink" width="11px" height="12px" xmlns="http://www.w3.org/2000/svg">
  <g transform="matrix(1 0 0 1 -1156 -1093 )">
    <path d="M 10.5265625 2.128125  C 10.5265625 1.5046875  10.01875 0.996875  9.3953125 0.996875  L 6.5046875 0.996875  C 6.228125 0.996875  6.0046875 1.2203125  6.0046875 1.496875  C 6.0046875 1.7734375  6.228125 1.996875  6.5046875 1.996875  L 9.39375 1.996875  C 9.465625 1.996875  9.525 2.05625  9.525 2.128125  L 9.525 6.8640625  C 9.525 6.9359375  9.465625 6.9953125  9.39375 6.9953125  L 1.471875 6.9953125  L 4.15625 4.3109375  C 4.3515625 4.115625  4.3515625 3.7984375  4.15625 3.603125  C 3.9609375 3.4078125  3.64375 3.4078125  3.4484375 3.603125  L 0.33125 6.7234375  C 0.1265625 6.928125  0.0140624999999996 7.2  0.0140624999999996 7.4890625  C 0.0140624999999996 7.778125  0.126562499999999 8.05  0.33125 8.2546875  L 3.478125 11.4015625  C 3.575 11.4984375  3.703125 11.5484375  3.83125 11.5484375  C 3.959375 11.5484375  4.0875 11.5  4.184375 11.4015625  C 4.3796875 11.20625  4.3796875 10.8890625  4.184375 10.69375  L 1.4875 7.9953125  L 9.3953125 7.9953125  C 10.01875 7.9953125  10.5265625 7.4875  10.5265625 6.8640625  L 10.5265625 2.128125  Z " fill-rule="nonzero" fill="#333333" stroke="none" transform="matrix(1 0 0 1 1156 1093 )" />
  </g>
</svg>