<?xml version="1.0" encoding="utf-8"?>
<svg version="1.1" xmlns:xlink="http://www.w3.org/1999/xlink" width="12px" height="12px" viewBox="9 68  12 12" xmlns="http://www.w3.org/2000/svg">
  <path d="M 9.5 69  A 0.5 0.5 0 0 1 10 68.5 L 20 68.5  A 0.5 0.5 0 0 1 20.5 69 L 20.5 79  A 0.5 0.5 0 0 1 20 79.5 L 10 79.5  A 0.5 0.5 0 0 1 9.5 79 L 9.5 69  Z " fill-rule="nonzero" fill="#ffffff" stroke="none" />
  <path d="M 9.5 69  A 0.5 0.5 0 0 1 10 68.5 L 20 68.5  A 0.5 0.5 0 0 1 20.5 69 L 20.5 79  A 0.5 0.5 0 0 1 20 79.5 L 10 79.5  A 0.5 0.5 0 0 1 9.5 79 L 9.5 69  Z " stroke-width="1" stroke="#0070cc" fill="none" />
  <path d="M 11.5714285714286 74  L 14.1428571428571 76.5714285714286  " stroke-width="2.57142857142857" stroke="#0070cc" fill="none" />
  <path d="M 14.1428571428571 76.5714285714286  L 18.4285714285714 70.5714285714286  " stroke-width="2.57142857142857" stroke="#0070cc" fill="none" />
</svg>