<?xml version="1.0" encoding="utf-8"?>
<svg version="1.1" xmlns:xlink="http://www.w3.org/1999/xlink" width="12px" height="12px" viewBox="160 104.5  12 12" xmlns="http://www.w3.org/2000/svg">
  <path d="M 160.5 105.5  A 0.5 0.5 0 0 1 161 105 L 171 105  A 0.5 0.5 0 0 1 171.5 105.5 L 171.5 115.5  A 0.5 0.5 0 0 1 171 116 L 161 116  A 0.5 0.5 0 0 1 160.5 115.5 L 160.5 105.5  Z " fill-rule="nonzero" fill="#ffffff" stroke="none" />
  <path d="M 160.5 105.5  A 0.5 0.5 0 0 1 161 105 L 171 105  A 0.5 0.5 0 0 1 171.5 105.5 L 171.5 115.5  A 0.5 0.5 0 0 1 171 116 L 161 116  A 0.5 0.5 0 0 1 160.5 115.5 L 160.5 105.5  Z " stroke-width="1" stroke="#0070cc" fill="none" />
  <path d="M 162.571428571429 110.5  L 165.142857142857 113.071428571429  " stroke-width="2.57142857142857" stroke="#0070cc" fill="none" />
  <path d="M 165.142857142857 113.071428571429  L 169.428571428571 107.071428571429  " stroke-width="2.57142857142857" stroke="#0070cc" fill="none" />
</svg>