<?xml version="1.0" encoding="utf-8"?>
<svg version="1.1" xmlns:xlink="http://www.w3.org/1999/xlink" width="12px" height="12px" viewBox="180 45  12 12" xmlns="http://www.w3.org/2000/svg">
  <path d="M 186 45  C 189.36 45  192 47.64  192 51  C 192 54.36  189.36 57  186 57  C 182.64 57  180 54.36  180 51  C 180 47.64  182.64 45  186 45  Z " fill-rule="nonzero" fill="#ffffff" stroke="none" />
  <path d="M 186 45.5  C 189.08 45.5  191.5 47.92  191.5 51  C 191.5 54.08  189.08 56.5  186 56.5  C 182.92 56.5  180.5 54.08  180.5 51  C 180.5 47.92  182.92 45.5  186 45.5  Z " stroke-width="1" stroke="#0070cc" fill="none" />
  <path d="M 186 54  C 184.32 54  183 52.68  183 51  C 183 49.32  184.32 48  186 48  C 187.68 48  189 49.32  189 51  C 189 52.68  187.68 54  186 54  " fill-rule="nonzero" fill="#0070cc" stroke="none" />
</svg>