<?xml version="1.0" encoding="utf-8"?>
<svg version="1.1" xmlns:xlink="http://www.w3.org/1999/xlink" width="12px" height="12px" viewBox="32 132  12 12" xmlns="http://www.w3.org/2000/svg">
  <path d="M 32.5 133  A 0.5 0.5 0 0 1 33 132.5 L 43 132.5  A 0.5 0.5 0 0 1 43.5 133 L 43.5 143  A 0.5 0.5 0 0 1 43 143.5 L 33 143.5  A 0.5 0.5 0 0 1 32.5 143 L 32.5 133  Z " fill-rule="nonzero" fill="#ffffff" stroke="none" />
  <path d="M 32.5 133  A 0.5 0.5 0 0 1 33 132.5 L 43 132.5  A 0.5 0.5 0 0 1 43.5 133 L 43.5 143  A 0.5 0.5 0 0 1 43 143.5 L 33 143.5  A 0.5 0.5 0 0 1 32.5 143 L 32.5 133  Z " stroke-width="1" stroke="#0070cc" fill="none" />
  <path d="M 34.5714285714286 138  L 37.1428571428571 140.571428571429  " stroke-width="2.57142857142857" stroke="#0070cc" fill="none" />
  <path d="M 37.1428571428571 140.571428571429  L 41.4285714285714 134.571428571429  " stroke-width="2.57142857142857" stroke="#0070cc" fill="none" />
</svg>