<?xml version="1.0" encoding="utf-8"?>
<svg version="1.1" xmlns:xlink="http://www.w3.org/1999/xlink" width="12px" height="12px" viewBox="9 219  12 12" xmlns="http://www.w3.org/2000/svg">
  <path d="M 9.5 220  A 0.5 0.5 0 0 1 10 219.5 L 20 219.5  A 0.5 0.5 0 0 1 20.5 220 L 20.5 230  A 0.5 0.5 0 0 1 20 230.5 L 10 230.5  A 0.5 0.5 0 0 1 9.5 230 L 9.5 220  Z " fill-rule="nonzero" fill="#ffffff" stroke="none" />
  <path d="M 9.5 220  A 0.5 0.5 0 0 1 10 219.5 L 20 219.5  A 0.5 0.5 0 0 1 20.5 220 L 20.5 230  A 0.5 0.5 0 0 1 20 230.5 L 10 230.5  A 0.5 0.5 0 0 1 9.5 230 L 9.5 220  Z " stroke-width="1" stroke="#999999" fill="none" />
</svg>