<?xml version="1.0" encoding="utf-8"?>
<svg version="1.1" xmlns:xlink="http://www.w3.org/1999/xlink" width="22px" height="20px" xmlns="http://www.w3.org/2000/svg">
  <g transform="matrix(1 0 0 1 -28 -1661 )">
    <path d="M 4.64444444726563 4.51111110546875  C 4.16488889453125 4.51111110546875  3.7777777890625 4.124  3.7777777890625 3.64444444726563  L 3.7777777890625 1.62222223632813  C 3.7777777890625 1.14266668359375  4.16488889453125 0.755555578125001  4.64444444726563 0.755555578125001  C 5.124 0.755555578125001  5.51111110546875 1.14266668359375  5.51111110546875 1.62222223632813  L 5.51111110546875 3.64444444726563  C 5.51111110546875 4.124  5.124 4.51111110546875  4.64444444726563 4.51111110546875  Z M 12.1555555527344 3.64444444726563  C 12.1555555527344 4.124  12.5426666582031 4.51111110546875  13.0222222109375 4.51111110546875  C 13.5017777636719 4.51111110546875  13.8888888691406 4.124  13.8888888691406 3.64444444726563  L 13.8888888691406 1.62222223632813  C 13.8888888691406 1.14266668359375  13.5017777636719 0.755555578125001  13.0222222109375 0.755555578125001  C 12.5426666582031 0.755555578125001  12.1555555527344 1.14266668359375  12.1555555527344 1.62222223632813  L 12.1555555527344 3.64444444726563  Z M 18.8 14.6222222363281  C 18.8 14.3032888945312  18.5411555527344 14.0444444472656  18.2222222109375 14.0444444472656  L 17.3555555527344 14.0444444472656  L 17.3555555527344 12.0222222363281  C 17.3555555527344 11.7032888945313  17.0967111054687 11.4444444472656  16.7777777636719 11.4444444472656  C 16.458844421875 11.4444444472656  16.1999999746094 11.7032888945313  16.1999999746094 12.0222222363281  L 16.1999999746094 14.6222222363281  C 16.1999999746094 14.941155578125  16.458844421875 15.2000000253906  16.7777777636719 15.2000000253906  L 18.2222222109375 15.2000000253906  C 18.5411555527344 15.2000000253906  18.8 14.941155578125  18.8 14.6222222363281  Z M 17.0666666835937 9.58111110546875  C 19.6435555527344 9.73133334179688  21.6888888945312 11.8633333417969  21.6888888945312 14.4777777890625  C 21.6888888945312 17.1904444472656  19.4904444472656 19.3888888945312  16.7777777890625 19.3888888945312  C 14.8451111308594 19.3888888945312  13.1753333417969 18.268  12.3751111308594 16.6444444472656  L 2.04444444726562 16.6444444472656  C 1.24711110546875 16.6444444472656  0.6 15.9973333417969  1 15.2  L 1 4.51111110546875  C 0.6 3.71377776367188  1.24711110546875 3.06666665820313  2.04444444726562 3.06666665820313  L 3.2 3.06666665820313  L 3.2 3.64444444726563  C 3.2 4.4417777890625  3.84711110546875 5.08888889453125  4.64444444726563 5.08888889453125  C 5.4417777890625 5.08888889453125  6.08888889453125 4.4417777890625  6.08888889453125 3.64444444726563  L 6.08888889453125 3.06666665820313  L 11.5777777890625 3.06666665820313  L 11.5777777890625 3.64444444726563  C 11.5777777890625 4.4417777890625  12.2248888945313 5.08888889453125  13.0222222363281 5.08888889453125  C 13.819555578125 5.08888889453125  14.4666666835938 4.4417777890625  14.4666666835938 3.64444444726563  L 14.4666666835938 3.06666665820313  L 15.6222222363281 3.06666665820313  C 16.419555578125 3.06666665820313  17.0666666835937 3.71377776367188  17.0666666835937 4.51111110546875  L 17.0666666835937 9.58111110546875  Z M 11.312 8.3677777890625  L 11.312 7.16888889453125  L 6.61755555273438 7.16888889453125  L 6.61755555273438 8.466  L 9.8762222109375 8.466  C 9.22333331640625 9.25755555273438  8.69466665820313 10.13  8.2902222109375 11.0775555527344  C 7.88866665820313 12.028  7.64888886914063 13.016  7.568 14.0444444472656  L 9.06155555273438 14.0444444472656  C 9.06733334179687 13.5851111054687  9.1222222109375 13.0911111054688  9.22333334179688 12.5624444472656  C 9.32444444726563 12.0308888945313  9.46888889453125 11.508  9.65666668359375 10.9908888945312  C 9.84444447265625 10.4737777890625  10.075555578125 9.98555555273437  10.3528888945313 9.52622223632812  C 10.6331111054687 9.06688889453125  10.9508888945312 8.68266668359375  11.312 8.3677777890625  Z M 16.7777777890625 18.2333333417969  C 18.8491111308594 18.2333333417969  20.5333333417969 16.5491111054688  20.5333333417969 14.4777777890625  C 20.5333333417969 12.4064444472656  18.8491111308594 10.7222222363281  16.7777777890625 10.7222222363281  C 14.7064444472656 10.7222222363281  13.0222222363281 12.4064444472656  13.0222222363281 14.4777777890625  C 13.0222222363281 16.5491111308594  14.7064444472656 18.2333333417969  16.7777777890625 18.2333333417969  Z " fill-rule="nonzero" fill="#666666" stroke="none" transform="matrix(1 0 0 1 28 1661 )" />
  </g>
</svg>