<?xml version="1.0" encoding="utf-8"?>
<svg version="1.1" xmlns:xlink="http://www.w3.org/1999/xlink" width="18px" height="18px" xmlns="http://www.w3.org/2000/svg">
  <g transform="matrix(1 0 0 1 -29 -1595 )">
    <path d="M 15.4086914025391 17.23974609375  C 15.4086914025391 17.23974609375  15.4086914025391 17.23974609375  15.4086914025391 17  L 2.59130859746094 17  C 1.580045015399 17.23974609375  0.76025390625 16.419954984601  1 15.4086914025391  L 1 2.59130859746094  C 0.76025390625 1.580045015399  1.580045015399 0.76025390625  2.59130859746094 1  L 15.4086914025391 1  C 15.4086914025391 0.76025390625  15.4086914025391 0.76025390625  15.4086914025391 0.76025390625  C 16.419954984601 0.76025390625  17.23974609375 1.580045015399  17.23974609375 2.59130859746094  L 17 2.59130859746094  L 17 15.4086914025391  C 17.23974609375 15.4086914025391  17.23974609375 15.4086914025391  17.23974609375 15.4086914025391  C 17.23974609375 16.419954984601  16.419954984601 17.23974609375  15.4086914025391 17.23974609375  Z M 14.4556274431641 7  L 3.50683594277344 7  L 3.50683594277344 13.5465087855469  L 10.9509887658203 13.5465087855469  C 10.3940454308906 13.027623373359  10.0774188179863 12.3008741254565  10.0766601509766 11.5396728552734  C 10.0781741332347 10.0284613574141  11.3028754144455 8.80376007611592  12.8140869123047 8.80224609375  C 13.4064750213367 8.80177640282653  13.9828332013072 8.9946458417121  14.4556274431641 9.35156249472656  L 14.4556274431641 7  Z M 12.3059692417969 11.7740478462891  L 11.5515747017578 11.7740478462891  C 11.4108611004183 11.7745522002122  11.2970571978933 11.8887654699941  11.2970581017578 12.0294799751953  C 11.2970571978933 12.1701944803965  11.4108611004183 12.2844077501785  11.5515747017578 12.2849121041016  L 12.3187866173828 12.2849121041016  L 12.3187866173828 13.0512084908203  C 12.3187866173828 13.1932910257537  12.4339672695588 13.3084716779297  12.5760498044922 13.3084716779297  C 12.7172688956435 13.307463856071  12.8310743683535 13.1924302643825  12.8305664044922 13.0512084908203  L 12.8305664044922 12.2849121041016  L 13.5977783203125 12.2849121041016  C 13.7389984554461 12.2849130047465  13.8536216197328 12.1706992096868  13.8541259783203 12.0294799751953  C 13.8536216197328 11.8882607407038  13.7389984554461 11.7740469456441  13.5977783203125 11.7740478462891  L 12.8305664044922 11.7740478462891  L 12.8305664044922 11.2622680591797  L 13.5977783203125 11.2622680591797  C 13.7389984554461 11.2622689598246  13.8536216197328 11.148055164765  13.8541259783203 11.0068359302734  C 13.8541259693673 10.8652590344317  13.7393552161543 10.7504882884766  13.5977783203125 10.7504882884766  L 12.9569091832031 10.7504882884766  L 12.9486694371094 10.7422485423828  L 13.7671508716797 9.9228515625  C 13.8625344402101 9.81812812191339  13.8589083373337 9.65696799089054  13.7589111255859 9.55664061777344  C 13.7091176789244 9.50554376374987  13.6407428991436 9.47680653943827  13.5693969654297 9.47698974433594  C 13.5017730816789 9.47627278971085  13.436373738797 9.50112454421386  13.3862915091797 9.54656982949219  L 12.5687255876953 10.3659667931641  L 11.7493286080078 9.54656982949219  C 11.6991984360606 9.50120279490689  11.6338309125787 9.47636313177794  11.5662231517578 9.47698974433594  C 11.4946634801008 9.47707719623445  11.4261050253493 9.50575308610312  11.3757934623047 9.55664061777344  C 11.2763222662214 9.65746207165492  11.2735021473486 9.81861141039308  11.3693847583984 9.9228515625  L 12.1878662091797 10.7422485423828  L 12.1796264630859 10.7504882884766  L 11.5387573259766 10.7504882884766  C 11.3980437191971 10.7509917354542  11.2842390796236 10.8652042751414  11.2842390796236 11.0059187825376  C 11.284239822307 11.1475504353987  11.3980437247133 11.2617637051493  11.5387573259766 11.2622680591797  L 12.3059692417969 11.2622680591797  L 12.3059692417969 11.7740478462891  Z M 12.0212402291016 4.42236328847656  L 9.59051513144531 4.42327880136719  L 9.59051513144531 6.24700927558594  L 14.4547119140625 6.24700927558594  L 12.0212402291016 4.42236328847656  Z M 8.37194823847656 4.42236328847656  L 5.93847656972656 4.42327880136719  L 3.50683594277344 6.24700927558594  L 8.37194823847656 6.24700927558594  L 8.37194823847656 4.42236328847656  Z " fill-rule="nonzero" fill="#666666" stroke="none" transform="matrix(1 0 0 1 29 1595 )" />
  </g>
</svg>