<?xml version="1.0" encoding="utf-8"?>
<svg version="1.1" xmlns:xlink="http://www.w3.org/1999/xlink" width="12px" height="12px" viewBox="197 113.5  12 12" xmlns="http://www.w3.org/2000/svg">
  <path d="M 203 113.5  C 206.36 113.5  209 116.14  209 119.5  C 209 122.86  206.36 125.5  203 125.5  C 199.64 125.5  197 122.86  197 119.5  C 197 116.14  199.64 113.5  203 113.5  Z " fill-rule="nonzero" fill="#ffffff" stroke="none" />
  <path d="M 203 114  C 206.08 114  208.5 116.42  208.5 119.5  C 208.5 122.58  206.08 125  203 125  C 199.92 125  197.5 122.58  197.5 119.5  C 197.5 116.42  199.92 114  203 114  Z " stroke-width="1" stroke="#e13438" fill="none" />
  <path d="M 203 122.5  C 201.32 122.5  200 121.18  200 119.5  C 200 117.82  201.32 116.5  203 116.5  C 204.68 116.5  206 117.82  206 119.5  C 206 121.18  204.68 122.5  203 122.5  " fill-rule="nonzero" fill="#e13438" stroke="none" />
</svg>