<?xml version="1.0" encoding="utf-8"?>
<svg version="1.1" xmlns:xlink="http://www.w3.org/1999/xlink" width="12px" height="12px" viewBox="86 113.5  12 12" xmlns="http://www.w3.org/2000/svg">
  <path d="M 92 113.5  C 95.36 113.5  98 116.14  98 119.5  C 98 122.86  95.36 125.5  92 125.5  C 88.64 125.5  86 122.86  86 119.5  C 86 116.14  88.64 113.5  92 113.5  Z " fill-rule="nonzero" fill="#ffffff" stroke="none" />
  <path d="M 92 114  C 95.08 114  97.5 116.42  97.5 119.5  C 97.5 122.58  95.08 125  92 125  C 88.92 125  86.5 122.58  86.5 119.5  C 86.5 116.42  88.92 114  92 114  Z " stroke-width="1" stroke="#0070cc" fill="none" />
  <path d="M 92 122.5  C 90.32 122.5  89 121.18  89 119.5  C 89 117.82  90.32 116.5  92 116.5  C 93.68 116.5  95 117.82  95 119.5  C 95 121.18  93.68 122.5  92 122.5  " fill-rule="nonzero" fill="#0070cc" stroke="none" />
</svg>