<?xml version="1.0" encoding="utf-8"?>
<svg version="1.1" xmlns:xlink="http://www.w3.org/1999/xlink" width="14px" height="16px" xmlns="http://www.w3.org/2000/svg">
  <g transform="matrix(1 0 0 1 -1404 -228 )">
    <path d="M 13.75 2.9375  C 13.75 3.24828125  13.49828125 3.5  13.1875 3.5  L 0.8125 3.5  C 0.50171875 3.5  0.25 3.24828125  0.25 2.9375  C 0.25 2.62671875  0.50171875 2.375  0.8125 2.375  L 13.1875 2.375  C 13.49828125 2.375  13.75 2.62671875  13.75 2.9375  Z M 9.25 0.6875  C 9.25 0.99828125  8.99828125 1.25  8.6875 1.25  L 5.3125 1.25  C 5.00171875 1.25  4.75 0.99828125  4.75 0.6875  C 4.75 0.37671875  5.00171875 0.125  5.3125 0.125  L 8.6875 0.125  C 8.99828125 0.125  9.25 0.37671875  9.25 0.6875  Z M 1.375 5.1875  C 1.375 4.87671875  1.62671875 4.625  1.9375 4.625  C 2.24828125 4.625  2.5 4.87671875  2.5 5.1875  L 2.5 13.625  C 2.5 14.24628125  3.00371875 14.75  3.625 14.75  L 4.75 14.75  L 4.75 5.1875  C 4.75 4.87671875  5.00171875 4.625  5.3125 4.625  C 5.62328125 4.625  5.875 4.87671875  5.875 5.1875  L 5.875 14.75  L 8.125 14.75  L 8.125 5.1875  C 8.125 4.87671875  8.37671875 4.625  8.6875 4.625  C 8.99828125 4.625  9.25 4.87671875  9.25 5.1875  L 9.25 14.75  L 10.375 14.75  C 10.99628125 14.75  11.5 14.24628125  11.5 13.625  L 11.5 5.1875  C 11.5 4.87671875  11.75171875 4.625  12.0625 4.625  C 12.37328125 4.625  12.625 4.87671875  12.625 5.1875  L 12.625 13.625  C 12.625 14.8675625  11.6175625 15.875  10.375 15.875  L 3.625 15.875  C 2.3824375 15.875  1.375 14.8675625  1.375 13.625  L 1.375 5.1875  Z " fill-rule="nonzero" fill="#cccccc" stroke="none" transform="matrix(1 0 0 1 1404 228 )" />
  </g>
</svg>