<?xml version="1.0" encoding="utf-8"?>
<svg version="1.1" xmlns:xlink="http://www.w3.org/1999/xlink" width="12px" height="12px" viewBox="177 961  12 12" xmlns="http://www.w3.org/2000/svg">
  <path d="M 183 961  C 186.36 961  189 963.64  189 967  C 189 970.36  186.36 973  183 973  C 179.64 973  177 970.36  177 967  C 177 963.64  179.64 961  183 961  Z " fill-rule="nonzero" fill="#ffffff" stroke="none" />
  <path d="M 183 961.5  C 186.08 961.5  188.5 963.92  188.5 967  C 188.5 970.08  186.08 972.5  183 972.5  C 179.92 972.5  177.5 970.08  177.5 967  C 177.5 963.92  179.92 961.5  183 961.5  Z " stroke-width="1" stroke="#0070cc" fill="none" />
  <path d="M 183 970  C 181.32 970  180 968.68  180 967  C 180 965.32  181.32 964  183 964  C 184.68 964  186 965.32  186 967  C 186 968.68  184.68 970  183 970  " fill-rule="nonzero" fill="#0070cc" stroke="none" />
</svg>