<?xml version="1.0" encoding="utf-8"?>
<svg version="1.1" xmlns:xlink="http://www.w3.org/1999/xlink" width="12px" height="12px" viewBox="177 991  12 12" xmlns="http://www.w3.org/2000/svg">
  <path d="M 183 991  C 186.36 991  189 993.64  189 997  C 189 1000.36  186.36 1003  183 1003  C 179.64 1003  177 1000.36  177 997  C 177 993.64  179.64 991  183 991  Z " fill-rule="nonzero" fill="#ffffff" stroke="none" />
  <path d="M 183 991.5  C 186.08 991.5  188.5 993.92  188.5 997  C 188.5 1000.08  186.08 1002.5  183 1002.5  C 179.92 1002.5  177.5 1000.08  177.5 997  C 177.5 993.92  179.92 991.5  183 991.5  Z " stroke-width="1" stroke="#0070cc" fill="none" />
  <path d="M 183 1000  C 181.32 1000  180 998.68  180 997  C 180 995.32  181.32 994  183 994  C 184.68 994  186 995.32  186 997  C 186 998.68  184.68 1000  183 1000  " fill-rule="nonzero" fill="#0070cc" stroke="none" />
</svg>