<?xml version="1.0" encoding="utf-8"?>
<svg version="1.1" xmlns:xlink="http://www.w3.org/1999/xlink" width="12px" height="7px" xmlns="http://www.w3.org/2000/svg">
  <g transform="matrix(1 0 0 1 -82 -15 )">
    <path d="M 10.88325 1.04989869776214  C 10.7505536299564 1.04989869776214  10.623297329862 1.10263633539271  10.5295 1.1965  L 6.065 5.661  L 1.469 1.065  C 1.37524597084172 0.971245970841723  1.24808821956276 0.918575505701113  1.1155 0.918575505701113  C 0.839399325731854 0.918575505701113  0.615575505701112 1.14239932573185  0.615575505701112 1.4185  C 0.615575505701112 1.55108821956276  0.668245970841722 1.67824597084172  0.762000000000001 1.772  L 5.7115 6.7215  C 5.80508720983334 6.81575842029039  5.93242223317383 6.86876903966193  6.06525 6.86876903966193  C 6.19807776682618 6.86876903966193  6.32541279016666 6.81575842029039  6.419 6.7215  L 11.237 1.9035  C 11.3307107299768 1.80972299652249  11.3833513022379 1.68257385599737  11.3833513022379 1.55  C 11.3833513022379 1.27380167740351  11.1594483225965 1.04989869776214  10.88325 1.04989869776214  Z " fill-rule="nonzero" fill="#0070cc" stroke="none" transform="matrix(1 0 0 1 82 15 )" />
  </g>
</svg>