<?xml version="1.0" encoding="utf-8"?>
<svg version="1.1" xmlns:xlink="http://www.w3.org/1999/xlink" width="12px" height="12px" viewBox="245 -228.5  12 12" xmlns="http://www.w3.org/2000/svg">
  <path d="M 245.5 -227.5  A 0.5 0.5 0 0 1 246 -228 L 256 -228  A 0.5 0.5 0 0 1 256.5 -227.5 L 256.5 -217.5  A 0.5 0.5 0 0 1 256 -217 L 246 -217  A 0.5 0.5 0 0 1 245.5 -217.5 L 245.5 -227.5  Z " fill-rule="nonzero" fill="#ffffff" stroke="none" />
  <path d="M 245.5 -227.5  A 0.5 0.5 0 0 1 246 -228 L 256 -228  A 0.5 0.5 0 0 1 256.5 -227.5 L 256.5 -217.5  A 0.5 0.5 0 0 1 256 -217 L 246 -217  A 0.5 0.5 0 0 1 245.5 -217.5 L 245.5 -227.5  Z " stroke-width="1" stroke="#0070cc" fill="none" />
  <path d="M 247.571428571429 -222.5  L 250.142857142857 -219.928571428571  " stroke-width="2.57142857142857" stroke="#0070cc" fill="none" />
  <path d="M 250.142857142857 -219.928571428571  L 254.428571428571 -225.928571428571  " stroke-width="2.57142857142857" stroke="#0070cc" fill="none" />
</svg>