<?xml version="1.0" encoding="utf-8"?>
<svg version="1.1" xmlns:xlink="http://www.w3.org/1999/xlink" width="12px" height="12px" viewBox="177 1021  12 12" xmlns="http://www.w3.org/2000/svg">
  <path d="M 183 1021  C 186.36 1021  189 1023.64  189 1027  C 189 1030.36  186.36 1033  183 1033  C 179.64 1033  177 1030.36  177 1027  C 177 1023.64  179.64 1021  183 1021  Z " fill-rule="nonzero" fill="#ffffff" stroke="none" />
  <path d="M 183 1021.5  C 186.08 1021.5  188.5 1023.92  188.5 1027  C 188.5 1030.08  186.08 1032.5  183 1032.5  C 179.92 1032.5  177.5 1030.08  177.5 1027  C 177.5 1023.92  179.92 1021.5  183 1021.5  Z " stroke-width="1" stroke="#0070cc" fill="none" />
  <path d="M 183 1030  C 181.32 1030  180 1028.68  180 1027  C 180 1025.32  181.32 1024  183 1024  C 184.68 1024  186 1025.32  186 1027  C 186 1028.68  184.68 1030  183 1030  " fill-rule="nonzero" fill="#0070cc" stroke="none" />
</svg>