<?xml version="1.0" encoding="utf-8"?>
<svg version="1.1" xmlns:xlink="http://www.w3.org/1999/xlink" width="6px" height="6px" xmlns="http://www.w3.org/2000/svg">
  <g transform="matrix(1 0 0 1 -1173 -15 )">
    <path d="M 0.7865 0.25  C 0.375875 0.25  0.125 0.4615  0.125 0.9115  L 0.125 5.3125  C 0.125 5.623  0.377 5.875  0.6875 5.875  C 0.998 5.875  1.25 5.623  1.25 5.3125  L 1.25 2.136625  L 4.826375 5.714125  C 5.03675 5.9245  5.377625 5.9245  5.589125 5.714125  C 5.7995 5.502625  5.7995 5.16175  5.589125 4.951375  L 2.011625 1.375  L 5.1875 1.375  C 5.498 1.375  5.75 1.123  5.75 0.8125  C 5.75 0.502  5.498 0.25  5.1875 0.25  L 0.7865 0.25  Z " fill-rule="nonzero" fill="#999999" stroke="none" transform="matrix(1 0 0 1 1173 15 )" />
  </g>
</svg>