<?xml version="1.0" encoding="utf-8"?>
<svg version="1.1" xmlns:xlink="http://www.w3.org/1999/xlink" width="6px" height="6px" xmlns="http://www.w3.org/2000/svg">
  <g transform="matrix(1 0 0 1 -1173 -24 )">
    <path d="M 0.125 5.2135  C 0.125 5.6635  0.375875 5.875  0.7865 5.875  L 5.1875 5.875  C 5.498 5.875  5.75 5.623  5.75 5.3125  C 5.75 5.002  5.498 4.75  5.1875 4.75  L 2.011625 4.75  L 5.589125 1.173625  C 5.7995 0.96325  5.7995 0.622375  5.589125 0.410874999999999  C 5.377625 0.2005  5.03675 0.2005  4.826375 0.410874999999999  L 1.25 3.988375  L 1.25 0.8125  C 1.25 0.502000000000001  0.998 0.25  0.6875 0.25  C 0.377 0.25  0.125 0.502000000000001  0.125 0.8125  L 0.125 5.2135  Z " fill-rule="nonzero" fill="#999999" stroke="none" transform="matrix(1 0 0 1 1173 24 )" />
  </g>
</svg>