<?xml version="1.0" encoding="utf-8"?>
<svg version="1.1" xmlns:xlink="http://www.w3.org/1999/xlink" width="6px" height="6px" xmlns="http://www.w3.org/2000/svg">
  <g transform="matrix(1 0 0 1 -1182 -15 )">
    <path d="M 5.784875 0.9115  C 5.784875 0.4615  5.535125 0.25  5.123375 0.25  L 0.722375000000001 0.25  C 0.411875 0.25  0.159875000000001 0.502  0.159875000000001 0.8125  C 0.159875000000001 1.123  0.411875 1.375  0.722375000000001 1.375  L 3.89825 1.375  L 0.320750000000002 4.951375  C 0.110375000000001 5.16175  0.110375000000001 5.502625  0.320750000000002 5.714125  C 0.532250000000001 5.9245  0.873125000000002 5.9245  1.0835 5.714125  L 4.659875 2.136625  L 4.659875 5.3125  C 4.659875 5.623  4.911875 5.875  5.222375 5.875  C 5.532875 5.875  5.784875 5.623  5.784875 5.3125  L 5.784875 0.9115  Z " fill-rule="nonzero" fill="#999999" stroke="none" transform="matrix(1 0 0 1 1182 15 )" />
  </g>
</svg>