<?xml version="1.0" encoding="utf-8"?>
<svg version="1.1" xmlns:xlink="http://www.w3.org/1999/xlink" width="12px" height="12px" viewBox="37 548  12 12" xmlns="http://www.w3.org/2000/svg">
  <path d="M 37.5 549  A 0.5 0.5 0 0 1 38 548.5 L 48 548.5  A 0.5 0.5 0 0 1 48.5 549 L 48.5 559  A 0.5 0.5 0 0 1 48 559.5 L 38 559.5  A 0.5 0.5 0 0 1 37.5 559 L 37.5 549  Z " fill-rule="nonzero" fill="#ffffff" stroke="none" />
  <path d="M 37.5 549  A 0.5 0.5 0 0 1 38 548.5 L 48 548.5  A 0.5 0.5 0 0 1 48.5 549 L 48.5 559  A 0.5 0.5 0 0 1 48 559.5 L 38 559.5  A 0.5 0.5 0 0 1 37.5 559 L 37.5 549  Z " stroke-width="1" stroke="#0070cc" fill="none" />
  <path d="M 39.5714285714286 554  L 42.1428571428571 556.571428571429  " stroke-width="2.57142857142857" stroke="#0070cc" fill="none" />
  <path d="M 42.1428571428571 556.571428571429  L 46.4285714285714 550.571428571429  " stroke-width="2.57142857142857" stroke="#0070cc" fill="none" />
</svg>