<?xml version="1.0" encoding="utf-8"?>
<svg version="1.1" xmlns:xlink="http://www.w3.org/1999/xlink" width="12px" height="12px" viewBox="37 668  12 12" xmlns="http://www.w3.org/2000/svg">
  <path d="M 37.5 669  A 0.5 0.5 0 0 1 38 668.5 L 48 668.5  A 0.5 0.5 0 0 1 48.5 669 L 48.5 679  A 0.5 0.5 0 0 1 48 679.5 L 38 679.5  A 0.5 0.5 0 0 1 37.5 679 L 37.5 669  Z " fill-rule="nonzero" fill="#ffffff" stroke="none" />
  <path d="M 37.5 669  A 0.5 0.5 0 0 1 38 668.5 L 48 668.5  A 0.5 0.5 0 0 1 48.5 669 L 48.5 679  A 0.5 0.5 0 0 1 48 679.5 L 38 679.5  A 0.5 0.5 0 0 1 37.5 679 L 37.5 669  Z " stroke-width="1" stroke="#0070cc" fill="none" />
  <path d="M 39.5714285714286 674  L 42.1428571428571 676.571428571429  " stroke-width="2.57142857142857" stroke="#0070cc" fill="none" />
  <path d="M 42.1428571428571 676.571428571429  L 46.4285714285714 670.571428571429  " stroke-width="2.57142857142857" stroke="#0070cc" fill="none" />
</svg>