<?xml version="1.0" encoding="utf-8"?>
<svg version="1.1" xmlns:xlink="http://www.w3.org/1999/xlink" width="12px" height="12px" viewBox="37 368  12 12" xmlns="http://www.w3.org/2000/svg">
  <path d="M 37.5 369  A 0.5 0.5 0 0 1 38 368.5 L 48 368.5  A 0.5 0.5 0 0 1 48.5 369 L 48.5 379  A 0.5 0.5 0 0 1 48 379.5 L 38 379.5  A 0.5 0.5 0 0 1 37.5 379 L 37.5 369  Z " fill-rule="nonzero" fill="#ffffff" stroke="none" />
  <path d="M 37.5 369  A 0.5 0.5 0 0 1 38 368.5 L 48 368.5  A 0.5 0.5 0 0 1 48.5 369 L 48.5 379  A 0.5 0.5 0 0 1 48 379.5 L 38 379.5  A 0.5 0.5 0 0 1 37.5 379 L 37.5 369  Z " stroke-width="1" stroke="#999999" fill="none" />
</svg>