<?xml version="1.0" encoding="utf-8"?>
<svg version="1.1" xmlns:xlink="http://www.w3.org/1999/xlink" width="12px" height="12px" viewBox="64 329.5  12 12" xmlns="http://www.w3.org/2000/svg">
  <path d="M 70 329.5  C 73.36 329.5  76 332.14  76 335.5  C 76 338.86  73.36 341.5  70 341.5  C 66.64 341.5  64 338.86  64 335.5  C 64 332.14  66.64 329.5  70 329.5  Z " fill-rule="nonzero" fill="#ffffff" stroke="none" />
  <path d="M 70 330  C 73.08 330  75.5 332.42  75.5 335.5  C 75.5 338.58  73.08 341  70 341  C 66.92 341  64.5 338.58  64.5 335.5  C 64.5 332.42  66.92 330  70 330  Z " stroke-width="1" stroke="#999999" fill="none" />
  <path d="M 70 338.5  C 68.32 338.5  67 337.18  67 335.5  C 67 333.82  68.32 332.5  70 332.5  C 71.68 332.5  73 333.82  73 335.5  C 73 337.18  71.68 338.5  70 338.5  " fill-rule="nonzero" fill="#999999" stroke="none" />
</svg>