<?xml version="1.0" encoding="utf-8"?>
<svg version="1.1" xmlns:xlink="http://www.w3.org/1999/xlink" width="12px" height="12px" viewBox="220 329.5  12 12" xmlns="http://www.w3.org/2000/svg">
  <path d="M 226 329.5  C 229.36 329.5  232 332.14  232 335.5  C 232 338.86  229.36 341.5  226 341.5  C 222.64 341.5  220 338.86  220 335.5  C 220 332.14  222.64 329.5  226 329.5  Z " fill-rule="nonzero" fill="#ffffff" stroke="none" />
  <path d="M 226 330  C 229.08 330  231.5 332.42  231.5 335.5  C 231.5 338.58  229.08 341  226 341  C 222.92 341  220.5 338.58  220.5 335.5  C 220.5 332.42  222.92 330  226 330  Z " stroke-width="1" stroke="#999999" fill="none" />
  <path d="M 226 338.5  C 224.32 338.5  223 337.18  223 335.5  C 223 333.82  224.32 332.5  226 332.5  C 227.68 332.5  229 333.82  229 335.5  C 229 337.18  227.68 338.5  226 338.5  " fill-rule="nonzero" fill="#999999" stroke="none" />
</svg>