<?xml version="1.0" encoding="utf-8"?>
<svg version="1.1" xmlns:xlink="http://www.w3.org/1999/xlink" width="12px" height="12px" viewBox="177 1051  12 12" xmlns="http://www.w3.org/2000/svg">
  <path d="M 183 1051  C 186.36 1051  189 1053.64  189 1057  C 189 1060.36  186.36 1063  183 1063  C 179.64 1063  177 1060.36  177 1057  C 177 1053.64  179.64 1051  183 1051  Z " fill-rule="nonzero" fill="#ffffff" stroke="none" />
  <path d="M 183 1051.5  C 186.08 1051.5  188.5 1053.92  188.5 1057  C 188.5 1060.08  186.08 1062.5  183 1062.5  C 179.92 1062.5  177.5 1060.08  177.5 1057  C 177.5 1053.92  179.92 1051.5  183 1051.5  Z " stroke-width="1" stroke="#0070cc" fill="none" />
  <path d="M 183 1060  C 181.32 1060  180 1058.68  180 1057  C 180 1055.32  181.32 1054  183 1054  C 184.68 1054  186 1055.32  186 1057  C 186 1058.68  184.68 1060  183 1060  " fill-rule="nonzero" fill="#0070cc" stroke="none" />
</svg>