<?xml version="1.0" encoding="utf-8"?>
<svg version="1.1" xmlns:xlink="http://www.w3.org/1999/xlink" width="2px" height="9px" xmlns="http://www.w3.org/2000/svg">
  <g transform="matrix(1 0 0 1 -1154 -290 )">
    <path d="M 1 0.5625  C 0.649999999999999 0.5625  0.3 0.8578125  0.3 1.35  C 0.3 1.74375  0.5625 2.1375  1 2.1375  C 1.4375 2.1375  1.7 1.8421875  1.7 1.35  C 1.7 0.8578125  1.35 0.5625  1 0.5625  Z M 1.4375 7.9453125  C 1.4375 8.240625  1.2625 8.4375  1 8.4375  C 0.7375 8.4375  0.5625 8.240625  0.5625 7.9453125  L 0.5625 3.515625  C 0.5625 3.2203125  0.7375 3.0234375  1 3.0234375  C 1.2625 3.0234375  1.4375 3.2203125  1.4375 3.515625  L 1.4375 7.9453125  Z " fill-rule="nonzero" fill="#999999" stroke="none" transform="matrix(1 0 0 1 1154 290 )" />
  </g>
</svg>