<?xml version="1.0" encoding="utf-8"?>
<svg version="1.1" xmlns:xlink="http://www.w3.org/1999/xlink" width="16px" height="16px" xmlns="http://www.w3.org/2000/svg">
  <g transform="matrix(1 0 0 1 -1147 -287 )">
    <path d="M 15 8  C 15 11.9  11.8 15  8 15  C 4.2 15  1 11.9  1 8  C 1 4.2  4.1 1  8 1  C 11.8 1  15 4.1  15 8  Z M 14 8  C 14 4.7  11.3 2  8 2  C 4.7 2  2 4.7  2 8  C 2 11.3  4.7 14  8 14  C 11.3 14  14 11.3  14 8  Z " fill-rule="nonzero" fill="#999999" stroke="none" transform="matrix(1 0 0 1 1147 287 )" />
  </g>
</svg>