<?xml version="1.0" encoding="utf-8"?>
<svg version="1.1" xmlns:xlink="http://www.w3.org/1999/xlink" width="18px" height="18px" xmlns="http://www.w3.org/2000/svg">
  <g transform="matrix(1 0 0 1 -28 -1732 )">
    <path d="M 9.37500001171875 0.505499994140625  C 9.58210678966926 0.505499994140625  9.75000000585938 0.673393210330745  9.75000000585938 0.880499988281249  L 9.75000000585938 2.00550000585937  L 16.5000000058594 2.00550000585937  C 16.9142135577391 2.00550001556751  17.2499999844325 2.34128644226086  17.2499999941406 2.75549999414062  L 17.2499999941406 12.5055  C 17.2499999941406 12.9197135587445  16.9142135646038 13.2554999961512  16.5000000058594 13.2555000058594  L 9.75000000585938 13.2555000058594  L 9.75000000585938 13.8704999941406  L 12.7049999941406 16.3499999941406  C 12.8438200852474 16.4662121276106  12.8797930767875 16.6650102387534  12.7904999941406 16.8224999941406  L 12.7522499941406 16.8787499941406  L 12.2700000058594 17.45325  C 12.198748591837 17.5381278251279  12.0936038226161 17.587144159516  11.9827841077698 17.587144159516  C 11.8944011596799 17.587144159516  11.8088584465391 17.5559266627251  11.7412500058594 17.4990000058594  L 9 15.1979999941406  L 6.25874999414062 17.4990000058594  C 6.19114155346085 17.5559266627251  6.10559884032008 17.587144159516  6.01721589223022 17.587144159516  C 5.90639617738391 17.587144159516  5.80125140816296 17.5381278251279  5.72999999414063 17.45325  L 5.24775000585938 16.8787499941406  C 5.19101674949075 16.811195285166  5.15991591588698 16.725801968459  5.15991591588698 16.6375846170885  C 5.15991591588698 16.5265641480122  5.20910925269955 16.4212502411791  5.29425 16.3499999941406  L 8.24999999414062 13.8697500058594  L 8.24999999414062 13.25475  L 1.49999999414063 13.25475  C 1.08578643539617 13.2547499902919  0.750000005859376 12.9189635528851  0.750000005859375 12.5047499941406  L 0.750000005859375 2.75475000585938  C 0.750000005859375 2.34053644711492  1.08578643539617 2.00475000970813  1.49999999414063 2.00475  L 8.24999999414062 2.00475  L 8.24999999414062 0.879750000000002  C 8.24999999414062 0.672643222049497  8.41789321033075 0.504750005859376  8.62499998828125 0.504750005859376  L 9.37499999414062 0.504750005859377  Z M 9.37499999414063 3.50474999414062  L 8.6175 3.50474999414062  L 2.25 3.50474999414062  L 2.25 11.7547500058594  L 15.75 11.7547500058594  L 15.75 3.50474999414062  L 9.3825 3.50474999414062  C 9.38000005812295 3.50477450457182  9.37749993601768 3.50477450457182  9.37499999414063 3.50474999414062  Z M 12.8392500058594 5.14425000585937  C 12.9667531627153 4.98149136471463  13.2019350592134 4.95263880123536  13.365 5.07974999414062  L 13.9559999941406 5.54099999414062  C 14.0469504896029 5.61206904369947  14.10010528273 5.72106265671405  14.10010528273 5.83648710139554  C 14.10010528273 5.92021922810001  14.0720818754805 6.00154258539196  14.0205000058594 6.06749999414062  L 11.1254999941406 9.77250000585937  C 11.0544468580346 9.86372614084218  10.9452813089036 9.91707131952976  10.8296493243388 9.91707131952976  C 10.7460752740709 9.91707131952976  10.6648961682496 9.88915346990582  10.5989999941406 9.83775000585937  L 10.0567499941406 9.41475000585937  C 10.0503649606623 9.41044058842487  10.0441120902964 9.40593851894768  10.0380000058594 9.40125000585937  L 7.37699999414062 7.32225000585937  L 5.17575000585938 10.1347500058594  C 5.0487513379796 10.2975118656366  4.814083214998 10.3270129955297  4.65075 10.2007499941406  L 4.05374999414063 9.73724999414062  C 3.96224774964175 9.66621345718937  3.90871163501601 9.55687591048467  3.90871163501601 9.44103614904517  C 3.90871163501601 9.35761983932845  3.93652434846966 9.27658473232457  3.98775000585938 9.21074999414062  L 3.98849999414063 9.20925  L 6.88874999414062 5.51174999414062  C 7.01647867737214 5.3492319333912  7.25163156918448 5.32071839318541  7.41450000585937 5.44800000585937  L 8.00625000585937 5.91075  L 8.00850000585937 5.913  L 10.6342500058594 7.965  L 12.8392500058594 5.14425000585937  Z " fill-rule="nonzero" fill="#666666" stroke="none" transform="matrix(1 0 0 1 28 1732 )" />
  </g>
</svg>