<?xml version="1.0" encoding="utf-8"?>
<svg version="1.1" xmlns:xlink="http://www.w3.org/1999/xlink" width="309px" height="23px" xmlns="http://www.w3.org/2000/svg">
  <g transform="matrix(1 0 0 1 -100 -315 )">
    <path d="M 101 326.5  A 10.5 10.5 0 0 1 111.5 316 L 397.5 316  A 10.5 10.5 0 0 1 408 326.5 A 10.5 10.5 0 0 1 397.5 337 L 111.5 337  A 10.5 10.5 0 0 1 101 326.5 Z " fill-rule="nonzero" fill="#eaf3ff" stroke="none" />
    <path d="M 100.5 326.5  A 11 11 0 0 1 111.5 315.5 L 397.5 315.5  A 11 11 0 0 1 408.5 326.5 A 11 11 0 0 1 397.5 337.5 L 111.5 337.5  A 11 11 0 0 1 100.5 326.5 Z " stroke-width="1" stroke="#0070cc" fill="none" stroke-opacity="0.6" />
  </g>
</svg>