<?xml version="1.0" encoding="utf-8"?>
<svg version="1.1" xmlns:xlink="http://www.w3.org/1999/xlink" width="215px" height="23px" xmlns="http://www.w3.org/2000/svg">
  <g transform="matrix(1 0 0 1 -415 -315 )">
    <path d="M 416 326.5  A 10.5 10.5 0 0 1 426.5 316 L 618.5 316  A 10.5 10.5 0 0 1 629 326.5 A 10.5 10.5 0 0 1 618.5 337 L 426.5 337  A 10.5 10.5 0 0 1 416 326.5 Z " fill-rule="nonzero" fill="#eaf3ff" stroke="none" />
    <path d="M 415.5 326.5  A 11 11 0 0 1 426.5 315.5 L 618.5 315.5  A 11 11 0 0 1 629.5 326.5 A 11 11 0 0 1 618.5 337.5 L 426.5 337.5  A 11 11 0 0 1 415.5 326.5 Z " stroke-width="1" stroke="#0070cc" fill="none" stroke-opacity="0.6" />
  </g>
</svg>