<?xml version="1.0" encoding="utf-8"?>
<svg version="1.1" xmlns:xlink="http://www.w3.org/1999/xlink" width="110px" height="23px" xmlns="http://www.w3.org/2000/svg">
  <g transform="matrix(1 0 0 1 -100 -370 )">
    <path d="M 101 381.5  A 10.5 10.5 0 0 1 111.5 371 L 198.5 371  A 10.5 10.5 0 0 1 209 381.5 A 10.5 10.5 0 0 1 198.5 392 L 111.5 392  A 10.5 10.5 0 0 1 101 381.5 Z " fill-rule="nonzero" fill="#eaf3ff" stroke="none" />
    <path d="M 100.5 381.5  A 11 11 0 0 1 111.5 370.5 L 198.5 370.5  A 11 11 0 0 1 209.5 381.5 A 11 11 0 0 1 198.5 392.5 L 111.5 392.5  A 11 11 0 0 1 100.5 381.5 Z " stroke-width="1" stroke="#0070cc" fill="none" stroke-opacity="0.6" />
  </g>
</svg>