<?xml version="1.0" encoding="utf-8"?>
<svg version="1.1" xmlns:xlink="http://www.w3.org/1999/xlink" width="12px" height="12px" viewBox="6642 1315.5  12 12" xmlns="http://www.w3.org/2000/svg">
  <path d="M 6648 1315.5  C 6651.36 1315.5  6654 1318.14  6654 1321.5  C 6654 1324.86  6651.36 1327.5  6648 1327.5  C 6644.64 1327.5  6642 1324.86  6642 1321.5  C 6642 1318.14  6644.64 1315.5  6648 1315.5  Z " fill-rule="nonzero" fill="#ffffff" stroke="none" />
  <path d="M 6648 1316  C 6651.08 1316  6653.5 1318.42  6653.5 1321.5  C 6653.5 1324.58  6651.08 1327  6648 1327  C 6644.92 1327  6642.5 1324.58  6642.5 1321.5  C 6642.5 1318.42  6644.92 1316  6648 1316  Z " stroke-width="1" stroke="#0070cc" fill="none" />
  <path d="M 6648 1324.5  C 6646.32 1324.5  6645 1323.18  6645 1321.5  C 6645 1319.82  6646.32 1318.5  6648 1318.5  C 6649.68 1318.5  6651 1319.82  6651 1321.5  C 6651 1323.18  6649.68 1324.5  6648 1324.5  " fill-rule="nonzero" fill="#0070cc" stroke="none" />
</svg>