<?xml version="1.0" encoding="utf-8"?>
<svg version="1.1" xmlns:xlink="http://www.w3.org/1999/xlink" width="12px" height="12px" viewBox="2793 686.5  12 12" xmlns="http://www.w3.org/2000/svg">
  <path d="M 2793.5 687.5  A 0.5 0.5 0 0 1 2794 687 L 2804 687  A 0.5 0.5 0 0 1 2804.5 687.5 L 2804.5 697.5  A 0.5 0.5 0 0 1 2804 698 L 2794 698  A 0.5 0.5 0 0 1 2793.5 697.5 L 2793.5 687.5  Z " fill-rule="nonzero" fill="#ffffff" stroke="none" />
  <path d="M 2793.5 687.5  A 0.5 0.5 0 0 1 2794 687 L 2804 687  A 0.5 0.5 0 0 1 2804.5 687.5 L 2804.5 697.5  A 0.5 0.5 0 0 1 2804 698 L 2794 698  A 0.5 0.5 0 0 1 2793.5 697.5 L 2793.5 687.5  Z " stroke-width="1" stroke="#999999" fill="none" />
</svg>