<?xml version="1.0" encoding="utf-8"?>
<svg version="1.1" xmlns:xlink="http://www.w3.org/1999/xlink" width="12px" height="11px" xmlns="http://www.w3.org/2000/svg">
  <g transform="matrix(1 0 0 1 -2 -2 )">
    <path d="M 1.4596142578125 8.63082589285714  C 1.5364013671875 8.71126953125  1.6273291015625 8.75149135044643  1.7323974609375 8.75149135044643  C 1.8374658203125 8.75149135044643  1.9283935546875 8.71126953125  2.0051806640625 8.63082589285714  C 2.0819677734375 8.55038225446428  2.120361328125 8.45512462797619  2.120361328125 8.34505301339286  C 2.120361328125 8.23498139880953  2.0819677734375 8.13972377232143  2.0051806640625 8.05928013392857  C 1.9283935546875 7.97883649553572  1.8374658203125 7.93861467633929  1.7323974609375 7.93861467633929  C 1.6273291015625 7.93861467633929  1.5364013671875 7.97883649553572  1.4596142578125 8.05928013392857  C 1.3828271484375 8.13972377232143  1.34443359375 8.23498139880953  1.34443359375 8.34505301339286  C 1.34443359375 8.45512462797619  1.3828271484375 8.55038225446428  1.4596142578125 8.63082589285714  Z M 6.363720703125 9.56435267857143  C 7.12751953125 9.56435267857143  7.5094189453125 9.21083240327381  7.5094189453125 8.50379185267857  C 7.5094189453125 8.39372023809524  7.49931640625 8.27518275669643  7.479111328125 8.14817940848214  C 7.6003515625 8.08043201264881  7.6963330078125 7.96929640997024  7.7670556640625 7.81477260044643  C 7.8377783203125 7.66024879092262  7.8731396484375 7.50466610863095  7.8731396484375 7.34802455357143  C 7.8731396484375 7.19138299851191  7.8367724609375 7.04531994047619  7.7640380859375 6.90983537946429  C 7.9782177734375 6.69814267113095  8.0853076171875 6.44623325892857  8.0853076171875 6.15410714285714  C 8.0853076171875 6.04827101934524  8.0651025390625 5.93078218005952  8.0246923828125 5.801640625  C 7.9842822265625 5.67249906994048  7.93376953125 5.57194196428572  7.873154296875 5.49996930803572  L 9.879638671875 5.49996930803572  C 10.08978515625 5.49996930803572  10.2716455078125 5.41952566964286  10.4252197265625 5.25863839285714  C 10.5787939453125 5.09775111607143  10.6555810546875 4.90723074776786  10.6555810546875 4.68707728794643  C 10.6555810546875 4.47116954985119  10.57677734375 4.28170805431548  10.419169921875 4.11869280133929  C 10.2615625 3.9556775483631  10.081728515625 3.87418015252976  9.87966796875 3.87420061383929  L 6.387978515625 3.87420061383929  C 6.387978515625 3.78953171502976  6.4182861328125 3.68686197916667  6.4789013671875 3.56619140625  C 6.5395166015625 3.44552083333333  6.6061962890625 3.32909086681548  6.6789404296875 3.21690150669643  C 6.7516845703125 3.10471214657738  6.8183642578125 2.96076683407738  6.8789794921875 2.78506556919643  C 6.9395947265625 2.60936430431548  6.96990234375 2.43048642113095  6.96990234375 2.24843191964286  C 6.96990234375 1.96476655505952  6.8799853515625 1.75837332589286  6.7001513671875 1.62925223214286  C 6.5203173828125 1.50013113839286  6.28693359375 1.43556036086309  6 1.43553989955357  C 5.9030078125 1.43553989955357  5.7211474609375 1.7297888764881  5.4544189453125 2.31828683035714  C 5.3574267578125 2.50457682291667  5.2826611328125 2.64217912946429  5.2301220703125 2.73109375  C 5.0684716796875 3.00204241071429  4.8421630859375 3.30898763020833  4.5511962890625 3.65192940848214  C 4.2642724609375 3.99485072544643  4.060185546875 4.21923967633928  3.938935546875 4.32509626116071  C 3.660087890625 4.56641694568452  3.377197265625 4.68707728794643  3.090263671875 4.68707728794643  L 2.8962744140625 4.68707728794643  L 2.8962744140625 8.75142996651786  L 3.090263671875 8.75142996651786  C 3.381240234375 8.75142996651786  3.71869140625 8.81916713169643  4.1026171875 8.95464146205357  C 4.48654296875 9.09011579241071  4.8775390625 9.22559012276786  5.27560546875 9.361064453125  C 5.673671875 9.49653878348214  6.036376953125 9.56427594866071  6.363720703125 9.56427594866071  Z M 6.39404296875 10.3772446986607  C 5.8565625 10.3772446986607  5.20591796875 10.231181640625  4.442109375 9.93905552455357  C 3.779345703125 9.68926385788691  3.328740234375 9.56436802455357  3.09029296875 9.56436802455357  L 1.3444775390625 9.56436802455357  C 1.1302978515625 9.56436802455357  0.947431640625 9.48498837425595  0.79587890625 9.32622907366071  C 0.644326171875 9.16746977306548  0.5685546875 8.97589564732143  0.568564453125 8.75150669642857  L 0.568564453125 4.68715401785714  C 0.568564453125 4.46277529761905  0.6443359375 4.271201171875  0.79587890625 4.112431640625  C 0.947421875 3.953662109375  1.1302880859375 3.87428245907738  1.3444775390625 3.87429268973214  L 3.09029296875 3.87429268973214  C 3.130703125 3.87429268973214  3.1741455078125 3.86476283482143  3.2206201171875 3.845703125  C 3.2670947265625 3.82664341517857  3.3145849609375 3.79700520833333  3.3630908203125 3.75678850446428  C 3.4115966796875 3.71657180059524  3.4570556640625 3.6784728422619  3.4994677734375 3.64249162946428  C 3.5418798828125 3.60651041666667  3.5903759765625 3.55888160342262  3.6449560546875 3.49960518973214  C 3.6995361328125 3.44032877604167  3.74095703125 3.39481259300595  3.76921875 3.363056640625  C 3.79748046875 3.33130068824405  3.8358740234375 3.28578962053571  3.8843994140625 3.2265234375  C 3.9329248046875 3.16725725446429  3.9612109375 3.13127092633929  3.9692578125 3.118564453125  C 4.231953125 2.80528134300595  4.4340185546875 2.53220470610119  4.5754541015625 2.29933454241071  C 4.6279931640625 2.210419921875  4.6946728515625 2.0791759672619  4.7754931640625 1.90560267857143  C 4.8563134765625 1.73202938988095  4.9310791015625 1.57961309523809  4.9997900390625 1.44835379464286  C 5.0685009765625 1.31709449404762  5.150341796875 1.18373279389881  5.2453125 1.04826869419643  C 5.340283203125 0.912804594494046  5.4514208984375 0.808022228422617  5.5787255859375 0.733921595982141  C 5.7060302734375 0.659820963541665  5.84646484375 0.622775762648808  6.000029296875 0.62278599330357  C 6.505185546875 0.622785993303571  6.9224462890625 0.764618675595237  7.2518115234375 1.04828404017857  C 7.5811767578125 1.3319494047619  7.7458642578125 1.73203450520833  7.7458740234375 2.24853934151786  C 7.7458740234375 2.53642996651786  7.7014208984375 2.8073888578869  7.6125146484375 3.061416015625  L 9.8796826171875 3.061416015625  C 10.2999853515625 3.061416015625  10.66369140625 3.22229306175595  10.97080078125 3.54404715401786  C 11.27791015625 3.86580124627976  11.431474609375 4.24471400669643  11.431494140625 4.68078543526786  C 11.431494140625 5.12530738467262  11.278935546875 5.5084607514881  10.973818359375 5.83024553571429  C 10.668701171875 6.15203031994048  10.3039794921875 6.31290736607143  9.8796533203125 6.31287667410714  L 8.855185546875 6.31287667410714  C 8.8390234375 6.57536458333333  8.7642578125 6.82727399553572  8.630888671875 7.06860491071428  C 8.643017578125 7.15751953125  8.64908203125 7.24854166666667  8.64908203125 7.34167131696429  C 8.64908203125 7.76928199404762  8.527841796875 8.14608212425595  8.285361328125 8.47207170758929  C 8.289404296875 9.06055943080357  8.1176513671875 9.52521530877976  7.7701025390625 9.86603934151786  C 7.4225537109375 10.206863374256  6.9638671875 10.3772702752976  6.39404296875 10.3772600446429  Z " fill-rule="nonzero" fill="#7d91a9" stroke="none" transform="matrix(1 0 0 1 2 2 )" />
  </g>
</svg>