<?xml version="1.0" encoding="utf-8"?>
<svg version="1.1" xmlns:xlink="http://www.w3.org/1999/xlink" width="16px" height="14px" xmlns="http://www.w3.org/2000/svg">
  <g transform="matrix(1 0 0 1 1 -1 )">
    <path d="M 1.94615234375 10.9846875  C 2.04853515625 11.0870703125  2.16977213541667 11.13826171875  2.30986328125 11.13826171875  C 2.44995442708333 11.13826171875  2.57119140625 11.0870703125  2.67357421875 10.9846875  C 2.77595703125 10.8823046875  2.8271484375 10.7610677083333  2.8271484375 10.6209765625  C 2.8271484375 10.4808854166667  2.77595703125 10.3596484375  2.67357421875 10.257265625  C 2.57119140625 10.1548828125  2.44995442708333 10.10369140625  2.30986328125 10.10369140625  C 2.16977213541667 10.10369140625  2.04853515625 10.1548828125  1.94615234375 10.257265625  C 1.84376953125 10.3596484375  1.792578125 10.4808854166667  1.792578125 10.6209765625  C 1.792578125 10.7610677083333  1.84376953125 10.8823046875  1.94615234375 10.9846875  Z M 8.4849609375 12.1728125  C 9.503359375 12.1728125  10.01255859375 11.7228776041667  10.01255859375 10.8230078125  C 10.01255859375 10.6829166666667  9.99908854166667 10.53205078125  9.9721484375 10.37041015625  C 10.1338020833333 10.2841861979167  10.26177734375 10.1427408854167  10.35607421875 9.94607421875  C 10.45037109375 9.74940755208333  10.49751953125 9.55139322916667  10.49751953125 9.35203125  C 10.49751953125 9.15266927083333  10.4490299479167 8.96677083333334  10.35205078125 8.7943359375  C 10.6376236979167 8.52490885416667  10.78041015625 8.204296875  10.78041015625 7.8325  C 10.78041015625 7.69779947916667  10.7534700520833 7.54826822916667  10.69958984375 7.38390625  C 10.6457096354167 7.21954427083334  10.578359375 7.0915625  10.4975390625 6.9999609375  L 13.1728515625 6.9999609375  C 13.453046875 6.9999609375  13.69552734375 6.897578125  13.90029296875 6.6928125  C 14.10505859375 6.488046875  14.20744140625 6.24556640625  14.20744140625 5.96537109375  C 14.20744140625 5.69057942708334  14.1023697916667 5.44944661458334  13.8922265625 5.24197265625  C 13.6820833333333 5.03449869791667  13.4423046875 4.93077473958333  13.172890625 4.93080078125  L 8.5173046875 4.93080078125  C 8.5173046875 4.82304036458333  8.55771484375 4.69236979166667  8.63853515625 4.5387890625  C 8.71935546875 4.38520833333333  8.80826171875 4.23702473958333  8.90525390625 4.09423828125  C 9.00224609375 3.95145182291667  9.09115234375 3.76824869791667  9.17197265625 3.54462890625  C 9.25279296875 3.32100911458333  9.293203125 3.09334635416667  9.293203125 2.861640625  C 9.293203125 2.50061197916667  9.17331380208333 2.2379296875  8.93353515625 2.07359375  C 8.69375651041667 1.9092578125  8.382578125 1.82707682291667  8 1.82705078125  C 7.87067708333333 1.82705078125  7.62819661458333 2.20154947916667  7.27255859375 2.950546875  C 7.14323567708333 3.18764322916667  7.04354817708333 3.3627734375  6.97349609375 3.4759375  C 6.75796223958333 3.82078125  6.45621744791666 4.21143880208333  6.06826171875 4.64791015625  C 5.68569661458333 5.08435546875  5.41358072916666 5.36994140625  5.2519140625 5.50466796875  C 4.8801171875 5.81180338541667  4.5029296875 5.96537109375  4.1203515625 5.96537109375  L 3.86169921875 5.96537109375  L 3.86169921875 11.13818359375  L 4.1203515625 11.13818359375  C 4.5083203125 11.13818359375  4.95825520833333 11.22439453125  5.47015625 11.39681640625  C 5.98205729166667 11.56923828125  6.50338541666667 11.74166015625  7.034140625 11.91408203125  C 7.56489583333333 12.08650390625  8.04850260416666 12.17271484375  8.4849609375 12.17271484375  Z M 8.525390625 13.20740234375  C 7.80875 13.20740234375  6.94122395833333 13.02150390625  5.9228125 12.64970703125  C 5.03912760416667 12.3317903645833  4.4383203125 12.17283203125  4.120390625 12.17283203125  L 1.79263671875 12.17283203125  C 1.50706380208333 12.17283203125  1.2632421875 12.0718033854167  1.061171875 11.86974609375  C 0.8591015625 11.6676888020833  0.758072916666667 11.4238671875  0.7580859375 11.13828125  L 0.7580859375 5.96546875  C 0.7580859375 5.67989583333333  0.859114583333333 5.43607421875  1.061171875 5.23400390625  C 1.26322916666667 5.03193359375  1.50705078125 4.93090494791666  1.79263671875 4.93091796875  L 4.120390625 4.93091796875  C 4.17427083333333 4.93091796875  4.23219401041667 4.9187890625  4.29416015625 4.89453125  C 4.35612630208333 4.8702734375  4.41944661458333 4.83255208333333  4.48412109375 4.7813671875  C 4.54879557291667 4.73018229166667  4.60940755208333 4.68169270833333  4.66595703125 4.6358984375  C 4.72250651041667 4.59010416666667  4.78716796875 4.52948567708333  4.85994140625 4.45404296875  C 4.93271484375 4.37860026041667  4.98794270833333 4.32067057291667  5.025625 4.28025390625  C 5.06330729166667 4.23983723958333  5.11449869791667 4.1819140625  5.17919921875 4.106484375  C 5.24389973958333 4.0310546875  5.28161458333333 3.98525390625  5.29234375 3.96908203125  C 5.64260416666667 3.57035807291666  5.91202473958333 3.22280598958333  6.10060546875 2.92642578125  C 6.17065755208333 2.81326171875  6.25956380208333 2.64622395833333  6.36732421875 2.4253125  C 6.47508463541667 2.20440104166666  6.57477213541667 2.01041666666667  6.66638671875 1.843359375  C 6.75800130208333 1.67630208333333  6.86712239583333 1.50656901041666  6.99375 1.33416015625  C 7.12037760416667 1.16175130208333  7.26856119791667 1.02839192708333  7.43830078125 0.934082031249998  C 7.60804036458333 0.839772135416665  7.79528645833333 0.792623697916665  8.0000390625 0.792636718749998  C 8.67358072916667 0.792636718749999  9.22992838541667 0.973151041666665  9.66908203125 1.3341796875  C 10.1082356770833 1.69520833333333  10.3278190104167 2.20440755208333  10.32783203125 2.86177734375  C 10.32783203125 3.22818359375  10.2685611979167 3.57304036458333  10.15001953125 3.89634765625  L 13.17291015625 3.89634765625  C 13.7333138020833 3.89634765625  14.2182552083333 4.10110026041667  14.627734375 4.51060546875  C 15.0372135416667 4.92011067708333  15.2419661458333 5.40236328125  15.2419921875 5.95736328125  C 15.2419921875 6.52311848958333  15.0385807291667 7.01076822916667  14.6317578125 7.4203125  C 14.2249348958333 7.82985677083333  13.7386393229167 8.034609375  13.17287109375 8.0345703125  L 11.8069140625 8.0345703125  C 11.7853645833333 8.36864583333334  11.6856770833333 8.6892578125  11.5078515625 8.99640625  C 11.5240234375 9.1095703125  11.532109375 9.22541666666667  11.532109375 9.3439453125  C 11.532109375 9.88817708333333  11.3704557291667 10.3677408854167  11.0471484375 10.78263671875  C 11.0525390625 11.53162109375  10.82353515625 12.1230013020833  10.36013671875 12.55677734375  C 9.89673828125 12.9905533854167  9.28515625 13.2074348958333  8.525390625 13.207421875  Z " fill-rule="nonzero" fill="#7d91a9" stroke="none" transform="matrix(1 0 0 1 -1 1 )" />
  </g>
</svg>