<?xml version="1.0" encoding="utf-8"?>
<svg version="1.1" xmlns:xlink="http://www.w3.org/1999/xlink" width="12px" height="12px" viewBox="442 320  12 12" xmlns="http://www.w3.org/2000/svg">
  <path d="M 442.5 321  A 0.5 0.5 0 0 1 443 320.5 L 453 320.5  A 0.5 0.5 0 0 1 453.5 321 L 453.5 331  A 0.5 0.5 0 0 1 453 331.5 L 443 331.5  A 0.5 0.5 0 0 1 442.5 331 L 442.5 321  Z " fill-rule="nonzero" fill="#ffffff" stroke="none" />
  <path d="M 442.5 321  A 0.5 0.5 0 0 1 443 320.5 L 453 320.5  A 0.5 0.5 0 0 1 453.5 321 L 453.5 331  A 0.5 0.5 0 0 1 453 331.5 L 443 331.5  A 0.5 0.5 0 0 1 442.5 331 L 442.5 321  Z " stroke-width="1" stroke="#999999" fill="none" />
</svg>