<?xml version="1.0" encoding="utf-8"?>
<svg version="1.1" xmlns:xlink="http://www.w3.org/1999/xlink" width="12px" height="12px" viewBox="442 600  12 12" xmlns="http://www.w3.org/2000/svg">
  <path d="M 442.5 601  A 0.5 0.5 0 0 1 443 600.5 L 453 600.5  A 0.5 0.5 0 0 1 453.5 601 L 453.5 611  A 0.5 0.5 0 0 1 453 611.5 L 443 611.5  A 0.5 0.5 0 0 1 442.5 611 L 442.5 601  Z " fill-rule="nonzero" fill="#ffffff" stroke="none" />
  <path d="M 442.5 601  A 0.5 0.5 0 0 1 443 600.5 L 453 600.5  A 0.5 0.5 0 0 1 453.5 601 L 453.5 611  A 0.5 0.5 0 0 1 453 611.5 L 443 611.5  A 0.5 0.5 0 0 1 442.5 611 L 442.5 601  Z " stroke-width="1" stroke="#999999" fill="none" />
</svg>