<?xml version="1.0" encoding="utf-8"?>
<svg version="1.1" xmlns:xlink="http://www.w3.org/1999/xlink" width="12px" height="12px" viewBox="570 462.5  12 12" xmlns="http://www.w3.org/2000/svg">
  <path d="M 576 462.5  C 579.36 462.5  582 465.14  582 468.5  C 582 471.86  579.36 474.5  576 474.5  C 572.64 474.5  570 471.86  570 468.5  C 570 465.14  572.64 462.5  576 462.5  Z " fill-rule="nonzero" fill="#ffffff" stroke="none" />
  <path d="M 576 463  C 579.08 463  581.5 465.42  581.5 468.5  C 581.5 471.58  579.08 474  576 474  C 572.92 474  570.5 471.58  570.5 468.5  C 570.5 465.42  572.92 463  576 463  Z " stroke-width="1" stroke="#0070cc" fill="none" />
  <path d="M 576 471.5  C 574.32 471.5  573 470.18  573 468.5  C 573 466.82  574.32 465.5  576 465.5  C 577.68 465.5  579 466.82  579 468.5  C 579 470.18  577.68 471.5  576 471.5  " fill-rule="nonzero" fill="#0070cc" stroke="none" />
</svg>