<?xml version="1.0" encoding="utf-8"?>
<svg version="1.1" xmlns:xlink="http://www.w3.org/1999/xlink" width="12px" height="12px" viewBox="169 38  12 12" xmlns="http://www.w3.org/2000/svg">
  <path d="M 169.5 39  A 0.5 0.5 0 0 1 170 38.5 L 180 38.5  A 0.5 0.5 0 0 1 180.5 39 L 180.5 49  A 0.5 0.5 0 0 1 180 49.5 L 170 49.5  A 0.5 0.5 0 0 1 169.5 49 L 169.5 39  Z " fill-rule="nonzero" fill="#ffffff" stroke="none" />
  <path d="M 169.5 39  A 0.5 0.5 0 0 1 170 38.5 L 180 38.5  A 0.5 0.5 0 0 1 180.5 39 L 180.5 49  A 0.5 0.5 0 0 1 180 49.5 L 170 49.5  A 0.5 0.5 0 0 1 169.5 49 L 169.5 39  Z " stroke-width="1" stroke="#999999" fill="none" />
</svg>