<?xml version="1.0" encoding="utf-8"?>
<svg version="1.1" xmlns:xlink="http://www.w3.org/1999/xlink" width="12px" height="12px" viewBox="159 86.5  12 12" xmlns="http://www.w3.org/2000/svg">
  <path d="M 165 86.5  C 168.36 86.5  171 89.14  171 92.5  C 171 95.86  168.36 98.5  165 98.5  C 161.64 98.5  159 95.86  159 92.5  C 159 89.14  161.64 86.5  165 86.5  Z " fill-rule="nonzero" fill="#ffffff" stroke="none" />
  <path d="M 165 87  C 168.08 87  170.5 89.42  170.5 92.5  C 170.5 95.58  168.08 98  165 98  C 161.92 98  159.5 95.58  159.5 92.5  C 159.5 89.42  161.92 87  165 87  Z " stroke-width="1" stroke="#0070cc" fill="none" />
  <path d="M 165 95.5  C 163.32 95.5  162 94.18  162 92.5  C 162 90.82  163.32 89.5  165 89.5  C 166.68 89.5  168 90.82  168 92.5  C 168 94.18  166.68 95.5  165 95.5  " fill-rule="nonzero" fill="#0070cc" stroke="none" />
</svg>