<?xml version="1.0" encoding="utf-8"?>
<svg version="1.1" xmlns:xlink="http://www.w3.org/1999/xlink" width="14px" height="14px" xmlns="http://www.w3.org/2000/svg">
  <g transform="matrix(1 0 0 1 -296 -81 )">
    <path d="M 10.3543125 0.2918125  L 3.646125 0.2918125  C 3.29 0.2918125  2.9001875 0.651875  2.9001875 1.0373125  L 2.9001875 2.155125  L 1.0373125 2.155125  C 0.675500000000001 2.155125  0.291812500000001 2.538375  0.291812500000001 2.9001875  L 0.291812500000001 12.9626875  C 0.291812500000001 13.3258125  0.651875000000001 13.708625  1.0373125 13.708625  L 10.3543125 13.708625  C 10.7275 13.708625  11.10025 13.3135625  11.10025 12.9626875  L 11.10025 11.844875  L 12.9635625 11.844875  C 13.33675 11.844875  13.7095 11.473875  13.7095 11.0989375  L 13.7095 3.6553125  L 10.3543125 0.291375000000003  Z M 10.3543125 3.6456875  L 10.3543125 1.409625  L 12.590375 3.6456875  L 10.3543125 3.6456875  Z M 10.3543125 11.8453125  L 10.3543125 12.9626875  L 1 12.9626875  L 1 2.9001875  L 2.900625 2.9001875  L 2.900625 11.099375  C 2.900625 11.4848125  3.2843125 11.8453125  3.6465625 11.8453125  L 10.3543125 11.8453125  Z M 12.9626875 11.0998125  L 3.646125 11.0998125  L 3.646125 1.0373125  L 9.6088125 1.0373125  L 9.6088125 3.6456875  C 9.6088125 3.980375  9.96275 4.3911875  10.35475 4.3911875  L 12.963125 4.3911875  L 12.963125 11.0998125  Z " fill-rule="nonzero" fill="#cccccc" stroke="none" transform="matrix(1 0 0 1 296 81 )" />
  </g>
</svg>