<?xml version="1.0" encoding="utf-8"?>
<svg version="1.1" xmlns:xlink="http://www.w3.org/1999/xlink" width="30px" height="30px" xmlns="http://www.w3.org/2000/svg">
  <g transform="matrix(1 0 0 1 1346 -2227 )">
    <path d="M 30 15  C 30 6.7157287525381  23.2842712474619 0  15 0  C 6.7157287525381 0  0 6.7157287525381  0 15  C 0 23.2842712474619  6.7157287525381 30  15 30  C 23.2842712474619 30  30 23.2842712474619  30 15  Z M 16.2885 7.5  L 16.2885 17.4465  C 16.2885 18.1585331137193  15.7112831137194 18.73575  14.99925 18.73575  C 14.2872168862806 18.73575  13.71 18.1585331137193  13.71 17.4465  L 13.71 7.5  C 13.71 6.78796688628065  14.2872168862806 6.21075  14.99925 6.21075  C 15.7112831137194 6.21075  16.2885 6.78796688628065  16.2885 7.5  Z M 13.125 21.9135  C 13.125 20.8779660940673  13.9644660940673 20.0385  15 20.0385  C 16.0355339059327 20.0385  16.875 20.8779660940673  16.875 21.9135  C 16.875 22.9490339059327  16.0355339059327 23.7885  15 23.7885  C 13.9644660940673 23.7885  13.125 22.9490339059327  13.125 21.9135  Z " fill-rule="nonzero" fill="#ffde03" stroke="none" transform="matrix(1 0 0 1 -1346 2227 )" />
  </g>
</svg>