<?xml version="1.0" encoding="utf-8"?>
<svg version="1.1" xmlns:xlink="http://www.w3.org/1999/xlink" width="297px" height="42px" xmlns="http://www.w3.org/2000/svg">
  <defs>
    <mask fill="white" id="clip261">
      <path d="M 152 39  L 147.833328502078 34  L 4 34  C 1.75999999999999 34  0 32.24  0 30  L 0 4  C 0 1.75999999999999  1.75999999999999 0  4 0  L 290 0  C 292.24 0  294 1.75999999999999  294 4  L 294 30  C 294 32.24  292.24 34  290 34  L 156.166690789071 34  L 152 39  Z " fill-rule="evenodd" />
    </mask>
    <filter x="-444px" y="2321px" width="297px" height="42px" filterUnits="userSpaceOnUse" id="filter262">
      <feOffset dx="2" dy="2" in="SourceAlpha" result="shadowOffsetInner" />
      <feGaussianBlur stdDeviation="0.5" in="shadowOffsetInner" result="shadowGaussian" />
      <feComposite in2="shadowGaussian" operator="atop" in="SourceAlpha" result="shadowComposite" />
      <feColorMatrix type="matrix" values="0 0 0 0 0.6  0 0 0 0 0.6  0 0 0 0 0.6  0 0 0 0.67843137254902 0  " in="shadowComposite" />
    </filter>
    <g id="widget263">
      <path d="M 152 39  L 147.833328502078 34  L 4 34  C 1.75999999999999 34  0 32.24  0 30  L 0 4  C 0 1.75999999999999  1.75999999999999 0  4 0  L 290 0  C 292.24 0  294 1.75999999999999  294 4  L 294 30  C 294 32.24  292.24 34  290 34  L 156.166690789071 34  L 152 39  Z " fill-rule="nonzero" fill="#ffffff" stroke="none" fill-opacity="0.996078431372549" transform="matrix(1 0 0 1 -444 2321 )" />
      <path d="M 152 39  L 147.833328502078 34  L 4 34  C 1.75999999999999 34  0 32.24  0 30  L 0 4  C 0 1.75999999999999  1.75999999999999 0  4 0  L 290 0  C 292.24 0  294 1.75999999999999  294 4  L 294 30  C 294 32.24  292.24 34  290 34  L 156.166690789071 34  L 152 39  Z " stroke-width="2" stroke="#f2f2f2" fill="none" transform="matrix(1 0 0 1 -444 2321 )" mask="url(#clip261)" />
    </g>
  </defs>
  <g transform="matrix(1 0 0 1 444 -2321 )">
    <use xlink:href="#widget263" filter="url(#filter262)" />
    <use xlink:href="#widget263" />
  </g>
</svg>