<?xml version="1.0" encoding="utf-8"?>
<svg version="1.1" xmlns:xlink="http://www.w3.org/1999/xlink" width="12px" height="12px" viewBox="32 132  12 12" xmlns="http://www.w3.org/2000/svg">
  <path d="M 32.5 133  A 0.5 0.5 0 0 1 33 132.5 L 43 132.5  A 0.5 0.5 0 0 1 43.5 133 L 43.5 143  A 0.5 0.5 0 0 1 43 143.5 L 33 143.5  A 0.5 0.5 0 0 1 32.5 143 L 32.5 133  Z " fill-rule="nonzero" fill="#ffffff" stroke="none" />
  <path d="M 32.5 133  A 0.5 0.5 0 0 1 33 132.5 L 43 132.5  A 0.5 0.5 0 0 1 43.5 133 L 43.5 143  A 0.5 0.5 0 0 1 43 143.5 L 33 143.5  A 0.5 0.5 0 0 1 32.5 143 L 32.5 133  Z " stroke-width="1" stroke="#999999" fill="none" />
</svg>