<?xml version="1.0" encoding="utf-8"?>
<svg version="1.1" xmlns:xlink="http://www.w3.org/1999/xlink" width="12px" height="12px" viewBox="32 221  12 12" xmlns="http://www.w3.org/2000/svg">
  <path d="M 32.5 222  A 0.5 0.5 0 0 1 33 221.5 L 43 221.5  A 0.5 0.5 0 0 1 43.5 222 L 43.5 232  A 0.5 0.5 0 0 1 43 232.5 L 33 232.5  A 0.5 0.5 0 0 1 32.5 232 L 32.5 222  Z " fill-rule="nonzero" fill="#ffffff" stroke="none" />
  <path d="M 32.5 222  A 0.5 0.5 0 0 1 33 221.5 L 43 221.5  A 0.5 0.5 0 0 1 43.5 222 L 43.5 232  A 0.5 0.5 0 0 1 43 232.5 L 33 232.5  A 0.5 0.5 0 0 1 32.5 232 L 32.5 222  Z " stroke-width="1" stroke="#999999" fill="none" />
</svg>