<?xml version="1.0" encoding="utf-8"?>
<svg version="1.1" xmlns:xlink="http://www.w3.org/1999/xlink" width="12px" height="12px" viewBox="169 160  12 12" xmlns="http://www.w3.org/2000/svg">
  <path d="M 169.5 161  A 0.5 0.5 0 0 1 170 160.5 L 180 160.5  A 0.5 0.5 0 0 1 180.5 161 L 180.5 171  A 0.5 0.5 0 0 1 180 171.5 L 170 171.5  A 0.5 0.5 0 0 1 169.5 171 L 169.5 161  Z " fill-rule="nonzero" fill="#ffffff" stroke="none" />
  <path d="M 169.5 161  A 0.5 0.5 0 0 1 170 160.5 L 180 160.5  A 0.5 0.5 0 0 1 180.5 161 L 180.5 171  A 0.5 0.5 0 0 1 180 171.5 L 170 171.5  A 0.5 0.5 0 0 1 169.5 171 L 169.5 161  Z " stroke-width="1" stroke="#0070cc" fill="none" />
  <path d="M 171.571428571429 166  L 174.142857142857 168.571428571429  " stroke-width="2.57142857142857" stroke="#0070cc" fill="none" />
  <path d="M 174.142857142857 168.571428571429  L 178.428571428571 162.571428571429  " stroke-width="2.57142857142857" stroke="#0070cc" fill="none" />
</svg>