<?xml version="1.0" encoding="utf-8"?>
<svg version="1.1" xmlns:xlink="http://www.w3.org/1999/xlink" width="12px" height="12px" viewBox="169 190  12 12" xmlns="http://www.w3.org/2000/svg">
  <path d="M 169.5 191  A 0.5 0.5 0 0 1 170 190.5 L 180 190.5  A 0.5 0.5 0 0 1 180.5 191 L 180.5 201  A 0.5 0.5 0 0 1 180 201.5 L 170 201.5  A 0.5 0.5 0 0 1 169.5 201 L 169.5 191  Z " fill-rule="nonzero" fill="#ffffff" stroke="none" />
  <path d="M 169.5 191  A 0.5 0.5 0 0 1 170 190.5 L 180 190.5  A 0.5 0.5 0 0 1 180.5 191 L 180.5 201  A 0.5 0.5 0 0 1 180 201.5 L 170 201.5  A 0.5 0.5 0 0 1 169.5 201 L 169.5 191  Z " stroke-width="1" stroke="#0070cc" fill="none" />
  <path d="M 171.571428571429 196  L 174.142857142857 198.571428571429  " stroke-width="2.57142857142857" stroke="#0070cc" fill="none" />
  <path d="M 174.142857142857 198.571428571429  L 178.428571428571 192.571428571429  " stroke-width="2.57142857142857" stroke="#0070cc" fill="none" />
</svg>