<?xml version="1.0" encoding="utf-8"?>
<svg version="1.1" xmlns:xlink="http://www.w3.org/1999/xlink" width="231px" height="89px" xmlns="http://www.w3.org/2000/svg">
  <defs>
    <filter x="0px" y="0px" width="231px" height="89px" filterUnits="userSpaceOnUse" id="filter487">
      <feOffset dx="2" dy="2" in="SourceAlpha" result="shadowOffsetInner" />
      <feGaussianBlur stdDeviation="0.5" in="shadowOffsetInner" result="shadowGaussian" />
      <feComposite in2="shadowGaussian" operator="atop" in="SourceAlpha" result="shadowComposite" />
      <feColorMatrix type="matrix" values="0 0 0 0 0.6  0 0 0 0 0.6  0 0 0 0 0.6  0 0 0 0.67843137254902 0  " in="shadowComposite" />
    </filter>
    <g id="widget488">
      <path d="M 0.5 4  A 3.5 3.5 0 0 1 4 0.5 L 224 0.5  A 3.5 3.5 0 0 1 227.5 4 L 227.5 82  A 3.5 3.5 0 0 1 224 85.5 L 4 85.5  A 3.5 3.5 0 0 1 0.5 82 L 0.5 4  Z " fill-rule="nonzero" fill="#ffffff" stroke="none" fill-opacity="0.996078431372549" />
      <path d="M 0.5 4  A 3.5 3.5 0 0 1 4 0.5 L 224 0.5  A 3.5 3.5 0 0 1 227.5 4 L 227.5 82  A 3.5 3.5 0 0 1 224 85.5 L 4 85.5  A 3.5 3.5 0 0 1 0.5 82 L 0.5 4  Z " stroke-width="1" stroke="#cccccc" fill="none" />
    </g>
  </defs>
  <g>
    <use xlink:href="#widget488" filter="url(#filter487)" />
    <use xlink:href="#widget488" />
  </g>
</svg>