<?xml version="1.0" encoding="utf-8"?>
<svg version="1.1" xmlns:xlink="http://www.w3.org/1999/xlink" width="12px" height="12px" viewBox="200 2321.5  12 12" xmlns="http://www.w3.org/2000/svg">
  <path d="M 206 2321.5  C 209.36 2321.5  212 2324.14  212 2327.5  C 212 2330.86  209.36 2333.5  206 2333.5  C 202.64 2333.5  200 2330.86  200 2327.5  C 200 2324.14  202.64 2321.5  206 2321.5  Z " fill-rule="nonzero" fill="#ffffff" stroke="none" />
  <path d="M 206 2322  C 209.08 2322  211.5 2324.42  211.5 2327.5  C 211.5 2330.58  209.08 2333  206 2333  C 202.92 2333  200.5 2330.58  200.5 2327.5  C 200.5 2324.42  202.92 2322  206 2322  Z " stroke-width="1" stroke="#999999" fill="none" />
  <path d="M 206 2330.5  C 204.32 2330.5  203 2329.18  203 2327.5  C 203 2325.82  204.32 2324.5  206 2324.5  C 207.68 2324.5  209 2325.82  209 2327.5  C 209 2329.18  207.68 2330.5  206 2330.5  " fill-rule="nonzero" fill="#999999" stroke="none" />
</svg>