<?xml version="1.0" encoding="utf-8"?>
<svg version="1.1" xmlns:xlink="http://www.w3.org/1999/xlink" width="7px" height="7px" xmlns="http://www.w3.org/2000/svg">
  <g transform="matrix(1 0 0 1 -31 -1907 )">
    <path d="M 6.843359375 1.290625  C 6.843359375 0.759960937500001  6.409375 0.328125  5.880859375 0.328125  L 1.3927734375 0.328125  C 0.8642578125 0.328125  0.4302734375 0.759960937500001  0.4302734375 1.290625  C 0.4302734375 1.819140625  0.862109375000001 2.253125  1.3927734375 2.253125  L 5.880859375 2.253125  C 6.409375 2.253125  6.843359375 1.8212890625  6.843359375 1.290625  Z M 5.880859375 6.098828125  C 6.409375 6.0966796875  6.843359375 5.66484375  6.843359375 5.136328125  C 6.843359375 4.6078125  6.4115234375 4.173828125  5.880859375 4.173828125  L 1.3927734375 4.173828125  C 0.8642578125 4.173828125  0.4302734375 4.6056640625  0.4302734375 5.136328125  C 0.4302734375 5.66484375  0.862109375000001 6.098828125  1.3927734375 6.098828125  L 5.880859375 6.098828125  Z " fill-rule="nonzero" fill="#666666" stroke="none" transform="matrix(1 0 0 1 31 1907 )" />
  </g>
</svg>