<?xml version="1.0" encoding="utf-8"?>
<svg version="1.1" xmlns:xlink="http://www.w3.org/1999/xlink" width="14px" height="14px" xmlns="http://www.w3.org/2000/svg">
  <g transform="matrix(1 0 0 1 77 -1154 )">
    <path d="M 7.73877631578947 1.838375  L 7.73877631578947 2.94655674342105  C 9.17473766447368 3.09072450657895  10.4560830592105 4.19985608552632  10.7018314144737 5.68175493421053  L 8.84424671052632 5.15575328947368  L 11.0556710526316 7.37063157894737  L 13.2661628289474 5.15426809210526  L 11.5073955592105 5.69325657894737  C 11.261578125 3.69758305921053  9.64782483552632 2.02314391447368  7.73877631578947 1.838375  Z M 5.52781825657895 12.8877080592105  L 5.52781825657895 11.78384375  C 3.92206085526316 11.6397623355263  2.71608059210526 10.7734950657895  2.65955674342105 9.00329523026316  L 4.4223478618421 9.57766940789474  L 2.21137253289474 7.36842105263158  L 0.000431743421052893 9.57834292763158  L 1.80757154605263 8.99754440789474  C 1.84468421052632 11.2823305921053  3.46759046052632 12.6816800986842  5.52781825657895 12.8877080592105  Z M 13.2661628289474 8.47447861842105  L 7.73877631578947 8.47447861842105  L 7.73877631578947 13.993765625  L 13.2661628289474 13.993765625  L 13.2661628289474 8.47447861842105  Z M 12.1606924342105 12.8899185855263  L 8.84424671052632 12.8899185855263  L 8.84424671052632 9.57834292763158  L 12.1606751644737 9.57834292763158  L 12.1606751644737 12.8899185855263  Z M 5.52781825657895 0.736669407894737  L 0.000431743421052893 0.736669407894737  L 0.000431743421052893 6.25595641447368  L 5.52781825657895 6.25595641447368  L 5.52781825657895 0.736669407894737  Z M 4.42234786184211 5.152109375  L 1.10590213815789 5.152109375  L 1.10590213815789 1.84053371710526  L 4.42233059210526 1.84053371710526  L 4.42233059210526 5.152109375  Z " fill-rule="nonzero" fill="#f59a23" stroke="none" transform="matrix(1 0 0 1 -77 1154 )" />
  </g>
</svg>