<?xml version="1.0" encoding="utf-8"?>
<svg version="1.1" xmlns:xlink="http://www.w3.org/1999/xlink" width="8px" height="10px" xmlns="http://www.w3.org/2000/svg">
  <g transform="matrix(1 0 0 1 -1039 -1124 )">
    <path d="M 7.2162109375 0.05859375  C 6.8380859375 0.05859375  6.5287109375 0.367968749999999  6.5287109375 0.74609375  L 6.5287109375 9.25390625  C 6.5287109375 9.63203125  6.8380859375 9.94140625  7.2162109375 9.94140625  C 7.5943359375 9.94140625  7.9037109375 9.63203125  7.9037109375 9.25390625  L 7.9037109375 0.74609375  C 7.9037109375 0.367968749999999  7.5943359375 0.05859375  7.2162109375 0.05859375  Z M 5.731640625 4.9978515625  C 5.7337890625 5.1783203125  5.6650390625 5.34375  5.551171875 5.4662109375  L 5.5125 5.5048828125  L 5.044140625 5.9732421875  L 1.2693359375 9.748046875  C 1.0029296875 10.0166015625  0.564648437500001 10.0166015625  0.298242187499998 9.7501953125  C 0.0318359374999986 9.481640625  0.0318359374999986 9.043359375  0.298242187499998 8.776953125  L 4.073046875 5  L 0.296093749999997 1.2251953125  C 0.0296874999999979 0.956640625  0.0296874999999979 0.518359375000001  0.296093749999997 0.251953125  C 0.564648437499997 -0.0144531249999993  1.0029296875 -0.0144531249999993  1.2693359375 0.251953125  L 5.044140625 4.0267578125  L 5.5060546875 4.488671875  L 5.5533203125 4.5359375  C 5.6650390625 4.6583984375  5.731640625 4.81953125  5.731640625 4.9978515625  Z " fill-rule="nonzero" fill="#666666" stroke="none" transform="matrix(1 0 0 1 1039 1124 )" />
  </g>
</svg>