<?xml version="1.0" encoding="utf-8"?>
<svg version="1.1" xmlns:xlink="http://www.w3.org/1999/xlink" width="12px" height="12px" viewBox="9 99  12 12" xmlns="http://www.w3.org/2000/svg">
  <path d="M 9.5 100  A 0.5 0.5 0 0 1 10 99.5 L 20 99.5  A 0.5 0.5 0 0 1 20.5 100 L 20.5 110  A 0.5 0.5 0 0 1 20 110.5 L 10 110.5  A 0.5 0.5 0 0 1 9.5 110 L 9.5 100  Z " fill-rule="nonzero" fill="#ffffff" stroke="none" />
  <path d="M 9.5 100  A 0.5 0.5 0 0 1 10 99.5 L 20 99.5  A 0.5 0.5 0 0 1 20.5 100 L 20.5 110  A 0.5 0.5 0 0 1 20 110.5 L 10 110.5  A 0.5 0.5 0 0 1 9.5 110 L 9.5 100  Z " stroke-width="1" stroke="#999999" fill="none" />
</svg>