<?xml version="1.0" encoding="utf-8"?>
<svg version="1.1" xmlns:xlink="http://www.w3.org/1999/xlink" width="12px" height="12px" viewBox="9 219  12 12" xmlns="http://www.w3.org/2000/svg">
  <path d="M 9.5 220  A 0.5 0.5 0 0 1 10 219.5 L 20 219.5  A 0.5 0.5 0 0 1 20.5 220 L 20.5 230  A 0.5 0.5 0 0 1 20 230.5 L 10 230.5  A 0.5 0.5 0 0 1 9.5 230 L 9.5 220  Z " fill-rule="nonzero" fill="#ffffff" stroke="none" />
  <path d="M 9.5 220  A 0.5 0.5 0 0 1 10 219.5 L 20 219.5  A 0.5 0.5 0 0 1 20.5 220 L 20.5 230  A 0.5 0.5 0 0 1 20 230.5 L 10 230.5  A 0.5 0.5 0 0 1 9.5 230 L 9.5 220  Z " stroke-width="1" stroke="#0070cc" fill="none" />
  <path d="M 11.5714285714286 225  L 14.1428571428571 227.571428571429  " stroke-width="2.57142857142857" stroke="#0070cc" fill="none" />
  <path d="M 14.1428571428571 227.571428571429  L 18.4285714285714 221.571428571429  " stroke-width="2.57142857142857" stroke="#0070cc" fill="none" />
</svg>