<?xml version="1.0" encoding="utf-8"?>
<svg version="1.1" xmlns:xlink="http://www.w3.org/1999/xlink" width="12px" height="12px" viewBox="9 249  12 12" xmlns="http://www.w3.org/2000/svg">
  <path d="M 9.5 250  A 0.5 0.5 0 0 1 10 249.5 L 20 249.5  A 0.5 0.5 0 0 1 20.5 250 L 20.5 260  A 0.5 0.5 0 0 1 20 260.5 L 10 260.5  A 0.5 0.5 0 0 1 9.5 260 L 9.5 250  Z " fill-rule="nonzero" fill="#ffffff" stroke="none" />
  <path d="M 9.5 250  A 0.5 0.5 0 0 1 10 249.5 L 20 249.5  A 0.5 0.5 0 0 1 20.5 250 L 20.5 260  A 0.5 0.5 0 0 1 20 260.5 L 10 260.5  A 0.5 0.5 0 0 1 9.5 260 L 9.5 250  Z " stroke-width="1" stroke="#999999" fill="none" />
</svg>