<?xml version="1.0" encoding="utf-8"?>
<svg version="1.1" xmlns:xlink="http://www.w3.org/1999/xlink" width="10px" height="8px" xmlns="http://www.w3.org/2000/svg">
  <g transform="matrix(1 0 0 1 -792 -1125 )">
    <path d="M 9.04399999999998 1.53000649390629  L 5.84799999999996 6.64300136201404  C 5.66566072307955 6.93721799717886  5.34413756525748 7.11621819940558  4.99800000000005 7.11621819940558  C 4.6518624347425 7.11621819940558  4.33033927692043 6.93721799717886  4.14800000000002 6.64300136201404  L 0.947999999999979 1.53000649390629  C 0.848664114222856 1.37107302669916  0.795992622959602 1.18742216828082  0.795992622959602 0.999998996305056  C 0.795992622959602 0.447714800799677  1.24370787312876 0  1.7959926229596 0  C 1.79732841932866 0  1.79866421435668 0  1.79999999999995 0  L 8.20000000000005 0  C 8.75072176928245 0.00220688952296639  9.19600734024584 0.449273448981704  9.19600734024584 0.999999055174884  C 9.19600734024584 1.18742220355255  9.14333586223631 1.37107303981402  9.04399999999998 1.53000649390629  Z " fill-rule="nonzero" fill="#cccccc" stroke="none" transform="matrix(1 0 0 1 792 1125 )" />
  </g>
</svg>