<?xml version="1.0" encoding="utf-8"?>
<svg version="1.1" xmlns:xlink="http://www.w3.org/1999/xlink" width="16px" height="16px" xmlns="http://www.w3.org/2000/svg">
  <g transform="matrix(1 0 0 1 -1899 -247 )">
    <path d="M 15.4666666666667 8.04444444444444  C 15.4620130608771 3.94719343597638  12.1416954529125 0.626875828011794  8.04444444444444 0.622222222222222  C 3.94526430125589 0.622222222222223  0.622222222222223 3.94526430125589  0.622222222222223 8.04444444444444  C 0.622222222222223 12.143624587633  3.94526430125589 15.4666666666667  8.04444444444444 15.4666666666667  C 12.143624587633 15.4666666666667  15.4666666666667 12.143624587633  15.4666666666667 8.04444444444444  Z M 7.39102222222222 6.17048888888889  L 7.39102222222222 11.1700444444444  C 7.39102222222222 11.4736292349292  7.1449181238181 11.7197333333333  6.84133333333333 11.7197333333333  C 6.53774854284857 11.7197333333333  6.29164444444445 11.4736292349292  6.29164444444444 11.1700444444444  L 6.29164444444444 7.32115555555556  L 5.38577777777778 8.22693333333333  C 5.28268518132726 8.33002592978385  5.14286161474725 8.38794274740067  4.99706666666667 8.38794274740067  C 4.69346440394164 8.38794274740067  4.44734614148822 8.14182448494726  4.44734614148822 7.83822222222222  C 4.44734614148822 7.69242727414165  4.50526295910504 7.55260370756163  4.60835555555556 7.44951111111111  L 6.34604444444444 5.71191111111111  C 6.537210555568 5.51997315662787  6.83198717265434 5.47694192302251  7.07004444444445 5.60622222222222  C 7.27222922804997 5.72140631916907  7.39534318197466 5.93783594517682  7.39102222222222 6.17048888888889  Z M 11.5904316362896 8.07671111111111  C 11.5904316362896 8.22250605919169  11.5325148186727 8.36232962577171  11.4294222222222 8.46542222222222  L 9.69173333333333 10.2030222222222  C 9.57731009213864 10.3180145282567  9.42177734376708 10.382665224361  9.25955555555556 10.3826666666667  C 9.1336735913496 10.3824172794972  9.01086740942155 10.3437457368547  8.90755555555556 10.2718222222222  C 8.74054947436549 10.150959520978  8.64319049930519 9.95607559919863  8.64684444444445 9.74995555555556  L 8.64684444444445 4.74497777777778  C 8.64684444444445 4.44139298010601  8.89294854284857 4.19528888170188  9.19653333333333 4.19528888170188  C 9.50020701270699 4.19528888888889  9.74631111111111 4.44139298729301  9.74631111111111 4.74497777777778  L 9.74631111111111 8.59386666666667  L 10.652 7.688  C 10.7550925964505 7.58490740354948  10.8949161630305 7.52699058593266  11.0407111111111 7.52699058593266  C 11.3443133738361 7.52699058593266  11.5904316362896 7.77310884838608  11.5904316362896 8.07671111111111  Z " fill-rule="nonzero" fill="#0070cc" stroke="none" transform="matrix(1 0 0 1 1899 247 )" />
  </g>
</svg>