<?xml version="1.0" encoding="utf-8"?>
<svg version="1.1" xmlns:xlink="http://www.w3.org/1999/xlink" width="201px" height="107px" xmlns="http://www.w3.org/2000/svg">
  <g transform="matrix(1 0 0 1 -31 -19 )">
    <path d="M 200 107  L 0 107  L 0 2.87504347826101  C 0.0429186309541987 3.86956527208835  0.819880668551748 4.65227450947382  1.76315789473684 4.65124347826068  C 2.73692311154366 4.65124347826068  3.52631578947368 3.81810379533742  3.52631578947368 2.79037391304329  C 3.52619881677363 2.72820772393706  3.52296182559232 2.66609171358393  3.51661842105266 2.60428695652172  L 3.53513157894756 2.60428695652172  C 3.62568125487208 1.6533992671068  4.38397692432065 0.929492341751907  5.28947368421053 0.929504347825897  C 6.1949704441 0.929492341751907  6.95326611354897 1.6533992671068  7.04381578947349 2.60428695652172  L 7.06144736842084 2.60428695652172  C 7.05615789473676 2.66383478260896  7.05263157894697 2.7280347826085  7.05263157894697 2.79037391304329  C 7.05263157894697 3.81810379533742  7.84202425687699 4.65124347826068  8.81578947368381 4.65124347826068  C 9.78955469049063 4.65124347826068  10.5789473684207 3.81810379533742  10.5789473684203 2.79037391304329  C 10.5788303957202 2.72820772393706  10.5755934045389 2.66609171358393  10.5692499999996 2.60428695652172  L 10.5877631578945 2.60428695652172  C 10.6783128338191 1.6533992671068  11.4366085032676 0.929492341751907  12.3421052631575 0.929504347825897  C 13.247602023047 0.929492341751907  14.0058976924959 1.6533992671068  14.0964473684205 2.60428695652172  L 14.1149605263154 2.60428695652172  C 14.1084939614916 2.6660810375708  14.1052566038411 2.7282040802559  14.1052631578943 2.79037391304329  C 14.1052631578943 3.81810379533742  14.8946558358244 4.65124347826068  15.8684210526312 4.65124347826068  C 16.842186269438 4.65124347826068  17.631578947368 3.81810379533742  17.6315789473676 2.79037391304329  C 17.631461974668 2.72820772393706  17.6282249834863 2.66609171358393  17.621881578947 2.60428695652172  L 17.641276315789 2.60428695652172  C 17.7322140821908 1.65412208013781  18.4898826715365 0.930852182498798  19.3947368421053 0.930434782608696  C 20.3002336019947 0.930422776534705  21.0585292714437 1.6543297018896  21.1490789473682 2.60521739130452  L 21.1675921052627 2.60521739130452  C 21.1611255404398 2.66701147235275  21.1578881827893 2.72913451503954  21.1578947368421 2.79130434782609  C 21.1578947368421 3.81903423012022  21.9472874147721 4.65217391304348  22.9210526315789 4.65217391304348  C 23.8948178483858 4.65217391304348  24.6842105263158 3.81903423012022  24.6842105263158 2.79130434782609  C 24.6842105263158 2.7280347826085  24.6842105263158 2.66383478260896  24.6753947368419 2.60521739130452  L 24.6939078947368 2.60521739130452  C 24.7844575706613 1.6543297018896  25.5427532401099 0.930422776534705  26.4482499999998 0.930434782608696  C 27.3537467598893 0.930422776534705  28.1120424293382 1.6543297018896  28.2025921052627 2.60521739130452  L 28.2202236842101 2.60521739130452  C 28.214934210526 2.66476521739176  28.2114078947362 2.7289652173913  28.2114078947362 2.79130434782609  C 28.2114078947362 3.81903423012022  29.0008005726662 4.65217391304348  29.9745657894731 4.65217391304348  C 30.9483310062799 4.65217391304348  31.7377236842099 3.81903423012022  31.7377236842099 2.79130434782609  C 31.7377236842099 2.7280347826085  31.7377236842099 2.66383478260896  31.728907894736 2.60521739130452  L 31.7474210526309 2.60521739130452  C 31.8379707285555 1.6543297018896  32.596266398004 0.930422776534705  33.5017631578939 0.930434782608696  C 34.4072599177834 0.930422776534705  35.1655555872323 1.6543297018896  35.2561052631569 2.60521739130452  L 35.2728552631567 2.60521739130452  C 35.2728552631567 2.65080869565232  35.2658026315779 2.69826086956573  35.2649210526303 2.74943478260863  C 35.2649210526303 2.76525217391281  35.2649210526303 2.78013913043505  35.2649210526303 2.79502608695643  C 35.2649210526303 2.80991304347782  35.2649210526303 2.82573043478285  35.2649210526303 2.84154782608704  C 35.2888412034882 3.85106502451277  36.0712710904499 4.6562112730199  37.0280789473672 4.65589565217382  C 37.9848868042845 4.6562112730199  38.7673166912462 3.85106502451277  38.791236842104 2.84154782608704  C 38.791236842104 2.82604057971045  38.791236842104 2.81053333333302  38.791236842104 2.79502608695643  C 38.791236842104 2.779518840579  38.791236842104 2.76463188405761  38.791236842104 2.75036521739143  C 38.791236842104 2.70198260869607  38.791236842104 2.65732173913022  38.7824210526301 2.60521739130452  L 38.8000526315775 2.60521739130452  C 38.8905344113796 1.65503801944497  39.6478098104894 0.931377798418172  40.5526315789474 0.930434782608696  C 41.4581283388368 0.930422776534705  42.2164240082858 1.6543297018896  42.3069736842103 2.60521739130452  L 42.3246052631577 2.60521739130452  C 42.319903508772 2.65173913043512  42.3169649122809 2.69981159420288  42.3157894736838 2.74943478260863  C 42.3157894736838 2.76432173913002  42.3157894736838 2.78013913043505  42.3157894736838 2.79502608695643  C 42.3157894736838 2.80991304347782  42.3157894736838 2.82573043478285  42.3157894736838 2.84154782608704  C 42.3397096245416 3.85106502451277  43.1221395115033 4.6562112730199  44.0789473684207 4.65589565217382  C 45.0527125852275 4.65589565217382  45.8421052631575 3.82275596925057  45.8421052631571 2.79502608695643  C 45.841988290457 2.73285989785021  45.8387512992757 2.67074388749708  45.8324078947365 2.60893913043486  L 45.8509210526314 2.60893913043486  C 45.9414707285563 1.65805144102079  46.6997663980049 0.934144515665052  47.6052631578943 0.934156521739042  C 48.5107599177842 0.934144515665052  49.2690555872324 1.65805144101995  49.3596052631573 2.60893913043486  L 49.3772368421047 2.60893913043486  C 49.3719473684206 2.6684869565221  49.3684210526308 2.73268695652164  49.3684210526308 2.79502608695643  C 49.3684210526308 3.82275596925057  50.1578137305608 4.65589565217382  51.1315789473676 4.65589565217382  C 52.1053441641744 4.65589565217382  52.8947368421045 3.82275596925057  52.8947368421045 2.79502608695643  C 52.8946198694044 2.73285989785021  52.8913828782227 2.67074388749708  52.8850394736834 2.60893913043486  L 52.9035526315783 2.60893913043486  C 52.9941023075033 1.65805144102079  53.7523979769518 0.934144515665052  54.6578947368413 0.934156521739042  C 55.5633914967312 0.934144515665052  56.3216871661793 1.65805144101995  56.4122368421043 2.60893913043486  L 56.4298684210516 2.60893913043486  C 56.4245789473675 2.6684869565221  56.4210526315777 2.73268695652164  56.4210526315777 2.79502608695643  C 56.4210526315777 3.82275596925057  57.2104453095078 4.65589565217382  58.1842105263146 4.65589565217382  C 59.1579757431214 4.65589565217382  59.9473684210514 3.82275596925057  59.9473684210514 2.79502608695643  C 59.9473684210514 2.73175652173885  59.9473684210514 2.66755652173931  59.9385526315776 2.60893913043486  L 59.9561842105249 2.60893913043486  C 60.0467338864498 1.65805144102079  60.8050295558984 0.934144515665052  61.7105263157879 0.934156521739042  C 62.6163605095531 0.933666506629909  63.3751666877079 1.65769695470179  63.4657499999984 2.60893913043486  L 63.4824999999982 2.60893913043486  C 63.4824999999982 2.65453043478267  63.4754473684194 2.70198260869607  63.4745657894719 2.75315652173897  C 63.4745657894719 2.76897391304316  63.4745657894719 2.78386086956539  63.4745657894719 2.79874782608678  C 63.4745657894719 2.81363478260817  63.4745657894719 2.8294521739132  63.4745657894719 2.84526956521738  C 63.4984859403301 3.85478676364227  64.2809158272914 4.65993301215025  65.2377236842087 4.65961739130417  C 66.2114889010155 4.65961739130417  67.0008815789455 3.82647770838091  67.0008815789455 2.79874782608678  C 67.0007646062455 2.73658163698055  66.9975276150642 2.67446562662742  66.9911842105245 2.61266086956521  L 67.0096973684194 2.61266086956521  C 67.1002470443439 1.66177318015029  67.8585427137925 0.937866254795399  68.7640394736824 0.937878260869389  C 69.6695362335719 0.937866254795399  70.4278319030208 1.66177318015029  70.5183815789454 2.61266086956521  L 70.5360131578927 2.61266086956521  C 70.5307236842086 2.67220869565245  70.5271973684188 2.73640869565199  70.5271973684188 2.79874782608678  C 70.5271973684188 3.82647770838091  71.3165900463488 4.65961739130417  72.2903552631557 4.65961739130417  C 73.2641204799625 4.65961739130417  74.0535131578925 3.82647770838091  74.0535131578925 2.79874782608678  C 74.0533961851921 2.73658163698055  74.0501591940107 2.67446562662658  74.0438157894715 2.61266086956521  L 74.0623289473664 2.61266086956521  C 74.1528786232909 1.66177318015029  74.9111742927395 0.937866254795399  75.8166710526294 0.937878260869389  C 76.7221678125188 0.937866254795399  77.4804634819678 1.66177318015029  77.5710131578923 2.61266086956521  L 77.5895263157868 2.61266086956521  C 77.5830597509634 2.67445495061345  77.579822393313 2.73657799330024  77.5798289473662 2.79874782608678  C 77.5798289473662 3.82647770838091  78.3692216252962 4.65961739130417  79.342986842103 4.65961739130417  C 80.3167520589099 4.65961739130417  81.1061447368399 3.82647770838091  81.1061447368395 2.79874782608678  C 81.1060277641394 2.73658163698055  81.1027907729581 2.67446562662742  81.0964473684189 2.61266086956521  L 81.1158421052609 2.61266086956521  C 81.2029391351007 1.65953405467726  81.961152173232 0.931757566132017  82.8684210526316 0.930434782608696  C 83.773917812521 0.930422776534705  84.53221348197 1.6543297018896  84.6227631578945 2.60521739130452  L 84.6412763157895 2.60521739130452  C 84.6348097509661 2.66701147235275  84.6315723933156 2.72913451503954  84.6315789473684 2.79130434782609  C 84.6315789473684 3.81903423012022  85.4209716252984 4.65217391304348  86.3947368421053 4.65217391304348  C 87.3685020589121 4.65217391304348  88.1578947368421 3.81903423012022  88.1578947368421 2.79130434782609  C 88.1578947368421 2.7280347826085  88.1578947368421 2.66383478260896  88.1490789473682 2.60521739130452  L 88.1675921052631 2.60521739130452  C 88.2581417811876 1.6543297018896  89.0164374506362 0.930422776534705  89.9219342105261 0.930434782608696  C 90.8274309704156 0.930422776534705  91.5857266398645 1.6543297018896  91.6762763157891 2.60521739130452  L 91.6939078947364 2.60521739130452  C 91.6886184210523 2.66476521739176  91.6850921052625 2.7289652173913  91.6850921052625 2.79130434782609  C 91.6850921052625 3.81903423012022  92.4744847831926 4.65217391304348  93.4482499999994 4.65217391304348  C 94.4220152168062 4.65217391304348  95.2114078947362 3.81903423012022  95.2114078947362 2.79130434782609  C 95.2114078947362 2.7280347826085  95.2114078947362 2.66383478260896  95.2025921052624 2.60521739130452  L 95.2211052631572 2.60521739130452  C 95.3116549390818 1.6543297018896  96.0699506085303 0.930422776534705  96.9754473684202 0.930434782608696  C 97.8809441283097 0.930422776534705  98.6392397977587 1.6543297018896  98.7297894736832 2.60521739130452  L 98.746539473683 2.60521739130452  C 98.746539473683 2.65080869565232  98.7394868421042 2.69826086956573  98.7386052631567 2.74943478260863  C 98.7386052631567 2.76525217391281  98.7386052631567 2.78013913043505  98.7386052631567 2.79502608695643  C 98.7386052631567 2.80991304347782  98.7386052631567 2.82573043478285  98.7386052631567 2.84154782608704  C 98.7625254140145 3.85106502451277  99.5449553009762 4.6562112730199  100.501763157894 4.65589565217382  C 101.458571014811 4.6562112730199  102.241000901773 3.85106502451277  102.26492105263 2.84154782608704  C 102.26492105263 2.82604057971045  102.26492105263 2.81053333333302  102.26492105263 2.79502608695643  C 102.26492105263 2.779518840579  102.26492105263 2.76463188405761  102.26492105263 2.75036521739143  C 102.26492105263 2.70198260869607  102.26492105263 2.65732173913022  102.256105263156 2.60521739130452  L 102.273736842104 2.60521739130452  C 102.364218621906 1.65503801944497  103.121494021016 0.931377798418172  104.026315789474 0.930434782608696  C 104.931812549363 0.930422776534705  105.690108218812 1.6543297018896  105.780657894737 2.60521739130452  L 105.798289473684 2.60521739130452  C 105.793587719298 2.65173913043512  105.790649122807 2.69981159420288  105.78947368421 2.74943478260863  C 105.78947368421 2.76432173913002  105.78947368421 2.78013913043505  105.78947368421 2.79502608695643  C 105.78947368421 2.80991304347782  105.78947368421 2.82573043478285  105.78947368421 2.84154782608704  C 105.813393835068 3.85106502451277  106.59582372203 4.6562112730199  107.552631578947 4.65589565217382  C 108.526396795754 4.65589565217382  109.315789473684 3.82275596925057  109.315789473684 2.79502608695643  C 109.315776524991 2.73285682034976  109.312539226144 2.67073490608099  109.306092105263 2.60893913043486  L 109.324605263158 2.60893913043486  C 109.415154939083 1.65805144102079  110.173450608531 0.934144515665052  111.078947368421 0.934156521739042  C 111.984444128311 0.934144515665052  112.742739797759 1.65805144101995  112.833289473684 2.60893913043486  L 112.850921052631 2.60893913043486  C 112.845631578947 2.66755652173931  112.842105263157 2.73268695652164  112.842105263157 2.79502608695643  C 112.842105263157 3.82275596925057  113.631497941087 4.65589565217382  114.605263157894 4.65589565217382  C 115.579028374701 4.65589565217382  116.368421052631 3.82275596925057  116.368421052631 2.79502608695643  C 116.368304079931 2.73285989785021  116.365067088749 2.67074388749708  116.35872368421 2.60893913043486  L 116.377236842105 2.60893913043486  C 116.46778651803 1.65805144102079  117.226082187478 0.934144515665052  118.131578947368 0.934156521739042  C 119.037075707257 0.934144515665052  119.795371376706 1.65805144101995  119.885921052631 2.60893913043486  L 119.903552631578 2.60893913043486  C 119.898263157894 2.6684869565221  119.894736842104 2.73268695652164  119.894736842104 2.79502608695643  C 119.894736842104 3.82275596925057  120.684129520034 4.65589565217382  121.657894736841 4.65589565217382  C 122.631659953648 4.65589565217382  123.421052631578 3.82275596925057  123.421052631578 2.79502608695643  C 123.421052631578 2.73175652173885  123.421052631578 2.66755652173931  123.412236842104 2.60893913043486  L 123.429868421051 2.60893913043486  C 123.520418096976 1.65805144102079  124.278713766425 0.934144515665052  125.184210526314 0.934156521739042  C 126.090044720079 0.933666506629909  126.848850898234 1.65769695470179  126.939434210525 2.60893913043486  L 126.956184210524 2.60893913043486  C 126.956184210524 2.65453043478267  126.949131578946 2.70198260869607  126.948249999998 2.75315652173897  C 126.948249999998 2.76897391304316  126.948249999998 2.78386086956539  126.948249999998 2.79874782608678  C 126.948249999998 2.81363478260817  126.948249999998 2.8294521739132  126.948249999998 2.84526956521738  C 126.972170150856 3.85478676364227  127.754600037818 4.65993301215025  128.711407894735 4.65961739130417  C 129.685173111542 4.65961739130417  130.474565789472 3.82647770838091  130.474565789472 2.79874782608678  C 130.474448816772 2.73658163698055  130.471211825591 2.67446562662742  130.464868421051 2.61266086956521  L 130.483381578946 2.61266086956521  C 130.57393125487 1.66177318015029  131.332226924319 0.937866254795399  132.237723684209 0.937878260869389  C 133.143220444098 0.937866254795399  133.901516113547 1.66177318015029  133.992065789472 2.61266086956521  L 134.009697368419 2.61266086956521  C 134.004407894735 2.67127826086965  134.000881578945 2.73640869565199  134.000881578945 2.79874782608678  C 134.000881578945 3.82647770838091  134.790274256875 4.65961739130417  135.764039473682 4.65961739130417  C 136.737804690489 4.65961739130417  137.527197368419 3.82647770838091  137.527197368418 2.79874782608678  C 137.527080395718 2.73658163698055  137.523843404537 2.67446562662742  137.517499999998 2.61266086956521  L 137.536013157893 2.61266086956521  C 137.626562833817 1.66177318015029  138.384858503266 0.937866254795399  139.290355263156 0.937878260869389  C 140.195852023045 0.937866254795399  140.954147692494 1.66177318015029  141.044697368419 2.61266086956521  L 141.063210526313 2.61266086956521  C 141.05674396149 2.67445495061345  141.053506603839 2.73657799330024  141.053513157893 2.79874782608678  C 141.053513157893 3.82647770838091  141.842905835823 4.65961739130417  142.816671052629 4.65961739130417  C 143.790436269436 4.65961739130417  144.579828947366 3.82647770838091  144.579828947366 2.79874782608678  C 144.579711974666 2.73658163698055  144.576474983484 2.67446562662742  144.570131578945 2.61266086956521  L 144.589526315787 2.61266086956521  C 144.676623345627 1.65953405467726  145.434836383758 0.931757566132017  146.342105263158 0.930434782608696  C 147.247602023047 0.930422776534705  148.005897692496 1.6543297018896  148.096447368421 2.60521739130452  L 148.114960526316 2.60521739130367  C 148.108799079151 2.66702949217061  148.105856058341 2.72915186784214  148.106144736842 2.79130434782609  C 148.106144736842 3.81903423012022  148.895537414772 4.65217391304348  149.869302631579 4.65217391304348  C 150.843067848386 4.65217391304348  151.632460526316 3.81903423012022  151.632460526316 2.79130434782609  C 151.632460526316 2.7280347826085  151.632460526316 2.66383478260896  151.623644736842 2.60521739130452  L 151.642157894737 2.60521739130452  C 151.732707570661 1.6543297018896  152.49100324011 0.930422776534705  153.3965 0.930434782608696  C 154.301996759889 0.930422776534705  155.060292429338 1.6543297018896  155.150842105263 2.60521739130452  L 155.16847368421 2.60521739130452  C 155.163184210526 2.66476521739176  155.159657894736 2.7289652173913  155.159657894736 2.79130434782609  C 155.159657894736 3.81903423012022  155.949050572666 4.65217391304348  156.922815789473 4.65217391304348  C 157.89658100628 4.65217391304348  158.68597368421 3.81903423012022  158.68597368421 2.79130434782609  C 158.68597368421 2.7280347826085  158.68597368421 2.66383478260896  158.677157894736 2.60521739130452  L 158.695671052631 2.60521739130452  C 158.786220728555 1.6543297018896  159.544516398004 0.930422776534705  160.450013157894 0.930434782608696  C 161.355509917783 0.930422776534705  162.113805587232 1.6543297018896  162.204355263157 2.60521739130452  L 162.221986842104 2.60521739130452  C 162.217285087718 2.65173913043512  162.214346491227 2.69981159420288  162.21317105263 2.74943478260863  C 162.21317105263 2.76432173913002  162.21317105263 2.78013913043505  162.21317105263 2.79502608695643  C 162.21317105263 2.80991304347782  162.21317105263 2.82573043478285  162.21317105263 2.84154782608704  C 162.237091203488 3.85106502451277  163.01952109045 4.6562112730199  163.976328947367 4.65589565217382  C 164.933136804284 4.6562112730199  165.715566691246 3.85106502451277  165.739486842104 2.84154782608704  C 165.739486842104 2.82604057971045  165.739486842104 2.81053333333302  165.739486842104 2.79502608695643  C 165.739486842104 2.78013913043505  165.739486842104 2.76525217391281  165.739486842104 2.75036521739143  C 165.739486842104 2.70198260869607  165.739486842104 2.65732173913022  165.73067105263 2.60521739130452  L 165.748302631577 2.60521739130452  C 165.838750152036 1.65539185098344  166.595515788902 0.931854811806387  167.5 0.930434782608696  C 168.405496759889 0.930422776534705  169.163792429338 1.6543297018896  169.254342105263 2.60521739130452  L 169.27197368421 2.60521739130452  C 169.267271929825 2.65173913043512  169.264333333334 2.69981159420288  169.263157894736 2.74943478260863  C 169.263157894736 2.76432173913002  169.263157894736 2.78013913043505  169.263157894736 2.79502608695643  C 169.263157894736 2.80991304347782  169.263157894736 2.82573043478285  169.263157894736 2.84154782608704  C 169.287078045594 3.85106502451277  170.069507932556 4.6562112730199  171.026315789473 4.65589565217382  C 172.00008100628 4.65589565217382  172.78947368421 3.82275596925057  172.78947368421 2.79502608695643  C 172.78935671151 2.73285989785021  172.786119720328 2.67074388749708  172.779776315789 2.60893913043486  L 172.798289473684 2.60893913043486  C 172.888839149609 1.65805144102079  173.647134819057 0.934144515665052  174.552631578947 0.934156521739042  C 175.458128338837 0.934144515665052  176.216424008285 1.65805144101995  176.30697368421 2.60893913043486  L 176.324605263157 2.60893913043486  C 176.319315789473 2.6684869565221  176.315789473683 2.73268695652164  176.315789473683 2.79502608695643  C 176.315789473683 3.82275596925057  177.105182151613 4.65589565217382  178.07894736842 4.65589565217382  C 179.052712585227 4.65589565217382  179.842105263157 3.82275596925057  179.842105263157 2.79502608695643  C 179.841988290457 2.73285989785021  179.838751299275 2.67074388749708  179.832407894736 2.60893913043486  L 179.850921052631 2.60893913043486  C 179.941470728556 1.65805144102079  180.699766398004 0.934144515665052  181.605263157894 0.934156521739042  C 182.510759917784 0.934144515665052  183.269055587232 1.65805144101995  183.359605263157 2.60893913043486  L 183.377236842104 2.60893913043486  C 183.37194736842 2.6684869565221  183.36842105263 2.73268695652164  183.36842105263 2.79502608695643  C 183.36842105263 3.82275596925057  184.15781373056 4.65589565217382  185.131578947367 4.65589565217382  C 186.105344164174 4.65589565217382  186.894736842104 3.82275596925057  186.894736842104 2.79502608695643  C 186.894736842104 2.73175652173885  186.894736842104 2.66755652173931  186.88592105263 2.60893913043486  L 186.903552631578 2.60893913043486  C 186.994102307502 1.65805144102079  187.752397976951 0.934144515665052  188.657894736841 0.934156521739042  C 189.563728930606 0.933666506629909  190.322535108761 1.65769695470179  190.413118421051 2.60893913043486  L 190.429868421051 2.60893913043486  C 190.429868421051 2.65453043478267  190.422815789472 2.70198260869607  190.421934210524 2.75315652173897  C 190.421934210524 2.76897391304316  190.421934210524 2.78386086956539  190.421934210524 2.79874782608678  C 190.421934210524 2.81363478260817  190.421934210524 2.8294521739132  190.421934210524 2.84526956521738  C 190.445854361383 3.85478676364227  191.228284248344 4.65993301215025  192.185092105261 4.65961739130417  C 193.158857322068 4.65961739130417  193.948249999998 3.82647770838091  193.948249999998 2.79874782608678  C 193.948133027298 2.73658163698055  193.944896036117 2.67446562662742  193.938552631577 2.61266086956521  L 193.957065789472 2.61266086956521  C 194.047615465397 1.66177318015029  194.805911134845 0.937866254795399  195.711407894735 0.937878260869389  C 196.616904654625 0.937866254795399  197.375200324073 1.66177318015029  197.465749999998 2.61266086956521  L 197.483381578945 2.61266086956521  C 197.478092105261 2.67220869565245  197.474565789471 2.73640869565199  197.474565789471 2.79874782608678  C 197.474565789471 3.82647770838091  198.263958467401 4.65961739130417  199.237723684208 4.65961739130333  C 199.547189987988 4.66023741581775  199.851316072771 4.57453567190764  200 4.41119130434781  L 200 107  Z " fill-rule="nonzero" fill="#e13438" stroke="none" transform="matrix(1 0 0 1 31 19 )" />
  </g>
</svg>