<?xml version="1.0" encoding="utf-8"?>
<svg version="1.1" xmlns:xlink="http://www.w3.org/1999/xlink" width="251px" height="107px" xmlns="http://www.w3.org/2000/svg">
  <g transform="matrix(1 0 0 1 -593 -19 )">
    <path d="M 250 107  L 0 107  L 0 2.87504347826101  C 0.0535949073109645 3.86956527208835  1.02383108361437 4.65227450947382  2.20175438596491 4.65124347826068  C 3.41774975620626 4.65124347826068  4.40350877192982 3.81810379533742  4.40350877192982 2.79037391304329  C 4.40336270154319 2.72820772393706  4.39932048867499 2.66609171358393  4.39139912280705 2.60428695652172  L 4.41451754385989 2.60428695652172  C 4.52759201479051 1.6533992671068  5.4745184477835 0.929492341751907  6.60526315789474 0.929504347825897  C 7.73600786800547 0.929492341751907  8.68293430099896 1.6533992671068  8.79600877192958 2.60428695652172  L 8.81802631578921 2.60428695652172  C 8.81142105263147 2.66383478260896  8.80701754385915 2.7280347826085  8.80701754385915 2.79037391304329  C 8.80701754385915 3.81810379533742  9.79277655958271 4.65124347826068  11.0087719298241 4.65124347826068  C 12.2247673000654 4.65124347826068  13.210526315789 3.81810379533742  13.2105263157885 2.79037391304329  C 13.2103802454018 2.72820772393706  13.2063380325336 2.66609171358393  13.1984166666662 2.60428695652172  L 13.221535087719 2.60428695652172  C 13.3346095586497 1.6533992671068  14.2815359916427 0.929492341751907  15.4122807017539 0.929504347825897  C 16.5430254118646 0.929492341751907  17.4899518448581 1.6533992671068  17.6030263157887 2.60428695652172  L 17.6261447368416 2.60428695652172  C 17.6180695738029 2.6660810375708  17.6140269033041 2.7282040802559  17.6140350877188 2.79037391304329  C 17.6140350877188 3.81810379533742  18.5997941034424 4.65124347826068  19.8157894736837 4.65124347826068  C 21.0317848439251 4.65124347826068  22.0175438596486 3.81810379533742  22.0175438596481 2.79037391304329  C 22.017397789262 2.72820772393706  22.0133555763933 2.66609171358393  22.0054342105259 2.60428695652172  L 22.0296535087714 2.60428695652172  C 22.1432126100989 1.65412208013781  23.0893559729137 0.930852182498798  24.219298245614 0.930434782608696  C 25.3500429557248 0.930422776534705  26.2969693887183 1.6543297018896  26.4100438596489 2.60521739130452  L 26.4331622807012 2.60521739130452  C 26.4250871176636 2.66701147235275  26.4210444471647 2.72913451503954  26.4210526315789 2.79130434782609  C 26.4210526315789 3.81903423012022  27.4068116473025 4.65217391304348  28.6228070175439 4.65217391304348  C 29.8388023877852 4.65217391304348  30.8245614035088 3.81903423012022  30.8245614035088 2.79130434782609  C 30.8245614035088 2.7280347826085  30.8245614035088 2.66383478260896  30.8135526315787 2.60521739130452  L 30.8366710526315 2.60521739130452  C 30.9497455235622 1.6543297018896  31.8966719565552 0.930422776534705  33.0274166666664 0.930434782608696  C 34.1581613767771 0.930422776534705  35.1050878097706 1.6543297018896  35.2181622807012 2.60521739130452  L 35.2401798245609 2.60521739130452  C 35.2335745614031 2.66476521739176  35.2291710526308 2.7289652173913  35.2291710526308 2.79130434782609  C 35.2291710526308 3.81903423012022  36.2149300683544 4.65217391304348  37.4309254385957 4.65217391304348  C 38.6469208088371 4.65217391304348  39.6326798245606 3.81903423012022  39.6326798245606 2.79130434782609  C 39.6326798245606 2.7280347826085  39.6326798245606 2.66383478260896  39.6216710526306 2.60521739130452  L 39.6447894736834 2.60521739130452  C 39.757863944614 1.6543297018896  40.704790377607 0.930422776534705  41.8355350877182 0.930434782608696  C 42.966279797829 0.930422776534705  43.9132062308225 1.6543297018896  44.0262807017531 2.60521739130452  L 44.0471973684195 2.60521739130452  C 44.0471973684195 2.65080869565232  44.0383903508759 2.69826086956573  44.0372894736827 2.74943478260863  C 44.0372894736827 2.76525217391281  44.0372894736827 2.78013913043505  44.0372894736827 2.79502608695643  C 44.0372894736827 2.80991304347782  44.0372894736827 2.82573043478285  44.0372894736827 2.84154782608704  C 44.0671599108235 3.85106502451277  45.0442240980245 4.6562112730199  46.2390438596476 4.65589565217382  C 47.4338636212707 4.6562112730199  48.4109278084716 3.85106502451277  48.4407982456125 2.84154782608704  C 48.4407982456125 2.82604057971045  48.4407982456125 2.81053333333302  48.4407982456125 2.79502608695643  C 48.4407982456125 2.779518840579  48.4407982456125 2.76463188405761  48.4407982456125 2.75036521739143  C 48.4407982456125 2.70198260869607  48.4407982456125 2.65732173913022  48.4297894736824 2.60521739130452  L 48.451807017542 2.60521739130452  C 48.5647967027676 1.65503801944497  49.51044906683 0.931377798418172  50.640350877193 0.930434782608696  C 51.7710955873037 0.930422776534705  52.7180220202972 1.6543297018896  52.8310964912278 2.60521739130452  L 52.8531140350875 2.60521739130452  C 52.8472426900585 2.65173913043512  52.8435730994155 2.69981159420288  52.8421052631574 2.74943478260863  C 52.8421052631574 2.76432173913002  52.8421052631574 2.78013913043505  52.8421052631574 2.79502608695643  C 52.8421052631574 2.80991304347782  52.8421052631574 2.82573043478285  52.8421052631574 2.84154782608704  C 52.8719757002983 3.85106502451277  53.8490398874992 4.6562112730199  55.0438596491223 4.65589565217382  C 56.2598550193637 4.65589565217382  57.2456140350872 3.82275596925057  57.2456140350867 2.79502608695643  C 57.2454679647001 2.73285989785021  57.2414257518319 2.67074388749708  57.2335043859644 2.60893913043486  L 57.2566228070173 2.60893913043486  C 57.3696972779484 1.65805144102079  58.3166237109414 0.934144515665052  59.4473684210521 0.934156521739042  C 60.5781131311634 0.934144515665052  61.5250395641559 1.65805144101995  61.638114035087 2.60893913043486  L 61.6601315789466 2.60893913043486  C 61.6535263157889 2.6684869565221  61.6491228070165 2.73268695652164  61.6491228070165 2.79502608695643  C 61.6491228070165 3.82275596925057  62.6348818227401 4.65589565217382  63.8508771929815 4.65589565217382  C 65.0668725632228 4.65589565217382  66.0526315789464 3.82275596925057  66.0526315789464 2.79502608695643  C 66.0524855085597 2.73285989785021  66.048443295691 2.67074388749708  66.0405219298236 2.60893913043486  L 66.0636403508764 2.60893913043486  C 66.1767148218076 1.65805144102079  67.1236412548005 0.934144515665052  68.2543859649113 0.934156521739042  C 69.3851306750225 0.934144515665052  70.332057108015 1.65805144101995  70.4451315789461 2.60893913043486  L 70.4671491228058 2.60893913043486  C 70.460543859648 2.6684869565221  70.4561403508757 2.73268695652164  70.4561403508757 2.79502608695643  C 70.4561403508757 3.82275596925057  71.4418993665993 4.65589565217382  72.6578947368406 4.65589565217382  C 73.8738901070819 4.65589565217382  74.8596491228055 3.82275596925057  74.8596491228055 2.79502608695643  C 74.8596491228055 2.73175652173885  74.8596491228055 2.66755652173931  74.8486403508755 2.60893913043486  L 74.8706578947351 2.60893913043486  C 74.9837323656662 1.65805144102079  75.9306587986592 0.934144515665052  77.0614035087699 0.934156521739042  C 78.1925695915315 0.933666506629909  79.1401335254461 1.65769695470179  79.253249999998 2.60893913043486  L 79.2741666666644 2.60893913043486  C 79.2741666666644 2.65453043478267  79.2653596491208 2.70198260869607  79.2642587719275 2.75315652173897  C 79.2642587719275 2.76897391304316  79.2642587719275 2.78386086956539  79.2642587719275 2.79874782608678  C 79.2642587719275 2.81363478260817  79.2642587719275 2.8294521739132  79.2642587719275 2.84526956521738  C 79.2941292090689 3.85478676364227  80.2711933962694 4.65993301215025  81.4660131578925 4.65961739130417  C 82.6820085281338 4.65961739130417  83.6677675438574 3.82647770838091  83.6677675438574 2.79874782608678  C 83.6676214734707 2.73658163698055  83.6635792606025 2.67446562662742  83.6556578947346 2.61266086956521  L 83.6787763157874 2.61266086956521  C 83.7918507867181 1.66177318015029  84.738777219711 0.937866254795399  85.8695219298223 0.937878260869389  C 87.000266639933 0.937866254795399  87.9471930729265 1.66177318015029  88.0602675438571 2.61266086956521  L 88.0822850877168 2.61266086956521  C 88.075679824559 2.67220869565245  88.0712763157867 2.73640869565199  88.0712763157867 2.79874782608678  C 88.0712763157867 3.82647770838091  89.0570353315102 4.65961739130417  90.2730307017516 4.65961739130417  C 91.489026071993 4.65961739130417  92.4747850877165 3.82647770838091  92.4747850877165 2.79874782608678  C 92.4746390173294 2.73658163698055  92.4705968044612 2.67446562662658  92.4626754385937 2.61266086956521  L 92.4857938596466 2.61266086956521  C 92.5988683305772 1.66177318015029  93.5457947635702 0.937866254795399  94.6765394736814 0.937878260869389  C 95.8072841837922 0.937866254795399  96.7542106167857 1.66177318015029  96.8672850877163 2.61266086956521  L 96.8904035087686 2.61266086956521  C 96.8823283457305 2.67445495061345  96.8782856752316 2.73657799330024  96.8782938596463 2.79874782608678  C 96.8782938596463 3.82647770838091  97.8640528753699 4.65961739130417  99.0800482456113 4.65961739130417  C 100.296043615853 4.65961739130417  101.281802631576 3.82647770838091  101.281802631576 2.79874782608678  C 101.281656561189 2.73658163698055  101.277614348321 2.67446562662742  101.269692982453 2.61266086956521  L 101.293912280699 2.61266086956521  C 101.40267523836 1.65953405467726  102.349498484981 0.931757566132017  103.482456140351 0.930434782608696  C 104.613200850462 0.930422776534705  105.560127283455 1.6543297018896  105.673201754386 2.60521739130452  L 105.696320175439 2.60521739130452  C 105.6882450124 2.66701147235275  105.684202341902 2.72913451503954  105.684210526316 2.79130434782609  C 105.684210526316 3.81903423012022  106.669969542039 4.65217391304348  107.885964912281 4.65217391304348  C 109.101960282522 4.65217391304348  110.087719298246 3.81903423012022  110.087719298246 2.79130434782609  C 110.087719298246 2.7280347826085  110.087719298246 2.66383478260896  110.076710526316 2.60521739130452  L 110.099828947368 2.60521739130452  C 110.212903418299 1.6543297018896  111.159829851292 0.930422776534705  112.290574561403 0.930434782608696  C 113.421319271514 0.930422776534705  114.368245704507 1.6543297018896  114.481320175438 2.60521739130452  L 114.503337719298 2.60521739130452  C 114.49673245614 2.66476521739176  114.492328947368 2.7289652173913  114.492328947368 2.79130434782609  C 114.492328947368 3.81903423012022  115.478087963091 4.65217391304348  116.694083333333 4.65217391304348  C 117.910078703574 4.65217391304348  118.895837719297 3.81903423012022  118.895837719297 2.79130434782609  C 118.895837719297 2.7280347826085  118.895837719297 2.66383478260896  118.884828947367 2.60521739130452  L 118.90794736842 2.60521739130452  C 119.021021839351 1.6543297018896  119.967948272344 0.930422776534705  121.098692982455 0.930434782608696  C 122.229437692566 0.930422776534705  123.176364125559 1.6543297018896  123.28943859649 2.60521739130452  L 123.310355263156 2.60521739130452  C 123.310355263156 2.65080869565232  123.301548245613 2.69826086956573  123.300447368419 2.74943478260863  C 123.300447368419 2.76525217391281  123.300447368419 2.78013913043505  123.300447368419 2.79502608695643  C 123.300447368419 2.80991304347782  123.300447368419 2.82573043478285  123.300447368419 2.84154782608704  C 123.33031780556 3.85106502451277  124.307381992761 4.6562112730199  125.502201754384 4.65589565217382  C 126.697021516007 4.6562112730199  127.674085703208 3.85106502451277  127.703956140349 2.84154782608704  C 127.703956140349 2.82604057971045  127.703956140349 2.81053333333302  127.703956140349 2.79502608695643  C 127.703956140349 2.779518840579  127.703956140349 2.76463188405761  127.703956140349 2.75036521739143  C 127.703956140349 2.70198260869607  127.703956140349 2.65732173913022  127.692947368419 2.60521739130452  L 127.714964912279 2.60521739130452  C 127.827954597504 1.65503801944497  128.773606961567 0.931377798418172  129.90350877193 0.930434782608696  C 131.034253482041 0.930422776534705  131.981179915034 1.6543297018896  132.094254385965 2.60521739130452  L 132.116271929824 2.60521739130452  C 132.110400584795 2.65173913043512  132.106730994152 2.69981159420288  132.105263157894 2.74943478260863  C 132.105263157894 2.76432173913002  132.105263157894 2.78013913043505  132.105263157894 2.79502608695643  C 132.105263157894 2.80991304347782  132.105263157894 2.82573043478285  132.105263157894 2.84154782608704  C 132.135133595035 3.85106502451277  133.112197782236 4.6562112730199  134.307017543859 4.65589565217382  C 135.5230129141 4.65589565217382  136.508771929824 3.82275596925057  136.508771929824 2.79502608695643  C 136.508755760063 2.73285682034976  136.504713162996 2.67073490608099  136.496662280701 2.60893913043486  L 136.519780701754 2.60893913043486  C 136.632855172685 1.65805144102079  137.579781605678 0.934144515665052  138.710526315789 0.934156521739042  C 139.8412710259 0.934144515665052  140.788197458893 1.65805144101995  140.901271929824 2.60893913043486  L 140.923289473683 2.60893913043486  C 140.916684210526 2.66755652173931  140.912280701753 2.73268695652164  140.912280701753 2.79502608695643  C 140.912280701753 3.82275596925057  141.898039717477 4.65589565217382  143.114035087718 4.65589565217382  C 144.33003045796 4.65589565217382  145.315789473683 3.82275596925057  145.315789473683 2.79502608695643  C 145.315643403297 2.73285989785021  145.311601190428 2.67074388749708  145.30367982456 2.60893913043486  L 145.326798245613 2.60893913043486  C 145.439872716544 1.65805144102079  146.386799149537 0.934144515665052  147.517543859648 0.934156521739042  C 148.648288569759 0.934144515665052  149.595215002752 1.65805144101995  149.708289473683 2.60893913043486  L 149.730307017543 2.60893913043486  C 149.723701754385 2.6684869565221  149.719298245613 2.73268695652164  149.719298245613 2.79502608695643  C 149.719298245613 3.82275596925057  150.705057261336 4.65589565217382  151.921052631577 4.65589565217382  C 153.137048001819 4.65589565217382  154.122807017542 3.82275596925057  154.122807017542 2.79502608695643  C 154.122807017542 2.73175652173885  154.122807017542 2.66755652173931  154.111798245612 2.60893913043486  L 154.133815789472 2.60893913043486  C 154.246890260403 1.65805144102079  155.193816693396 0.934144515665052  156.324561403507 0.934156521739042  C 157.455727486268 0.933666506629909  158.403291420183 1.65769695470179  158.516407894735 2.60893913043486  L 158.537324561401 2.60893913043486  C 158.537324561401 2.65453043478267  158.528517543858 2.70198260869607  158.527416666664 2.75315652173897  C 158.527416666664 2.76897391304316  158.527416666664 2.78386086956539  158.527416666664 2.79874782608678  C 158.527416666664 2.81363478260817  158.527416666664 2.8294521739132  158.527416666664 2.84526956521738  C 158.557287103806 3.85478676364227  159.534351291006 4.65993301215025  160.729171052629 4.65961739130417  C 161.945166422871 4.65961739130417  162.930925438594 3.82647770838091  162.930925438594 2.79874782608678  C 162.930779368208 2.73658163698055  162.926737155339 2.67446562662742  162.918815789471 2.61266086956521  L 162.941934210524 2.61266086956521  C 163.055008681455 1.66177318015029  164.001935114448 0.937866254795399  165.132679824559 0.937878260869389  C 166.26342453467 0.937866254795399  167.210350967663 1.66177318015029  167.323425438594 2.61266086956521  L 167.345442982454 2.61266086956521  C 167.338837719296 2.67127826086965  167.334434210524 2.73640869565199  167.334434210524 2.79874782608678  C 167.334434210524 3.82647770838091  168.320193226247 4.65961739130417  169.536188596488 4.65961739130417  C 170.75218396673 4.65961739130417  171.737942982453 3.82647770838091  171.737942982453 2.79874782608678  C 171.737796912066 2.73658163698055  171.733754699198 2.67446562662742  171.725833333331 2.61266086956521  L 171.748951754383 2.61266086956521  C 171.862026225314 1.66177318015029  172.808952658307 0.937866254795399  173.939697368418 0.937878260869389  C 175.070442078529 0.937866254795399  176.017368511522 1.66177318015029  176.130442982453 2.61266086956521  L 176.153561403505 2.61266086956521  C 176.145486240467 2.67445495061345  176.141443569968 2.73657799330024  176.141451754383 2.79874782608678  C 176.141451754383 3.82647770838091  177.127210770107 4.65961739130417  178.343206140348 4.65961739130417  C 179.559201510589 4.65961739130417  180.544960526313 3.82647770838091  180.544960526313 2.79874782608678  C 180.544814455926 2.73658163698055  180.540772243058 2.67446562662742  180.53285087719 2.61266086956521  L 180.557070175436 2.61266086956521  C 180.665833133096 1.65953405467726  181.612656379718 0.931757566132017  182.745614035088 0.930434782608696  C 183.876358745198 0.930422776534705  184.823285178192 1.6543297018896  184.936359649123 2.60521739130452  L 184.959478070176 2.60521739130367  C 184.951783924711 2.66702949217061  184.948108809172 2.72915186784214  184.948469298245 2.79130434782609  C 184.948469298245 3.81903423012022  185.934228313969 4.65217391304348  187.15022368421 4.65217391304348  C 188.366219054452 4.65217391304348  189.351978070175 3.81903423012022  189.351978070175 2.79130434782609  C 189.351978070175 2.7280347826085  189.351978070175 2.66383478260896  189.340969298245 2.60521739130452  L 189.364087719298 2.60521739130452  C 189.477162190229 1.6543297018896  190.424088623222 0.930422776534705  191.554833333333 0.930434782608696  C 192.685578043444 0.930422776534705  193.632504476437 1.6543297018896  193.745578947368 2.60521739130452  L 193.767596491227 2.60521739130452  C 193.76099122807 2.66476521739176  193.756587719297 2.7289652173913  193.756587719297 2.79130434782609  C 193.756587719297 3.81903423012022  194.742346735021 4.65217391304348  195.958342105262 4.65217391304348  C 197.174337475503 4.65217391304348  198.160096491227 3.81903423012022  198.160096491227 2.79130434782609  C 198.160096491227 2.7280347826085  198.160096491227 2.66383478260896  198.149087719297 2.60521739130452  L 198.17220614035 2.60521739130452  C 198.28528061128 1.6543297018896  199.232207044273 0.930422776534705  200.362951754385 0.930434782608696  C 201.493696464495 0.930422776534705  202.440622897489 1.6543297018896  202.55369736842 2.60521739130452  L 202.575714912279 2.60521739130452  C 202.56984356725 2.65173913043512  202.566173976607 2.69981159420288  202.564706140349 2.74943478260863  C 202.564706140349 2.76432173913002  202.564706140349 2.78013913043505  202.564706140349 2.79502608695643  C 202.564706140349 2.80991304347782  202.564706140349 2.82573043478285  202.564706140349 2.84154782608704  C 202.59457657749 3.85106502451277  203.571640764691 4.6562112730199  204.766460526314 4.65589565217382  C 205.961280287937 4.6562112730199  206.938344475138 3.85106502451277  206.968214912279 2.84154782608704  C 206.968214912279 2.82604057971045  206.968214912279 2.81053333333302  206.968214912279 2.79502608695643  C 206.968214912279 2.78013913043505  206.968214912279 2.76525217391281  206.968214912279 2.75036521739143  C 206.968214912279 2.70198260869607  206.968214912279 2.65732173913022  206.957206140349 2.60521739130452  L 206.979223684208 2.60521739130452  C 207.092170587866 1.65539185098344  208.037186383157 0.931854811806387  209.166666666667 0.930434782608696  C 210.297411376777 0.930422776534705  211.244337809771 1.6543297018896  211.357412280702 2.60521739130452  L 211.379429824561 2.60521739130452  C 211.373558479532 2.65173913043512  211.369888888889 2.69981159420288  211.368421052631 2.74943478260863  C 211.368421052631 2.76432173913002  211.368421052631 2.78013913043505  211.368421052631 2.79502608695643  C 211.368421052631 2.80991304347782  211.368421052631 2.82573043478285  211.368421052631 2.84154782608704  C 211.398291489772 3.85106502451277  212.375355676973 4.6562112730199  213.570175438596 4.65589565217382  C 214.786170808837 4.65589565217382  215.771929824561 3.82275596925057  215.77192982456 2.79502608695643  C 215.771783754174 2.73285989785021  215.767741541306 2.67074388749708  215.759820175438 2.60893913043486  L 215.782938596491 2.60893913043486  C 215.896013067422 1.65805144102079  216.842939500415 0.934144515665052  217.973684210526 0.934156521739042  C 219.104428920637 0.934144515665052  220.05135535363 1.65805144101995  220.164429824561 2.60893913043486  L 220.18644736842 2.60893913043486  C 220.179842105263 2.6684869565221  220.17543859649 2.73268695652164  220.17543859649 2.79502608695643  C 220.17543859649 3.82275596925057  221.161197612214 4.65589565217382  222.377192982455 4.65589565217382  C 223.593188352697 4.65589565217382  224.57894736842 3.82275596925057  224.57894736842 2.79502608695643  C 224.578801298033 2.73285989785021  224.574759085165 2.67074388749708  224.566837719297 2.60893913043486  L 224.58995614035 2.60893913043486  C 224.703030611281 1.65805144102079  225.649957044274 0.934144515665052  226.780701754385 0.934156521739042  C 227.911446464496 0.934144515665052  228.858372897489 1.65805144101995  228.97144736842 2.60893913043486  L 228.993464912279 2.60893913043486  C 228.986859649122 2.6684869565221  228.982456140349 2.73268695652164  228.982456140349 2.79502608695643  C 228.982456140349 3.82275596925057  229.968215156073 4.65589565217382  231.184210526314 4.65589565217382  C 232.400205896556 4.65589565217382  233.385964912279 3.82275596925057  233.385964912279 2.79502608695643  C 233.385964912279 2.73175652173885  233.385964912279 2.66755652173931  233.374956140349 2.60893913043486  L 233.396973684209 2.60893913043486  C 233.51004815514 1.65805144102079  234.456974588133 0.934144515665052  235.587719298244 0.934156521739042  C 236.718885381005 0.933666506629909  237.66644931492 1.65769695470179  237.779565789472 2.60893913043486  L 237.800482456138 2.60893913043486  C 237.800482456138 2.65453043478267  237.791675438594 2.70198260869607  237.790574561401 2.75315652173897  C 237.790574561401 2.76897391304316  237.790574561401 2.78386086956539  237.790574561401 2.79874782608678  C 237.790574561401 2.81363478260817  237.790574561401 2.8294521739132  237.790574561401 2.84526956521738  C 237.820444998543 3.85478676364227  238.797509185743 4.65993301215025  239.992328947366 4.65961739130417  C 241.208324317607 4.65961739130417  242.194083333331 3.82647770838091  242.194083333331 2.79874782608678  C 242.193937262944 2.73658163698055  242.189895050076 2.67446562662742  242.181973684208 2.61266086956521  L 242.205092105261 2.61266086956521  C 242.318166576192 1.66177318015029  243.265093009185 0.937866254795399  244.395837719296 0.937878260869389  C 245.526582429407 0.937866254795399  246.4735088624 1.66177318015029  246.586583333331 2.61266086956521  L 246.60860087719 2.61266086956521  C 246.601995614033 2.67220869565245  246.59759210526 2.73640869565199  246.59759210526 2.79874782608678  C 246.59759210526 3.82647770838091  247.583351120984 4.65961739130417  248.799346491225 4.65961739130333  C 249.185794462612 4.66023741581775  249.565573802316 4.57453567190764  250 4.41119130434781  L 250 107  Z " fill-rule="nonzero" fill="#cccccc" stroke="none" transform="matrix(1 0 0 1 593 19 )" />
  </g>
</svg>