<?xml version="1.0" encoding="utf-8"?>
<svg version="1.1" xmlns:xlink="http://www.w3.org/1999/xlink" width="7px" height="11px" xmlns="http://www.w3.org/2000/svg">
  <g transform="matrix(1 0 0 1 -1013 -1093 )">
    <path d="M 1.00854621152632 0.758500000000026  C 1.00854621152632 0.971448641523192  1.09883626957708 1.17441192789982  1.25700000000006 1.31700000000003  L 5.18200000000002 5.24200000000003  L 1.20500000000004 9.21900000000003  C 1.07145952119322 9.35842388528686  0.996912712210701 9.54402750619712  0.996912712210701 9.73708728778932  C 0.996912712210701 10.1507485654126  1.33225143458742 10.4860872877893  1.74591271221072 10.4860872877893  C 1.93897249380291 10.4860872877893  2.12457611471314 10.4115404788068  2.26400000000001 10.278  L 6.76400000000001 5.77800000000003  C 6.91061189887296 5.63705853440506  6.9933273505635 5.44237020051325  6.99300000000005 5.23900000000003  C 6.99321115429427 5.03565337957173  6.91051426404829 4.84100873397109  6.76400000000001 4.70000000000002  L 2.26400000000001 0.200000000000024  C 2.12586537205038 0.0754686030929541  1.94648183850688 0.00654621152629886  1.76049999999998 0.00654621152629886  C 1.34520739004847 0.00654621152629886  1.00854621152632 0.343207390048498  1.00854621152632 0.758500000000026  Z " fill-rule="nonzero" fill="#666666" stroke="none" transform="matrix(1 0 0 1 1013 1093 )" />
  </g>
</svg>