<?xml version="1.0" encoding="utf-8"?>
<svg version="1.1" xmlns:xlink="http://www.w3.org/1999/xlink" width="4px" height="8px" xmlns="http://www.w3.org/2000/svg">
  <g transform="matrix(1 0 0 1 -132 -1800 )">
    <path d="M 2.87699999999995 1.00800000000004  C 2.87699999999995 0.561201637387057  2.51479836261313 0.199000000000069  2.06799999999993 0.199000000000069  C 1.62120163738678 0.199000000000069  1.25899999999996 0.561201637387057  1.25899999999996 1.00800000000004  C 1.25899999999996 1.45479836261325  1.62120163738678 1.81700000000001  2.06799999999993 1.81700000000001  C 2.51479836261313 1.81700000000001  2.87699999999995 1.45479836261325  2.87699999999995 1.00800000000004  Z M 1.15299999999996 7.70500000000015  L 1.15299999999996 7.70800000000008  C 1.28612033700415 7.81522035106968  1.45780667281849 7.86230732080776  1.62699999999995 7.83799999999997  C 1.69853862235817 7.82745059788613  1.76934450966957 7.81242104633429  1.83899999999994 7.79300000000012  L 3.20399999999995 7.33100000000013  C 3.41913010894399 7.29210934302114  3.57559194860727 7.10482667319002  3.57559194860727 6.88620954903331  C 3.57559194860727 6.82162295986836  3.56175050051144 6.75778637786402  3.53499999999997 6.69900000000007  C 3.47728508828055 6.49976391062205  3.29482901565274 6.36266068533973  3.08740184687906 6.36266068533973  C 3.04012108293148 6.36266068533973  2.99311565858443 6.36985616777656  2.94799999999998 6.38400000000001  L 2.19299999999998 6.59400000000005  L 2.89299999999997 3.27100000000019  C 2.93147305457825 3.075570376938  2.876764118952 2.87336910810313  2.74499999999995 2.72400000000016  C 2.60533170983342 2.59232603527425  2.40811911504852 2.54104321903969  2.22199999999992 2.58799999999997  L 0.921999999999912 3.02800000000002  C 0.682767467509677 3.1212946767655  0.553096221918224 3.38063716794863  0.6219999999999 3.62800000000016  C 0.657933161436858 3.84693902189201  0.847151215837073 4.0076333620043  1.0690193915583 4.0076333620043  C 1.10886264136485 4.0076333620043  1.14853176994535 4.00237688930338  1.1869999999999 3.99199999999996  L 1.75599999999991 3.81999999999994  L 1.03199999999993 7.279  C 0.998715441513582 7.43229473667702  1.04410331940323 7.5920900753631  1.15299999999996 7.70500000000015  Z " fill-rule="nonzero" fill="#b9b9b9" stroke="none" transform="matrix(1 0 0 1 132 1800 )" />
  </g>
</svg>