<?xml version="1.0" encoding="utf-8"?>
<svg version="1.1" xmlns:xlink="http://www.w3.org/1999/xlink" width="15px" height="10px" xmlns="http://www.w3.org/2000/svg">
  <g transform="matrix(1 0 0 1 -319 -25 )">
    <path d="M 1.70600000000007 9.58099999999925  L 1.70600000000007 9.59099999999924  C 1.13205764358281 9.58500172157463  0.669941611984882 9.11803087349819  0.669941611984882 8.54405717389692  C 0.669941611984882 8.54037137218425  0.669961074927983 8.53668559616618  0.670000000000073 8.53299999999932  L 0.670000000000073 6.34999999999948  C 1.08155249542074 6.27824017641958  1.44696239893869 6.04400305877998  1.68400000000008 5.69999999999966  C 1.86167249400904 5.43106650940589  1.96800727820755 5.12135354572103  1.99300000000005 4.79999999999963  C 1.96977878931136 4.49206198291055  1.86635043196083 4.19556735850546  1.6930000000001 3.93999999999979  C 1.45461818442078 3.58407454007373  1.08822393531329 3.33372304434943  0.670000000000073 3.24099999999976  L 0.670000000000073 1.05799999999992  C 0.669961074927983 1.05431440383374  0.669941611984882 1.05062862781453  0.669941611984882 1.04694282610232  C 0.669941611984882 0.472969126501052  1.13205764358281 0.00599827842461268  1.70600000000007 0  L 13.0840000000001 0  C 13.6579423564173 0.00599827842461268  14.1200583880153 0.472969126501052  14.1200583880153 1.04694282610232  C 14.1200583880153 1.05062862781499  14.1200389250722 1.05431440383306  14.1200000000001 1.05799999999992  L 14.1200000000001 3.24099999999976  C 13.7104027596595 3.33947319238405  13.3571845178647 3.59763576054591  13.1390000000001 3.95799999999959  L 13.1060000000001 4.02399999999961  C 12.9381147395766 4.24536091319504  12.8343314774181 4.50862445487056  12.8060000000001 4.78499999999976  C 12.8323616046597 5.06185140399168  12.9363500613043 5.32563545568005  13.1060000000001 5.54599999999967  L 13.1500000000001 5.61199999999947  C 13.3649047711257 5.97535563798583  13.7195483499464 6.23455996623696  14.1310000000001 6.32899999999952  L 14.1310000000001 8.52299999999933  C 14.1310389250722 8.52668559616596  14.1310583880152 8.53037137218426  14.1310583880152 8.53405717389693  C 14.1310583880152 9.1080308734982  13.6689423564173 9.57500172157464  13.0950000000001 9.58099999999925  L 1.70600000000007 9.58099999999925  Z M 5.14600000000007 7.92999999999952  L 5.14600000000007 8.92999999999945  L 13.4800000000001 8.92999999999945  L 13.4800000000001 6.95699999999941  L 13.4700000000001 6.95699999999941  C 12.6408936219353 6.55642441485112  12.1140684843439 5.71680301127009  12.1140684843439 4.79599999999972  C 12.1140684843439 3.87519698872935  12.6408936219353 3.03557558514833  13.4700000000001 2.63499999999981  L 13.4810000000001 2.63499999999981  L 13.4810000000001 0.672999999999956  L 5.14600000000007 0.672999999999956  L 5.14600000000007 1.67299999999989  L 4.38500000000005 1.67299999999989  L 4.38500000000005 0.672999999999956  L 1.30900000000008 0.672999999999956  L 1.30900000000008 2.53599999999966  L 1.32000000000005 2.53599999999966  C 2.15484301529148 2.98098789023768  2.67637516213563 3.84996771585744  2.67637516213563 4.79599999999972  C 2.67637516213563 5.74203228414178  2.15484301529148 6.61101210976154  1.32000000000005 7.05599999999956  L 1.30900000000008 7.05599999999956  L 1.30900000000008 8.92999999999945  L 4.38500000000005 8.92999999999945  L 4.38500000000005 7.92999999999952  L 5.14600000000007 7.92999999999952  Z " fill-rule="nonzero" fill="#54bd58" stroke="none" transform="matrix(1 0 0 1 319 25 )" />
  </g>
</svg>