<?xml version="1.0" encoding="utf-8"?>
<svg version="1.1" xmlns:xlink="http://www.w3.org/1999/xlink" width="22px" height="15px" xmlns="http://www.w3.org/2000/svg">
  <g transform="matrix(1 0 0 1 -28 -863 )">
    <path d="M 1.35600000000001 7.57900000000006  C 1.12639445868828 7.83071585042592  0.999386268870325 8.15929602689312  1 8.5  L 1 14.2670000000001  C 0.997765343733562 14.5117830890489  1.19324591169067 14.7126192890048  1.438 14.717  L 1.506 14.717  C 1.72660005730258 14.7134244645795  1.91127283114993 14.5487508160106  1.94 14.33  C 2.09563745632455 13.0720305036455  3.16443924344044 12.1273131524927  4.432 12.1273131524927  C 5.69956075655955 12.1273131524927  6.76836254367545 13.0720305036455  6.92399999999999 14.3299999999999  C 6.95191380194676 14.5491800738423  7.13706631109635 14.7142815048121  7.35799999999999 14.717  L 8.24799999999999 14.717  C 8.49275408830934 14.7126192890048  8.68823465626645 14.511783089049  8.68599999999999 14.2670000000001  L 8.68600000000001 4.27600000000007  C 8.68823465626647 4.03121691095112  8.49275408830934 3.83038071099509  8.24799999999999 3.82600000000002  L 5.92399999999999 3.82600000000002  C 5.19319889075123 3.82814310877757  4.49704109900379 4.13774821636912  4.006 4.67900000000009  L 1.35600000000001 7.57900000000006  Z M 7.152 5.87299999999993  L 7.152 5.87400000000002  L 7.152 9.11400000000003  C 7.15423465626647 9.35878308904898  6.95875408830935 9.5596192890049  6.714 9.56399999999996  L 2.97199999999999 9.56400000000008  C 2.72724591169066 9.5596192890049  2.53176534373353 9.35878308904898  2.53399999999999 9.11400000000003  L 2.53399999999999 8.80799999999999  C 2.53365988209239 8.57239558652645  2.62471138772179 8.34584223393676  2.788 8.17599999999993  L 4.67100000000001 6.22500000000002  C 5.15899496755689 5.71484525618746  5.8340282375822 5.42590645681867  6.53999999999999 5.42499999999995  L 6.71299999999999 5.42499999999995  C 6.95782660594843 5.4277471544292  7.15422119611985 5.62816805738316  7.152 5.87299999999993  Z M 10.029 0.899999999999977  L 10 0.900999999999954  L 10 13.817  C 10.028945337666 13.8210221416127  10.0289180055526 13.8250446082201  10.0289180055526 13.8290671212559  C 10.0289180055526 14.3152375338414  10.4198663355775 14.7110225098377  10.906 14.717  L 14.743 14.717  C 14.9636000573026 14.7134244645795  15.1482728311499 14.5487508160106  15.177 14.3299999999999  C 15.3316996695034 13.0683179611862  16.4031668378857 12.1202032350714  17.6742976552329 12.1202032350714  C 19.0638460858072 12.1202032350714  20.1902976552329 13.2466548044971  20.1902976552329 14.6362032350713  C 20.1902976552329 14.6631407001471  20.1898650477081 14.6900764282242  20.189 14.717  C 20.6427596123976 14.710417208496  21.0055618091814 14.3377732751781  21 13.884  L 21 0.899999999999977  C 21.000054662334 0.895977858386686  21.0000819944473 0.891955391780584  21.0000819944473 0.887932878744095  C 21.0000819944473 0.40176246615863  20.6091336644225 0.00597749016230864  20.123 0  L 10.906 0  C 10.4198663355775 0.00597749016230864  10.0289180055527 0.40176246615863  10.0289180055527 0.887932878744095  C 10.0289180055527 0.891955391779902  10.028945337666 0.895977858387255  10.029 0.899999999999977  Z " fill-rule="nonzero" fill="#666666" stroke="none" transform="matrix(1 0 0 1 28 863 )" />
  </g>
</svg>