<?xml version="1.0" encoding="utf-8"?>
<svg version="1.1" xmlns:xlink="http://www.w3.org/1999/xlink" width="9px" height="5px" xmlns="http://www.w3.org/2000/svg">
  <g transform="matrix(1 0 0 1 -327 -193 )">
    <path d="M 5.06299999999996 4.16899999999984  C 4.9056404576591 4.32557820924856  4.69298569302944 4.4139448850913  4.47099999999998 4.41499999999994  C 4.24632215608011 4.41665805246149  4.03030068164074 4.32844928373206  3.87100000000001 4.16999999999993  L 0.608000000000033 0.905999999999921  C 0.517561176964705 0.815561176964621  0.466753175230792 0.692899810101522  0.466753175230792 0.564999999999912  C 0.466753175230792 0.298662433025498  0.682662433025655 0.0827531752306925  0.949000000000012 0.0827531752306925  C 1.07689981010157 0.0827531752306925  1.19956117696472 0.133561176964605  1.28999999999999 0.223999999999904  L 4.46699999999998 3.40099999999993  L 7.64400000000001 0.223999999999904  C 7.73443882303528 0.133561176964605  7.85710018989843 0.0827531752306925  7.98499999999999 0.0827531752306925  C 8.25133756697434 0.0827531752306925  8.46724682476918 0.298662433025498  8.46724682476918 0.564999999999912  C 8.46724682476918 0.692899810101409  8.41643882303524 0.815561176964678  8.32599999999996 0.905999999999921  L 5.06299999999996 4.16899999999984  Z " fill-rule="nonzero" fill="#999999" stroke="none" transform="matrix(1 0 0 1 327 193 )" />
  </g>
</svg>