<?xml version="1.0" encoding="utf-8"?>
<svg version="1.1" xmlns:xlink="http://www.w3.org/1999/xlink" width="12px" height="12px" xmlns="http://www.w3.org/2000/svg">
  <g transform="matrix(1 0 0 1 -626 -94 )">
    <path d="M 10.6420000000001 11.768  L 8.90999999999997 10.036  C 7.94670376081319 10.7562362338801  6.77621303453611 11.145432972752  5.57343297275202 11.145432972752  C 2.49610234669478 11.145432972752  0.00143297275201348 8.65076359880916  0.00143297275201348 5.57343297275196  C 0.00143297275201348 2.49610234669478  2.49610234669478 0.00143297275198506  5.57343297275202 0.00143297275198506  C 8.65076359880914 0.00143297275198506  11.145432972752 2.49610234669478  11.145432972752 5.57343297275196  C 11.145432972752 6.77621303453608  10.7562362338801 7.94670376081314  10.0359999999999 8.91  L 11.768 10.642  C 11.8856374236902 10.7851380805368  11.949945481566 10.9646698124882  11.949945481566 11.149945481566  C 11.949945481566 11.5917732814306  11.5917732814306 11.949945481566  11.149945481566 11.949945481566  C 10.9646698124882 11.949945481566  10.7851380805367 11.8856374236902  10.6420000000001 11.768  Z M 1.59199999999998 5.57300000000001  C 1.59255218666772 7.77125505463124  3.37474487601605 9.55300006935275  5.57299999999998 9.553  C 7.77164546347979 9.553  9.55399987440342 7.77064558907639  9.55399987440342 5.572  C 9.55399987440342 3.37335441092361  7.77164546347979 1.59100000000001  5.57299987440342 1.59100000000001  C 3.37435428532706 1.59100000000001  1.59199987440343 3.37335441092361  1.59199987440343 5.572  C 1.59199987440343 5.57233333333485  1.59199991626895 5.57266666667567  1.59199999999998 5.57300000000001  Z " fill-rule="nonzero" fill="#999999" stroke="none" transform="matrix(1 0 0 1 626 94 )" />
  </g>
</svg>