<?xml version="1.0" encoding="utf-8"?>
<svg version="1.1" xmlns:xlink="http://www.w3.org/1999/xlink" width="11px" height="11px" xmlns="http://www.w3.org/2000/svg">
  <g transform="matrix(1 0 0 1 -37 -1366 )">
    <path d="M 5.26099999999997 10.395  C 2.6354382993045 10.395  0.507000000000005 8.26656170069555  0.507000000000005 5.64100000000008  C 0.507000000000005 3.01543829930461  2.6354382993045 0.887000000000171  5.26099999999997 0.887000000000171  C 7.88656170069555 0.887000000000171  10.015 3.01543829930461  10.015 5.64100000000008  C 10.015 8.26656170069555  7.88656170069555 10.395  5.26099999999997 10.395  Z M 5.91899999999998 5.57799999999997  L 7.50400000000002 5.57700000000023  C 7.51543646646667 5.57799952486539  7.52691107094029 5.57850000000008  7.53839113257777 5.57850000000008  C 7.75654360876092 5.57850000000008  7.93339113257775 5.40165247618324  7.93339113257775 5.18350000000009  C 7.93339113257775 4.96534752381694  7.75654360876092 4.78850000000011  7.53839113257777 4.78850000000011  C 7.52691107094029 4.78850000000011  7.51543646646678 4.7890004751348  7.50400000000002 4.78999999999996  L 6.47900000000004 4.78999999999996  L 7.50100000000009 3.76999999999998  C 7.57563045197082 3.69634328425809  7.61764023532851 3.59585712248236  7.61764023532851 3.49099999999999  C 7.61764023532851 3.38614287751807  7.57563045197082 3.28565671574188  7.50100000000009 3.21199999999999  C 7.34570936610294 3.06084521714365  7.09829063389736 3.06084521714365  6.9430000000001 3.21199999999999  L 5.49000000000012 4.65900000000011  L 4.03800000000012 3.21300000000019  C 3.88234119145034 3.05988823949565  3.63265880854976 3.05988823949565  3.47700000000009 3.21300000000019  C 3.40205964183531 3.28669418527898  3.35985223302725 3.38739581252048  3.35985223302725 3.49250000000006  C 3.35985223302725 3.59760418747965  3.40205964183542 3.69830581472115  3.47700000000009 3.77199999999993  L 4.50100000000009 4.79100000000017  L 3.54300000000012 4.79100000000017  C 3.33627179347241 4.80573811757085  3.17608914381071 4.97774710259273  3.17608914381071 5.18499999999995  C 3.17608914381071 5.39225289740716  3.33627179347241 5.56426188242926  3.54300000000012 5.57900000000018  L 5.12700000000007 5.57900000000018  L 5.12700000000007 6.36700000000019  L 3.54200000000003 6.36700000000019  C 3.33183639293543 6.37758452993444  3.16686831648644 6.55107002587965  3.16686831648644 6.76150000000007  C 3.16686831648644 6.97192997412048  3.33183639293543 7.1454154700657  3.54200000000003 7.15599999999995  L 5.12700000000007 7.15599999999995  L 5.12700000000007 8.07500000000005  C 5.12466922434805 8.09250317165925  5.12350000000004 8.11014147139304  5.12350000000004 8.12779914772045  C 5.12350000000004 8.34871304765261  5.30258610006774 8.52779914772032  5.52350000000013 8.52779914772032  C 5.7444138999324 8.52779914772032  5.9235000000001 8.34871304765261  5.9235000000001 8.12779914772045  C 5.9235000000001 8.11014147139304  5.92233077565209 8.09250317165925  5.92000000000007 8.07500000000005  L 5.92000000000007 7.15599999999995  L 7.50400000000002 7.15599999999995  C 7.51061753030535 7.15633328057402  7.51724239894384 7.15650000000005  7.52386831648653 7.15650000000005  C 7.74202079266968 7.15650000000005  7.91886831648651 6.97965247618322  7.91886831648651 6.76150000000007  C 7.91886831648651 6.54334752381692  7.74202079266968 6.36650000000009  7.52386831648653 6.36650000000009  C 7.51724239894384 6.36650000000009  7.51061753030535 6.36666671942612  7.50400000000002 6.36700000000019  L 5.91899999999998 6.36700000000019  L 5.91899999999998 5.57799999999997  Z " fill-rule="nonzero" fill="#666666" stroke="none" transform="matrix(1 0 0 1 37 1366 )" />
  </g>
</svg>