<?xml version="1.0" encoding="utf-8"?>
<svg version="1.1" xmlns:xlink="http://www.w3.org/1999/xlink" width="13px" height="12px" xmlns="http://www.w3.org/2000/svg">
  <g transform="matrix(1 0 0 1 130 253 )">
    <path d="M 6.38899999999961 1.5980000000003  L 0.774999999999636 7.21400000000028  L 0.774999999999636 9.08900000000028  L 2.63399999999962 9.08900000000028  L 8.25599999999963 3.46700000000033  L 6.38899999999961 1.5980000000003  Z M 9.65399999999966 1.13100000000031  L 9.66199999999964 1.13000000000034  L 8.72799999999964 0.196000000000311  C 8.47314636330651 -0.0618767990551419  8.05771067360911 -0.0650071002692414  7.79899999999964 0.189000000000306  L 7.79399999999964 0.194000000000301  L 7.32199999999966 0.657000000000295  L 9.19099999999963 2.53400000000028  L 9.65399999999966 2.06400000000031  C 9.77888998960833 1.94090266384706  9.84920513105641 1.77286728837453  9.84920513105641 1.59750918712882  C 9.84920513105641 1.42459733052812  9.78083268760986 1.25870006675979  9.65899999999965 1.13600000000031  L 9.65399999999966 1.13100000000031  Z M 0.774999999999636 11.7410000000003  L 0.774999999999636 10.4120000000003  L 12.6829999999997 10.4120000000003  L 12.6829999999997 11.7410000000003  L 0.774999999999636 11.7410000000003  Z " fill-rule="nonzero" fill="#cccccc" stroke="none" transform="matrix(1 0 0 1 -130 -253 )" />
  </g>
</svg>