<?xml version="1.0" encoding="utf-8"?>
<svg version="1.1" xmlns:xlink="http://www.w3.org/1999/xlink" width="15px" height="15px" xmlns="http://www.w3.org/2000/svg">
  <g transform="matrix(1 0 0 1 -126 -1827 )">
    <path d="M 7.999 0.999000000000024  C 11.8649932488156 0.999000000000024  14.999 4.13300675118444  14.999 7.99900000000002  C 14.999 11.8649932488156  11.8649932488156 14.999  7.999 14.999  C 4.13300675118444 14.999  0.998999999999995 11.8649932488156  0.998999999999995 7.99900000000002  C 0.998999999999995 4.13300675118444  4.13300675118444 0.999000000000024  7.999 0.999000000000024  Z M 13.979 8.01800000000003  C 13.9058213609681 4.75258629603809  11.2735203732136 2.12425293663568  8.00799999999998 2.05600000000004  C 4.74808249370707 2.13736637061106  2.12328360660558 4.75820893716605  2.03700000000001 8.01800000000003  C 2.03700000000001 11.3156922412397  4.71030775876034 13.989  8.00800000000001 13.989  C 11.3056922412397 13.989  13.979 11.3156922412397  13.979 8.01800000000003  Z " fill-rule="nonzero" fill="#b9b9b9" stroke="none" transform="matrix(1 0 0 1 126 1827 )" />
  </g>
</svg>