<?xml version="1.0" encoding="utf-8"?>
<svg version="1.1" xmlns:xlink="http://www.w3.org/1999/xlink" width="15px" height="15px" xmlns="http://www.w3.org/2000/svg">
  <g transform="matrix(1 0 0 1 -120 -1151 )">
    <path d="M 7.999 0.000999999999976353  C 11.8649932488156 0.000999999999976353  14.999 3.13500675118439  14.999 7.00099999999998  C 14.999 10.8669932488156  11.8649932488156 14.001  7.999 14.001  C 4.13300675118444 14.001  0.998999999999981 10.8669932488156  0.998999999999981 7.00099999999998  C 0.998999999999981 3.13500675118439  4.13300675118444 0.000999999999976353  7.999 0.000999999999976353  Z M 13.979 7.01999999999998  C 13.9058213609681 3.75458629603816  11.2735203732136 1.12625293663564  8.00799999999998 1.05799999999999  C 4.74808249370707 1.13936637061113  2.12328360660558 3.760208937166  2.03699999999999 7.01999999999998  C 2.03699999999999 10.3176922412397  4.71030775876034 12.991  8.00800000000001 12.991  C 11.3056922412397 12.991  13.979 10.3176922412397  13.979 7.01999999999998  Z " fill-rule="nonzero" fill="#b9b9b9" stroke="none" transform="matrix(1 0 0 1 120 1151 )" />
  </g>
</svg>