<?xml version="1.0" encoding="utf-8"?>
<svg version="1.1" xmlns:xlink="http://www.w3.org/1999/xlink" width="2px" height="6px" xmlns="http://www.w3.org/2000/svg">
  <g transform="matrix(1 0 0 1 -947 -43 )">
    <path d="M 1.50099999999998 0.999000000000024  L 1.50099999999998 2.99900000000002  C 1.50099999999998 3.27514237491545  1.27714237491546 3.49900000000002  1.00099999999998 3.49900000000002  C 0.724857625084496 3.49900000000002  0.500999999999976 3.27514237491545  0.500999999999976 2.99900000000002  L 0.500999999999976 0.999000000000024  C 0.500999999999976 0.7228576250846  0.724857625084496 0.499000000000024  1.00099999999998 0.499000000000024  C 1.27714237491546 0.499000000000024  1.50099999999998 0.7228576250846  1.50099999999998 0.999000000000024  Z M 1.50099999999998 5.00200000000001  L 1.50099999999998 4.99900000000002  C 1.50099999999998 5.27514237491545  1.27714237491546 5.49900000000002  1.00099999999998 5.49900000000002  C 0.724857625084496 5.49900000000002  0.500999999999976 5.27514237491545  0.500999999999976 4.99900000000002  C 0.500999999999976 4.7228576250846  0.724857625084496 4.49900000000002  1.00099999999998 4.49900000000002  C 1.27715137499695 4.49899999991902  1.50100900008147 4.7228576250036  1.50100900008147 4.99899999991902  C 1.50100900008147 5.0000000066965  1.50100600004089 5.0010000112228  1.50099999999998 5.00200000000001  Z " fill-rule="nonzero" fill="#4f5d73" stroke="none" transform="matrix(1 0 0 1 947 43 )" />
  </g>
</svg>