<?xml version="1.0" encoding="utf-8"?>
<svg version="1.1" xmlns:xlink="http://www.w3.org/1999/xlink" width="13px" height="13px" xmlns="http://www.w3.org/2000/svg">
  <g transform="matrix(1 0 0 1 -139 -146 )">
    <path d="M 6.41399999999925 2.59599999999989  L 0.799999999999272 8.2119999999999  L 0.799999999999272 10.0869999999999  L 2.65899999999925 10.0869999999999  L 8.28099999999927 4.46499999999992  L 6.41399999999925 2.59599999999989  Z M 9.67899999999929 2.12899999999991  L 9.68699999999927 2.1279999999999  L 8.75299999999928 1.1939999999999  C 8.49814636330615 0.936123200944451  8.08271067360874 0.932992899730351  7.82399999999927 1.1869999999999  L 7.81899999999928 1.19199999999989  L 7.3469999999993 1.65499999999989  L 9.21599999999927 3.53199999999987  L 9.67899999999929 3.0619999999999  C 9.80388998960797 2.93890266384662  9.87420513105604 2.77086728837412  9.87420513105604 2.59550918712841  C 9.87420513105604 2.42259733052771  9.8058326876095 2.25670006675938  9.68399999999929 2.1339999999999  L 9.67899999999929 2.12899999999991  Z M 0.799999999999272 12.7389999999999  L 0.799999999999272 11.4099999999999  L 12.7079999999993 11.4099999999999  L 12.7079999999993 12.7389999999999  L 0.799999999999272 12.7389999999999  Z " fill-rule="nonzero" fill="#cccccc" stroke="none" transform="matrix(1 0 0 1 139 146 )" />
  </g>
</svg>