<?xml version="1.0" encoding="utf-8"?>
<svg version="1.1" xmlns:xlink="http://www.w3.org/1999/xlink" width="7px" height="6px" xmlns="http://www.w3.org/2000/svg">
  <g transform="matrix(1 0 0 1 -323 -27 )">
    <path d="M 6.42400000000043 3.00699999999961  C 6.43700000000052 3.09299999999939  6.38200000000052 3.12599999999929  6.28300000000053 3.12599999999929  L 5.24700000000053 3.12599999999929  C 5.20452399903007 3.12658356463044  5.16289097980325 3.13793802441978  5.12600000000054 3.1589999999992  C 5.09300000000053 3.18099999999936  5.07100000000054 3.1589999999992  5.07100000000054 3.20299999999929  C 5.06960804812269 3.25092133397743  5.07329527883047 3.29885533317884  5.08200000000056 3.34599999999932  C 5.08969389344117 3.37092831934797  5.0934062082859 3.39691452326133  5.09300000000059 3.42299999999932  C 5.09300000000059 3.48899999999912  5.14800000000059 3.51099999999929  5.24700000000058 3.48899999999912  L 6.26100000000059 3.48899999999912  C 6.26591029612399 3.48847860572141  6.27084473871463 3.48821736092032  6.27578263907941 3.48821736092032  C 6.35310250405576 3.48821736092032  6.41578263907945 3.55089749594413  6.41578263907945 3.62821736092042  C 6.41578263907945 3.63315526128554  6.41552139427847 3.63808970387572  6.41500000000059 3.64299999999912  L 6.41500000000059 3.97399999999925  C 6.41500000000059 4.08399999999938  6.33800000000059 4.13899999999921  6.19500000000056 4.13899999999921  L 5.88600000000054 4.13899999999921  C 5.80118678960258 4.13736648370809  5.71635445015363 4.14104032518026  5.63200000000052 4.14999999999918  C 5.55130666057943 4.15870458755307  5.47014976897913 4.16237835630864  5.38900000000052 4.16099999999938  L 5.24600000000055 4.16099999999938  C 5.15800000000053 4.16099999999938  5.10300000000058 4.21599999999944  5.10300000000058 4.32599999999934  L 5.10300000000058 5.08699999999931  C 5.10300000000058 5.14199999999937  5.05900000000059 5.17499999999927  4.9820000000006 5.17499999999927  L 4.61800000000062 5.17499999999927  C 4.48600000000062 5.17499999999927  4.41800000000063 5.11999999999944  4.41800000000063 4.99899999999934  C 4.41800000000063 4.95499999999947  4.41800000000063 4.85599999999931  4.4290000000006 4.71199999999953  C 4.43786947394153 4.57595075467088  4.43418724933173 4.43937369641617  4.41800000000063 4.30399999999941  C 4.41800000000063 4.24899999999934  4.40700000000061 4.21599999999944  4.40700000000055 4.19399999999951  C 4.3808607695085 4.17724298722214  4.34994967997687 4.16951521483929  4.31900000000059 4.17199999999934  L 3.2840000000005 4.17199999999934  C 3.1520000000005 4.17199999999934  3.07400000000052 4.10599999999931  3.07400000000052 3.95199999999932  C 3.07526564435437 3.9113694731584  3.07157171240186 3.87073622168077  3.0630000000005 3.83099999999945  C 3.05195136076713 3.79142331395269  3.05195136076713 3.74957668604611  3.0630000000005 3.70999999999935  C 3.07400000000052 3.65499999999929  3.09600000000052 3.60999999999945  3.10700000000048 3.55599999999936  C 3.13127156735959 3.51386576540222  3.18233337797665 3.49529783426874  3.22800000000046 3.51199999999949  L 4.35200000000049 3.51199999999949  C 4.37400000000048 3.51199999999949  4.3850000000005 3.48999999999933  4.3850000000005 3.42399999999952  L 4.3850000000005 3.20399999999927  C 4.3850000000005 3.14899999999943  4.31900000000053 3.1269999999995  4.19800000000049 3.1269999999995  L 3.21700000000044 3.12699999999927  C 3.17997844824561 3.12937684551935  3.14281778924135 3.12566077961901  3.10700000000048 3.1159999999993  C 3.07400000000047 3.1159999999993  3.0630000000005 3.0829999999994  3.0630000000005 3.02799999999934  L 3.06300000000056 2.86299999999937  C 3.06636899004587 2.79613202207474  3.06268196348321 2.72909517547987  3.05200000000048 2.66299999999933  C 3.03175430927109 2.60416963711941  3.0491494070211 2.538938020557  3.09600000000046 2.49799999999937  C 3.15564452980908 2.45192856427389  3.22971345205792 2.42853837830057  3.30500000000046 2.43199999999933  C 3.39667876902399 2.44144423907392  3.48886041131749 2.44511814510724  3.58100000000047 2.4429999999993  C 3.63564008933986 2.43514125868001  3.69080025552438 2.43146391426762  3.74600000000049 2.43199999999933  L 3.9330000000005 2.43199999999933  C 3.99966666666717 2.43199999999933  4.02166666666722 2.4099999999994  3.99900000000048 2.3659999999993  C 3.96269629422522 2.28105014014477  3.91850264350217 2.19969364676808  3.86700000000047 2.12299999999937  C 3.75700000000046 1.97999999999934  3.60200000000049 1.74799999999937  3.48100000000045 1.59399999999937  C 3.34900000000044 1.40699999999924  3.18100000000044 1.19399999999951  3.00700000000046 0.987999999999374  C 2.97544033047319 0.951626075327795  2.95806461522977 0.905086253543004  2.95806461522977 0.856929476899722  C 2.95806461522977 0.7884187257946  2.99313257326929 0.724675386030185  3.05100000000044 0.68799999999942  C 3.10855341408723 0.651269430014281  3.16366866138736 0.610851581994211  3.21600000000052 0.566999999999553  C 3.27875946622368 0.514092737021429  3.34563811202099 0.466274505276488  3.41600000000045 0.423999999999523  C 3.51600000000047 0.357999999999493  3.61600000000044 0.412999999999329  3.71600000000046 0.599999999999454  C 3.74900000000048 0.643999999999323  3.80400000000049 0.720999999999322  3.89200000000045 0.842999999999392  C 3.98000000000042 0.964999999999463  4.06800000000044 1.07499999999936  4.16800000000046 1.21799999999939  C 4.26800000000048 1.36099999999942  4.35500000000047 1.4719999999993  4.43300000000039 1.57099999999946  C 4.48419054280976 1.63055792338423  4.53193507205503 1.69299307701272  4.57600000000042 1.75799999999936  C 4.59701635533884 1.8008487806751  4.63854588310892 1.82991945011395  4.68600000000043 1.83499999999935  C 4.73444466484119 1.85000094800239  4.78644805791555 1.82636304205948  4.80700000000041 1.77999999999929  C 4.81800000000044 1.75799999999936  4.86200000000042 1.69199999999933  4.93900000000042 1.57099999999946  C 5.01600000000042 1.44999999999936  5.10400000000044 1.32799999999952  5.20400000000041 1.18499999999949  C 5.30400000000037 1.04199999999946  5.39100000000042 0.908999999999423  5.46900000000039 0.776999999999362  C 5.54700000000037 0.6449999999993  5.6010000000004 0.567999999999302  5.62300000000039 0.533999999999423  C 5.65857080164847 0.479191535841665  5.70320776109952 0.430834829769765  5.75500000000039 0.390999999999394  C 5.78800000000041 0.36899999999946  5.85500000000042 0.379999999999427  5.94200000000041 0.401999999999362  C 6.00161475664993 0.427044950729169  6.05721228858675 0.46074042463033  6.10700000000043 0.501999999999498  C 6.15315340747861 0.527588644233674  6.1941765693532 0.561492083799521  6.22800000000041 0.601999999999407  C 6.33800000000042 0.722999999999502  6.37100000000038 0.821999999999434  6.32800000000043 0.910999999999603  C 6.30600000000044 0.943999999999505  6.25100000000043 1.03199999999947  6.15200000000044 1.16499999999951  C 6.05300000000045 1.29799999999955  5.95200000000045 1.44099999999958  5.84300000000042 1.58399999999938  C 5.73400000000038 1.72699999999941  5.63300000000044 1.95899999999938  5.5430000000004 2.09099999999944  C 5.45300000000037 2.2229999999995  5.40000000000043 2.2999999999995  5.38900000000041 2.32299999999941  C 5.35600000000039 2.37799999999947  5.36700000000042 2.4109999999996  5.43300000000039 2.42299999999955  C 5.48715236910328 2.43568887824654  5.5424148197971 2.44305720500574  5.59800000000041 2.44499999999948  L 6.23700000000042 2.44499999999948  C 6.28924222539189 2.44365995830162  6.33872669812376 2.46840219466753  6.36900000000043 2.51099999999951  C 6.40095351344905 2.54800105463846  6.42022687304024 2.59425711765721  6.42400000000043 2.64299999999957  L 6.42400000000043 3.00699999999961  Z M 0.374000000000535 2.42799999999943  L 0.374000000000535 0.751999999999271  L 1.15700000000055 0.751999999999271  L 1.15700000000055 2.42799999999943  L 0.374000000000535 2.42799999999943  Z M 1.15700000000055 3.16699999999923  L 1.15700000000055 5.13999999999942  L 0.374000000000535 5.13999999999942  L 0.374000000000535 3.16699999999923  L 1.15700000000055 3.16699999999923  Z " fill-rule="nonzero" fill="#54bd58" stroke="none" transform="matrix(1 0 0 1 323 27 )" />
  </g>
</svg>