<?xml version="1.0" encoding="utf-8"?>
<svg version="1.1" xmlns:xlink="http://www.w3.org/1999/xlink" width="17px" height="17px" xmlns="http://www.w3.org/2000/svg">
  <g transform="matrix(1 0 0 1 -328 -39 )">
    <path d="M 17 8.99850346074702  C 16.9956003146343 13.415784282347  13.415784282347 16.9956003146343  8.99850346074702 17  C 4.58033963374334 16.9994490036942  0.999002369380477 13.4176650771596  0.999002369380477 8.99950121579815  C 0.999002369380477 4.5809477118828  4.5809477118828 0.999002369380477  8.99950121579815 0.999002369380477  C 13.4176650771596 0.999002369380477  16.9994490036942 4.58033963374335  17 8.99850346074702  Z M 15.8516555465486 8.99850346074702  C 15.8467055340287 5.21614897186686  12.7808597510994 2.1516421811269  8.99850346074703 2.14834445345139  C 5.21455285702297 2.1488955676726  2.14734705112866 5.2165481298843  2.14734705112866 9.00049877374192  C 2.14734705112866 12.7848391484633  5.21516106937358 15.8526531667082  8.99950144409492 15.8526531667082  C 12.7838418188163 15.8526531667082  15.8516558370612 12.7848391484633  15.8516558370612 9.00049877374192  C 15.8516558370612 8.99983366939841  15.8516557402237 8.99916856506236  15.8516555465486 8.99850346074702  Z " fill-rule="nonzero" fill="#999999" stroke="none" transform="matrix(1 0 0 1 328 39 )" />
  </g>
</svg>