<?xml version="1.0" encoding="utf-8"?>
<svg version="1.1" xmlns:xlink="http://www.w3.org/1999/xlink" width="9px" height="9px" xmlns="http://www.w3.org/2000/svg">
  <g transform="matrix(1 0 0 1 -36 -1826 )">
    <path d="M 5.65500000000003 8.3309999999999  C 5.31093696881868 8.67703940533852  4.84297793091406 8.87142239031414  4.35500000000002 8.87099999999987  C 3.86702206908598 8.87142239031414  3.39906303118136 8.67703940533829  3.05500000000001 8.3309999999999  L 0.569000000000074 5.84500000000003  C -0.147031162475628 5.12622774457441  -0.147031162475628 3.96377225542528  0.569000000000017 3.24499999999989  L 3.05700000000002 0.756999999999834  C 3.77508959198099 0.0393181817519235  4.93891040801896 0.0393181817519235  5.65700000000004 0.756999999999834  L 8.14300000000009 3.24299999999994  C 8.85903116247579 3.96177225542533  8.85903116247579 5.12422774457445  8.14300000000003 5.84299999999985  L 5.65500000000003 8.3309999999999  Z M 4.35500000000002 2.35699999999997  L 2.16800000000001 4.54399999999987  L 4.35500000000002 6.73099999999999  L 6.54200000000003 4.54399999999987  L 4.35500000000002 2.35699999999997  Z " fill-rule="nonzero" fill="#666666" stroke="none" transform="matrix(1 0 0 1 36 1826 )" />
  </g>
</svg>