<?xml version="1.0" encoding="utf-8"?>
<svg version="1.1" xmlns:xlink="http://www.w3.org/1999/xlink" width="4px" height="8px" xmlns="http://www.w3.org/2000/svg">
  <g transform="matrix(1 0 0 1 -126 -1154 )">
    <path d="M 2.87699999999995 1.00999999999999  C 2.87699999999995 0.563201637386783  2.51479836261313 0.201000000000022  2.06799999999993 0.201000000000022  C 1.62120163738678 0.201000000000022  1.25899999999996 0.563201637386783  1.25899999999996 1.00999999999999  C 1.25899999999996 1.45679836261309  1.62120163738678 1.81899999999996  2.06799999999993 1.81899999999996  C 2.51479836261313 1.81899999999996  2.87699999999995 1.45679836261309  2.87699999999995 1.00999999999999  Z M 1.15299999999996 7.70699999999988  L 1.15299999999996 7.70999999999992  C 1.28612033700415 7.81722035106941  1.45780667281849 7.86430732080748  1.62699999999995 7.83999999999992  C 1.69853862235817 7.82945059788597  1.76934450966957 7.81442104633402  1.83899999999994 7.79499999999985  L 3.20399999999995 7.33299999999986  C 3.41913010894399 7.29410934302086  3.57559194860727 7.10682667318974  3.57559194860727 6.88820954903315  C 3.57559194860727 6.82362295986809  3.56175050051144 6.75978637786375  3.53499999999997 6.70099999999991  C 3.47728508828055 6.50176391062178  3.29482901565274 6.36466068533946  3.08740184687906 6.36466068533946  C 3.04012108293148 6.36466068533946  2.99311565858443 6.3718561677764  2.94799999999998 6.38599999999997  L 2.19299999999998 6.59599999999989  L 2.89299999999997 3.27299999999991  C 2.93147305457825 3.07757037693796  2.876764118952 2.87536910810309  2.74499999999995 2.72599999999989  C 2.60533170983342 2.59432603527409  2.40811911504852 2.54304321903942  2.22199999999992 2.58999999999992  L 0.921999999999912 3.02999999999986  C 0.682767467509677 3.12329467676545  0.553096221918224 3.38263716794836  0.6219999999999 3.62999999999988  C 0.657933161436858 3.84893902189185  0.847151215837073 4.00963336200402  1.0690193915583 4.00963336200402  C 1.10886264136485 4.00963336200402  1.14853176994535 4.00437688930333  1.1869999999999 3.99399999999991  L 1.75599999999991 3.82199999999989  L 1.03199999999993 7.28099999999984  C 0.998715441513582 7.43429473667697  1.04410331940323 7.59409007536283  1.15299999999996 7.70699999999988  Z " fill-rule="nonzero" fill="#b9b9b9" stroke="none" transform="matrix(1 0 0 1 126 1154 )" />
  </g>
</svg>