<?xml version="1.0" encoding="utf-8"?>
<svg version="1.1" xmlns:xlink="http://www.w3.org/1999/xlink" width="17px" height="20px" xmlns="http://www.w3.org/2000/svg">
  <g transform="matrix(1 0 0 1 -28 -1357 )">
    <path d="M 16.642 9.19400000000019  L 16.638 9.19400000000019  C 15.8858953106798 8.86431040415005  15.0736173569337 8.69409486156769  14.2524251179851 8.69409486156769  C 10.9707491344906 8.69409486156769  8.31042511798515 11.3544188780731  8.31042511798515 14.6360948615677  C 8.31042511798515 16.4467912572134  9.136041656975 18.1586799516836  10.553 19.2860000000001  C 10.2211860686352 19.4332994218591  9.83477844952466 19.3819072085175  9.553 19.153  L 8.2 18.0740000000001  L 6.987 19.153  C 6.62872928295607 19.4588465003467  6.10127071704393 19.4588465003467  5.743 19.153  L 4.531 18.0810000000001  L 3.306 19.1650000000002  C 3.13293034239501 19.3151826477069  2.9111424844597 19.3972868066542  2.682 19.3960000000002  C 2.45434719517765 19.3987138600558  2.2336565507739 19.3175566553393  2.062 19.1680000000001  L 0.640999999999998 17.903  C 0.596853104158861 17.8645111515823  0.557863730346597 17.8204800483977  0.524999999999999 17.7720000000002  C 0.201178595223759 17.5410220036154  0.0066152959673218 17.1697179974008  0 16.7720000000002  L 0 1.33500000000004  C 0.000410801251888415 0.812934070808524  0.419975123578524 0.387573429469967  0.942 0.381000000000085  L 15.7 0.381000000000085  C 16.2209086029724 0.383183927084929  16.6420338975908 0.806078504980178  16.6420338975908 1.32699168602676  C 16.6420338975908 1.32966115988825  16.6420225982926 1.33233062179283  16.642 1.33500000000004  L 16.642 9.19400000000019  Z M 1.89993049981054 8.34799535482375  C 1.89993049981054 8.35066372073925  1.89995366741355 8.35333203636651  1.9 8.35599999999999  C 1.90159292066243 8.6118654456277  2.10716642309615 8.81965896428642  2.363 8.82400000000007  L 6.663 8.82400000000007  C 6.66402323534489 8.82400682857701  6.6650464906267 8.82401024289402  6.66606974875664 8.82401024289402  C 6.92012073367881 8.82401024289402  7.12606974875664 8.61806122781604  7.12606974875664 8.36401024289398  C 7.12606974875664 8.36134001009782  7.12604649828974 8.35866982791481  7.126 8.35599999999999  C 7.12441907837109 8.09996397915779  6.91899444459729 7.8918772550976  6.663 7.88700000000017  L 2.363 7.88700000000017  C 2.36231017094767 7.88699690321982  2.36162033581387 7.88699535482374  2.36093049981055 7.88699535482374  C 2.10632723013855 7.88699535482374  1.89993049981054 8.09339208515166  1.89993049981054 8.34799535482375  Z M 1.89997281697806 12.1029829551132  C 1.89997281697806 12.1046553402289  1.89998187811837 12.1063277130711  1.9 12.1080000000002  C 1.89939691626967 12.3630025558866  2.10305493591505 12.5715519253488  2.358 12.577  L 5.722 12.577  C 5.97575807418906 12.5742809734386  6.18003922372031 12.3677992176852  6.18003922372031 12.1140265766821  C 6.18003922372031 12.1120176539671  6.18002614886996 12.1100087525263  6.18 12.1080000000002  C 6.18005813114246 11.853386147395  5.97655572809852 11.6454404604419  5.722 11.6400000000001  L 2.359 11.6400000000001  C 2.10485164296549 11.6421808252262  1.89997281697806 11.8488252415139  1.89997281697806 12.1029829551132  Z M 1.902 4.13400000000001  L 1.9 4.13400000000001  C 1.90216531064564 4.39173040881747  2.11027480007699 4.60028457664498  2.368 4.60300000000007  L 8.564 4.60300000000007  C 8.56433476194967 4.60300071991014  8.56466952457711 4.60300107986541  8.56500428730087 4.60300107986541  C 8.82292126547184 4.60300107986541  9.03200428730086 4.39391805803643  9.03200428730086 4.13600107986531  C 9.03200428730086 4.13533405094745  9.03200285819729 4.13466702279425  9.032 4.13400000000001  C 9.02983468935436 3.87626959118279  8.82172519992301 3.66771542335528  8.564 3.66500000000019  L 2.37 3.66500000000019  C 2.36933010900312 3.66499711098254  2.36866021255513 3.66499566646871  2.36799031532858 3.66499566646871  C 2.11062562190743 3.66499566646871  1.90199031532858 3.87363097304751  1.90199031532858 4.13099566646861  C 1.90199031532858 4.13199711878406  1.90199354356916 4.13299856849744  1.902 4.13400000000001  Z " fill-rule="nonzero" fill="#666666" stroke="none" transform="matrix(1 0 0 1 28 1357 )" />
  </g>
</svg>