<?xml version="1.0" encoding="utf-8"?>
<svg version="1.1" xmlns:xlink="http://www.w3.org/1999/xlink" width="20px" height="20px" xmlns="http://www.w3.org/2000/svg">
  <g transform="matrix(1 0 0 1 -30 -32 )">
    <path d="M 20 10  C 20 4.47715250169206  15.5228474983079 0  10 0  C 4.47715250169206 0  0 4.47715250169206  0 10  C 0 15.5228474983079  4.47715250169206 20  10 20  C 15.5228474983079 20  20 15.5228474983079  20 10  Z M 10.859 5  L 10.859 11.631  C 10.859 12.1056887424796  10.4741887424796 12.4905  9.9995 12.4905  C 9.52481125752043 12.4905  9.14 12.1056887424796  9.14 11.631  L 9.14 5  C 9.14 4.52531125752043  9.52481125752043 4.1405  9.9995 4.1405  C 10.4741887424796 4.1405  10.859 4.52531125752043  10.859 5  Z M 8.75 14.609  C 8.75 13.9186440627115  9.30964406271151 13.359  10 13.359  C 10.6903559372885 13.359  11.25 13.9186440627115  11.25 14.609  C 11.25 15.2993559372885  10.6903559372885 15.859  10 15.859  C 9.30964406271151 15.859  8.75 15.2993559372885  8.75 14.609  Z " fill-rule="nonzero" fill="#ffde03" stroke="none" transform="matrix(1 0 0 1 30 32 )" />
  </g>
</svg>