<?xml version="1.0" encoding="utf-8"?>
<svg version="1.1" xmlns:xlink="http://www.w3.org/1999/xlink" width="20px" height="17px" xmlns="http://www.w3.org/2000/svg">
  <g transform="matrix(1 0 0 1 -14 -435 )">
    <path d="M 12.592 2.09500000000003  C 13.2457881129093 2.591169353429  13.828830646571 3.17421188709073  14.325 3.82800000000003  C 14.498511731263 3.88351472975222  14.659283016897 3.97290764332882  14.798 4.09100000000001  L 18.631 7.661  C 19.0786860087494 8.0534999341366  19.1255862048282 8.73377611154586  18.736 9.18400000000003  L 18.631 9.28899999999999  L 14.798 12.86  C 14.6521632849454 12.9674310670767  14.4932126791764 13.0558116364578  14.325 13.123  C 12.8358039730734 15.1287424272338  10.4850950582412 16.3112150401757  7.98695425135706 16.3112150401757  C 3.62721843619278 16.3112150401757  0.0929542513570603 12.7769508553399  0.0929542513570603 8.41721504017568  C 0.0929542513570603 6.77153765737171  0.607277502351046 5.1670056425441  1.564 3.82800000000003  C 4.14560707714242 0.328551519289363  9.06148509339803 -0.443956333645929  12.592 2.09500000000003  Z M 5.34486857718196 8.47585843574143  C 5.34486857718196 8.48457245567079  5.34491238534157 8.49328642054036  5.345 8.50200000000001  C 5.345 9.952299562652  6.52070024694433 11.1279998095964  7.971 11.1279998095964  C 9.42129975305566 11.1279998095964  10.597 9.952299562652  10.597 8.50199980959633  C 10.597 7.05209056544379  9.42190913902385 5.8765521360412  7.972 5.87600000000003  C 7.9629565001594 5.87590562446997  7.95391256944797 5.87585843574146  7.94486857718196 5.87585843574146  C 6.50892822762189 5.87585843574146  5.34486857718196 7.03991808618139  5.34486857718196 8.47585843574143  Z " fill-rule="nonzero" fill="#0070cc" stroke="none" transform="matrix(1 0 0 1 14 435 )" />
  </g>
</svg>