<?xml version="1.0" encoding="utf-8"?>
<svg version="1.1" xmlns:xlink="http://www.w3.org/1999/xlink" width="13px" height="13px" xmlns="http://www.w3.org/2000/svg">
  <g transform="matrix(1 0 0 1 -235 -92 )">
    <path d="M 6.41399999999925 2.59700000000009  L 0.799999999999272 8.21300000000011  L 0.799999999999272 10.0880000000001  L 2.65899999999925 10.0880000000001  L 8.28099999999927 4.46600000000012  L 6.41399999999925 2.59700000000009  Z M 9.67899999999929 2.13000000000011  L 9.68699999999927 2.1290000000001  L 8.75299999999928 1.19500000000011  C 8.49814636330615 0.937123200944655  8.08271067360874 0.933992899730555  7.82399999999927 1.1880000000001  L 7.81899999999928 1.1930000000001  L 7.3469999999993 1.65600000000009  L 9.21599999999927 3.53300000000007  L 9.67899999999929 3.0630000000001  C 9.80388998960797 2.93990266384682  9.87420513105604 2.77186728837432  9.87420513105604 2.59650918712862  C 9.87420513105604 2.42359733052791  9.8058326876095 2.25770006675958  9.68399999999929 2.1350000000001  L 9.67899999999929 2.13000000000011  Z M 0.799999999999272 12.7400000000001  L 0.799999999999272 11.4110000000001  L 12.7079999999993 11.4110000000001  L 12.7079999999993 12.7400000000001  L 0.799999999999272 12.7400000000001  Z " fill-rule="nonzero" fill="#cccccc" stroke="none" transform="matrix(1 0 0 1 235 92 )" />
  </g>
</svg>