<?xml version="1.0" encoding="utf-8"?>
<svg version="1.1" xmlns:xlink="http://www.w3.org/1999/xlink" width="15px" height="12px" xmlns="http://www.w3.org/2000/svg">
  <g transform="matrix(1 0 0 1 -862 -23 )">
    <path d="M 10.8272855339061 9.90697876693057  L 10.8281694173826 9.907827295068  C 9.24909154332738 9.91217289249547  7.7333385704307 9.31210648996201  6.61646465194025 8.24046950503011  C 5.35187492199213 7.02643268873541  4.72290041426589 5.33088877738109  4.90349847451597 3.62277938116948  L 7.81766229648099 3.62362790930691  L 4.2096499454766 0.159936052342727  L 0.601637594472209 3.62362790930691  L 3.19230006404439 3.62277938116948  C 3.01745315676612 5.76633070326785  3.82876322788235 7.87594359137316  5.41261535697032 9.39616482820141  C 6.84837942677376 10.7746512980975  8.79758942439196 11.5464201111255  10.8281694173826 11.5403954314715  C 12.2662999567197 11.5398226138857  13.67514777678 11.1501608554347  14.893149525729 10.4160956493849  L 13.6557126586524 9.22815625699149  C 12.7859998277839 9.67577679768537  11.8141010418753 9.90903250630341  10.8272855339061 9.90697876693057  Z " fill-rule="nonzero" fill="#ffffff" stroke="none" transform="matrix(1 0 0 1 862 23 )" />
  </g>
</svg>