<?xml version="1.0" encoding="utf-8"?>
<svg version="1.1" xmlns:xlink="http://www.w3.org/1999/xlink" width="17px" height="14px" xmlns="http://www.w3.org/2000/svg">
  <g transform="matrix(1 0 0 1 -29 -1253 )">
    <path d="M 1.60599999999999 11.1759999999999  C 1.60849722417549 10.4929497336434  1.90731243832994 9.84460463528853  2.42500000000001 9.39900000000011  L 0.64500000000001 9.39900000000011  C 0.64097971602942 9.3989005898834  0.636958356809998 9.39885087912853  0.632936843963364 9.39885087912853  C 0.366482894118064 9.39885087912853  0.149286675724483 9.61258053412075  0.14500000000001 9.87900000000013  L 0.145000000000039 10.922  C 0.149825401022696 11.1880211457803  0.366854830120104 11.4011495441862  0.632919736669749 11.4011495441862  C 0.636946953911547 11.4011495441862  0.640974016870786 11.4010996923048  0.64500000000001 11.4010000000001  L 1.61800000000002 11.4010000000001  C 1.61100000000002 11.327  1.60600000000002 11.252  1.60599999999999 11.1759999999999  Z M 1.14099999999999 8.87900000000013  L 1.14100000000002 8.87699999999995  L 10.698 8.87699999999995  L 10.698 8.00299999999993  C 10.698 7.97499999999991  10.698 7.94700000000012  10.698 7.91800000000012  L 10.698 1.74600000000009  C 10.6886877978777 1.20772872094153  10.2452869969152 0.778645604772919  9.70699999999999 0.787000000000035  L 1.14099999999999 0.787000000000035  C 0.602713003084773 0.778645604772919  0.159312202122265 1.20772872094153  0.149999999999977 1.74600000000009  L 0.149999999999977 7.92000000000007  C 0.158662200924795 8.45222097663259  0.592579426599855 8.87913341846138  1.12487088970295 8.87913341846138  C 1.13024753570511 8.87913341846138  1.1356240897351 8.87908894411953  1.14099999999999 8.87900000000013  Z M 4.07225159960549 9.34173995471201  C 4.06183385878211 9.34173995471201  4.05141629828645 9.34182663947558  4.04100000000003 9.3420000000001  C 3.04466668235841 9.37490555711634  2.25400000001341 10.19211641175  2.25400000001341 11.1889929615454  C 2.25400000001341 12.2096151792327  3.08137778232611 13.0369929615454  4.10200000001342 13.0369929615454  C 5.12262221770069 13.0369929615454  5.9500000000134 12.2096151792327  5.9500000000134 11.1889929615454  C 5.93321896749029 10.1639315752975  5.09745737327941 9.34173995471201  4.07225159960549 9.34173995471201  Z M 16.437 9.39400000000001  L 16.441 9.39900000000011  L 16.398 9.39900000000011  L 16.398 6.36000000000013  L 14.238 2.81500000000005  L 11.662 2.81500000000005  C 11.6579740168709 2.8149003076951  11.6539469539114 2.81485045581394  11.6499197366698 2.81485045581394  C 11.3838548301201 2.81485045581394  11.1668254010227 3.02797885421978  11.162 3.2940000000001  L 11.162 9.39400000000001  L 5.73900000000003 9.39400000000001  C 6.25690404858688 9.83944139691903  6.55576751158213 10.4878911817086  6.55800000000002 11.171  C 6.55800000000002 11.2470000000001  6.55800000000002 11.3220000000001  6.54700000000003 11.396  L 11.057 11.396  C 11.051 11.327  11.046 11.2570000000001  11.046 11.1849999999999  C 11.0482066528034 10.4915868784999  11.3590137723315 9.83515344562875  11.894 9.39400000000001  C 12.8209526483955 8.62191636163971  14.1670473516045 8.62191636163971  15.094 9.39400000000001  C 15.6289862276685 9.83515344562875  15.9397933471967 10.4915868784999  15.942 11.1849999999999  C 15.942 11.2560000000001  15.942 11.327  15.931 11.396  L 16.437 11.396  C 16.4410259831288 11.3960996923049  16.445053046089 11.3961495441861  16.4490802633303 11.3961495441861  C 16.71514516988 11.3961495441861  16.9321745989774 11.1830211457802  16.937 10.9169999999999  L 16.937 9.87400000000002  C 16.9327133242756 9.60758053412064  16.715517105882 9.39385087912842  16.4490631560367 9.39385087912842  C 16.4450416431901 9.39385087912842  16.4410202839706 9.39390058988329  16.437 9.39400000000001  Z M 15.8160000000001 6.43100000000004  L 11.741 6.43200000000002  L 11.741 3.83200000000011  C 11.740766279668 3.82655591106709  11.7406493791597 3.82110743455996  11.7406493791597 3.81565833100967  C 11.7406493791597 3.6052378413242  11.9112288894741 3.43465833100959  12.1216493791597 3.43465833100959  C 12.1384883237588 3.43465833100959  12.1553087461594 3.435774668465  12.1720000000001 3.4380000000001  L 13.9940000000001 3.4380000000001  L 15.8160000000001 6.43100000000004  Z M 15.4500000000001 11.1900000000001  C 15.4324713601946 10.1529861502822  14.5780274058932 9.32629260203976  13.5410000000001 9.34300000000007  C 12.5446666823584 9.37590555711631  11.7540000000135 10.19311641175  11.7540000000135 11.1899929615454  C 11.7540000000135 12.2106151792327  12.5813777823261 13.0379929615456  13.6020000000134 13.0379929615456  C 14.6226222177008 13.0379929615456  15.4500000000135 12.2106151792327  15.4500000000135 11.1899929615454  Z " fill-rule="nonzero" fill="#666666" stroke="none" transform="matrix(1 0 0 1 29 1253 )" />
  </g>
</svg>