<?xml version="1.0" encoding="utf-8"?>
<svg version="1.1" xmlns:xlink="http://www.w3.org/1999/xlink" width="10px" height="10px" xmlns="http://www.w3.org/2000/svg">
  <g transform="matrix(1 0 0 1 -17 -407 )">
    <path d="M 9.42100000000001 5.17900000000003  C 9.41441975140242 2.83497610802766  7.51701666061521 0.935786385328242  5.17300000000001 0.927000000000021  C 5.17166666703547 0.926998745688138  5.17033333355494 0.926998118532083  5.16900000000042 0.926998118532083  C 2.82068524371989 0.926998118532083  0.917000000000424 2.83068336225153  0.917000000000424 5.17899811853204  C 0.917000000000424 7.52731287481259  2.82068524371989 9.43099811853205  5.16900000000042 9.43099811853205  C 7.51731475628095 9.43099811853205  9.42100000000042 7.52731287481259  9.42100000000042 5.17899811853204  Z M 6.89883519346166 5.60483519346167  C 6.89021671350339 5.60483519346167  6.88160048471299 5.60455665024267  6.873 5.60400000000004  L 5.59800000000001 5.60400000000004  L 5.59800000000001 6.87900000000002  C 5.59855665024267 6.887600484713  5.59883519346165 6.89621671350341  5.59883519346165 6.90483519346168  C 5.59883519346165 7.12574909339401  5.41974909339397 7.30483519346166  5.19883519346165 7.30483519346166  C 5.1902167135034 7.30483519346166  5.18160048471299 7.30455665024272  5.17300000000001 7.30400000000003  C 5.16439951528702 7.30455665024272  5.15578328649661 7.30483519346166  5.14716480653836 7.30483519346166  C 4.92625090660604 7.30483519346166  4.74716480653836 7.12574909339401  4.74716480653836 6.90483519346168  C 4.74716480653836 6.89621671350341  4.74744334975734 6.887600484713  4.748 6.87900000000002  L 4.748 5.60400000000004  L 3.47200000000001 5.60400000000004  C 3.46339951528703 5.60455665024267  3.45478328649661 5.60483519346167  3.44616480653836 5.60483519346167  C 3.22525090660604 5.60483519346167  3.04616480653836 5.42574909339396  3.04616480653836 5.20483519346169  C 3.04616480653836 5.19621671350342  3.04644334975734 5.18760048471302  3.04700000000001 5.17900000000003  C 3.04644334975734 5.17039951528704  3.04616480653836 5.16178328649664  3.04616480653836 5.15316480653837  C 3.04616480653836 4.93225090660604  3.22525090660604 4.75316480653839  3.44616480653836 4.75316480653839  C 3.45478328649662 4.75316480653839  3.46339951528702 4.75344334975733  3.47200000000001 4.75400000000002  L 4.748 4.75400000000002  L 4.748 3.47800000000001  C 4.74744334975734 3.46939951528702  4.74716480653836 3.46078328649662  4.74716480653836 3.45216480653835  C 4.74716480653836 3.23125090660608  4.92625090660604 3.05216480653837  5.14716480653836 3.05216480653837  C 5.15578328649661 3.05216480653837  5.16439951528702 3.05244334975737  5.17300000000001 3.053  C 5.18160048471299 3.05244334975737  5.1902167135034 3.05216480653837  5.19883519346165 3.05216480653837  C 5.41974909339397 3.05216480653837  5.59883519346165 3.23125090660608  5.59883519346165 3.45216480653835  C 5.59883519346165 3.46078328649662  5.59855665024267 3.46939951528702  5.59800000000001 3.47800000000001  L 5.59800000000001 4.75400000000002  L 6.873 4.75400000000002  C 6.88160048471299 4.75344334975733  6.8902167135034 4.75316480653839  6.89883519346166 4.75316480653839  C 7.11974909339397 4.75316480653839  7.29883519346166 4.93225090660604  7.29883519346166 5.15316480653837  C 7.29883519346166 5.16178328649664  7.29855665024267 5.17039951528704  7.29800000000001 5.17900000000003  C 7.29855665024267 5.18760048471302  7.29883519346166 5.19621671350342  7.29883519346166 5.20483519346169  C 7.29883519346166 5.42574909339396  7.11974909339397 5.60483519346167  6.89883519346166 5.60483519346167  Z " fill-rule="nonzero" fill="#ffffff" stroke="none" fill-opacity="0.996078431372549" transform="matrix(1 0 0 1 17 407 )" />
  </g>
</svg>