<?xml version="1.0" encoding="utf-8"?>
<svg version="1.1" xmlns:xlink="http://www.w3.org/1999/xlink" width="31px" height="31px" xmlns="http://www.w3.org/2000/svg">
  <g transform="matrix(1 0 0 1 -30 -33 )">
    <path d="M 30.38 15.0009999999999  C 30.3706314782301 23.2813875741211  23.6603875741212 29.99163147823  15.38 30.0009999999999  C 7.09572875253814 30.0009999999999  0.380000000000038 23.2852712474618  0.380000000000038 15.0009999999999  C 0.380000000000038 6.71672875253805  7.09572875253814 0.000999999999947931  15.38 0.000999999999947931  C 23.6642712474619 0.000999999999947931  30.38 6.71672875253805  30.38 15.0009999999999  Z M 15.38 2.15299999999995  C 8.284245534174 2.15299999999995  2.53200000000004 7.90524553417391  2.53200000000004 15.0009999999999  C 2.53200000000004 22.096754465826  8.284245534174 27.8489999999999  15.38 27.8489999999999  C 22.4757544658261 27.8489999999999  28.228 22.096754465826  28.228 15.0009999999999  C 28.2208351455027 7.90805350062821  22.4729459202476 2.15971689918808  15.38 2.15199999999996  Z " fill-rule="nonzero" fill="#54bd58" stroke="none" transform="matrix(1 0 0 1 30 33 )" />
  </g>
</svg>