<?xml version="1.0" encoding="utf-8"?>
<svg version="1.1" xmlns:xlink="http://www.w3.org/1999/xlink" width="12px" height="10px" xmlns="http://www.w3.org/2000/svg">
  <g transform="matrix(1 0 0 1 -117 -1435 )">
    <path d="M 8.66182842712475 8.25581563910873  L 8.66253553390594 8.25652274588992  C 7.39927323466162 8.26014407707953  6.18667085634442 7.76008874163495  5.29317172155204 6.86705792085831  C 4.28149993759355 5.8553605739462  3.77832033141252 4.44240731448417  3.92279877961251 3.01898281764124  L 6.25412983718455 3.01968992442244  L 3.36771995638107 0.133280043618925  L 0.481310075577582 3.01968992442244  L 2.55384005123535 3.01898281764124  C 2.41396252541263 4.8052755860565  3.06301058230569 6.56328632614418  4.33009228557596 7.83013735683448  C 5.47870354141868 8.97887608174801  7.03807153951344 9.62201675927122  8.66253553390594 9.61699619289288  C 9.81303996537557 9.6165188449047  10.9401182214237 9.29180071286214  11.9145196205829 8.68007970782082  L 10.9245701269217 7.69013021415958  C 10.2287998622269 8.06314733140448  9.45128083350009 8.25752708858613  8.66182842712475 8.25581563910873  Z " fill-rule="nonzero" fill="#999999" stroke="none" transform="matrix(1 0 0 1 117 1435 )" />
  </g>
</svg>