<?xml version="1.0" encoding="utf-8"?>
<svg version="1.1" xmlns:xlink="http://www.w3.org/1999/xlink" width="20px" height="20px" xmlns="http://www.w3.org/2000/svg">
  <g transform="matrix(1 0 0 1 -41 -68 )">
    <path d="M 11.299 8.49999999999999  C 11.299 7.119288125423  10.179711874577 5.99999999999999  8.79899999999999 5.99999999999999  C 7.418288125423 5.99999999999999  6.29899999999999 7.119288125423  6.29899999999999 8.49999999999999  C 6.29899999999999 9.88071187457697  7.418288125423 11  8.79899999999999 11  C 10.179711874577 11  11.299 9.88071187457697  11.299 8.49999999999999  Z M 19.799 2  C 19.799 0.895430500338406  18.9035694996616 0  17.799 0  L 2.79900000000001 0  C 1.69443050033841 0  0.799000000000007 0.895430500338406  1 2  L 1 18  C 0.799000000000007 19.1045694996616  1.69443050033841 20  2.79900000000001 20  L 17.799 20  C 18.9035694996616 20  19.799 19.1045694996616  19.799 18  L 19.799 2  Z M 13.766 15.5  L 12.259 15.5  C 11.9983101695936 13.7905139039364  10.5282489411048 12.5276362383309  8.79899999999999 12.5276362383309  C 7.06975105889519 12.5276362383309  5.59968983040636 13.7905139039364  5.339 15.5  L 3.83200000000001 15.5  C 3.99205377934121 13.8854085527756  4.92711363936262 12.4494370884427  6.33900000000001 11.65  C 5.36715959700726 10.8920275196614  4.79900000000001 9.72836714591531  4.79900000000001 8.49589156812897  C 4.79900000000001 6.2867525688058  6.58986100067683 4.49589156812897  8.79900000000001 4.49589156812897  C 11.0081389993232 4.49589156812897  12.799 6.2867525688058  12.799 8.49589156812897  C 12.799 9.72836714591531  12.2308404029928 10.8920275196614  11.259 11.65  C 12.6697003633608 12.4506983224517  13.6043130547796 13.8859830699436  13.766 15.5  Z M 16.0500006684498 14.0000006684498  C 16.0496671121911 14.0000006684498  16.049333555961 14.0000004456331  16.049 14  C 15.6347864376269 14  15.299 13.6642135623731  15.299 13.25  C 15.299 12.8357864376269  15.6347864376269 12.5  16.049 12.5  C 16.4632135623731 12.5  16.799 12.8357864376269  16.799 13.25  C 16.7990004456332 13.2503335559721  16.7990006684498 13.25066711218  16.7990006684498 13.2510006684498  C 16.7990006684498 13.6646619460731  16.4636619460731 14.0000006684498  16.0500006684498 14.0000006684498  Z M 16.0500006684498 11.0000006684498  C 16.0496671121858 11.0000006684498  16.0493335559663 11.0000004456331  16.049 11  C 15.6347864376269 11  15.299 10.6642135623731  15.299 10.25  C 15.299 9.83578643762691  15.6347864376269 9.5  16.049 9.5  C 16.4632135623731 9.5  16.799 9.83578643762691  16.799 10.25  C 16.7990004456332 10.2503335559721  16.7990006684498 10.25066711218  16.7990006684498 10.2510006684498  C 16.7990006684498 10.6646619460731  16.4636619460731 11.0000006684498  16.0500006684498 11.0000006684498  Z M 16.0500006684498 8.00000066844979  C 16.0496671121911 8.00000066844979  16.049333555961 8.00000044563313  16.049 8  C 15.6347864376269 8  15.299 7.66421356237309  15.299 7.25  C 15.299 6.83578643762691  15.6347864376269 6.5  16.049 6.5  C 16.4632135623731 6.5  16.799 6.83578643762691  16.799 7.25  C 16.7990004456332 7.25033355597208  16.7990006684498 7.25066711218003  16.7990006684498 7.25100066844979  C 16.7990006684498 7.66466194607305  16.4636619460731 8.00000066844979  16.0500006684498 8.00000066844979  Z " fill-rule="nonzero" fill="#ffffff" stroke="none" transform="matrix(1 0 0 1 41 68 )" />
  </g>
</svg>