<?xml version="1.0" encoding="utf-8"?>
<svg version="1.1" xmlns:xlink="http://www.w3.org/1999/xlink" width="18px" height="4px" xmlns="http://www.w3.org/2000/svg">
  <g transform="matrix(1 0 0 1 -30 -876 )">
    <path d="M 3.98299999999998 1.79499999999996  C 3.83541334456834 0.941966282612725  3.05705555876537 0.345573572014246  2.19499999999999 0.424999999999955  C 1.161 0.410999999999945  0.319999999999993 1.05499999999995  0.337999999999965 1.84699999999987  C 0.485586655431604 2.70003371738699  1.26394444123463 3.29642642798547  2.126 3.21699999999998  C 3.16 3.23099999999999  4.001 2.58699999999999  3.98299999999998 1.79499999999996  Z M 17.744 1.79499999999996  C 17.5964133445684 0.941966282612725  16.8180555587654 0.345573572014246  15.956 0.424999999999955  C 14.922 0.410999999999945  14.081 1.05499999999995  14.099 1.84699999999987  C 14.2465866554316 2.70003371738699  15.0249444412346 3.29642642798547  15.887 3.21699999999998  C 16.921 3.23099999999999  17.762 2.58699999999999  17.744 1.79499999999996  Z " fill-rule="nonzero" fill="#666666" stroke="none" transform="matrix(1 0 0 1 30 876 )" />
  </g>
</svg>