<?xml version="1.0" encoding="utf-8"?>
<svg version="1.1" xmlns:xlink="http://www.w3.org/1999/xlink" width="11px" height="15px" xmlns="http://www.w3.org/2000/svg">
  <g transform="matrix(1 0 0 1 -12 -41 )">
    <path d="M 5.14199999999994 15  C 2.70699999999994 15  0.249999999999943 14.339  0.249999999999943 12.864  C 0.249999999999943 11.712  1.93299999999994 10.997  3.49699999999996 10.821  L 3.58299999999997 10.811  L 1.42199999999997 7.34999999999999  C 1.35199999999998 7.22499999999999  1.28699999999998 7.09299999999999  1.22899999999996 6.95899999999999  L 1.17199999999997 6.84399999999999  L 1.16299999999998 6.79799999999999  C 0.972974973213525 6.30681848218995  0.875499999999988 5.78470886928078  0.875499999999988 5.25805073135507  C 0.875499999999988 2.90089941907723  2.78634868772215 0.990050731355069  5.14349999999999 0.990050731355069  C 7.50065131227782 0.990050731355069  9.41149999999999 2.90089941907723  9.41149999999999 5.25805073135507  C 9.41149999999999 5.78470886928078  9.31402502678645 6.30681848218995  9.124 6.79799999999999  L 9.095 6.872  L 9.07300000000001 6.91699999999999  C 9.01203820529261 7.06097406671566  8.94326940956239 7.20151612012549  8.86700000000002 7.33799999999999  L 5.13800000000001 13.526  L 4.255 12.084  L 4.22200000000001 12.084  C 3.31201919104026 12.1018344562863  2.42228527373251 12.3557980105295  1.64000000000001 12.821  L 1.59700000000001 12.861  L 1.64000000000001 12.901  C 2.67920280340704 13.4838056765371  3.866618512565 13.7487575858719  5.05500000000001 13.663  L 5.22499999999999 13.663  C 6.41337280018584 13.7476197503286  7.60060074302467 13.4834823859967  8.64099999999999 12.903  L 8.685 12.862  L 8.64000000000001 12.822  C 8.09624344655268 12.4834766688761  7.4861780317521 12.2655718057919  6.85100000000003 12.183  L 7.60300000000004 10.983  C 9.17100000000005 11.336  10.034 12.004  10.034 12.864  C 10.034 14.34  7.57700000000005 15  5.14200000000005 15  Z M 6.96199999999993 4.785  C 6.96089774851382 3.78029867701046  6.14670132298949 2.96610225148613  5.14199999999994 2.96499999999999  C 4.13778480136799 2.9655522218457  3.32400027502749 3.77978437450605  3.32400027502749 4.78399972497245  C 3.32400027502749 5.78860568491467  4.13839431508526 6.60299972497245  5.14300027502748 6.60299972497245  C 6.14721562549389 6.60299972497245  6.96144777815422 5.78921519863194  6.96199999999993 4.785  Z " fill-rule="nonzero" fill="#707070" stroke="none" transform="matrix(1 0 0 1 12 41 )" />
  </g>
</svg>