<?xml version="1.0" encoding="utf-8"?>
<svg version="1.1" xmlns:xlink="http://www.w3.org/1999/xlink" width="12px" height="10px" xmlns="http://www.w3.org/2000/svg">
  <g transform="matrix(1 0 0 1 -116 -1228 )">
    <path d="M 8.66182842712473 8.25681563910871  L 8.66253553390592 8.2575227458899  C 7.39927323466159 8.26114407707951  6.18667085634439 7.76108874163492  5.29317172155203 6.86805792085829  C 4.28149993759354 5.85636057394618  3.7783203314125 4.44340731448415  3.92279877961249 3.01998281764122  L 6.25412983718454 3.02068992442241  L 3.36771995638105 0.134280043618901  L 0.481310075577568 3.02068992442241  L 2.55384005123534 3.01998281764122  C 2.41396252541261 4.80627558605647  3.06301058230568 6.56428632614416  4.33009228557594 7.83113735683446  C 5.47870354141867 8.97987608174799  7.03807153951342 9.6230167592712  8.66253553390592 9.61799619289286  C 9.81303996537557 9.61751884490468  10.9401182214236 9.29280071286212  11.9145196205829 8.6810797078208  L 10.9245701269217 7.69113021415956  C 10.2287998622269 8.06414733140446  9.45128083350008 8.25852708858611  8.66182842712473 8.25681563910871  Z " fill-rule="nonzero" fill="#999999" stroke="none" transform="matrix(1 0 0 1 116 1228 )" />
  </g>
</svg>