<?xml version="1.0" encoding="utf-8"?>
<svg version="1.1" xmlns:xlink="http://www.w3.org/1999/xlink" width="20px" height="20px" xmlns="http://www.w3.org/2000/svg">
  <g transform="matrix(1 0 0 1 -21 -100 )">
    <path d="M 10 0  C 4.47715250169207 0  0 4.47715250169222  0 10  C 0 15.522847498308  4.47715250169207 20  10 20  C 15.5228474983079 20  20 15.522847498308  20 10  C 20 4.47715250169222  15.5228474983079 0  10 0  Z M 14.52 15.5  L 14.531 15.4950000000001  C 13.7098497699705 15.0109819537147  12.9872457118111 14.3765830857533  12.401 13.625  C 11.7510547167516 14.4231357581768  10.9514028057519 15.0865682909646  10.047 15.578  C 9.78805124226308 15.1578099288545  9.48023999146692 14.7697730630744  9.13 14.422  C 10.1045251560096 13.9656206755101  10.9535511658609 13.2792617346438  11.604 12.422  C 11.1304720722933 11.600728913967  10.7513940102678 10.7285139039968  10.474 9.82200000000012  C 10.2865696717126 10.1201477129962  10.0794423776284 10.4054488567831  9.85400000000001 10.6759999999999  C 9.6041610218628 10.2822421982598  9.31646202217146 9.91382671553515  8.995 9.57600000000002  L 8.995 15.556  L 7.589 15.556  L 7.589 12.49  C 6.68922606786799 12.7227862229638  5.83031125537292 13.0917115487862  5.042 13.5840000000001  C 4.91750296461299 13.1285408026006  4.73358966765115 12.6914525282853  4.49499999999999 12.2840000000001  C 4.79639339427024 12.1148467724713  4.96997844513664 11.7841339441841  4.938 11.4400000000001  L 4.938 5.71399999999994  L 6.32899999999999 5.71399999999994  L 6.32899999999999 11.5140000000001  L 7.589 11.134  L 7.589 4.61500000000001  L 8.995 4.61500000000001  L 8.995 9.30300000000011  C 9.97929866245917 7.84848380104927  10.5843111277994 6.17094923806053  10.755 4.423  L 12.192 4.66300000000001  C 12.072 5.32999999999993  11.942 5.99600000000009  11.775 6.62699999999995  L 15.42 6.62699999999995  L 15.42 7.95000000000005  L 14.686 7.95000000000005  C 14.4558769547217 9.51506519685745  13.9572169024294 11.0286371601926  13.212 12.424  C 13.8215286416973 13.2128976847703  14.5967637202619 13.858414872602  15.483 14.3150000000001  C 15.1018682317538 14.657078613219  14.7768991296328 15.0569627108446  14.52 15.5  Z " fill-rule="nonzero" fill="#666666" stroke="none" transform="matrix(1 0 0 1 21 100 )" />
  </g>
</svg>