<?xml version="1.0" encoding="utf-8"?>
<svg version="1.1" xmlns:xlink="http://www.w3.org/1999/xlink" width="12px" height="10px" xmlns="http://www.w3.org/2000/svg">
  <g transform="matrix(1 0 0 1 -456 -126 )">
    <path d="M 8.66182842712453 8.41381563910869  L 8.66253553390567 8.41452274588988  C 7.39927323466139 8.41814407707946  6.18667085634416 7.9180887416349  5.2931717215518 7.02505792085833  C 4.28149993759331 6.01336057394607  3.77832033141226 4.60040731448413  3.92279877961226 3.17698281764112  L 6.25412983718434 3.17768992442231  L 3.36771995638082 0.291280043618826  L 0.481310075577312 3.17768992442231  L 2.55384005123511 3.17698281764112  C 2.41396252541239 4.96327558605643  3.06301058230548 6.7212863261442  4.33009228557574 7.98813735683439  C 5.47870354141844 9.13687608174783  7.03807153951323 9.78001675927118  8.66253553390567 9.77499619289279  C 9.81303996537531 9.77451884490466  10.9401182214234 9.4498007128621  11.9145196205826 8.83807970782061  L 10.9245701269215 7.84813021415945  C 10.2287998622267 8.22114733140435  9.45128083349988 8.41552708858606  8.66182842712453 8.41381563910869  Z " fill-rule="nonzero" fill="#999999" stroke="none" transform="matrix(1 0 0 1 456 126 )" />
  </g>
</svg>