<?xml version="1.0" encoding="utf-8"?>
<svg version="1.1" xmlns:xlink="http://www.w3.org/1999/xlink" width="8px" height="17px" xmlns="http://www.w3.org/2000/svg">
  <g transform="matrix(1 0 0 1 -28 -1795 )">
    <path d="M 5.70100027218297 8.14600027218285  C 5.70066684808768 8.14600027218285  5.70033342404591 8.14600018145529  5.70000000000002 8.14599999999996  L 2.18300000000005 8.14599999999996  C 1.16803328824079 8.14434830150253  0.345651698497306 7.32196671175916  0.344000000000023 6.30699999999979  L 0.344000000000051 2.78999999999996  C 0.345651698497306 1.77503328824059  1.16803328824079 0.95265169849722  2.18300000000002 0.950999999999794  L 5.70000000000002 0.951000000000022  C 6.71496671175927 0.95265169849722  7.53734830150276 1.77503328824059  7.53900000000002 2.78999999999996  L 7.53899999999999 6.30699999999979  C 7.53900018145529 6.30733342401481  7.53900027218296 6.30766684811852  7.53900027218296 6.30800027218288  C 7.53900027218296 7.32309964237174  6.71609964237194 8.14600027218285  5.70100027218297 8.14600027218285  Z M 2.39500000000001 3.00099999999998  L 2.39500000000001 6.0949999999998  L 5.489 6.0949999999998  L 5.489 3.00099999999998  L 2.39500000000001 3.00099999999998  Z M 5.70000000000002 16.5059999999999  L 5.70000000000002 16.5099999999998  L 2.18300000000005 16.51  C 1.16803328824079 16.5083483015026  0.345651698497306 15.6859667117592  0.344000000000023 14.6709999999998  L 0.344000000000051 11.146  C 0.345651698497306 10.1310332882406  1.16803328824079 9.30865169849721  2.18300000000002 9.30699999999979  L 5.70000000000002 9.30699999999979  C 6.71691878385266 9.30589450526622  7.54234438039646 10.1290819629908  7.54400000000001 11.146  L 7.54400000000001 14.6629999999998  C 7.54400163517076 14.6640014502232  7.54400245275653 14.6650029016066  7.54400245275653 14.6660043531647  C 7.54400245275653 15.6822082928534  6.72020639244516 16.5060043531648  5.70400245275653 16.5060043531648  C 5.70266830066006 16.5060043531648  5.70133414894008 16.506002902109  5.70000000000002 16.5059999999999  Z M 2.39500000000001 11.3629999999998  L 2.39500000000001 14.4569999999999  L 5.489 14.4569999999999  L 5.489 11.3629999999998  L 2.39500000000001 11.3629999999998  Z " fill-rule="nonzero" fill="#666666" stroke="none" transform="matrix(1 0 0 1 28 1795 )" />
  </g>
</svg>