<?xml version="1.0" encoding="utf-8"?>
<svg version="1.1" xmlns:xlink="http://www.w3.org/1999/xlink" width="12px" height="12px" viewBox="516 440.5  12 12" xmlns="http://www.w3.org/2000/svg">
  <path d="M 516.5 441.5  A 0.5 0.5 0 0 1 517 441 L 527 441  A 0.5 0.5 0 0 1 527.5 441.5 L 527.5 451.5  A 0.5 0.5 0 0 1 527 452 L 517 452  A 0.5 0.5 0 0 1 516.5 451.5 L 516.5 441.5  Z " fill-rule="nonzero" fill="#ffffff" stroke="none" />
  <path d="M 516.5 441.5  A 0.5 0.5 0 0 1 517 441 L 527 441  A 0.5 0.5 0 0 1 527.5 441.5 L 527.5 451.5  A 0.5 0.5 0 0 1 527 452 L 517 452  A 0.5 0.5 0 0 1 516.5 451.5 L 516.5 441.5  Z " stroke-width="1" stroke="#e13438" fill="none" />
  <path d="M 518.571428571429 446.5  L 521.142857142857 449.071428571429  " stroke-width="2.57142857142857" stroke="#e13438" fill="none" />
  <path d="M 521.142857142857 449.071428571429  L 525.428571428571 443.071428571429  " stroke-width="2.57142857142857" stroke="#e13438" fill="none" />
</svg>