<?xml version="1.0" encoding="utf-8"?>
<svg version="1.1" xmlns:xlink="http://www.w3.org/1999/xlink" width="12px" height="12px" viewBox="566 440.5  12 12" xmlns="http://www.w3.org/2000/svg">
  <path d="M 566.5 441.5  A 0.5 0.5 0 0 1 567 441 L 577 441  A 0.5 0.5 0 0 1 577.5 441.5 L 577.5 451.5  A 0.5 0.5 0 0 1 577 452 L 567 452  A 0.5 0.5 0 0 1 566.5 451.5 L 566.5 441.5  Z " fill-rule="nonzero" fill="#ffffff" stroke="none" />
  <path d="M 566.5 441.5  A 0.5 0.5 0 0 1 567 441 L 577 441  A 0.5 0.5 0 0 1 577.5 441.5 L 577.5 451.5  A 0.5 0.5 0 0 1 577 452 L 567 452  A 0.5 0.5 0 0 1 566.5 451.5 L 566.5 441.5  Z " stroke-width="1" stroke="#999999" fill="none" />
</svg>