<?xml version="1.0" encoding="utf-8"?>
<svg version="1.1" xmlns:xlink="http://www.w3.org/1999/xlink" width="12px" height="12px" viewBox="466 440.5  12 12" xmlns="http://www.w3.org/2000/svg">
  <path d="M 466.5 441.5  A 0.5 0.5 0 0 1 467 441 L 477 441  A 0.5 0.5 0 0 1 477.5 441.5 L 477.5 451.5  A 0.5 0.5 0 0 1 477 452 L 467 452  A 0.5 0.5 0 0 1 466.5 451.5 L 466.5 441.5  Z " fill-rule="nonzero" fill="#ffffff" stroke="none" />
  <path d="M 466.5 441.5  A 0.5 0.5 0 0 1 467 441 L 477 441  A 0.5 0.5 0 0 1 477.5 441.5 L 477.5 451.5  A 0.5 0.5 0 0 1 477 452 L 467 452  A 0.5 0.5 0 0 1 466.5 451.5 L 466.5 441.5  Z " stroke-width="1" stroke="#999999" fill="none" />
</svg>