<?xml version="1.0" encoding="utf-8"?>
<svg version="1.1" xmlns:xlink="http://www.w3.org/1999/xlink" width="8px" height="4px" xmlns="http://www.w3.org/2000/svg">
  <g transform="matrix(1 0 0 1 -1220 -510 )">
    <path d="M 7.176796875 2.81845703125  C 7.17693359375 3.10802734375  6.9421875 3.34291015625  6.65248046875 3.34291015625  C 6.3627734375 3.34291015625  6.12802734375 3.1081640625  6.12802734375 2.81845703125  L 6.12802734375 1.94591796875  L 1.93267578125 1.94591796875  L 1.93267578125 2.81845703125  C 1.93267578125 3.10802734375  1.6979296875 3.34291015625  1.40822265625 3.34291015625  C 1.118515625 3.34291015625  0.88376953125 3.1081640625  0.88376953125 2.81845703125  L 0.88376953125 1.9170703125  C 0.88376953125 1.34517578125  1.2544140625 0.8971484375  1.7274609375 0.8971484375  L 6.33310546875 0.8971484375  C 6.80615234375 0.8971484375  7.176796875 1.34517578125  7.176796875 1.9170703125  L 7.176796875 2.81845703125  Z " fill-rule="nonzero" fill="#666666" stroke="none" transform="matrix(1 0 0 1 1220 510 )" />
  </g>
</svg>