<?xml version="1.0" encoding="utf-8"?>
<svg version="1.1" xmlns:xlink="http://www.w3.org/1999/xlink" width="10px" height="12px" xmlns="http://www.w3.org/2000/svg">
  <g transform="matrix(1 0 0 1 -1219 -512 )">
    <path d="M 9.75015625 10.08306640625  C 9.75015625 10.64552734375  9.28572265625 11.10298828125  8.714921875 11.10298828125  L 1.34578125 11.10298828125  C 0.77498046875 11.10298828125  0.310546875 10.64552734375  0.310546875 10.08306640625  L 0.310546875 1.3154296875  C 0.310546875 1.025859375  0.54529296875 0.7909765625  0.835 0.7909765625  C 1.12470703125 0.7909765625  1.359453125 1.02572265625  1.359453125 1.3154296875  L 1.359453125 10.05408203125  L 8.70125 10.05408203125  L 8.70125 1.3154296875  C 8.70125 1.025859375  8.93599609375 0.7909765625  9.225703125 0.7909765625  C 9.51541015625 0.7909765625  9.75015625 1.02572265625  9.75015625 1.3154296875  L 9.75015625 10.08306640625  Z " fill-rule="nonzero" fill="#666666" stroke="none" transform="matrix(1 0 0 1 1219 512 )" />
  </g>
</svg>