<?xml version="1.0" encoding="utf-8"?>
<svg version="1.1" xmlns:xlink="http://www.w3.org/1999/xlink" width="14px" height="9px" xmlns="http://www.w3.org/2000/svg">
  <g transform="matrix(1 0 0 1 -1217 -512 )">
    <path d="M 13.11830078125 0.975683593749999  C 13.11830078125 1.265390625  12.88341796875 1.50013671875  12.5937109375 1.50013671875  L 1.4062890625 1.50013671875  C 1.11671875 1.50013671875  0.8818359375 1.265390625  0.8818359375 0.975683593749999  C 0.8818359375 0.6859765625  1.11658203125 0.45123046875  1.4062890625 0.45123046875  L 12.59384765625 0.45123046875  C 12.8835546875 0.45123046875  13.11830078125 0.6859765625  13.11830078125 0.975683593749999  Z M 7.5548046875 7.91087890625  C 7.5548046875 8.20044921875  7.32005859375 8.43533203125  7.0303515625 8.43533203125  C 6.74064453125 8.43533203125  6.5058984375 8.2005859375  6.5058984375 7.91087890625  L 6.5058984375 3.54080078125  C 6.5058984375 3.25123046875  6.74064453125 3.01634765625  7.0303515625 3.01634765625  C 7.32005859375 3.01634765625  7.5548046875 3.25109375  7.5548046875 3.54080078125  L 7.5548046875 7.91087890625  Z M 5.45712890625 7.03697265625  C 5.45712890625 7.32654296875  5.2223828125 7.5612890625  4.93267578125 7.5612890625  C 4.64296875 7.5612890625  4.40822265625 7.32654296875  4.40822265625 7.0368359375  L 4.40822265625 4.41484375  C 4.40822265625 4.1252734375  4.64296875 3.890390625  4.93267578125 3.890390625  C 5.2223828125 3.890390625  5.45712890625 4.12513671875  5.45712890625 4.41484375  L 5.45712890625 7.03697265625  Z M 9.65248046875 7.03697265625  C 9.65248046875 7.32654296875  9.417734375 7.5612890625  9.12802734375 7.5612890625  C 8.8383203125 7.5612890625  8.60357421875 7.32654296875  8.60357421875 7.0368359375  L 8.60357421875 4.41484375  C 8.60357421875 4.1252734375  8.8383203125 3.890390625  9.12802734375 3.890390625  C 9.417734375 3.890390625  9.65248046875 4.12513671875  9.65248046875 4.41484375  L 9.65248046875 7.03697265625  Z " fill-rule="nonzero" fill="#666666" stroke="none" transform="matrix(1 0 0 1 1217 512 )" />
  </g>
</svg>