<?xml version="1.0" encoding="utf-8"?>
<svg version="1.1" xmlns:xlink="http://www.w3.org/1999/xlink" width="16px" height="14px" xmlns="http://www.w3.org/2000/svg">
  <g transform="matrix(1 0 0 1 -1081 -63 )">
    <path d="M 14.52 11.831  L 14.5210000000002 11.831  L 6.46400000000017 11.831  L 5.16399999999999 0.948999999999998  C 5.02500519391901 0.403689237809871  4.54150489832318 0.0164809842061828  3.97900000000004 0  L 1.25999999999999 0  C 0.839987447753856 0  0.499500000000126 0.340487447753674  0.499500000000126 0.760499999999993  C 0.499500000000126 1.18051255224631  0.839987447753856 1.52099999999999  1.25999999999999 1.52099999999999  L 3.70000000000005 1.521  L 4.99099999999999 12.291  C 5.0900460853486 12.9023120138052  5.61771624197513 13.3516362804029  6.23700000000008 13.352  L 14.52 13.352  C 14.9400125522463 13.352  15.2805000000001 13.0115125522463  15.2805000000001 12.5915  C 15.2805000000001 12.1714874477537  14.9400125522463 11.831  14.52 11.831  Z " fill-rule="nonzero" fill="#e4393c" stroke="none" transform="matrix(1 0 0 1 1081 63 )" />
  </g>
</svg>