<?xml version="1.0" encoding="utf-8"?>
<svg version="1.1" xmlns:xlink="http://www.w3.org/1999/xlink" width="14px" height="11px" xmlns="http://www.w3.org/2000/svg">
  <g transform="matrix(1 0 0 1 -1084 -64 )">
    <path d="M 12.8809999999999 3.07499999999999  L 13.3679999999999 3.07400000000001  L 13.0309999999999 3.78100000000001  L 13.0529999999999 3.733  L 13.1419999999998 3.548  C 13.3049999999998 3.23500000000001  13.1419999999998 3.07499999999999  12.8809999999999 3.07499999999999  Z M 11.5659999999998 6.881  L 11.337 7.36500000000001  L 10.5799999999999 7.417  L 10.8799999999999 7.39699999999999  C 11.1825866079475 7.35538285169764  11.4421033547537 7.16017783514954  11.5659999999998 6.881  Z M 0.214999999999918 0.517000000000024  L 0.702999999999975 0.516999999999996  L 0.793999999999869 1.292  L 0.793999999999869 1.30099999999999  L 0.754999999999882 0.973000000000013  C 0.714494182647741 0.707273234795593  0.483757398927764 0.512428839654291  0.214999999999918 0.517000000000024  Z M 3.95100000000002 10.837  L 3.46399999999994 10.837  L 3.36899999999991 10.079  L 3.36899999999991 10.062  L 3.40599999999995 10.377  C 3.44860074712278 10.6441876343237  3.68045284114442 10.8398793100118  3.95100000000002 10.837  Z " fill-rule="nonzero" fill="#e4393c" stroke="none" transform="matrix(1 0 0 1 1084 64 )" />
  </g>
</svg>