<?xml version="1.0" encoding="utf-8"?>
<svg version="1.1" xmlns:xlink="http://www.w3.org/1999/xlink" width="11px" height="10px" xmlns="http://www.w3.org/2000/svg">
  <g transform="matrix(1 0 0 1 -130 -84 )">
    <path d="M 0.617999999999938 4.11600000000007  L 0.613 4.11799999999999  C 0.616836757414887 3.45027450235503  0.805845827553185 2.79670467740797  1.15899999999999 2.22999999999999  C 1.53877763873868 1.63410003983648  2.07589119160212 1.15478156643709  2.71100000000001 0.844999999999999  C 3.41962790525264 0.515358362666632  4.19588160509386 0.35709304522328  4.97700000000003 0.382999999999981  C 6.12507544175128 0.343309295855988  7.24684946116469 0.732205214248154  8.12400000000002 1.47400000000002  C 8.92850984576194 2.14667502739294  9.37759245253318 3.15295955382268  9.34100000000007 4.20100000000005  C 9.35297433221291 5.26508477766461  8.89173155283794 6.27952580712383  8.08199999999999 6.97  C 7.21863926893025 7.70364074010769  6.11453974090836 8.09221254174378  4.98199999999997 8.06100000000004  C 4.21717882643441 8.05776817876983  3.46082985132153 7.90064892224908  2.75799999999998 7.59900000000005  C 2.09087670903085 7.34312332911563  1.52936585806248 6.87003106258456  1.16399999999999 6.25600000000006  C 0.79681786620381 5.60315712892083  0.608473208697092 4.86495645664195  0.617999999999938 4.11600000000007  Z M 3.51299999999998 2.60600000000008  C 3.09024501125674 3.04096736375956  2.87621371076506 3.63748390141592  2.92599999999999 4.2420000000001  C 2.89966378085745 4.85585093147938  3.10975729337031 5.45642489058767  3.51299999999998 5.92000000000007  C 3.90743078004886 6.29967119902034  4.4345376922746 6.51029867177493  4.98199999999997 6.50700000000006  C 5.53065713454464 6.51833008396707  6.0604196070118 6.30649726970401  6.44999999999999 5.9200000000001  C 6.8598345474673 5.46028061043634  7.07089411305577 4.85694508904362  7.03699999999998 4.24200000000008  C 7.07135335676571 3.63961868301527  6.85948527422875 3.04913114804003  6.44999999999999 2.60600000000008  C 5.6277060552822 1.82263487920071  4.33529394471776 1.82263487920068  3.51299999999998 2.60600000000008  Z " fill-rule="nonzero" fill="#e4393c" stroke="none" transform="matrix(1 0 0 1 130 84 )" />
  </g>
</svg>