<?xml version="1.0" encoding="utf-8"?>
<svg version="1.1" xmlns:xlink="http://www.w3.org/1999/xlink" width="27px" height="15px" xmlns="http://www.w3.org/2000/svg">
  <g transform="matrix(1 0 0 1 -37 -64 )">
    <path d="M 0.542999999999992 1.04000000000001  L 0.549999999999997 1.04200000000002  C 3.991 0.790000000000006  7.473 0.874000000000009  10.956 0.874000000000009  C 11.04 3.85300000000002  11.292 6.83200000000001  11.543 9.81100000000002  C 12.466 9.85300000000002  13.389 9.89500000000002  14.354 9.93700000000003  C 14.606 6.95800000000001  14.648 3.97900000000003  14.854 1.00000000000001  C 18.337 0.874000000000009  21.819 0.832000000000008  25.302 1.04200000000002  C 23.288 3.43400000000001  19.638 4.31500000000001  16.155 4.94200000000002  C 15.945 7.20800000000001  16.491 9.64200000000001  15.355 11.823  C 14.8231231687012 12.6616687829179  13.8990808076452 13.1698487982418  12.9059754299973 13.1698487982418  C 12.181648080568 13.1698487982418  11.483541395637 12.8987899400373  10.949 12.41  C 9.187 10.144  9.89999999999999 7.37500000000001  9.52199999999999 4.85800000000002  C 6.08099999999999 4.31300000000003  2.72199999999999 3.18000000000002  0.542999999999992 1.04000000000001  Z " fill-rule="nonzero" fill="#e4393c" stroke="none" transform="matrix(1 0 0 1 37 64 )" />
  </g>
</svg>