<?xml version="1.0" encoding="utf-8"?>
<svg version="1.1" xmlns:xlink="http://www.w3.org/1999/xlink" width="11px" height="10px" xmlns="http://www.w3.org/2000/svg">
  <g transform="matrix(1 0 0 1 -91 -84 )">
    <path d="M 0.642000000000053 4.11700000000008  L 0.634000000000015 4.11799999999999  C 0.637588791768707 3.45037839336015  0.826245611448371 2.79682963087356  1.179 2.22999999999999  C 1.55969478586476 1.63401752474704  2.09788852123273 1.15500779500479  2.73400000000001 0.845999999999975  C 3.44262790525264 0.516358362666608  4.21888160509383 0.358093045223256  5.00000000000003 0.384000000000043  C 6.1491439209548 0.337144048038937  7.27344531296666 0.726916154389386  8.14699999999999 1.47500000000002  C 8.95150984576196 2.14767502739292  9.40059245253315 3.15395955382269  9.364 4.20200000000003  C 9.37611369524885 5.26611414824171  8.91484529867012 6.2806115192715  8.10499999999999 6.97100000000003  C 7.24159139091103 7.70455738109555  6.1375248581881 8.09311757051515  5.00500000000002 8.06200000000004  C 4.240637832283 8.05445151340143  3.48512806554362 7.89750658883599  2.78100000000003 7.60000000000005  C 2.12095349437558 7.33226289142462  1.56285349009474 6.86204438091693  1.18700000000004 6.25700000000009  C 0.820210749014564 5.60404296085107  0.632215592336905 4.86586014380489  0.642000000000053 4.11700000000008  Z M 2.95000000000005 4.24300000000008  C 2.92366378085754 4.85685093147939  3.13375729337034 5.45742489058767  3.53700000000003 5.92100000000008  C 3.93143078004888 6.30067119902034  4.45853769227469 6.51129867177497  5.00600000000003 6.50800000000007  C 5.55500162319598 6.51960289207423  6.0851766075923 6.30774944357822  6.47500000000005 5.92100000000011  C 6.88483454746734 5.46128061043632  7.09589411305581 4.85794508904365  7.06200000000001 4.24300000000008  C 7.09635335676577 3.64061868301528  6.88448527422878 3.05013114804004  6.47500000000002 2.60700000000008  C 5.65250295855833 1.82414267857152  4.36049704144168 1.82414267857149  3.53800000000001 2.60700000000008  C 3.11524501125675 3.04196736375957  2.90121371076515 3.63848390141592  2.95100000000002 4.24300000000008  Z " fill-rule="nonzero" fill="#e4393c" stroke="none" transform="matrix(1 0 0 1 91 84 )" />
  </g>
</svg>