<?xml version="1.0" encoding="utf-8"?>
<svg version="1.1" xmlns:xlink="http://www.w3.org/1999/xlink" width="8px" height="8px" xmlns="http://www.w3.org/2000/svg">
  <g transform="matrix(1 0 0 1 -141 -84 )">
    <path d="M 7.82500000000005 3.36600000000004  L 7.82199999999995 7.89400000000001  L 5.59799999999996 7.89400000000001  L 5.59799999999996 4.16  C 5.62790616792125 3.65323725876706  5.58548011540597 3.14479805798845  5.47199999999998 2.65000000000003  C 5.3909528398479 2.41730452327127  5.22628499571653 2.22305349502102  5.00999999999999 2.10500000000002  C 4.7684522376652 1.96100726762984  4.49112829944693 1.88820973384756  4.20999999999998 1.89500000000001  C 3.83907885124171 1.8880925905238  3.47430375573634 1.9903269833537  3.16099999999994 2.18900000000002  C 2.87866799354504 2.35107540955059  2.65760421286751 2.60166122135197  2.53199999999998 2.90199999999999  C 2.3848945832699 3.44843401643394  2.32814560703758 4.0152481957065  2.36399999999998 4.58000000000001  L 2.36399999999998 7.89500000000001  L 0.143999999999949 7.89500000000001  L 0.143999999999949 0.594999999999999  L 2.24399999999997 0.594999999999999  L 2.24399999999997 1.68600000000001  C 2.9343884807285 0.876154701329881  3.94888585175835 0.414886304751178  5.01299999999998 0.427000000000021  C 5.47326615230753 0.417348277561302  5.93054109923679 0.50315117154949  6.35599999999999 0.67900000000003  C 6.70832808727573 0.793523817393378  7.02588180345032 0.99547834761492  7.27900000000005 1.26600000000005  C 7.49123470697003 1.48801588504929  7.63677233635252 1.76523041720645  7.69900000000001 2.06600000000003  C 7.79540677457294 2.49232570132733  7.83773984470167 2.92909547249693  7.82500000000005 3.36600000000004  Z " fill-rule="nonzero" fill="#e4393c" stroke="none" transform="matrix(1 0 0 1 141 84 )" />
  </g>
</svg>