<?xml version="1.0" encoding="utf-8"?>
<svg version="1.1" xmlns:xlink="http://www.w3.org/1999/xlink" width="14px" height="9px" xmlns="http://www.w3.org/2000/svg">
  <g transform="matrix(1 0 0 1 -1086 -65 )">
    <path d="M 13.1409212462406 1.62086045555006  C 13.1409212462406 1.13510833046607  12.8183510006443 0.708431753067117  12.3510000000001 0.575999999999993  C 12.308 0.568999999999988  12.2660000000001 0.562999999999988  12.221 0.558999999999997  L 1.60100000000011 0.558999999999997  C 1.18098744775375 0.558999999999997  0.84050000000002 0.899487447753671  0.84050000000002 1.31949999999998  C 0.84050000000002 1.73951255224628  1.18098744775375 2.07999999999996  1.60100000000011 2.07999999999996  L 11.3620000000001 2.07999999999998  L 9.34099999999989 6.35899999999998  L 2.44100000000003 6.83199999999999  C 2.04145975369192 6.85833752447644  1.73085379695749 7.19009261543334  1.73085379695749 7.59049999999999  C 1.73085379695749 8.01031715558219  2.07118284441776 8.35064620304254  2.49099999999999 8.35064620304254  C 2.50768021414228 8.35064620304254  2.52435590919731 8.35009717144382  2.54100000000017 8.34899999999999  L 9.88200000000006 7.84899999999996  C 10.1521978535975 7.82982634145262  10.3919739629664 7.66883381087632  10.5120000000002 7.42599999999999  L 10.5230000000001 7.404  L 13.0300000000002 2.09899999999999  C 13.102978491539 1.95017362199556  13.1409212462406 1.78661675563313  13.1409212462406 1.62086045555006  Z " fill-rule="nonzero" fill="#e4393c" stroke="none" transform="matrix(1 0 0 1 1086 65 )" />
  </g>
</svg>