<?xml version="1.0" encoding="utf-8"?>
<svg version="1.1" xmlns:xlink="http://www.w3.org/1999/xlink" width="40px" height="30px" xmlns="http://www.w3.org/2000/svg">
  <g transform="matrix(1 0 0 1 -163 -48 )">
    <path d="M 0.295999999999964 24.299  L 0.297999999999973 21.49  C 2.0909876788173 20.4398898936359  3.77730093735872 19.2174383755274  5.333 17.84  L 5.333 11.546  C 3.73211233031472 12.8024062503993  2.05013132539946 13.9518991278399  0.297999999999973 14.987  L 0.297999999999973 12.259  C 1.79522026264434 11.202630857107  3.22469440369096 10.0533737264198  4.57799999999995 8.818  L 4.57799999999995 8.776  L 0.377999999999957 0.259  L 7.25899999999993 0.259  L 9.14699999999991 4.15900000000001  C 9.94699999999992 3.194  10.6989999999999 2.18700000000001  11.4129999999999 1.18000000000001  L 14.686 1.17999999999999  C 13.4714313487001 3.1954327103163  12.0511715221108 5.07950556191732  10.448 6.80200000000001  L 10.6579999999999 7.17999999999999  C 11.3244020067826 8.37566231357464  11.6982643888279 9.71210895883274  12 11.08  L 12 27.821  C 11.7489999999999 28.996  10.5739999999999 29.921  9.02199999999996 29.921  L 1.67899999999995 29.921  L 1.67899999999995 28.159  L 3.77899999999997 28.159  C 4.57899999999998 28.159  5.33099999999999 27.614  5.33099999999999 26.942  L 5.33100000000005 20.942  C 3.76300936377842 22.2182571245511  2.07706913712857 23.3423288903631  0.295999999999964 24.299  Z M 24.004 10.077  L 17.668 10.077  L 17.668 6.04899999999999  L 14.648 6.04899999999999  L 14.648 4.28699999999999  L 17.669 4.28699999999999  L 17.669 0.259  L 24.005 0.259  L 24.005 4.28700000000001  L 29.669 4.28700000000001  L 29.669 0.259  L 36.005 0.259  L 36.005 4.28700000000001  L 39.068 4.28700000000001  L 39.068 6.04899999999999  L 36.005 6.04899999999999  L 36.005 10.077  L 29.668 10.077  L 29.668 6.04899999999999  L 24.004 6.04899999999999  L 24.004 10.077  Z M 17.878 12  L 35.71 12  C 37.262 11.671  38.5209999999999 12.594  38 13.727  L 38 27.827  C 38.5209999999999 29.002  37.2619999999999 29.927  35.71 30  L 17.878 30  C 16.368 29.927  15.151 29.004  15.151 27.827  L 15.151 13.727  C 15.151 12.594  16.368 11.671  17.878 12  Z M 20.984 14.609  L 20.983 19.895  L 23.6259999999999 19.895  L 23.6259999999999 13.434  L 22.578 13.434  C 21.739 13.434  20.984 13.979  20.984 14.609  Z M 22.577 28.121  L 23.668 28.119  L 23.668 21.659  L 20.983 21.659  L 20.983 26.904  C 20.983 27.575  21.738 28.121  22.577 28.121  Z M 32.605 19.896  L 32.605 14.651  C 32.605 13.98  31.892 13.476  31.011 13.476  L 30.046 13.476  L 30.046 19.896  L 32.605 19.896  Z M 30.046 28.12  L 31.0110000000001 28.119  C 31.7831766448929 28.2080864934018  32.4874755652727 27.6703626627229  32.605 26.902  L 32.605 21.659  L 30.046 21.659  L 30.046 28.12  Z " fill-rule="nonzero" fill="#e4393c" stroke="none" transform="matrix(1 0 0 1 163 48 )" />
  </g>
</svg>