<?xml version="1.0" encoding="utf-8"?>
<svg version="1.1" xmlns:xlink="http://www.w3.org/1999/xlink" width="10px" height="12px" xmlns="http://www.w3.org/2000/svg">
  <g transform="matrix(1 0 0 1 -150 -84 )">
    <path d="M 0.877000000000123 8.36000000000004  L 0.879000000000019 8.35600000000002  L 3.43800000000005 8.60800000000003  C 3.45671639106882 8.8224168520016  3.56308958065193 9.01960524765735  3.73200000000003 9.15300000000002  C 4.04361591130419 9.30960120041257  4.39076506025521 9.38199575977674  4.73900000000003 9.36300000000003  C 5.18197719533066 9.37999141649485  5.62390349323084 9.30860332221866  6.03900000000004 9.15299999999999  C 6.25157643733615 9.05195756583714  6.41704021124457 8.87288421745137  6.50099999999998 8.65299999999999  C 6.58456683414994 8.36730806798712  6.61307265228606 8.06833633253572  6.58500000000004 7.77200000000002  L 6.58500000000004 6.72300000000001  C 5.97437876082762 7.48477677077469  5.0440729035675 7.91906734776342  4.06800000000004 7.89800000000002  C 3.02054293070921 7.94478549751875  2.0169034139044 7.4741776198066  1.3830000000001 6.63900000000007  C 0.852622408882496 5.93982841723962  0.571049751927035 5.083495574274  0.583000000000084 4.20600000000007  C 0.510766814266958 3.16940282788397  0.875977314624265 2.14993240434433  1.59000000000003 1.39500000000004  C 2.28197139759158 0.747822017075805  3.20199641329828 0.400880188175051  4.14900000000006 0.430000000000007  C 5.15060156608479 0.399209950626641  6.11024520870507 0.832895058349294  6.74900000000008 1.60500000000005  L 6.74900000000008 0.55600000000004  L 8.8490000000001 0.55600000000004  L 8.84900000000016 7.10100000000006  C 8.88101066705434 7.75422341342929  8.79566075714763 8.40789534247693  8.59700000000004 9.03100000000003  C 8.45965729638203 9.42749964209384  8.21236900948861 9.77675532919289  7.88400000000013 10.0380000000001  C 7.52889992599819 10.2996109574839  7.13143527253828 10.4981741503187  6.709 10.625  C 6.09052866148528 10.7714042449162  5.45652581603923 10.8419236292084  4.82100000000008 10.8350000000001  C 3.7611847671111 10.917227738249  2.699641458477 10.699235331742  1.7580000000001 10.206  C 1.21360666059354 9.85789947939764  0.88212739467707 9.25815152267697  0.877000000000123 8.61200000000005  L 0.877000000000123 8.36000000000004  Z M 2.88600000000014 4.08000000000004  L 2.89100000000013 4.08000000000004  C 2.83747129946386 4.69561192333816  3.01578816834757 5.30902195229825  3.39100000000013 5.80000000000007  C 3.72371618781392 6.16312930090575  4.19879705786138 6.36229781950257  4.6910000000002 6.34500000000003  C 5.20827277117377 6.36328314295213  5.70990070201168 6.16589164670185  6.07600000000014 5.80000000000004  C 6.4719051377615 5.35107972130697  6.66859078421771 4.76066189084378  6.62100000000015 4.16400000000004  C 6.67534787717665 3.55379600475936  6.47853010524176 2.94781394731586  6.07600000000014 2.48600000000002  C 5.71457721938992 2.11303248677513  5.20967239285204 1.91435152615193  4.69100000000009 1.94100000000006  C 4.18611020161421 1.922909173699  3.69750519200329 2.12118894304965  3.34800000000013 2.48600000000005  C 2.99733327812856 2.9394699186349  2.83217721049823 3.50929410002607  2.88600000000014 4.08000000000004  Z " fill-rule="nonzero" fill="#e4393c" stroke="none" transform="matrix(1 0 0 1 150 84 )" />
  </g>
</svg>