<?xml version="1.0" encoding="utf-8"?>
<svg version="1.1" xmlns:xlink="http://www.w3.org/1999/xlink" width="45px" height="20px" xmlns="http://www.w3.org/2000/svg">
  <g transform="matrix(1 0 0 1 -28 -76 )">
    <path d="M 39.72 2.00699999999998  L 39.718 2.006  C 33.844 6.07599999999999  28.138 10.44  22.096 14.3  C 20.9762209534864 13.8332181257092  19.9190558608047 13.2285479106386  18.949 12.5  C 14.376 9.185  9.67599999999999 5.95500000000001  5.10299999999999 2.68199999999999  L 0.57 1.125  C 0.57 1.50299999999999  0.527999999999999 1.83799999999999  0.527999999999999 2.21600000000001  C 0.234000000000002 4.10400000000001  2.206 5.06900000000002  3.549 6.07600000000002  C 8.92 9.72600000000003  14.164 13.586  19.493 17.276  C 20.542 17.822  21.927 19.076  23.101 18.076  C 28.601 14.552  33.716 10.566  39.129 6.91500000000002  C 40.598 5.82400000000001  42.36 4.90100000000001  43.329 3.34900000000005  C 43.4055905942042 2.41397493197803  43.4192880925971 1.47486107875088  43.37 0.537999999999982  L 39.678 1.79699999999997  C 39.708435560625 1.86268528404858  39.722830792866 1.9346614452532  39.72 2.00699999999998  Z " fill-rule="nonzero" fill="#e4393c" stroke="none" transform="matrix(1 0 0 1 28 76 )" />
  </g>
</svg>