<?xml version="1.0" encoding="utf-8"?>
<svg version="1.1" xmlns:xlink="http://www.w3.org/1999/xlink" width="19px" height="12px" xmlns="http://www.w3.org/2000/svg">
  <g transform="matrix(1 0 0 1 -40 -132 )">
    <path d="M 0.499995978537825 1.12800402146217  C 0.499995978537825 1.12700267962893  0.49999731902642 1.12600133824424  0.5 1.125  C 0.5 0.503679656440355  1.00367965644035 0  1.625 0  C 2.24632034355965 0  2.75 0.503679656440355  2.75 1.125  C 2.75 1.74632034355965  2.24632034355965 2.25  1.625 2.25  C 1.62399866175576 2.25000268097358  1.62299732037107 2.25000402146217  1.62199597853783 2.25000402146217  C 1.00233248922768 2.25000402146217  0.499995978537825 1.74766751077232  0.499995978537825 1.12800402146217  Z M 4.99999954880382 1.12600711906603  C 4.99999954880382 1.12567141265973  4.99999969920256 1.12533570627154  5 1.125  C 5.0032929570531 0.503878786784966  5.50687221982409 0.00163883056389125  6.128 0  L 17.372 0  C 17.9933203435596 0  18.497 0.503679656440355  18.497 1.125  C 18.497 1.74632034355965  17.9933203435596 2.25  17.372 2.25  L 6.128 2.25  C 6.12666652154661 2.25000474604026  6.1253330357031 2.25000711906604  6.12399954880382 2.25000711906604  C 5.50323148999401 2.25000711906604  4.99999954880382 1.74677517787585  4.99999954880382 1.12600711906603  Z M 0.499995978537825 5.62800402146217  C 0.499995978537825 5.62700267962893  0.49999731902642 5.62600133824424  0.5 5.625  C 0.5 5.00367965644035  1.00367965644035 4.5  1.625 4.5  C 2.24632034355965 4.5  2.75 5.00367965644035  2.75 5.625  C 2.75 6.24632034355965  2.24632034355965 6.75  1.625 6.75  C 1.62399866175576 6.75000268097358  1.62299732037107 6.75000402146217  1.62199597853783 6.75000402146217  C 1.00233248922768 6.75000402146217  0.499995978537825 6.24766751077232  0.499995978537825 5.62800402146217  Z M 4.99999954880382 5.62600711906603  C 4.99999954880382 5.62567141265973  4.99999969920256 5.62533570627154  5 5.625  C 5.0032929570531 5.00387878678497  5.50687221982409 4.50163883056389  6.128 4.5  L 17.372 4.5  C 17.9933203435596 4.5  18.497 5.00367965644035  18.497 5.625  C 18.497 6.24632034355965  17.9933203435596 6.75  17.372 6.75  L 6.128 6.75  C 6.1266665215467 6.75000474604026  6.12533303570301 6.75000711906604  6.12399954880382 6.75000711906604  C 5.50323148999401 6.75000711906604  4.99999954880382 6.24677517787585  4.99999954880382 5.62600711906603  Z M 0.499995978537825 10.1280040214622  C 0.499995978537825 10.1270026796289  0.49999731902642 10.1260013382442  0.5 10.125  C 0.5 9.50367965644035  1.00367965644035 9  1.625 9  C 2.24632034355965 9  2.75 9.50367965644035  2.75 10.125  C 2.75 10.7463203435596  2.24632034355965 11.25  1.625 11.25  C 1.62399866175576 11.2500026809736  1.62299732037107 11.2500040214622  1.62199597853783 11.2500040214622  C 1.00233248922768 11.2500040214622  0.499995978537825 10.7476675107723  0.499995978537825 10.1280040214622  Z M 4.99999954880382 10.126007119066  C 4.99999954880382 10.1256714126597  4.99999969920256 10.1253357062715  5 10.125  C 5.0032929570531 9.50387878678497  5.50687221982409 9.00163883056389  6.128 9  L 17.372 9  C 17.9933203435596 9  18.497 9.50367965644035  18.497 10.125  C 18.497 10.7463203435596  17.9933203435596 11.25  17.372 11.25  L 6.128 11.25  C 6.12666652154651 11.2500047460403  6.12533303570319 11.250007119066  6.12399954880382 11.250007119066  C 5.50323148999401 11.250007119066  4.99999954880382 10.7467751778758  4.99999954880382 10.126007119066  Z " fill-rule="nonzero" fill="#ffffff" stroke="none" fill-opacity="0.996078431372549" transform="matrix(1 0 0 1 40 132 )" />
  </g>
</svg>