<?xml version="1.0" encoding="utf-8"?>
<svg version="1.1" xmlns:xlink="http://www.w3.org/1999/xlink" width="10px" height="12px" xmlns="http://www.w3.org/2000/svg">
  <g transform="matrix(1 0 0 1 -81 -84 )">
    <path d="M 0.98399999999998 8.35700000000006  L 0.984000000000009 8.35600000000002  L 3.54300000000001 8.60800000000006  C 3.56148284751924 8.82248669975368  3.66790295120802 9.01976206203392  3.83700000000002 9.15300000000002  C 4.14861591130415 9.30960120041257  4.49576506025522 9.38199575977674  4.84400000000002 9.36300000000003  C 5.2869788290005 9.38001821179103  5.72891037943953 9.30862926902782  6.14400000000006 9.15300000000002  C 6.35651428640915 9.05187310816709  6.52195111432485 8.8728289221111  6.60600000000002 8.65299999999999  C 6.6895668341499 8.36730806798718  6.71807265228605 8.06833633253569  6.69000000000003 7.77200000000002  L 6.69000000000003 6.72300000000001  C 6.07916327354957 7.48505922386943  5.14842133716238 7.91938081849014  4.17200000000003 7.89800000000002  C 3.12504367699543 7.94308399368884  2.12264450002226 7.47141070459855  1.49000000000004 6.63600000000002  C 0.959691223005962 5.93679230263689  0.678126570461785 5.08048380308693  0.689999999999998 4.20300000000003  C 0.61764252553516 3.16638567000163  0.982870403290349 2.1468667381547  1.697 1.39200000000002  C 2.39308953763174 0.751475113087423  3.31029674909345 0.405595879378723  4.256 0.427000000000021  C 5.25594921689014 0.404407763287622  6.21218416862396 0.836552404936555  6.85599999999999 1.60200000000003  L 6.85599999999999 0.553000000000026  L 8.95599999999999 0.553000000000026  L 8.95599999999999 7.09800000000001  C 8.98794569498739 7.75122078322534  8.90259728796158 8.40488120211313  8.70399999999995 9.02799999999999  C 8.56617034850376 9.413549671223  8.33575427151857 9.75934548273435  8.03300000000002 10.0350000000001  C 7.67793120439578 10.2966620698398  7.28045735745599 10.4952298555024  6.85799999999998 10.622  C 6.23952696291482 10.7683944440275  5.60552531945629 10.838913694624  4.97 10.832  C 3.91018476711099 10.9142277382489  2.84864145847692 10.696235331742  1.90699999999998 10.203  C 1.36260666059346 9.85489947939763  1.03112739467693 9.25515152267698  1.02599999999998 8.60900000000004  C 0.991739264002092 8.52965833558582  0.977323627379519 8.44316451585064  0.98399999999998 8.35700000000006  Z M 2.99300000000002 4.07700000000003  L 2.99800000000002 4.07700000000003  C 2.94447129946369 4.69261192333809  3.12278816834745 5.30602195229824  3.49800000000002 5.79700000000003  C 3.83071618781381 6.16012930090577  4.30579705786121 6.35929781950253  4.798 6.34200000000001  C 5.31527277117362 6.36028314295214  5.81690070201148 6.16289164670187  6.18299999999999 5.79700000000003  C 6.57890513776132 5.34807972130699  6.77559078421763 4.75766189084374  6.72799999999998 4.16100000000003  C 6.78246562261035 3.55078269520843  6.58563320001579 2.94475552986242  6.18299999999999 2.48300000000003  C 5.82157721938978 2.11003248677511  5.3166723928519 1.91135152615192  4.79799999999997 1.93800000000005  C 4.29311020161404 1.91990917369895  3.80450519200318 2.1181889430496  3.45500000000001 2.48300000000003  C 3.10424228634724 2.93642367276334  2.93907559154397 3.50628452020143  2.99300000000002 4.07700000000003  Z " fill-rule="nonzero" fill="#e4393c" stroke="none" transform="matrix(1 0 0 1 81 84 )" />
  </g>
</svg>