<?xml version="1.0" encoding="utf-8"?>
<svg version="1.1" xmlns:xlink="http://www.w3.org/1999/xlink" width="10px" height="12px" xmlns="http://www.w3.org/2000/svg">
  <g transform="matrix(1 0 0 1 -111 -84 )">
    <path d="M 0.89700000000002 8.36000000000004  L 0.900000000000006 8.35600000000002  L 3.459 8.60800000000006  C 3.47759979789396 8.82245174009668  3.58399639391575 9.01968352523912  3.75300000000001 9.15300000000002  C 4.06461591130414 9.30960120041257  4.41176506025522 9.38199575977674  4.75999999999999 9.36300000000003  C 5.20297719533065 9.37999141649485  5.64490349323083 9.30860332221866  6.06000000000006 9.15300000000002  C 6.27251428640912 9.05187310816706  6.43795111432485 8.8728289221111  6.52200000000005 8.65300000000002  C 6.60551892161851 8.36729886474836  6.63402386386542 8.06833631570646  6.60600000000002 7.77200000000002  L 6.60599999999999 6.72300000000001  C 5.99516327354954 7.4850592238694  5.06442133716234 7.91938081849014  4.08799999999999 7.89800000000002  C 3.04054293070917 7.94478549751878  2.03690341390444 7.4741776198066  1.40300000000002 6.63900000000007  C 0.872691223005944 5.93979230263693  0.591126570461768 5.08348380308695  0.603000000000037 4.20600000000007  C 0.53076681426694 3.16940282788397  0.895977314624275 2.1499324043443  1.61000000000001 1.39500000000004  C 2.30608953763175 0.754475113087437  3.22329674909346 0.408595879378765  4.16899999999998 0.430000000000035  C 5.16894921689016 0.407407763287608  6.12518416862392 0.839552404936541  6.76900000000001 1.60500000000005  L 6.76900000000001 0.55600000000004  L 8.86900000000003 0.55600000000004  L 8.86900000000003 7.10100000000003  C 8.90096734419052 7.75422165998793  8.8156184364849 8.40788591344747  8.61700000000002 9.03100000000001  C 8.47917034850377 9.41654967122304  8.24875427151858 9.76234548273433  7.94600000000003 10.038  C 7.59091034617944 10.2996279860741  7.19344263066563 10.4981927086329  6.77100000000002 10.625  C 6.15253036057214 10.7714140483294  5.51852631267298 10.841933566369  4.88300000000001 10.8350000000001  C 3.82318476711103 10.9172277382489  2.7616414584769 10.699235331742  1.82000000000002 10.206  C 1.26575527689542 9.86184460502639  0.919582677219069 9.26401240146828  0.89700000000002 8.61200000000005  C 0.89700000000002 8.52800000000008  0.89700000000002 8.44400000000007  0.89700000000002 8.36000000000004  Z M 2.91000000000005 4.08000000000004  L 2.91100000000006 4.08000000000004  C 2.85747129946373 4.69561192333813  3.03578816834749 5.30902195229828  3.41100000000006 5.80000000000007  C 3.74371618781385 6.16312930090578  4.21879705786125 6.36229781950254  4.71100000000007 6.34500000000003  C 5.22827277117364 6.36328314295213  5.72990070201158 6.16589164670185  6.09600000000006 5.80000000000007  C 6.50548527422887 5.35686885196012  6.71735335676581 4.76638131698485  6.68299999999999 4.16400000000004  C 6.73734787717652 3.55379600475942  6.54053010524163 2.94781394731586  6.13800000000001 2.48600000000002  C 5.77657721938982 2.11303248677513  5.27167239285197 1.91435152615193  4.75300000000001 1.94100000000003  C 4.24813292388455 1.92303775696482  3.75957849955464 2.12129699840921  3.41000000000003 2.48600000000005  C 3.0271398659049 2.92368646654839  2.84571906393936 3.50205598321458  2.91000000000005 4.08000000000004  Z " fill-rule="nonzero" fill="#e4393c" stroke="none" transform="matrix(1 0 0 1 111 84 )" />
  </g>
</svg>