<?xml version="1.0" encoding="utf-8"?>
<svg version="1.1" xmlns:xlink="http://www.w3.org/1999/xlink" width="43px" height="23px" xmlns="http://www.w3.org/2000/svg">
  <g transform="matrix(1 0 0 1 -29 -47 )">
    <path d="M 4.984 5.45099999999999  L 4.984 5.455  C 6.49465581785155 6.88697465189286  8.1544727678853 8.15287422840819  9.935 9.23099999999999  C 13.711 9.73099999999999  17.529 9.315  21.306 9.44099999999999  C 24.872 9.35699999999999  28.439 9.73499999999999  31.963 9.23099999999999  C 33.7718195670367 8.19341354381291  35.4483532989547 6.94063017634123  36.956 5.5  C 37.208 10.367  37.501 15.192  37.879 20.059  C 39.054 19.514  40.313 18.968  41.613 18.507  C 41.571 17.668  41.529 16.829  41.487 16.031  C 40.901 10.7  41.152 5.24499999999999  39.935 0  C 34.774 0.126000000000005  33.054 6.42  27.851 6.126  C 22.984 6.126  18.159 6.16800000000001  13.292 6.126  C 10.565 6.336  9.092 3.86  7.25 2.476  C 5.823 1.343  4.019 -0.881  1.96300000000001 0.420000000000002  C 1.35634751377192 2.50527182831765  1.05950808291485 4.66839231197534  1.082 6.84  C 0.914000000000001 11.12  0.536999999999999 15.399  0.201000000000001 19.679  C 1.544 20.308  2.801 20.979  3.935 21.651  C 4.313 16.196  4.69 10.826  4.984 5.45099999999999  Z " fill-rule="nonzero" fill="#e4393c" stroke="none" transform="matrix(1 0 0 1 29 47 )" />
  </g>
</svg>