<?xml version="1.0" encoding="utf-8"?>
<svg version="1.1" xmlns:xlink="http://www.w3.org/1999/xlink" width="8px" height="8px" xmlns="http://www.w3.org/2000/svg">
  <g transform="matrix(1 0 0 1 -102 -84 )">
    <path d="M 7.84599999999998 3.36600000000001  L 7.84299999999999 7.89400000000001  L 5.619 7.89400000000001  L 5.619 4.16  C 5.6489607209042 3.65323659723958  5.60653402359037 3.14478966911383  5.49299999999999 2.65000000000003  C 5.4120374365169 2.41725619177799  5.24734652628462 2.22297795351693  5.03100000000001 2.10500000000002  C 4.78945223766524 1.96100726762984  4.51212829944694 1.88820973384756  4.23099999999997 1.89500000000001  C 3.85935926149793 1.88229207498523  3.49290394112333 1.98499737926562  3.18199999999996 2.18900000000002  C 2.89966799354502 2.35107540955059  2.67860421286747 2.60166122135197  2.55299999999997 2.90199999999999  C 2.40584140024933 3.44842426154236  2.34909154571477 4.01524721338137  2.38499999999999 4.58000000000001  L 2.38499999999999 7.89500000000001  L 0.164999999999992 7.89500000000001  L 0.164999999999992 0.594999999999999  L 2.26499999999999 0.594999999999999  L 2.26499999999999 1.68600000000001  C 2.95538848072849 0.876154701329909  3.96988585175831 0.414886304751178  5.03399999999993 0.427000000000021  C 5.49426615230752 0.417348277561302  5.95154109923678 0.50315117154949  6.37699999999998 0.67900000000003  C 6.7293093838673 0.793563505548661  7.04685379103148 0.99551211552199  7.30000000000001 1.26600000000005  C 7.49663052617973 1.49887040763184  7.63997672465501 1.77191078568001  7.71999999999994 2.06600000000003  C 7.81646985840032 2.49231555041146  7.85880370373334 2.92909331972021  7.84599999999998 3.36600000000001  Z " fill-rule="nonzero" fill="#e4393c" stroke="none" transform="matrix(1 0 0 1 102 84 )" />
  </g>
</svg>