<?xml version="1.0" encoding="utf-8"?>
<svg version="1.1" xmlns:xlink="http://www.w3.org/1999/xlink" width="40px" height="30px" xmlns="http://www.w3.org/2000/svg">
  <g transform="matrix(1 0 0 1 -122 -48 )">
    <path d="M 0.555000000000064 21.574  L 0.557000000000016 19.811  L 3.36799999999999 19.391  L 3.36799999999999 9.78299999999999  L 0.557000000000016 9.78299999999999  L 0.557000000000016 8.02099999999999  L 3.36799999999999 8.02099999999999  L 3.36799999999999 0.259  L 9.62 0.259  L 9.62 7.979  L 12.389 7.979  L 12.389 9.741  L 9.62 9.741  L 9.62 18.341  L 12.389 17.921  L 12.389 19.721  L 9.62 20.141  L 9.62 27.777  C 9.62 28.91  8.31999999999999 29.877  6.72000000000003 29.877  L 0.888000000000034 29.877  L 0.888000000000034 28.119  L 1.68800000000005 28.119  C 2.61100000000005 28.119  3.36600000000004 27.574  3.36600000000004 26.902  L 3.36600000000004 21.154  L 0.555000000000064 21.574  Z M 19.857 16.159  L 13.48 16.161  L 18.305 9.06999999999999  L 24.473 9.06999999999999  L 19.857 16.159  Z M 39.0710000000001 8.315  L 32.864 8.31499999999998  L 32.864 5.336  C 32.864 4.66499999999999  32.151 4.203  31.144 4.203  L 21.368 4.203  C 20.403 4.203  19.69 4.66500000000001  19.69 5.336  L 19.69 8.315  L 13.48 8.315  L 13.48 4.497  C 13.48 3.364  14.865 2.39700000000001  16.669 2.39700000000001  L 23.169 2.39700000000001  L 23.169 0.297000000000011  L 29.421 0.297000000000011  L 29.421 2.39700000000001  L 35.8820000000001 2.39700000000001  C 37.6440000000001 2.39700000000001  39.0710000000001 3.36200000000001  39.0710000000001 4.497  L 39.0710000000001 8.315  Z M 13.564 27.997  L 13.522 27.993  L 23.2140000000001 27.993  L 23.2140000000001 19.559  L 15.7450000000001 19.559  L 15.7450000000001 17.797  L 36.8920000000001 17.797  L 36.8920000000001 19.559  L 29.465 19.559  L 29.465 27.993  L 39.115 27.993  L 39.115 29.759  L 13.564 29.759  L 13.564 27.997  Z M 39.157 16.159  L 32.697 16.159  L 28.166 9.068  L 34.292 9.068  L 39.157 16.159  Z " fill-rule="nonzero" fill="#e4393c" stroke="none" transform="matrix(1 0 0 1 122 48 )" />
  </g>
</svg>