<?xml version="1.0" encoding="utf-8"?>
<svg version="1.1" xmlns:xlink="http://www.w3.org/1999/xlink" width="20px" height="18px" xmlns="http://www.w3.org/2000/svg">
  <g transform="matrix(1 0 0 1 -1056 -16 )">
    <path d="M 10.7595833398437 14.0345833398437  C 12.8829166796875 14.0483333398437  14.5620833398437 14.13875  15.8770833398438 14.3104166601562  L 16.1154166601562 14.3429166601562  C 17.97625 14.60875  18.70875 15.00125  18.9945833398438 15.29  C 19.1466666796875 15.4433333398438  19.16625 15.5633333398438  19.16625 15.6508333398438  C 19.16625 16.1870833398437  18.43375 16.6020833398437  16.9908333398437 16.8833333398438  L 16.8075 16.9179166601563  C 15.3770833398437 17.17625  13.3075 17.3075  10.28625 17.3333333398437  L 10.28625 14.0333333398437  L 10.7595833398437 14.0345833398437  Z M 4.24916666015625 14.3208333398437  L 4.27166666015625 14.3104166601562  L 4.27166666015625 17.1779166601562  L 4.19958333984375 17.1666666601562  C 3.0454166796875 16.9666666601562  1.5466666796875 16.5870833203125  0.992083339843751 15.9979166601562  C 0.858333339843751 15.85625  0.835000000000001 15.7533333203125  0.833333339843751 15.6854166601562  L 0.834166660156251 15.6520833398437  L 0.835833339843751 15.6370833398437  C 0.844166679687501 15.565  0.881666679687501 15.4608333398437  0.994166660156251 15.3391666601562  L 1.04708333984375 15.2858333398437  C 1.2866666796875 15.0704166796875  1.6754166796875 14.9075  1.94416666015625 14.8125  C 2.5183333203125 14.6091666601562  3.29041666015625 14.445  4.24916666015625 14.3208333398437  Z M 0.83333333984375 13.0908333398438  L 0.83333333984375 4.905  C 0.90083333984375 4.94166666015625  0.96958333984375 4.97583333984375  1.03916666015625 5.00875  L 1.17208333984375 5.06875  C 1.2891666796875 5.12  1.40833333984375 5.16708333984375  1.52875 5.21  C 2.25875 5.47041666015625  3.06875 5.68166666015625  4.27166666015625 5.82125  L 4.27166666015625 12.2054166601563  C 3.07625 12.3429166601563  2.2725 12.5233333203125  1.54708333984375 12.7795833398438  C 1.42457729690654 12.8239612787164  1.30328367642467 12.8716173038368  1.18333333984375 12.9225  L 1.07583333984375 12.9704166601562  L 0.98583333984375 13.0125  L 0.91541666015625 13.0479166601563  L 0.83333333984375 13.0908333398438  Z M 19.0920833398438 4.96291666015625  L 19.1666666601562 4.92333333984375  L 19.1666666601562 13.055  L 19.0991666601562 13.0195833398437  L 19.0233333398437 12.9825  C 18.9786398854202 12.9612798745661  18.9336349615088 12.9407220719868  18.8883333398437 12.9208333398437  L 18.8654166601562 12.9091666601562  L 18.7016666601562 12.8408333398437  L 18.6266666601562 12.8116666601562  L 18.46875 12.7533333398437  L 18.3625 12.7170833398437  L 18.2845833398437 12.69125  L 18.1670833398437 12.6545833398437  C 18.1129166796875 12.6379166796875  18.0583333398437 12.62125  18.00375 12.6058333398437  L 17.9708333398437 12.5975  C 17.9072064487112 12.5790571639422  17.8433105844657 12.56155525449  17.7791666601562 12.545  L 17.695 12.5241666601562  L 17.5504166601562 12.4895833398437  L 17.3816666601562 12.45125  L 17.18 12.4095833398437  L 17.08125 12.39  L 16.9420833398437 12.3633333398437  L 16.6829166601562 12.3175  L 16.4720833398437 12.2845833398437  L 16.2845833398437 12.2570833398437  L 16.2 12.2445833398437  L 15.9333333398437 12.2095833398437  L 15.90625 12.2054166601562  L 15.7504166601563 12.18625  L 15.5654166601563 12.1654166601562  L 15.3841666601563 12.1458333398437  C 14.4604166601563 12.05  13.3945833203125 11.98625  12.1758333398438 11.955  L 11.9145833398438 11.9491666601562  L 11.4375 11.9408333398437  L 11.075 11.9358333398437  L 10.7445833398438 11.9333333398437  L 10.28625 11.9316666601562  L 10.28625 6.065  L 10.74625 6.06291666015625  C 13.3795833398438 6.04125  15.3879166601563 5.90041666015625  16.8629166601563 5.635  L 17.1795833398438 5.57541666015625  L 17.2770833398438 5.55625  L 17.2908333398438 5.55291666015625  L 17.4666666601563 5.51541666015625  L 17.6666666601563 5.47  L 17.80625 5.435  L 17.9595833398438 5.39375  L 18.1083333398438 5.35083333984375  L 18.2583333398438 5.305  C 18.35875 5.27291666015625  18.4583333398438 5.23833333984375  18.5566666601563 5.20083333984375  L 18.5608333398438 5.19833333984375  C 18.6108333398438 5.1791666796875  18.66125 5.15958333984375  18.7108333398438 5.13875  L 18.7154166601563 5.1375  L 18.7904166601563 5.10541666015625  L 18.875 5.06791666015625  L 18.9425 5.03666666015624  L 19.0270833398438 4.99625  L 19.0920833398438 4.96291666015625  Z M 6.27666666015625 12.0366666601562  L 6.27625 12.0358333398437  L 6.27625 5.96333333984375  L 6.26666666015625 5.96333333984375  C 6.69166666015625 5.9891666796875  7.36416666015625 6.0175  8.28375 6.04666666015625  L 8.28083333984375 11.9525  C 7.53708333984375 11.97  6.91 11.9979166601562  6.27666666015625 12.0366666601562  Z M 16.9941666601562 1.1225  L 17.20375 1.16583333984375  C 18.1445833398437 1.36833333984375  19.1666666601563 1.72625  19.1666666601563 2.325  C 19.1666666601563 2.78291666015625  18.3233333203125 3.22083333984375  16.9020833398437 3.50541666015625  L 16.7629166601563 3.53291666015625  C 15.2695833203125 3.81375  13.1308333203125 3.955  10.28625 3.96375  L 10.28625 0.66666666015625  L 10.8970833398438 0.67375  C 13.69125 0.71458333984375  15.6529166796875 0.86  16.9941666601563 1.12208333984375  Z M 4.30083333984375 0.8375  L 4.30083333984375 3.70125  C 3.27583333984375 3.57416666015625  2.61458333984375 3.40333333984375  2.055 3.22083333984375  L 1.93916666015625 3.18  L 1.80416666015625 3.13  C 1.48166666015625 3.00583333984375  1.0670833203125 2.80333333984375  0.90416666015625 2.54708333984375  L 0.8925 2.52958333984375  L 0.8825 2.51083333984375  C 0.866230297000445 2.48020330809813  0.853642756230355 2.44775542085345  0.845 2.41416666015625  C 0.837853002173514 2.38482089274797  0.833940801421721 2.35478076743525  0.83333333984375 2.32458333984375  C 0.83333333984375 2.16083333984375  1.0291666796875 1.95208333984375  1.37125 1.75041666015625  C 1.76791666015625 1.5170833203125  2.33625 1.305  3.06041666015625 1.1175  C 3.5070833203125 1.005  3.8470833203125 0.91458333984375  4.30083333984375 0.83708333984375  Z " fill-rule="nonzero" fill="#ffffff" stroke="none" transform="matrix(1 0 0 1 1056 16 )" />
  </g>
</svg>