<?xml version="1.0" encoding="utf-8"?>
<svg version="1.1" xmlns:xlink="http://www.w3.org/1999/xlink" width="12px" height="12px" viewBox="109 346.5  12 12" xmlns="http://www.w3.org/2000/svg">
  <path d="M 115 346.5  C 118.36 346.5  121 349.14  121 352.5  C 121 355.86  118.36 358.5  115 358.5  C 111.64 358.5  109 355.86  109 352.5  C 109 349.14  111.64 346.5  115 346.5  Z " fill-rule="nonzero" fill="#e13438" stroke="none" fill-opacity="0" />
  <path d="M 115 347  C 118.08 347  120.5 349.42  120.5 352.5  C 120.5 355.58  118.08 358  115 358  C 111.92 358  109.5 355.58  109.5 352.5  C 109.5 349.42  111.92 347  115 347  Z " stroke-width="1" stroke="#0070cc" fill="none" />
  <path d="M 115 355.5  C 113.32 355.5  112 354.18  112 352.5  C 112 350.82  113.32 349.5  115 349.5  C 116.68 349.5  118 350.82  118 352.5  C 118 354.18  116.68 355.5  115 355.5  " fill-rule="nonzero" fill="#0070cc" stroke="none" />
</svg>