<?xml version="1.0" encoding="utf-8"?>
<svg version="1.1" xmlns:xlink="http://www.w3.org/1999/xlink" width="12px" height="12px" viewBox="110 522.5  12 12" xmlns="http://www.w3.org/2000/svg">
  <path d="M 116 522.5  C 119.36 522.5  122 525.14  122 528.5  C 122 531.86  119.36 534.5  116 534.5  C 112.64 534.5  110 531.86  110 528.5  C 110 525.14  112.64 522.5  116 522.5  Z " fill-rule="nonzero" fill="#e13438" stroke="none" fill-opacity="0" />
  <path d="M 116 523  C 119.08 523  121.5 525.42  121.5 528.5  C 121.5 531.58  119.08 534  116 534  C 112.92 534  110.5 531.58  110.5 528.5  C 110.5 525.42  112.92 523  116 523  Z " stroke-width="1" stroke="#0070cc" fill="none" />
  <path d="M 116 531.5  C 114.32 531.5  113 530.18  113 528.5  C 113 526.82  114.32 525.5  116 525.5  C 117.68 525.5  119 526.82  119 528.5  C 119 530.18  117.68 531.5  116 531.5  " fill-rule="nonzero" fill="#0070cc" stroke="none" />
</svg>