<?xml version="1.0" encoding="utf-8"?>
<svg version="1.1" xmlns:xlink="http://www.w3.org/1999/xlink" width="12px" height="12px" viewBox="103 549.5  12 12" xmlns="http://www.w3.org/2000/svg">
  <path d="M 109 549.5  C 112.36 549.5  115 552.14  115 555.5  C 115 558.86  112.36 561.5  109 561.5  C 105.64 561.5  103 558.86  103 555.5  C 103 552.14  105.64 549.5  109 549.5  Z " fill-rule="nonzero" fill="#e13438" stroke="none" fill-opacity="0" />
  <path d="M 109 550  C 112.08 550  114.5 552.42  114.5 555.5  C 114.5 558.58  112.08 561  109 561  C 105.92 561  103.5 558.58  103.5 555.5  C 103.5 552.42  105.92 550  109 550  Z " stroke-width="1" stroke="#0070cc" fill="none" />
  <path d="M 109 558.5  C 107.32 558.5  106 557.18  106 555.5  C 106 553.82  107.32 552.5  109 552.5  C 110.68 552.5  112 553.82  112 555.5  C 112 557.18  110.68 558.5  109 558.5  " fill-rule="nonzero" fill="#0070cc" stroke="none" />
</svg>