<?xml version="1.0" encoding="utf-8"?>
<svg version="1.1" xmlns:xlink="http://www.w3.org/1999/xlink" width="12px" height="12px" viewBox="261 522.5  12 12" xmlns="http://www.w3.org/2000/svg">
  <path d="M 267 522.5  C 270.36 522.5  273 525.14  273 528.5  C 273 531.86  270.36 534.5  267 534.5  C 263.64 534.5  261 531.86  261 528.5  C 261 525.14  263.64 522.5  267 522.5  Z " fill-rule="nonzero" fill="#e13438" stroke="none" fill-opacity="0" />
  <path d="M 267 523  C 270.08 523  272.5 525.42  272.5 528.5  C 272.5 531.58  270.08 534  267 534  C 263.92 534  261.5 531.58  261.5 528.5  C 261.5 525.42  263.92 523  267 523  Z " stroke-width="1" stroke="#0070cc" fill="none" />
  <path d="M 267 531.5  C 265.32 531.5  264 530.18  264 528.5  C 264 526.82  265.32 525.5  267 525.5  C 268.68 525.5  270 526.82  270 528.5  C 270 530.18  268.68 531.5  267 531.5  " fill-rule="nonzero" fill="#0070cc" stroke="none" />
</svg>