<?xml version="1.0" encoding="utf-8"?>
<svg version="1.1" xmlns:xlink="http://www.w3.org/1999/xlink" width="20px" height="2px" xmlns="http://www.w3.org/2000/svg">
  <g transform="matrix(1 0 0 1 -1260 -33 )">
    <path d="M 19.244140625 0.789453124999998  C 19.244140625 1.08125  19.00859375 1.316796875  18.716796875 1.316796875  L 17.999609375 1.316796875  C 17.7078125 1.316796875  17.472265625 1.08125  17.472265625 0.789453124999998  C 17.472265625 0.497656250000002  17.7078125 0.262109374999998  17.999609375 0.262109374999998  L 18.716796875 0.262109374999998  C 19.00859375 0.262109374999998  19.244140625 0.497656250000002  19.244140625 0.789453124999998  Z M 16.783203125 0.789453124999998  C 16.783203125 1.08125  16.54765625 1.316796875  16.255859375 1.316796875  L 1.026171875 1.316796875  C 0.734375 1.316796875  0.498828124999999 1.08125  0.498828124999999 0.789453124999998  C 0.498828124999999 0.497656250000002  0.734375 0.262109374999998  1.026171875 0.262109374999998  L 16.255859375 0.262109374999998  C 16.54765625 0.262109374999998  16.783203125 0.497656250000002  16.783203125 0.789453124999998  Z " fill-rule="nonzero" fill="#ffffff" stroke="none" transform="matrix(1 0 0 1 1260 33 )" />
  </g>
</svg>