<?xml version="1.0" encoding="utf-8"?>
<svg version="1.1" xmlns:xlink="http://www.w3.org/1999/xlink" width="12px" height="12px" xmlns="http://www.w3.org/2000/svg">
  <g transform="matrix(1 0 0 1 -795 -450 )">
    <path d="M 11.9213169642857 1.8515625  C 11.9213169642857 1.18359375  11.3772321428571 0.639508928571428  10.7092633928571 0.639508928571429  L 7.61216517857143 0.639508928571429  C 7.31584821428571 0.639508928571429  7.07645089285714 0.87890625  7.07645089285714 1.17522321428571  C 7.07645089285714 1.47154017857143  7.31584821428571 1.7109375  7.61216517857143 1.7109375  L 10.7075892857143 1.7109375  C 10.7845982142857 1.7109375  10.8482142857143 1.77455357142857  10.8482142857143 1.8515625  L 10.8482142857143 6.92578125  C 10.8482142857143 7.00279017857143  10.7845982142857 7.06640625  10.7075892857143 7.06640625  L 2.21986607142857 7.06640625  L 5.09598214285714 4.19029017857143  C 5.30524553571429 3.98102678571429  5.30524553571429 3.64118303571429  5.09598214285714 3.43191964285714  C 4.88671875 3.22265625  4.546875 3.22265625  4.33761160714286 3.43191964285714  L 0.997767857142857 6.77511160714286  C 0.778459821428571 6.99441964285714  0.657924107142857 7.28571428571428  0.657924107142857 7.59542410714286  C 0.657924107142857 7.90513392857143  0.778459821428571 8.19642857142857  0.997767857142857 8.41573660714286  L 4.36941964285714 11.7873883928571  C 4.47321428571429 11.8911830357143  4.61049107142857 11.9447544642857  4.74776785714286 11.9447544642857  C 4.88504464285714 11.9447544642857  5.02232142857143 11.8928571428571  5.12611607142857 11.7873883928571  C 5.33537946428572 11.578125  5.33537946428572 11.23828125  5.12611607142857 11.0290178571429  L 2.23660714285714 8.13783482142857  L 10.7092633928571 8.13783482142857  C 11.3772321428571 8.13783482142857  11.9213169642857 7.59375  11.9213169642857 6.92578125  L 11.9213169642857 1.8515625  Z " fill-rule="nonzero" fill="#cccccc" stroke="none" transform="matrix(1 0 0 1 795 450 )" />
  </g>
</svg>