<?xml version="1.0" encoding="utf-8"?>
<svg version="1.1" xmlns:xlink="http://www.w3.org/1999/xlink" width="423px" height="101px" xmlns="http://www.w3.org/2000/svg">
  <defs>
    <filter x="0px" y="0px" width="423px" height="101px" filterUnits="userSpaceOnUse" id="filter1440">
      <feOffset dx="2" dy="2" in="SourceAlpha" result="shadowOffsetInner" />
      <feGaussianBlur stdDeviation="0.5" in="shadowOffsetInner" result="shadowGaussian" />
      <feComposite in2="shadowGaussian" operator="atop" in="SourceAlpha" result="shadowComposite" />
      <feColorMatrix type="matrix" values="0 0 0 0 0.6  0 0 0 0 0.6  0 0 0 0 0.6  0 0 0 0.67843137254902 0  " in="shadowComposite" />
    </filter>
    <g id="widget1441">
      <path d="M 0.5 4  A 3.5 3.5 0 0 1 4 0.5 L 416 0.5  A 3.5 3.5 0 0 1 419.5 4 L 419.5 94  A 3.5 3.5 0 0 1 416 97.5 L 4 97.5  A 3.5 3.5 0 0 1 0.5 94 L 0.5 4  Z " fill-rule="nonzero" fill="#ffffff" stroke="none" fill-opacity="0.996078431372549" />
      <path d="M 0.5 4  A 3.5 3.5 0 0 1 4 0.5 L 416 0.5  A 3.5 3.5 0 0 1 419.5 4 L 419.5 94  A 3.5 3.5 0 0 1 416 97.5 L 4 97.5  A 3.5 3.5 0 0 1 0.5 94 L 0.5 4  Z " stroke-width="1" stroke="#f2f2f2" fill="none" />
    </g>
  </defs>
  <g>
    <use xlink:href="#widget1441" filter="url(#filter1440)" />
    <use xlink:href="#widget1441" />
  </g>
</svg>