<?xml version="1.0" encoding="utf-8"?>
<svg version="1.1" xmlns:xlink="http://www.w3.org/1999/xlink" width="310px" height="30px" xmlns="http://www.w3.org/2000/svg">
  <defs>
    <mask fill="white" id="clip1452">
      <path d="M 310 0  L 310 30  L 0 30  L 0 0  L 310 0  Z M 310 0  L 310 30  L 310 0  Z " fill-rule="evenodd" />
    </mask>
  </defs>
  <g transform="matrix(1 0 0 1 -598 -62 )">
    <path d="M 310 0  L 310 30  L 0 30  L 0 0  L 310 0  Z M 310 0  L 310 30  L 310 0  Z " fill-rule="nonzero" fill="#54bd58" stroke="none" transform="matrix(1 0 0 1 598 62 )" />
    <path d="M 310 0  L 310 30  L 0 30  L 0 0  L 310 0  Z " stroke-width="2" stroke="#fafafa" fill="none" transform="matrix(1 0 0 1 598 62 )" mask="url(#clip1452)" />
    <path d="M 310 0  L 310 30  L 310 0  Z " stroke-width="2" stroke="#fafafa" fill="none" transform="matrix(1 0 0 1 598 62 )" mask="url(#clip1452)" />
  </g>
</svg>