<?xml version="1.0" encoding="utf-8"?>
<svg version="1.1" xmlns:xlink="http://www.w3.org/1999/xlink" width="2px" height="2px" xmlns="http://www.w3.org/2000/svg">
  <g transform="matrix(1 0 0 1 -1247 -19 )">
    <path d="M 1.32421875 0.87109375  C 1.32421875 0.9203125  1.285546875 0.958984375  1.236328125 0.958984375  L 0.976171875 0.958984375  C 0.926953125 0.958984375  0.88828125 0.9203125  0.88828125 0.87109375  C 0.88828125 0.821875  0.926953125 0.783203125  0.976171875 0.783203125  L 1.236328125 0.783203125  C 1.285546875 0.783203125  1.32421875 0.821875  1.32421875 0.87109375  Z M 0.4875 0.87109375  C 0.4875 0.9203125  0.448828125 0.958984375  0.399609375 0.958984375  L 0.139453125 0.958984375  C 0.0902343749999996 0.958984375  0.0515624999999997 0.9203125  0.0515624999999997 0.87109375  C 0.0515624999999997 0.821875  0.0902343749999996 0.783203125  0.139453125 0.783203125  L 0.399609375 0.783203125  C 0.448828125 0.783203125  0.4875 0.821875  0.4875 0.87109375  Z M 0.540234375 0.719921874999999  C 0.52265625 0.733984374999999  0.5015625 0.741015625000001  0.48046875 0.741015625000001  C 0.455859375 0.741015625000001  0.434765625 0.73046875  0.4171875 0.712890625  L 0.230859375 0.512500000000001  C 0.19921875 0.477343750000001  0.19921875 0.421093749999999  0.237890625 0.389453125000001  C 0.273046875 0.357812500000001  0.329296875 0.357812500000001  0.3609375 0.396484375  L 0.547265625 0.596874999999999  C 0.57890625 0.632031249999999  0.57890625 0.688281250000001  0.540234375 0.719921874999999  Z M 1.1765625 1.366796875  C 1.158984375 1.37734375  1.137890625 1.387890625  1.116796875 1.387890625  C 1.0921875 1.387890625  1.07109375 1.37734375  1.053515625 1.359765625  L 0.8671875 1.159375  C 0.835546875 1.12421875  0.835546875 1.06796875  0.87421875 1.036328125  C 0.909375 1.0046875  0.965625 1.0046875  0.997265625 1.043359375  L 1.18359375 1.24375  C 1.215234375 1.27890625  1.215234375 1.33515625  1.1765625 1.366796875  Z M 0.99375 0.691796875000001  C 0.9796875 0.712890625000002  0.955078125 0.723437500000001  0.93046875 0.723437500000001  C 0.909375 0.723437500000001  0.88828125 0.71640625  0.870703125 0.698828125  C 0.835546875 0.667187500000001  0.83203125 0.6109375  0.863671875 0.57578125  L 1.05 0.375390625000001  C 1.081640625 0.340234375000001  1.137890625 0.336718750000001  1.173046875 0.368359375000001  C 1.208203125 0.4  1.21171875 0.456250000000001  1.180078125 0.491406250000001  L 0.99375 0.691796875000001  Z M 0.786328125 0.625  C 0.786328125 0.67421875  0.74765625 0.712890625  0.6984375 0.712890625  C 0.64921875 0.712890625  0.610546875 0.67421875  0.610546875 0.625  L 0.610546875 0.340234375  C 0.610546875 0.291015625  0.64921875 0.25234375  0.6984375 0.25234375  C 0.74765625 0.25234375  0.786328125 0.291015625  0.786328125 0.340234375  L 0.786328125 0.625  Z M 0.786328125 1.440625  C 0.786328125 1.486328125  0.74765625 1.528515625  0.6984375 1.528515625  C 0.64921875 1.528515625  0.610546875 1.48984375  0.610546875 1.440625  L 0.610546875 1.155859375  C 0.610546875 1.106640625  0.64921875 1.06796875  0.6984375 1.06796875  C 0.74765625 1.06796875  0.786328125 1.106640625  0.786328125 1.155859375  L 0.786328125 1.440625  Z M 0.36796875 1.34921875  C 0.350390625 1.373828125  0.32578125 1.380859375  0.3046875 1.380859375  C 0.28359375 1.380859375  0.2625 1.373828125  0.244921875 1.35625  C 0.209765625 1.324609375  0.20625 1.268359375  0.237890625 1.233203125  L 0.42421875 1.0328125  C 0.455859375 0.99765625  0.512109375 0.994140625  0.547265625 1.02578125  C 0.582421875 1.057421875  0.5859375 1.113671875  0.554296875 1.148828125  L 0.36796875 1.34921875  Z " fill-rule="nonzero" fill="#42da56" stroke="none" transform="matrix(1 0 0 1 1247 19 )" />
  </g>
</svg>