<?xml version="1.0" encoding="utf-8"?>
<svg version="1.1" xmlns:xlink="http://www.w3.org/1999/xlink" width="12px" height="12px" viewBox="103 468  12 12" xmlns="http://www.w3.org/2000/svg">
  <path d="M 103.5 469  A 0.5 0.5 0 0 1 104 468.5 L 114 468.5  A 0.5 0.5 0 0 1 114.5 469 L 114.5 479  A 0.5 0.5 0 0 1 114 479.5 L 104 479.5  A 0.5 0.5 0 0 1 103.5 479 L 103.5 469  Z " fill-rule="nonzero" fill="#ffffff" stroke="none" />
  <path d="M 103.5 469  A 0.5 0.5 0 0 1 104 468.5 L 114 468.5  A 0.5 0.5 0 0 1 114.5 469 L 114.5 479  A 0.5 0.5 0 0 1 114 479.5 L 104 479.5  A 0.5 0.5 0 0 1 103.5 479 L 103.5 469  Z " stroke-width="1" stroke="#0070cc" fill="none" />
  <path d="M 105.571428571429 474  L 108.142857142857 476.571428571429  " stroke-width="2.57142857142857" stroke="#0070cc" fill="none" />
  <path d="M 108.142857142857 476.571428571429  L 112.428571428571 470.571428571429  " stroke-width="2.57142857142857" stroke="#0070cc" fill="none" />
</svg>