<?xml version="1.0" encoding="utf-8"?>
<svg version="1.1" xmlns:xlink="http://www.w3.org/1999/xlink" width="12px" height="12px" viewBox="103 506  12 12" xmlns="http://www.w3.org/2000/svg">
  <path d="M 103.5 507  A 0.5 0.5 0 0 1 104 506.5 L 114 506.5  A 0.5 0.5 0 0 1 114.5 507 L 114.5 517  A 0.5 0.5 0 0 1 114 517.5 L 104 517.5  A 0.5 0.5 0 0 1 103.5 517 L 103.5 507  Z " fill-rule="nonzero" fill="#ffffff" stroke="none" />
  <path d="M 103.5 507  A 0.5 0.5 0 0 1 104 506.5 L 114 506.5  A 0.5 0.5 0 0 1 114.5 507 L 114.5 517  A 0.5 0.5 0 0 1 114 517.5 L 104 517.5  A 0.5 0.5 0 0 1 103.5 517 L 103.5 507  Z " stroke-width="1" stroke="#0070cc" fill="none" />
  <path d="M 105.571428571429 512  L 108.142857142857 514.571428571429  " stroke-width="2.57142857142857" stroke="#0070cc" fill="none" />
  <path d="M 108.142857142857 514.571428571429  L 112.428571428571 508.571428571429  " stroke-width="2.57142857142857" stroke="#0070cc" fill="none" />
</svg>