<?xml version="1.0" encoding="utf-8"?>
<svg version="1.1" xmlns:xlink="http://www.w3.org/1999/xlink" width="227px" height="37px" xmlns="http://www.w3.org/2000/svg">
  <defs>
    <filter x="301px" y="28px" width="227px" height="37px" filterUnits="userSpaceOnUse" id="filter1475">
      <feOffset dx="2" dy="2" in="SourceAlpha" result="shadowOffsetInner" />
      <feGaussianBlur stdDeviation="0.5" in="shadowOffsetInner" result="shadowGaussian" />
      <feComposite in2="shadowGaussian" operator="atop" in="SourceAlpha" result="shadowComposite" />
      <feColorMatrix type="matrix" values="0 0 0 0 0.6  0 0 0 0 0.6  0 0 0 0 0.6  0 0 0 0.67843137254902 0  " in="shadowComposite" />
    </filter>
    <g id="widget1476">
      <path d="M 301.5 32  A 3.5 3.5 0 0 1 305 28.5 L 521 28.5  A 3.5 3.5 0 0 1 524.5 32 L 524.5 58  A 3.5 3.5 0 0 1 521 61.5 L 305 61.5  A 3.5 3.5 0 0 1 301.5 58 L 301.5 32  Z " fill-rule="nonzero" fill="#ffffff" stroke="none" fill-opacity="0.996078431372549" />
      <path d="M 301.5 32  A 3.5 3.5 0 0 1 305 28.5 L 521 28.5  A 3.5 3.5 0 0 1 524.5 32 L 524.5 58  A 3.5 3.5 0 0 1 521 61.5 L 305 61.5  A 3.5 3.5 0 0 1 301.5 58 L 301.5 32  Z " stroke-width="1" stroke="#f2f2f2" fill="none" />
    </g>
  </defs>
  <g transform="matrix(1 0 0 1 -301 -28 )">
    <use xlink:href="#widget1476" filter="url(#filter1475)" />
    <use xlink:href="#widget1476" />
  </g>
</svg>