<?xml version="1.0" encoding="utf-8"?>
<svg version="1.1" xmlns:xlink="http://www.w3.org/1999/xlink" width="238px" height="37px" xmlns="http://www.w3.org/2000/svg">
  <defs>
    <filter x="350px" y="490px" width="238px" height="37px" filterUnits="userSpaceOnUse" id="filter1485">
      <feOffset dx="2" dy="2" in="SourceAlpha" result="shadowOffsetInner" />
      <feGaussianBlur stdDeviation="0.5" in="shadowOffsetInner" result="shadowGaussian" />
      <feComposite in2="shadowGaussian" operator="atop" in="SourceAlpha" result="shadowComposite" />
      <feColorMatrix type="matrix" values="0 0 0 0 0.6  0 0 0 0 0.6  0 0 0 0 0.6  0 0 0 0.67843137254902 0  " in="shadowComposite" />
    </filter>
    <g id="widget1486">
      <path d="M 350.5 494  A 3.5 3.5 0 0 1 354 490.5 L 581 490.5  A 3.5 3.5 0 0 1 584.5 494 L 584.5 520  A 3.5 3.5 0 0 1 581 523.5 L 354 523.5  A 3.5 3.5 0 0 1 350.5 520 L 350.5 494  Z " fill-rule="nonzero" fill="#ffffff" stroke="none" fill-opacity="0.996078431372549" />
      <path d="M 350.5 494  A 3.5 3.5 0 0 1 354 490.5 L 581 490.5  A 3.5 3.5 0 0 1 584.5 494 L 584.5 520  A 3.5 3.5 0 0 1 581 523.5 L 354 523.5  A 3.5 3.5 0 0 1 350.5 520 L 350.5 494  Z " stroke-width="1" stroke="#f2f2f2" fill="none" />
    </g>
  </defs>
  <g transform="matrix(1 0 0 1 -350 -490 )">
    <use xlink:href="#widget1486" filter="url(#filter1485)" />
    <use xlink:href="#widget1486" />
  </g>
</svg>