<?xml version="1.0" encoding="utf-8"?>
<svg version="1.1" xmlns:xlink="http://www.w3.org/1999/xlink" width="14px" height="14px" xmlns="http://www.w3.org/2000/svg">
  <g transform="matrix(1 0 0 1 -589 -338 )">
    <path d="M 14 7  C 14 10.9  10.8 14  7 14  C 3.2 14  0 10.9  0 7  C 0 3.2  3.1 0  7 0  C 10.8 0  14 3.1  14 7  Z M 13 7  C 13 3.7  10.3 1  7 1  C 3.7 1  1 3.7  1 7  C 1 10.3  3.7 13  7 13  C 10.3 13  13 10.3  13 7  Z " fill-rule="nonzero" fill="#999999" stroke="none" transform="matrix(1 0 0 1 589 338 )" />
  </g>
</svg>