<?xml version="1.0" encoding="utf-8"?>
<svg version="1.1" xmlns:xlink="http://www.w3.org/1999/xlink" width="12px" height="12px" viewBox="103 475  12 12" xmlns="http://www.w3.org/2000/svg">
  <path d="M 103.5 476  A 0.5 0.5 0 0 1 104 475.5 L 114 475.5  A 0.5 0.5 0 0 1 114.5 476 L 114.5 486  A 0.5 0.5 0 0 1 114 486.5 L 104 486.5  A 0.5 0.5 0 0 1 103.5 486 L 103.5 476  Z " fill-rule="nonzero" fill="#ffffff" stroke="none" />
  <path d="M 103.5 476  A 0.5 0.5 0 0 1 104 475.5 L 114 475.5  A 0.5 0.5 0 0 1 114.5 476 L 114.5 486  A 0.5 0.5 0 0 1 114 486.5 L 104 486.5  A 0.5 0.5 0 0 1 103.5 486 L 103.5 476  Z " stroke-width="1" stroke="#999999" fill="none" />
</svg>