<?xml version="1.0" encoding="utf-8"?>
<svg version="1.1" xmlns:xlink="http://www.w3.org/1999/xlink" width="14px" height="12px" xmlns="http://www.w3.org/2000/svg">
  <g transform="matrix(1 0 0 1 -8 -42 )">
    <path d="M 0.422499994140625 3  L 13.5775000058594 3  C 13.6750000117188 2.77499999414063  13.75 2.65499998828125  13.75 2.52749999414063  L 13.75 1.22249999414062  C 13.75 1.08749999414063  13.6749999941406 0.974999994140625  13.5775000058594 1  L 0.422499994140625 1  C 0.32499998828125 0.974999994140625  0.25 1.095  0.25 1.22249999414062  L 0.25 2.52749999414062  C 0.25 2.66249999414062  0.325000005859375 2.77499999414062  0.422499994140625 3  Z M 0.25 5.3475  L 0.25 6.6525  C 0.25 6.7875  0.325000005859375 6.9  0.422499994140625 7  L 13.5775000058594 7  C 13.6750000117187 6.9  13.75 6.77999999414062  13.75 6.6525  L 13.75 5.3475  C 13.75 5.2125  13.6749999941406 5.1  13.5775000058594 5  L 0.422499994140625 5  C 0.32499998828125 5.1  0.25 5.22000000585938  0.25 5.3475  Z M 0.25 9.47250000585937  L 0.25 10.7775000058594  C 0.25 10.9125000058594  0.325000005859375 11.0250000058594  0.422499994140625 11  L 13.5775000058594 11  C 13.6750000117187 11.0250000058594  13.75 10.905  13.75 10.7775000058594  L 13.75 9.47250000585937  C 13.75 9.33750000585938  13.6749999941406 9.22500000585937  13.5775000058594 9  L 0.422499994140625 9  C 0.32499998828125 9.22500000585937  0.25 9.34500001171875  0.25 9.47250000585937  Z " fill-rule="nonzero" fill="#999999" stroke="none" transform="matrix(1 0 0 1 8 42 )" />
  </g>
</svg>