<?xml version="1.0" encoding="utf-8"?>
<svg version="1.1" xmlns:xlink="http://www.w3.org/1999/xlink" width="26px" height="18px" xmlns="http://www.w3.org/2000/svg">
  <g transform="matrix(1 0 0 1 -1249 -14 )">
    <path d="M 25.03046875 5.635546875  C 25.01640625 6.3  24.475 6.830859375  23.8140625 6.830859375  L 23.79296875 6.830859375  L 22.5203125 6.809765625  C 22.196875 6.80625  21.89453125 6.67265625  21.66953125 6.440625  C 21.44453125 6.20859375  21.321484375 5.89921875  21.328515625 5.57578125  L 21.38125 2.183203125  C 21.391796875 1.515234375  21.947265625 0.977343749999999  22.615234375 0.987890624999999  L 23.887890625 1.008984375  C 24.555859375 1.01953125  25.09375 1.571484375  25.083203125 2.24296875  L 25.055078125 4.032421875  L 25.04453125 4.208203125  C 25.03046875 4.5  24.780859375 4.721484375  24.492578125 4.707421875  C 24.20078125 4.693359375  23.979296875 4.44375  23.993359375 4.15546875  L 24.000390625 3.990234375  L 24.028515625 2.22890625  C 24.028515625 2.141015625  23.958203125 2.0671875  23.8703125 2.0671875  L 22.59765625 2.04609375  L 22.594140625 2.04609375  C 22.509765625 2.04609375  22.4359375 2.11640625  22.4359375 2.204296875  L 22.383203125 5.596875  C 22.383203125 5.684765625  22.453515625 5.75859375  22.54140625 5.75859375  L 23.8140625 5.7796875  L 23.817578125 5.7796875  C 23.901953125 5.7796875  23.97578125 5.709375  23.97578125 5.621484375  C 23.979296875 5.3296875  24.221875 5.09765625  24.51015625 5.101171875  C 24.801953125 5.1046875  25.033984375 5.347265625  25.03046875 5.635546875  Z M 4.04921875 6.4828125  C 3.820703125 6.7078125  3.521875 6.830859375  3.20546875 6.830859375  L 3.184375 6.830859375  L 1.91171875 6.809765625  C 1.58828125 6.80625  1.2859375 6.67265625  1.0609375 6.440625  C 0.835937500000001 6.20859375  0.712890625000001 5.902734375  0.719921875000002 5.5828125  L 0.723437500000001 4.144921875  C 0.723437500000001 3.853125  0.958984375000001 3.617578125  1.25078125 3.617578125  C 1.542578125 3.617578125  1.778125 3.856640625  1.778125 4.144921875  L 1.774609375 5.58984375  C 1.774609375 5.677734375  1.844921875 5.7515625  1.9328125 5.7515625  L 3.20546875 5.77265625  C 3.26171875 5.77265625  3.300390625 5.74453125  3.31796875 5.726953125  C 3.335546875 5.709375  3.3671875 5.670703125  3.3671875 5.614453125  L 3.419921875 2.221875  C 3.419921875 2.133984375  3.349609375 2.06015625  3.26171875 2.06015625  L 1.9890625 2.0390625  L 1.985546875 2.0390625  C 1.901171875 2.0390625  1.82734375 2.109375  1.82734375 2.197265625  L 1.82734375 2.204296875  L 1.809765625 2.717578125  C 1.79921875 3.009375  1.556640625 3.237890625  1.26484375 3.22734375  C 0.973046875000001 3.216796875  0.744531250000001 2.97421875  0.755078125000001 2.682421875  L 0.772656250000001 2.17265625  C 0.78671875 1.51171875  1.328125 0.984375000000002  1.985546875 0.984375000000002  L 2.006640625 0.984375000000002  L 3.279296875 1.00546875  C 3.602734375 1.008984375  3.905078125 1.142578125  4.130078125 1.374609375  C 4.355078125 1.606640625  4.478125 1.916015625  4.47109375 2.239453125  L 4.418359375 5.63203125  C 4.41484375 5.95546875  4.28125 6.2578125  4.04921875 6.4828125  Z M 19.619921875 16.590234375  C 19.619921875 16.88203125  19.384375 17.117578125  19.092578125 17  L 7.2203125 17  C 6.928515625 17.117578125  6.69296875 16.88203125  6.69296875 16.590234375  C 6.69296875 16.2984375  6.928515625 16.062890625  7.2203125 16  L 19.092578125 16  C 19.384375 16.062890625  19.619921875 16.2984375  19.619921875 16.590234375  Z " fill-rule="nonzero" fill="#ffffff" stroke="none" transform="matrix(1 0 0 1 1249 14 )" />
  </g>
</svg>