<?xml version="1.0" encoding="utf-8"?>
<svg version="1.1" xmlns:xlink="http://www.w3.org/1999/xlink" width="14px" height="14px" xmlns="http://www.w3.org/2000/svg">
  <g transform="matrix(1 0 0 1 -1376 -42 )">
    <path d="M 14 12  C 14 13.1045694996617  13.1045694996619 14  12 14  L 2 14  C 0.89543050033808 14  0 13.1045694996617  0 12  L 0 2  C 0 0.895430500338307  0.89543050033808 0  2 0  L 12 0  C 13.1045694996619 0  14 0.895430500338307  14 2  L 14 12  Z M 6.61200000000008 11.308  L 6.61599999999999 11.307  L 9.8159999999998 11.307  L 9.8159999999998 11.8140000000001  L 11.1549999999997 11.8140000000001  L 11.1549999999997 8.06400000000008  L 5.27499999999964 8.06400000000008  L 5.27499999999964 11.8140000000001  L 6.61200000000008 11.8140000000001  L 6.61200000000008 11.308  Z M 3.03099999999995 7.5  L 3.03099999999995 7.50700000000006  L 3.03099999999995 11.8150000000001  L 4.26999999999953 11.8150000000001  L 4.26999999999953 4.75  C 4.51999999999953 4.09400000000005  4.76999999999953 3.37699999999995  5.02299999999923 2.55700000000002  L 3.73299999999927 2.21499999999969  C 3.32368607926583 3.81090865869101  2.74785974016504 5.35940556593687  2.01499999999942 6.83499999999981  C 2.14599999999973 7.50799999999981  2.2519999999995 8.12599999999975  2.32799999999952 8.6719999999998  C 2.56700000000001 8.31500000000005  2.80000000000018 7.923  3.03099999999995 7.5  Z M 11.1589999999997 6.5  L 5.29799999999977 6.50700000000006  L 5.29799999999977 7.55300000000011  L 11.1589999999997 7.55300000000011  L 11.1589999999997 6.5  Z M 11.1589999999997 4.96500000000015  L 5.29799999999977 4.96500000000015  L 5.29799999999977 6.00900000000024  L 11.1589999999997 6.00900000000024  L 11.1589999999997 4.96500000000015  Z M 7.51599999999962 3.31500000000005  L 4.89800000000014 3.31400000000008  L 4.89800000000014 4.42800000000011  L 11.7250000000004 4.42800000000011  L 11.7250000000004 3.31400000000008  L 9.10900000000038 3.31400000000008  C 8.90300000000025 2.82400000000007  8.72800000000007 2.44400000000019  8.57200000000012 2.15200000000004  L 7.11599999999999 2.41499999999996  C 7.27599999999984 2.75299999999993  7.40700000000015 3.048  7.51599999999962 3.31500000000005  Z M 9.81999999999971 10.1590000000001  L 6.61999999999989 10.1590000000001  L 6.61999999999989 9.22200000000021  L 9.81999999999971 9.22200000000021  L 9.81999999999971 10.1580000000001  Z " fill-rule="nonzero" fill="#999999" stroke="none" transform="matrix(1 0 0 1 1376 42 )" />
  </g>
</svg>