<?xml version="1.0" encoding="utf-8"?>
<svg version="1.1" xmlns:xlink="http://www.w3.org/1999/xlink" width="24px" height="24px" xmlns="http://www.w3.org/2000/svg">
  <defs>
    <mask fill="white" id="clip1416">
      <path d="M 24 22  L 24 2  C 24 0.88  23.12 0  22 0  L 0 0  L 0 24  L 22 24  C 23.12 24  24 23.12  24 22  Z " fill-rule="evenodd" />
    </mask>
  </defs>
  <g transform="matrix(1 0 0 1 -23 0 )">
    <path d="M 24 22  L 24 2  C 24 0.88  23.12 0  22 0  L 0 0  L 0 24  L 22 24  C 23.12 24  24 23.12  24 22  Z " fill-rule="nonzero" fill="#ffffff" stroke="none" transform="matrix(1 0 0 1 23 0 )" />
    <path d="M 24 22  L 24 2  C 24 0.88  23.12 0  22 0  L 0 0  L 0 24  L 22 24  C 23.12 24  24 23.12  24 22  Z " stroke-width="2" stroke="#dddddd" fill="none" transform="matrix(1 0 0 1 23 0 )" mask="url(#clip1416)" />
  </g>
</svg>