<?xml version="1.0" encoding="utf-8"?>
<svg version="1.1" xmlns:xlink="http://www.w3.org/1999/xlink" width="7px" height="12px" xmlns="http://www.w3.org/2000/svg">
  <g transform="matrix(1 0 0 1 -1003 -17 )">
    <path d="M 6.73099999999999 2.30900000000003  L 6.73299999999995 2.31700000000003  L 2.80700000000002 6.24200000000003  L 6.78399999999999 10.219  C 6.91754047880681 10.3584238852869  6.99208728778933 10.5440275061971  6.99208728778933 10.7370872877893  C 6.99208728778933 11.1507485654126  6.6567485654125 11.4860872877893  6.24308728778931 11.4860872877893  C 6.05002750619713 11.4860872877893  5.8644238852869 11.4115404788068  5.72500000000002 11.278  L 1.22500000000002 6.77800000000003  C 1.07838810112708 6.63705853440506  0.995672649436528 6.44237020051325  0.995999999999981 6.23900000000003  C 0.995788845705761 6.03565337957176  1.07848573595174 5.84100873397109  1.22500000000002 5.70000000000002  L 5.72500000000002 1.20000000000002  C 5.86460251298172 1.06537798773396  6.05098015547389 0.990153143068017  6.24491815540523 0.990153143068017  C 6.65857943302842 0.990153143068017  6.99391815540525 1.32549186544475  6.99391815540525 1.73915314306802  C 6.99391815540525 1.95843043353787  6.89782840423345 2.1666946464228  6.73099999999999 2.30900000000003  Z " fill-rule="nonzero" fill="#cccccc" stroke="none" transform="matrix(1 0 0 1 1003 17 )" />
  </g>
</svg>