<?xml version="1.0" encoding="utf-8"?>
<svg version="1.1" xmlns:xlink="http://www.w3.org/1999/xlink" width="14px" height="14px" xmlns="http://www.w3.org/2000/svg">
  <g transform="matrix(1 0 0 1 -1342 -42 )">
    <path d="M 14 1.75  C 13.9972535866953 0.784641577938583  13.2153584220614 0.00274641330467232  12.25 0  L 1.75 0  C 0.784641577938586 0.00274641330467307  0.00274641330467773 0.784641577938584  0 1.75  L 0 12.25  C 0.00274641330467773 13.2153584220614  0.784641577938586 13.9972535866953  1.75 14  L 12.25 14  C 13.2153584220614 13.9972535866953  13.9972535866953 13.2153584220614  14 12.25  L 14 1.75  Z M 11.462 6.825  C 11.2774436908708 9.12487654698717  9.30498287098062 10.8656992069441  7 10.763  C 6.43491462189766 10.7682020676924  5.87290341231747 10.6793211608256  5.337 10.5  C 4.98699999999999 10.675  4.462 11.113  4.28700000000001 11.2  C 3.937 11.375  4.02500000000001 11.025  4.02500000000001 11.025  L 4.2 9.975  C 3.16558466112647 9.29933406951061  2.54057085481806 8.14852692885134  2.53700000000001 6.913  C 2.6906650033971 4.5973910648415  4.68327596889955 2.83917865566637  7 2.975  C 8.40798197006075 2.97118231468368  9.74850736234004 3.57779285274095  10.675 4.638  L 6.3 6.65  C 6.06786290891588 6.74899286821739  5.80041142361029 6.71537039577897  5.59999999999999 6.562  L 4.90000000000001 6.037  C 4.90000000000001 6.037  4.375 5.6  4.637 6.3  L 5.337 7.875  C 5.337 7.875  5.425 8.312  5.95 8.05  C 6.38800000000001 7.875  9.625 5.863  11.025 5.075  C 11.3025718400166 5.61724117194804  11.4520716038297 6.21592443664578  11.462 6.825  Z " fill-rule="nonzero" fill="#999999" stroke="none" transform="matrix(1 0 0 1 1342 42 )" />
  </g>
</svg>