<?xml version="1.0" encoding="utf-8"?>
<svg version="1.1" xmlns:xlink="http://www.w3.org/1999/xlink" width="14px" height="14px" xmlns="http://www.w3.org/2000/svg">
  <g transform="matrix(1 0 0 1 -282 -346 )">
    <path d="M 9.39999942623364 8.13399800057566  C 10.2259992287624 8.42799786781991  13.9999983265148 9.58299734627944  13.9999983265148 9.58299734627944  L 13.9999983265148 2.69500045655711  C 13.9999994421715 2.69399989956906  14 2.69299934203695  14 2.69199878442691  C 14 1.20524890922489  12.7947508346827 0  11.3080006435746 0  C 11.3070000857519 0  11.3059995280072 0  11.3049989708066 0  L 2.6950010291934 0  C 2.69400047199275 0  2.69299991424805 0  2.6919993564254 0  C 1.20524916531734 0  0 1.20524890922489  0 2.69199878442691  C 0 2.69299934203695  0 2.69399989956906  0 2.69500045655711  L 0 11.3119965655492  C 0.00110309761581215 12.7968622900315  1.20513384185848 14  2.69000029034631 14  C 2.69166720437598 14  2.6933341180441 13.9999984505934  2.6950010291934 13.9999953517823  L 11.3119989691331 13.9999953517823  C 12.6161970064028 13.9981547810551  13.7326589371187 13.0643332590603  13.9649983348822 11.7809963537721  C 13.2509985055777 11.4729964928496  10.1569992452582 10.1359970965722  8.54699963015976 9.36599744426583  C 7.54094044239118 10.8364528959325  5.88155478996297 11.7245430721457  4.10000069330101 11.7459963695764  C 2.16800115518293 11.7459963695764  0.873001464777691 10.5559969069211  1.02700142796102 9.09299756753903  C 1.13200140285874 8.13399800057566  1.79000124555113 6.56599870860635  4.63900056444265 6.83899858533315  C 5.81250190790841 6.95592908204344  6.96431659902354 7.23387203638378  8.06199974610838 7.6649982123527  C 8.38816170219958 7.06125554510325  8.64865040686033 6.4242820139674  8.83899956035152 5.76499907029805  L 3.40000086064953 5.76499907029805  L 3.40000086064953 5.2219993154898  L 6.08300021922656 5.2219993154898  L 6.08300021922656 4.25599975168727  L 2.80000100409112 4.25599975168727  L 2.80000100409112 3.65600002261738  L 6.08300021922656 3.65600002261738  L 6.08300021922656 2.26800064936904  C 6.10437517598034 2.13606077387053  6.22263969363613 2.04205566442612  6.35600015396064 2.05100074735543  L 7.69999983265148 2.05100074735543  L 7.69999983265148 3.66800001719878  L 11.1999989959089 3.66800001719878  L 11.1999989959089 4.26299974852642  L 7.69999983265148 4.26299974852642  L 7.69999983265148 5.22899931232894  L 10.5559991498695 5.22899931232894  C 10.3128159852726 6.24802597961936  9.92344781992531 7.22649854016736  9.39999942623364 8.13399800057566  Z M 7.34299991799922 8.76399771609905  C 6.57211618172679 9.95279245109171  5.29072909130589 10.713858561266  3.8780007463744 10.8219967868088  C 1.83400123503208 10.8219967868088  1.5120013120124 9.52199737382401  1.61700128691012 8.98799761495181  C 1.85622279152902 8.18848023014459  2.62724973619947 7.6695762749772  3.45800084678351 7.74899817442248  C 4.81494978944675 7.77603378822402  6.1462342911635 8.12384678233646  7.34299991799922 8.76399771609905  Z " fill-rule="nonzero" fill="#999999" stroke="none" transform="matrix(1 0 0 1 282 346 )" />
  </g>
</svg>