<?xml version="1.0" encoding="utf-8"?>
<svg version="1.1" xmlns:xlink="http://www.w3.org/1999/xlink" width="15px" height="14px" xmlns="http://www.w3.org/2000/svg">
  <g transform="matrix(1 0 0 1 -286 -32 )">
    <path d="M 14.026 0.925999999999931  L 14.034 0.925999999999988  C 13.8775851334489 0.694688755192885  13.6165612396128 0.556095393750809  13.3373292528125 0.556095393750809  C 13.0538404378035 0.556095393750809  12.7894285217367 0.698917982828732  12.634 0.935999999999979  L 5.42000000000002 10.343  L 2.22700000000003 6.11099999999993  C 2.07247131078901 5.86919449685195  1.80531326752515 5.72287245500434  1.51834808297849 5.72287245500434  C 1.24244995480859 5.72287245500434  0.984098708641966 5.85819662068053  0.827000000000055 6.08499999999992  C 0.436607612002774 6.619157558778  0.428572695986929 7.34230000019949  0.807000000000073 7.88499999999993  L 4.70700000000005 13.0509999999999  C 4.70700000000005 13.0509999999999  4.71300000000002 13.0509999999999  4.71500000000003 13.0589999999999  C 4.71700000000004 13.0669999999999  4.71500000000003 13.0669999999999  4.71500000000003 13.0689999999999  C 4.77701580334013 13.1391713285134  4.84874074357009 13.2001206908685  4.92800000000011 13.2499999999999  C 4.96253652258105 13.2827343372767  4.99893014666594 13.3134518915502  5.03699999999998 13.3419999999999  C 5.15149064779331 13.4057195481931  5.27998629815545 13.4400766739584  5.41100000000012 13.442  C 5.54002851849629 13.4412919106045  5.66697127264473 13.409384677805  5.78100000000006 13.3489999999999  C 5.81589915076074 13.3218504348742  5.84928264165956 13.2928067977924  5.88100000000009 13.2619999999999  C 5.96114933814459 13.2125287532584  6.03359048663481 13.1515434142968  6.09600000000006 13.0809999999999  C 6.09600000000006 13.0809999999999  6.09600000000006 13.0729999999999  6.10200000000003 13.0709999999999  C 6.108 13.0689999999999  6.10700000000003 13.0709999999999  6.11000000000001 13.0629999999999  L 14.033 2.73199999999991  C 14.4175399834575 2.19057984839566  14.4147254220252 1.46442299886974  14.026 0.925999999999931  Z " fill-rule="nonzero" fill="#54bd58" stroke="none" transform="matrix(1 0 0 1 286 32 )" />
  </g>
</svg>