<?xml version="1.0" encoding="utf-8"?>
<svg version="1.1" xmlns:xlink="http://www.w3.org/1999/xlink" width="268px" height="66px" xmlns="http://www.w3.org/2000/svg">
  <defs>
    <mask fill="white" id="clip957">
      <path d="M 267 0  L 0 0  L 0 65  L 267 65  L 267 0  Z " fill-rule="evenodd" />
    </mask>
  </defs>
  <g transform="matrix(1 0 0 1 -310 -337 )">
    <path d="M 267 0  L 0 0  L 0 65  L 267 65  L 267 0  Z " fill-rule="nonzero" fill="#ffffff" stroke="none" transform="matrix(1 0 0 1 310 337 )" />
    <path d="M 267 0  L 0 0  L 0 65  L 267 65  L 267 0  Z " stroke-width="2" stroke="#797979" fill="none" transform="matrix(1 0 0 1 310 337 )" mask="url(#clip957)" />
    <path d="M 17.5 0  L 17.5 65  M 246.5 0  L 246.5 65  " stroke-width="1" stroke="#797979" fill="none" transform="matrix(1 0 0 1 310 337 )" />
  </g>
</svg>