<?xml version="1.0" encoding="utf-8"?>
<svg version="1.1" xmlns:xlink="http://www.w3.org/1999/xlink" width="14px" height="14px" xmlns="http://www.w3.org/2000/svg">
  <g transform="matrix(1 0 0 1 -1266 83 )">
    <path d="M 5.38364495872434 7.07191138079447  C 4.74744937557328 7.38505609257038  4.18499964721654 7.64408382135046  3.69592887885416 7.84954490933465  L 3.69592887885416 12.2229309249982  C 3.69592887885416 13.1036618923305  3.27051435828688 13.5437522048966  2.41913497495237 13.5437522048966  L 1.05446976645735 13.5437522048966  L 0.819657094475412 12.5311225569745  C 1.28928243843929 12.5799195653708  1.70020461440768 12.6043180695689  2.05242362238058 12.6043180695689  C 2.45362308614972 12.6043180695689  2.6541310943343 12.3939039017851  2.6541310943343 11.9734424610174  L 2.6541310943343 8.27514287730192  C 2.02784167078247 8.50041628448459  1.3333098144359 8.73522895646653  0.570168630494603 8.97958089324773  L 0.306187821914909 7.93759966132788  C 1.04951668665773 7.76149015734143  1.83228674239752 7.53163056515911  2.65431454173429 7.24783743738094  L 2.65431454173429 3.84305369364284  L 0.526324701897976 3.84305369364284  L 0.526324701897976 2.83042404572074  L 2.65431454173429 2.83042404572074  L 2.65431454173429 0.174105693925068  L 3.69629577365413 0.174105693925068  L 3.69629577365413 2.83042404572074  L 5.3399844775277 2.83042404572074  L 5.3399844775277 3.84305369364284  L 3.69629577365413 3.84305369364284  L 3.69629577365413 6.83691526141255  C 4.29305016580823 6.57275100543287  4.85568334156495 6.30381711705355  5.38401185352431 6.02974670147464  L 5.38401185352431 7.07191138079447  Z M 8.03959641572003 6.95432159740351  L 7.18876737458548 6.95432159740352  L 7.18876737458548 13.5877795808933  L 6.19099696606223 13.5877795808933  L 6.19099696606223 0.731785789882171  L 12.6336696535666 0.731785789882171  C 12.6336696535666 2.34612290975799  12.5503845339731 3.43213151767445  12.3841811895858 3.98981161363156  C 12.2080716855994 4.52804628519015  11.6503915896423 4.79698017356946  10.7111409017145 4.79698017356946  L 9.65448387779581 4.79698017356946  L 9.3607845904184 3.87240527764059  L 9.75703097438792 3.87240527764059  L 9.97716785437099 3.88708106963946  L 10.2266563183518 3.88708106963946  C 10.5297114231285 3.88708106963946  10.7990122063078 3.86763564524095  11.0336414308897 3.82837790164397  C 11.1998447752769 3.76985818104847  11.3321103506668 3.65722147745714  11.4298878148592 3.49083468566994  C 11.5274818316517 3.22667042969026  11.5913215268468 2.63009948493615  11.6206731108446 1.70038806180766  L 7.1885839271855 1.70038806180766  L 7.1885839271855 5.98553587807804  L 12.7653848867565 5.98553587807804  L 12.7653848867565 6.89543498200805  C 12.4619628871799 8.48060396528611  11.9384040076201 9.81133140478375  11.1948916954773 10.887433853101  C 11.8894235518239 11.5527975728498  12.7554787271573 12.173950469202  13.7925068792775 12.7512594369576  L 13.0880688633317 13.5582445494955  C 12.07030268821 12.9027869893459  11.2436887038736 12.2618217737952  10.6078600155225 11.6358992450434  C 9.90323855217668 12.4379312777817  9.04708953644253 13.0935722853313  8.03959641572003 13.6024553728921  L 7.52576024835956 12.6778804769632  C 8.46501093628731 12.2082551329994  9.25750370422635 11.6065476610456  9.90323855217668 10.8727580611021  C 8.89556198405419 9.67906582939392  8.27422564030199 8.37310378889437  8.03959641572003 6.95432159740351  Z M 11.7529386862344 6.95432159740352  L 8.99388979044662 6.95432159740352  C 9.19935087843082 8.11884569251394  9.69337472659282 9.17036618923305  10.4761447823326 10.1096168771608  C 11.0631764622875 9.21934664502928  11.4889578776547 8.16764270091018  11.7529386862344 6.95432159740352  Z " fill-rule="nonzero" fill="#ffffff" stroke="none" transform="matrix(1 0 0 1 1266 -83 )" />
  </g>
</svg>