<?xml version="1.0" encoding="utf-8"?>
<svg version="1.1" xmlns:xlink="http://www.w3.org/1999/xlink" width="14px" height="16px" xmlns="http://www.w3.org/2000/svg">
  <g transform="matrix(1 0 0 1 -764 71 )">
    <path d="M 8.15888889557292 12.4392156930147  C 8.15888889557292 11.2745098106618  9.1 10.3686274577206  10.2122222289062 10.3686274577206  C 11.3672222289063 10.3686274577206  12.2655555622396 11.2745098106618  12.2655555622396 12.4392156930147  C 12.2655555622396 12.8274509871324  12.18 13.1725490330882  11.9661111044271 13.4745098106618  L 13.2066666666667 14.7254901893382  L 12.5222222289062 15.4588235294118  L 11.2816666666667 14.2078431305147  C 10.9822222289063 14.3803921433824  10.5972222289063 14.5098039080882  10.2122222289062 14.5098039283088  C 9.05722222890625 14.5098039283088  8.15888889557292 13.6039215753676  8.15888889557292 12.4392156930147  Z M 1 3.03529411764706  C 0.886666666666668 2.30196077757353  1.48555556223959 1.74117647058824  2.17 1.74117647058823  L 3.02555556223958 1.74117647058823  L 3.02555556223958 3.03529411764706  L 2.17 3.03529411764706  L 2.17 13.8196078363971  L 7.30333333333334 13.8196078363971  L 7.30333333333334 15.1137254834559  L 2.17 15.1137254834559  C 1.44277777109375 15.1137254834559  0.886666666666668 14.5529411764706  1 13.8196078363971  L 1 3.03529411764706  Z M 10.9822222289062 12.4392156930147  C 10.9822222289062 12.0078431507353  10.64 11.6627451047794  10.2122222289062 11.6627451047794  C 9.7844444578125 11.6627451047794  9.44222222890625 12.0078431507353  9.44222222890625 12.4392156930147  C 9.44222222890625 12.8705882352941  9.7844444578125 13.21568628125  10.2122222289062 13.21568628125  C 10.64 13.21568628125  10.9822222289062 12.8705882352941  10.9822222289062 12.4392156930147  Z M 9.87 1.74117647058823  L 10.7255555622396 1.74117647058823  C 11.4527777911458 1.74117647058823  12.0088888955729 2.30196077757353  12.0088888955729 3.03529411764706  L 12.0088888955729 9.93725489522059  L 10.7255555622396 9.93725489522059  L 10.7255555622396 3.03529411764706  L 9.87 3.03529411764706  L 9.87 1.74117647058823  Z M 3.45333333333333 8.64313724816176  L 7.30333333333334 8.64313724816176  L 7.30333333333334 9.93725489522059  L 3.45333333333333 9.93725489522059  L 3.45333333333333 8.64313724816176  Z M 3.45333333333333 6.05490195404412  L 9.44222222890625 6.05490195404412  L 9.44222222890625 7.34901960110294  L 3.45333333333333 7.34901960110294  L 3.45333333333333 6.05490195404412  Z M 5.16444443776042 0.447058823529412  L 7.73111110442708 0.447058823529411  C 8.45833333333333 0.447058823529411  9.01444443776042 1.00784313051471  9.01444443776042 1.74117647058823  L 9.01444443776042 2.60392157536765  C 9.01444443776042 3.33725491544118  8.45833333333333 3.89803922242647  7.73111110442708 3.89803922242647  L 5.16444443776042 3.89803922242647  C 4.43722220885417 3.89803922242647  3.88111110442708 3.33725491544118  3.88111110442708 2.60392157536765  L 3.88111110442708 1.74117647058824  C 3.88111110442708 1.00784313051471  4.43722220885417 0.447058823529412  5.16444443776042 0.447058823529412  Z M 7.73111110442708 2.60392157536765  L 7.73111110442708 1.74117647058823  L 5.16444443776042 1.74117647058823  L 5.16444443776042 2.60392157536765  L 7.73111110442708 2.60392157536765  Z " fill-rule="nonzero" fill="#0070cc" stroke="none" transform="matrix(1 0 0 1 764 -71 )" />
  </g>
</svg>