<?xml version="1.0" encoding="utf-8"?>
<svg version="1.1" xmlns:xlink="http://www.w3.org/1999/xlink" width="12px" height="16px" xmlns="http://www.w3.org/2000/svg">
  <g transform="matrix(1 0 0 1 -637 71 )">
    <path d="M 7.89285713671875 10.4444444444444  L 10.6428571489955 10.4444444444444  C 11.2937641755818 10.4444444444444  11.821428577567 10.991651972429  11.821428577567 11.6666666666667  L 11.821428577567 14.1111111111111  C 11.821428577567 14.7861258053487  11.2937641755818 15.3333333333333  10.6428571489955 15.3333333333333  L 7.89285713671875 15.3333333333333  C 7.24195011013246 15.3333333333333  6.71428570814732 14.7861258053487  6.71428570814732 14.1111111111111  L 6.71428570814732 11.6666666666667  C 6.71428570814732 10.991651972429  7.24195011013246 10.4444444444444  7.89285713671875 10.4444444444444  Z M 0 3.11111111111111  C 0.0357142918526786 2.43609641687347  0.563378693837816 1.88888888888889  1.21428572042411 1.88888888888889  L 1.99999999386161 1.88888888888889  L 1.99999999386161 3.11070371006944  L 1.21428572042411 3.11111111111111  L 1.21428572042411 13.2962962899306  L 5.92857143470982 13.2962962899306  L 5.92857143470982 14.5185185121528  L 1.21428572042411 14.5185185121528  C 0.563378693837816 14.5185185121528  0.0357142918526786 13.9713109841682  0 13.2962962899306  L 0 3.11111111111111  Z M 10.6428571489955 14.1111111111111  L 10.6428571489955 11.6666666666667  L 7.89285713671875 11.6666666666667  L 7.89285713671875 14.1111111111111  L 10.6428571489955 14.1111111111111  Z M 8.29985714899553 12.2777777777778  L 10.2499999938616 12.2777777777778  L 10.2499999938616 13.5  L 8.29985714899553 13.5  L 8.29985714899553 12.2777777777778  Z M 8.28571429185268 1.88888888888889  L 9.07142856529018 1.88888888888889  C 9.72233559187647 1.88888888888889  10.2499999938616 2.43609641687347  10.2499999938616 3.11111111111111  L 10.2499999938616 9.62962962326389  L 9.07142856529018 9.62962962326389  L 9.07142856529018 3.11111111111111  L 8.28571429185268 3.11111111111111  L 8.28571429185268 1.88888888888889  Z M 2.39285714899554 8.40740740104167  L 5.92857143470982 8.40740740104167  L 5.92857143470982 9.62962962326389  L 2.39285714899554 9.62962962326389  L 2.39285714899554 8.40740740104167  Z M 2.39285714899554 5.96296295659722  L 7.89285713671875 5.96296295659722  L 7.89285713671875 7.18518517881944  L 2.39285714899554 7.18518517881944  L 2.39285714899554 5.96296295659722  Z M 3.96428571428571 0.666666666666667  L 6.32142857142857 0.666666666666667  C 6.97233559801486 0.666666666666667  7.5 1.21387419465125  7.5 1.88888888888889  L 7.5 2.70370371006944  C 7.5 3.37871840430708  6.97233559801486 3.92592593229167  6.32142857142857 3.92592593229167  L 3.96428571428571 3.92592593229167  C 3.31337868769942 3.92592593229167  2.78571428571429 3.37871840430708  2.78571428571429 2.70370371006944  L 2.78571428571429 1.88888888888889  C 2.78571428571429 1.21387419465125  3.31337868769942 0.666666666666667  3.96428571428571 0.666666666666667  Z M 6.32142857142857 2.70370371006944  L 6.32142857142857 1.88888888888889  L 3.96428571428571 1.88888888888889  L 3.96428571428571 2.70370371006944  L 6.32142857142857 2.70370371006944  Z " fill-rule="nonzero" fill="#666666" stroke="none" transform="matrix(1 0 0 1 637 -71 )" />
  </g>
</svg>