<?xml version="1.0" encoding="utf-8"?>
<svg version="1.1" xmlns:xlink="http://www.w3.org/1999/xlink" width="24px" height="24px" xmlns="http://www.w3.org/2000/svg">
  <g transform="matrix(1 0 0 1 -2906 -127 )">
    <path d="M 24 12  C 24 5.37258300203048  18.6274169979695 0  12 0  C 5.37258300203048 0  0 5.37258300203048  0 12  C 0 18.6274169979695  5.37258300203048 24  12 24  C 18.6274169979695 24  24 18.6274169979695  24 12  Z M 13.0308 6  L 13.0308 13.9572  C 13.0308 14.5268264909755  12.5690264909755 14.9886  11.9994 14.9886  C 11.4297735090245 14.9886  10.968 14.5268264909755  10.968 13.9572  L 10.968 6  C 10.968 5.43037350902452  11.4297735090245 4.9686  11.9994 4.9686  C 12.5690264909755 4.9686  13.0308 5.43037350902452  13.0308 6  Z M 10.5 17.5308  C 10.5 16.7023728752538  11.1715728752538 16.0308  12 16.0308  C 12.8284271247462 16.0308  13.5 16.7023728752538  13.5 17.5308  C 13.5 18.3592271247462  12.8284271247462 19.0308  12 19.0308  C 11.1715728752538 19.0308  10.5 18.3592271247462  10.5 17.5308  Z " fill-rule="nonzero" fill="#ffde03" stroke="none" transform="matrix(1 0 0 1 2906 127 )" />
  </g>
</svg>