<?xml version="1.0" encoding="utf-8"?>
<svg version="1.1" xmlns:xlink="http://www.w3.org/1999/xlink" width="12px" height="12px" viewBox="315 2163.5  12 12" xmlns="http://www.w3.org/2000/svg">
  <path d="M 321 2163.5  C 324.36 2163.5  327 2166.14  327 2169.5  C 327 2172.86  324.36 2175.5  321 2175.5  C 317.64 2175.5  315 2172.86  315 2169.5  C 315 2166.14  317.64 2163.5  321 2163.5  Z " fill-rule="nonzero" fill="#ffffff" stroke="none" />
  <path d="M 321 2164  C 324.08 2164  326.5 2166.42  326.5 2169.5  C 326.5 2172.58  324.08 2175  321 2175  C 317.92 2175  315.5 2172.58  315.5 2169.5  C 315.5 2166.42  317.92 2164  321 2164  Z " stroke-width="1" stroke="#0070cc" fill="none" />
  <path d="M 321 2172.5  C 319.32 2172.5  318 2171.18  318 2169.5  C 318 2167.82  319.32 2166.5  321 2166.5  C 322.68 2166.5  324 2167.82  324 2169.5  C 324 2171.18  322.68 2172.5  321 2172.5  " fill-rule="nonzero" fill="#0070cc" stroke="none" />
</svg>