<?xml version="1.0" encoding="utf-8"?>
<svg version="1.1" xmlns:xlink="http://www.w3.org/1999/xlink" width="12px" height="12px" viewBox="315 2186.5  12 12" xmlns="http://www.w3.org/2000/svg">
  <path d="M 321 2186.5  C 324.36 2186.5  327 2189.14  327 2192.5  C 327 2195.86  324.36 2198.5  321 2198.5  C 317.64 2198.5  315 2195.86  315 2192.5  C 315 2189.14  317.64 2186.5  321 2186.5  Z " fill-rule="nonzero" fill="#ffffff" stroke="none" />
  <path d="M 321 2187  C 324.08 2187  326.5 2189.42  326.5 2192.5  C 326.5 2195.58  324.08 2198  321 2198  C 317.92 2198  315.5 2195.58  315.5 2192.5  C 315.5 2189.42  317.92 2187  321 2187  Z " stroke-width="1" stroke="#0070cc" fill="none" />
  <path d="M 321 2195.5  C 319.32 2195.5  318 2194.18  318 2192.5  C 318 2190.82  319.32 2189.5  321 2189.5  C 322.68 2189.5  324 2190.82  324 2192.5  C 324 2194.18  322.68 2195.5  321 2195.5  " fill-rule="nonzero" fill="#0070cc" stroke="none" />
</svg>