<?xml version="1.0" encoding="utf-8"?>
<svg version="1.1" xmlns:xlink="http://www.w3.org/1999/xlink" width="12px" height="12px" viewBox="159 185.5  12 12" xmlns="http://www.w3.org/2000/svg">
  <path d="M 165 185.5  C 168.36 185.5  171 188.14  171 191.5  C 171 194.86  168.36 197.5  165 197.5  C 161.64 197.5  159 194.86  159 191.5  C 159 188.14  161.64 185.5  165 185.5  Z " fill-rule="nonzero" fill="#ffffff" stroke="none" />
  <path d="M 165 186  C 168.08 186  170.5 188.42  170.5 191.5  C 170.5 194.58  168.08 197  165 197  C 161.92 197  159.5 194.58  159.5 191.5  C 159.5 188.42  161.92 186  165 186  Z " stroke-width="1" stroke="#0070cc" fill="none" />
  <path d="M 165 194.5  C 163.32 194.5  162 193.18  162 191.5  C 162 189.82  163.32 188.5  165 188.5  C 166.68 188.5  168 189.82  168 191.5  C 168 193.18  166.68 194.5  165 194.5  " fill-rule="nonzero" fill="#0070cc" stroke="none" />
</svg>