<?xml version="1.0" encoding="utf-8"?>
<svg version="1.1" xmlns:xlink="http://www.w3.org/1999/xlink" width="3px" height="2px" xmlns="http://www.w3.org/2000/svg">
  <g transform="matrix(1 0 0 1 -56 -21 )">
    <path d="M 2.112109375 1.0015625  C 2.112109375 1.05078125  2.069921875 1.089453125  2.02421875 1.089453125  L 1.7640625 1.089453125  C 1.71484375 1.089453125  1.676171875 1.05078125  1.676171875 1.0015625  C 1.676171875 0.952343750000001  1.71484375 0.913671875000002  1.7640625 0.913671875000002  L 2.02421875 0.913671875000002  C 2.0734375 0.913671875000002  2.112109375 0.952343750000001  2.112109375 1.0015625  Z M 1.275390625 1.0015625  C 1.275390625 1.05078125  1.233203125 1.089453125  1.1875 1.089453125  L 0.927343749999999 1.089453125  C 0.878125000000004 1.089453125  0.839453124999999 1.05078125  0.839453124999999 1.0015625  C 0.839453124999999 0.952343750000001  0.878125000000004 0.913671875000002  0.927343749999999 0.913671875000002  L 1.1875 0.913671875000002  C 1.23671875 0.913671875000002  1.275390625 0.952343750000001  1.275390625 1.0015625  Z M 1.324609375 0.850390624999999  C 1.31054687500001 0.864453124999997  1.2859375 0.871484374999998  1.26484375 0.871484374999998  C 1.240234375 0.871484374999998  1.219140625 0.860937499999999  1.2015625 0.843359374999999  L 1.01523437500001 0.642968749999998  C 0.983593750000004 0.607812499999998  0.983593750000004 0.551562499999999  1.022265625 0.519921874999998  C 1.06093750000001 0.48828125  1.11367187500001 0.48828125  1.1453125 0.526953124999999  L 1.33164062500001 0.727343749999999  C 1.36328125000001 0.762499999999999  1.36328125000001 0.818749999999998  1.324609375 0.850390624999999  Z M 1.9609375 1.497265625  C 1.943359375 1.511328125  1.922265625 1.518359375  1.901171875 1.518359375  C 1.8765625 1.518359375  1.85546875 1.5078125  1.837890625 1.490234375  L 1.6515625 1.28984375  C 1.619921875 1.2546875  1.619921875 1.1984375  1.65859375 1.166796875  C 1.69726562500001 1.13515625  1.75000000000001 1.13515625  1.781640625 1.173828125  L 1.96796875 1.37421875  C 1.999609375 1.409375  1.999609375 1.465625  1.9609375 1.497265625  Z M 1.778125 0.822265625  C 1.7640625 0.843359375000002  1.739453125 0.853906249999998  1.71484375 0.853906249999998  C 1.69375 0.853906249999998  1.67265625 0.846875000000001  1.655078125 0.829296875000001  C 1.619921875 0.797656249999999  1.61640625 0.741406250000001  1.648046875 0.706250000000001  L 1.83437499999999 0.505859375  C 1.866015625 0.470703125  1.92226562499999 0.467187499999998  1.95742187499999 0.498828124999999  C 1.99257812499999 0.530468750000001  1.99609374999999 0.586718749999999  1.964453125 0.621874999999999  L 1.778125 0.822265625  Z M 1.570703125 0.758984375000001  C 1.570703125 0.808203124999999  1.53203125 0.846875000000001  1.4828125 0.846875000000001  C 1.43359375 0.846875000000001  1.394921875 0.808203124999999  1.394921875 0.758984375000001  L 1.394921875 0.474218749999999  C 1.394921875 0.425000000000001  1.43359375 0.386328124999999  1.4828125 0.386328124999999  C 1.53203125 0.386328124999999  1.570703125 0.425000000000001  1.570703125 0.474218749999999  L 1.570703125 0.758984375000001  Z M 1.570703125 1.57109375  C 1.570703125 1.6203125  1.53203125 1.658984375  1.4828125 1.658984375  C 1.43359375 1.658984375  1.394921875 1.6203125  1.394921875 1.57109375  L 1.394921875 1.286328125  C 1.394921875 1.237109375  1.43359375 1.1984375  1.4828125 1.1984375  C 1.53203125 1.1984375  1.570703125 1.237109375  1.570703125 1.286328125  L 1.570703125 1.57109375  Z M 1.15234375 1.483203125  C 1.134765625 1.504296875  1.113671875 1.51484375  1.0890625 1.51484375  C 1.06796875 1.51484375  1.046875 1.5078125  1.029296875 1.490234375  C 0.994140625 1.45859375  0.990625000000001 1.40234375  1.022265625 1.3671875  L 1.20859375 1.166796875  C 1.24023437499999 1.131640625  1.296484375 1.128125  1.331640625 1.159765625  C 1.366796875 1.19140625  1.3703125 1.24765625  1.338671875 1.2828125  L 1.15234375 1.483203125  Z " fill-rule="nonzero" fill="#f74e00" stroke="none" transform="matrix(1 0 0 1 56 21 )" />
  </g>
</svg>