<?xml version="1.0" encoding="utf-8"?>
<svg version="1.1" xmlns:xlink="http://www.w3.org/1999/xlink" width="12px" height="12px" viewBox="233 2163.5  12 12" xmlns="http://www.w3.org/2000/svg">
  <path d="M 239 2163.5  C 242.36 2163.5  245 2166.14  245 2169.5  C 245 2172.86  242.36 2175.5  239 2175.5  C 235.64 2175.5  233 2172.86  233 2169.5  C 233 2166.14  235.64 2163.5  239 2163.5  Z " fill-rule="nonzero" fill="#ffffff" stroke="none" />
  <path d="M 239 2164  C 242.08 2164  244.5 2166.42  244.5 2169.5  C 244.5 2172.58  242.08 2175  239 2175  C 235.92 2175  233.5 2172.58  233.5 2169.5  C 233.5 2166.42  235.92 2164  239 2164  Z " stroke-width="1" stroke="#0070cc" fill="none" />
  <path d="M 239 2172.5  C 237.32 2172.5  236 2171.18  236 2169.5  C 236 2167.82  237.32 2166.5  239 2166.5  C 240.68 2166.5  242 2167.82  242 2169.5  C 242 2171.18  240.68 2172.5  239 2172.5  " fill-rule="nonzero" fill="#0070cc" stroke="none" />
</svg>