<?xml version="1.0" encoding="utf-8"?>
<svg version="1.1" xmlns:xlink="http://www.w3.org/1999/xlink" width="4px" height="4px" xmlns="http://www.w3.org/2000/svg">
  <g transform="matrix(1 0 0 1 -35 -11 )">
    <path d="M 1.5296875 3.910546875  L 1.462890625 3.910546875  C 1.202734375 3.910546875  0.97421875 3.7171875  0.9390625 3.45  C 0.935546875 3.4359375  0.935546875 3.421875  0.935546875 3.4078125  C 0.90390625 3.11953125  1.11484375 2.859375  1.403125 2.827734375  C 1.69140625 2.79609375  1.9515625 3.00703125  1.983203125 3.2953125  C 1.983203125 3.30234375  1.98671875 3.312890625  1.98671875 3.319921875  C 2.021875 3.608203125  1.81796875 3.871875  1.5296875 3.910546875  Z M 2.468359375 2.159765625  C 2.36640625 2.314453125  2.19765625 2.398828125  2.025390625 2.398828125  C 1.926953125 2.398828125  1.828515625 2.370703125  1.740625 2.314453125  C 1.49453125 2.15625  1.42421875 1.829296875  1.582421875 1.58671875  C 2.0640625 0.837890625  2.855078125 0.39140625  2.88671875 0.373828125  C 3.143359375 0.233203125  3.46328125 0.324609375000001  3.60390625 0.581250000000001  C 3.74453125 0.834375000000001  3.653125 1.154296875  3.4 1.2984375  C 3.389453125 1.301953125  2.80234375 1.639453125  2.468359375 2.159765625  Z " fill-rule="nonzero" fill="#ffffff" stroke="none" transform="matrix(1 0 0 1 35 11 )" />
  </g>
</svg>