<?xml version="1.0" encoding="utf-8"?>
<svg version="1.1" xmlns:xlink="http://www.w3.org/1999/xlink" width="20px" height="21px" xmlns="http://www.w3.org/2000/svg">
  <g transform="matrix(1 0 0 1 -64 -550 )">
    <path d="M 20 10.9979999999996  C 19.993387767332 16.5181063020173  15.5201063020185 20.991387767328  9.99999999999818 20.997999999996  C 4.47715250169413 20.997999999996  0 16.5208474983046  0 10.997999999996  C 0 5.4751525016909  4.47715250169413 0.997999999995955  9.99999999999818 0.997999999995955  C 15.5228474983059 0.997999999995955  19.9999999999964 5.4751525016909  19.9999999999964 10.997999999996  Z M 5.57000000000597 10.2609999999986  L 5.57200000000274 10.2599999999984  L 5.57200000000274 16.5219999999972  L 6.84300000000315 16.5219999999972  L 6.84300000000679 8.39699999999721  C 7.30514982590697 7.59829665124198  7.68477423766532 6.75461238927164  7.97600000000457 5.87899999999718  L 6.7960000000045 5.32399999999689  C 6.25952979525641 7.10056699904817  5.34185013781365 8.73867125927791  4.1070000000065 10.1239999999962  L 4.51900000000669 11.4349999999977  C 4.84500000000756 11.0929999999971  5.19900000000685 10.6989999999969  5.57000000000597 10.2609999999986  Z M 9.84099999999128 9.96999999999025  L 9.8430000000026 9.97099999999773  C 9.90394799253228 10.6573074655826  10.0155859988718 11.3381656060228  10.1770000000015 12.007999999998  C 10.4534587011493 13.2156699839397  10.9952215449464 14.3466767782775  11.7630000000005 15.3189999999995  C 12.187726017402 15.9609528765359  12.870589520718 16.3865107840029  13.6339999999994 16.4850000000006  C 14.0338182080606 16.468011974539  14.3968196810612 16.2466603999528  14.5949999999985 15.8990000000013  C 14.9334745153074 15.2111384008203  15.1564532980492 14.4722677980026  15.2549999999982 13.7119999999995  L 14.1629999999979 13.0789999999979  C 14.0299999999963 14.4909999999982  13.8349999999966 15.1899999999987  13.5629999999995 15.2139999999963  C 13.1979999999979 15.1909999999953  12.797 14.8619999999974  12.375999999998 14.2409999999945  C 11.8332499852564 13.3694334158681  11.4669832984598 12.3997440613966  11.2979999999968 11.3869999999952  C 11.1936902877876 10.8626322505916  11.1162558976446 10.3332747386667  11.0659999999969 9.80099999999584  L 14.8979999999947 9.27199999999721  L 14.692999999993 8.08499999999549  L 10.9699999999919 8.60099999999511  C 10.8979999999918 7.64999999999418  10.8609999999915 6.55999999999403  10.8609999999915 5.36299999999392  L 9.58999999999113 5.36299999999392  C 9.61299999999217 6.58799999999246  9.66199999999123 7.73599999999351  9.73599999999174 8.76899999999296  L 7.18099999999191 9.12999999999374  L 7.36999999999036 10.317999999992  L 9.84099999999128 9.96999999999025  Z M 12.1270000000018 5.40799999999945  L 12.1260000000016 5.40999999999622  L 11.3329999999967 6.17799999999261  C 11.9849999116792 6.7226774008559  12.5733957719726 7.33925185423141  13.0870000000008 8.01599999999598  L 13.9389999999996 7.17599999999584  C 13.386723986406 6.5358833293576  12.7804967617498 5.94437685408775  12.1270000000018 5.40799999999945  Z " fill-rule="nonzero" fill="#0070cc" stroke="none" transform="matrix(1 0 0 1 64 550 )" />
  </g>
</svg>