<?xml version="1.0" encoding="utf-8"?>
<svg version="1.1" xmlns:xlink="http://www.w3.org/1999/xlink" width="14px" height="16px" xmlns="http://www.w3.org/2000/svg">
  <g transform="matrix(1 0 0 1 -922 -153 )">
    <path d="M 13.1369999999999 8.73399999999998  L 13.136 8.72899999999998  L 13.0059999999999 8.65300000000002  C 12.7886541095629 8.5281633775503  12.6546416498354 8.29664600215153  12.6546416498354 8.04599999999999  C 12.6546416498354 7.79535399784845  12.7886541095629 7.56383662244968  13.0059999999999 7.43899999999996  L 13.136 7.36500000000001  C 13.6701863644073 7.05672271953205  13.9992841216581 6.48683376465834  13.9992841216581 5.87007615135195  C 13.9992841216581 5.56707005105625  13.9195164188177 5.2694032614985  13.768 5.00700000000001  L 13.21 4.03999999999996  C 12.901722719532 3.50581363559269  12.3318337646583 3.17671587834195  11.7150761513519 3.17671587834195  C 11.4120700510562 3.17671587834195  11.1144032614984 3.25648358118224  10.8519999999999 3.40800000000002  L 10.722 3.48199999999997  C 10.6151117358195 3.5441841423056  10.4936580030737 3.57694289378134  10.369997303683 3.57694289378134  C 9.98339797880158 3.57694289378134  9.6699973036832 3.26354221866291  9.6699973036832 2.87694289378135  C 9.6699973036832 2.87629526158162  9.66999820245633 2.87564762970504  9.66999999999985 2.875  L 9.66999999999985 2.72499999999997  C 9.66889787302989 1.77166112616646  8.89633887383343 0.999102126970001  7.94299999999998 0.99799999999999  L 6.82799999999997 0.99799999999999  C 5.87466112616653 0.999102126970001  5.10210212697007 1.77166112616646  5.10099999999989 2.72499999999997  L 5.10099999999989 2.875  C 5.1039707169698 3.09806396340315  4.99797552825157 3.30856145085733  4.81700000000001 3.43899999999996  C 4.59247929940238 3.60756054610329  4.28897017826898 3.62566874269498  4.04599999999982 3.48500000000001  L 3.90699999999993 3.40300000000002  C 3.86599999999999 3.37900000000002  3.8309999999999 3.35899999999998  3.78700000000003 3.33799999999997  C 2.97711000863774 2.95631966368182  2.00987806610578 3.26102819643273  1.56500000000005 4.03800000000001  L 1.00399999999991 5.00400000000002  C 0.852483581182241 5.26640326149851  0.772715878341842 5.56407005105621  0.772715878341842 5.86707615135197  C 0.772715878341842 6.48383376465836  1.10181363559263 7.053722719532  1.63599999999997 7.36199999999997  L 1.76599999999985 7.43799999999999  C 1.98334589043702 7.56283662244965  2.11735835016452 7.79435399784842  2.11735835016452 8.04499999999996  C 2.11735835016452 8.29564600215156  1.98334589043702 8.52716337755032  1.76599999999985 8.65199999999999  L 1.63599999999997 8.726  C 1.10181363559263 9.03427728046796  0.772715878341842 9.60416623534161  0.772715878341842 10.2209238486481  C 0.772715878341842 10.5239299489438  0.852483581182241 10.8215967385015  1.00399999999991 11.084  L 1.5619999999999 12.051  C 1.87027728046792 12.5851863644073  2.44016623534162 12.9142841216581  3.05692384864801 12.9142841216581  C 3.35992994894377 12.9142841216581  3.65759673850153 12.8345164188177  3.91999999999985 12.683  L 4.04999999999995 12.609  C 4.15688826418022 12.5468158576944  4.2783419969262 12.5140571062187  4.40200269631669 12.5140571062187  C 4.78860202119836 12.5140571062187  5.10200269631673 12.8274577813371  5.10200269631673 13.2140571062187  C 5.10200269631673 13.2147047384183  5.10200179754361 13.2153523702949  5.10199999999986 13.216  L 5.10199999999986 13.366  C 5.09978691805327 14.320122681761  5.87088048771307 15.0956915478205  6.82500000000005 15.099  L 7.94100000000003 15.099  C 8.89433887383348 15.09789787303  9.66689787302994 14.3253388738335  9.66799999999989 13.372  L 9.66799999999989 13.222  C 9.66799820245637 13.2213523703024  9.66799730368302 13.2207047384109  9.66799730368302 13.2200571062186  C 9.66799730368302 12.8334577813371  9.98139797880162 12.5200571062186  10.3679973036831 12.5200571062186  C 10.4916580030738 12.5200571062186  10.6131117358195 12.5528158576944  10.72 12.615  L 10.8499999999999 12.691  C 11.1124032614985 12.8425164188177  11.4100700510562 12.922284121658  11.713076151352 12.922284121658  C 12.3298337646584 12.922284121658  12.8997227195321 12.5931863644073  13.2079999999999 12.059  L 13.7660000000001 11.092  C 14.2414777189285 10.266901773317  13.960256854697 9.21265885144516  13.1369999999999 8.73399999999998  Z M 10.184 8.05000000000001  C 10.184 9.59639729952619  8.93039729952625 10.85  7.38400000000001 10.85  C 5.83760270047378 10.85  4.58399999999983 9.59639729952619  4.58399999999983 8.04999999999995  C 4.58399999999983 6.50360270047378  5.83760270047378 5.25  7.38400000000001 5.25  C 8.93039729952625 5.25  10.184 6.50360270047378  10.184 8.04999999999995  Z " fill-rule="nonzero" fill="#999999" stroke="none" transform="matrix(1 0 0 1 922 153 )" />
  </g>
</svg>