<?xml version="1.0" encoding="utf-8"?>
<svg version="1.1" xmlns:xlink="http://www.w3.org/1999/xlink" width="12px" height="12px" viewBox="16 27.5  12 12" xmlns="http://www.w3.org/2000/svg">
  <path d="M 16.5 28.5  A 0.5 0.5 0 0 1 17 28 L 27 28  A 0.5 0.5 0 0 1 27.5 28.5 L 27.5 38.5  A 0.5 0.5 0 0 1 27 39 L 17 39  A 0.5 0.5 0 0 1 16.5 38.5 L 16.5 28.5  Z " fill-rule="nonzero" fill="#ffffff" stroke="none" />
  <path d="M 16.5 28.5  A 0.5 0.5 0 0 1 17 28 L 27 28  A 0.5 0.5 0 0 1 27.5 28.5 L 27.5 38.5  A 0.5 0.5 0 0 1 27 39 L 17 39  A 0.5 0.5 0 0 1 16.5 38.5 L 16.5 28.5  Z " stroke-width="1" stroke="#999999" fill="none" />
</svg>