<?xml version="1.0" encoding="utf-8"?>
<svg version="1.1" xmlns:xlink="http://www.w3.org/1999/xlink" width="12px" height="12px" viewBox="116 127.5  12 12" xmlns="http://www.w3.org/2000/svg">
  <path d="M 116.5 128.5  A 0.5 0.5 0 0 1 117 128 L 127 128  A 0.5 0.5 0 0 1 127.5 128.5 L 127.5 138.5  A 0.5 0.5 0 0 1 127 139 L 117 139  A 0.5 0.5 0 0 1 116.5 138.5 L 116.5 128.5  Z " fill-rule="nonzero" fill="#ffffff" stroke="none" />
  <path d="M 116.5 128.5  A 0.5 0.5 0 0 1 117 128 L 127 128  A 0.5 0.5 0 0 1 127.5 128.5 L 127.5 138.5  A 0.5 0.5 0 0 1 127 139 L 117 139  A 0.5 0.5 0 0 1 116.5 138.5 L 116.5 128.5  Z " stroke-width="1" stroke="#0070cc" fill="none" />
  <path d="M 118.571428571429 133.5  L 121.142857142857 136.071428571429  " stroke-width="2.57142857142857" stroke="#0070cc" fill="none" />
  <path d="M 121.142857142857 136.071428571429  L 125.428571428571 130.071428571429  " stroke-width="2.57142857142857" stroke="#0070cc" fill="none" />
</svg>