<?xml version="1.0" encoding="utf-8"?>
<svg version="1.1" xmlns:xlink="http://www.w3.org/1999/xlink" width="12px" height="12px" viewBox="127 27.5  12 12" xmlns="http://www.w3.org/2000/svg">
  <path d="M 127.5 28.5  A 0.5 0.5 0 0 1 128 28 L 138 28  A 0.5 0.5 0 0 1 138.5 28.5 L 138.5 38.5  A 0.5 0.5 0 0 1 138 39 L 128 39  A 0.5 0.5 0 0 1 127.5 38.5 L 127.5 28.5  Z " fill-rule="nonzero" fill="#ffffff" stroke="none" />
  <path d="M 127.5 28.5  A 0.5 0.5 0 0 1 128 28 L 138 28  A 0.5 0.5 0 0 1 138.5 28.5 L 138.5 38.5  A 0.5 0.5 0 0 1 138 39 L 128 39  A 0.5 0.5 0 0 1 127.5 38.5 L 127.5 28.5  Z " stroke-width="1" stroke="#0070cc" fill="none" />
  <path d="M 129.571428571429 33.5  L 132.142857142857 36.0714285714286  " stroke-width="2.57142857142857" stroke="#0070cc" fill="none" />
  <path d="M 132.142857142857 36.0714285714286  L 136.428571428571 30.0714285714286  " stroke-width="2.57142857142857" stroke="#0070cc" fill="none" />
</svg>