<?xml version="1.0" encoding="utf-8"?>
<svg version="1.1" xmlns:xlink="http://www.w3.org/1999/xlink" width="12px" height="12px" viewBox="97 102.5  12 12" xmlns="http://www.w3.org/2000/svg">
  <path d="M 97.5 103.5  A 0.5 0.5 0 0 1 98 103 L 108 103  A 0.5 0.5 0 0 1 108.5 103.5 L 108.5 113.5  A 0.5 0.5 0 0 1 108 114 L 98 114  A 0.5 0.5 0 0 1 97.5 113.5 L 97.5 103.5  Z " fill-rule="nonzero" fill="#ffffff" stroke="none" />
  <path d="M 97.5 103.5  A 0.5 0.5 0 0 1 98 103 L 108 103  A 0.5 0.5 0 0 1 108.5 103.5 L 108.5 113.5  A 0.5 0.5 0 0 1 108 114 L 98 114  A 0.5 0.5 0 0 1 97.5 113.5 L 97.5 103.5  Z " stroke-width="1" stroke="#999999" fill="none" />
</svg>