<?xml version="1.0" encoding="utf-8"?>
<svg version="1.1" xmlns:xlink="http://www.w3.org/1999/xlink" width="12px" height="12px" viewBox="16 127.5  12 12" xmlns="http://www.w3.org/2000/svg">
  <path d="M 16.5 128.5  A 0.5 0.5 0 0 1 17 128 L 27 128  A 0.5 0.5 0 0 1 27.5 128.5 L 27.5 138.5  A 0.5 0.5 0 0 1 27 139 L 17 139  A 0.5 0.5 0 0 1 16.5 138.5 L 16.5 128.5  Z " fill-rule="nonzero" fill="#ffffff" stroke="none" />
  <path d="M 16.5 128.5  A 0.5 0.5 0 0 1 17 128 L 27 128  A 0.5 0.5 0 0 1 27.5 128.5 L 27.5 138.5  A 0.5 0.5 0 0 1 27 139 L 17 139  A 0.5 0.5 0 0 1 16.5 138.5 L 16.5 128.5  Z " stroke-width="1" stroke="#0070cc" fill="none" />
  <path d="M 18.5714285714286 133.5  L 21.1428571428571 136.071428571429  " stroke-width="2.57142857142857" stroke="#0070cc" fill="none" />
  <path d="M 21.1428571428571 136.071428571429  L 25.4285714285714 130.071428571429  " stroke-width="2.57142857142857" stroke="#0070cc" fill="none" />
</svg>