<?xml version="1.0" encoding="utf-8"?>
<svg version="1.1" xmlns:xlink="http://www.w3.org/1999/xlink" width="12px" height="12px" viewBox="206 102.5  12 12" xmlns="http://www.w3.org/2000/svg">
  <path d="M 206.5 103.5  A 0.5 0.5 0 0 1 207 103 L 217 103  A 0.5 0.5 0 0 1 217.5 103.5 L 217.5 113.5  A 0.5 0.5 0 0 1 217 114 L 207 114  A 0.5 0.5 0 0 1 206.5 113.5 L 206.5 103.5  Z " fill-rule="nonzero" fill="#ffffff" stroke="none" />
  <path d="M 206.5 103.5  A 0.5 0.5 0 0 1 207 103 L 217 103  A 0.5 0.5 0 0 1 217.5 103.5 L 217.5 113.5  A 0.5 0.5 0 0 1 217 114 L 207 114  A 0.5 0.5 0 0 1 206.5 113.5 L 206.5 103.5  Z " stroke-width="1" stroke="#999999" fill="none" />
</svg>