<?xml version="1.0" encoding="utf-8"?>
<svg version="1.1" xmlns:xlink="http://www.w3.org/1999/xlink" width="12px" height="12px" viewBox="21 193  12 12" xmlns="http://www.w3.org/2000/svg">
  <path d="M 21.5 194  A 0.5 0.5 0 0 1 22 193.5 L 32 193.5  A 0.5 0.5 0 0 1 32.5 194 L 32.5 204  A 0.5 0.5 0 0 1 32 204.5 L 22 204.5  A 0.5 0.5 0 0 1 21.5 204 L 21.5 194  Z " fill-rule="nonzero" fill="#ffffff" stroke="none" />
  <path d="M 21.5 194  A 0.5 0.5 0 0 1 22 193.5 L 32 193.5  A 0.5 0.5 0 0 1 32.5 194 L 32.5 204  A 0.5 0.5 0 0 1 32 204.5 L 22 204.5  A 0.5 0.5 0 0 1 21.5 204 L 21.5 194  Z " stroke-width="1" stroke="#0070cc" fill="none" />
  <path d="M 23.5714285714286 199  L 26.1428571428571 201.571428571429  " stroke-width="2.57142857142857" stroke="#0070cc" fill="none" />
  <path d="M 26.1428571428571 201.571428571429  L 30.4285714285714 195.571428571429  " stroke-width="2.57142857142857" stroke="#0070cc" fill="none" />
</svg>