<?xml version="1.0" encoding="utf-8"?>
<svg version="1.1" xmlns:xlink="http://www.w3.org/1999/xlink" width="12px" height="14px" xmlns="http://www.w3.org/2000/svg">
  <g transform="matrix(1 0 0 1 -538 -162 )">
    <path d="M 11.25 3.0625  C 11.25 3.30421875  11.05421875 3.5  10.8125 3.5  L 1.1875 3.5  C 0.94578125 3.5  0.75 3.30421875  0.75 3.0625  C 0.75 2.82078125  0.94578125 2.625  1.1875 2.625  L 10.8125 2.625  C 11.05421875 2.625  11.25 2.82078125  11.25 3.0625  Z M 7.75 1.3125  C 7.75 1.55421875  7.55421875 1.75  7.3125 1.75  L 4.6875 1.75  C 4.44578125 1.75  4.25 1.55421875  4.25 1.3125  C 4.25 1.07078125  4.44578125 0.875  4.6875 0.875  L 7.3125 0.875  C 7.55421875 0.875  7.75 1.07078125  7.75 1.3125  Z M 1.625 4.8125  C 1.625 4.57078125  1.82078125 4.375  2.0625 4.375  C 2.30421875 4.375  2.5 4.57078125  2.5 4.8125  L 2.5 11.375  C 2.5 11.85821875  2.89178125 12.25  3.375 12.25  L 4.25 12.25  L 4.25 4.8125  C 4.25 4.57078125  4.44578125 4.375  4.6875 4.375  C 4.92921875 4.375  5.125 4.57078125  5.125 4.8125  L 5.125 12.25  L 6.875 12.25  L 6.875 4.8125  C 6.875 4.57078125  7.07078125 4.375  7.3125 4.375  C 7.55421875 4.375  7.75 4.57078125  7.75 4.8125  L 7.75 12.25  L 8.625 12.25  C 9.10821875 12.25  9.5 11.85821875  9.5 11.375  L 9.5 4.8125  C 9.5 4.57078125  9.69578125 4.375  9.9375 4.375  C 10.17921875 4.375  10.375 4.57078125  10.375 4.8125  L 10.375 11.375  C 10.375 12.3414375  9.5914375 13.125  8.625 13.125  L 3.375 13.125  C 2.4085625 13.125  1.625 12.3414375  1.625 11.375  L 1.625 4.8125  Z " fill-rule="nonzero" fill="#0070cc" stroke="none" transform="matrix(1 0 0 1 538 162 )" />
  </g>
</svg>