<?xml version="1.0" encoding="utf-8"?>
<svg version="1.1" xmlns:xlink="http://www.w3.org/1999/xlink" width="12px" height="12px" viewBox="21 134  12 12" xmlns="http://www.w3.org/2000/svg">
  <path d="M 21.5 135  A 0.5 0.5 0 0 1 22 134.5 L 32 134.5  A 0.5 0.5 0 0 1 32.5 135 L 32.5 145  A 0.5 0.5 0 0 1 32 145.5 L 22 145.5  A 0.5 0.5 0 0 1 21.5 145 L 21.5 135  Z " fill-rule="nonzero" fill="#ffffff" stroke="none" />
  <path d="M 21.5 135  A 0.5 0.5 0 0 1 22 134.5 L 32 134.5  A 0.5 0.5 0 0 1 32.5 135 L 32.5 145  A 0.5 0.5 0 0 1 32 145.5 L 22 145.5  A 0.5 0.5 0 0 1 21.5 145 L 21.5 135  Z " stroke-width="1" stroke="#0070cc" fill="none" />
  <path d="M 23.5714285714286 140  L 26.1428571428571 142.571428571429  " stroke-width="2.57142857142857" stroke="#0070cc" fill="none" />
  <path d="M 26.1428571428571 142.571428571429  L 30.4285714285714 136.571428571429  " stroke-width="2.57142857142857" stroke="#0070cc" fill="none" />
</svg>