<?xml version="1.0" encoding="utf-8"?>
<svg version="1.1" xmlns:xlink="http://www.w3.org/1999/xlink" width="6px" height="8px" xmlns="http://www.w3.org/2000/svg">
  <g transform="matrix(1 0 0 1 -261 -119 )">
    <path d="M 3.44291666015625 1.18708333984375  C 3.44291666015625 0.795000019531251  3.73875 0.4829166796875  3.90166666015625 0.209999999999999  C 4.07041666015625 0.489166660156251  4.33541666015625 0.79791666015625  4.33541666015625 1.19  C 4.33541666015625 1.58208333984375  4.0175 1.62833333984375  3.90166666015625 1.63  C 3.7858333203125 1.63166666015625  3.44291666015625 1.57916666015625  3.44291666015625 1.18708333984375  Z M 2.50541666015625 3.15708333984375  C 2.50541666015625 2.76500001953125  2.80041666015625 2.45333333984375  2.96375 2.18  C 3.13208333984375 2.45916666015625  3.3975 2.76791666015625  3.3975 3.16  C 3.3975 3.55208333984375  3.07958333984375 3.59833333984375  2.96375 3.6  C 2.8475 3.60166666015625  2.50541666015625 3.54916666015625  2.50541666015625 3.15708333984375  Z M 1.47791666015625 5.54541666015625  C 1.477916640625 5.1533333203125  1.77291666015625 4.84166666015625  1.93583333984375 4.56833333984375  C 2.105 4.8475  2.37 5.15625  2.37 5.54833333984375  C 2.37 5.9404166796875  2.05166666015625 5.9866666796875  1.93583333984375 5.98833333984375  C 1.82 5.99  1.4779166796875 5.9375  1.47791666015625 5.54541666015625  Z M 0.444999999999999 7.30666666015625  C 0.445416660156249 6.9145833203125  0.741249999999999 6.60291666015625  0.90333333984375 6.32958333984375  C 1.0725 6.60875  1.33708333984375 6.9175  1.33708333984375 7.30958333984375  C 1.33708333984375 7.7016666796875  1.0191666796875 7.7479166796875  0.90333333984375 7.74958333984375  C 0.7875 7.75083333984375  0.444999999999999 7.69875  0.444999999999999 7.30666666015625  Z M 3.44291666015625 5.55583333984375  C 3.44291666015625 5.16333333984375  3.73875 4.8516666796875  3.90166666015625 4.57875  C 4.07041666015625 4.85791666015625  4.33541666015625 5.16666666015625  4.33541666015625 5.55875  C 4.33541666015625 5.95083333984375  4.0175 5.99708333984375  3.90166666015625 5.99875  C 3.7858333203125 6  3.44291666015625 5.94791666015625  3.44291666015625 5.55583333984375  Z M 4.5025 3.15708333984375  C 4.5025 2.76500001953125  4.79833333984375 2.45333333984375  4.96125 2.18  C 5.12958333984375 2.45916666015625  5.39541666015625 2.76791666015625  5.39541666015625 3.16  C 5.39541666015625 3.55208333984375  5.0770833203125 3.59833333984375  4.96125 3.6  C 4.84541666015625 3.60166666015625  4.5025 3.54916666015625  4.5025 3.15708333984375  Z " fill-rule="nonzero" fill="#ff637d" stroke="none" transform="matrix(1 0 0 1 261 119 )" />
  </g>
</svg>