<?xml version="1.0" encoding="utf-8"?>
<svg version="1.1" xmlns:xlink="http://www.w3.org/1999/xlink" width="6px" height="4px" xmlns="http://www.w3.org/2000/svg">
  <g transform="matrix(1 0 0 1 -257 -115 )">
    <path d="M 4.87875 3.24  L 4.87708333984375 3.24  L 4.86 3.23958333984375  C 4.53180501114201 3.21858724266405  4.2030323418902 3.20788753830975  3.87416666015625 3.2075  C 3.59416666015625 3.2075  3.32666666015625 3.215  3.01625 3.22416666015625  C 2.84041666015625 3.2295833203125  2.65 3.235  2.43458333984375 3.24  C 2.3386938027775 3.24252062229746  2.24822542947347 3.19563440821323  2.195 3.11583333984375  C 1.62666666015625 2.27375  1.10458333984375 1.44125  0.95875 0.52  C 0.95648908416277 0.505562482964342  0.95535349873542 0.490971102711487  0.95535349873542 0.476357628156202  C 0.95535349873542 0.320567301379162  1.08164651180213 0.194274288312451  1.23743683857917 0.194274288312451  C 1.32003821362563 0.194274288312451  1.39848904430725 0.230479233808323  1.45208333984375 0.29333333984375  C 1.8554166796875 0.7666666796875  2.475 1.0941666796875  3.13125 1.44083333984375  C 3.80958333984375 1.7991666796875  4.51125 2.16958333984375  5.0625 2.74375  C 5.12460030834033 2.79741196208208  5.16029348891318 2.87542814936545  5.16029348891318 2.9575016193205  C 5.16029348891318 3.11314865045532  5.03439613894923 3.23947299783748  4.87875 3.24  Z M 2.86833333984375 1.93875  C 2.50333333984375 1.74625  2.13125 1.54958333984375  1.79166666015625 1.32208333984375  C 1.97541666015625 1.7316666796875  2.23875 2.1654166796875  2.57708333984375 2.67208333984375  L 3 2.66  C 3.31458333984375 2.65083333984375  3.58625 2.6425  3.87458333984375 2.6425  C 3.94208333984375 2.6425  4.0091666796875 2.64333333984375  4.07666666015625 2.64375  C 3.69916666015625 2.3775  3.27916666015625 2.15583333984375  2.86833333984375 1.93875  Z " fill-rule="nonzero" fill="#231815" stroke="none" transform="matrix(1 0 0 1 257 115 )" />
  </g>
</svg>