<?xml version="1.0" encoding="utf-8"?>
<svg version="1.1" xmlns:xlink="http://www.w3.org/1999/xlink" width="5px" height="9px" xmlns="http://www.w3.org/2000/svg">
  <g transform="matrix(1 0 0 1 -258 -114 )">
    <path d="M 3.93519032465694 4.29667034278713  C 3.93471021408401 4.29667034278713  3.93423010429576 4.29666911523949  3.93375 4.29666666015625  C 3.85544992158974 4.2967777518926  3.78066956674334 4.26414632432326  3.7275 4.20666666015625  C 3.24791666015625 3.6920833203125  2.74708333984375 3.4170833203125  2.14166666015625 3.11083333984375  C 2.02604337517176 3.05254961989378  1.96515311233956 2.92285679481384  1.99416666015625 2.79666666015625  C 2.15875 2.07166666015625  2.57625 1.68916666015625  2.94416666015625 1.35166666015625  C 3.25541666015625 1.06625  3.5245833203125 0.82  3.66541666015625 0.38833333984375  C 3.70634674520322 0.27729948886832  3.8121432691022 0.203543187609925  3.93048087058367 0.203543187609925  C 4.08650131241087 0.203543187609925  4.21298087058367 0.330022745782726  4.21298087058367 0.486043187609926  C 4.21298087058367 0.512326280089662  4.20931298705208 0.538480786487477  4.20208333984375 0.563750000000001  C 4.015 1.13541666015625  3.64875 1.47125  3.32541666015625 1.76708333984375  C 3.02125 2.04625  2.7520833203125 2.2929166796875  2.60458333984375 2.71291666015625  C 3.07875 2.95791666015625  3.63083333984375 3.2745833203125  4.14041666015625 3.82208333984375  C 4.18951985386018 3.87431872549352  4.21685698481319 3.94331226650659  4.21685698481319 4.01500368263088  C 4.21685698481319 4.17056388357095  4.09075052559701 4.29667034278713  3.93519032465694 4.29667034278713  Z M 2.83625 6.67083333984375  C 2.64208333984375 6.67083333984375  2.31291666015625 6.5625  2.31291666015625 6.15708333984375  C 2.31291666015625 5.83458333984375  2.49416666015625 5.5704166796875  2.65333333984375 5.33791666015625  C 2.7 5.27  2.7441666796875 5.2058333203125  2.78083333984375 5.14416666015625  L 2.84083333984375 5.04333333984375  L 2.90166666015625 5.14416666015625  C 2.93375 5.1975  2.97 5.2520833203125  3.00666666015625 5.30791666015625  C 3.1658333203125 5.5495833203125  3.34625 5.8233333203125  3.34625 6.16041666015625  C 3.34625 6.5320833203125  3.08583333984375 6.6675  2.8425 6.67125  L 2.83625 6.67125  Z M 2.88875 5.38416666015625  C 2.87282101003472 5.36020205730426  2.85698755106485 5.33617409320783  2.84125 5.31208333984375  C 2.81833333984375 5.34625  2.795 5.38125  2.77 5.41708333984375  C 2.62208333984375 5.6329166796875  2.45375 5.8775  2.45375 6.15666666015625  C 2.45375 6.51125  2.7725 6.52916666015625  2.83625 6.52916666015625  L 2.83625 6.59958333984375  L 2.84083333984375 6.52875  C 2.9504166796875 6.5275  3.20458333984375 6.48833333984375  3.20458333984375 6.15916666015625  C 3.20458333984375 5.86416666015625  3.0441666796875 5.62041666015625  2.88875 5.38416666015625  Z M 0.83666666015625 6.64041666015625  C 0.6420833203125 6.64041666015625  0.3125 6.5325  0.3125 6.12708333984375  C 0.3125 5.80458333984375  0.493333339843749 5.54083333984375  0.65333333984375 5.30791666015625  C 0.69958333984375 5.2395833203125  0.743749999999999 5.1758333203125  0.780833339843751 5.11416666015625  L 0.84041666015625 5.01333333984375  L 0.90125 5.11375  C 0.933333339843751 5.16708333984375  0.96958333984375 5.22166666015625  1.00666666015625 5.2775  C 1.16541666015625 5.51916666015625  1.34541666015625 5.79291666015625  1.34541666015625 6.13041666015625  C 1.34541666015625 6.50166666015625  1.08541666015625 6.6375  0.84208333984375 6.64083333984375  L 0.83666666015625 6.64083333984375  Z M 0.88833333984375 5.355  L 0.84125 5.2825  C 0.81833333984375 5.31708333984375  0.794583339843749 5.35166666015625  0.76958333984375 5.38791666015625  C 0.6216666796875 5.60375  0.45375 5.8483333203125  0.45375 6.12708333984375  C 0.45375 6.4816666796875  0.7725 6.49958333984375  0.83666666015625 6.49958333984375  L 0.83666666015625 6.57  L 0.84041666015625 6.49958333984375  C 0.949999999999999 6.49833333984375  1.2045833203125 6.4591666796875  1.20458333984375 6.13041666015625  C 1.20458333984375 5.83541666015625  1.04375 5.59125  0.88833333984375 5.355  Z M 1.90416666015625 8.64083333984375  L 1.89833333984375 8.64083333984375  C 1.7041666796875 8.64083333984375  1.375 8.5329166796875  1.375 8.1275  C 1.375 7.80458333984375  1.55625 7.54041666015625  1.71583333984375 7.30791666015625  C 1.76208333984375 7.24  1.80583333984375 7.17625  1.84291666015625 7.11458333984375  L 1.90291666015625 7.01333333984375  L 1.96375 7.11375  C 1.99583333984375 7.16708333984375  2.03166666015625 7.22125  2.06833333984375 7.2775  C 2.2275 7.51916666015625  2.4075 7.79291666015625  2.4075 8.13041666015625  C 2.4075 8.5020833203125  2.1475 8.6375  1.90416666015625 8.64083333984375  Z M 1.95083333984375 7.355  C 1.93489000382182 7.33099588257823  1.9191947220825 7.30682792996745  1.90375 7.2825  L 1.83208333984375 7.3875  C 1.68333333984375 7.60375  1.51583333984375 7.84791666015625  1.51583333984375 8.1275  C 1.51583333984375 8.48208333984375  1.835 8.5  1.89833333984375 8.5  L 1.89833333984375 8.57041666015625  L 1.90291666015625 8.5  C 2.0120833203125 8.49833333984375  2.26666666015625 8.45958333984375  2.26666666015625 8.13041666015625  C 2.26666666015625 7.83541666015625  2.10625 7.59125  1.95083333984375 7.355  Z " fill-rule="nonzero" fill="#231815" stroke="none" transform="matrix(1 0 0 1 258 114 )" />
  </g>
</svg>