<?xml version="1.0" encoding="utf-8"?>
<svg version="1.1" xmlns:xlink="http://www.w3.org/1999/xlink" width="4px" height="6px" xmlns="http://www.w3.org/2000/svg">
  <g transform="matrix(1 0 0 1 -260 -119 )">
    <path d="M 2.44291666015625 1.15708333984375  C 2.44291666015625 0.765000000000001  2.7383333203125 0.45333333984375  2.90166666015625 0.18  C 3.07 0.458749999999998  3.335 0.767916660156249  3.335 1.16  C 3.335 1.55208333984375  3.01708333984375 1.59833333984375  2.90166666015625 1.6  C 2.78541666015625 1.60166666015625  2.44291666015625 1.54875  2.44291666015625 1.15708333984375  Z M 1.445 3.15708333984375  C 1.44541666015625 2.765  1.74125 2.45333333984375  1.90333333984375 2.18  C 2.0725 2.45916666015625  2.33708333984375 2.76791666015625  2.33708333984375 3.16  C 2.33708333984375 3.55208333984375  2.0191666796875 3.59833333984375  1.90333333984375 3.6  C 1.7875 3.60166666015625  1.445 3.54916666015625  1.445 3.15708333984375  Z M 0.4175 5.54541666015625  C 0.417916660156251 5.1533333203125  0.71333333984375 4.84166666015625  0.876250000000001 4.56833333984375  C 1.04458333984375 4.8475  1.30958333984375 5.15625  1.30958333984375 5.54833333984375  C 1.30958333984375 5.9404166796875  0.992083339843751 5.9866666796875  0.876250000000001 5.98833333984375  C 0.76 5.99  0.4175 5.9375  0.4175 5.54541666015625  Z " fill-rule="nonzero" fill="#ff637d" stroke="none" transform="matrix(1 0 0 1 260 119 )" />
  </g>
</svg>