<?xml version="1.0" encoding="utf-8"?>
<svg version="1.1" xmlns:xlink="http://www.w3.org/1999/xlink" width="14px" height="3px" xmlns="http://www.w3.org/2000/svg">
  <g transform="matrix(1 0 0 1 -699 -119 )">
    <path d="M 7.95208333984375 2.03583333984375  C 7.75708333984375 2.18875  7.49083333984375 2.3979166796875  7.0175 2.39791666015625  L 6.99166666015625 2.3975  C 6.5508333203125 2.38875  6.27791666015625 2.20041666015625  6.05791666015625 2.04958333984375  C 5.8483333203125 1.905  5.68166666015625 1.7904166796875  5.32708333984375 1.79041666015625  L 5.31416666015625 1.79041666015625  C 4.9745833203125 1.7933333203125  4.84541666015625 1.8945833203125  4.66666666015625 2.03541666015625  C 4.4683333203125 2.19125  4.195 2.4058333203125  3.70958333984375 2.3975  L 3.70625 2.3975  C 3.26541666015625 2.38875  2.99208333984375 2.20041666015625  2.7725 2.04958333984375  C 2.5625 1.905  2.39625 1.7904166796875  2.04166666015625 1.79041666015625  L 2.02875 1.79041666015625  C 1.68958333984375 1.7933333203125  1.56 1.8945833203125  1.38125 2.03541666015625  C 1.18291666015625 2.19125  0.914166660156249 2.4020833203125  0.42291666015625 2.3975  C 0.191624568808345 2.39433504374239  0.00578656807437472 2.20593667378901  0.00578656807437472 1.97462292912995  C 0.00578656807437472 1.97252631241553  0.00580215909523174 1.97042972468631  0.00583333984375045 1.96833333984375  C 0.0112844079763796 1.73563100128439  0.202238202912279 1.55023895876016  0.435 1.55166666015625  C 0.62541666015625 1.555  0.69708333984375 1.4970833203125  0.85791666015625 1.37  C 1.08416666015625 1.1925  1.3933333203125 0.949166660156251  2.02208333984375 0.944583339843751  L 2.04083333984375 0.944166660156251  C 2.65958333984375 0.944166660156251  3.0016666796875 1.18  3.25208333984375 1.3525  C 3.44333333984375 1.48416666015625  3.54333333984375 1.54791666015625  3.72166666015625 1.55208333984375  C 3.91041666015625 1.5516666796875  3.98291666015625 1.49708333984375  4.14375 1.37041666015625  C 4.36958333984375 1.1925  4.67916666015625 0.949166660156251  5.30791666015625 0.944583339843751  L 5.32666666015625 0.944166660156251  C 5.94541666015625 0.944166660156251  6.28791666015625 1.18  6.53833333984375 1.35291666015625  C 6.7291666796875 1.48416666015625  6.82958333984375 1.54791666015625  7.0075 1.55208333984375  C 7.19625 1.55458333984375  7.26916666015625 1.49708333984375  7.42958333984375 1.37  C 7.65583333984375 1.1925  7.965 0.94916666015625  8.59375 0.944583339843749  L 8.6125 0.944166660156249  C 9.23125 0.944166660156249  9.57333333984375 1.18  9.82416666015625 1.3525  C 10.015 1.48416666015625  10.1154166601562 1.54791666015625  10.2933333398437 1.55208333984375  C 10.4791666796875 1.5516666796875  10.5545833398437 1.49708333984375  10.7154166601563 1.37041666015625  C 10.94125 1.1925  11.2508333203125 0.94916666015625  11.8795833398437 0.944583339843749  L 11.8983333398438 0.944166660156249  C 12.5170833398437 0.944166660156249  12.8591666796875 1.18  13.11 1.35291666015625  C 13.3020833398437 1.4845833203125  13.4016666601562 1.54791666015625  13.5804166601562 1.55208333984375  C 13.8123616076637 1.55436850820497  13.9991871850459 1.74304379579613  13.9991871850459 1.975  C 13.9991871850459 2.20858175743723  13.8098317574372 2.39793718504593  13.57625 2.39793718504593  C 13.574861088005 2.39793718504593  13.5734721844356 2.39793034333303  13.5720833398438 2.39791666015625  L 13.5633333398438 2.39791666015625  C 13.1225 2.38916666015625  12.8495833398438 2.2008333203125  12.6295833398438 2.05  C 12.4195833398438 1.90541666015625  12.25375 1.79083333984375  11.89875 1.79083333984375  L 11.8858333398437 1.79083333984375  C 11.54625 1.79375  11.4166666796875 1.895  11.2379166601563 2.03583333984375  C 11.0395833203125 2.1916666796875  10.76875 2.40625  10.2808333398438 2.39791666015625  L 10.2775 2.39791666015625  C 9.83666666015625 2.38916666015625  9.56333333984375 2.2008333203125  9.34375 2.05  C 9.13375 1.90541666015625  8.9675 1.79083333984375  8.6125 1.79083333984375  L 8.59958333984375 1.79083333984375  C 8.26 1.79375  8.13083333984375 1.895  7.95208333984375 2.03583333984375  Z " fill-rule="nonzero" fill="#231815" stroke="none" transform="matrix(1 0 0 1 699 119 )" />
  </g>
</svg>