<?xml version="1.0" encoding="utf-8"?>
<svg version="1.1" xmlns:xlink="http://www.w3.org/1999/xlink" width="14px" height="4px" xmlns="http://www.w3.org/2000/svg">
  <g transform="matrix(1 0 0 1 -699 -124 )">
    <path d="M 13.08625 1.84875  C 13.0851026305518 2.77894162770352  12.3314413155901 3.53278930506356  11.40125 3.53416666015625  L 2.50458333984375 3.53416666015625  C 1.57439202425361 3.53278930506356  0.820730709291937 2.77894162770352  0.819583339843751 1.84875  L 0.819583339843751 1.03625  C 0.819583339843751 0.802500000000002  1.0091666796875 0.612916660156252  1.24291666015625 0.612916660156252  L 12.6629166601562 0.612916660156252  C 12.8966666601562 0.612916660156252  13.08625 0.802500000000002  13.08625 1.03625  L 13.08625 1.84875  Z M 12.24 1.45916666015625  L 1.66583333984375 1.45916666015625  L 1.66583333984375 1.84875  C 1.66583333984375 2.31166666015625  2.04208333984375 2.68791666015625  2.50458333984375 2.68791666015625  L 11.4008333398438 2.68791666015625  C 11.8633333398438 2.68791666015625  12.24 2.31166666015625  12.24 1.84875  L 12.24 1.45916666015625  Z " fill-rule="nonzero" fill="#231815" stroke="none" transform="matrix(1 0 0 1 699 124 )" />
  </g>
</svg>