<?xml version="1.0" encoding="utf-8"?>
<svg version="1.1" xmlns:xlink="http://www.w3.org/1999/xlink" width="5px" height="4px" xmlns="http://www.w3.org/2000/svg">
  <g transform="matrix(1 0 0 1 -557 -115 )">
    <path d="M 0.950833339843747 3.29583333984375  L 0.933750000000002 3.29666666015625  C 0.777974919915016 3.29664510198814  0.651705698492798 3.17035840459055  0.651705698492798 3.01458332301382  C 0.651705698492798 2.9423291081489  0.679431855592874 2.87282964309738  0.729166660156249 2.82041666015625  C 1.28291666015625 2.2345833203125  1.9925 1.8595833203125  2.67958333984375 1.49708333984375  C 3.33583333984375 1.1504166796875  3.95583333984375 0.8229166796875  4.35875 0.34958333984375  C 4.41241601367526 0.28724793700784  4.49058540539172 0.25139806186405  4.5728395449259 0.25139806186405  C 4.7288599867531 0.25139806186405  4.8553395449259 0.37787762003685  4.8553395449259 0.53389806186405  C 4.8553395449259 0.548216179680738  4.85425100649579 0.562513578544877  4.85208333984375 0.57666666015625  C 4.70625 1.4983333203125  4.1841666796875 2.33  3.61625 3.17208333984375  C 3.56294498844918 3.25201197040269  3.47228596075636 3.29891542324282  3.37625 3.29625  C 3.18248640718611 3.29163706579336  2.98873569333796 3.28649816014101  2.795 3.28083333984375  C 2.485 3.2716666796875  2.21708333984375 3.26333333984375  1.93708333984375 3.26333333984375  C 1.6191666796875 3.26333333984375  1.3154166796875 3.27333333984375  0.950833339843747 3.29583333984375  Z M 1.735 2.70041666015625  L 1.93708333984375 2.69916666015625  C 2.225 2.69916666015625  2.49708333984375 2.7075  2.81125 2.71666666015625  C 2.94291666015625 2.72041666015625  3.08208333984375 2.7245833203125  3.23416666015625 2.72833333984375  C 3.5725 2.2216666796875  3.83541666015625 1.7879166796875  4.01958333984375 1.37833333984375  C 3.68 1.60625  3.3079166796875 1.8025  2.94333333984375 1.99541666015625  C 2.5325 2.2125  2.1125 2.43416666015625  1.735 2.70041666015625  Z " fill-rule="nonzero" fill="#231815" stroke="none" transform="matrix(1 0 0 1 557 115 )" />
  </g>
</svg>