<?xml version="1.0" encoding="utf-8"?>
<svg version="1.1" xmlns:xlink="http://www.w3.org/1999/xlink" width="14px" height="3px" xmlns="http://www.w3.org/2000/svg">
  <g transform="matrix(1 0 0 1 -699 -120 )">
    <path d="M 7.9525 1.655  C 7.75708333984375 1.81041666015625  7.49083333984375 2.01958333984375  7.0175 2.01958333984375  L 6.99166666015625 2.01958333984375  C 6.5508333203125 2.01083333984375  6.27791666015625 1.8225  6.05791666015625 1.67125  C 5.8483333203125 1.52666666015625  5.68166666015625 1.41208333984375  5.32708333984375 1.41208333984375  L 5.31416666015625 1.41208333984375  C 4.9745833203125 1.41458333984375  4.84541666015625 1.51625  4.66666666015625 1.65666666015625  C 4.4683333203125 1.8125  4.195 2.02291666015625  3.70958333984375 2.01916666015625  L 3.70625 2.01916666015625  C 3.26541666015625 2.01041666015625  2.99208333984375 1.8220833203125  2.7725 1.67083333984375  C 2.5625 1.52625  2.39625 1.4116666796875  2.04166666015625 1.41166666015625  L 2.02875 1.41166666015625  C 1.68958333984375 1.41416666015625  1.56 1.5158333203125  1.38125 1.65625  C 1.18291666015625 1.8125  0.914166660156249 2.02458333984375  0.42291666015625 2.01875  C 0.195452137011222 2.01021578581799  0.0154551459641072 1.82333886593352  0.0154551459641072 1.59571430201016  C 0.0154551459641072 1.36582483541265  0.19892517641898 1.17795135932045  0.42875 1.1725  L 0.4475 1.1725  C 0.62708333984375 1.1725  0.70041666015625 1.11458333984375  0.85791666015625 0.99083333984375  C 1.08416666015625 0.81333333984375  1.3933333203125 0.57  2.02208333984375 0.565  C 2.6479166796875 0.55958333984375  2.9991666796875 0.799166660156249  3.2525 0.973333339843752  C 3.44375 1.10458333984375  3.54375 1.16875  3.72208333984375 1.1725  C 3.91083333984375 1.17125  3.98333333984375 1.1175  4.14416666015625 0.99083333984375  C 4.37 0.81333333984375  4.6795833203125 0.57  5.30833333984375 0.565  L 5.32708333984375 0.565  C 5.94583333984375 0.565  6.28833333984375 0.80083333984375  6.53875 0.973333339843752  C 6.72958333984375 1.10458333984375  6.83 1.16875  7.00791666015625 1.1725  C 7.19666666015625 1.17375  7.2695833203125 1.1175  7.43 0.99083333984375  C 7.65625 0.81333333984375  7.96541666015625 0.57  8.59416666015625 0.565  L 8.61291666015625 0.565  C 9.23166666015625 0.565  9.57375 0.80083333984375  9.82458333984375 0.973333339843752  C 10.0154166796875 1.10458333984375  10.1158333398437 1.16875  10.29375 1.1725  C 10.4795833398437 1.17125  10.555 1.1175  10.7158333398438 0.99083333984375  C 10.9416666796875 0.81333333984375  11.25125 0.57  11.88 0.565  L 11.89875 0.565  C 12.5175 0.565  12.8595833398438 0.80083333984375  13.1104166601563 0.973333339843752  C 13.3025 1.105  13.4020833203125 1.16875  13.5808333398437 1.1725  C 13.812778288939 1.17478517367997  13.9996038648292 1.36346046407792  13.9996038648292 1.59541666992187  C 13.9996038648292 1.82899843280538  13.8102484328054 2.01835386482916  13.5766666699219 2.01835386482916  C 13.5752777546716 2.01835386482916  13.5738888478467 2.01834702308435  13.5725 2.01833333984375  L 13.56375 2.01833333984375  C 13.1229166601563 2.00958333984375  12.85 1.82125  12.63 1.67  C 12.42 1.52541666015625  12.2541666601563 1.41083333984375  11.8991666601563 1.41083333984375  L 11.88625 1.41083333984375  C 11.5466666601563 1.41333333984375  11.4170833398437 1.515  11.2383333398438 1.65541666015625  C 11.04 1.81125  10.7691666796875 2.02166666015625  10.28125 2.01791666015625  L 10.2779166601563 2.01791666015625  C 9.8370833203125 2.00916666015625  9.56375 1.8208333203125  9.34416666015625 1.66958333984375  C 9.13416666015625 1.525  8.96791666015625 1.4104166796875  8.61291666015625 1.41041666015625  L 8.6 1.41041666015625  C 8.26041666015625 1.41291666015625  8.13125 1.5145833203125  7.9525 1.655  Z " fill-rule="nonzero" fill="#009844" stroke="none" transform="matrix(1 0 0 1 699 120 )" />
  </g>
</svg>