<?xml version="1.0" encoding="utf-8"?>
<svg version="1.1" xmlns:xlink="http://www.w3.org/1999/xlink" width="142px" height="33px" xmlns="http://www.w3.org/2000/svg">
  <defs>
    <mask fill="white" id="clip939">
      <path d="M 2 1  L 109.764410937287 0.998429653054673  L 141.29805208775 32.5320708035025  C 140.950858046353 32.825125174372  140.499275590308 33  140 33  L 0 33  L 0 3  C 0 1.88  0.879999999999999 1  2 1  Z " fill-rule="evenodd" />
    </mask>
  </defs>
  <g transform="matrix(1 0 0 1 1259 -1085 )">
    <path d="M 2 1  L 109.764410937287 0.998429653054673  L 141.29805208775 32.5320708035025  C 140.950858046353 32.825125174372  140.499275590308 33  140 33  L 0 33  L 0 3  C 0 1.88  0.879999999999999 1  2 1  Z " fill-rule="nonzero" fill="#fafafa" stroke="none" transform="matrix(1 0 0 1 -1259 1085 )" />
    <path d="M 2 1  L 109.764410937287 0.998429653054673  L 141.29805208775 32.5320708035025  C 140.950858046353 32.825125174372  140.499275590308 33  140 33  L 0 33  L 0 3  C 0 1.88  0.879999999999999 1  2 1  Z " stroke-width="2" stroke="#cccccc" fill="none" transform="matrix(1 0 0 1 -1259 1085 )" mask="url(#clip939)" />
  </g>
</svg>