<?xml version="1.0" encoding="utf-8"?>
<svg version="1.1" xmlns:xlink="http://www.w3.org/1999/xlink" width="14px" height="16px" xmlns="http://www.w3.org/2000/svg">
  <g transform="matrix(1 0 0 1 1240 -1094 )">
    <path d="M 8.39791666015625 9.88541666015625  C 8.81795741745919 9.76322232360154  9.22003864397785 9.58613846950045  9.59375 9.35875  L 12.73125 13.02  C 12.9253558850315 13.2465321475994  13.0320456608955 13.5350148721603  13.0320456608955 13.8333333404116  C 13.0320456608955 14.5236745632015  12.47242456232 15.0833125307788  11.7820833398437 15.0833333398437  L 2.21791666015625 15.0833333398437  C 1.52757543768004 15.0833125307788  0.967954339104526 14.5236745632015  0.967954339104526 13.8333333404116  C 0.967954339104526 13.5350148721603  1.07464411496851 13.2465321475994  1.26875 13.02  L 4.40666666015625 9.35916666015625  C 4.77625 9.58416666015625  5.1775 9.7620833203125  5.60208333984375 9.88541666015625  L 2.21791666015625 13.8333333398437  L 6.375 13.8333333398437  L 6.375 11.3333333398437  L 7.625 11.3333333398437  L 7.625 13.8333333398437  L 11.7820833398437 13.8333333398437  L 8.39791666015625 9.88541666015625  Z M 2.83333333984375 5.08333333984375  C 2.83333333984375 2.78208333984375  4.69875 0.91666666015625  7 0.91666666015625  C 9.30125 0.91666666015625  11.1666666601563 2.7820833203125  11.1666666601563 5.08333333984375  C 11.1666666601563 7.384583359375  9.30125 9.25  7 9.25  C 4.69875 9.25  2.83333333984375 7.38458333984375  2.83333333984375 5.08333333984375  Z M 7 2.16666666015625  C 5.38916947786239 2.16666666015625  4.08333333007813 3.47250280794051  4.08333333007813 5.08333333007813  C 4.08333333007813 6.69416385221574  5.38916947786239 8  7 8  C 8.61083052213762 8  9.91666666992187 6.69416385221574  9.91666666992187 5.08333333007813  C 9.91666666992187 3.47250280794051  8.61083052213762 2.16666666015625  7 2.16666666015625  Z " fill-rule="nonzero" fill="#666666" stroke="none" transform="matrix(1 0 0 1 -1240 1094 )" />
  </g>
</svg>