<?xml version="1.0" encoding="utf-8"?>
<svg version="1.1" xmlns:xlink="http://www.w3.org/1999/xlink" width="16px" height="18px" xmlns="http://www.w3.org/2000/svg">
  <g transform="matrix(1 0 0 1 1247 -10 )">
    <path d="M 9.59761904017857 11.1210937426758  C 10.0776656199534 10.9836251140517  10.537187021689 10.784405778188  10.9642857142857 10.52859375  L 14.55 14.6475  C 14.7718352971788 14.9023486660493  14.8937664695948 15.2268917311803  14.8937664695948 15.5625000079631  C 14.8937664695948 16.3391338836016  14.2541994997942 16.9687265971261  13.4652381026786 17  L 2.53476189732143 17  C 1.74580050020576 16.9687265971261  1.10623353040517 16.3391338836016  1.10623353040517 15.5625000079631  C 1.10623353040517 15.2268917311803  1.22816470282115 14.9023486660493  1.45 14.6475  L 5.03619046875 10.5290624926758  C 5.45857142857143 10.7821874926758  5.91714285714286 10.9823437353516  6.40238095982143 11.1210937426758  L 2.53476189732143 15.5625000073242  L 7.28571428571429 15.5625000073242  L 7.28571428571429 12.7500000073242  L 8.71428571428571 12.7500000073242  L 8.71428571428571 15.5625000073242  L 13.4652381026786 15.5625000073242  L 9.59761904017857 11.1210937426758  Z M 3.23809524553571 5.71875000732422  C 3.23809524553571 3.12984375732422  5.37 1.03124999267578  8 1.03124999267578  C 10.63 1.03124999267578  12.7619047544643 3.12984373535156  12.7619047544643 5.71875000732422  C 12.7619047544643 8.30765627929688  10.63 10.40625  8 10.40625  C 5.37 10.40625  3.23809524553571 8.30765625732422  3.23809524553571 5.71875000732422  Z M 8 2.43749999267578  C 6.15905083184273 2.43749999267578  4.66666666294643 3.90656565893307  4.66666666294643 5.71874999633789  C 4.66666666294643 7.53093433374271  6.15905083184273 9  8 9  C 9.84094916815728 9  11.3333333370536 7.53093433374271  11.3333333370536 5.71874999633789  C 11.3333333370536 3.90656565893307  9.84094916815728 2.43749999267578  8 2.43749999267578  Z " fill-rule="nonzero" fill="#999999" stroke="none" transform="matrix(1 0 0 1 -1247 10 )" />
  </g>
</svg>