<?xml version="1.0" encoding="utf-8"?>
<svg version="1.1" xmlns:xlink="http://www.w3.org/1999/xlink" width="15px" height="17px" xmlns="http://www.w3.org/2000/svg">
  <g transform="matrix(1 0 0 1 522 -9 )">
    <path d="M 8.74166667382813 13.2166666738281  C 8.74166667382813 11.9791666738281  9.75 11.0166666738281  10.9416666738281 11.0166666738281  C 12.1791666738281 11.0166666738281  13.1416666738281 11.9791666738281  13.1416666738281 13.2166666738281  C 13.1416666738281 13.6291666738281  13.05 13.9958333476562  12.8208333261719 14.3166666738281  L 14.15 15.6458333261719  L 13.4166666738281 16.425  L 12.0875 15.0958333261719  C 11.7666666738281 15.2791666523438  11.3541666738281 15.4166666523437  10.9416666738281 15.4166666738281  C 9.70416667382812 15.4166666738281  8.74166667382813 14.4541666738281  8.74166667382813 13.2166666738281  Z M 1 3.225  C 0.950000000000002 2.44583332617188  1.59166667382813 1.85  2.325 1.85  L 3.24166667382813 1.85  L 3.24166667382813 3.225  L 2.325 3.225  L 2.325 14.6833333261719  L 7.825 14.6833333261719  L 7.825 16.0583333261719  L 2.325 16.0583333261719  C 1.54583332617188 16.0583333261719  0.950000000000002 15.4625  1 14.6833333261719  L 1 3.225  Z M 11.7666666738281 13.2166666738281  C 11.7666666738281 12.7583333476563  11.4 12.3916666738281  10.9416666738281 12.3916666738281  C 10.4833333476563 12.3916666738281  10.1166666738281 12.7583333476563  10.1166666738281 13.2166666738281  C 10.1166666738281 13.675  10.4833333476563 14.0416666738281  10.9416666738281 14.0416666738281  C 11.4 14.0416666738281  11.7666666738281 13.675  11.7666666738281 13.2166666738281  Z M 10.575 1.85  L 11.4916666738281 1.85  C 12.2708333476563 1.85  12.8666666738281 2.44583332617187  12.8666666738281 3.225  L 12.8666666738281 10.5583333261719  L 11.4916666738281 10.5583333261719  L 11.4916666738281 3.225  L 10.575 3.225  L 10.575 1.85  Z M 3.7 9.18333332617187  L 7.825 9.18333332617187  L 7.825 10.5583333261719  L 3.7 10.5583333261719  L 3.7 9.18333332617187  Z M 3.7 6.43333332617187  L 10.1166666738281 6.43333332617187  L 10.1166666738281 7.80833332617187  L 3.7 7.80833332617187  L 3.7 6.43333332617187  Z M 5.53333332617188 0.475000000000001  L 8.28333332617188 0.475  C 9.0625 0.475  9.65833332617188 1.07083332617187  9.65833332617188 1.85  L 9.65833332617188 2.76666667382812  C 9.65833332617188 3.54583334765625  9.0625 4.14166667382812  8.28333332617188 4.14166667382812  L 5.53333332617188 4.14166667382812  C 4.75416665234375 4.14166667382812  4.15833332617188 3.54583334765625  4.15833332617188 2.76666667382812  L 4.15833332617188 1.85  C 4.15833332617188 1.07083332617188  4.75416665234375 0.475000000000001  5.53333332617188 0.475000000000001  Z M 8.28333332617188 2.76666667382812  L 8.28333332617188 1.85  L 5.53333332617188 1.85  L 5.53333332617188 2.76666667382812  L 8.28333332617188 2.76666667382812  Z " fill-rule="nonzero" fill="#ffffff" stroke="none" transform="matrix(1 0 0 1 -522 9 )" />
  </g>
</svg>