<?xml version="1.0" encoding="utf-8"?>
<svg version="1.1" xmlns:xlink="http://www.w3.org/1999/xlink" width="12px" height="12px" viewBox="127 24.5  12 12" xmlns="http://www.w3.org/2000/svg">
  <path d="M 127.5 25.5  A 0.5 0.5 0 0 1 128 25 L 138 25  A 0.5 0.5 0 0 1 138.5 25.5 L 138.5 35.5  A 0.5 0.5 0 0 1 138 36 L 128 36  A 0.5 0.5 0 0 1 127.5 35.5 L 127.5 25.5  Z " fill-rule="nonzero" fill="#ffffff" stroke="none" />
  <path d="M 127.5 25.5  A 0.5 0.5 0 0 1 128 25 L 138 25  A 0.5 0.5 0 0 1 138.5 25.5 L 138.5 35.5  A 0.5 0.5 0 0 1 138 36 L 128 36  A 0.5 0.5 0 0 1 127.5 35.5 L 127.5 25.5  Z " stroke-width="1" stroke="#999999" fill="none" />
</svg>