<?xml version="1.0" encoding="utf-8"?>
<svg version="1.1" xmlns:xlink="http://www.w3.org/1999/xlink" width="12px" height="12px" viewBox="97 91.5  12 12" xmlns="http://www.w3.org/2000/svg">
  <path d="M 97.5 92.5  A 0.5 0.5 0 0 1 98 92 L 108 92  A 0.5 0.5 0 0 1 108.5 92.5 L 108.5 102.5  A 0.5 0.5 0 0 1 108 103 L 98 103  A 0.5 0.5 0 0 1 97.5 102.5 L 97.5 92.5  Z " fill-rule="nonzero" fill="#ffffff" stroke="none" />
  <path d="M 97.5 92.5  A 0.5 0.5 0 0 1 98 92 L 108 92  A 0.5 0.5 0 0 1 108.5 92.5 L 108.5 102.5  A 0.5 0.5 0 0 1 108 103 L 98 103  A 0.5 0.5 0 0 1 97.5 102.5 L 97.5 92.5  Z " stroke-width="1" stroke="#0070cc" fill="none" />
  <path d="M 99.5714285714286 97.5  L 102.142857142857 100.071428571429  " stroke-width="2.57142857142857" stroke="#0070cc" fill="none" />
  <path d="M 102.142857142857 100.071428571429  L 106.428571428571 94.0714285714286  " stroke-width="2.57142857142857" stroke="#0070cc" fill="none" />
</svg>