<?xml version="1.0" encoding="utf-8"?>
<svg version="1.1" xmlns:xlink="http://www.w3.org/1999/xlink" width="14px" height="14px" xmlns="http://www.w3.org/2000/svg">
  <g transform="matrix(1 0 0 1 52 -826 )">
    <path d="M 2.40791666015625 4.70833333984375  L 3.66041666015625 4.70833333984375  L 4.2025 12.3929166601563  L 9.51166666015625 12.3929166601563  L 10.0533333398437 4.70833333984375  L 11.3054166601562 4.70833333984375  L 10.7583333398437 12.4808333398437  C 10.7121842965625 13.1353560263522  10.1678142546614 13.6427918599061  9.51166666015625 13.6429166601562  L 4.2025 13.6429166601562  C 3.54620287664714 13.6427764325259  3.00177412454625 13.1351038969999  2.95583333984375 12.4804166601562  L 2.40791666015625 4.70833333984375  Z M 5.13125 5.09541666015625  L 6.38125 5.09541666015625  L 6.38125 10.92875  L 5.13125 10.92875  L 5.13125 5.09541666015625  Z M 7.41666666015625 5.09541666015625  L 8.66666666015625 5.09541666015625  L 8.66666666015625 10.92875  L 7.41666666015625 10.92875  L 7.41666666015625 5.09541666015625  Z M 0.541666660156251 4  L 0.54166666015625 2.625  L 13.0416666601563 2.625  L 13.0416666601563 4  L 0.541666660156251 4  Z M 4.39875 0.54166666015625  L 9.39875 0.54166666015625  L 9.39875 1.79166666015625  L 4.39875 1.79166666015625  L 4.39875 0.54166666015625  Z " fill-rule="nonzero" fill="#0070cc" stroke="none" transform="matrix(1 0 0 1 -52 826 )" />
  </g>
</svg>