<?xml version="1.0" encoding="utf-8"?>
<svg version="1.1" xmlns:xlink="http://www.w3.org/1999/xlink" width="14px" height="18px" xmlns="http://www.w3.org/2000/svg">
  <g transform="matrix(1 0 0 1 -230 -10 )">
    <path d="M 9.20833332617187 11.75  L 12.4166666738281 11.75  C 13.1760582048455 11.75  13.7916666738281 12.3656084689827  13.7916666738281 13.125  L 13.7916666738281 15.875  C 13.7916666738281 16.6343915310173  13.1760582048455 17.25  12.4166666738281 17.25  L 9.20833332617187 17.25  C 8.44894179515453 17.25  7.83333332617187 16.6343915310173  7.83333332617187 15.875  L 7.83333332617187 13.125  C 7.83333332617187 12.3656084689827  8.44894179515453 11.75  9.20833332617187 11.75  Z M 0 3.5  C 0.0416666738281251 2.74060846898266  0.657275142810785 2.125  1.41666667382813 2.125  L 2.33333332617188 2.125  L 2.33333332617188 3.49954167382812  L 1.41666667382813 3.5  L 1.41666667382813 14.9583333261719  L 6.91666667382813 14.9583333261719  L 6.91666667382813 16.3333333261719  L 1.41666667382813 16.3333333261719  C 0.657275142810785 16.3333333261719  0.0416666738281251 15.7177248571892  0 14.9583333261719  L 0 3.5  Z M 12.4166666738281 15.875  L 12.4166666738281 13.125  L 9.20833332617187 13.125  L 9.20833332617187 15.875  L 12.4166666738281 15.875  Z M 9.68316667382812 13.8125  L 11.9583333261719 13.8125  L 11.9583333261719 15.1875  L 9.68316667382812 15.1875  L 9.68316667382812 13.8125  Z M 9.66666667382813 2.125  L 10.5833333261719 2.125  C 11.3427248571892 2.125  11.9583333261719 2.74060846898266  11.9583333261719 3.5  L 11.9583333261719 10.8333333261719  L 10.5833333261719 10.8333333261719  L 10.5833333261719 3.5  L 9.66666667382813 3.5  L 9.66666667382813 2.125  Z M 2.79166667382813 9.45833332617187  L 6.91666667382813 9.45833332617187  L 6.91666667382813 10.8333333261719  L 2.79166667382813 10.8333333261719  L 2.79166667382813 9.45833332617187  Z M 2.79166667382813 6.70833332617187  L 9.20833332617187 6.70833332617187  L 9.20833332617187 8.08333332617187  L 2.79166667382813 8.08333332617187  L 2.79166667382813 6.70833332617187  Z M 4.625 0.75  L 7.375 0.75  C 8.13439153101734 0.75  8.75 1.36560846898266  8.75 2.125  L 8.75 3.04166667382813  C 8.75 3.80105820484546  8.13439153101734 4.41666667382812  7.375 4.41666667382812  L 4.625 4.41666667382812  C 3.86560846898266 4.41666667382812  3.25 3.80105820484546  3.25 3.04166667382812  L 3.25 2.125  C 3.25 1.36560846898266  3.86560846898266 0.75  4.625 0.75  Z M 7.375 3.04166667382813  L 7.375 2.125  L 4.625 2.125  L 4.625 3.04166667382813  L 7.375 3.04166667382813  Z " fill-rule="nonzero" fill="#0070cc" stroke="none" transform="matrix(1 0 0 1 230 10 )" />
  </g>
</svg>