<?xml version="1.0" encoding="utf-8"?>
<svg version="1.1" xmlns:xlink="http://www.w3.org/1999/xlink" width="14px" height="17px" xmlns="http://www.w3.org/2000/svg">
  <g transform="matrix(1 0 0 1 -32 -88 )">
    <path d="M 9.31466667382813 10.8049166738281  L 10.9353333261719 10.8049166738281  C 11.42656103289 10.8049291529624  11.880469472892 11.0670010005386  12.1260833261719 11.4924166738281  L 12.9364166738281 12.8958333261719  C 13.18203676689 13.3212598067148  13.18203676689 13.8454068456289  12.9364166738281 14.2708333261719  L 12.1260833261719 15.67425  C 11.880469472892 16.0996656732895  11.42656103289 16.3617375208657  10.9353333261719 16.36175  L 9.31466667382813 16.36175  C 8.82343896710995 16.3617375208657  8.36953052710796 16.0996656732895  8.12391667382813 15.67425  L 7.31358332617188 14.2708333261719  C 7.06796323311001 13.8454068456289  7.06796323311001 13.3212598067148  7.31358332617188 12.8958333261719  L 8.12391667382813 11.4924166738281  C 8.36953052710796 11.0670010005386  8.82343896710995 10.8049291529624  9.31466667382813 10.8049166738281  Z M 0 3.5  C 0.0416666738281251 2.74060846898266  0.657275142810785 2.125  1.41666667382813 2.125  L 2.33333332617188 2.125  L 2.33333332617188 3.49954167382812  L 1.41666667382813 3.5  L 1.41666667382813 14.9583333261719  L 6 14.9583333261719  L 6 16.3333333261719  L 1.41666667382813 16.3333333261719  C 0.657275142810785 16.3333333261719  0.0416666738281251 15.7177248571892  0 14.9583333261719  L 0 3.5  Z M 11.7456666738281 13.5833333261719  L 10.9353333261719 12.1799166738281  L 9.31466667382813 12.1799166738281  L 8.50433332617187 13.5833333261719  L 9.31466667382813 14.98675  L 10.9353333261719 14.98675  L 11.7456666738281 13.5833333261719  Z M 9.20847366151965 13.5833333369141  C 9.20847366151965 13.0771271157744  9.61879378479243 12.6667441705105  10.125 12.6666666738281  C 10.6314013599812 12.6666666630859  11.0418070091759 13.0770723122807  11.0418070091759 13.5833333369141  C 11.0418070091759 14.0895943615475  10.6314013599812 14.5000000107422  10.1251403353478 14.5000000107422  C 9.61879378479243 14.4999225033176  9.20847366151965 14.0895395580537  9.20847366151965 13.5833333369141  Z M 2.79166667382812 9.45833332617187  L 6.91666667382813 9.45833332617187  L 6.91666667382813 10.8333333261719  L 2.79166667382812 10.8333333261719  L 2.79166667382812 9.45833332617187  Z M 9.66666667382813 2.125  L 10.5833333261719 2.125  C 11.3427248571892 2.125  11.9583333261719 2.74060846898266  11.9583333261719 3.5  L 11.957875 9.91666667382813  L 10.582875 9.91666667382813  L 10.5833333261719 3.5  L 9.66666667382813 3.5  L 9.66666667382813 2.125  Z M 2.79166667382813 6.70833332617187  L 9.20833332617187 6.70833332617187  L 9.20833332617187 8.08333332617187  L 2.79166667382813 8.08333332617187  L 2.79166667382813 6.70833332617187  Z M 4.625 0.75  L 7.375 0.75  C 8.13439153101734 0.75  8.75 1.36560846898266  8.75 2.125  L 8.75 3.04166667382813  C 8.75 3.80105820484546  8.13439153101734 4.41666667382812  7.375 4.41666667382812  L 4.625 4.41666667382812  C 3.86560846898266 4.41666667382812  3.25 3.80105820484546  3.25 3.04166667382812  L 3.25 2.125  C 3.25 1.36560846898266  3.86560846898266 0.75  4.625 0.75  Z M 7.375 3.04166667382813  L 7.375 2.125  L 4.625 2.125  L 4.625 3.04166667382813  L 7.375 3.04166667382813  Z " fill-rule="nonzero" fill="#666666" stroke="none" transform="matrix(1 0 0 1 32 88 )" />
  </g>
</svg>